<svg xmlns="http://www.w3.org/2000/svg" width="259.827" height="158.849" viewBox="0 0 259.827 158.849">
  <g id="Group_5_2_" data-name="Group 5 (2)" transform="translate(0)">
    <path id="Trazado_599329" data-name="Trazado 599329" d="M243.91,158.455l-220.667-.076S-14.048,106.986,5.84,72.6,54.777,62.492,57.2,37.653a24.839,24.839,0,0,0,.017-2.485c0-.194,0-.384.013-.574C57.972,20.329,67.28,11.11,79.563,5.806q.595-.257,1.2-.5c19.588-7.938,46.074-6.3,57.8.52,19.949,11.613,19.825,25.59,61.019,20.979s49.05,33.945,38.327,53.587C222.691,108.264,280.1,103.686,243.91,158.455Z" transform="translate(0)" fill="#fafafa"/>
    <path id="Trazado_599330" data-name="Trazado 599330" d="M742.508,303.615l-5.362-5.279-5.263-5.181a.953.953,0,0,1-.222-.919c.271-.965,1.908-1.925,2.864-2.73l.1-.082a3,3,0,0,1,4.221.358l6.434,7.627,1.908,2.262a3,3,0,0,1-.358,4.221l-.1.082a3,3,0,0,1-4.222-.359Z" transform="translate(-584.375 -230.613)" fill="#ffb27d"/>
    <path id="Trazado_599331" data-name="Trazado 599331" d="M509.943,131.638a2.451,2.451,0,0,1-2.186,1.917,22.792,22.792,0,0,1-11.391-1.352c-5.243.025-8.955-1.885-10.079-.9-.041.036-.03.114.03.225,1.028,1.995,16.937,15.258,17.169,16.73.245,1.554-29.592,8.865-29.592,8.865s-4.409-2.748-9.344-6.355c-2.5-1.827-5.141-3.874-7.409-5.9a27.29,27.29,0,0,1-5.221-5.785l-.005-.012a7.018,7.018,0,0,1-.4-.761c-.019-.039-.034-.075-.047-.107a14.589,14.589,0,0,0-3.705-4.932,33.31,33.31,0,0,0-9.261-5.643l21.909-11.691s20.117,2.364,23.335,4.317c4.691,2.849,14.513,4.936,16.4,6.04,1.4.818,8.8,3.473,9.335,3.71a1.857,1.857,0,0,1,.459,1.625Z" transform="translate(-350.25 -92.61)" fill="#ffb27d"/>
    <path id="Trazado_599332" data-name="Trazado 599332" d="M330.305,43.033s-.005.044-.018.128a54.863,54.863,0,0,1-1.559,7.282c-.038.131-.076.264-.115.395l-.054.178c-1.265,4.188-3.323,8.829-6.5,10.7h0c-.182.107-.368.2-.557.294a5.871,5.871,0,0,1-1.381.449,5.653,5.653,0,0,1-1.1.106s-2.786-.335-6.954-.842l-.7-.087c-7.535-.92-19.051-2.344-27.082-3.418,0-.194,0-.385.013-.574.744-14.265,10.053-23.484,22.336-28.788,6.524,3.9,12.636,7.563,17.015,10.188h0a.089.089,0,0,1,.01.006l.818.49.017.01c3.584,2.15,5.8,3.483,5.8,3.483Z" transform="translate(-227.074 -23.049)" fill="#b6c0d7"/>
    <path id="Trazado_599333" data-name="Trazado 599333" d="M491.945,175.1a.245.245,0,0,1,.026.057c2.059,13.016,9.617,10.869,9.617,10.869l-.284,10.7c-2.5-1.827-5.141-3.874-7.409-5.9a27.29,27.29,0,0,1-5.221-5.785l-.005-.012c-.178-.323-.312-.58-.4-.761-.019-.039-.034-.075-.047-.107a14.586,14.586,0,0,0-3.705-4.932c.805-1.375,1.745-2.936,2.673-4.466a2.679,2.679,0,0,1,4.753.332Z" transform="translate(-387.005 -138.56)" fill="#efa26f"/>
    <path id="Trazado_599334" data-name="Trazado 599334" d="M429.967,79.409s-7.069,6.114-9.981,10.41l2.11,3.659-3.589-.338s-1.828,6.633-.835,8.873l9.787.921L438.74,84.883Z" transform="translate(-333.375 -63.427)" fill="#8693ae"/>
    <path id="Trazado_599335" data-name="Trazado 599335" d="M421.956,94.274c-.29-2.66,2.291-8.093,2.291-8.093l8.678,1.732-6.681-7.042c1.509-3.122,5.126-7.885,7.363-10.707,1.115-1.4,1.887-2.328,1.887-2.328,6.426,4.885,12.409,9.753,12.409,9.753-2.623,1.016-5.078,3.776-7.121,6.826a63.4,63.4,0,0,0-5.652,10.936c-5.208-.492-13.174-1.075-13.174-1.075Z" transform="translate(-337.015 -54.183)" fill="#dceaff"/>
    <path id="Trazado_599336" data-name="Trazado 599336" d="M421.956,103.514c-.29-2.66,2.291-8.093,2.291-8.093l8.678,1.732-6.681-7.042c1.509-3.122,5.126-7.885,7.363-10.707.114,7.782,7.175,14.249,7.175,14.249a63.411,63.411,0,0,0-5.652,10.936c-5.208-.492-13.174-1.075-13.174-1.075Z" transform="translate(-337.015 -63.424)" fill="#cbe1fd"/>
    <path id="Trazado_599337" data-name="Trazado 599337" d="M465.32,113.912a1.063,1.063,0,1,1-1.167.948A1.064,1.064,0,0,1,465.32,113.912Z" transform="translate(-370.733 -90.981)" fill="#8693ae"/>
    <path id="Trazado_599338" data-name="Trazado 599338" d="M594.853,148.036l-62.438,17.81,8.181,28.682,62.438-17.81Z" transform="translate(-425.261 -118.242)" fill="#c7edb4"/>
    <path id="Trazado_599339" data-name="Trazado 599339" d="M613.126,169.124,549.275,180.9l5.41,29.332,63.851-11.777Z" transform="translate(-438.728 -135.086)" fill="#a8d29f"/>
    <path id="Trazado_599340" data-name="Trazado 599340" d="M626.715,204.971,623.991,190.2v-.005l-1.342-7.274-.7.128-11.958,2.206h0l-.136.026L600.9,186.93l-1.146.211h0l-9.6,1.771L564.9,193.567h0l-.017.006-.429.078h-.013l-.01,0-.643.118.97,5.262,1.134,6.153,2.451,13.29,13.8-2.544.614-.113,2.288-.422.509-.094.671-.124.613-.114,1.17-.216,2.854-.527.81-.149,1.123-.208.98-.181,5.73-1.057h0l1.164-.215.917-.169,7.933-1.462,7.128-1.314,2.605-.48,7.952-1.466-.49-2.653Zm-3.547,2.313-12.9,2.378h0l-1.54.284h0l-8.068,1.488-.749.138-5.692,1.049-1.8.332-1.156.214-.827.153-2.693.5-1.114.2-.677.126-.643.118-.515.094-2.279.421-.646.12-9.874,1.82a2.84,2.84,0,0,1-3.309-2.278l-1.543-8.37-1.6-8.648a2.841,2.841,0,0,1,2.278-3.31l23.3-4.3,10.911-2.012,3.106-.574h0l3.907-.72.127-.024h0L619,184.68a2.84,2.84,0,0,1,3.309,2.278l3.138,17.017a2.838,2.838,0,0,1-2.278,3.31Z" transform="translate(-450.319 -146.105)" fill="#c7edb4"/>
    <path id="Trazado_599341" data-name="Trazado 599341" d="M692.783,248.421a7.477,7.477,0,1,1,6.155-8.6A7.476,7.476,0,0,1,692.783,248.421Z" transform="translate(-546.405 -186.559)" fill="#c7edb4"/>
    <path id="Trazado_599342" data-name="Trazado 599342" d="M637.149,277.036a2.76,2.76,0,1,1,2.272-3.174A2.76,2.76,0,0,1,637.149,277.036Z" transform="translate(-506.351 -216.9)" fill="#c7edb4"/>
    <path id="Trazado_599343" data-name="Trazado 599343" d="M784.663,249.829a2.76,2.76,0,1,1,2.272-3.174A2.76,2.76,0,0,1,784.663,249.829Z" transform="translate(-624.176 -195.168)" fill="#c7edb4"/>
    <path id="Trazado_599344" data-name="Trazado 599344" d="M679.257,331.409l-.235-.634-1.583-4.265a2.776,2.776,0,0,1-.093-.3,2.905,2.905,0,0,1,1.8-3.42l.164-.061a2.9,2.9,0,0,1,3.723,1.708l1.475,3.976.108.289.235.634a2.9,2.9,0,0,1-1.708,3.723l-.164.061A2.9,2.9,0,0,1,679.257,331.409Z" transform="translate(-540.953 -257.63)" fill="#ffb27d"/>
    <path id="Trazado_599345" data-name="Trazado 599345" d="M683.552,332.547a17,17,0,0,1-.824-2.688,1.131,1.131,0,0,1,.451-.884,2.625,2.625,0,0,1,.968-.527,3.013,3.013,0,0,1,.617-.14,2.6,2.6,0,0,1,.732.029.734.734,0,0,1,.519.409s0,0,0,0a16.826,16.826,0,0,1,.991,2.587,1.12,1.12,0,0,1-.632,1.385l-.244.088-1.253.446a1.071,1.071,0,0,1-1.326-.708Z" transform="translate(-545.318 -262.222)" fill="#ffd3b6"/>
    <path id="Trazado_599346" data-name="Trazado 599346" d="M683.552,334.252a17,17,0,0,1-.824-2.688,1.131,1.131,0,0,1,.451-.884c.083-.035.172-.067.266-.1a3.008,3.008,0,0,1,.617-.14,2.593,2.593,0,0,1,.732.029.73.73,0,0,1,.519.41s0,0,0,0a16.846,16.846,0,0,1,.991,2.587,1.227,1.227,0,0,1-.173,1.043l-1.253.446a1.071,1.071,0,0,1-1.326-.708Z" transform="translate(-545.318 -263.927)" fill="#ffc197"/>
    <path id="Trazado_599347" data-name="Trazado 599347" d="M653.874,333.986l-.867-3.286a1.882,1.882,0,0,1,1.336-2.294l.372-.1a1.882,1.882,0,0,1,2.294,1.336l.867,3.286a1.882,1.882,0,0,1-1.336,2.294l-.372.1A1.882,1.882,0,0,1,653.874,333.986Z" transform="translate(-521.533 -262.183)" fill="#ffb27d"/>
    <path id="Trazado_599348" data-name="Trazado 599348" d="M656.606,334.516a14.872,14.872,0,0,1-.458-2.266,1.1,1.1,0,0,1,.716-.889,2.481,2.481,0,0,1,.946-.233,1.869,1.869,0,0,1,.561.077.581.581,0,0,1,.372.374s0,0,0,0a14.65,14.65,0,0,1,.594,2.195.928.928,0,0,1-.575,1.09l-.3.082-.889.245a.832.832,0,0,1-.973-.679Z" transform="translate(-524.091 -264.485)" fill="#ffd3b6"/>
    <path id="Trazado_599349" data-name="Trazado 599349" d="M656.606,335.194a14.872,14.872,0,0,1-.458-2.266,1.1,1.1,0,0,1,.716-.889,2.106,2.106,0,0,1,.453-.063,1.867,1.867,0,0,1,.561.077.583.583,0,0,1,.371.374s0,0,0,0a14.537,14.537,0,0,1,.593,2.195.989.989,0,0,1-.377,1l-.889.245a.832.832,0,0,1-.973-.679Z" transform="translate(-524.091 -265.162)" fill="#ffc197"/>
    <path id="Trazado_599350" data-name="Trazado 599350" d="M713.626,330.337c-.008-.023-.016-.047-.023-.071l-1.071-4.307a3.555,3.555,0,0,1,2.306-4.327l.891-.249a3.3,3.3,0,0,1,3.956,2.338l.353,1.422.716,2.885a3.555,3.555,0,0,1-2.306,4.327l-.891.249a3.289,3.289,0,0,1-3.933-2.268Z" transform="translate(-569.037 -256.612)" fill="#ffb27d"/>
    <path id="Trazado_599351" data-name="Trazado 599351" d="M720.525,340.675l-.925-2.1s0-.007,0-.013a2.054,2.054,0,0,1-.05-.253c-.006-.035-.008-.071-.012-.106a.244.244,0,0,1,0-.044.333.333,0,0,1,.472-.285,2.075,2.075,0,0,0,1.416.129l.182-.048a.009.009,0,0,0,.006,0l.594-.157a2.225,2.225,0,0,0,1.16-.748c.035-.042.068-.087.1-.131a.6.6,0,0,1,1.067.185s0,.008,0,.013l.329,2.3a1.091,1.091,0,0,1-.859,1.261l-.677.179-1.443.381c-.569.149-1.209.01-1.358-.558Z" transform="translate(-574.721 -268.911)" fill="#ffd3b6"/>
    <path id="Trazado_599352" data-name="Trazado 599352" d="M720.525,342.2l-.925-2.1s0-.007,0-.013c-.009-.049-.033-.2-.063-.4a.333.333,0,0,1,.472-.285,2.075,2.075,0,0,0,1.415.129l.183-.048a.009.009,0,0,0,.006,0l.594-.157a2.224,2.224,0,0,0,1.16-.748.58.58,0,0,1,.231.331s0,.008,0,.013l.329,2.3a1.041,1.041,0,0,1-.6,1.161l-1.443.381c-.569.149-1.209.01-1.358-.558Z" transform="translate(-574.721 -270.433)" fill="#ffc197"/>
    <path id="Trazado_599353" data-name="Trazado 599353" d="M651.9,142.5s-1.056-8.24,2.163-6.286c4.69,2.848,14.512,4.935,16.4,6.038,1.4.818,8.8,3.473,9.334,3.712a1.649,1.649,0,0,1,.248,1.9,4.561,4.561,0,0,1-2.315,2.224c-4.593,1.786-10.85-1.934-11.05-1.932-5.243.025-10.338-.561-11.819-.348-.516.074-2.963-5.3-2.963-5.3Z" transform="translate(-520.565 -108.563)" fill="#ffb27d"/>
    <path id="Trazado_599354" data-name="Trazado 599354" d="M772.021,179.037l-5.19-1.887a2.671,2.671,0,0,0-.257,1.68C766.822,179.479,771.63,180.622,772.021,179.037Z" transform="translate(-612.238 -141.497)" fill="#ffc197"/>
    <path id="Trazado_599355" data-name="Trazado 599355" d="M320.79,505.187l1.033.839s2.826-1.013,3.464,2.344c0,0,.17,1.431-.737,1.434a18.092,18.092,0,0,0-1.816-.119,2.321,2.321,0,0,1-2.535-1.68l-.614-.883,1.206-1.935Z" transform="translate(-255.265 -403.513)" fill="#ea8e50"/>
    <path id="Trazado_599356" data-name="Trazado 599356" d="M203.106,428.369a2.113,2.113,0,0,0,.758-1.5s-9.543-7.813-10.51-8.449a117.644,117.644,0,0,1-10.972-10.462c-1.629-1.884-3.648-1.153-5.957-.491l-1.9.546a3.18,3.18,0,0,0-1.01,5.431c5.306,4.395,14.133,9.339,15.784,10.378,4.1,2.579,12.126,5.644,12.126,5.644a5.079,5.079,0,0,0,1.681-1.1Z" transform="translate(-137.698 -324.895)" fill="#1e3d70"/>
    <path id="Trazado_599357" data-name="Trazado 599357" d="M367,752.614a7.194,7.194,0,0,0,5.864.818s2.861-.652,3.488.775c0,0-4.387,2.229-5.5,2.838a13.3,13.3,0,0,0-2.328,1.745,1.151,1.151,0,0,1-1.666-.128c-.193-.237-.414-.52-.656-.849-.677-.917-2.253-3.879-2.253-3.879L367,752.613Z" transform="translate(-290.707 -601.142)" fill="#204272"/>
    <path id="Trazado_599358" data-name="Trazado 599358" d="M275.462,384.858a16.191,16.191,0,1,0-22.9,0A16.191,16.191,0,0,0,275.462,384.858Z" transform="translate(-197.945 -285.324)" fill="#e2810e"/>
    <path id="Trazado_599359" data-name="Trazado 599359" d="M268.441,384.859a16.191,16.191,0,1,0-22.9,0A16.191,16.191,0,0,0,268.441,384.859Z" transform="translate(-192.337 -285.325)" fill="#c0ac32"/>
    <path id="Trazado_599360" data-name="Trazado 599360" d="M262.709,394.827a14.75,14.75,0,1,1,10.432-4.32A14.658,14.658,0,0,1,262.709,394.827Zm0-28.624a13.872,13.872,0,1,0,13.872,13.872A13.887,13.887,0,0,0,262.709,366.2Z" transform="translate(-198.053 -291.799)" fill="#fee132"/>
    <path id="Trazado_599361" data-name="Trazado 599361" d="M297.635,399.666a2.435,2.435,0,0,0-.035-.857,1.77,1.77,0,0,0-.362-.711,3.37,3.37,0,0,0-.724-.639,8.947,8.947,0,0,0-1.122-.629,23.428,23.428,0,0,1-2.073-1.139,7.33,7.33,0,0,1-1.549-1.261,4.337,4.337,0,0,1-.916-1.537,4.874,4.874,0,0,1,.394-3.687,4.116,4.116,0,0,1,1.143-1.27,5.108,5.108,0,0,1,1.637-.779,6.815,6.815,0,0,1,2.044-.235l.289-2.432,1.957.232-.292,2.466a6.119,6.119,0,0,1,1.842.783,4.624,4.624,0,0,1,2.061,2.958,6.163,6.163,0,0,1,.081,2.09l-3.535-.42a3,3,0,0,0-.363-2.112,2.086,2.086,0,0,0-1.541-.869,2.649,2.649,0,0,0-.966.042,1.808,1.808,0,0,0-.7.342,1.661,1.661,0,0,0-.454.585,2.449,2.449,0,0,0-.215.769,2.237,2.237,0,0,0,.032.775,1.671,1.671,0,0,0,.347.68,3.4,3.4,0,0,0,.73.64,11.47,11.47,0,0,0,1.167.674q1.133.584,2.051,1.165a7.417,7.417,0,0,1,1.542,1.272,4.169,4.169,0,0,1,1.073,3.5,4.466,4.466,0,0,1-.561,1.754,4.041,4.041,0,0,1-1.148,1.258,4.944,4.944,0,0,1-1.646.75,7.36,7.36,0,0,1-2.054.217l-.268,2.261-1.945-.23.266-2.25a8.26,8.26,0,0,1-1.911-.676,5.234,5.234,0,0,1-1.565-1.182,4.7,4.7,0,0,1-.982-1.758,5.7,5.7,0,0,1-.162-2.393l3.535.42a3.529,3.529,0,0,0,.066,1.373,2.267,2.267,0,0,0,.5.935,2.2,2.2,0,0,0,.809.557,3.767,3.767,0,0,0,.969.247,3.174,3.174,0,0,0,1.026-.028,2.11,2.11,0,0,0,.776-.323,1.677,1.677,0,0,0,.514-.567,2.038,2.038,0,0,0,.239-.761Z" transform="translate(-230.948 -307.107)" fill="#fee132"/>
    <path id="Trazado_599362" data-name="Trazado 599362" d="M244.159,584.032s-1.41,3.252-4.665,2.654A90.786,90.786,0,0,1,228.3,575.5a25.313,25.313,0,0,1-3.48-5.438c-3.021-6.994-11.176-17.428-16.36-22.715l12.971-4.693s4.155,8.358,9.683,18.624c3.984,7.4,8.68,15.785,13.049,22.751Z" transform="translate(-166.502 -433.442)" fill="#263c71"/>
    <path id="Trazado_599363" data-name="Trazado 599363" d="M231.111,561.278,228.3,575.5a25.306,25.306,0,0,1-3.48-5.438c-3.021-6.995-11.176-17.428-16.36-22.715l12.971-4.693s4.155,8.357,9.683,18.624Z" transform="translate(-166.502 -433.438)" fill="#263c71"/>
    <path id="Trazado_599364" data-name="Trazado 599364" d="M249.816,756.349s-.141,2.594,3,2.941c0,0,1.947.05,1.951,1.7l-9.471,0s-.084-.674-.149-2.1a16.342,16.342,0,0,1,1.061-3.96l3.6,1.422Z" transform="translate(-195.81 -602.99)" fill="#204272"/>
    <path id="Trazado_599365" data-name="Trazado 599365" d="M201.761,540.369s5.778,6.35,9.447,17.789c2,6.224-3.658,21.873-4.76,27.309a17.333,17.333,0,0,1-6.386-.68,125.776,125.776,0,0,1,1.32-19.885c.848-4.844-7.609-10.359-11.3-19.112-2.514-5.954.544-5.853,4.3-6l7.381.576Z" transform="translate(-151.09 -431.154)" fill="#263c71"/>
    <path id="Trazado_599366" data-name="Trazado 599366" d="M179.742,370.8c-3.215,1.816-9.8.141-9.8.141a9.167,9.167,0,0,0,1.458-7.978l2.524,1.282,2.711,1.377a22.541,22.541,0,0,1,.3,2.43c.031.4.059.851.078,1.342a8.452,8.452,0,0,1,2.728,1.4Z" transform="translate(-135.742 -289.914)" fill="#ffb07b"/>
    <path id="Trazado_599367" data-name="Trazado 599367" d="M181.913,423.788c0,.565-.651.835-.789.863-1.3.237-4.918,1.645-8.179,1.969a26.15,26.15,0,0,1-8.1-.548c-.371-.075-1.242-.309-1.3-.665-.077-.388-10.806-21.87-2.466-31.1.2-.217,1.843.173,3.348.531a6.182,6.182,0,0,0,3.8-.311l1.412.743c1.734.966,5.015,4.4,5.4,7.092.195,1.369.978,2.384,1.205,3.589q.126.668.257,1.306.256,1.248.528,2.377c.491,2.037,1.008,3.791,1.517,5.306.541,1.608,1.072,2.946,1.546,4.066.615,1.451,1.134,2.536,1.459,3.367a4.143,4.143,0,0,1,.361,1.416Z" transform="translate(-126.124 -314.901)" fill="#b6c0d7"/>
    <path id="Trazado_599368" data-name="Trazado 599368" d="M194.49,451.3A42.154,42.154,0,0,1,174.1,430.469s12.3,4.539,15.339,5.72q.256,1.248.529,2.377c.49,2.037,1.008,3.791,1.517,5.306.541,1.608,1.072,2.946,1.545,4.066.615,1.451,1.134,2.536,1.459,3.367Z" transform="translate(-139.061 -343.833)" fill="#b6c0d7"/>
    <path id="Trazado_599369" data-name="Trazado 599369" d="M316.717,513.115l1.309.479a2.8,2.8,0,0,1,4.252,1.161s.59,1.317-.344,1.6-.595.017-1.908.454a2.5,2.5,0,0,1-3.1-.815l-.889-.653.682-2.229Z" transform="translate(-252.429 -409.778)" fill="#ffb07b"/>
    <path id="Trazado_599370" data-name="Trazado 599370" d="M196.361,432.771c.484-1.263.7-1.834.7-1.834s-9.888-8.06-10.9-8.751c-.687-.471-7.522-5.58-10.854-9.562a6.975,6.975,0,0,0-6.781-2.349l-2.076.435a3.087,3.087,0,0,0-1.377,5.365c5.476,4.695,14.712,10.139,16.434,11.271,4.275,2.812,13.731,6.751,13.731,6.751a2.433,2.433,0,0,0,1.113-1.326Z" transform="translate(-130.996 -327.583)" fill="#b6c0d7"/>
    <path id="Trazado_599371" data-name="Trazado 599371" d="M183.978,373.141a6.769,6.769,0,0,1-5.217-2.433,25.071,25.071,0,0,0,2.208-1.375l2.711,1.377a22.494,22.494,0,0,1,.3,2.43Z" transform="translate(-142.783 -295.001)" fill="#ea8e50"/>
    <path id="Trazado_599372" data-name="Trazado 599372" d="M173.541,340.114s-4.791,3.438-6.885.421-4.124-4.6-1.154-6.926,4.37-1.589,5.314-.753,3.917,6.284,2.725,7.256Z" transform="translate(-130.999 -265.22)" fill="#ffb07b"/>
    <path id="Trazado_599373" data-name="Trazado 599373" d="M154.169,314.694a7.722,7.722,0,0,0-.558-1.975s-.3,1.245-2.577,1.074-5.882.224-7.085,2.817q-.115.248-.206.509a6.01,6.01,0,0,1-.27-1.437,4.427,4.427,0,0,0,0,2.513c-.006.04-.012.081-.018.123a5.058,5.058,0,0,0-.924,1.745,1.577,1.577,0,0,1,.851-.756c-.01,2.018.808,3.991,2.244,4.577,2.1.859,2.083.2,4.2,1.6,0,0,.566-.7.18-1.176s-1.846-1.159-1.031-1.846,1.117.086,1.417-.386-1.2-1.846.73-3.134S154.34,315.853,154.169,314.694Z" transform="translate(-113.846 -249.781)" fill="#263c71"/>
    <path id="Trazado_599374" data-name="Trazado 599374" d="M1082.15,488.454a1.3,1.3,0,0,1,.457.726,5.531,5.531,0,0,1-.034,1.437c-.062,1,1.314,2.459,2.206,2.967s0-2.12,0-2.756a3.8,3.8,0,0,0-.467-2.544c-.721-1.441-2.161.17-2.161.17Z" transform="translate(-864.356 -389.532)" fill="#ffb27d"/>
    <path id="Trazado_599375" data-name="Trazado 599375" d="M982.271,352.725a4.143,4.143,0,0,1,6.242-3.9l.175.109c4.295,2.766,12.547,14.01,13.768,16.249,1.272,2.331,2.957,12.288,2.957,12.288s-2.327.851-3.415-.032c0,0-3.641-8.634-4.977-10.115-1.409-1.56-14.449-8.769-14.573-11.827-.033-.809-.1-1.781-.175-2.773Z" transform="translate(-784.568 -278.144)" fill="#b6c0d7"/>
    <path id="Trazado_599376" data-name="Trazado 599376" d="M1086.315,742.86s1.731,1.581,1.395,2.7-1.9,1.872-2.113,3.245-1.057,2.122-1.817,2.122h-3.625s-.56-.966.791-1.257,1.862-1.9,1.777-3.4a26.4,26.4,0,0,1,.127-3.494l2.874-.666.59.749Z" transform="translate(-862.67 -592.754)" fill="#263c71"/>
    <path id="Trazado_599377" data-name="Trazado 599377" d="M965.218,760.613s.31,3.6-.451,3.972l-9.732-.02s0-1.123,1.563-1.373,4.309-1.165,4.774-3.2,3.844.624,3.844.624Z" transform="translate(-762.824 -606.418)" fill="#263c71"/>
    <path id="Trazado_599378" data-name="Trazado 599378" d="M964.8,510.17s.514,6.306,1.117,13.886c.82,10.3,1.806,22.945,1.9,25.342.169,4.161.846,10.816.846,10.816s1.6,1.581,4.816.915a107.388,107.388,0,0,0,3.679-19.553c.014-.165.026-.331.038-.5.761-10.233,1.944-31.782,1.944-31.782l-14.343.873Z" transform="translate(-770.627 -406.795)" fill="#263c71"/>
    <path id="Trazado_599379" data-name="Trazado 599379" d="M964.8,510.17s.514,6.306,1.117,13.886l11.244,17.519c.014-.165.026-.331.038-.5.761-10.233,1.944-31.782,1.944-31.782l-14.343.873Z" transform="translate(-770.627 -406.795)" fill="#263c71"/>
    <path id="Trazado_599380" data-name="Trazado 599380" d="M976.451,501.024s9.252,22.838,15.336,33.571,7.986,13.728,7.986,13.728,3.486-1.373,3.8-2.309c0,0-2.327-20.72-6.4-25.771-2.3-2.854-5.007-11.419-5.134-14.414s-.823-8.923-.823-8.923l-14.765,4.118Z" transform="translate(-779.93 -396.899)" fill="#263c71"/>
    <path id="Trazado_599381" data-name="Trazado 599381" d="M977.08,317.294s-6.2,3.145-9.83,2.1a8.011,8.011,0,0,1,1.409-1.347,1.992,1.992,0,0,0,.772-1.9c-.036-.226-.067-.439-.092-.638a13.47,13.47,0,0,1-.15-2.107l2.337-1.764,2.254-1.863a9.23,9.23,0,0,0,3.3,7.522Z" transform="translate(-772.581 -247.428)" fill="#ffb27d"/>
    <path id="Trazado_599382" data-name="Trazado 599382" d="M970.828,371.38a25.5,25.5,0,0,1-7.646,3.293c-3.27.775-7.29.547-8.635.752a.556.556,0,0,1-.392-.1c-.106-.054-.7-4.044-1.294-9.079-.027-.2-.055-.408-.066-.612l-.008-.068c-.231-1.969-.433-4.036-.61-6.109-.143-1.613-.262-3.208-.343-4.707-.1-1.875-.146-3.6-.1-5.013.018-.647.056-1.229.114-1.734a12.283,12.283,0,0,1,2.906-6.618l1.526-1.226a5.32,5.32,0,0,0,3.535-.979c1.339-.882,2.784-1.829,3.056-1.671,2.053,1.122,3.721,4.032,4.915,7.873a43.854,43.854,0,0,1,1.546,7.377c.107.824.2,1.671.27,2.513.014.156.024.312.038.465.161,2.3.423,4.461.714,6.389.392,2.6.839,4.777,1.155,6.31.157.781.278,1.384.35,1.817.062.377-.692.918-1.028,1.128Z" transform="translate(-760.172 -269.566)" fill="#b6c0d7"/>
    <path id="Trazado_599383" data-name="Trazado 599383" d="M981.348,318.7a8.3,8.3,0,0,1-4.521,3.781,24.725,24.725,0,0,1-.191-3.976l2.377.106,2.334.09Z" transform="translate(-780.07 -254.403)" fill="#ed985f"/>
    <path id="Trazado_599384" data-name="Trazado 599384" d="M965.742,285.972s5.6,2.291,6.971-1.161,3.013-5.481-.505-7.09-4.739-.565-5.481.476S964.32,285.287,965.742,285.972Z" transform="translate(-770.932 -221.163)" fill="#ffb27d"/>
    <path id="Trazado_599385" data-name="Trazado 599385" d="M974.547,268.971c.066-.048.2-.069.475-.021a1.126,1.126,0,0,0-.475-.259,1.4,1.4,0,0,0-.628-1.415.831.831,0,0,1,.258.678c-.574-.945-2.055-1.878-6.6-2.552-5.985-.888-4.913,3.321-4.256,3.945s2.856-.166,4.248.273,1.19,2.55,1.607,2.942.341-.149,1.06-.293.531.948.183,1.606.332,1.788.332,1.788l1.127-.765c1.129-.765,2.928-4.692,2.719-5.665q-.027-.129-.054-.26Z" transform="translate(-769.028 -211.889)" fill="#2c3a64"/>
    <path id="Trazado_599386" data-name="Trazado 599386" d="M962.24,398.677s-5.051,3.842-10.405,4.685c-.1-1.875-.146-3.6-.1-5.013l10.509.328Z" transform="translate(-760.172 -318.178)" fill="#a4afc8"/>
    <path id="Trazado_599387" data-name="Trazado 599387" d="M831.989,316.785c-.051-.105-.016-3.7-1.791-3.987-1.158-.187-4.16-.989-4.131.623.011.634,3.768,4.544,3.768,4.544Z" transform="translate(-659.812 -249.553)" fill="#ffb27d"/>
    <path id="Trazado_599388" data-name="Trazado 599388" d="M876.675,338.525a4.142,4.142,0,0,1-2.59,6.889l-.206.019c-5.092.413-19.581-3.736-21.586-4.845-3.329-1.842-9.034-7.664-9.034-7.664s1.332-2.09,2.732-2.049c0,0,7.638,4.865,10.373,5.447,1.845.393,16.53-2.248,18.486.106.517.622,1.159,1.355,1.823,2.1Z" transform="translate(-673.545 -264.282)" fill="#b6c0d7"/>
    <path id="Trazado_599389" data-name="Trazado 599389" d="M1093.909,496.068s.272.6.465,1.065.3,1.335.149,1.25a4.469,4.469,0,0,1-.847-1.02C1093.506,497.048,1093.909,496.068,1093.909,496.068Z" transform="translate(-873.529 -396.229)" fill="#ffb27d"/>
    <g id="Grupo_1013374" data-name="Grupo 1013374" transform="translate(85.649 89.019)" opacity="0.5">
      <path id="Trazado_599390" data-name="Trazado 599390" d="M487.346,466.436s-1.761-14.753-9.321-23.558a1.65,1.65,0,0,0-2.9,1.117c0,.026,0,.052,0,.078.1,2.632,8.562,13.733,12.214,22.362Z" transform="translate(-465.154 -442.305)" fill="#b6c0d7" opacity="0.5"/>
      <path id="Trazado_599391" data-name="Trazado 599391" d="M448.675,476.537s-7.533-18.44-20.4-26.595a1.751,1.751,0,0,0-2.374.449,2.778,2.778,0,0,0-.112,2.494c1.025,3.243,15.375,14.16,22.885,23.652Z" transform="translate(-425.564 -448.183)" fill="#b6c0d7" opacity="0.5"/>
    </g>
    <path id="Trazado_599392" data-name="Trazado 599392" d="M341.514,579.773c.741-7.686,13.53-7.5,13.53-7.5s10.606,11.426,13.107,11.317-7.16-11.54-7.16-11.54c4.667-1.266,17.75,2.494,17.75,2.494s1.785,15.132,4.183,14.409-2.265-13.318-2.265-13.318c4.827.6,10.024,5.226,10.024,5.226,6.841,7.814-3.546,16.2-3.546,16.2a24.772,24.772,0,0,0,4.962,10.653,17.985,17.985,0,0,1,1.969,2.727l-1.252.213q-.239-.477-.505-.914s0,0,0-.006a.087.087,0,0,1-.007-.013c-.119-.179-.289-.433-.5-.742v0c-.51-.683-.862-1.193-1.094-1.565,0,0,0,0,0,0-1.545-2.156-3.718-4.937-4.928-5.393a2.479,2.479,0,0,0,.171-.62c-.054.2-.111.4-.171.62-1.362,4.957-11.947,7.544-18.126,7.335s-3.862-2.336-1.112-5.615,9.608-3.7,11.415-5.114-1.283-1.987-5.211-1-5.242,5.3-11.567,7.007-13.28-9.554-13.28-9.554c4.673.622,12.217-3.181,12.263-4.763s-11.715.574-13.63.428S340.773,587.459,341.514,579.773Z" transform="translate(-272.706 -456.713)" fill="#b6c0d7" opacity="0.5"/>
    <path id="Trazado_599393" data-name="Trazado 599393" d="M794.007,572.508c.124-5.681-9.238-6.649-9.238-6.649s-8.738,7.434-10.556,7.137,6.229-7.813,6.229-7.813c-3.3-1.329-13.185.289-13.185.289s-2.613,10.9-4.3,10.168,2.806-9.536,2.806-9.536c-3.578.019-7.776,2.952-7.776,2.952-5.675,5.119,1.191,12.141,1.191,12.141a18.226,18.226,0,0,1-4.546,7.356,13.247,13.247,0,0,0-1.675,1.822l.9.264c.144-.219.293-.428.448-.624,0,0,0,0,0,0l.006-.008c.1-.121.248-.291.429-.5v0c.431-.456.733-.8.934-1.049l0,0c1.316-1.441,3.143-3.287,4.067-3.514a1.812,1.812,0,0,1-.071-.468c.023.149.046.3.071.468.567,3.739,8.078,6.545,12.61,6.926s3.024-1.373,1.3-4.007-6.7-3.537-7.9-4.724,1.109-1.341,3.894-.283,3.372,4.327,7.846,6.12,10.53-5.834,10.53-5.834c-3.469.052-8.653-3.38-8.549-4.54s8.511,1.432,9.922,1.49,4.488-1.9,4.611-7.575Z" transform="translate(-601.415 -451.015)" fill="#b6c0d7" opacity="0.5"/>
    <path id="Trazado_599394" data-name="Trazado 599394" d="M456.453,589.3v7.188a2.569,2.569,0,0,1-2.616,2.5h-5.385a2.569,2.569,0,0,1-2.616-2.5V589.3a2.569,2.569,0,0,1,2.616-2.5h5.385A2.569,2.569,0,0,1,456.453,589.3Z" transform="translate(-356.106 -468.699)" fill="#cbb428"/>
    <path id="Trazado_599395" data-name="Trazado 599395" d="M456.453,589.3v4a2.569,2.569,0,0,1-2.616,2.5h-5.385a2.569,2.569,0,0,1-2.616-2.5v-4a2.569,2.569,0,0,1,2.616-2.5h5.385A2.569,2.569,0,0,1,456.453,589.3Z" transform="translate(-356.106 -468.699)" fill="#98871e"/>
    <path id="Trazado_599396" data-name="Trazado 599396" d="M541.35,510.917a25.494,25.494,0,0,1-2.207,10.386,28.113,28.113,0,0,1-25.76,16.365h-8q-.719,0-1.429-.034a28.573,28.573,0,0,1-15.632-5.559,27.476,27.476,0,0,1-7-7.575,25.583,25.583,0,0,1-1.693-23.971,28.111,28.111,0,0,1,25.76-16.364h8a28.256,28.256,0,0,1,24.465,13.829,25.629,25.629,0,0,1,3.5,12.921Z" transform="translate(-381.336 -386.722)" fill="#cbb428"/>
    <path id="Trazado_599397" data-name="Trazado 599397" d="M668.987,678.981l-2.609,16.2a2,2,0,0,0,2,2.484h6.855a3.95,3.95,0,0,0,3.489-2.035L689.379,675.3Z" transform="translate(-532.207 -539.391)" fill="#cbb428"/>
    <path id="Trazado_599398" data-name="Trazado 599398" d="M518.072,705.074h-6.856a3.948,3.948,0,0,1-3.489-2.035l-6.59-11.129-4.342-7.333,21.185,2.089.765,5.824.685,5.221.641,4.879a2,2,0,0,1-2,2.484Z" transform="translate(-396.81 -546.799)" fill="#cbb428"/>
    <path id="Trazado_599399" data-name="Trazado 599399" d="M537.137,507.828c-5.645,15.528-10.988,23.83-32.624,24.552-.419.014-.834.027-1.244.037a143.872,143.872,0,0,1-14.946-.339c-.973-.076-1.861-.159-2.662-.241l-4.342-7.333a25.585,25.585,0,0,1-1.693-23.972,28.112,28.112,0,0,1,25.76-16.364h8A28.256,28.256,0,0,1,537.844,498a20.979,20.979,0,0,1-.707,9.829Z" transform="translate(-381.333 -386.725)" fill="#cbb428"/>
    <path id="Trazado_599400" data-name="Trazado 599400" d="M548.364,449.029h-11c-1.109,0-2.008-.645-2.008-1.439V433.225a1.127,1.127,0,0,1,.219-.662,2.481,2.481,0,0,1,3-.484c4.176,2.264,11.019,7.185,11.789,15.414C550.446,448.324,549.526,449.029,548.364,449.029Z" transform="translate(-427.61 -344.882)" fill="#98871e"/>
    <path id="Trazado_599401" data-name="Trazado 599401" d="M537.812,452.122h-.447c-1.109,0-2.008-.645-2.008-1.439V436.318a1.127,1.127,0,0,1,.219-.662,1.347,1.347,0,0,1,.136.127,17.54,17.54,0,0,1,4.863,14.545c-.141,1.018-1.335,1.794-2.763,1.794Z" transform="translate(-427.61 -347.976)" fill="#cbb428"/>
    <path id="Trazado_599402" data-name="Trazado 599402" d="M518.751,558.965a1.64,1.64,0,1,1,1.639,1.568A1.6,1.6,0,0,1,518.751,558.965Z" transform="translate(-414.347 -445.215)" fill="#263c71"/>
    <path id="Trazado_599403" data-name="Trazado 599403" d="M682.856,771.115v1.675a.572.572,0,0,0,.132.36.762.762,0,0,0,.36.242.889.889,0,0,0,.141.033.939.939,0,0,0,.136.01H715.4a.727.727,0,0,0,.768-.612v-1.742a.727.727,0,0,0-.768-.612H683.625a.939.939,0,0,0-.136.01.844.844,0,0,0-.141.033.761.761,0,0,0-.36.242A.572.572,0,0,0,682.856,771.115Z" transform="translate(-545.424 -615.404)" fill="#c0ac32"/>
    <path id="Trazado_599404" data-name="Trazado 599404" d="M760.4,773.435h17.025a.672.672,0,0,0,.685-.612v-1.742a.672.672,0,0,0-.685-.612H762.487A5.2,5.2,0,0,1,760.4,773.435Z" transform="translate(-607.358 -615.404)" fill="#c0ac32"/>
    <path id="Trazado_599405" data-name="Trazado 599405" d="M702.068,773.435h.362v-2.966h-.362Z" transform="translate(-560.769 -615.404)" fill="#fee132"/>
    <path id="Trazado_599406" data-name="Trazado 599406" d="M708.144,773.435h.361v-2.966h-.361Z" transform="translate(-565.622 -615.404)" fill="#fee132"/>
    <path id="Trazado_599407" data-name="Trazado 599407" d="M715.43,773.435h.362v-2.966h-.362Z" transform="translate(-571.442 -615.404)" fill="#fee132"/>
    <path id="Trazado_599408" data-name="Trazado 599408" d="M726.595,773.435h.361v-2.966h-.361Z" transform="translate(-580.36 -615.404)" fill="#fee132"/>
    <path id="Trazado_599409" data-name="Trazado 599409" d="M738.4,773.435h.361v-2.966H738.4Z" transform="translate(-589.792 -615.404)" fill="#fee132"/>
    <path id="Trazado_599410" data-name="Trazado 599410" d="M756.5,773.435h.362v-2.966H756.5Z" transform="translate(-604.247 -615.404)" fill="#fee132"/>
    <path id="Trazado_599411" data-name="Trazado 599411" d="M773.45,773.435h.361v-2.966h-.361Z" transform="translate(-617.785 -615.404)" fill="#fee132"/>
    <path id="Trazado_599412" data-name="Trazado 599412" d="M788.584,773.435h.361v-2.966h-.361Z" transform="translate(-629.873 -615.404)" fill="#fee132"/>
    <path id="Trazado_599413" data-name="Trazado 599413" d="M696.286,773.435h.362v-2.966h-.362Z" transform="translate(-556.151 -615.404)" fill="#fee132"/>
    <path id="Trazado_599414" data-name="Trazado 599414" d="M692.47,773.435h.362v-2.966h-.362Z" transform="translate(-553.103 -615.404)" fill="#fee132"/>
    <path id="Trazado_599415" data-name="Trazado 599415" d="M688.781,773.435h.361v-2.966h-.361Z" transform="translate(-550.157 -615.404)" fill="#fee132"/>
    <path id="Trazado_599416" data-name="Trazado 599416" d="M686,770.479v2.946a.937.937,0,0,0,.136.01h.226v-2.966h-.226A.937.937,0,0,0,686,770.479Z" transform="translate(-547.938 -615.404)" fill="#fee132"/>
    <path id="Trazado_599417" data-name="Trazado 599417" d="M683.512,770.927v2.4a.763.763,0,0,0,.36.242v-2.88A.762.762,0,0,0,683.512,770.927Z" transform="translate(-545.948 -615.577)" fill="#fee132"/>
    <path id="Trazado_599418" data-name="Trazado 599418" d="M699.741,756.374v1.676a.572.572,0,0,0,.132.36.763.763,0,0,0,.36.242.882.882,0,0,0,.141.033.933.933,0,0,0,.135.01h31.778a.727.727,0,0,0,.768-.612v-1.742a.726.726,0,0,0-.768-.612H700.51c-.02,0-.041,0-.061,0l-.026,0a.137.137,0,0,0-.029,0l-.02,0a.9.9,0,0,0-.141.033l-.02.006-.02.007-.039.016-.022.01-.019.009-.036.019a.353.353,0,0,0-.04.025.321.321,0,0,0-.03.02l0,0-.019.015a.579.579,0,0,0-.055.048l-.016.015-.015.016-.029.033A.572.572,0,0,0,699.741,756.374Z" transform="translate(-558.911 -603.631)" fill="#c0ac32"/>
    <path id="Trazado_599419" data-name="Trazado 599419" d="M777.276,758.7H794.3a.671.671,0,0,0,.685-.612v-1.742a.671.671,0,0,0-.685-.612H779.367c-.006.024-.014.049-.021.073A5.192,5.192,0,0,1,777.276,758.7Z" transform="translate(-620.841 -603.631)" fill="#c0ac32"/>
    <path id="Trazado_599420" data-name="Trazado 599420" d="M718.953,758.691h.361v-2.967h-.361Z" transform="translate(-574.256 -603.627)" fill="#fee132"/>
    <path id="Trazado_599421" data-name="Trazado 599421" d="M725.029,758.691h.361v-2.967h-.361Z" transform="translate(-579.109 -603.627)" fill="#fee132"/>
    <path id="Trazado_599422" data-name="Trazado 599422" d="M732.314,758.691h.361v-2.967h-.361Z" transform="translate(-584.928 -603.627)" fill="#fee132"/>
    <path id="Trazado_599423" data-name="Trazado 599423" d="M743.475,758.691h.362v-2.967h-.362Z" transform="translate(-593.843 -603.627)" fill="#fee132"/>
    <path id="Trazado_599424" data-name="Trazado 599424" d="M755.283,758.691h.361v-2.967h-.361Z" transform="translate(-603.274 -603.627)" fill="#fee132"/>
    <path id="Trazado_599425" data-name="Trazado 599425" d="M773.39,758.691h.362v-2.967h-.362Z" transform="translate(-617.737 -603.627)" fill="#fee132"/>
    <path id="Trazado_599426" data-name="Trazado 599426" d="M790.339,758.691h.362v-2.967h-.362Z" transform="translate(-631.275 -603.627)" fill="#fee132"/>
    <path id="Trazado_599427" data-name="Trazado 599427" d="M805.468,758.691h.361v-2.967h-.361Z" transform="translate(-643.359 -603.627)" fill="#fee132"/>
    <path id="Trazado_599428" data-name="Trazado 599428" d="M713.17,758.691h.361v-2.967h-.361Z" transform="translate(-569.637 -603.627)" fill="#fee132"/>
    <path id="Trazado_599429" data-name="Trazado 599429" d="M709.349,758.691h.361v-2.967h-.361Z" transform="translate(-566.585 -603.627)" fill="#fee132"/>
    <path id="Trazado_599430" data-name="Trazado 599430" d="M705.661,758.691h.361v-2.967h-.361Z" transform="translate(-563.639 -603.627)" fill="#fee132"/>
    <path id="Trazado_599431" data-name="Trazado 599431" d="M702.889,755.739v2.946a.935.935,0,0,0,.135.01h.226v-2.967h-.226A.935.935,0,0,0,702.889,755.739Z" transform="translate(-561.425 -603.631)" fill="#fee132"/>
    <path id="Trazado_599432" data-name="Trazado 599432" d="M700.4,756.186v2.4a.763.763,0,0,0,.361.242v-2.88A.763.763,0,0,0,700.4,756.186Z" transform="translate(-559.434 -603.802)" fill="#fee132"/>
    <path id="Trazado_599433" data-name="Trazado 599433" d="M691.581,742v1.675a.573.573,0,0,0,.132.361.763.763,0,0,0,.36.241.882.882,0,0,0,.141.033.946.946,0,0,0,.136.01h31.778a.89.89,0,0,0,.354-.073.66.66,0,0,0,.411-.51l0-.029v-1.742a.727.727,0,0,0-.768-.612H692.35a.937.937,0,0,0-.136.01.889.889,0,0,0-.141.033.764.764,0,0,0-.36.242.572.572,0,0,0-.132.36Z" transform="translate(-552.393 -592.15)" fill="#c0ac32"/>
    <path id="Trazado_599434" data-name="Trazado 599434" d="M769.12,744.322h17.025a.721.721,0,0,0,.316-.073.65.65,0,0,0,.367-.51c0-.009,0-.02,0-.029v-1.742a.672.672,0,0,0-.685-.612H771.211a5.209,5.209,0,0,1-1.986,2.894c-.034.025-.069.049-.1.073Z" transform="translate(-614.326 -592.15)" fill="#c0ac32"/>
    <path id="Trazado_599435" data-name="Trazado 599435" d="M710.792,744.318h.362v-2.966h-.362Z" transform="translate(-567.738 -592.146)" fill="#fee132"/>
    <path id="Trazado_599436" data-name="Trazado 599436" d="M716.868,744.318h.361v-2.966h-.361Z" transform="translate(-572.591 -592.146)" fill="#fee132"/>
    <path id="Trazado_599437" data-name="Trazado 599437" d="M724.153,744.318h.361v-2.966h-.361Z" transform="translate(-578.409 -592.146)" fill="#fee132"/>
    <path id="Trazado_599438" data-name="Trazado 599438" d="M735.319,744.318h.361v-2.966h-.361Z" transform="translate(-587.328 -592.146)" fill="#fee132"/>
    <path id="Trazado_599439" data-name="Trazado 599439" d="M747.127,744.318h.361v-2.966h-.361Z" transform="translate(-596.76 -592.146)" fill="#fee132"/>
    <path id="Trazado_599440" data-name="Trazado 599440" d="M765.225,744.318h.361v-2.966h-.361Z" transform="translate(-611.215 -592.146)" fill="#fee132"/>
    <path id="Trazado_599441" data-name="Trazado 599441" d="M782.174,744.318h.361v-2.966h-.361Z" transform="translate(-624.753 -592.146)" fill="#fee132"/>
    <path id="Trazado_599442" data-name="Trazado 599442" d="M797.307,744.318h.362v-2.966h-.362Z" transform="translate(-636.841 -592.146)" fill="#fee132"/>
    <path id="Trazado_599443" data-name="Trazado 599443" d="M705.01,744.318h.361v-2.966h-.361Z" transform="translate(-563.119 -592.146)" fill="#fee132"/>
    <path id="Trazado_599444" data-name="Trazado 599444" d="M701.194,744.318h.362v-2.966h-.362Z" transform="translate(-560.071 -592.146)" fill="#fee132"/>
    <path id="Trazado_599445" data-name="Trazado 599445" d="M697.5,744.318h.361v-2.966H697.5Z" transform="translate(-557.125 -592.146)" fill="#fee132"/>
    <path id="Trazado_599446" data-name="Trazado 599446" d="M694.728,741.361v2.946a.936.936,0,0,0,.136.01h.226v-2.966h-.226A.936.936,0,0,0,694.728,741.361Z" transform="translate(-554.907 -592.146)" fill="#fee132"/>
    <path id="Trazado_599447" data-name="Trazado 599447" d="M692.236,741.808v2.4a.764.764,0,0,0,.36.242v-2.88A.765.765,0,0,0,692.236,741.808Z" transform="translate(-552.916 -592.318)" fill="#fee132"/>
    <path id="Trazado_599448" data-name="Trazado 599448" d="M687.8,727.257v1.676a.573.573,0,0,0,.132.361.763.763,0,0,0,.36.241.9.9,0,0,0,.141.033.944.944,0,0,0,.136.01h31.778a.727.727,0,0,0,.768-.612v-1.742a.709.709,0,0,0-.677-.608c-.03,0-.06,0-.091,0H688.569a.935.935,0,0,0-.136.01.853.853,0,0,0-.141.033.763.763,0,0,0-.36.242A.572.572,0,0,0,687.8,727.257Z" transform="translate(-549.373 -580.373)" fill="#c0ac32"/>
    <path id="Trazado_599449" data-name="Trazado 599449" d="M765.335,729.578H782.36a.672.672,0,0,0,.685-.612v-1.742a.666.666,0,0,0-.6-.608c-.027,0-.054,0-.081,0H767.426s0,0,0,0A5.2,5.2,0,0,1,765.335,729.578Z" transform="translate(-611.303 -580.373)" fill="#c0ac32"/>
    <path id="Trazado_599450" data-name="Trazado 599450" d="M707.012,729.573h.361v-2.967h-.361Z" transform="translate(-564.718 -580.369)" fill="#c0ac32"/>
    <path id="Trazado_599451" data-name="Trazado 599451" d="M713.088,729.573h.361v-2.967h-.361Z" transform="translate(-569.571 -580.369)" fill="#c0ac32"/>
    <path id="Trazado_599452" data-name="Trazado 599452" d="M720.368,729.573h.362v-2.967h-.362Z" transform="translate(-575.386 -580.369)" fill="#c0ac32"/>
    <path id="Trazado_599453" data-name="Trazado 599453" d="M731.534,729.573h.362v-2.967h-.362Z" transform="translate(-584.305 -580.369)" fill="#c0ac32"/>
    <path id="Trazado_599454" data-name="Trazado 599454" d="M743.342,729.573h.361v-2.967h-.361Z" transform="translate(-593.737 -580.369)" fill="#c0ac32"/>
    <path id="Trazado_599455" data-name="Trazado 599455" d="M761.445,729.573h.361v-2.967h-.361Z" transform="translate(-608.196 -580.369)" fill="#c0ac32"/>
    <path id="Trazado_599456" data-name="Trazado 599456" d="M778.4,729.573h.361v-2.967H778.4Z" transform="translate(-621.737 -580.369)" fill="#c0ac32"/>
    <path id="Trazado_599457" data-name="Trazado 599457" d="M793.528,729.573h.361v-2.967h-.361Z" transform="translate(-633.822 -580.369)" fill="#c0ac32"/>
    <path id="Trazado_599458" data-name="Trazado 599458" d="M701.23,729.573h.361v-2.967h-.361Z" transform="translate(-560.1 -580.369)" fill="#c0ac32"/>
    <path id="Trazado_599459" data-name="Trazado 599459" d="M697.408,729.573h.362v-2.967h-.362Z" transform="translate(-557.047 -580.369)" fill="#c0ac32"/>
    <path id="Trazado_599460" data-name="Trazado 599460" d="M693.725,729.573h.362v-2.967h-.362Z" transform="translate(-554.105 -580.369)" fill="#c0ac32"/>
    <path id="Trazado_599461" data-name="Trazado 599461" d="M690.948,726.621v2.946a.912.912,0,0,0,.136.01h.226v-2.967h-.226A.937.937,0,0,0,690.948,726.621Z" transform="translate(-551.887 -580.373)" fill="#c0ac32"/>
    <path id="Trazado_599462" data-name="Trazado 599462" d="M688.456,727.068v2.4a.762.762,0,0,0,.36.242v-2.88A.761.761,0,0,0,688.456,727.068Z" transform="translate(-549.897 -580.545)" fill="#c0ac32"/>
    <path id="Trazado_599463" data-name="Trazado 599463" d="M699.411,712.539v1.676a.572.572,0,0,0,.132.36.763.763,0,0,0,.36.242.882.882,0,0,0,.141.033l.044.005.025,0,.025,0h31.819a.727.727,0,0,0,.768-.612v-1.742a.263.263,0,0,0,0-.027.7.7,0,0,0-.576-.565l-.023,0a.9.9,0,0,0-.166-.016H700.18l-.069,0-.03,0-.036,0a.9.9,0,0,0-.141.033.763.763,0,0,0-.36.242A.572.572,0,0,0,699.411,712.539Z" transform="translate(-558.647 -568.618)" fill="#c0ac32"/>
    <path id="Trazado_599464" data-name="Trazado 599464" d="M776.946,714.865h17.025a.672.672,0,0,0,.685-.612V712.51a.217.217,0,0,0,0-.027.662.662,0,0,0-.532-.569l-.029-.006a.763.763,0,0,0-.122-.01H779.036l-.005.021a5.194,5.194,0,0,1-2.078,2.941l-.006,0Z" transform="translate(-620.577 -568.622)" fill="#c0ac32"/>
    <path id="Trazado_599465" data-name="Trazado 599465" d="M718.618,714.856h.362v-2.967h-.362Z" transform="translate(-573.988 -568.614)" fill="#fee132"/>
    <path id="Trazado_599466" data-name="Trazado 599466" d="M724.694,714.856h.361v-2.967h-.361Z" transform="translate(-578.842 -568.614)" fill="#fee132"/>
    <path id="Trazado_599467" data-name="Trazado 599467" d="M731.984,714.856h.362v-2.967h-.362Z" transform="translate(-584.664 -568.614)" fill="#fee132"/>
    <path id="Trazado_599468" data-name="Trazado 599468" d="M743.15,714.856h.361v-2.967h-.361Z" transform="translate(-593.583 -568.614)" fill="#fee132"/>
    <path id="Trazado_599469" data-name="Trazado 599469" d="M754.953,714.856h.361v-2.967h-.361Z" transform="translate(-603.011 -568.614)" fill="#fee132"/>
    <path id="Trazado_599470" data-name="Trazado 599470" d="M773.056,714.856h.361v-2.967h-.361Z" transform="translate(-617.47 -568.614)" fill="#fee132"/>
    <path id="Trazado_599471" data-name="Trazado 599471" d="M790,714.856h.361v-2.967H790Z" transform="translate(-631.007 -568.614)" fill="#fee132"/>
    <path id="Trazado_599472" data-name="Trazado 599472" d="M805.134,714.856h.361v-2.967h-.361Z" transform="translate(-643.092 -568.614)" fill="#fee132"/>
    <path id="Trazado_599473" data-name="Trazado 599473" d="M712.836,714.856h.361v-2.967h-.361Z" transform="translate(-569.37 -568.614)" fill="#fee132"/>
    <path id="Trazado_599474" data-name="Trazado 599474" d="M709.019,714.856h.361v-2.967h-.361Z" transform="translate(-566.321 -568.614)" fill="#fee132"/>
    <path id="Trazado_599475" data-name="Trazado 599475" d="M705.331,714.856h.361v-2.967h-.361Z" transform="translate(-563.376 -568.614)" fill="#fee132"/>
    <path id="Trazado_599476" data-name="Trazado 599476" d="M702.554,711.9v2.946a.937.937,0,0,0,.136.01h.226v-2.967h-.226A.937.937,0,0,0,702.554,711.9Z" transform="translate(-561.158 -568.618)" fill="#fee132"/>
    <path id="Trazado_599477" data-name="Trazado 599477" d="M700.062,712.351v2.4a.763.763,0,0,0,.36.242v-2.88A.763.763,0,0,0,700.062,712.351Z" transform="translate(-559.167 -568.789)" fill="#fee132"/>
    <path id="Trazado_599478" data-name="Trazado 599478" d="M699.737,697.9v1.675a.572.572,0,0,0,.132.361.762.762,0,0,0,.361.242.7.7,0,0,0,.11.028l.03.005a.937.937,0,0,0,.136.01h31.778a.853.853,0,0,0,.1-.006l.038,0a.7.7,0,0,0,.631-.6v-1.742a.727.727,0,0,0-.768-.612H700.505c-.02,0-.041,0-.061,0l-.026,0-.029,0-.02,0a.844.844,0,0,0-.141.033l-.02.006-.019.007-.039.016-.042.02-.036.019c-.014.008-.027.016-.04.025a.305.305,0,0,0-.03.02s0,0,0,0l-.019.015a.531.531,0,0,0-.055.048l-.016.015-.015.016-.029.033a.571.571,0,0,0-.132.36Z" transform="translate(-558.907 -556.925)" fill="#c0ac32"/>
    <path id="Trazado_599479" data-name="Trazado 599479" d="M777.276,700.221h17.065a.372.372,0,0,0,.044,0,.665.665,0,0,0,.6-.608v-1.742a.672.672,0,0,0-.685-.612H779.368c-.006.024-.014.049-.021.073a5.194,5.194,0,0,1-2.04,2.872l-.031.021Z" transform="translate(-620.841 -556.925)" fill="#c0ac32"/>
    <path id="Trazado_599480" data-name="Trazado 599480" d="M718.953,700.227h.361V697.26h-.361Z" transform="translate(-574.256 -556.929)" fill="#fee132"/>
    <path id="Trazado_599481" data-name="Trazado 599481" d="M725.029,700.227h.361V697.26h-.361Z" transform="translate(-579.109 -556.929)" fill="#fee132"/>
    <path id="Trazado_599482" data-name="Trazado 599482" d="M732.314,700.227h.361V697.26h-.361Z" transform="translate(-584.928 -556.929)" fill="#fee132"/>
    <path id="Trazado_599483" data-name="Trazado 599483" d="M743.475,700.227h.362V697.26h-.362Z" transform="translate(-593.843 -556.929)" fill="#fee132"/>
    <path id="Trazado_599484" data-name="Trazado 599484" d="M755.283,700.227h.361V697.26h-.361Z" transform="translate(-603.274 -556.929)" fill="#fee132"/>
    <path id="Trazado_599485" data-name="Trazado 599485" d="M773.39,700.227h.362V697.26h-.362Z" transform="translate(-617.737 -556.929)" fill="#fee132"/>
    <path id="Trazado_599486" data-name="Trazado 599486" d="M790.339,700.227h.362V697.26h-.362Z" transform="translate(-631.275 -556.929)" fill="#fee132"/>
    <path id="Trazado_599487" data-name="Trazado 599487" d="M805.468,700.227h.361V697.26h-.361Z" transform="translate(-643.359 -556.929)" fill="#fee132"/>
    <path id="Trazado_599488" data-name="Trazado 599488" d="M713.17,700.227h.361V697.26h-.361Z" transform="translate(-569.637 -556.929)" fill="#fee132"/>
    <path id="Trazado_599489" data-name="Trazado 599489" d="M709.349,700.227h.361V697.26h-.361Z" transform="translate(-566.585 -556.929)" fill="#fee132"/>
    <path id="Trazado_599490" data-name="Trazado 599490" d="M705.661,700.227h.361V697.26h-.361Z" transform="translate(-563.639 -556.929)" fill="#fee132"/>
    <path id="Trazado_599491" data-name="Trazado 599491" d="M702.889,697.27v2.946a.927.927,0,0,0,.135.01h.226V697.26h-.226A.935.935,0,0,0,702.889,697.27Z" transform="translate(-561.425 -556.929)" fill="#fee132"/>
    <path id="Trazado_599492" data-name="Trazado 599492" d="M700.4,697.713v2.4a.763.763,0,0,0,.361.242v-2.88A.761.761,0,0,0,700.4,697.713Z" transform="translate(-559.434 -557.098)" fill="#fee132"/>
    <path id="Trazado_599493" data-name="Trazado 599493" d="M691.581,683.527V685.2a.572.572,0,0,0,.132.36.763.763,0,0,0,.36.242.9.9,0,0,0,.141.033.937.937,0,0,0,.136.01h31.778a.891.891,0,0,0,.354-.073.66.66,0,0,0,.411-.511l0-.029v-1.742a.727.727,0,0,0-.768-.612H692.35a.946.946,0,0,0-.136.01.844.844,0,0,0-.141.033.762.762,0,0,0-.36.242A.572.572,0,0,0,691.581,683.527Z" transform="translate(-552.393 -545.444)" fill="#c0ac32"/>
    <path id="Trazado_599494" data-name="Trazado 599494" d="M769.12,685.848h17.025a.721.721,0,0,0,.316-.073.65.65,0,0,0,.367-.511c0-.009,0-.019,0-.029v-1.742a.672.672,0,0,0-.685-.612H771.211a5.209,5.209,0,0,1-1.986,2.894l-.1.073Z" transform="translate(-614.326 -545.444)" fill="#c0ac32"/>
    <path id="Trazado_599495" data-name="Trazado 599495" d="M710.792,685.844h.362v-2.967h-.362Z" transform="translate(-567.738 -545.441)" fill="#fee132"/>
    <path id="Trazado_599496" data-name="Trazado 599496" d="M716.868,685.844h.361v-2.967h-.361Z" transform="translate(-572.591 -545.441)" fill="#fee132"/>
    <path id="Trazado_599497" data-name="Trazado 599497" d="M724.153,685.844h.361v-2.967h-.361Z" transform="translate(-578.409 -545.441)" fill="#fee132"/>
    <path id="Trazado_599498" data-name="Trazado 599498" d="M735.319,685.844h.361v-2.967h-.361Z" transform="translate(-587.328 -545.441)" fill="#fee132"/>
    <path id="Trazado_599499" data-name="Trazado 599499" d="M747.127,685.844h.361v-2.967h-.361Z" transform="translate(-596.76 -545.441)" fill="#fee132"/>
    <path id="Trazado_599500" data-name="Trazado 599500" d="M765.225,685.844h.361v-2.967h-.361Z" transform="translate(-611.215 -545.441)" fill="#fee132"/>
    <path id="Trazado_599501" data-name="Trazado 599501" d="M782.174,685.844h.361v-2.967h-.361Z" transform="translate(-624.753 -545.441)" fill="#fee132"/>
    <path id="Trazado_599502" data-name="Trazado 599502" d="M797.307,685.844h.362v-2.967h-.362Z" transform="translate(-636.841 -545.441)" fill="#fee132"/>
    <path id="Trazado_599503" data-name="Trazado 599503" d="M705.01,685.844h.361v-2.967h-.361Z" transform="translate(-563.119 -545.441)" fill="#fee132"/>
    <path id="Trazado_599504" data-name="Trazado 599504" d="M701.194,685.844h.362v-2.967h-.362Z" transform="translate(-560.071 -545.441)" fill="#fee132"/>
    <path id="Trazado_599505" data-name="Trazado 599505" d="M697.5,685.844h.361v-2.967H697.5Z" transform="translate(-557.125 -545.441)" fill="#fee132"/>
    <path id="Trazado_599506" data-name="Trazado 599506" d="M694.728,682.892v2.946a.936.936,0,0,0,.136.01h.226v-2.967h-.226A.936.936,0,0,0,694.728,682.892Z" transform="translate(-554.907 -545.445)" fill="#fee132"/>
    <path id="Trazado_599507" data-name="Trazado 599507" d="M692.236,683.339v2.4a.762.762,0,0,0,.36.242V683.1A.763.763,0,0,0,692.236,683.339Z" transform="translate(-552.916 -545.617)" fill="#fee132"/>
    <path id="Trazado_599508" data-name="Trazado 599508" d="M678.678,668.783v1.675a.573.573,0,0,0,.132.36.762.762,0,0,0,.361.242.878.878,0,0,0,.141.033.936.936,0,0,0,.136.01h31.778a.727.727,0,0,0,.768-.612v-1.742a.709.709,0,0,0-.677-.608c-.029,0-.06,0-.091,0H679.447a.936.936,0,0,0-.136.01.847.847,0,0,0-.141.033.761.761,0,0,0-.361.242A.573.573,0,0,0,678.678,668.783Z" transform="translate(-542.087 -533.667)" fill="#c0ac32"/>
    <path id="Trazado_599509" data-name="Trazado 599509" d="M756.213,671.1h17.025a.672.672,0,0,0,.685-.612v-1.742a.666.666,0,0,0-.6-.608.789.789,0,0,0-.081,0H758.3a.011.011,0,0,1,0,0A5.2,5.2,0,0,1,756.213,671.1Z" transform="translate(-604.017 -533.667)" fill="#c0ac32"/>
    <path id="Trazado_599510" data-name="Trazado 599510" d="M697.894,671.108h.361v-2.967h-.361Z" transform="translate(-557.435 -533.671)" fill="#fee132"/>
    <path id="Trazado_599511" data-name="Trazado 599511" d="M703.965,671.108h.361v-2.967h-.361Z" transform="translate(-562.285 -533.671)" fill="#fee132"/>
    <path id="Trazado_599512" data-name="Trazado 599512" d="M711.251,671.108h.362v-2.967h-.362Z" transform="translate(-568.104 -533.671)" fill="#fee132"/>
    <path id="Trazado_599513" data-name="Trazado 599513" d="M722.416,671.108h.361v-2.967h-.361Z" transform="translate(-577.022 -533.671)" fill="#fee132"/>
    <path id="Trazado_599514" data-name="Trazado 599514" d="M734.224,671.108h.362v-2.967h-.362Z" transform="translate(-586.454 -533.671)" fill="#fee132"/>
    <path id="Trazado_599515" data-name="Trazado 599515" d="M752.323,671.108h.361v-2.967h-.361Z" transform="translate(-600.91 -533.671)" fill="#fee132"/>
    <path id="Trazado_599516" data-name="Trazado 599516" d="M769.271,671.108h.361v-2.967h-.361Z" transform="translate(-614.447 -533.671)" fill="#fee132"/>
    <path id="Trazado_599517" data-name="Trazado 599517" d="M784.405,671.108h.361v-2.967h-.361Z" transform="translate(-626.535 -533.671)" fill="#fee132"/>
    <path id="Trazado_599518" data-name="Trazado 599518" d="M692.112,671.108h.361v-2.967h-.361Z" transform="translate(-552.817 -533.671)" fill="#fee132"/>
    <path id="Trazado_599519" data-name="Trazado 599519" d="M688.286,671.108h.361v-2.967h-.361Z" transform="translate(-549.761 -533.671)" fill="#fee132"/>
    <path id="Trazado_599520" data-name="Trazado 599520" d="M684.6,671.108h.362v-2.967H684.6Z" transform="translate(-546.815 -533.671)" fill="#fee132"/>
    <path id="Trazado_599521" data-name="Trazado 599521" d="M681.826,668.147v2.946a.943.943,0,0,0,.135.01h.226v-2.967h-.226A.935.935,0,0,0,681.826,668.147Z" transform="translate(-544.601 -533.667)" fill="#fee132"/>
    <path id="Trazado_599522" data-name="Trazado 599522" d="M679.333,668.594v2.4a.761.761,0,0,0,.361.242v-2.88A.762.762,0,0,0,679.333,668.594Z" transform="translate(-542.61 -533.839)" fill="#fee132"/>
    <path id="Trazado_599523" data-name="Trazado 599523" d="M699.411,654.065v1.676a.572.572,0,0,0,.132.36.763.763,0,0,0,.36.242.9.9,0,0,0,.141.033l.044.005.036,0h.018a.255.255,0,0,0,.038,0h31.778a.727.727,0,0,0,.768-.612v-1.742a.727.727,0,0,0-.768-.612H700.139a.791.791,0,0,0-.1.009.889.889,0,0,0-.141.033c-.023.007-.045.016-.067.025l-.04.018,0,0-.039.02-.006,0a.384.384,0,0,0-.034.021.758.758,0,0,0-.077.056l-.022.019,0,0a.069.069,0,0,0-.013.012l0,0a.283.283,0,0,0-.022.024.385.385,0,0,0-.03.035.572.572,0,0,0-.132.361Z" transform="translate(-558.647 -521.912)" fill="#c0ac32"/>
    <path id="Trazado_599524" data-name="Trazado 599524" d="M776.946,656.387h17.025a.672.672,0,0,0,.685-.612v-1.742a.672.672,0,0,0-.685-.612H779.036c-.006.022-.012.045-.019.068a5.189,5.189,0,0,1-2.065,2.894Z" transform="translate(-620.577 -521.912)" fill="#c0ac32"/>
    <path id="Trazado_599525" data-name="Trazado 599525" d="M718.618,656.392h.362v-2.967h-.362Z" transform="translate(-573.988 -521.916)" fill="#fee132"/>
    <path id="Trazado_599526" data-name="Trazado 599526" d="M724.694,656.392h.361v-2.967h-.361Z" transform="translate(-578.842 -521.916)" fill="#fee132"/>
    <path id="Trazado_599527" data-name="Trazado 599527" d="M731.984,656.392h.362v-2.967h-.362Z" transform="translate(-584.664 -521.916)" fill="#fee132"/>
    <path id="Trazado_599528" data-name="Trazado 599528" d="M743.15,656.392h.361v-2.967h-.361Z" transform="translate(-593.583 -521.916)" fill="#fee132"/>
    <path id="Trazado_599529" data-name="Trazado 599529" d="M754.953,656.392h.361v-2.967h-.361Z" transform="translate(-603.011 -521.916)" fill="#fee132"/>
    <path id="Trazado_599530" data-name="Trazado 599530" d="M773.056,656.392h.361v-2.967h-.361Z" transform="translate(-617.47 -521.916)" fill="#fee132"/>
    <path id="Trazado_599531" data-name="Trazado 599531" d="M790,656.392h.361v-2.967H790Z" transform="translate(-631.007 -521.916)" fill="#fee132"/>
    <path id="Trazado_599532" data-name="Trazado 599532" d="M805.134,656.392h.361v-2.967h-.361Z" transform="translate(-643.092 -521.916)" fill="#fee132"/>
    <path id="Trazado_599533" data-name="Trazado 599533" d="M712.836,656.392h.361v-2.967h-.361Z" transform="translate(-569.37 -521.916)" fill="#fee132"/>
    <path id="Trazado_599534" data-name="Trazado 599534" d="M709.019,656.392h.361v-2.967h-.361Z" transform="translate(-566.321 -521.916)" fill="#fee132"/>
    <path id="Trazado_599535" data-name="Trazado 599535" d="M705.331,656.392h.361v-2.967h-.361Z" transform="translate(-563.376 -521.916)" fill="#fee132"/>
    <path id="Trazado_599536" data-name="Trazado 599536" d="M702.554,653.43v2.946a.937.937,0,0,0,.136.01h.226V653.42h-.226A.937.937,0,0,0,702.554,653.43Z" transform="translate(-561.158 -521.912)" fill="#fee132"/>
    <path id="Trazado_599537" data-name="Trazado 599537" d="M700.062,653.877v2.4a.764.764,0,0,0,.36.242v-2.88A.764.764,0,0,0,700.062,653.877Z" transform="translate(-559.167 -522.085)" fill="#fee132"/>
    <path id="Trazado_599538" data-name="Trazado 599538" d="M687.8,639.669v1.676a.571.571,0,0,0,.132.36.764.764,0,0,0,.36.242.865.865,0,0,0,.141.033.92.92,0,0,0,.136.01h31.778a.887.887,0,0,0,.343-.068.662.662,0,0,0,.422-.517c0-.008,0-.018,0-.027v-1.742a.709.709,0,0,0-.677-.608c-.03,0-.06,0-.091,0H688.565a.933.933,0,0,0-.135.01.882.882,0,0,0-.141.033.765.765,0,0,0-.361.242.573.573,0,0,0-.132.36Z" transform="translate(-549.37 -510.414)" fill="#c0ac32"/>
    <path id="Trazado_599539" data-name="Trazado 599539" d="M765.335,641.986H782.36a.722.722,0,0,0,.306-.068.651.651,0,0,0,.377-.517c0-.008,0-.018,0-.027v-1.742a.666.666,0,0,0-.6-.608.774.774,0,0,0-.081,0H767.426s0,0,0,0a5.209,5.209,0,0,1-1.992,2.894Z" transform="translate(-611.303 -510.41)" fill="#c0ac32"/>
    <path id="Trazado_599540" data-name="Trazado 599540" d="M707.013,641.991h.361v-2.967h-.361Z" transform="translate(-564.719 -510.414)" fill="#fee132"/>
    <path id="Trazado_599541" data-name="Trazado 599541" d="M713.088,641.991h.361v-2.967h-.361Z" transform="translate(-569.571 -510.414)" fill="#fee132"/>
    <path id="Trazado_599542" data-name="Trazado 599542" d="M720.368,641.991h.362v-2.967h-.362Z" transform="translate(-575.386 -510.414)" fill="#fee132"/>
    <path id="Trazado_599543" data-name="Trazado 599543" d="M731.534,641.991h.362v-2.967h-.362Z" transform="translate(-584.305 -510.414)" fill="#fee132"/>
    <path id="Trazado_599544" data-name="Trazado 599544" d="M743.342,641.991h.361v-2.967h-.361Z" transform="translate(-593.737 -510.414)" fill="#fee132"/>
    <path id="Trazado_599545" data-name="Trazado 599545" d="M761.445,641.991h.361v-2.967h-.361Z" transform="translate(-608.196 -510.414)" fill="#fee132"/>
    <path id="Trazado_599546" data-name="Trazado 599546" d="M778.4,641.991h.361v-2.967H778.4Z" transform="translate(-621.737 -510.414)" fill="#fee132"/>
    <path id="Trazado_599547" data-name="Trazado 599547" d="M793.528,641.991h.361v-2.967h-.361Z" transform="translate(-633.822 -510.414)" fill="#fee132"/>
    <path id="Trazado_599548" data-name="Trazado 599548" d="M701.23,641.991h.361v-2.967h-.361Z" transform="translate(-560.1 -510.414)" fill="#fee132"/>
    <path id="Trazado_599549" data-name="Trazado 599549" d="M697.408,641.991h.362v-2.967h-.362Z" transform="translate(-557.047 -510.414)" fill="#fee132"/>
    <path id="Trazado_599550" data-name="Trazado 599550" d="M693.725,641.991h.362v-2.967h-.362Z" transform="translate(-554.105 -510.414)" fill="#fee132"/>
    <path id="Trazado_599551" data-name="Trazado 599551" d="M690.948,639.029v2.946a.937.937,0,0,0,.136.01h.226v-2.967h-.226A.937.937,0,0,0,690.948,639.029Z" transform="translate(-551.887 -510.41)" fill="#fee132"/>
    <path id="Trazado_599552" data-name="Trazado 599552" d="M688.456,639.476v2.4a.763.763,0,0,0,.36.242v-2.88A.763.763,0,0,0,688.456,639.476Z" transform="translate(-549.897 -510.581)" fill="#fee132"/>
    <path id="Trazado_599553" data-name="Trazado 599553" d="M682.853,624.948v1.675a.572.572,0,0,0,.132.36.762.762,0,0,0,.36.242.882.882,0,0,0,.141.033l.044.005.025,0,.025,0H715.4a.727.727,0,0,0,.768-.612v-1.742a.727.727,0,0,0-.768-.612H683.621a.935.935,0,0,0-.135.01.843.843,0,0,0-.141.033.763.763,0,0,0-.361.242.572.572,0,0,0-.132.361Z" transform="translate(-545.421 -498.655)" fill="#c0ac32"/>
    <path id="Trazado_599554" data-name="Trazado 599554" d="M760.4,627.269h17.025a.672.672,0,0,0,.685-.612v-1.742a.672.672,0,0,0-.685-.612H762.487a5.2,5.2,0,0,1-2.084,2.962Z" transform="translate(-607.358 -498.655)" fill="#c0ac32"/>
    <path id="Trazado_599555" data-name="Trazado 599555" d="M702.068,627.273h.362v-2.967h-.362Z" transform="translate(-560.769 -498.658)" fill="#fee132"/>
    <path id="Trazado_599556" data-name="Trazado 599556" d="M708.144,627.273h.361v-2.967h-.361Z" transform="translate(-565.622 -498.658)" fill="#fee132"/>
    <path id="Trazado_599557" data-name="Trazado 599557" d="M715.43,627.273h.362v-2.967h-.362Z" transform="translate(-571.442 -498.658)" fill="#fee132"/>
    <path id="Trazado_599558" data-name="Trazado 599558" d="M726.595,627.273h.361v-2.967h-.361Z" transform="translate(-580.36 -498.658)" fill="#fee132"/>
    <path id="Trazado_599559" data-name="Trazado 599559" d="M738.4,627.273h.361v-2.967H738.4Z" transform="translate(-589.792 -498.658)" fill="#fee132"/>
    <path id="Trazado_599560" data-name="Trazado 599560" d="M756.5,627.273h.362v-2.967H756.5Z" transform="translate(-604.247 -498.658)" fill="#fee132"/>
    <path id="Trazado_599561" data-name="Trazado 599561" d="M773.45,627.273h.361v-2.967h-.361Z" transform="translate(-617.785 -498.658)" fill="#fee132"/>
    <path id="Trazado_599562" data-name="Trazado 599562" d="M788.95,624.3h-.362v2.967h.362Z" transform="translate(-629.876 -498.655)" fill="#fee132"/>
    <path id="Trazado_599563" data-name="Trazado 599563" d="M696.286,627.273h.362v-2.967h-.362Z" transform="translate(-556.151 -498.658)" fill="#fee132"/>
    <path id="Trazado_599564" data-name="Trazado 599564" d="M692.47,627.273h.362v-2.967h-.362Z" transform="translate(-553.103 -498.658)" fill="#fee132"/>
    <path id="Trazado_599565" data-name="Trazado 599565" d="M688.781,627.273h.361v-2.967h-.361Z" transform="translate(-550.157 -498.658)" fill="#fee132"/>
    <path id="Trazado_599566" data-name="Trazado 599566" d="M686,624.312v2.946a.937.937,0,0,0,.136.01h.226V624.3h-.226A.937.937,0,0,0,686,624.312Z" transform="translate(-547.938 -498.655)" fill="#fee132"/>
    <path id="Trazado_599567" data-name="Trazado 599567" d="M683.512,624.759v2.4a.762.762,0,0,0,.36.242v-2.88A.763.763,0,0,0,683.512,624.759Z" transform="translate(-545.948 -498.826)" fill="#fee132"/>
    <path id="Trazado_599568" data-name="Trazado 599568" d="M823.667,660.312a15.1,15.1,0,1,0-21.359,0A15.1,15.1,0,0,0,823.667,660.312Z" transform="translate(-637.302 -506.824)" fill="#d7c032"/>
    <path id="Trazado_599569" data-name="Trazado 599569" d="M830.213,660.31a15.1,15.1,0,1,0-21.359,0A15.1,15.1,0,0,0,830.213,660.31Z" transform="translate(-642.53 -506.822)" fill="#c0ac32"/>
    <path id="Trazado_599570" data-name="Trazado 599570" d="M815.13,665.575a13.76,13.76,0,1,1,9.731,4.031A13.673,13.673,0,0,1,815.13,665.575Zm-3.209-9.731a12.94,12.94,0,1,0,12.94-12.94A12.955,12.955,0,0,0,811.921,655.845Z" transform="translate(-647.857 -512.858)" fill="#fee132"/>
    <path id="Trazado_599571" data-name="Trazado 599571" d="M857.485,674.123a2.284,2.284,0,0,0-.032-.8,1.66,1.66,0,0,0-.338-.663,3.121,3.121,0,0,0-.676-.6,8.316,8.316,0,0,0-1.047-.586,21.668,21.668,0,0,1-1.934-1.062,6.833,6.833,0,0,1-1.445-1.177,4.025,4.025,0,0,1-.854-1.434,4.547,4.547,0,0,1,.368-3.439,3.836,3.836,0,0,1,1.066-1.185,4.775,4.775,0,0,1,1.527-.727,6.347,6.347,0,0,1,1.906-.22l.269-2.268,1.826.217-.273,2.3a5.7,5.7,0,0,1,1.718.73,4.314,4.314,0,0,1,1.924,2.759,5.747,5.747,0,0,1,.076,1.948l-3.3-.391a2.8,2.8,0,0,0-.339-1.97,1.943,1.943,0,0,0-1.437-.81,2.463,2.463,0,0,0-.9.039,1.67,1.67,0,0,0-.656.319,1.557,1.557,0,0,0-.423.546,2.294,2.294,0,0,0-.2.718,2.1,2.1,0,0,0,.03.724,1.555,1.555,0,0,0,.324.635,3.145,3.145,0,0,0,.681.6,10.81,10.81,0,0,0,1.088.629q1.057.545,1.913,1.087a6.93,6.93,0,0,1,1.439,1.187,3.894,3.894,0,0,1,1,3.262,4.157,4.157,0,0,1-.524,1.636,3.782,3.782,0,0,1-1.071,1.174,4.6,4.6,0,0,1-1.535.7,6.861,6.861,0,0,1-1.915.2l-.25,2.109-1.814-.215.249-2.1a7.687,7.687,0,0,1-1.783-.631,4.875,4.875,0,0,1-1.46-1.1,4.356,4.356,0,0,1-.916-1.64,5.32,5.32,0,0,1-.152-2.232l3.3.391a3.283,3.283,0,0,0,.062,1.281,2.115,2.115,0,0,0,.469.872,2.046,2.046,0,0,0,.754.519,3.518,3.518,0,0,0,.9.231,2.94,2.94,0,0,0,.957-.026,1.96,1.96,0,0,0,.724-.3,1.566,1.566,0,0,0,.48-.529,1.909,1.909,0,0,0,.223-.71Z" transform="translate(-678.583 -527.143)" fill="#fee132"/>
    <path id="Trazado_599572" data-name="Trazado 599572" d="M517.193,674.418s-1.906,2.684-3.654,2.72a12.754,12.754,0,0,1-4.406-1.244s-1.6-3.576-.516-4.975a2.338,2.338,0,0,1,2.233.367,3.429,3.429,0,0,1,.591.566,1.87,1.87,0,0,0,.918.622c1.247.379,2.727-.513,3.28.349a5.9,5.9,0,0,0,.964,1.141A4.413,4.413,0,0,0,517.193,674.418Z" transform="translate(-405.95 -535.782)" fill="#ffeddc"/>
    <path id="Trazado_599573" data-name="Trazado 599573" d="M429.267,718.99S436,702.666,448.13,702.355c0,0,11.193,1.244,11.816,16.635Z" transform="translate(-342.872 -560.999)" fill="#ffeddc"/>
    <path id="Trazado_599574" data-name="Trazado 599574" d="M506.392,696.447s4.861,1.081,6.36.445a1.5,1.5,0,0,0-1.82-1.747,4.294,4.294,0,0,1-2.85-.752c-.76-.386-1.891,1.2-1.689,2.053Z" transform="translate(-404.456 -554.592)" fill="#263c71"/>
    <path id="Trazado_599575" data-name="Trazado 599575" d="M522.481,676.565c-.311.233-1.265-3.287-1.265-3.287a3.417,3.417,0,0,1,.591.566,1.871,1.871,0,0,0,.917.622c0,.1.059,1.872-.242,2.1Z" transform="translate(-416.316 -537.774)" fill="#e5c1a1"/>
    <path id="Trazado_599576" data-name="Trazado 599576" d="M539.265,682.057a20.036,20.036,0,0,1-2.621,1.387c-.3,0,1.657-2.528,1.657-2.528a5.9,5.9,0,0,0,.964,1.142Z" transform="translate(-428.614 -543.875)" fill="#e5c1a1"/>
    <path id="Trazado_599577" data-name="Trazado 599577" d="M461.959,733.554c-.125-.106,4.767-7.2,6.115-7.255s4.375,1.555,6.567,1.762,4.317-.415,4.731.881,1.555,5.889.855,6.624-15.577.287-18.267-2.011Z" transform="translate(-368.983 -580.123)" fill="#f9ddbf"/>
    <path id="Trazado_599578" data-name="Trazado 599578" d="M691.418,264.863l-.46-2.589,1-.177.455,2.564c.131.738.568,1.055,1.177.946a.952.952,0,0,0,.785-1.261l-.461-2.6,1-.177.454,2.557a1.854,1.854,0,0,1-1.625,2.4,1.827,1.827,0,0,1-2.319-1.665Z" transform="translate(-551.895 -208.928)" fill="#a8d29f"/>
    <path id="Trazado_599579" data-name="Trazado 599579" d="M715.635,259.033l2.1-.373a1.66,1.66,0,0,1,1.256.191,1.134,1.134,0,0,1,.028,1.812,1.131,1.131,0,0,1,1.049.976c.148.829-.453,1.363-1.475,1.545l-2.156.383Zm2.216,1.5c.441-.078.693-.27.632-.62-.053-.3-.316-.425-.737-.35l-.984.175.171.958.919-.163Zm.59,1.779c.44-.078.678-.28.616-.631-.055-.3-.315-.452-.825-.361l-1.153.2.177,1,1.185-.21Z" transform="translate(-571.606 -206.57)" fill="#a8d29f"/>
    <path id="Trazado_599580" data-name="Trazado 599580" d="M739.085,255.806l1-.177.805,4.532-1,.177Z" transform="translate(-590.336 -204.181)" fill="#a8d29f"/>
    <path id="Trazado_599581" data-name="Trazado 599581" d="M725.017,688.848a.827.827,0,0,1,.147.886.006.006,0,0,1,0,0,5.51,5.51,0,0,1-1.741,1.91c-.105.085-.2.161-.28.233l-.063.056-.048.043c-.765.705-.477.867-1.852,2.3-1.568,1.631-2.647,1.66-2.954,1.511-.26-.126.268-.991.853-1.964.029-.047.056-.094.085-.142l.232-.39c.685-1.17.509-1.719.347-3.461-.132-1.415-2.2-7.906-2.2-7.906l3-.517s.9,5.168,1.9,5.964c.533.424,1.13.43,1.641.744.036.022.072.044.107.067a3.925,3.925,0,0,1,.822.66Z" transform="translate(-573.129 -544.27)" fill="#ffb27d"/>
    <path id="Trazado_599582" data-name="Trazado 599582" d="M727.462,715.468a.828.828,0,0,1,.148.886.007.007,0,0,1,0,0,6.386,6.386,0,0,1-1.744,1.9q-.155.129-.277.239l-.063.056-.048.043c-.765.705-.477.867-1.852,2.3-1.568,1.631-2.647,1.66-2.954,1.511-.26-.126.268-.991.853-1.964a6.682,6.682,0,0,0,2.794-2.059c.943-1.2,1.573-2.752,2.216-3.648.036.022.072.044.107.067a3.923,3.923,0,0,1,.822.66Z" transform="translate(-575.574 -570.89)" fill="#263c71"/>
    <path id="Trazado_599583" data-name="Trazado 599583" d="M598.551,683.345c-.185.927-1.507.773-2.984.411s-1.126.068-3.227-.164-2.738-1.016-2.8-1.329c-.057-.278.981-.375,2.1-.5.14-.016.28-.033.421-.051,1.258-.158,2.178-.969,3.321-1.636,1.082-.632,2.7-3.2,2.7-3.2l2.882.229s-1.512,2.3-2.1,3.3a3.487,3.487,0,0,0-.283,1.964,3.717,3.717,0,0,1-.022.986Z" transform="translate(-470.885 -540.643)" fill="#ffb27d"/>
    <path id="Trazado_599584" data-name="Trazado 599584" d="M595.567,703.165c-1.476-.361-1.126.068-3.227-.164s-2.738-1.016-2.8-1.329c-.057-.278.981-.375,2.1-.5l.01.021a5.923,5.923,0,0,0,3.01.935c1.426.035,2.936-.373,3.921-.358a3.712,3.712,0,0,1-.022.986c-.185.927-1.507.773-2.984.411Z" transform="translate(-470.885 -560.051)" fill="#263c71"/>
    <path id="Trazado_599585" data-name="Trazado 599585" d="M689.211,599.14l2.695,7.25,3.517,9.466a5.7,5.7,0,0,0,1.868-.171,8.1,8.1,0,0,0,1.807-.88s-.977-10.164-2.8-16a10.38,10.38,0,0,0-1.568-3.391C691.907,592.078,689.211,599.14,689.211,599.14Z" transform="translate(-550.5 -474.867)" fill="#263c71"/>
    <path id="Trazado_599586" data-name="Trazado 599586" d="M639.592,554.52c1.765-.569,6.8.161,11.856,1.152l1.059-1.747,10.923-.853s3.6,7.993,1.631,13.086a1.847,1.847,0,0,1-1.849,1.245h-.159l-8.612,0c-5.432,0-11.5-3.734-12.281-3.891-1.284-.257-1.8,2.311-3.082,5.007s-12.07,11.942-12.07,11.942a9.472,9.472,0,0,1-2.342-.241,2.3,2.3,0,0,1-1.006-.634s11.951-23.779,15.932-25.062Z" transform="translate(-498.141 -441.76)" fill="#263c71"/>
    <path id="Trazado_599587" data-name="Trazado 599587" d="M743.184,411.91a119.212,119.212,0,0,0,11.791,7.635s2.658,1.593,4.472.811c3.024-1.3,5.345-5.863,1.163-10.909-2.086-2.517-3.815-3.346-3.409-6.691.44-3.625-1.2-8.182-5.369-8.373a11.53,11.53,0,0,0-3.969.175C744.021,395.765,737.6,410.054,743.184,411.91Z" transform="translate(-591.862 -314.932)" fill="#263c71"/>
    <path id="Trazado_599588" data-name="Trazado 599588" d="M773.762,480.526c-.225.621-6.13,1.174-9.491.951a4.61,4.61,0,0,1-2.169-.469c-1.2-1.041-1.079,1.249-1.243-9.707-.079-5.344,4.535-10.1,4.535-10.1s.368,2.282,4.944-.434c.162-.095,1.964,2.573,3.7,5.859C775.947,470.253,773.991,479.888,773.762,480.526Z" transform="translate(-607.727 -368.029)" fill="#b6c0d7"/>
    <path id="Trazado_599589" data-name="Trazado 599589" d="M702.6,623.4l3.517,9.466a5.7,5.7,0,0,0,1.868-.171,8.1,8.1,0,0,0,1.807-.88s-.977-10.164-2.8-16l-4.395,7.583Z" transform="translate(-561.19 -491.88)" fill="#263c71"/>
    <path id="Trazado_599590" data-name="Trazado 599590" d="M731.161,462.924s-4.177,1.025-5.261,2.826c-1.32,2.193-7.9,12.079-7.9,12.079s6.487,2.294,7.593,1.189,3.847-10.259,3.847-10.259l1.721-5.835Z" transform="translate(-573.495 -369.755)" fill="#b6c0d7"/>
    <path id="Trazado_599591" data-name="Trazado 599591" d="M786.331,445.827a11.333,11.333,0,0,1-2.933,2.024c-.489.178-1.3.373-1.3.373s-.651-.659-.661-.669c-.579-.54,0-.7-.085-1.719,0-.048-.008-.1-.014-.148a18.461,18.461,0,0,0-.469-2.478v0l4.043-1.155-.13.223c.249,2.1,1,3.489,1.552,3.551Z" transform="translate(-623.71 -353.085)" fill="#ffb27d"/>
    <path id="Trazado_599592" data-name="Trazado 599592" d="M784.906,442.053a4.516,4.516,0,0,1-3.642,3.091,19.234,19.234,0,0,0-.4-1.932v0Z" transform="translate(-623.706 -353.085)" fill="#ed975d"/>
    <path id="Trazado_599593" data-name="Trazado 599593" d="M768.224,416.6s5.449-.362,5.171-3.752.238-5.72-3.252-5.631-4.06,1.437-4.242,2.591.9,6.8,2.324,6.793Z" transform="translate(-611.739 -325.254)" fill="#ffb27d"/>
    <path id="Trazado_599594" data-name="Trazado 599594" d="M772.657,404.014s1.354,3.973,4.568,4.435c2.345.337,3.276-.3,3.276-.3a9.213,9.213,0,0,1-2.018-3.157,1.656,1.656,0,0,0-1.3-1.066C775.517,403.671,773.362,402.566,772.657,404.014Z" transform="translate(-617.152 -322.118)" fill="#263c71"/>
    <path id="Trazado_599595" data-name="Trazado 599595" d="M766.859,407.5a3.594,3.594,0,0,0-1.651,1.845,6.937,6.937,0,0,0-.41,3.463s-1.567-3.625-.432-5.258A1.443,1.443,0,0,1,766.859,407.5Z" transform="translate(-610.199 -324.903)" fill="#263c71"/>
    <path id="Trazado_599596" data-name="Trazado 599596" d="M780.114,460.861a7.286,7.286,0,0,0,.746,2.388,2.924,2.924,0,0,1-1.541-1.737S779.684,460.906,780.114,460.861Z" transform="translate(-622.473 -368.108)" fill="#b6c0d7"/>
    <path id="Trazado_599597" data-name="Trazado 599597" d="M753.241,494.828s-3.043,3.651-2.668,4.972,2.482,1.322,2.482,1.322a14.583,14.583,0,0,1,0-4.283C753.449,495.374,753.7,494.741,753.241,494.828Z" transform="translate(-599.487 -395.232)" fill="#b6c0d7"/>
    <path id="Trazado_599598" data-name="Trazado 599598" d="M794.337,514.329s4.383-2.672,4.326-4.223,0-4.4.413-4a11.4,11.4,0,0,1,1.586,4.5c-.125.906-4.551,7.231-5.1,7.216C791.655,517.715,794.337,514.329,794.337,514.329Z" transform="translate(-633.751 -404.215)" fill="#b6c0d7"/>
    <path id="Trazado_599599" data-name="Trazado 599599" d="M790.36,456.174s-2.394,3.011-3.384,3.331a6.808,6.808,0,0,0,4.8-2.348s-.664-.973-1.415-.982Z" transform="translate(-628.589 -364.364)" fill="#b6c0d7"/>
    <path id="Trazado_599600" data-name="Trazado 599600" d="M715.587,489.094a11.108,11.108,0,1,0-13.115,8.648A11.109,11.109,0,0,0,715.587,489.094Z" transform="translate(-554.002 -380)" fill="#e2810e"/>
    <path id="Trazado_599601" data-name="Trazado 599601" d="M710.7,489.135a11.108,11.108,0,1,0-13.191,8.531A11.108,11.108,0,0,0,710.7,489.135Z" transform="translate(-550.116 -379.956)" fill="#c0ac32"/>
    <path id="Trazado_599602" data-name="Trazado 599602" d="M703.806,501.549a10.122,10.122,0,1,1,7.157-2.965A10.055,10.055,0,0,1,703.806,501.549Zm0-19.638a9.518,9.518,0,1,0,9.517,9.518A9.528,9.528,0,0,0,703.806,481.911Z" transform="translate(-554.073 -384.438)" fill="#fee132"/>
    <path id="Trazado_599603" data-name="Trazado 599603" d="M727.772,504.876a1.67,1.67,0,0,0-.024-.587,1.212,1.212,0,0,0-.248-.488,2.3,2.3,0,0,0-.5-.438,6.146,6.146,0,0,0-.77-.432,16.058,16.058,0,0,1-1.422-.781,5.066,5.066,0,0,1-1.063-.865,2.977,2.977,0,0,1-.628-1.055,3.348,3.348,0,0,1,.27-2.529,2.825,2.825,0,0,1,.784-.871,3.5,3.5,0,0,1,1.123-.535,4.69,4.69,0,0,1,1.4-.161l.2-1.668,1.343.16-.2,1.691a4.193,4.193,0,0,1,1.264.538,3.172,3.172,0,0,1,1.414,2.03,4.211,4.211,0,0,1,.055,1.433l-2.425-.288a2.063,2.063,0,0,0-.249-1.449,1.431,1.431,0,0,0-1.057-.6,1.848,1.848,0,0,0-.663.028,1.243,1.243,0,0,0-.483.235,1.147,1.147,0,0,0-.312.4,1.69,1.69,0,0,0-.148.528,1.529,1.529,0,0,0,.022.532,1.15,1.15,0,0,0,.238.467,2.344,2.344,0,0,0,.5.439,7.9,7.9,0,0,0,.8.463q.777.4,1.407.8a5.08,5.08,0,0,1,1.058.872,3,3,0,0,1,.627,1.059,3.028,3.028,0,0,1,.109,1.341,3.06,3.06,0,0,1-.386,1.2,2.778,2.778,0,0,1-.788.863,3.4,3.4,0,0,1-1.129.515,5.048,5.048,0,0,1-1.409.149l-.184,1.551-1.334-.159.183-1.544a5.632,5.632,0,0,1-1.31-.464,3.6,3.6,0,0,1-1.074-.811,3.228,3.228,0,0,1-.674-1.206,3.917,3.917,0,0,1-.111-1.641l2.425.288a2.417,2.417,0,0,0,.046.942,1.558,1.558,0,0,0,.345.642,1.508,1.508,0,0,0,.554.382,2.576,2.576,0,0,0,.665.17,2.154,2.154,0,0,0,.7-.019,1.458,1.458,0,0,0,.533-.221,1.151,1.151,0,0,0,.352-.389,1.407,1.407,0,0,0,.164-.522Z" transform="translate(-576.646 -394.949)" fill="#fee132"/>
    <path id="Trazado_599604" data-name="Trazado 599604" d="M684.906,533.392s-.124-1.825.565-1.753c.846.088,1.746,2.1,1.333,2.483S684.915,533.842,684.906,533.392Z" transform="translate(-547.055 -424.639)" fill="#ffb27d"/>
    <path id="Trazado_599605" data-name="Trazado 599605" d="M782.009,558.008l-1.029-.617a2.671,2.671,0,0,0-1.014-.2c-.376.054-1.269-.1-1.3.041s.858.8.858.8c-.533.818-2.464.968-2.611,1.275-.178.374.694.724,1.167.927a2.76,2.76,0,0,0,2.382-.142c.511-.388,1.35-.9,1.35-.9l.194-1.183Z" transform="translate(-620.535 -445.032)" fill="#ffb27d"/>
    <path id="Trazado_599606" data-name="Trazado 599606" d="M800.4,460.775s4.323.283,5.4,1.969,4.552,11.291,3.99,14.231-10.844,6.468-10.844,6.468a1.929,1.929,0,0,1-.455-1.448,3.015,3.015,0,0,1,.329-1.243s6.308-5.271,5.874-6.321c-1.6-3.877-4.3-13.656-4.3-13.656Z" transform="translate(-637.793 -368.038)" fill="#b6c0d7"/>
    <path id="Trazado_599607" data-name="Trazado 599607" d="M283.361,785.6l-253.173-.088a.322.322,0,0,1-.321-.321V785a.322.322,0,0,1,.321-.321l253.173.088a.323.323,0,0,1,.322.321v.2A.323.323,0,0,1,283.361,785.6Z" transform="translate(-23.856 -626.753)" fill="#2e3552"/>
  </g>
</svg>
