<svg xmlns="http://www.w3.org/2000/svg" width="403.909" height="292.87" viewBox="0 0 403.909 292.87">
  <g id="Grupo_1014606" data-name="Grupo 1014606" transform="translate(-176 -802.027)">
    <g id="Image_Place_Holder" data-name="Image Place Holder" transform="translate(176 821.482)" opacity="0.1">
      <rect id="Image_Place_Holder-2" data-name="Image Place Holder" width="403.909" height="273.415" rx="10" fill="#304c8e"/>
    </g>
    <g id="Personas" transform="translate(244.945 802.027)">
      <path id="Trazado_599708" data-name="Trazado 599708" d="M1.71,150.445A130.165,130.165,0,0,1,0,130.5C-.611,59.147,58,0,129.358,0A129.474,129.474,0,0,1,256.435,153.667a28.191,28.191,0,0,1-27.754,22.793H32.534A31.181,31.181,0,0,1,1.71,150.445Z" fill="#52b51e"/>
      <path id="Trazado_599709" data-name="Trazado 599709" d="M59.681,161.357A105.251,105.251,0,0,1,58.3,145.235C57.8,87.568,105.179,39.763,162.849,39.763a104.643,104.643,0,0,1,102.707,124.2,22.785,22.785,0,0,1-22.432,18.422H84.594A25.2,25.2,0,0,1,59.681,161.357Z" transform="translate(-33.492 -22.843)" fill="#60cb28"/>
      <path id="Trazado_599710" data-name="Trazado 599710" d="M43.012,331.743a130.092,130.092,0,0,1-29.351,27.2,4.235,4.235,0,0,1-6.414-2.308A128.514,128.514,0,0,1,3.422,339.41a27.956,27.956,0,0,1,19.272-7.667Z" transform="translate(-1.966 -190.58)" fill="#304c8e"/>
      <path id="Trazado_599711" data-name="Trazado 599711" d="M127.671,359.8v36.318c0,27.767-27.907,47.122-53.762,37a20.369,20.369,0,0,1-2.731-1.267,129.664,129.664,0,0,1-59.432-76.176A28.061,28.061,0,0,1,39.5,331.742H99.616A28.055,28.055,0,0,1,127.671,359.8Z" transform="translate(-6.748 -190.58)" fill="#304c8e"/>
      <path id="Trazado_599712" data-name="Trazado 599712" d="M122.95,323.332l-17.868,30.619a1.011,1.011,0,0,1-1.746,0l-9.086-15.569a1.01,1.01,0,0,0-1.745,0l-9.086,15.569a1.01,1.01,0,0,1-1.745,0L63.805,323.332a1.011,1.011,0,0,1,.873-1.52h57.4A1.011,1.011,0,0,1,122.95,323.332Z" transform="translate(-36.575 -184.875)" fill="#fcf2b6"/>
      <path id="Trazado_599713" data-name="Trazado 599713" d="M115.8,104.648v39.589H14.8V101.646a1.892,1.892,0,0,1,1.454-1.841L88.035,82.716A22.545,22.545,0,0,1,115.8,104.648Z" transform="translate(-8.505 -47.161)" fill="#ff9f22"/>
      <path id="Trazado_599714" data-name="Trazado 599714" d="M26.367,200.482v4.008a10.019,10.019,0,1,1-20.039,0v-4.008a10.019,10.019,0,1,1,20.039,0Z" transform="translate(-3.636 -109.417)" fill="#ffbeaa"/>
      <path id="Trazado_599715" data-name="Trazado 599715" d="M12.34,128.137v8.015a10.005,10.005,0,0,0,4.007,8.016,10.02,10.02,0,0,1-10.019-10.02v-4.008a10.019,10.019,0,0,1,10.019-10.02A10,10,0,0,0,12.34,128.137ZM60.434,68.02a44.086,44.086,0,0,0-44.086,44.086v16.031A44.106,44.106,0,0,0,48.41,170.564v13.683a12.024,12.024,0,1,0,24.047,0V170.564a44.1,44.1,0,0,0,32.063-42.427V112.106A44.086,44.086,0,0,0,60.434,68.02Z" transform="translate(-3.636 -39.076)" fill="#faa68e"/>
      <path id="Trazado_599716" data-name="Trazado 599716" d="M134.28,112.656v16.031a44.1,44.1,0,0,1-32.55,42.561,21.184,21.184,0,0,1-11.049,0,44.106,44.106,0,0,1-32.55-42.561V112.656A44.1,44.1,0,0,1,96.205,68.976,44.1,44.1,0,0,1,134.28,112.656Z" transform="translate(-33.395 -39.626)" fill="#ffbeaa"/>
      <path id="Trazado_599717" data-name="Trazado 599717" d="M128.041,240.449a3.008,3.008,0,0,0-4.251,0,11.175,11.175,0,0,1-15.788,0,3.006,3.006,0,1,0-4.251,4.251,17.2,17.2,0,0,0,24.29,0A3.006,3.006,0,0,0,128.041,240.449Z" transform="translate(-59.097 -137.628)" fill="#e09380"/>
      <path id="Trazado_599718" data-name="Trazado 599718" d="M78.93,61.807A22.043,22.043,0,0,1,56.887,83.851H20.816A6.011,6.011,0,0,1,14.8,77.839,38.075,38.075,0,0,1,52.879,39.765h4.008A22.042,22.042,0,0,1,78.93,61.807Z" transform="translate(-8.505 -22.844)" fill="#ff9f22"/>
      <path id="Trazado_599719" data-name="Trazado 599719" d="M61.9,61.807A22.043,22.043,0,0,1,83.941,39.763h56.911a2,2,0,0,1,2,2,42.082,42.082,0,0,1-42.082,42.082H83.941A22.043,22.043,0,0,1,61.9,61.807Z" transform="translate(-35.56 -22.843)" fill="#ffb52d"/>
      <path id="Trazado_599720" data-name="Trazado 599720" d="M528.374,134.044v70.163H481.241V132.066H526.4A1.978,1.978,0,0,1,528.374,134.044Z" transform="translate(-276.464 -75.87)" fill="#2b3894"/>
      <path id="Trazado_599721" data-name="Trazado 599721" d="M378.762,132.066v72.141h-24.1V133.362a1.3,1.3,0,0,1,1.3-1.3Z" transform="translate(-203.744 -75.87)" fill="#304c8e"/>
      <path id="Trazado_599722" data-name="Trazado 599722" d="M390.968,187.774V178.1a44.105,44.105,0,0,1-32.062-42.427V119.641a44.086,44.086,0,0,1,88.172,0v8.016a10.02,10.02,0,0,1,10.02,10.02v3.77a10.175,10.175,0,0,1-9.82,10.256,10.011,10.011,0,0,1-3.048-.409A44.19,44.19,0,0,1,415.015,178.1v9.675h24.047a28.327,28.327,0,0,1,3.068.166,6.05,6.05,0,0,1,4.681,8.784,129.487,129.487,0,0,1-95.921,68.8V215.829a28.055,28.055,0,0,1,28.055-28.055Z" transform="translate(-201.58 -43.405)" fill="#d47f6c"/>
      <path id="Trazado_599723" data-name="Trazado 599723" d="M474.13,120.19v16.031a44.1,44.1,0,0,1-32.55,42.561,21.173,21.173,0,0,1-11.049,0,44.1,44.1,0,0,1-32.55-42.561V120.19a44.1,44.1,0,0,1,38.075-43.68A44.1,44.1,0,0,1,474.13,120.19Z" transform="translate(-228.633 -43.954)" fill="#e09380"/>
      <path id="Trazado_599724" data-name="Trazado 599724" d="M467.891,247.984a3.007,3.007,0,0,0-4.251,0,11.176,11.176,0,0,1-15.788,0,3.006,3.006,0,0,0-4.251,4.251,17.2,17.2,0,0,0,24.29,0A3,3,0,0,0,467.891,247.984Z" transform="translate(-254.335 -141.957)" fill="#b2705b"/>
      <path id="Trazado_599725" data-name="Trazado 599725" d="M414.774,59.322a32.062,32.062,0,0,1-32.062,32.062H360.668a6.011,6.011,0,0,1-6.011-6.012A38.075,38.075,0,0,1,392.732,47.3h10.02A12.024,12.024,0,0,1,414.774,59.322Z" transform="translate(-203.744 -27.172)" fill="#304c8e"/>
      <path id="Trazado_599726" data-name="Trazado 599726" d="M526,80.024v11.36H503.28A26.18,26.18,0,0,1,477.1,65.2V63.469A16.17,16.17,0,0,1,493.27,47.3,32.726,32.726,0,0,1,526,80.024Z" transform="translate(-274.086 -27.172)" fill="#2b3894"/>
      <path id="Trazado_599727" data-name="Trazado 599727" d="M453.719,472.851l-.127.1a129.636,129.636,0,0,1-18.75,12.833,6.31,6.31,0,0,1-2.274.684,9.91,9.91,0,0,1-11.04-9.914V424.046h44.086v23.369A32.928,32.928,0,0,1,453.719,472.851Z" transform="translate(-242.16 -243.607)" fill="#fee132"/>
      <path id="Trazado_599728" data-name="Trazado 599728" d="M442.083,346.964a129.254,129.254,0,0,1-45.306,77.329V355.039c9.958-2.221,19.213-7.7,27.273-15.7A27.953,27.953,0,0,1,442.083,346.964Zm-119.451,20.4v55.16c12.481,10.005,54.106-2.116,54.106-2.116V355.039c-9.958-2.221-19.213-7.7-27.273-15.7A28.056,28.056,0,0,0,322.632,367.368Z" transform="translate(-185.346 -194.945)" fill="#ffde91"/>
      <path id="Trazado_599729" data-name="Trazado 599729" d="M351.769,341.528a28.061,28.061,0,0,0-17.113,25.84v63.468a102.912,102.912,0,0,1-12.023-8.308v-55.16a28.055,28.055,0,0,1,26.833-28.028Q350.6,340.468,351.769,341.528Z" transform="translate(-185.346 -194.945)" fill="#ffcd71"/>
      <path id="Trazado_599730" data-name="Trazado 599730" d="M163.44,514.521a128.829,128.829,0,0,1-12.023-6.172V492.967a28.055,28.055,0,0,1,28.055-28.055H197.4a28.055,28.055,0,0,0-28.055,28.055v19.765S165.385,515.393,163.44,514.521Z" transform="translate(-86.987 -267.083)" fill="#d3d3d8"/>
      <path id="Trazado_599731" data-name="Trazado 599731" d="M295.9,492.968v16.3a129.619,129.619,0,0,1-116.226,5.256V492.968a28.055,28.055,0,0,1,28.055-28.055h60.117A28.055,28.055,0,0,1,295.9,492.968Z" transform="translate(-103.22 -267.084)" fill="#ececf1"/>
      <path id="Trazado_599732" data-name="Trazado 599732" d="M298.527,541.077v26.715q-2.9.128-5.834.129-4.22,0-8.375-.267V541.077a2.842,2.842,0,0,1,2.842-2.842h8.525A2.842,2.842,0,0,1,298.527,541.077Z" transform="translate(-163.336 -309.206)" fill="#304c8e"/>
      <path id="Trazado_599733" data-name="Trazado 599733" d="M295.685,510.539H287.16a2.842,2.842,0,0,1-2.842-2.842V491.13a2.842,2.842,0,0,1,2.842-2.842h8.525a2.842,2.842,0,0,1,2.842,2.842V507.7A2.842,2.842,0,0,1,295.685,510.539Z" transform="translate(-163.336 -280.513)" fill="#3342ae"/>
      <path id="Trazado_599734" data-name="Trazado 599734" d="M291.7,458.534l-16.109,27.6a2.021,2.021,0,0,1-3.491,0l-9.085-15.569-9.086,15.569a2.021,2.021,0,0,1-3.491,0l-16.109-27.6a2.021,2.021,0,0,1,1.746-3.04h53.88A2.021,2.021,0,0,1,291.7,458.534Z" transform="translate(-134.458 -261.673)" fill="#d3d3d8"/>
      <path id="Trazado_599735" data-name="Trazado 599735" d="M243.558,260.309v41.48H183.44V259.283c0-.873.422-1.581.941-1.581h57.625C242.863,257.7,243.558,258.869,243.558,260.309Z" transform="translate(-105.383 -148.045)" fill="#7c3f2c"/>
      <path id="Trazado_599736" data-name="Trazado 599736" d="M318.255,261.513v40.275H242.307V257.7h72.137A3.811,3.811,0,0,1,318.255,261.513Z" transform="translate(-139.201 -148.045)" fill="#954c35"/>
      <path id="Trazado_599737" data-name="Trazado 599737" d="M184.984,347.679a10.02,10.02,0,0,1-10.02-10.02v-4.008a10.02,10.02,0,0,1,20.039,0v4.008A10.02,10.02,0,0,1,184.984,347.679Z" transform="translate(-100.514 -185.921)" fill="#ffbeaa"/>
      <path id="Trazado_599738" data-name="Trazado 599738" d="M180.976,261.307v8.016a10.005,10.005,0,0,0,4.007,8.016,10.02,10.02,0,0,1-10.018-10.02V263.31a10.02,10.02,0,0,1,10.018-10.02A10.007,10.007,0,0,0,180.976,261.307Zm92.18-8.015v-8.016a44.086,44.086,0,1,0-88.172,0v16.031a44.106,44.106,0,0,0,32.062,42.427v13.683a12.024,12.024,0,1,0,24.047,0V303.733a44.191,44.191,0,0,0,29.215-26.806,10.026,10.026,0,0,0,12.867-9.609v-4.008A10.019,10.019,0,0,0,273.156,253.291Z" transform="translate(-100.514 -115.579)" fill="#faa68e"/>
      <path id="Trazado_599739" data-name="Trazado 599739" d="M302.915,245.825v16.031a44.1,44.1,0,0,1-32.55,42.561,21.174,21.174,0,0,1-11.049,0,44.105,44.105,0,0,1-32.55-42.561V245.825a44.1,44.1,0,0,1,38.075-43.679A44.1,44.1,0,0,1,302.915,245.825Z" transform="translate(-130.273 -116.129)" fill="#ffbeaa"/>
      <path id="Trazado_599740" data-name="Trazado 599740" d="M296.676,373.618a3.006,3.006,0,0,0-4.251,0,11.176,11.176,0,0,1-15.788,0,3.006,3.006,0,1,0-4.251,4.251,17.2,17.2,0,0,0,24.29,0A3.005,3.005,0,0,0,296.676,373.618Z" transform="translate(-155.975 -214.131)" fill="#e09380"/>
      <path id="Trazado_599741" data-name="Trazado 599741" d="M243.558,184.957A32.063,32.063,0,0,1,211.5,217.019H189.452a6.012,6.012,0,0,1-6.012-6.012,38.075,38.075,0,0,1,38.075-38.075h10.019A12.024,12.024,0,0,1,243.558,184.957Z" transform="translate(-105.383 -99.347)" fill="#7c3f2c"/>
      <path id="Trazado_599742" data-name="Trazado 599742" d="M354.779,205.658v11.361H332.063a26.181,26.181,0,0,1-26.18-26.18V189.1a16.17,16.17,0,0,1,16.17-16.17A32.726,32.726,0,0,1,354.779,205.658Z" transform="translate(-175.724 -99.347)" fill="#954c35"/>
      <path id="Trazado_599743" data-name="Trazado 599743" d="M182.985,411.5h-5.924a2.527,2.527,0,0,1-2.527-2.527v-2.526a2.527,2.527,0,0,1,2.527-2.527h5.924a2.527,2.527,0,0,1,2.526,2.527v2.526A2.526,2.526,0,0,1,182.985,411.5Zm77,49.009h-5.924a2.527,2.527,0,0,1-2.526-2.526v-2.527a2.527,2.527,0,0,1,2.526-2.526h5.924a2.527,2.527,0,0,1,2.527,2.526v2.527A2.526,2.526,0,0,1,259.981,460.509ZM334,403.92h-5.924a2.527,2.527,0,0,1-2.527-2.526v-2.527a2.527,2.527,0,0,1,2.527-2.526H334a2.527,2.527,0,0,1,2.526,2.526v2.527A2.526,2.526,0,0,1,334,403.92Z" transform="translate(-100.267 -227.691)" fill="#ff9f22"/>
      <path id="Trazado_599744" data-name="Trazado 599744" d="M192.916,411.5h-5.685a3.79,3.79,0,1,1,0-7.58h5.685a1.9,1.9,0,0,1,1.895,1.895v3.79A1.9,1.9,0,0,1,192.916,411.5Zm77,49.009h-5.685a3.79,3.79,0,1,1,0-7.579h5.685a1.9,1.9,0,0,1,1.895,1.895v3.79A1.894,1.894,0,0,1,269.911,460.509Zm74.016-56.588h-5.684a3.79,3.79,0,1,1,0-7.579h5.684a1.9,1.9,0,0,1,1.895,1.895v3.79A1.9,1.9,0,0,1,343.927,403.92Z" transform="translate(-105.384 -227.691)" fill="#fee132"/>
    </g>
  </g>
</svg>
