<svg id="Group_8_3_" data-name="Group 8 (3)" xmlns="http://www.w3.org/2000/svg" width="663.42" height="347.38" viewBox="0 0 663.42 347.38">
  <path id="Trazado_600035" data-name="Trazado 600035" d="M357.058,337s3.73-10.436,12.653-9.275c0,0,12.954-17.394,26.766-2.32,0,0,14.683-3.735,25.557,3.234,7.249,4.647,9.644,9.522,9.644,9.522Z" transform="translate(-192.378 -172.01)" fill="#f8fcff" opacity="0.5"/>
  <path id="Trazado_600036" data-name="Trazado 600036" d="M239.929,253.591s4.52-12.645,15.329-11.239c0,0,15.692-21.074,32.427-2.809,0,0,17.79-4.526,30.962,3.919,8.785,5.63,11.685,11.535,11.685,11.535l-90.4-1.406Z" transform="translate(-129.269 -125.049)" fill="#f8fcff" opacity="0.5"/>
  <path id="Trazado_600037" data-name="Trazado 600037" d="M568.3,233.192a21.145,21.145,0,0,1,20.351-9.842s20.833-18.454,43.049-2.461c0,0,23.615-3.962,41.1,3.43,11.659,4.929,15.513,10.1,15.513,10.1L568.3,233.19Z" transform="translate(-306.192 -115.498)" fill="#f8fcff" opacity="0.5"/>
  <path id="Trazado_600038" data-name="Trazado 600038" d="M637.145,318.573c-.429,1.824-.909,3.7-1.444,5.571-.484,1.876-1.125,3.858-1.822,5.839-.323.963-.7,1.929-1.015,2.891-1.125,3.055-2.408,6.212-3.967,9.481-.484,1.071-.964,2.195-1.5,3.269-.134.334-.291.671-.452,1.005-.1.2-.2.4-.3.6H562.958l-18.638-.05h-166.9l-23.583-.027h-.073l-24.846-.03H200.179l-53.67-.053H49.454s-.032-.089-.1-.261c-.018-.052-.039-.112-.064-.18-.08-.209-.184-.489-.318-.848l-.052-.1v-.052a.2.2,0,0,1-.052-.109,14.793,14.793,0,0,1-.589-1.5c-.109-.271-.214-.591-.375-.912v-.109l-.052-.052c-.737-1.911-1.647-4.4-2.7-7.408-.093-.273-.191-.548-.291-.826-.789-2.272-1.656-4.818-2.579-7.62-2.2-6.8-4.715-15.1-7.176-24.477-.964-3.7-1.929-7.551-2.841-11.571-.537-2.32-1.076-4.736-1.592-7.174-.15-.714-.3-1.431-.444-2.145-.946-4.568-1.838-9.274-2.641-14.082-1.058-6.315-1.968-12.806-2.659-19.4q-.515-4.852-.864-9.769c-.007-.084-.014-.173-.018-.257s-.014-.175-.02-.264c-.316-4.615-.516-9.263-.575-13.9q-.072-5.606.139-11.2c.1-2.518.266-5.036.428-7.554.428-5.357,1.069-10.714,1.981-15.909.589-3.535,1.337-7.072,2.2-10.5a119.252,119.252,0,0,1,8.675-24.05c1.34-2.625,2.732-5.2,4.285-7.713,3.48-5.732,7.015-11.089,10.607-16.122h.052c1.874-2.677,3.749-5.2,5.623-7.609a199.184,199.184,0,0,1,21.32-23.674c88.108-82.432,189.128-2.891,251.639-58.221C391.5-12.557,505.864-13.36,557.013,36.506c.964.964,1.979,1.929,2.943,3a83.115,83.115,0,0,1,18.6,30.778,88.608,88.608,0,0,1,4.414,29.665c-.019,1.128-.051,2.27-.111,3.419a113.683,113.683,0,0,1-1.79,15.215q-.955,5.207-2.417,10.638A177.33,177.33,0,0,1,568.58,156.54q-.643,1.364-1.287,2.732c-13.979,29.245-2.463,46.759,15.16,62.775,10.871,9.91,24,19.229,34.923,30.371,1.444,1.5,2.837,3,4.229,4.554.535.619,1.056,1.237,1.577,1.866,1.462,1.763,2.864,3.562,4.206,5.418q1.024,1.443,1.969,2.932a65.626,65.626,0,0,1,4.94,9.244,60.194,60.194,0,0,1,2.537,7.04,59.574,59.574,0,0,1,1.974,9.763,74.575,74.575,0,0,1-1.67,25.337Z" transform="translate(-12.623 0)" fill="#dceaff"/>
  <path id="Trazado_600039" data-name="Trazado 600039" d="M472.787,625.7H279.179l-80.71-.053H52.509s-.084-.145-.25-.439c-.118-.209-.275-.489-.48-.848l-.08-.1v-.052s-.08-.057-.08-.109a12.461,12.461,0,0,1-.885-1.5,9.268,9.268,0,0,0-.566-.912v-.109l-.08-.052c-1.105-1.911-2.477-4.4-4.06-7.409-.143-.273-.287-.548-.434-.826-.789-2.272-1.656-4.818-2.579-7.62-2.2-6.8-4.715-15.1-7.176-24.477-.964-3.7-1.929-7.551-2.841-11.571-.537-2.32-1.076-4.736-1.592-7.174-.15-.714-.3-1.431-.444-2.145-.946-4.567-1.838-9.273-2.641-14.082C26.744,536.808,25.5,527,24.8,517.057c62.693,3.23,183.541,11.735,274.444,32.038,128.268,28.646,159.965,33.273,214.3,38.411C543.951,590.382,509.253,609.459,472.787,625.7Z" transform="translate(-13.36 -278.583)" fill="#fee132"/>
  <path id="Trazado_600040" data-name="Trazado 600040" d="M752.719,481.287l-4.545,88.9h4.545l2.047-88.9Z" transform="translate(-403.105 -259.31)" fill="#d2aee6"/>
  <path id="Trazado_600041" data-name="Trazado 600041" d="M758.812,441.56l1.155,5.473,20.681-24.543Z" transform="translate(-408.837 -227.632)" fill="#d2aee6"/>
  <path id="Trazado_600042" data-name="Trazado 600042" d="M768.409,477.6l-5.577-.416,17.808,26.7Z" transform="translate(-411.003 -257.099)" fill="#d2aee6"/>
  <path id="Trazado_600043" data-name="Trazado 600043" d="M716.522,482.22l3.239-4.563L687.7,479.11Z" transform="translate(-370.523 -257.355)" fill="#d2aee6"/>
  <path id="Trazado_600044" data-name="Trazado 600044" d="M758,476.571a2.5,2.5,0,1,0-3.266-1.353A2.5,2.5,0,0,0,758,476.571Z" transform="translate(-406.536 -254.178)" fill="#d2aee6"/>
  <path id="Trazado_600045" data-name="Trazado 600045" d="M445.913,586.982s-165.925-45.5-218.231-50.081-2.2,6.128-2.2,6.128,142,37.356,175.216,52.758S445.913,586.982,445.913,586.982Z" transform="translate(-109.831 -288.66)" fill="#efd117"/>
  <path id="Trazado_600046" data-name="Trazado 600046" d="M371.377,624.58s-143.464-68.834-190.315-81.757-3.02,5.141-3.02,5.141,123.041,57.487,150.716,76.928S371.377,624.58,371.377,624.58Z" transform="translate(-85.897 -289.956)" fill="#efd117"/>
  <path id="Trazado_600047" data-name="Trazado 600047" d="M501.338,517.377l-3.719,72.768h3.719l1.674-72.768Z" transform="translate(-268.11 -278.755)" fill="#d2aee6"/>
  <path id="Trazado_600048" data-name="Trazado 600048" d="M506.324,484.856l.944,4.481,16.928-20.09Z" transform="translate(-272.8 -252.824)" fill="#d2aee6"/>
  <path id="Trazado_600049" data-name="Trazado 600049" d="M514.178,514.36l-4.565-.341,14.576,21.855Z" transform="translate(-274.572 -276.946)" fill="#d2aee6"/>
  <path id="Trazado_600050" data-name="Trazado 600050" d="M471.706,518.139l2.652-3.735-26.245,1.189Z" transform="translate(-241.437 -277.153)" fill="#d2aee6"/>
  <path id="Trazado_600051" data-name="Trazado 600051" d="M502.827,511.627a2.047,2.047,0,1,1,2.047,2.047A2.047,2.047,0,0,1,502.827,511.627Z" transform="translate(-270.916 -274.554)" fill="#d2aee6"/>
  <path id="Trazado_600052" data-name="Trazado 600052" d="M647.273,595.148Q646.761,601.8,645.6,609c-.018.109-.032.214-.055.325-.415,2.454-.876,4.97-1.393,7.485-.484,2.629-1.125,5.407-1.817,8.187-.323,1.349-.7,2.7-1.019,4.051-1.125,4.283-2.408,8.707-3.962,13.291-.484,1.5-.964,3.078-1.5,4.584-.134.468-.29.941-.452,1.41H57.749c-.08-.293-.184-.687-.318-1.187l-.052-.15v-.072a.335.335,0,0,1-.052-.153c-.214-.6-.375-1.278-.589-2.1-.109-.378-.214-.83-.375-1.279v-.152l-.052-.073c-.737-2.68-1.647-6.169-2.7-10.384-.867-3.473-1.833-7.431-2.871-11.841-2.2-9.533-4.715-21.17-7.176-34.311-.964-5.181-1.929-10.586-2.841-16.218-.537-3.25-1.076-6.637-1.592-10.056C92.08,580.472,228.252,625.674,325.5,600.4c17.476-4.54,36.758-8.607,56.99-12.242q6.78-1.222,13.7-2.375C448.647,577,506,570.919,554.057,566.725h.009l1.665-.143,1.623-.141c.655-.055,1.31-.114,1.965-.171,1.361-.114,2.712-.232,4.059-.344l.526-.043c1.033-.089,2.057-.173,3.081-.257q5.666-.475,11.111-.91c.816-.064,1.633-.13,2.435-.193.895-.073,1.79-.143,2.67-.214q1.792-.14,3.551-.278l2.168-.166c1.287-.1,2.56-.2,3.823-.293l1.849-.141c.849-.064,1.688-.125,2.527-.191.069-.007.134-.012.2-.014l4.063-.3,1.278-.093a.3.3,0,0,0,.055-.007l.032,0c10.839-.8,20.57-1.483,28.9-2.061,1.462,1.763,2.864,3.562,4.206,5.418q1.024,1.444,1.969,2.932a65.64,65.64,0,0,1,4.94,9.244,60.243,60.243,0,0,1,2.537,7.04,59.583,59.583,0,0,1,1.974,9.763Z" transform="translate(-21.082 -301.913)" fill="#60cb28"/>
  <path id="Trazado_600053" data-name="Trazado 600053" d="M719.8,615.466c-13.728,7.718-43.323,27.473-61.508,62.555-.13.243-.255.489-.382.735l-13.825-.735-4.324-.23c.417-1.172,19.7-30.407,66.344-59.95q6.78-1.222,13.7-2.375Z" transform="translate(-344.692 -331.604)" fill="#4ca220"/>
  <path id="Trazado_600054" data-name="Trazado 600054" d="M702.624,673.35c.439-1.233,22.867-35.347,78.274-66.219l4.36,3.41s-42.62,18.729-65.484,63.726Z" transform="translate(-378.564 -327.113)" fill="#4ca220"/>
  <path id="Trazado_600055" data-name="Trazado 600055" d="M789.473,673.35c.439-1.233,22.867-35.347,78.274-66.219l4.36,3.41s-42.617,18.729-65.484,63.726Z" transform="translate(-425.357 -327.113)" fill="#4ca220"/>
  <path id="Trazado_600056" data-name="Trazado 600056" d="M1078.1,565.685s-77.636,7.9-126.114,57.841L921.4,614.76c.844-1.233,34.053-27.107,108.01-45.167h.009C1047.148,568.048,1063.613,566.756,1078.1,565.685Z" transform="translate(-496.439 -304.783)" fill="#4ca220"/>
  <path id="Trazado_600057" data-name="Trazado 600057" d="M1139.037,588.56c-34.872,8.42-90.7,27.714-132.442,69.983H979.867l-19.64-5.684c1.246-1.926,54.471-46.459,173.875-73.543a66.108,66.108,0,0,1,4.94,9.244Z" transform="translate(-517.356 -312.127)" fill="#4ca220"/>
  <path id="Trazado_600058" data-name="Trazado 600058" d="M744.036,721.722l.4-.1c-.159-.712-.557-15.024,3.933-23.37l-.362-.2c-4.549,8.457-4.122,23.078-3.969,23.665Z" transform="translate(-400.83 -376.101)" fill="#4ca220"/>
  <path id="Trazado_600059" data-name="Trazado 600059" d="M754.606,681.858s1.413,2.964.553,4.293S753.587,683.687,754.606,681.858Z" transform="translate(-406.301 -367.375)" fill="#fee132"/>
  <path id="Trazado_600060" data-name="Trazado 600060" d="M756.136,703.638s-1.413-2.966-.553-4.294S757.155,701.807,756.136,703.638Z" transform="translate(-406.948 -376.648)" fill="#fee132"/>
  <path id="Trazado_600061" data-name="Trazado 600061" d="M749.056,683.821s2.621,1.981,2.468,3.557S748.994,685.916,749.056,683.821Z" transform="translate(-403.58 -368.433)" fill="#fee132"/>
  <path id="Trazado_600062" data-name="Trazado 600062" d="M760.35,702.349s-2.621-1.981-2.468-3.557S760.412,700.254,760.35,702.349Z" transform="translate(-408.333 -376.263)" fill="#fee132"/>
  <path id="Trazado_600063" data-name="Trazado 600063" d="M744.569,688.442s3.234.576,3.812,2.05S745.465,690.335,744.569,688.442Z" transform="translate(-401.163 -370.923)" fill="#fee132"/>
  <path id="Trazado_600064" data-name="Trazado 600064" d="M763.2,699.614s-3.234-.575-3.812-2.049S762.309,697.722,763.2,699.614Z" transform="translate(-409.115 -375.53)" fill="#fee132"/>
  <path id="Trazado_600065" data-name="Trazado 600065" d="M743.114,697.892s2.591-2.02,4.074-1.465S745.123,698.493,743.114,697.892Z" transform="translate(-400.379 -375.173)" fill="#fee132"/>
  <path id="Trazado_600066" data-name="Trazado 600066" d="M764.388,693.805s-2.9,1.545-4.265.744S762.513,692.87,764.388,693.805Z" transform="translate(-409.386 -373.595)" fill="#fee132"/>
  <path id="Trazado_600067" data-name="Trazado 600067" d="M746.211,701.193s1.611-2.864,3.192-2.923S748.292,700.972,746.211,701.193Z" transform="translate(-402.048 -376.217)" fill="#fee132"/>
  <path id="Trazado_600068" data-name="Trazado 600068" d="M763,687.431s-1.61,2.861-3.193,2.923S760.915,687.652,763,687.431Z" transform="translate(-409.116 -370.378)" fill="#fee132"/>
  <path id="Trazado_600069" data-name="Trazado 600069" d="M750.808,703.461s.212-3.278,1.611-4.017S752.589,702.36,750.808,703.461Z" transform="translate(-404.525 -376.798)" fill="#fee132"/>
  <path id="Trazado_600070" data-name="Trazado 600070" d="M759.774,683.658s-.212,3.278-1.611,4.017S757.993,684.759,759.774,683.658Z" transform="translate(-408.161 -368.345)" fill="#fee132"/>
  <path id="Trazado_600071" data-name="Trazado 600071" d="M742.754,694.443s3.068-1.172,4.324-.207S744.5,695.605,742.754,694.443Z" transform="translate(-400.185 -373.839)" fill="#fee132"/>
  <path id="Trazado_600072" data-name="Trazado 600072" d="M755.764,692.888a2.286,2.286,0,1,0-2.286,2.286A2.286,2.286,0,0,0,755.764,692.888Z" transform="translate(-404.731 -372.086)" fill="#b6c0d7"/>
  <path id="Trazado_600073" data-name="Trazado 600073" d="M745.842,718.2a7.925,7.925,0,0,1,4.734-2.161,21.125,21.125,0,0,1,3.587,0,8.035,8.035,0,0,1-3.7,2.161A16.93,16.93,0,0,1,745.842,718.2Z" transform="translate(-401.849 -385.759)" fill="#4ca220"/>
  <path id="Trazado_600074" data-name="Trazado 600074" d="M739.294,711.716c-.348-.3-.607-2.768-2.734-3.387a20.306,20.306,0,0,0-3.635-.737s1.843,3.205,3.184,3.685a10.585,10.585,0,0,0,3.185.437Z" transform="translate(-394.889 -381.24)" fill="#4ca220"/>
  <path id="Trazado_600075" data-name="Trazado 600075" d="M720.711,716.832l.469-.12c-.189-.837-.657-17.681,4.627-27.5l-.428-.23c-5.355,9.952-4.852,27.159-4.67,27.851Z" transform="translate(-388.253 -371.212)" fill="#4ca220"/>
  <path id="Trazado_600076" data-name="Trazado 600076" d="M733.158,669.918s1.663,3.489.65,5.052S731.96,672.072,733.158,669.918Z" transform="translate(-394.697 -360.942)" fill="#fee132"/>
  <path id="Trazado_600077" data-name="Trazado 600077" d="M734.955,695.555s-1.663-3.49-.651-5.052S736.154,693.4,734.955,695.555Z" transform="translate(-395.456 -371.858)" fill="#fee132"/>
  <path id="Trazado_600078" data-name="Trazado 600078" d="M726.625,672.226s3.085,2.331,2.9,4.185S726.555,674.689,726.625,672.226Z" transform="translate(-391.495 -362.186)" fill="#fee132"/>
  <path id="Trazado_600079" data-name="Trazado 600079" d="M739.919,694.035s-3.082-2.331-2.9-4.185S739.99,691.571,739.919,694.035Z" transform="translate(-397.089 -371.404)" fill="#fee132"/>
  <path id="Trazado_600080" data-name="Trazado 600080" d="M721.34,677.671s3.805.678,4.488,2.411S722.4,679.9,721.34,677.671Z" transform="translate(-388.648 -365.119)" fill="#fee132"/>
  <path id="Trazado_600081" data-name="Trazado 600081" d="M743.272,690.814s-3.805-.678-4.488-2.411S742.217,688.587,743.272,690.814Z" transform="translate(-398.005 -370.54)" fill="#fee132"/>
  <path id="Trazado_600082" data-name="Trazado 600082" d="M719.634,688.786s3.048-2.377,4.793-1.724S721.995,689.491,719.634,688.786Z" transform="translate(-387.728 -370.118)" fill="#fee132"/>
  <path id="Trazado_600083" data-name="Trazado 600083" d="M744.673,683.982s-3.412,1.817-5.018.875S742.468,682.881,744.673,683.982Z" transform="translate(-398.33 -368.264)" fill="#fee132"/>
  <path id="Trazado_600084" data-name="Trazado 600084" d="M723.279,692.674s1.895-3.369,3.758-3.439S725.731,692.415,723.279,692.674Z" transform="translate(-389.692 -371.349)" fill="#fee132"/>
  <path id="Trazado_600085" data-name="Trazado 600085" d="M743.036,676.477s-1.895,3.369-3.758,3.439S740.584,676.736,743.036,676.477Z" transform="translate(-398.011 -364.476)" fill="#fee132"/>
  <path id="Trazado_600086" data-name="Trazado 600086" d="M728.688,695.339s.248-3.858,1.9-4.729S730.786,694.042,728.688,695.339Z" transform="translate(-392.607 -372.029)" fill="#fee132"/>
  <path id="Trazado_600087" data-name="Trazado 600087" d="M739.239,672.034s-.248,3.858-1.895,4.729S737.144,673.33,739.239,672.034Z" transform="translate(-396.886 -362.082)" fill="#fee132"/>
  <path id="Trazado_600088" data-name="Trazado 600088" d="M719.21,684.728s3.612-1.379,5.088-.246S721.261,686.093,719.21,684.728Z" transform="translate(-387.5 -368.548)" fill="#fee132"/>
  <path id="Trazado_600089" data-name="Trazado 600089" d="M734.519,682.9a2.691,2.691,0,1,0-2.691,2.691A2.692,2.692,0,0,0,734.519,682.9Z" transform="translate(-392.849 -366.488)" fill="#b6c0d7"/>
  <path id="Trazado_600090" data-name="Trazado 600090" d="M721.2,727.411a9.337,9.337,0,0,1,5.568-2.543,24.757,24.757,0,0,1,4.222,0,9.447,9.447,0,0,1-4.356,2.543,19.957,19.957,0,0,1-5.436,0Z" transform="translate(-388.573 -390.51)" fill="#4ca220"/>
  <path id="Trazado_600091" data-name="Trazado 600091" d="M713.5,719.787c-.41-.355-.717-3.259-3.219-3.985a23.751,23.751,0,0,0-4.279-.867s2.168,3.771,3.749,4.337A12.46,12.46,0,0,0,713.5,719.787Z" transform="translate(-380.384 -385.197)" fill="#4ca220"/>
  <path id="Trazado_600092" data-name="Trazado 600092" d="M748.875,729.844l.282-.073c-.114-.5-.393-10.608,2.777-16.5l-.255-.139c-3.211,5.971-2.911,16.3-2.8,16.712Z" transform="translate(-403.452 -384.224)" fill="#4ca220"/>
  <path id="Trazado_600093" data-name="Trazado 600093" d="M756.34,701.7s1,2.093.389,3.032S755.619,702.993,756.34,701.7Z" transform="translate(-407.314 -378.065)" fill="#fee132"/>
  <path id="Trazado_600094" data-name="Trazado 600094" d="M757.417,717.079s-1-2.093-.389-3.032S758.138,715.787,757.417,717.079Z" transform="translate(-407.77 -384.613)" fill="#fee132"/>
  <path id="Trazado_600095" data-name="Trazado 600095" d="M752.419,703.084s1.849,1.4,1.742,2.511S752.376,704.563,752.419,703.084Z" transform="translate(-405.392 -378.812)" fill="#fee132"/>
  <path id="Trazado_600096" data-name="Trazado 600096" d="M760.4,716.169s-1.849-1.4-1.742-2.511S760.44,714.691,760.4,716.169Z" transform="translate(-408.749 -384.343)" fill="#fee132"/>
  <path id="Trazado_600097" data-name="Trazado 600097" d="M749.25,706.349s2.283.407,2.693,1.447S749.884,707.687,749.25,706.349Z" transform="translate(-403.685 -380.571)" fill="#fee132"/>
  <path id="Trazado_600098" data-name="Trazado 600098" d="M762.409,714.235s-2.283-.407-2.693-1.446S761.774,712.9,762.409,714.235Z" transform="translate(-409.299 -383.823)" fill="#fee132"/>
  <path id="Trazado_600099" data-name="Trazado 600099" d="M748.224,713.021s1.829-1.426,2.875-1.035S749.641,713.444,748.224,713.021Z" transform="translate(-403.132 -383.571)" fill="#fee132"/>
  <path id="Trazado_600100" data-name="Trazado 600100" d="M763.244,710.136s-2.047,1.092-3.011.525S761.92,709.476,763.244,710.136Z" transform="translate(-409.491 -382.458)" fill="#fee132"/>
  <path id="Trazado_600101" data-name="Trazado 600101" d="M750.408,715.349s1.137-2.022,2.254-2.065S751.88,715.192,750.408,715.349Z" transform="translate(-404.309 -384.306)" fill="#fee132"/>
  <path id="Trazado_600102" data-name="Trazado 600102" d="M762.267,705.634s-1.137,2.022-2.254,2.065S760.795,705.791,762.267,705.634Z" transform="translate(-409.302 -380.185)" fill="#fee132"/>
  <path id="Trazado_600103" data-name="Trazado 600103" d="M753.653,716.951s.15-2.313,1.137-2.836S754.911,716.173,753.653,716.951Z" transform="translate(-406.057 -384.717)" fill="#fee132"/>
  <path id="Trazado_600104" data-name="Trazado 600104" d="M759.988,702.966s-.15,2.313-1.137,2.836S758.73,703.744,759.988,702.966Z" transform="translate(-408.627 -378.748)" fill="#fee132"/>
  <path id="Trazado_600105" data-name="Trazado 600105" d="M747.967,710.584s2.168-.828,3.052-.145S749.2,711.406,747.967,710.584Z" transform="translate(-402.994 -382.629)" fill="#fee132"/>
  <path id="Trazado_600106" data-name="Trazado 600106" d="M757.155,709.489a1.615,1.615,0,1,0-1.615,1.615A1.615,1.615,0,0,0,757.155,709.489Z" transform="translate(-406.204 -381.392)" fill="#b6c0d7"/>
  <path id="Trazado_600107" data-name="Trazado 600107" d="M749.168,736.193a5.6,5.6,0,0,1,3.341-1.527,14.683,14.683,0,0,1,2.532,0,5.672,5.672,0,0,1-2.613,1.527,11.963,11.963,0,0,1-3.262,0Z" transform="translate(-403.64 -395.804)" fill="#4ca220"/>
  <path id="Trazado_600108" data-name="Trazado 600108" d="M744.541,731.622c-.246-.214-.43-1.956-1.932-2.391a14.457,14.457,0,0,0-2.568-.521s1.3,2.264,2.249,2.6A7.49,7.49,0,0,0,744.541,731.622Z" transform="translate(-398.724 -392.618)" fill="#4ca220"/>
  <path id="Trazado_600109" data-name="Trazado 600109" d="M782.727,716.832l.469-.12c-.189-.837-.658-17.681,4.629-27.5l-.428-.23c-5.355,9.952-4.852,27.159-4.67,27.851Z" transform="translate(-421.667 -371.212)" fill="#4ca220"/>
  <path id="Trazado_600110" data-name="Trazado 600110" d="M795.169,669.918s1.663,3.489.651,5.052S793.971,672.072,795.169,669.918Z" transform="translate(-428.108 -360.942)" fill="#fee132"/>
  <path id="Trazado_600111" data-name="Trazado 600111" d="M796.967,695.555s-1.663-3.49-.651-5.052S798.166,693.4,796.967,695.555Z" transform="translate(-428.868 -371.858)" fill="#fee132"/>
  <path id="Trazado_600112" data-name="Trazado 600112" d="M788.638,672.226s3.082,2.331,2.9,4.185S788.568,674.689,788.638,672.226Z" transform="translate(-424.906 -362.186)" fill="#fee132"/>
  <path id="Trazado_600113" data-name="Trazado 600113" d="M801.927,694.035s-3.082-2.331-2.9-4.185S802,691.571,801.927,694.035Z" transform="translate(-430.498 -371.404)" fill="#fee132"/>
  <path id="Trazado_600114" data-name="Trazado 600114" d="M783.353,677.671s3.805.678,4.488,2.411S784.408,679.9,783.353,677.671Z" transform="translate(-422.059 -365.119)" fill="#fee132"/>
  <path id="Trazado_600115" data-name="Trazado 600115" d="M805.284,690.814s-3.805-.678-4.488-2.411S804.229,688.587,805.284,690.814Z" transform="translate(-431.417 -370.54)" fill="#fee132"/>
  <path id="Trazado_600116" data-name="Trazado 600116" d="M781.641,688.786s3.048-2.377,4.792-1.724S784,689.491,781.641,688.786Z" transform="translate(-421.137 -370.118)" fill="#fee132"/>
  <path id="Trazado_600117" data-name="Trazado 600117" d="M806.68,683.982s-3.412,1.817-5.018.875S804.474,682.881,806.68,683.982Z" transform="translate(-431.739 -368.264)" fill="#fee132"/>
  <path id="Trazado_600118" data-name="Trazado 600118" d="M785.286,692.674s1.895-3.369,3.758-3.439S787.738,692.415,785.286,692.674Z" transform="translate(-423.101 -371.349)" fill="#fee132"/>
  <path id="Trazado_600119" data-name="Trazado 600119" d="M805.043,676.477s-1.895,3.369-3.758,3.439S802.591,676.736,805.043,676.477Z" transform="translate(-431.419 -364.476)" fill="#fee132"/>
  <path id="Trazado_600120" data-name="Trazado 600120" d="M790.7,695.339s.248-3.858,1.895-4.729S792.791,694.042,790.7,695.339Z" transform="translate(-426.016 -372.029)" fill="#fee132"/>
  <path id="Trazado_600121" data-name="Trazado 600121" d="M801.252,672.034s-.25,3.858-1.895,4.729S799.157,673.33,801.252,672.034Z" transform="translate(-430.298 -362.082)" fill="#fee132"/>
  <path id="Trazado_600122" data-name="Trazado 600122" d="M781.217,684.728s3.612-1.379,5.089-.246S783.269,686.093,781.217,684.728Z" transform="translate(-420.908 -368.548)" fill="#fee132"/>
  <path id="Trazado_600123" data-name="Trazado 600123" d="M793.841,685.593a2.691,2.691,0,1,0-2.691-2.691A2.691,2.691,0,0,0,793.841,685.593Z" transform="translate(-426.26 -366.488)" fill="#b6c0d7"/>
  <path id="Trazado_600124" data-name="Trazado 600124" d="M784.849,712.685a9.337,9.337,0,0,1,5.568-2.543,24.756,24.756,0,0,1,4.222,0,9.448,9.448,0,0,1-4.356,2.543,19.957,19.957,0,0,1-5.436,0Z" transform="translate(-422.864 -382.576)" fill="#4ca220"/>
  <path id="Trazado_600125" data-name="Trazado 600125" d="M777.144,705.061c-.407-.355-.716-3.259-3.218-3.985a23.8,23.8,0,0,0-4.279-.867s2.168,3.771,3.749,4.338A12.474,12.474,0,0,0,777.144,705.061Z" transform="translate(-414.675 -377.263)" fill="#4ca220"/>
  <path id="Trazado_600126" data-name="Trazado 600126" d="M763.943,714.17l.469-.13c-.189-.905-.657-19.13,4.627-29.754l-.428-.248c-5.354,10.768-4.852,29.383-4.67,30.132Z" transform="translate(-411.546 -368.55)" fill="#4ca220"/>
  <path id="Trazado_600127" data-name="Trazado 600127" d="M776.39,663.408s1.663,3.776.65,5.466S775.192,665.739,776.39,663.408Z" transform="translate(-417.99 -357.435)" fill="#fee132"/>
  <path id="Trazado_600128" data-name="Trazado 600128" d="M778.187,691.145s-1.663-3.776-.65-5.466S779.385,688.815,778.187,691.145Z" transform="translate(-418.749 -369.245)" fill="#fee132"/>
  <path id="Trazado_600129" data-name="Trazado 600129" d="M769.857,665.909s3.082,2.522,2.9,4.529S769.787,668.575,769.857,665.909Z" transform="translate(-414.787 -358.782)" fill="#fee132"/>
  <path id="Trazado_600130" data-name="Trazado 600130" d="M783.152,689.5s-3.082-2.522-2.9-4.529S783.223,686.834,783.152,689.5Z" transform="translate(-420.382 -368.753)" fill="#fee132"/>
  <path id="Trazado_600131" data-name="Trazado 600131" d="M764.572,671.8s3.805.735,4.488,2.609S765.628,674.208,764.572,671.8Z" transform="translate(-411.94 -361.955)" fill="#fee132"/>
  <path id="Trazado_600132" data-name="Trazado 600132" d="M786.5,686.02s-3.805-.735-4.488-2.609S785.449,683.608,786.5,686.02Z" transform="translate(-421.298 -367.82)" fill="#fee132"/>
  <path id="Trazado_600133" data-name="Trazado 600133" d="M762.866,683.827s3.048-2.57,4.793-1.865S765.227,684.591,762.866,683.827Z" transform="translate(-411.021 -367.365)" fill="#fee132"/>
  <path id="Trazado_600134" data-name="Trazado 600134" d="M787.9,678.626s-3.412,1.968-5.018.948S785.7,677.436,787.9,678.626Z" transform="translate(-421.623 -365.358)" fill="#fee132"/>
  <path id="Trazado_600135" data-name="Trazado 600135" d="M766.511,688.029s1.895-3.644,3.758-3.721S768.963,687.747,766.511,688.029Z" transform="translate(-412.985 -368.694)" fill="#fee132"/>
  <path id="Trazado_600136" data-name="Trazado 600136" d="M786.269,670.51s-1.895,3.644-3.758,3.721S783.816,670.79,786.269,670.51Z" transform="translate(-421.304 -361.261)" fill="#fee132"/>
  <path id="Trazado_600137" data-name="Trazado 600137" d="M771.921,690.912s.248-4.174,1.895-5.115S774.016,689.509,771.921,690.912Z" transform="translate(-415.9 -369.43)" fill="#fee132"/>
  <path id="Trazado_600138" data-name="Trazado 600138" d="M782.472,665.7s-.25,4.174-1.895,5.115S780.377,667.105,782.472,665.7Z" transform="translate(-420.18 -358.671)" fill="#fee132"/>
  <path id="Trazado_600139" data-name="Trazado 600139" d="M762.442,679.435s3.612-1.493,5.088-.264S764.494,680.913,762.442,679.435Z" transform="translate(-410.793 -365.666)" fill="#fee132"/>
  <path id="Trazado_600140" data-name="Trazado 600140" d="M777.751,677.456a2.7,2.7,0,1,0-2.691,2.912A2.808,2.808,0,0,0,777.751,677.456Z" transform="translate(-416.142 -363.435)" fill="#b6c0d7"/>
  <path id="Trazado_600141" data-name="Trazado 600141" d="M764.437,725.614a9.1,9.1,0,0,1,5.568-2.75,22.794,22.794,0,0,1,4.221,0,9.373,9.373,0,0,1-4.356,2.75,18.441,18.441,0,0,1-5.436,0Z" transform="translate(-411.867 -389.427)" fill="#4ca220"/>
  <path id="Trazado_600142" data-name="Trazado 600142" d="M756.732,717.365c-.407-.384-.716-3.526-3.218-4.312a21.954,21.954,0,0,0-4.279-.937s2.168,4.08,3.749,4.692A11.538,11.538,0,0,0,756.732,717.365Z" transform="translate(-403.677 -383.677)" fill="#4ca220"/>
  <path id="Trazado_600143" data-name="Trazado 600143" d="M788.421,726.4l.332-.084c-.132-.591-.464-12.486,3.269-19.421l-.3-.161c-3.78,7.026-3.425,19.177-3.3,19.666Z" transform="translate(-424.753 -380.775)" fill="#4ca220"/>
  <path id="Trazado_600144" data-name="Trazado 600144" d="M797.207,693.265s1.174,2.463.46,3.567S796.361,694.785,797.207,693.265Z" transform="translate(-429.299 -373.521)" fill="#fee132"/>
  <path id="Trazado_600145" data-name="Trazado 600145" d="M798.477,711.369s-1.174-2.464-.46-3.567S799.323,709.849,798.477,711.369Z" transform="translate(-429.836 -381.23)" fill="#fee132"/>
  <path id="Trazado_600146" data-name="Trazado 600146" d="M792.594,694.9s2.177,1.647,2.05,2.955S792.542,696.638,792.594,694.9Z" transform="translate(-427.038 -374.401)" fill="#fee132"/>
  <path id="Trazado_600147" data-name="Trazado 600147" d="M801.981,710.3s-2.177-1.647-2.05-2.955S802.033,708.556,801.981,710.3Z" transform="translate(-430.989 -380.91)" fill="#fee132"/>
  <path id="Trazado_600148" data-name="Trazado 600148" d="M788.861,698.74s2.687.48,3.169,1.7S789.6,700.314,788.861,698.74Z" transform="translate(-425.027 -376.471)" fill="#fee132"/>
  <path id="Trazado_600149" data-name="Trazado 600149" d="M804.351,708.022s-2.686-.48-3.169-1.7S803.607,706.448,804.351,708.022Z" transform="translate(-431.637 -380.299)" fill="#fee132"/>
  <path id="Trazado_600150" data-name="Trazado 600150" d="M787.658,706.589s2.152-1.679,3.385-1.217S789.325,707.087,787.658,706.589Z" transform="translate(-424.379 -380.001)" fill="#fee132"/>
  <path id="Trazado_600151" data-name="Trazado 600151" d="M805.334,703.2s-2.409,1.283-3.544.619S803.776,702.418,805.334,703.2Z" transform="translate(-431.862 -378.691)" fill="#fee132"/>
  <path id="Trazado_600152" data-name="Trazado 600152" d="M790.228,709.335s1.338-2.379,2.652-2.429S791.959,709.151,790.228,709.335Z" transform="translate(-425.763 -380.87)" fill="#fee132"/>
  <path id="Trazado_600153" data-name="Trazado 600153" d="M804.18,697.9s-1.338,2.379-2.652,2.43S802.448,698.086,804.18,697.9Z" transform="translate(-431.638 -376.019)" fill="#fee132"/>
  <path id="Trazado_600154" data-name="Trazado 600154" d="M794.05,711.216s.175-2.723,1.338-3.339S795.528,710.3,794.05,711.216Z" transform="translate(-427.823 -381.35)" fill="#fee132"/>
  <path id="Trazado_600155" data-name="Trazado 600155" d="M801.5,694.765s-.175,2.723-1.338,3.339S800.023,695.681,801.5,694.765Z" transform="translate(-430.846 -374.329)" fill="#fee132"/>
  <path id="Trazado_600156" data-name="Trazado 600156" d="M787.357,703.727s2.55-.974,3.594-.173S788.806,704.691,787.357,703.727Z" transform="translate(-424.217 -378.895)" fill="#fee132"/>
  <path id="Trazado_600157" data-name="Trazado 600157" d="M798.169,702.434a1.9,1.9,0,1,0-1.9,1.9A1.9,1.9,0,0,0,798.169,702.434Z" transform="translate(-427.995 -377.438)" fill="#b6c0d7"/>
  <path id="Trazado_600158" data-name="Trazado 600158" d="M788.768,733.868a6.6,6.6,0,0,1,3.933-1.795,17.473,17.473,0,0,1,2.979,0,6.684,6.684,0,0,1-3.075,1.795A14.032,14.032,0,0,1,788.768,733.868Z" transform="translate(-424.977 -394.404)" fill="#4ca220"/>
  <path id="Trazado_600159" data-name="Trazado 600159" d="M783.324,728.481c-.289-.25-.505-2.3-2.272-2.814a16.881,16.881,0,0,0-3.021-.612s1.531,2.663,2.648,3.062A8.821,8.821,0,0,0,783.324,728.481Z" transform="translate(-419.192 -390.65)" fill="#4ca220"/>
  <path id="Trazado_600160" data-name="Trazado 600160" d="M814.709,732.828l.239-.061c-.1-.425-.334-8.989,2.352-13.982l-.216-.116C814.361,723.728,814.618,732.476,814.709,732.828Z" transform="translate(-438.926 -387.208)" fill="#4ca220"/>
  <path id="Trazado_600161" data-name="Trazado 600161" d="M821.036,708.978s.846,1.774.33,2.568S820.426,710.072,821.036,708.978Z" transform="translate(-442.201 -381.987)" fill="#fee132"/>
  <path id="Trazado_600162" data-name="Trazado 600162" d="M821.951,722.01s-.846-1.774-.33-2.568S822.56,720.916,821.951,722.01Z" transform="translate(-442.587 -387.536)" fill="#fee132"/>
  <path id="Trazado_600163" data-name="Trazado 600163" d="M817.717,710.152s1.567,1.185,1.476,2.129S817.681,711.405,817.717,710.152Z" transform="translate(-440.574 -382.62)" fill="#fee132"/>
  <path id="Trazado_600164" data-name="Trazado 600164" d="M824.471,721.241s-1.567-1.185-1.476-2.127S824.507,719.99,824.471,721.241Z" transform="translate(-443.416 -387.308)" fill="#fee132"/>
  <path id="Trazado_600165" data-name="Trazado 600165" d="M815.03,712.918s1.936.346,2.281,1.226S815.567,714.051,815.03,712.918Z" transform="translate(-439.126 -384.11)" fill="#fee132"/>
  <path id="Trazado_600166" data-name="Trazado 600166" d="M826.178,719.6s-1.933-.345-2.281-1.226S825.641,718.468,826.178,719.6Z" transform="translate(-443.883 -386.866)" fill="#fee132"/>
  <path id="Trazado_600167" data-name="Trazado 600167" d="M814.162,718.57s1.549-1.208,2.436-.875S815.363,718.929,814.162,718.57Z" transform="translate(-438.659 -386.652)" fill="#fee132"/>
  <path id="Trazado_600168" data-name="Trazado 600168" d="M826.885,716.129s-1.733.924-2.552.446S825.764,715.569,826.885,716.129Z" transform="translate(-444.044 -385.71)" fill="#fee132"/>
  <path id="Trazado_600169" data-name="Trazado 600169" d="M816.011,720.546s.964-1.713,1.911-1.749S817.258,720.414,816.011,720.546Z" transform="translate(-439.655 -387.277)" fill="#fee132"/>
  <path id="Trazado_600170" data-name="Trazado 600170" d="M826.057,712.312s-.964,1.713-1.911,1.749S824.81,712.444,826.057,712.312Z" transform="translate(-443.884 -383.783)" fill="#fee132"/>
  <path id="Trazado_600171" data-name="Trazado 600171" d="M818.763,721.9s.127-1.961.964-2.4S819.83,721.242,818.763,721.9Z" transform="translate(-441.138 -387.623)" fill="#fee132"/>
  <path id="Trazado_600172" data-name="Trazado 600172" d="M824.128,710.053s-.127,1.961-.964,2.4S823.061,710.713,824.128,710.053Z" transform="translate(-443.313 -382.566)" fill="#fee132"/>
  <path id="Trazado_600173" data-name="Trazado 600173" d="M813.945,716.507s1.836-.7,2.586-.125S814.987,717.2,813.945,716.507Z" transform="translate(-438.542 -385.854)" fill="#fee132"/>
  <path id="Trazado_600174" data-name="Trazado 600174" d="M820.362,716.944a1.367,1.367,0,1,0-1.367-1.367A1.367,1.367,0,0,0,820.362,716.944Z" transform="translate(-441.263 -384.806)" fill="#b6c0d7"/>
  <path id="Trazado_600175" data-name="Trazado 600175" d="M815.789,730.719a4.744,4.744,0,0,1,2.832-1.292,12.545,12.545,0,0,1,2.145,0,4.8,4.8,0,0,1-2.213,1.292A10.159,10.159,0,0,1,815.789,730.719Z" transform="translate(-439.535 -392.985)" fill="#4ca220"/>
  <path id="Trazado_600176" data-name="Trazado 600176" d="M811.876,726.843c-.207-.182-.364-1.656-1.635-2.027a12.183,12.183,0,0,0-2.175-.441s1.1,1.917,1.906,2.2a6.359,6.359,0,0,0,1.906.262Z" transform="translate(-435.374 -390.283)" fill="#4ca220"/>
  <path id="Trazado_600177" data-name="Trazado 600177" d="M800.759,729.9l.28-.073c-.114-.5-.393-10.577,2.768-16.455l-.255-.136c-3.2,5.955-2.9,16.25-2.8,16.664Z" transform="translate(-431.404 -384.283)" fill="#4ca220"/>
  <path id="Trazado_600178" data-name="Trazado 600178" d="M808.206,701.837s1,2.088.389,3.023S807.489,703.127,808.206,701.837Z" transform="translate(-435.259 -378.14)" fill="#fee132"/>
  <path id="Trazado_600179" data-name="Trazado 600179" d="M809.276,717.169s-1-2.088-.389-3.023S809.993,715.88,809.276,717.169Z" transform="translate(-435.711 -384.667)" fill="#fee132"/>
  <path id="Trazado_600180" data-name="Trazado 600180" d="M804.292,703.218s1.844,1.394,1.738,2.5S804.249,704.692,804.292,703.218Z" transform="translate(-433.34 -378.884)" fill="#fee132"/>
  <path id="Trazado_600181" data-name="Trazado 600181" d="M812.245,716.262s-1.845-1.395-1.738-2.5S812.288,714.788,812.245,716.262Z" transform="translate(-436.687 -384.397)" fill="#fee132"/>
  <path id="Trazado_600182" data-name="Trazado 600182" d="M801.132,706.473s2.277.4,2.684,1.442S801.762,707.806,801.132,706.473Z" transform="translate(-431.638 -380.637)" fill="#fee132"/>
  <path id="Trazado_600183" data-name="Trazado 600183" d="M814.258,714.335s-2.277-.4-2.684-1.442S813.628,713,814.258,714.335Z" transform="translate(-437.24 -383.88)" fill="#fee132"/>
  <path id="Trazado_600184" data-name="Trazado 600184" d="M800.111,713.123s1.824-1.421,2.868-1.033S801.523,713.544,800.111,713.123Z" transform="translate(-431.088 -383.628)" fill="#fee132"/>
  <path id="Trazado_600185" data-name="Trazado 600185" d="M815.089,710.249s-2.04,1.087-3,.523S813.769,709.589,815.089,710.249Z" transform="translate(-437.429 -382.518)" fill="#fee132"/>
  <path id="Trazado_600186" data-name="Trazado 600186" d="M802.291,715.45s1.135-2.016,2.247-2.058S803.758,715.293,802.291,715.45Z" transform="translate(-432.263 -384.365)" fill="#fee132"/>
  <path id="Trazado_600187" data-name="Trazado 600187" d="M814.113,705.757s-1.135,2.016-2.247,2.059S812.646,705.914,814.113,705.757Z" transform="translate(-437.24 -380.252)" fill="#fee132"/>
  <path id="Trazado_600188" data-name="Trazado 600188" d="M805.526,717.044s.15-2.309,1.135-2.83S806.781,716.268,805.526,717.044Z" transform="translate(-434.006 -384.771)" fill="#fee132"/>
  <path id="Trazado_600189" data-name="Trazado 600189" d="M811.84,703.1s-.15,2.309-1.135,2.83S810.584,703.875,811.84,703.1Z" transform="translate(-436.566 -378.82)" fill="#fee132"/>
  <path id="Trazado_600190" data-name="Trazado 600190" d="M799.854,710.693s2.161-.826,3.044-.145S801.08,711.512,799.854,710.693Z" transform="translate(-430.95 -382.688)" fill="#fee132"/>
  <path id="Trazado_600191" data-name="Trazado 600191" d="M809.018,709.6a1.611,1.611,0,1,0-1.611,1.611A1.611,1.611,0,0,0,809.018,709.6Z" transform="translate(-434.152 -381.456)" fill="#b6c0d7"/>
  <path id="Trazado_600192" data-name="Trazado 600192" d="M801.05,736.233a5.6,5.6,0,0,1,3.332-1.522,14.968,14.968,0,0,1,2.525,0,5.65,5.65,0,0,1-2.607,1.522,11.9,11.9,0,0,1-3.252,0Z" transform="translate(-431.593 -395.829)" fill="#4ca220"/>
  <path id="Trazado_600193" data-name="Trazado 600193" d="M796.442,731.671c-.243-.214-.428-1.95-1.925-2.384a14.182,14.182,0,0,0-2.559-.518s1.3,2.256,2.243,2.6a7.4,7.4,0,0,0,2.243.307Z" transform="translate(-426.696 -392.65)" fill="#4ca220"/>
  <path id="Trazado_600194" data-name="Trazado 600194" d="M817.605,737.691l.168-.043c-.068-.3-.237-6.346,1.66-9.872l-.152-.082c-1.922,3.573-1.742,9.749-1.677,10Z" transform="translate(-440.494 -392.071)" fill="#4ca220"/>
  <path id="Trazado_600195" data-name="Trazado 600195" d="M822.072,720.849s.6,1.254.234,1.813S821.642,721.622,822.072,720.849Z" transform="translate(-442.806 -388.383)" fill="#fee132"/>
  <path id="Trazado_600196" data-name="Trazado 600196" d="M822.718,730.051s-.6-1.254-.234-1.813S823.148,729.278,822.718,730.051Z" transform="translate(-443.08 -392.301)" fill="#fee132"/>
  <path id="Trazado_600197" data-name="Trazado 600197" d="M819.724,721.678s1.108.837,1.042,1.5S819.7,722.563,819.724,721.678Z" transform="translate(-441.655 -388.83)" fill="#fee132"/>
  <path id="Trazado_600198" data-name="Trazado 600198" d="M824.5,729.5s-1.108-.837-1.042-1.5S824.524,728.62,824.5,729.5Z" transform="translate(-443.664 -392.137)" fill="#fee132"/>
  <path id="Trazado_600199" data-name="Trazado 600199" d="M817.831,723.631s1.367.244,1.611.867S818.209,724.432,817.831,723.631Z" transform="translate(-440.636 -389.882)" fill="#fee132"/>
  <path id="Trazado_600200" data-name="Trazado 600200" d="M825.7,728.348s-1.367-.244-1.61-.867S825.325,727.548,825.7,728.348Z" transform="translate(-443.994 -391.827)" fill="#fee132"/>
  <path id="Trazado_600201" data-name="Trazado 600201" d="M817.214,727.619s1.094-.853,1.72-.619S818.06,727.874,817.214,727.619Z" transform="translate(-440.303 -391.675)" fill="#fee132"/>
  <path id="Trazado_600202" data-name="Trazado 600202" d="M826.2,725.9s-1.224.653-1.8.314S825.414,725.5,826.2,725.9Z" transform="translate(-444.11 -391.011)" fill="#fee132"/>
  <path id="Trazado_600203" data-name="Trazado 600203" d="M818.526,729.018s.68-1.21,1.349-1.235S819.406,728.924,818.526,729.018Z" transform="translate(-441.01 -392.119)" fill="#fee132"/>
  <path id="Trazado_600204" data-name="Trazado 600204" d="M825.617,723.2s-.68,1.21-1.349,1.235S824.737,723.3,825.617,723.2Z" transform="translate(-443.996 -389.651)" fill="#fee132"/>
  <path id="Trazado_600205" data-name="Trazado 600205" d="M820.465,729.974s.089-1.385.68-1.7S821.218,729.51,820.465,729.974Z" transform="translate(-442.055 -392.363)" fill="#fee132"/>
  <path id="Trazado_600206" data-name="Trazado 600206" d="M824.254,721.608s-.089,1.385-.68,1.7S823.5,722.072,824.254,721.608Z" transform="translate(-443.592 -388.792)" fill="#fee132"/>
  <path id="Trazado_600207" data-name="Trazado 600207" d="M817.067,726.165s1.3-.5,1.826-.089S817.8,726.654,817.067,726.165Z" transform="translate(-440.224 -391.113)" fill="#fee132"/>
  <path id="Trazado_600208" data-name="Trazado 600208" d="M822.56,725.51a.967.967,0,1,0-.967.967A.966.966,0,0,0,822.56,725.51Z" transform="translate(-442.142 -390.373)" fill="#b6c0d7"/>
  <path id="Trazado_600209" data-name="Trazado 600209" d="M817.782,741.488a3.343,3.343,0,0,1,2-.912,8.991,8.991,0,0,1,1.515,0,3.4,3.4,0,0,1-1.563.912A7.165,7.165,0,0,1,817.782,741.488Z" transform="translate(-440.609 -398.998)" fill="#4ca220"/>
  <path id="Trazado_600210" data-name="Trazado 600210" d="M815.013,738.752c-.146-.127-.257-1.169-1.156-1.431a8.48,8.48,0,0,0-1.535-.312s.778,1.354,1.344,1.556a4.475,4.475,0,0,0,1.347.184Z" transform="translate(-437.667 -397.09)" fill="#4ca220"/>
  <path id="Trazado_600211" data-name="Trazado 600211" d="M837.857,729.9l.28-.073c-.114-.5-.394-10.577,2.768-16.455l-.255-.136C837.447,719.194,837.748,729.489,837.857,729.9Z" transform="translate(-451.392 -384.283)" fill="#4ca220"/>
  <path id="Trazado_600212" data-name="Trazado 600212" d="M845.3,701.837s1,2.088.389,3.023S844.587,703.127,845.3,701.837Z" transform="translate(-455.247 -378.14)" fill="#fee132"/>
  <path id="Trazado_600213" data-name="Trazado 600213" d="M846.378,717.169s-1-2.088-.389-3.023S847.1,715.88,846.378,717.169Z" transform="translate(-455.701 -384.667)" fill="#fee132"/>
  <path id="Trazado_600214" data-name="Trazado 600214" d="M841.394,703.218s1.845,1.394,1.738,2.5S841.351,704.692,841.394,703.218Z" transform="translate(-453.331 -378.884)" fill="#fee132"/>
  <path id="Trazado_600215" data-name="Trazado 600215" d="M849.347,716.262s-1.845-1.395-1.738-2.5S849.39,714.788,849.347,716.262Z" transform="translate(-456.677 -384.397)" fill="#fee132"/>
  <path id="Trazado_600216" data-name="Trazado 600216" d="M838.234,706.473s2.277.4,2.684,1.442S838.864,707.806,838.234,706.473Z" transform="translate(-451.628 -380.637)" fill="#fee132"/>
  <path id="Trazado_600217" data-name="Trazado 600217" d="M851.355,714.335s-2.277-.4-2.684-1.442S850.725,713,851.355,714.335Z" transform="translate(-457.227 -383.88)" fill="#fee132"/>
  <path id="Trazado_600218" data-name="Trazado 600218" d="M837.213,713.123s1.825-1.421,2.868-1.033S838.628,713.544,837.213,713.123Z" transform="translate(-451.078 -383.628)" fill="#fee132"/>
  <path id="Trazado_600219" data-name="Trazado 600219" d="M852.191,710.249s-2.04,1.087-3,.523S850.872,709.589,852.191,710.249Z" transform="translate(-457.419 -382.518)" fill="#fee132"/>
  <path id="Trazado_600220" data-name="Trazado 600220" d="M839.393,715.45s1.135-2.016,2.247-2.058S840.86,715.293,839.393,715.45Z" transform="translate(-452.253 -384.365)" fill="#fee132"/>
  <path id="Trazado_600221" data-name="Trazado 600221" d="M851.215,705.757s-1.135,2.016-2.247,2.059S849.748,705.914,851.215,705.757Z" transform="translate(-457.23 -380.252)" fill="#fee132"/>
  <path id="Trazado_600222" data-name="Trazado 600222" d="M842.628,717.044s.15-2.309,1.135-2.83S843.884,716.268,842.628,717.044Z" transform="translate(-453.996 -384.771)" fill="#fee132"/>
  <path id="Trazado_600223" data-name="Trazado 600223" d="M848.942,703.1s-.15,2.309-1.135,2.83S847.686,703.875,848.942,703.1Z" transform="translate(-456.556 -378.82)" fill="#fee132"/>
  <path id="Trazado_600224" data-name="Trazado 600224" d="M836.957,710.693s2.161-.826,3.043-.145S838.183,711.512,836.957,710.693Z" transform="translate(-450.94 -382.688)" fill="#fee132"/>
  <path id="Trazado_600225" data-name="Trazado 600225" d="M846.116,709.6a1.61,1.61,0,1,0-1.611,1.611A1.61,1.61,0,0,0,846.116,709.6Z" transform="translate(-454.14 -381.456)" fill="#b6c0d7"/>
  <path id="Trazado_600226" data-name="Trazado 600226" d="M839.131,727.419a5.6,5.6,0,0,1,3.332-1.522,14.619,14.619,0,0,1,2.525,0,5.654,5.654,0,0,1-2.6,1.522A11.9,11.9,0,0,1,839.131,727.419Z" transform="translate(-452.112 -391.08)" fill="#4ca220"/>
  <path id="Trazado_600227" data-name="Trazado 600227" d="M834.52,722.859c-.244-.214-.428-1.95-1.925-2.384a14.187,14.187,0,0,0-2.559-.518s1.3,2.256,2.243,2.6a7.4,7.4,0,0,0,2.243.307Z" transform="translate(-447.212 -387.902)" fill="#4ca220"/>
  <path id="Trazado_600228" data-name="Trazado 600228" d="M826.623,728.311l.279-.077c-.113-.541-.393-11.444,2.768-17.8l-.255-.148c-3.2,6.442-2.9,17.581-2.793,18.028Z" transform="translate(-445.34 -382.691)" fill="#4ca220"/>
  <path id="Trazado_600229" data-name="Trazado 600229" d="M834.069,697.941s1,2.259.389,3.271S833.352,699.335,834.069,697.941Z" transform="translate(-449.194 -376.041)" fill="#fee132"/>
  <path id="Trazado_600230" data-name="Trazado 600230" d="M835.143,714.533s-1-2.259-.389-3.271S835.86,713.138,835.143,714.533Z" transform="translate(-449.648 -383.104)" fill="#fee132"/>
  <path id="Trazado_600231" data-name="Trazado 600231" d="M830.159,699.435s1.845,1.508,1.738,2.709S830.116,701.029,830.159,699.435Z" transform="translate(-447.277 -376.845)" fill="#fee132"/>
  <path id="Trazado_600232" data-name="Trazado 600232" d="M838.112,713.552s-1.844-1.508-1.738-2.709S838.155,711.958,838.112,713.552Z" transform="translate(-450.624 -382.813)" fill="#fee132"/>
  <path id="Trazado_600233" data-name="Trazado 600233" d="M827,702.957s2.277.439,2.684,1.56S827.629,704.4,827,702.957Z" transform="translate(-445.575 -378.743)" fill="#fee132"/>
  <path id="Trazado_600234" data-name="Trazado 600234" d="M840.12,711.466s-2.277-.439-2.684-1.56S839.49,710.024,840.12,711.466Z" transform="translate(-451.174 -382.253)" fill="#fee132"/>
  <path id="Trazado_600235" data-name="Trazado 600235" d="M825.979,710.153s1.824-1.538,2.868-1.117S827.391,710.61,825.979,710.153Z" transform="translate(-445.026 -381.979)" fill="#fee132"/>
  <path id="Trazado_600236" data-name="Trazado 600236" d="M840.957,707.046s-2.04,1.176-3,.566S839.637,706.334,840.957,707.046Z" transform="translate(-451.366 -380.781)" fill="#fee132"/>
  <path id="Trazado_600237" data-name="Trazado 600237" d="M828.158,712.669s1.135-2.181,2.247-2.227S829.625,712.5,828.158,712.669Z" transform="translate(-446.2 -382.776)" fill="#fee132"/>
  <path id="Trazado_600238" data-name="Trazado 600238" d="M839.98,702.187s-1.135,2.182-2.247,2.227S838.513,702.355,839.98,702.187Z" transform="translate(-451.177 -378.328)" fill="#fee132"/>
  <path id="Trazado_600239" data-name="Trazado 600239" d="M831.394,714.393s.15-2.5,1.135-3.062S832.649,713.554,831.394,714.393Z" transform="translate(-447.943 -383.215)" fill="#fee132"/>
  <path id="Trazado_600240" data-name="Trazado 600240" d="M837.707,699.312s-.15,2.5-1.135,3.062S836.451,700.153,837.707,699.312Z" transform="translate(-450.503 -376.779)" fill="#fee132"/>
  <path id="Trazado_600241" data-name="Trazado 600241" d="M825.722,707.528s2.161-.892,3.043-.159S826.948,708.413,825.722,707.528Z" transform="translate(-444.887 -380.964)" fill="#fee132"/>
  <path id="Trazado_600242" data-name="Trazado 600242" d="M834.881,706.341a1.615,1.615,0,1,0-1.611,1.742A1.68,1.68,0,0,0,834.881,706.341Z" transform="translate(-448.086 -379.628)" fill="#b6c0d7"/>
  <path id="Trazado_600243" data-name="Trazado 600243" d="M826.92,735.156a5.452,5.452,0,0,1,3.333-1.647,13.656,13.656,0,0,1,2.525,0,5.634,5.634,0,0,1-2.6,1.647A11.068,11.068,0,0,1,826.92,735.156Z" transform="translate(-445.533 -395.179)" fill="#4ca220"/>
  <path id="Trazado_600244" data-name="Trazado 600244" d="M822.309,730.227c-.244-.23-.427-2.109-1.925-2.58a13.065,13.065,0,0,0-2.559-.559s1.3,2.441,2.243,2.807a6.888,6.888,0,0,0,2.243.332Z" transform="translate(-440.633 -391.745)" fill="#4ca220"/>
  <path id="Trazado_600245" data-name="Trazado 600245" d="M841.265,735.624l.2-.05c-.08-.352-.278-7.47,1.954-11.618l-.179-.1C840.974,728.061,841.188,735.33,841.265,735.624Z" transform="translate(-453.238 -390.004)" fill="#4ca220"/>
  <path id="Trazado_600246" data-name="Trazado 600246" d="M846.524,715.8s.7,1.474.275,2.134S846.019,716.714,846.524,715.8Z" transform="translate(-455.961 -385.665)" fill="#fee132"/>
  <path id="Trazado_600247" data-name="Trazado 600247" d="M847.279,726.634s-.7-1.474-.275-2.134S847.784,725.724,847.279,726.634Z" transform="translate(-456.279 -390.277)" fill="#fee132"/>
  <path id="Trazado_600248" data-name="Trazado 600248" d="M843.762,716.78s1.3.985,1.226,1.767S843.73,717.82,843.762,716.78Z" transform="translate(-454.607 -386.191)" fill="#fee132"/>
  <path id="Trazado_600249" data-name="Trazado 600249" d="M849.379,725.993s-1.3-.985-1.226-1.767S849.411,724.954,849.379,725.993Z" transform="translate(-456.971 -390.086)" fill="#fee132"/>
  <path id="Trazado_600250" data-name="Trazado 600250" d="M841.528,719.078s1.608.287,1.9,1.019S841.972,720.02,841.528,719.078Z" transform="translate(-453.403 -387.429)" fill="#fee132"/>
  <path id="Trazado_600251" data-name="Trazado 600251" d="M850.8,724.634s-1.608-.287-1.895-1.019S850.354,723.692,850.8,724.634Z" transform="translate(-457.36 -389.72)" fill="#fee132"/>
  <path id="Trazado_600252" data-name="Trazado 600252" d="M840.808,723.775s1.288-1,2.024-.728S841.8,724.073,840.808,723.775Z" transform="translate(-453.015 -389.542)" fill="#fee132"/>
  <path id="Trazado_600253" data-name="Trazado 600253" d="M851.384,721.745s-1.442.769-2.12.371S850.452,721.281,851.384,721.745Z" transform="translate(-457.493 -388.758)" fill="#fee132"/>
  <path id="Trazado_600254" data-name="Trazado 600254" d="M842.347,725.419s.8-1.424,1.588-1.453S843.384,725.31,842.347,725.419Z" transform="translate(-453.844 -390.062)" fill="#fee132"/>
  <path id="Trazado_600255" data-name="Trazado 600255" d="M850.695,718.575s-.8,1.424-1.588,1.454S849.658,718.684,850.695,718.575Z" transform="translate(-457.359 -387.158)" fill="#fee132"/>
  <path id="Trazado_600256" data-name="Trazado 600256" d="M844.635,726.542s.1-1.629.8-2S845.52,725.994,844.635,726.542Z" transform="translate(-455.077 -390.348)" fill="#fee132"/>
  <path id="Trazado_600257" data-name="Trazado 600257" d="M849.089,716.7s-.1,1.631-.8,2S848.2,717.244,849.089,716.7Z" transform="translate(-456.883 -386.145)" fill="#fee132"/>
  <path id="Trazado_600258" data-name="Trazado 600258" d="M840.631,722.061s1.526-.582,2.149-.1S841.5,722.639,840.631,722.061Z" transform="translate(-452.92 -388.879)" fill="#fee132"/>
  <path id="Trazado_600259" data-name="Trazado 600259" d="M847.1,721.285a1.137,1.137,0,1,0-1.137,1.137A1.138,1.138,0,0,0,847.1,721.285Z" transform="translate(-455.178 -388.005)" fill="#b6c0d7"/>
  <path id="Trazado_600260" data-name="Trazado 600260" d="M841.471,740.1a3.948,3.948,0,0,1,2.352-1.074,10.438,10.438,0,0,1,1.784,0,3.99,3.99,0,0,1-1.84,1.074,8.473,8.473,0,0,1-2.3,0Z" transform="translate(-453.371 -398.158)" fill="#4ca220"/>
  <path id="Trazado_600261" data-name="Trazado 600261" d="M838.217,736.875c-.173-.15-.3-1.376-1.36-1.683a10,10,0,0,0-1.808-.366s.916,1.594,1.583,1.833a5.224,5.224,0,0,0,1.583.216Z" transform="translate(-449.912 -395.914)" fill="#4ca220"/>
  <path id="Trazado_600262" data-name="Trazado 600262" d="M73.994,516.495V625.087H50.04c-.011-.032-.023-.07-.039-.109l-.027-.071c-.08-.209-.184-.489-.318-.848l-.052-.1V623.9a.2.2,0,0,1-.052-.109,14.835,14.835,0,0,1-.589-1.5c-.109-.271-.214-.592-.375-.912v-.109l-.052-.052c-.737-1.911-1.647-4.4-2.7-7.409-.093-.273-.191-.548-.291-.826-.789-2.272-1.656-4.818-2.579-7.62q-.638-1.975-1.31-4.119c-1.858-5.939-3.883-12.8-5.866-20.358-.964-3.7-1.929-7.552-2.841-11.571-.537-2.32-1.076-4.736-1.592-7.174-.15-.714-.3-1.431-.444-2.145-.946-4.567-1.838-9.274-2.641-14.082-1.058-6.314-1.968-12.806-2.659-19.4q-.515-4.852-.864-9.769c-.007-.084-.014-.173-.018-.257H73.994Z" transform="translate(-13.323 -278.28)" fill="#fff3e9"/>
  <path id="Trazado_600263" data-name="Trazado 600263" d="M88.856,418.682l25.378,52.241h77.1l-40.195-52.05Z" transform="translate(-47.875 -225.58)" fill="#d2aee6"/>
  <path id="Trazado_600264" data-name="Trazado 600264" d="M184.736,470.923l-2.29-2.966-37.9-49.084-62.279-.191,22.73,46.793v106.9h77.453V470.923Z" transform="translate(-44.322 -225.58)" fill="#f9ddbf"/>
  <path id="Trazado_600265" data-name="Trazado 600265" d="M216.12,510.585H194.9V484.954a9.64,9.64,0,0,1,9.635-9.635h1.619a9.962,9.962,0,0,1,9.959,9.959v25.307Z" transform="translate(-105.012 -256.095)" fill="#efcdaf"/>
  <path id="Trazado_600266" data-name="Trazado 600266" d="M116.09,418.682l-.173.232-1.5,2L78.163,469.24l-3.437,4.584H24.9q-.515-4.852-.864-9.769c-.007-.084-.014-.173-.018-.257s-.014-.175-.02-.264c-.316-4.615-.516-9.262-.575-13.9L47.31,418.7H57.434l35.366-.007,23.285-.007Z" transform="translate(-12.622 -225.58)" fill="#d2aee6"/>
  <path id="Trazado_600267" data-name="Trazado 600267" d="M235.519,563.588l18.067,37.192h54.889l-28.617-37.056Z" transform="translate(-126.894 -303.653)" fill="#d2aee6"/>
  <path id="Trazado_600268" data-name="Trazado 600268" d="M304.909,600.78l-28.617-37.056-44.339-.136L250.02,600.78h.118v49.571l54.771.107Z" transform="translate(-124.973 -303.653)" fill="#f9ddbf"/>
  <path id="Trazado_600269" data-name="Trazado 600269" d="M217.208,644.229h-46.38V693.8h46.38Z" transform="translate(-92.04 -347.101)" fill="#fff3e9"/>
  <path id="Trazado_600270" data-name="Trazado 600270" d="M159.776,603.137H209.6l29.449-39.258-14.84,0-34.126.009Z" transform="translate(-86.085 -303.81)" fill="#d2aee6"/>
  <path id="Trazado_600271" data-name="Trazado 600271" d="M306.64,648.874v41.421h23.074V649.254a11.728,11.728,0,0,0-11.726-11.728,11.349,11.349,0,0,0-11.345,11.346Z" transform="translate(-165.213 -343.49)" fill="#efcdaf"/>
  <path id="Trazado_600272" data-name="Trazado 600272" d="M331.223,605.626a2.589,2.589,0,1,0-2.588,2.588A2.588,2.588,0,0,0,331.223,605.626Z" transform="translate(-175.669 -324.908)" fill="#efcdaf"/>
  <path id="Trazado_600273" data-name="Trazado 600273" d="M159.776,603.139h9.455l54.978-39.255-34.126.009Z" transform="translate(-86.085 -303.813)" fill="#bd90d6"/>
  <path id="Trazado_600274" data-name="Trazado 600274" d="M87.747,463.7H42.211l24.02-29.459h45.536Z" transform="translate(-22.743 -233.961)" fill="#304c8e"/>
  <path id="Trazado_600275" data-name="Trazado 600275" d="M126.38,450.656H80.847l.282-.346h45.536Z" transform="translate(-43.559 -242.621)" fill="#e0e4ee"/>
  <path id="Trazado_600276" data-name="Trazado 600276" d="M89.034,434.232l-24.02,29.461h-.348l24.022-29.461Z" transform="translate(-34.841 -233.958)" fill="#e0e4ee"/>
  <path id="Trazado_600277" data-name="Trazado 600277" d="M115.192,434.232l-24.02,29.461h-.348l24.022-29.461Z" transform="translate(-48.935 -233.958)" fill="#e0e4ee"/>
  <path id="Trazado_600278" data-name="Trazado 600278" d="M140.364,434.232l-24.022,29.461H116l24.02-29.461Z" transform="translate(-62.497 -233.958)" fill="#e0e4ee"/>
  <path id="Trazado_600279" data-name="Trazado 600279" d="M113.481,466.142H67.945l.282-.346h45.536Z" transform="translate(-36.608 -250.964)" fill="#e0e4ee"/>
  <path id="Trazado_600280" data-name="Trazado 600280" d="M99.857,482.85H54.324l.282-.345h45.536Z" transform="translate(-29.269 -259.967)" fill="#e0e4ee"/>
  <path id="Trazado_600281" data-name="Trazado 600281" d="M100.762,450.5l-.262-1.42,2.575-1.417.262,1.417Z" transform="translate(-54.148 -241.194)" fill="#e0e4ee"/>
  <path id="Trazado_600282" data-name="Trazado 600282" d="M126.637,450.5l-.264-1.42,2.577-1.417.262,1.417Z" transform="translate(-68.088 -241.194)" fill="#e0e4ee"/>
  <path id="Trazado_600283" data-name="Trazado 600283" d="M152.183,450.5l-.264-1.42,2.577-1.417.262,1.417Z" transform="translate(-81.852 -241.194)" fill="#e0e4ee"/>
  <path id="Trazado_600284" data-name="Trazado 600284" d="M88.176,465.932l-.262-1.419,2.575-1.42.262,1.42Z" transform="translate(-47.367 -249.508)" fill="#e0e4ee"/>
  <path id="Trazado_600285" data-name="Trazado 600285" d="M114.051,465.932l-.264-1.419,2.577-1.42.262,1.42Z" transform="translate(-61.307 -249.508)" fill="#e0e4ee"/>
  <path id="Trazado_600286" data-name="Trazado 600286" d="M139.594,465.932l-.262-1.419,2.577-1.42.262,1.42Z" transform="translate(-75.071 -249.508)" fill="#e0e4ee"/>
  <path id="Trazado_600287" data-name="Trazado 600287" d="M74.549,482.641l-.262-1.419,2.577-1.42.262,1.42Z" transform="translate(-40.025 -258.51)" fill="#e0e4ee"/>
  <path id="Trazado_600288" data-name="Trazado 600288" d="M100.427,482.641l-.262-1.419,2.577-1.42.262,1.42Z" transform="translate(-53.967 -258.51)" fill="#e0e4ee"/>
  <path id="Trazado_600289" data-name="Trazado 600289" d="M125.973,482.641l-.262-1.419,2.575-1.42.264,1.42Z" transform="translate(-67.731 -258.51)" fill="#e0e4ee"/>
  <path id="Trazado_600290" data-name="Trazado 600290" d="M1151.169,207.168c-.014,1.128-.051,2.27-.106,3.419a113.684,113.684,0,0,1-1.794,15.215l-71.239-.935s6.448-15.219,21.871-13.527c0,0,22.387-25.369,46.255-3.383,0,0,1.886-.4,5.013-.789Z" transform="translate(-580.827 -107.214)" fill="#f8fcff"/>
  <path id="Trazado_600291" data-name="Trazado 600291" d="M734.271,96.035S737.61,88,745.594,88.891c0,0,11.591-13.4,23.954-1.786,0,0,13.141-2.877,22.871,2.491,6.487,3.578,8.63,7.331,8.63,7.331l-66.778-.894Z" transform="translate(-395.615 -44.38)" fill="#f8fcff"/>
  <path id="Trazado_600292" data-name="Trazado 600292" d="M151.944,348s3.567-8.587,12.1-7.634c0,0,12.385-14.312,25.592-1.908,0,0,14.039-3.073,24.436,2.661,6.933,3.824,9.222,7.834,9.222,7.834Z" transform="translate(-81.865 -179.63)" fill="#f8fcff"/>
  <path id="Trazado_600293" data-name="Trazado 600293" d="M111.633,295.045s2.729-6.571,9.258-5.841c0,0,9.478-10.952,19.585-1.461,0,0,10.743-2.352,18.7,2.036,5.3,2.926,7.056,6,7.056,6l-54.6-.73Z" transform="translate(-60.145 -152.947)" fill="#f8fcff"/>
  <path id="Trazado_600294" data-name="Trazado 600294" d="M1236.3,667.664a85.889,85.889,0,0,1-1.743,10.636c-.018.078-.037.153-.06.232-18.831,6.822-38.239,15.872-55.521,27.826h-46.73C1139.021,702,1172.03,683.725,1236.3,667.664Z" transform="translate(-610.04 -359.728)" fill="#4ca220"/>
  <path id="Trazado_600295" data-name="Trazado 600295" d="M1129.7,644.47s35.859-3.143,45.6,0,14.62,17.765,13.228,28.442-4.64,19.728-10.908,19.5-50.6,0-50.6,0Z" transform="translate(-607.228 -346.479)" fill="#edbd77"/>
  <path id="Trazado_600296" data-name="Trazado 600296" d="M1148.69,642.573s7.592-1.413,12.753-1.936c0,0-4.063.833-4.566,1.258,0,0,11.028-1.663,15.049-1.258s9.533,1.087,9.533,1.087l6.13-.409s-5.106.618-4.834.7,4.99.657,6.5,1.624c0,0,4.681,1.469,5.687,2.359,0,0-3.754-1.895-5.221-1.778,0,0,8.5,5.9,8.523,11.516s-36.57-8.461-36.57-8.461l-12.983-4.7Z" transform="translate(-618.898 -345.132)" fill="#edbd77"/>
  <path id="Trazado_600297" data-name="Trazado 600297" d="M1111.957,645.459s-14.275-1.085-23.324,10.4-1.743,38.091,10.091,38.191,26.418-1.717,29.573-17.169S1124.838,645.848,1111.957,645.459Z" transform="translate(-584.355 -347.749)" fill="#fee132"/>
  <path id="Trazado_600298" data-name="Trazado 600298" d="M1080.57,686.418s5.106-5.88,5.645-7.5l.775,1.624Z" transform="translate(-582.195 -365.789)" fill="#fee132"/>
  <path id="Trazado_600299" data-name="Trazado 600299" d="M1088.56,669.584s.646-4.215,2.5-5.762c0,0-1.688,2.825-1.255,5.184s-1.25.58-1.25.58Z" transform="translate(-586.5 -357.658)" fill="#fee132"/>
  <path id="Trazado_600300" data-name="Trazado 600300" d="M1091.648,730.2c.092.226-2.749-7.717-1.817-9.226l.54,0s.369,7.015,1.278,9.221Z" transform="translate(-587.084 -388.452)" fill="#fee132"/>
  <path id="Trazado_600301" data-name="Trazado 600301" d="M1085.155,718.224s-2.131-.7-3.325,0a3.588,3.588,0,0,1,3.169.619C1086.2,720.014,1085.155,718.224,1085.155,718.224Z" transform="translate(-582.874 -386.802)" fill="#fee132"/>
  <path id="Trazado_600302" data-name="Trazado 600302" d="M1109.983,700.1a20.406,20.406,0,0,1-10.6-2.62c-3.648-2.231-6.028-5.828-7.075-10.691-1.794-8.28-.913-15.072,2.61-20.19,3.293-4.783,8.851-7.9,16.078-9.009a12.668,12.668,0,0,1,12.213,4.558c4.5,5.391,5.788,14.5,3.141,22.15-1.868,5.4-6.863,8.744-13.357,8.93-.189,0-.374.009-.558.009-6.54,0-12.439-3.344-14.464-8.259-2.066-5.011-1.96-9.912.3-13.8,2.292-3.948,6.628-6.519,12.2-7.233,5.041-.65,7.762,1.7,9.155,3.783,2.689,4.019,2.684,10.549.881,13.7-1.734,3.037-6.54,5.382-10.714,5.236a7.05,7.05,0,0,1-6.475-3.924,8.771,8.771,0,0,1,.268-8.83,6.567,6.567,0,0,1,5.521-3.125,3.718,3.718,0,0,1,3.436,3.669c.129,1.422-.36,3-1.527,3.276-2.172.507-2.943-.678-2.975-.73,0,0-1.172-1.936.291-2.213,1.67-.318,1.227.978,1.227.978.023.036-.41,1.788,1.319,1.383.715-.166,1.185-1.328,1.07-2.643a3.106,3.106,0,0,0-2.873-3.126,5.946,5.946,0,0,0-4.99,2.861,8.187,8.187,0,0,0-.231,8.241,6.473,6.473,0,0,0,5.959,3.587c3.971.137,8.537-2.072,10.179-4.936,1.518-2.655,1.923-8.912-.858-13.075-1.863-2.787-4.833-4.006-8.588-3.524-5.382.692-9.556,3.157-11.756,6.942-2.163,3.726-2.26,8.439-.268,13.275s7.938,8.07,14.455,7.882c6.235-.18,11.028-3.369,12.813-8.53,2.578-7.463,1.333-16.332-3.04-21.573a12.1,12.1,0,0,0-11.659-4.351c-7.061,1.085-12.48,4.113-15.681,8.757-3.422,4.977-4.271,11.612-2.518,19.726,1.015,4.7,3.3,8.166,6.8,10.309,7.075,4.328,18.232,1.708,18.329,1.683l-1.259.683a29.707,29.707,0,0,1-6.771.764Z" transform="translate(-588.031 -354.203)" fill="#edbd77"/>
  <path id="Trazado_600303" data-name="Trazado 600303" d="M1248.9,607.8s48.22-4.226,61.328,0,19.661,23.888,17.789,38.243-6.245,26.526-14.667,26.215-68.038,0-68.038,0Z" transform="translate(-670.955 -326.463)" fill="#edbd77"/>
  <path id="Trazado_600304" data-name="Trazado 600304" d="M1274.44,605.254s10.207-1.9,17.148-2.6c0,0-5.461,1.119-6.134,1.69,0,0,14.823-2.236,20.234-1.69s12.822,1.463,12.822,1.463l8.242-.552s-6.868.833-6.5.937,6.711.885,8.74,2.183c0,0,6.3,1.977,7.647,3.173,0,0-5.046-2.55-7.024-2.393,0,0,11.438,7.932,11.466,15.486s-49.175-11.378-49.175-11.378Z" transform="translate(-686.65 -324.654)" fill="#edbd77"/>
  <path id="Trazado_600305" data-name="Trazado 600305" d="M1225.036,609.13s-19.191-1.46-31.363,13.989-2.339,51.217,13.573,51.354,35.518-2.309,39.761-23.088S1242.354,609.653,1225.036,609.13Z" transform="translate(-640.198 -328.171)" fill="#fee132"/>
  <path id="Trazado_600306" data-name="Trazado 600306" d="M1182.83,664.212s6.868-7.907,7.6-10.09l1.038,2.183-8.634,7.907Z" transform="translate(-637.292 -352.432)" fill="#fee132"/>
  <path id="Trazado_600307" data-name="Trazado 600307" d="M1193.58,641.567s.872-5.668,3.367-7.75c0,0-2.269,3.8-1.683,6.969s-1.683.778-1.683.778Z" transform="translate(-643.084 -341.491)" fill="#fee132"/>
  <path id="Trazado_600308" data-name="Trazado 600308" d="M1197.73,723.08c.125.3-3.694-10.377-2.445-12.406l.724.007s.5,9.433,1.716,12.4Z" transform="translate(-643.867 -382.901)" fill="#fee132"/>
  <path id="Trazado_600309" data-name="Trazado 600309" d="M1189,706.977s-2.864-.937-4.474,0c0,0,2.647-.742,4.262.833S1189,706.977,1189,706.977Z" transform="translate(-638.208 -380.685)" fill="#fee132"/>
  <path id="Trazado_600310" data-name="Trazado 600310" d="M1222.389,682.609c-4.414,0-9.727-.748-14.261-3.523-4.9-3-8.1-7.836-9.515-14.376-2.407-11.132-1.227-20.264,3.51-27.148,4.428-6.433,11.9-10.623,21.622-12.115a17.026,17.026,0,0,1,16.419,6.13c6.047,7.249,7.781,19.5,4.225,29.784-2.514,7.267-9.234,11.758-17.964,12.01-.249.007-.5.012-.747.012-8.8,0-16.724-4.5-19.449-11.107-2.772-6.737-2.629-13.329.406-18.559,3.086-5.311,8.906-8.764,16.4-9.726,6.78-.874,10.442,2.286,12.314,5.086,3.616,5.4,3.607,14.184,1.181,18.424-2.334,4.083-8.8,7.236-14.408,7.04-4.049-.146-7.14-2.02-8.7-5.277-2.011-4.19-1.882-8.518.36-11.873a8.829,8.829,0,0,1,7.426-4.2c3.109.168,4.432,2.764,4.617,4.934.171,1.913-.484,4.04-2.052,4.406-2.92.68-3.953-.912-4-.98,0,0-1.577-2.6.383-2.978,2.251-.428,1.66,1.315,1.66,1.315.028.047-.558,2.406,1.771,1.861.959-.226,1.591-1.786,1.439-3.553-.171-1.938-1.273-4.06-3.865-4.2a7.992,7.992,0,0,0-6.711,3.849c-2.08,3.114-2.191,7.151-.3,11.08,1.831,3.814,5.364,4.727,8.007,4.822,5.341.182,11.484-2.786,13.684-6.637,2.039-3.569,2.587-11.985-1.153-17.581-2.509-3.746-6.5-5.386-11.544-4.736-7.236.93-12.849,4.245-15.81,9.335-2.906,5.009-3.035,11.348-.355,17.849s10.673,10.852,19.431,10.6c8.39-.241,14.828-4.529,17.231-11.469,3.468-10.033,1.79-21.961-4.086-29.006a16.268,16.268,0,0,0-15.681-5.851c-9.492,1.458-16.779,5.529-21.077,11.776-4.608,6.692-5.747,15.615-3.39,26.522,1.365,6.317,4.441,10.98,9.15,13.861,9.51,5.821,24.514,2.3,24.643,2.263l-1.7.917a39.908,39.908,0,0,1-9.1,1.028Z" transform="translate(-645.142 -336.851)" fill="#edbd77"/>
  <path id="Trazado_600311" data-name="Trazado 600311" d="M476.829,647.543S468.554,679.474,469.3,682s4.9,11.1,4.9,11.1h-4a3.015,3.015,0,0,1-1.551-2.771c.066-1.979-5.541-9.7-5.541-9.7s2.2-12.258,0-17.087c-9.474-20.794,6.394-20.6,13.725-16Z" transform="translate(-247.932 -347.529)" fill="#cca283"/>
  <path id="Trazado_600312" data-name="Trazado 600312" d="M576.885,674.442s-2.375,17.153-2.507,18.208-1.253,2.375-1.187,4.09.659,7.52,2.506,8.971a5.254,5.254,0,0,1,2.045,3.232h-5.013a6.7,6.7,0,0,1-.726-2.9c.132-1.187-1.385-2.441-1.451-4.881s0-6.992-.66-8.578-.462-12.469-2.638-14.91,9.631-3.233,9.631-3.233Z" transform="translate(-305.484 -363.379)" fill="#cca283"/>
  <path id="Trazado_600313" data-name="Trazado 600313" d="M466.022,638.691c-.054.791-.082,1.526-.082,2.263.137,18.57,18.515,13.006,19.168,12.515a3.927,3.927,0,0,1,1.99-.437c9.19,3.655,22.059.3,24.732-.792s9.79,1.608,13.088,1.362c1.335-.109,2.455-1.5,3.3-3.243a24.62,24.62,0,0,0,1.99-6.79,43.036,43.036,0,0,1,2.045-5.971c.464-1.146.982-2.4,1.526-3.68.109-.219.191-.464.3-.683-.273-.3-.519-.628-.764-.955a40.024,40.024,0,0,1-3.571-6.38,32.081,32.081,0,0,0-4.2-6.9c-2.7-.846-5.916.682-7.254.6a37.031,37.031,0,0,1-4.472-.546c-.573-.109-1.089-.191-1.581-.273-2.728-.409-19.25,1.718-30.921,2.045-2.4.082-4.581.055-6.408-.054-.137,0-.273-.027-.41-.027-4.881-.273-7.472.027-8.835.464-1.5.464-1.526,1.037-1.526,1.037C459.479,626.8,466.022,638.691,466.022,638.691Z" transform="translate(-249.17 -333.363)" fill="#efcdaf"/>
  <path id="Trazado_600314" data-name="Trazado 600314" d="M589.914,674.442s-2.375,17.153-2.507,18.208-1.254,2.375-1.188,4.09.66,7.52,2.507,8.971a5.254,5.254,0,0,1,2.045,3.232h-5.013a6.7,6.7,0,0,1-.725-2.9c.132-1.187-1.385-2.441-1.451-4.881s0-6.992-.66-8.578-.462-12.469-2.639-14.91,9.631-3.233,9.631-3.233Z" transform="translate(-312.504 -363.379)" fill="#efcdaf"/>
  <path id="Trazado_600315" data-name="Trazado 600315" d="M488.267,664.389s-6.678,24.787-5.937,27.311,4.9,11.1,4.9,11.1h-4a3.015,3.015,0,0,1-1.551-2.771c.066-1.979-5.541-9.7-5.541-9.7s-.452-13.991-3.751-18.149S480.936,659.789,488.267,664.389Z" transform="translate(-254.209 -357.232)" fill="#efcdaf"/>
  <path id="Trazado_600316" data-name="Trazado 600316" d="M654.116,677.12c.271.364.507.621.507.621a10.535,10.535,0,0,0,1.187.059,3.242,3.242,0,0,0,1.6-.434,2,2,0,0,0,.783-.933s-.227-.585-1.415-.739c-.875-.114-1.736-.721-2.468-.8a1.05,1.05,0,0,0-.737.175C653.022,675.46,653.622,676.461,654.116,677.12Z" transform="translate(-352.017 -363.621)" fill="#efcdaf"/>
  <path id="Trazado_600317" data-name="Trazado 600317" d="M656.262,681.411c.034-.016.451.064,1,.061a2.586,2.586,0,0,0,2.577-1.369s-.227-.584-1.415-.739a1.16,1.16,0,0,1-.125-.02c-.764-.136-1.517-.617-2.175-.751a1.121,1.121,0,0,0-.907.146.5.5,0,0,0-.214.362c-.109.819,1.262,2.313,1.262,2.313Z" transform="translate(-352.901 -365.597)" fill="#efcdaf"/>
  <path id="Trazado_600318" data-name="Trazado 600318" d="M598.706,624.453c.328,8.507,1.909,24.787,2.891,26.233a38.159,38.159,0,0,1,5.916.655c4.909,1.008,6.271,2.861,6.735,3.735.874,1.745,4.963,5.727,5.673,5.864.737.136,1.172,1.089,1.936,2.646.737,1.526,2.209,1.663,3.435,1.744a2.718,2.718,0,0,0,2.263-1.771,10.94,10.94,0,0,1-.518-3.055c.082-1.526-.9-6.08-.082-7.308.519-.791.219-2.481-.054-3.628-.164-.683-.328-1.144-.328-1.144a3.094,3.094,0,0,0-.246-.546c-.164-.355-.355-.764-.573-1.2-.245-.519-.573-1.092-.928-1.718a70.829,70.829,0,0,0-6.571-9.6,65,65,0,0,0-10.634-10.579,47.394,47.394,0,0,0-8.7-5.454c-.273.109-.328,2.154-.219,5.127Z" transform="translate(-322.544 -333.685)" fill="#efcdaf"/>
  <path id="Trazado_600319" data-name="Trazado 600319" d="M549.321,648.12c-.172-.439-.084-7.9-5.47-9.437s-8.336.826-15.06-1.888-13.8-4.954-14.51-2.006.589,11.207,0,14.981,12.176,5.111,17.412,2.791,19.523.393,17.628-4.442Z" transform="translate(-276.97 -341.264)" fill="#304c8e"/>
  <path id="Trazado_600320" data-name="Trazado 600320" d="M461.177,626.385a13.524,13.524,0,0,0-4.078,8.287c-.589,5.309,1.062,28.63,1.062,28.63l1.347-.075,1.445-25.8Z" transform="translate(-246.21 -337.487)" fill="#304c8e"/>
  <path id="Trazado_600321" data-name="Trazado 600321" d="M460.98,708.208s-2.909-3.132-1.1-3.839,1.1,1.415,1.1,2.24v1.6Z" transform="translate(-247.457 -379.427)" fill="#304c8e"/>
  <path id="Trazado_600322" data-name="Trazado 600322" d="M469.409,621.216c3.38,1.663,7.117,3.191,9.326,3.246,4.827.082,16.553-2.7,21.325-3s24.1,4.172,28.658,2.727a.75.75,0,0,1,.355-.054c1.01-.082,2.536.628,4.417,1.772,1.063.682,2.236,1.5,3.462,2.427,7.936,6,18.242,16.307,18.242,16.307a70.834,70.834,0,0,0-6.571-9.6,65.023,65.023,0,0,0-10.634-10.579,47.4,47.4,0,0,0-8.7-5.454c-2.7-.846-5.916.682-7.253.6a37.117,37.117,0,0,1-4.472-.546c-.573-.109-1.089-.191-1.581-.273-2.727-.409-19.25,1.718-30.921,2.045-2.4.082-4.581.054-6.408-.054-.136,0-.273-.028-.409-.028-4.881-.273-7.472.028-8.835.464Z" transform="translate(-252.911 -333.366)" fill="#ffe7d7"/>
  <path id="Trazado_600323" data-name="Trazado 600323" d="M503.354,620.846c2.111,1.722,6.16,2.408,11.88,1.342,6.961-1.3,8.612,1.77,14.392,2.006a5.755,5.755,0,0,0,6.223-5.122c-.562-.093-1.094-.184-1.588-.259C531.553,618.4,515.014,620.512,503.354,620.846Z" transform="translate(-271.2 -333.379)" fill="#304c8e"/>
  <path id="Trazado_600324" data-name="Trazado 600324" d="M615.835,638.968a12.274,12.274,0,0,0,.464,1.635,13.6,13.6,0,0,0,.9,1.772c3.082,4.909.164,10.8-.546,15.324,4.909,1.008,6.271,2.861,6.735,3.735.874,1.745,4.964,5.727,5.673,5.864.737.137,1.172,1.089,1.936,2.646.737,1.526,2.209,1.663,3.435,1.744a2.718,2.718,0,0,0,2.263-1.771,10.953,10.953,0,0,1-.518-3.055c.082-1.526-.9-6.08-.082-7.308.519-.791.219-2.481-.054-3.628a2.617,2.617,0,0,0,2.591-1.362s-.245-.6-1.417-.764h-.136a2.148,2.148,0,0,0,.791-.953s-.245-.573-1.417-.737c-.874-.109-1.745-.709-2.482-.791a70.831,70.831,0,0,0-6.571-9.6,65,65,0,0,0-10.634-10.579,16.275,16.275,0,0,0-1.037,3.871,12.082,12.082,0,0,0,.109,3.954Z" transform="translate(-331.685 -340.049)" fill="#304c8e"/>
  <path id="Trazado_600325" data-name="Trazado 600325" d="M466.017,640.914c-.053.792-.073,1.544-.068,2.261,5.987,4.44,16.488,2.2,17.278-3.144.907-6.153-7.363-7.024-6.756-12.094a5.924,5.924,0,0,0-1.968-4.961c-10.27-.609-10.365,1.51-10.365,1.51-4.65,4.552,1.881,16.427,1.881,16.427Z" transform="translate(-249.171 -335.591)" fill="#304c8e"/>
  <path id="Trazado_600326" data-name="Trazado 600326" d="M338.908,155.566H550.5a13.57,13.57,0,0,1,13.563,13.563V300.748A13.57,13.57,0,0,1,550.5,314.311H338.908a13.568,13.568,0,0,1-13.562-13.561V169.129a13.57,13.57,0,0,1,13.564-13.563Z" transform="translate(-175.292 -83.817)" fill="#f8fcff" opacity="0.6"/>
  <path id="Trazado_600327" data-name="Trazado 600327" d="M434.564,227.508a34.325,34.325,0,1,1-28.03-33.765c-4.287,15.625-9.976,36.316-10.358,37.607.708-1.115,21.6-10.479,35.862-16.789a34.152,34.152,0,0,1,2.529,12.95Z" transform="translate(-197.126 -104.072)" fill="#7fa4f4"/>
  <path id="Trazado_600328" data-name="Trazado 600328" d="M473.6,207.642c-12.6,5.55-33.464,14.853-34.13,15.906.362-1.226,6.135-22.209,10-36.271A37.727,37.727,0,0,1,473.6,207.644Z" transform="translate(-236.779 -100.902)" fill="#641493"/>
  <path id="Trazado_600329" data-name="Trazado 600329" d="M694.289,174.774a2.855,2.855,0,1,1,2.854,2.855A2.855,2.855,0,0,1,694.289,174.774Z" transform="translate(-374.073 -92.628)" fill="#e0e4ee"/>
  <path id="Trazado_600330" data-name="Trazado 600330" d="M726.41,174.774a2.854,2.854,0,1,1,2.854,2.855A2.855,2.855,0,0,1,726.41,174.774Z" transform="translate(-391.379 -92.628)" fill="#e0e4ee"/>
  <path id="Trazado_600331" data-name="Trazado 600331" d="M764.435,176.792a2.855,2.855,0,1,0-4.037,0A2.855,2.855,0,0,0,764.435,176.792Z" transform="translate(-409.241 -92.628)" fill="#641493"/>
  <path id="Trazado_600332" data-name="Trazado 600332" d="M424.664,449.414H358.2V428.265h66.462Zm-65.646-.817h64.831V429.081H359.018Z" transform="translate(-192.994 -230.743)" fill="#e0e4ee"/>
  <path id="Trazado_600333" data-name="Trazado 600333" d="M394.355,440.589H368.647v1.677h25.708Z" transform="translate(-198.622 -237.383)" fill="#e0e4ee"/>
  <path id="Trazado_600334" data-name="Trazado 600334" d="M448.5,440.589H430.255v1.677H448.5Z" transform="translate(-231.815 -237.383)" fill="#e0e4ee"/>
  <path id="Trazado_600335" data-name="Trazado 600335" d="M382.834,450.971H368.647v1.676h14.187Z" transform="translate(-198.622 -242.977)" fill="#e0e4ee"/>
  <path id="Trazado_600336" data-name="Trazado 600336" d="M422.852,450.971H404.61v1.676h18.242Z" transform="translate(-217.998 -242.977)" fill="#e0e4ee"/>
  <path id="Trazado_600337" data-name="Trazado 600337" d="M466.5,450.971H448.256v1.676H466.5Z" transform="translate(-241.514 -242.977)" fill="#e0e4ee"/>
  <path id="Trazado_600338" data-name="Trazado 600338" d="M644.764,438.74h-32.9V428.27h32.9Zm-32.5-.4h32.1v-9.662h-32.1Z" transform="translate(-329.661 -230.746)" fill="#e0e4ee"/>
  <path id="Trazado_600339" data-name="Trazado 600339" d="M629.754,434.371H617.028v.83h12.726Z" transform="translate(-332.446 -234.033)" fill="#e0e4ee"/>
  <path id="Trazado_600340" data-name="Trazado 600340" d="M656.561,434.371h-9.03v.83h9.03Z" transform="translate(-348.88 -234.033)" fill="#e0e4ee"/>
  <path id="Trazado_600341" data-name="Trazado 600341" d="M624.052,439.509h-7.024v.83h7.024Z" transform="translate(-332.446 -236.801)" fill="#e0e4ee"/>
  <path id="Trazado_600342" data-name="Trazado 600342" d="M643.867,439.509h-9.031v.83h9.031Z" transform="translate(-342.04 -236.801)" fill="#e0e4ee"/>
  <path id="Trazado_600343" data-name="Trazado 600343" d="M665.473,439.509h-9.031v.83h9.031Z" transform="translate(-353.681 -236.801)" fill="#e0e4ee"/>
  <path id="Trazado_600344" data-name="Trazado 600344" d="M729.832,438.74h-32.9V428.27h32.9Zm-32.5-.4h32.1v-9.662h-32.1Z" transform="translate(-375.495 -230.746)" fill="#e0e4ee"/>
  <path id="Trazado_600345" data-name="Trazado 600345" d="M714.825,434.371H702.1v.83h12.729Z" transform="translate(-378.279 -234.033)" fill="#e0e4ee"/>
  <path id="Trazado_600346" data-name="Trazado 600346" d="M741.63,434.371H732.6v.83h9.03Z" transform="translate(-394.714 -234.033)" fill="#e0e4ee"/>
  <path id="Trazado_600347" data-name="Trazado 600347" d="M709.12,439.509H702.1v.83h7.024Z" transform="translate(-378.279 -236.801)" fill="#e0e4ee"/>
  <path id="Trazado_600348" data-name="Trazado 600348" d="M728.935,439.509h-9.03v.83h9.03Z" transform="translate(-387.874 -236.801)" fill="#e0e4ee"/>
  <path id="Trazado_600349" data-name="Trazado 600349" d="M750.541,439.509h-9.03v.83h9.03Z" transform="translate(-399.515 -236.801)" fill="#e0e4ee"/>
  <path id="Trazado_600350" data-name="Trazado 600350" d="M644.764,337.771h-32.9V327.3h32.9Zm-32.5-.4h32.1v-9.662h-32.1Z" transform="translate(-329.661 -176.345)" fill="#e0e4ee"/>
  <path id="Trazado_600351" data-name="Trazado 600351" d="M629.754,333.4H617.028v.83h12.726Z" transform="translate(-332.446 -179.632)" fill="#e0e4ee"/>
  <path id="Trazado_600352" data-name="Trazado 600352" d="M656.561,333.4h-9.03v.83h9.03Z" transform="translate(-348.88 -179.632)" fill="#e0e4ee"/>
  <path id="Trazado_600353" data-name="Trazado 600353" d="M624.052,338.536h-7.024v.83h7.024Z" transform="translate(-332.446 -182.398)" fill="#e0e4ee"/>
  <path id="Trazado_600354" data-name="Trazado 600354" d="M643.867,338.536h-9.031v.83h9.031Z" transform="translate(-342.04 -182.398)" fill="#e0e4ee"/>
  <path id="Trazado_600355" data-name="Trazado 600355" d="M665.473,338.536h-9.031v.83h9.031Z" transform="translate(-353.681 -182.398)" fill="#e0e4ee"/>
  <path id="Trazado_600356" data-name="Trazado 600356" d="M729.832,337.771h-32.9V327.3h32.9Zm-32.5-.4h32.1v-9.662h-32.1Z" transform="translate(-375.495 -176.345)" fill="#e0e4ee"/>
  <path id="Trazado_600357" data-name="Trazado 600357" d="M714.825,333.4H702.1v.83h12.729Z" transform="translate(-378.279 -179.632)" fill="#e0e4ee"/>
  <path id="Trazado_600358" data-name="Trazado 600358" d="M741.63,333.4H732.6v.83h9.03Z" transform="translate(-394.714 -179.632)" fill="#e0e4ee"/>
  <path id="Trazado_600359" data-name="Trazado 600359" d="M709.12,338.536H702.1v.83h7.024Z" transform="translate(-378.279 -182.398)" fill="#e0e4ee"/>
  <path id="Trazado_600360" data-name="Trazado 600360" d="M728.935,338.536h-9.03v.83h9.03Z" transform="translate(-387.874 -182.398)" fill="#e0e4ee"/>
  <path id="Trazado_600361" data-name="Trazado 600361" d="M750.541,338.536h-9.03v.83h9.03Z" transform="translate(-399.515 -182.398)" fill="#e0e4ee"/>
  <path id="Trazado_600362" data-name="Trazado 600362" d="M644.764,249.876h-32.9v-10.47h32.9Zm-32.5-.4h32.1v-9.662h-32.1Z" transform="translate(-329.661 -128.989)" fill="#e0e4ee"/>
  <path id="Trazado_600363" data-name="Trazado 600363" d="M629.754,245.507H617.028v.83h12.726Z" transform="translate(-332.446 -132.276)" fill="#e0e4ee"/>
  <path id="Trazado_600364" data-name="Trazado 600364" d="M656.561,245.507h-9.03v.83h9.03Z" transform="translate(-348.88 -132.276)" fill="#e0e4ee"/>
  <path id="Trazado_600365" data-name="Trazado 600365" d="M624.052,250.646h-7.024v.83h7.024Z" transform="translate(-332.446 -135.044)" fill="#e0e4ee"/>
  <path id="Trazado_600366" data-name="Trazado 600366" d="M643.867,250.646h-9.031v.83h9.031Z" transform="translate(-342.04 -135.044)" fill="#e0e4ee"/>
  <path id="Trazado_600367" data-name="Trazado 600367" d="M665.473,250.646h-9.031v.83h9.031Z" transform="translate(-353.681 -135.044)" fill="#e0e4ee"/>
  <path id="Trazado_600368" data-name="Trazado 600368" d="M729.832,249.876h-32.9v-10.47h32.9Zm-32.5-.4h32.1v-9.662h-32.1Z" transform="translate(-375.495 -128.989)" fill="#e0e4ee"/>
  <path id="Trazado_600369" data-name="Trazado 600369" d="M714.825,245.507H702.1v.83h12.729Z" transform="translate(-378.279 -132.276)" fill="#e0e4ee"/>
  <path id="Trazado_600370" data-name="Trazado 600370" d="M741.63,245.507H732.6v.83h9.03Z" transform="translate(-394.714 -132.276)" fill="#e0e4ee"/>
  <path id="Trazado_600371" data-name="Trazado 600371" d="M709.12,250.646H702.1v.83h7.024Z" transform="translate(-378.279 -135.044)" fill="#e0e4ee"/>
  <path id="Trazado_600372" data-name="Trazado 600372" d="M728.935,250.646h-9.03v.83h9.03Z" transform="translate(-387.874 -135.044)" fill="#e0e4ee"/>
  <path id="Trazado_600373" data-name="Trazado 600373" d="M750.541,250.646h-9.03v.83h9.03Z" transform="translate(-399.515 -135.044)" fill="#e0e4ee"/>
  <path id="Trazado_600374" data-name="Trazado 600374" d="M564.864,220.878a3.722,3.722,0,1,1,3.723,3.721A3.724,3.724,0,0,1,564.864,220.878Z" transform="translate(-304.341 -116.999)" fill="#641493"/>
  <path id="Trazado_600375" data-name="Trazado 600375" d="M572.383,195.774h-.364a.6.6,0,0,0-.6.6v6.949a.6.6,0,0,0,.6.6h.364a.6.6,0,0,0,.6-.6V196.37A.6.6,0,0,0,572.383,195.774Z" transform="translate(-307.874 -105.48)" fill="#641493"/>
  <path id="Trazado_600376" data-name="Trazado 600376" d="M572.383,237.552h-.364a.6.6,0,0,0-.6.6V245.1a.6.6,0,0,0,.6.6h.364a.6.6,0,0,0,.6-.6v-6.949A.6.6,0,0,0,572.383,237.552Z" transform="translate(-307.874 -127.99)" fill="#641493"/>
  <path id="Trazado_600377" data-name="Trazado 600377" d="M582.489,232.288l.214-.293a.6.6,0,0,1,.835-.13l5.612,4.094a.6.6,0,0,1,.13.835l-.214.293a.6.6,0,0,1-.835.13l-5.612-4.094A.6.6,0,0,1,582.489,232.288Z" transform="translate(-313.775 -124.864)" fill="#641493"/>
  <path id="Trazado_600378" data-name="Trazado 600378" d="M548.741,207.664l.214-.294a.6.6,0,0,1,.835-.13l5.612,4.095a.6.6,0,0,1,.13.835l-.214.293a.6.6,0,0,1-.835.13l-5.612-4.094A.6.6,0,0,1,548.741,207.664Z" transform="translate(-295.592 -111.596)" fill="#641493"/>
  <path id="Trazado_600379" data-name="Trazado 600379" d="M556.407,233l.241.271a.6.6,0,0,1-.047.844l-5.179,4.629a.6.6,0,0,1-.844-.048l-.241-.271a.6.6,0,0,1,.048-.842l5.179-4.629a.6.6,0,0,1,.842.048Z" transform="translate(-296.432 -125.432)" fill="#641493"/>
  <path id="Trazado_600380" data-name="Trazado 600380" d="M587.558,205.162l.241.27a.6.6,0,0,1-.048.844l-5.179,4.629a.6.6,0,0,1-.842-.048l-.241-.271a.6.6,0,0,1,.048-.842l5.179-4.629a.6.6,0,0,1,.841.048Z" transform="translate(-313.217 -110.432)" fill="#641493"/>
  <path id="Trazado_600381" data-name="Trazado 600381" d="M551.184,223.9l0,.362a.6.6,0,0,1-.6.589l-6.947-.077a.6.6,0,0,1-.589-.6l0-.362a.6.6,0,0,1,.6-.589l6.947.077A.6.6,0,0,1,551.184,223.9Z" transform="translate(-292.583 -120.268)" fill="#641493"/>
  <path id="Trazado_600382" data-name="Trazado 600382" d="M584.837,224.655l0-.362a.6.6,0,0,1,.6-.589l6.946.078a.6.6,0,0,1,.589.6l0,.362a.6.6,0,0,1-.6.589l-6.946-.079A.6.6,0,0,1,584.837,224.655Z" transform="translate(-315.102 -120.528)" fill="#641493"/>
  <path id="Trazado_600383" data-name="Trazado 600383" d="M686.041,223.373H611.859v-6.017h74.182Zm-73.479-.705h72.774v-4.608H612.562Z" transform="translate(-329.661 -117.108)" fill="#e0e4ee"/>
  <path id="Trazado_600384" data-name="Trazado 600384" d="M670.205,218.121H612.623v5.311h57.582Z" transform="translate(-330.072 -117.52)" fill="#e0e4ee"/>
  <path id="Trazado_600385" data-name="Trazado 600385" d="M561.954,299.263c0-4.861,7.456-14.025,7.456-14.025s7.456,9.164,7.456,14.025-3.337,8.8-7.456,8.8S561.954,304.126,561.954,299.263Z" transform="translate(-302.773 -153.682)" fill="#e0e4ee"/>
  <path id="Trazado_600386" data-name="Trazado 600386" d="M686.041,309.477H611.859V303.46h74.182Zm-73.479-.7h72.774v-4.608H612.562Z" transform="translate(-329.661 -163.5)" fill="#641493"/>
  <path id="Trazado_600387" data-name="Trazado 600387" d="M647.811,304.225H612.623v5.311h35.188Z" transform="translate(-330.072 -163.912)" fill="#641493"/>
  <path id="Trazado_600388" data-name="Trazado 600388" d="M577.379,396.845V377.383h-4.2v19.462a4.431,4.431,0,1,0,4.2,0Z" transform="translate(-307.564 -203.329)" fill="#e0e4ee"/>
  <path id="Trazado_600389" data-name="Trazado 600389" d="M686.041,407.014H611.859V401h74.182Zm-73.479-.7h72.774V401.7H612.562Z" transform="translate(-329.661 -216.051)" fill="#e0e4ee"/>
  <path id="Trazado_600390" data-name="Trazado 600390" d="M660.9,401.761H612.624v5.311H660.9Z" transform="translate(-330.073 -216.463)" fill="#e0e4ee"/>
  <path id="Trazado_600391" data-name="Trazado 600391" d="M574.225,424.645a2.875,2.875,0,1,1,2.875,2.875A2.875,2.875,0,0,1,574.225,424.645Z" transform="translate(-309.384 -227.244)" fill="#641493"/>
  <path id="Trazado_600392" data-name="Trazado 600392" d="M580.178,405.677h-1.712v9.005h1.712Z" transform="translate(-311.669 -218.573)" fill="#641493"/>
  <path id="Trazado_600393" data-name="Trazado 600393" d="M366.02,393.377h-6.931v9.638h6.931Z" transform="translate(-193.472 -211.946)" fill="#e0e4ee"/>
  <path id="Trazado_600394" data-name="Trazado 600394" d="M391.764,379.524h-6.931v16.024h6.931Z" transform="translate(-207.342 -204.482)" fill="#e0e4ee"/>
  <path id="Trazado_600395" data-name="Trazado 600395" d="M417.508,368.176h-6.931v21.258h6.931Z" transform="translate(-221.213 -198.368)" fill="#641493"/>
  <path id="Trazado_600396" data-name="Trazado 600396" d="M443.252,377.388h-6.931V394.4h6.931Z" transform="translate(-235.083 -203.331)" fill="#e0e4ee"/>
  <path id="Trazado_600397" data-name="Trazado 600397" d="M469,357.755h-6.931V383.82H469Z" transform="translate(-248.954 -192.753)" fill="#e0e4ee"/>
  <path id="Trazado_600398" data-name="Trazado 600398" d="M494.741,347.674H487.81v30.714h6.931Z" transform="translate(-262.825 -187.322)" fill="#641493"/>
  <path id="Trazado_600399" data-name="Trazado 600399" d="M419.236,300.551H404.61v1.342h14.626Z" transform="translate(-217.998 -161.933)" fill="#fff"/>
  <path id="Trazado_600400" data-name="Trazado 600400" d="M427.022,307.214H404.61v1.342h22.412Z" transform="translate(-217.998 -165.522)" fill="#fff"/>
  <path id="Trazado_600401" data-name="Trazado 600401" d="M475.522,212.572H460.9v1.342h14.626Z" transform="translate(-248.324 -114.531)" fill="#fff"/>
  <path id="Trazado_600402" data-name="Trazado 600402" d="M470.052,219.235H460.9v1.342h9.156Z" transform="translate(-248.324 -118.121)" fill="#fff"/>
  <path id="Trazado_600403" data-name="Trazado 600403" d="M1060.621,276.888s27.733,31.524,37.414,50.981c0,0-11.636,25.335-49.359,45.915a13.074,13.074,0,0,1-4.234-2.195c-3.99-2.85.434-4.938,1.305-5.5,9.57-6.2,26.289-32.9,26.773-35.218s-20.958-23.1-27.47-30.78,5.438-27.159,15.571-23.2Z" transform="translate(-561.845 -148.899)" fill="#ffb27d"/>
  <path id="Trazado_600404" data-name="Trazado 600404" d="M820.716,275.566s-36.3,34.561-44.7,33.647-41.23-8.846-41.23-8.846l-2.739,6.289S765,326,780.824,325.722s36.535-15.352,36.535-15.352Z" transform="translate(-394.419 -148.471)" fill="#ffb27d"/>
  <path id="Trazado_600405" data-name="Trazado 600405" d="M957.74,176.989s.179,3.888-2.15,4.647,2.4,9.146,2.029,14.812-2.877,7.938-2.877,7.938,1.2-3.116.53-5.043c0,0,.107,4.008-2.819,6.03s-2.14,3.769-2.14,3.769-6.614-1.981-6.8-6.94a13.054,13.054,0,0,0-.054,3.171s-5.712-4.287-5.982-9.228,4.495-9.11,6.667-9.185,7.017-4.34,6.888-5.95,6.71-4.017,6.71-4.017Z" transform="translate(-505.094 -95.359)" fill="#2c3a64"/>
  <path id="Trazado_600406" data-name="Trazado 600406" d="M940.761,113.4c3.848-5.844,19.127-2.573,34.127,7.306s24.039,22.623,20.187,28.467-19.127,2.573-34.125-7.306S936.912,119.245,940.761,113.4Z" transform="translate(-506.391 -59.537)" fill="#e2af64"/>
  <path id="Trazado_600407" data-name="Trazado 600407" d="M946.473,533.231c-4.16,22.046-9.516,52.039-13.649,75.5-.489,2.771-.962,5.447-1.413,8.009-.1.591-.2,1.18-.307,1.758H889.787c-.059-.589-.114-1.176-.166-1.758a307.5,307.5,0,0,1-.443-52.317c.443-5.686,1.028-10.929,1.676-15.686,2.718-28.082,3.633-39.983,3.908-43.918l.059-.867c0-.052.007-.1.009-.146l.009-.132c.007-.079.011-.15.013-.211l.009-.173a.684.684,0,0,1,.007-.084l14.085,4.19,6.89,2.049,1.624,5.159,3.248,10.317,23.58,7.609,2.182.7Z" transform="translate(-478.589 -271.121)" fill="#233862"/>
  <path id="Trazado_600408" data-name="Trazado 600408" d="M985.409,530.368c-.71,11.455-1.886,51.845-3.2,77.958-.028.6-.06,1.181-.088,1.759H939.288q-.2-.874-.4-1.759c-4.547-20.449-8.271-43.411-10.939-62.047-.469.02-5.359-33.284-17.615-47.967-.112-.132-.125-.237-.06-.316.607-.78,8.384.569,8.384.569a17.387,17.387,0,0,0,2.12.416c5.882.808,14.421-.493,22.894-2.468h0c2.29-.535,4.57-1.117,6.8-1.722,6.272-1.7,12.083-3.573,16.225-4.981,1.029-.348,1.951-.671,2.758-.953.65-.23,1.222-.434,1.7-.607h0c1.153-.416,1.8-.66,1.8-.66s.291.255.784.783a41.738,41.738,0,0,1,8.413,14.8c2.315,6.676,3.966,15.647,3.242,27.191Z" transform="translate(-490.424 -262.706)" fill="#304c8e"/>
  <path id="Trazado_600409" data-name="Trazado 600409" d="M960.106,101.184l26.964,40.907s3.081-6.039,6.5-3.874c5.341,3.376,16.816-8.177,14.422-24.486-.157-1.067-.346-2.079-.553-3.044-5.378-7.749-11.35-16.38-15.64-22.446-12.379-7.479-31.7,12.943-31.7,12.943Z" transform="translate(-517.29 -46.656)" fill="#2c3a64"/>
  <path id="Trazado_600410" data-name="Trazado 600410" d="M934.414,244.388a46.02,46.02,0,0,0,15.024,8.955c23.809,9.023,36.054-10.472,41.533-24.252a21.338,21.338,0,0,0-7.979-3.692c-1.4-.362-2.864-.685-4.183-.946a2.668,2.668,0,0,1-1.7-1.126c-2.269-3.428-4.566-12.11-3.74-24.318l-1.2.152-20.1,2.668s.05,6.278-.307,12.158a60.471,60.471,0,0,1-.732,6.833,4.047,4.047,0,0,1-3.589,3.289s0,.007-.012.016a125.9,125.9,0,0,0-13.015,20.26Z" transform="translate(-503.449 -107.224)" fill="#ffb27d"/>
  <path id="Trazado_600411" data-name="Trazado 600411" d="M972.335,202.018s.054,6.273-.307,12.158c11.125.393,17.638-9.363,20.4-14.826l-20.093,2.666Z" transform="translate(-523.715 -107.407)" fill="#ed985f"/>
  <path id="Trazado_600412" data-name="Trazado 600412" d="M955.723,165.515s26.245,2.106,27.306-14.259,5.161-27.116-11.552-29.152-20.376,4-22.059,9.374S948.922,164.546,955.723,165.515Z" transform="translate(-511.165 -65.57)" fill="#ffb27d"/>
  <path id="Trazado_600413" data-name="Trazado 600413" d="M949.034,118.665c4.374-4.665,7.374-3.389,9-1.8,14.865-6.98,23.375,5.282,23.375,5.282a31.327,31.327,0,0,0,9.049,19.121s-4.977,2.654-15.833-.89c-3.316-1.082-6.177-3.671-8.552-6.74A61.457,61.457,0,0,0,975.8,147.2c-12.8-6.935-16.927-25.614-17.332-27.587-1.7,1.338-5.056,4.265-6.216,7.272-1.574,4.085-2.711,12.626-5.193,12.176,0,0-4.59-13.4,1.972-20.392Z" transform="translate(-509.421 -61.808)" fill="#2c3a64"/>
  <path id="Trazado_600414" data-name="Trazado 600414" d="M1014.017,116.921s12.2-24.3-4.852-33.9-29.544-5.832-38.927,5.914Z" transform="translate(-522.75 -41.792)" fill="#eacd21"/>
  <path id="Trazado_600415" data-name="Trazado 600415" d="M960.856,302.1c.932.974,1.517,1.522,1.517,1.522,19.883-2.475,20.815-22.892,20.815-22.892s-15.561-20.522-30.09-25.037a76.453,76.453,0,0,0-8.841-1.918c-4.548,3.769-9.782,9.294-14.709,13.787-5.678,5.179-15.452,6.938-19.066-2.247-1.449-3.68,2.033-11.316,2.391-11.867l.011-.018c-.373.025-.737.052-1.092.075-1.781.143-3.384.36-4.843.507-7.09.712-16.884,5.411-36.673,30.46,0,0,10.693,13.206,21.557,13.975-.437,20.922,1.81,55,1.81,55-4.745,9.333,65.751,30.948,68.795,22.046,4.566-6.962.009-20.294-3.934-30.514-.969-2.5-1.181-5.152-2.039-7.083a23.2,23.2,0,0,1-1.314-3.814,22.6,22.6,0,0,1-.226-10.02,215.078,215.078,0,0,1,5.931-21.962Z" transform="translate(-468.892 -136.543)" fill="#641493"/>
  <path id="Trazado_600416" data-name="Trazado 600416" d="M985.078,119.587c-.517-.528-1.042-1.058-1.587-1.593h0a117.026,117.026,0,0,0-19.675-15.21,122.183,122.183,0,0,0-18.164-9.394h0q-1.72-.71-3.391-1.317c-13.282-4.859-23.986-5.227-27.225-.034-3.419,5.477,2.366,15.677,13.7,26.021h0c-.009-.089-.02-.175-.03-.264s-.014-.179-.023-.271-.018-.207-.028-.314c-.006-.077-.011-.153-.018-.232-.007-.13-.014-.257-.023-.389-.009-.164-.018-.327-.023-.5,0-.018,0-.039,0-.059-.006-.12-.009-.244-.011-.366v-.114c0-.079,0-.159,0-.241,0-.287,0-.58.007-.871,0-.1,0-.209.009-.312,0-.059.007-.118.007-.175.007-.1.009-.193.018-.286.009-.18.02-.355.036-.53s.032-.353.05-.53c0-.009,0-.021,0-.03.007-.064.014-.13.02-.191.007-.041.009-.082.014-.12.018-.123.032-.246.05-.369.028-.2.059-.4.1-.6.007-.032.011-.068.018-.1.041-.237.089-.473.143-.708.023-.118.052-.234.082-.348,0-.014.007-.03.009-.043-1.21-2.55-1.431-4.756-.444-6.339,1.144-1.836,3.746-2.577,7.279-2.345h.007c.1.007.193.014.293.023h0a28.437,28.437,0,0,1,4.251.682h0c.357.082.719.171,1.088.266,1.338.353,2.741.79,4.194,1.313h.018a74.889,74.889,0,0,1,13.934,6.9c2,1.247,3.888,2.541,5.654,3.858h0c.171.132.351.264.521.4,8.173,6.2,13.569,12.856,14.187,17.455a4.682,4.682,0,0,1-.558,3.187c-.046.071-.092.138-.143.2a.141.141,0,0,0-.018.03,4.273,4.273,0,0,1-1.425,1.224l0,0a2.493,2.493,0,0,1-.24.125s0,0,0,0a7.487,7.487,0,0,1-2.08.632h-.009c-.074.061-.152.121-.226.18-.055.043-.115.089-.175.13s-.111.082-.171.123a.416.416,0,0,0-.051.039c-.1.064-.2.132-.3.2-.152.1-.3.193-.461.285-.074.043-.152.089-.226.13s-.152.082-.231.12c-.1.053-.2.1-.3.15a.848.848,0,0,1-.111.052c-.042.018-.078.032-.115.05,0,0,0,0-.009,0s-.014.009-.023.011c-.051.021-.1.039-.143.059-.069.028-.138.057-.208.08-.088.032-.171.064-.258.091s-.161.053-.24.073c-.009,0-.014.007-.023.009-.069.018-.134.034-.2.05a.564.564,0,0,1-.074.021c-.06.013-.12.03-.185.041s-.152.03-.231.041c-.051.009-.092.014-.143.021s-.111.013-.166.02c-.074.009-.143.014-.217.018-.028,0-.06,0-.088,0h-.032a.524.524,0,0,1-.06,0h-.018c-.028,0-.051,0-.078,0a4.626,4.626,0,0,1-.567-.034,3.857,3.857,0,0,1-.54-.109c-.088-.028-.175-.053-.263-.082-.065-.023-.129-.05-.189-.077s-.092-.038-.143-.061-.074-.034-.111-.054a.715.715,0,0,1-.1-.053,2.086,2.086,0,0,1-.2-.113,2.9,2.9,0,0,0-.4-.216c-.042-.02-.088-.039-.129-.054l-.051-.02a1.271,1.271,0,0,0-.194-.064,2.593,2.593,0,0,0-.756-.111H967.2a.156.156,0,0,0-.028,0h-.037a.619.619,0,0,0-.092.007c-.018,0-.042,0-.06,0-.06.007-.111.012-.161.021-.009,0-.014,0-.018,0-.023,0-.051.009-.074.013a.8.8,0,0,0-.125.028c-.042.009-.083.02-.125.032s-.1.027-.148.043l-.092.034a.816.816,0,0,0-.148.057h0a1.132,1.132,0,0,0-.111.048c-.037.018-.069.032-.1.05s-.083.041-.125.061l-.111.061c-.042.023-.078.048-.12.071l-.111.071-.115.073a1.087,1.087,0,0,0-.111.079c-.074.05-.143.1-.217.164a1.246,1.246,0,0,0-.1.084,1.365,1.365,0,0,0-.106.091c-.069.059-.138.12-.2.182a2.627,2.627,0,0,0-.2.191c-.032.032-.065.064-.1.1s-.06.064-.092.1-.069.071-.1.1h0q1.923.795,3.791,1.472a69.05,69.05,0,0,0,11.111,3.1c7.836,1.41,13.7.493,15.958-3.119,3-4.817-1.107-13.282-9.842-22.293Z" transform="translate(-492.478 -47.567)" fill="#fee132"/>
  <path id="Trazado_600417" data-name="Trazado 600417" d="M1028.874,400.963c10.156,3.252,5.415-2.313,13.26-1.747-.969-2.5-1.683-4.754-2.546-6.683a23.176,23.176,0,0,1-1.31-3.814,22.6,22.6,0,0,1-.231-10.02,195.51,195.51,0,0,1,5.931-21.961c-2.241-5.9-11.816,3.769-11.816,3.769s-8.865,9.314-6.545,25.155c2.163,14.758-5.5,12.495,3.256,15.3Z" transform="translate(-552.02 -191.178)" fill="#631890"/>
  <path id="Trazado_600418" data-name="Trazado 600418" d="M1020.006,257.032A52.117,52.117,0,0,0,999.417,289.6l-4.959-1.574s2.088-15.915,21.055-32.111c0,0,1.425.282,1.909.4C1018.064,256.477,1020.006,257.032,1020.006,257.032Z" transform="translate(-535.8 -137.882)" fill="#304c8e"/>
  <path id="Trazado_600419" data-name="Trazado 600419" d="M924.293,288.908l5.191.341A52.659,52.659,0,0,1,940.9,253.6c-1.781.143-3.4.316-4.843.507C925.517,270.191,924.293,288.908,924.293,288.908Z" transform="translate(-497.996 -136.633)" fill="#304c8e"/>
  <path id="Trazado_600420" data-name="Trazado 600420" d="M949.288,331.041c.323-1.365,3.5-14.624,3.5-14.624s.733-4.147-6.551-4.556-33.129-1.772-33.129-1.772a8.053,8.053,0,0,0-3.573,6.487c-.053,4.361-3.569,29.315-3.569,29.315l-3.619,54.882,78.811,33.96s5.405-27.739-.646-47.071c-3.528-11.275-8.076-23.049-8.076-23.049s-28.048-12.731-23.144-33.571Z" transform="translate(-486.169 -167.071)" fill="#304c8e"/>
  <path id="Trazado_600421" data-name="Trazado 600421" d="M1000.68,321.457a2.178,2.178,0,1,0-2.735,1.417A2.178,2.178,0,0,0,1000.68,321.457Z" transform="translate(-536.86 -171.668)" fill="#ed7d2b"/>
  <path id="Trazado_600422" data-name="Trazado 600422" d="M999.873,321.2a2.176,2.176,0,1,0-2.732,1.417,2.178,2.178,0,0,0,2.732-1.417Z" transform="translate(-536.427 -171.53)" fill="#641493"/>
  <path id="Trazado_600423" data-name="Trazado 600423" d="M1002.532,322.71a.317.317,0,0,0-.318-.316.316.316,0,0,0,0,.632A.317.317,0,0,0,1002.532,322.71Z" transform="translate(-539.809 -173.701)" fill="#304c8e"/>
  <path id="Trazado_600424" data-name="Trazado 600424" d="M998.049,322.72a.316.316,0,1,0-.316.316A.315.315,0,0,0,998.049,322.72Z" transform="translate(-537.394 -173.707)" fill="#304c8e"/>
  <path id="Trazado_600425" data-name="Trazado 600425" d="M931.2,315.46a2.177,2.177,0,1,0-2.734,1.417A2.177,2.177,0,0,0,931.2,315.46Z" transform="translate(-499.425 -168.437)" fill="#ed7d2b"/>
  <path id="Trazado_600426" data-name="Trazado 600426" d="M930.392,315.2a2.178,2.178,0,1,0-2.734,1.417A2.177,2.177,0,0,0,930.392,315.2Z" transform="translate(-498.99 -168.299)" fill="#641493"/>
  <path id="Trazado_600427" data-name="Trazado 600427" d="M933.049,316.712a.316.316,0,1,0-.316.316A.316.316,0,0,0,933.049,316.712Z" transform="translate(-502.373 -170.47)" fill="#304c8e"/>
  <path id="Trazado_600428" data-name="Trazado 600428" d="M928.566,316.723a.316.316,0,1,0-.316.316A.316.316,0,0,0,928.566,316.723Z" transform="translate(-499.957 -170.476)" fill="#304c8e"/>
  <path id="Trazado_600429" data-name="Trazado 600429" d="M1033.618,183.751s.18,3.885-2.149,4.647,2.4,9.146,2.029,14.812-2.878,7.938-2.878,7.938,1.2-3.116.53-5.043c0,0,.111,4.008-2.818,6.03s-2.14,3.769-2.14,3.769-6.614-1.981-6.8-6.942a12.989,12.989,0,0,0-.055,3.171s-5.71-4.287-5.982-9.228,4.5-9.11,6.669-9.185,7.015-4.34,6.886-5.951,6.711-4.017,6.711-4.017Z" transform="translate(-545.976 -99.002)" fill="#2c3a64"/>
  <path id="Trazado_600430" data-name="Trazado 600430" d="M968.634,194.965s-3.91,2.37-6.694,2.095c-2.757-.273-4.258-3.6-4.258-3.6A23.1,23.1,0,0,1,968.634,194.965Z" transform="translate(-515.985 -104.164)" fill="#fff2e9"/>
  <path id="Trazado_600431" data-name="Trazado 600431" d="M951.254,455.744H898.578a6.666,6.666,0,0,1-5.614-3.992L879.7,419.109c-.9-2.2.166-3.992,2.37-3.992h52.676a6.665,6.665,0,0,1,5.615,3.992l13.26,32.643C954.519,453.956,953.458,455.744,951.254,455.744Z" transform="translate(-473.8 -223.659)" fill="#a4c9ff"/>
  <path id="Trazado_600432" data-name="Trazado 600432" d="M944.436,455.744H891.763a6.666,6.666,0,0,1-5.614-3.992l-13.261-32.643c-.9-2.2.166-3.992,2.37-3.992h52.675a6.666,6.666,0,0,1,5.613,3.992l13.26,32.643C947.706,453.956,946.641,455.744,944.436,455.744Z" transform="translate(-470.128 -223.659)" fill="#71a4ff"/>
  <path id="Trazado_600433" data-name="Trazado 600433" d="M883.233,420.542a3.054,3.054,0,0,1,2.563,1.824c.407,1-.079,1.824-1.082,1.824a3.054,3.054,0,0,1-2.563-1.824C881.744,421.363,882.23,420.542,883.233,420.542Z" transform="translate(-475.213 -226.582)" fill="#304c8e"/>
  <path id="Trazado_600434" data-name="Trazado 600434" d="M896.382,422.188a1.782,1.782,0,0,1,1.5,1.065c.237.584-.047,1.064-.632,1.064a1.788,1.788,0,0,1-1.5-1.064C895.513,422.668,895.8,422.188,896.382,422.188Z" transform="translate(-482.572 -227.469)" fill="#304c8e"/>
  <path id="Trazado_600435" data-name="Trazado 600435" d="M941.536,452.34c-.878-2.163.161-3.919,2.327-3.919a6.536,6.536,0,0,1,5.509,3.919c.878,2.164-.161,3.917-2.327,3.917A6.538,6.538,0,0,1,941.536,452.34Z" transform="translate(-507.118 -241.603)" fill="#a4c9ff"/>
  <path id="Trazado_600436" data-name="Trazado 600436" d="M1036.976,464.161s-7.246-4.131-8.989-6.039c-1.125-1.233-1.195.353-1.121.8a6.088,6.088,0,0,0,2.338,4.347c2.966,2.425,7.771.894,7.771.894Z" transform="translate(-553.249 -246.581)" fill="#ffb27d"/>
  <path id="Trazado_600437" data-name="Trazado 600437" d="M1017.748,467.544s-13.066-3.924-16.073-3.582-9.882,2.481-10.435,3.041,1.813,1.149,3.612.621c2.307-.673,5.941.084,5.941.084a91.977,91.977,0,0,0-9.16,2.4.27.27,0,0,0-.06.455,4.74,4.74,0,0,0,3.187.341,56.084,56.084,0,0,1,6.406-.267l-8.324,1.811a.22.22,0,0,0-.177.221c.013.4.677.819,2.625.907a63.685,63.685,0,0,0,6.577-.682l-4.525,2.386s1.1.785,3.408.023c1.582-.523,6.309-1.706,7.4-1.476s6.535,2.152,9.1,1.824a14.641,14.641,0,0,0,3.6-.8l-3.109-7.3Z" transform="translate(-534.022 -249.964)" fill="#ffb27d"/>
  <path id="Trazado_600438" data-name="Trazado 600438" d="M714.659,317.511s-6.556-7-8.965-7.838-11.007-2.286-11.007-2.286.034,2.057,3.883,3.478,4.654,8.093,6.931,9.981,8.291,3.523,8.291,3.523Z" transform="translate(-374.288 -165.615)" fill="#ffb27d"/>
  <path id="Trazado_600439" data-name="Trazado 600439" d="M716.462,335.777s-6.387-.28-8.461-1.583-5.455-3.007-4.8-4.044,7.695-.255,7.695-.255l5.571,5.882Z" transform="translate(-378.829 -177.59)" fill="#ffb27d"/>
  <path id="Trazado_600440" data-name="Trazado 600440" d="M706.852,308.165c-.334-.15-8.851-5.844-8.851-5.844s-.716,2.7.537,3.212,8.314,2.634,8.314,2.634Z" transform="translate(-375.963 -162.886)" fill="#ffb27d"/>
  <path id="Trazado_600441" data-name="Trazado 600441" d="M1081.887,434.292a142.384,142.384,0,0,1-33.2,24.581,13.023,13.023,0,0,1-4.234-2.195c-3.99-2.85.429-4.938,1.305-5.5,4.335-2.809,10.142-9.831,15.239-16.884h20.893Z" transform="translate(-561.85 -233.99)" fill="#ffb27d"/>
  <path id="Trazado_600442" data-name="Trazado 600442" d="M133.594,721.75H69.773l-.027-.071c-.08-.209-.184-.489-.318-.848l-.052-.1v-.052a.2.2,0,0,1-.052-.109,14.8,14.8,0,0,1-.589-1.5c-.109-.271-.214-.591-.375-.912v-.109l-.052-.052c-.737-1.911-1.647-4.4-2.7-7.409-.093-.273-.191-.548-.291-.826-.789-2.272-1.656-4.818-2.579-7.62q-.638-1.975-1.31-4.119c6.308-1.756,14.553-2.966,21.893-.583a27.742,27.742,0,0,1,10.45,6.089c5.052,4.6,7.14,9.142,13.022,7.374a21.2,21.2,0,0,1,5.1-.783c9.467-.425,22.56,3.571,21.711,11.632Z" transform="translate(-33.095 -375.052)" fill="#82b378"/>
  <path id="Trazado_600443" data-name="Trazado 600443" d="M.751,749.37H662.668a.752.752,0,0,1,.752.75v.259a.752.752,0,0,1-.752.751H.751A.751.751,0,0,1,0,750.38v-.257a.751.751,0,0,1,.751-.75Z" transform="translate(0 -403.75)" fill="#2e3552"/>
</svg>
