<svg xmlns="http://www.w3.org/2000/svg" width="1100.768" height="402.315" viewBox="0 0 1100.768 402.315">
  <g id="Grupo_1014609" data-name="Grupo 1014609" transform="translate(-249.615 -5591)">
    <g id="Group_7_4_" data-name="Group 7 (4)" transform="translate(249.615 5590.118)">
      <g id="Grupo_1013393" data-name="Grupo 1013393" transform="translate(0 402.585)" opacity="0.3">
        <path id="Trazado_599799" data-name="Trazado 599799" d="M843.768,641.448c0,.165-188.9.306-421.862.306S0,641.613,0,641.448s188.859-.306,421.906-.306S843.768,641.283,843.768,641.448Z" transform="translate(0 -641.142)"/>
      </g>
      <path id="Trazado_599800" data-name="Trazado 599800" d="M829.032,339.372V214.891h8.694V197.5H959.437v17.387h8.025V339.372Z" transform="translate(-308.892 -73.26)" fill="#263c71"/>
      <path id="Trazado_599801" data-name="Trazado 599801" d="M963.591,225.148c0,.165-30.122.307-67.264.307s-67.277-.142-67.277-.307,30.111-.306,67.277-.306S963.591,224.984,963.591,225.148Z" transform="translate(-308.899 -83.446)" fill="#1c2d55"/>
      <path id="Trazado_599802" data-name="Trazado 599802" d="M962.78,238.4H848.6v12.628H962.78Z" transform="translate(-316.181 -88.497)" fill="#fff"/>
      <path id="Trazado_599803" data-name="Trazado 599803" d="M864.13,251.026a33.225,33.225,0,0,1-.306-6.314,33.226,33.226,0,0,1,.306-6.314,33.216,33.216,0,0,1,.306,6.314A33.216,33.216,0,0,1,864.13,251.026Z" transform="translate(-321.855 -88.497)" fill="#e0e0e0"/>
      <path id="Trazado_599804" data-name="Trazado 599804" d="M880.315,251.026a33.222,33.222,0,0,1-.306-6.314,33.222,33.222,0,0,1,.306-6.314,33.22,33.22,0,0,1,.306,6.314A33.219,33.219,0,0,1,880.315,251.026Z" transform="translate(-327.886 -88.497)" fill="#e0e0e0"/>
      <path id="Trazado_599805" data-name="Trazado 599805" d="M896.518,251.026a33.219,33.219,0,0,1-.306-6.314,33.22,33.22,0,0,1,.306-6.314,33.22,33.22,0,0,1,.306,6.314A33.219,33.219,0,0,1,896.518,251.026Z" transform="translate(-333.923 -88.497)" fill="#e0e0e0"/>
      <path id="Trazado_599806" data-name="Trazado 599806" d="M912.723,251.026a33.216,33.216,0,0,1-.306-6.314,33.216,33.216,0,0,1,.306-6.314,33.229,33.229,0,0,1,.306,6.314A33.229,33.229,0,0,1,912.723,251.026Z" transform="translate(-339.961 -88.497)" fill="#e0e0e0"/>
      <path id="Trazado_599807" data-name="Trazado 599807" d="M928.926,251.026a33.225,33.225,0,0,1-.306-6.314,33.226,33.226,0,0,1,.306-6.314,33.216,33.216,0,0,1,.306,6.314A33.216,33.216,0,0,1,928.926,251.026Z" transform="translate(-345.998 -88.497)" fill="#e0e0e0"/>
      <path id="Trazado_599808" data-name="Trazado 599808" d="M945.111,251.026a33.235,33.235,0,0,1-.306-6.314,33.235,33.235,0,0,1,.306-6.314,33.216,33.216,0,0,1,.306,6.314A33.216,33.216,0,0,1,945.111,251.026Z" transform="translate(-352.028 -88.497)" fill="#e0e0e0"/>
      <path id="Trazado_599809" data-name="Trazado 599809" d="M961.314,251.026a33.219,33.219,0,0,1-.306-6.314,33.22,33.22,0,0,1,.306-6.314,33.222,33.222,0,0,1,.306,6.314A33.222,33.222,0,0,1,961.314,251.026Z" transform="translate(-358.065 -88.497)" fill="#e0e0e0"/>
      <path id="Trazado_599810" data-name="Trazado 599810" d="M977.518,251.026a33.225,33.225,0,0,1-.306-6.314,33.226,33.226,0,0,1,.306-6.314,33.226,33.226,0,0,1,.306,6.314A33.225,33.225,0,0,1,977.518,251.026Z" transform="translate(-364.103 -88.497)" fill="#e0e0e0"/>
      <path id="Trazado_599811" data-name="Trazado 599811" d="M993.721,251.026a33.207,33.207,0,0,1-.306-6.314,33.207,33.207,0,0,1,.306-6.314,33.226,33.226,0,0,1,.306,6.314A33.225,33.225,0,0,1,993.721,251.026Z" transform="translate(-370.14 -88.497)" fill="#e0e0e0"/>
      <path id="Trazado_599812" data-name="Trazado 599812" d="M1009.907,251.026a33.338,33.338,0,0,1-.307-6.314,33.338,33.338,0,0,1,.307-6.314,33.335,33.335,0,0,1,.307,6.314A33.335,33.335,0,0,1,1009.907,251.026Z" transform="translate(-376.17 -88.497)" fill="#e0e0e0"/>
      <path id="Trazado_599813" data-name="Trazado 599813" d="M962.78,273.265H848.6v12.628H962.78Z" transform="translate(-316.181 -101.488)" fill="#fff"/>
      <path id="Trazado_599814" data-name="Trazado 599814" d="M864.13,285.893a33.226,33.226,0,0,1-.306-6.314,33.226,33.226,0,0,1,.306-6.314,33.216,33.216,0,0,1,.306,6.314A33.216,33.216,0,0,1,864.13,285.893Z" transform="translate(-321.855 -101.488)" fill="#e0e0e0"/>
      <path id="Trazado_599815" data-name="Trazado 599815" d="M880.315,285.893a33.222,33.222,0,0,1-.306-6.314,33.222,33.222,0,0,1,.306-6.314,33.22,33.22,0,0,1,.306,6.314A33.22,33.22,0,0,1,880.315,285.893Z" transform="translate(-327.886 -101.488)" fill="#e0e0e0"/>
      <path id="Trazado_599816" data-name="Trazado 599816" d="M896.518,285.893a33.22,33.22,0,0,1-.306-6.314,33.22,33.22,0,0,1,.306-6.314,33.22,33.22,0,0,1,.306,6.314A33.22,33.22,0,0,1,896.518,285.893Z" transform="translate(-333.923 -101.488)" fill="#e0e0e0"/>
      <path id="Trazado_599817" data-name="Trazado 599817" d="M912.723,285.893a33.216,33.216,0,0,1-.306-6.314,33.216,33.216,0,0,1,.306-6.314,33.229,33.229,0,0,1,.306,6.314A33.229,33.229,0,0,1,912.723,285.893Z" transform="translate(-339.961 -101.488)" fill="#e0e0e0"/>
      <path id="Trazado_599818" data-name="Trazado 599818" d="M928.926,285.893a33.226,33.226,0,0,1-.306-6.314,33.226,33.226,0,0,1,.306-6.314,33.216,33.216,0,0,1,.306,6.314A33.216,33.216,0,0,1,928.926,285.893Z" transform="translate(-345.998 -101.488)" fill="#e0e0e0"/>
      <path id="Trazado_599819" data-name="Trazado 599819" d="M945.111,285.893a33.235,33.235,0,0,1-.306-6.314,33.235,33.235,0,0,1,.306-6.314,33.216,33.216,0,0,1,.306,6.314A33.216,33.216,0,0,1,945.111,285.893Z" transform="translate(-352.028 -101.488)" fill="#e0e0e0"/>
      <path id="Trazado_599820" data-name="Trazado 599820" d="M961.314,285.893a33.22,33.22,0,0,1-.306-6.314,33.22,33.22,0,0,1,.306-6.314,33.222,33.222,0,0,1,.306,6.314A33.222,33.222,0,0,1,961.314,285.893Z" transform="translate(-358.065 -101.488)" fill="#e0e0e0"/>
      <path id="Trazado_599821" data-name="Trazado 599821" d="M977.518,285.893a33.226,33.226,0,0,1-.306-6.314,33.226,33.226,0,0,1,.306-6.314,33.226,33.226,0,0,1,.306,6.314A33.226,33.226,0,0,1,977.518,285.893Z" transform="translate(-364.103 -101.488)" fill="#e0e0e0"/>
      <path id="Trazado_599822" data-name="Trazado 599822" d="M993.721,285.893a33.207,33.207,0,0,1-.306-6.314,33.207,33.207,0,0,1,.306-6.314,33.226,33.226,0,0,1,.306,6.314A33.226,33.226,0,0,1,993.721,285.893Z" transform="translate(-370.14 -101.488)" fill="#e0e0e0"/>
      <path id="Trazado_599823" data-name="Trazado 599823" d="M1009.907,285.893a33.338,33.338,0,0,1-.307-6.314,33.338,33.338,0,0,1,.307-6.314,33.335,33.335,0,0,1,.307,6.314A33.335,33.335,0,0,1,1009.907,285.893Z" transform="translate(-376.17 -101.488)" fill="#e0e0e0"/>
      <path id="Trazado_599824" data-name="Trazado 599824" d="M962.78,308.113H848.6v12.628H962.78Z" transform="translate(-316.181 -114.472)" fill="#fff"/>
      <path id="Trazado_599825" data-name="Trazado 599825" d="M864.13,320.741a65.266,65.266,0,0,1,0-12.628,65.253,65.253,0,0,1,0,12.628Z" transform="translate(-321.855 -114.472)" fill="#e0e0e0"/>
      <path id="Trazado_599826" data-name="Trazado 599826" d="M880.315,320.741a65.253,65.253,0,0,1,0-12.628,65.266,65.266,0,0,1,0,12.628Z" transform="translate(-327.886 -114.472)" fill="#e0e0e0"/>
      <path id="Trazado_599827" data-name="Trazado 599827" d="M896.518,320.741a65.266,65.266,0,0,1,0-12.628,65.266,65.266,0,0,1,0,12.628Z" transform="translate(-333.923 -114.472)" fill="#e0e0e0"/>
      <path id="Trazado_599828" data-name="Trazado 599828" d="M912.723,320.741a65.253,65.253,0,0,1,0-12.628,65.279,65.279,0,0,1,0,12.628Z" transform="translate(-339.961 -114.472)" fill="#e0e0e0"/>
      <path id="Trazado_599829" data-name="Trazado 599829" d="M928.926,320.741a65.266,65.266,0,0,1,0-12.628,65.253,65.253,0,0,1,0,12.628Z" transform="translate(-345.998 -114.472)" fill="#e0e0e0"/>
      <path id="Trazado_599830" data-name="Trazado 599830" d="M945.111,320.741a65.279,65.279,0,0,1,0-12.628,65.253,65.253,0,0,1,0,12.628Z" transform="translate(-352.028 -114.472)" fill="#e0e0e0"/>
      <path id="Trazado_599831" data-name="Trazado 599831" d="M961.314,320.741a65.266,65.266,0,0,1,0-12.628,65.253,65.253,0,0,1,0,12.628Z" transform="translate(-358.065 -114.472)" fill="#e0e0e0"/>
      <path id="Trazado_599832" data-name="Trazado 599832" d="M977.518,320.741a65.266,65.266,0,0,1,0-12.628,65.266,65.266,0,0,1,0,12.628Z" transform="translate(-364.103 -114.472)" fill="#e0e0e0"/>
      <path id="Trazado_599833" data-name="Trazado 599833" d="M993.721,320.741a65.24,65.24,0,0,1,0-12.628,65.266,65.266,0,0,1,0,12.628Z" transform="translate(-370.14 -114.472)" fill="#e0e0e0"/>
      <path id="Trazado_599834" data-name="Trazado 599834" d="M1009.907,320.741a65,65,0,0,1,0-12.628,64.982,64.982,0,0,1,0,12.628Z" transform="translate(-376.17 -114.472)" fill="#e0e0e0"/>
      <path id="Trazado_599835" data-name="Trazado 599835" d="M962.78,342.98H848.6v12.628H962.78Z" transform="translate(-316.181 -127.464)" fill="#fff"/>
      <path id="Trazado_599836" data-name="Trazado 599836" d="M864.13,355.608a65.266,65.266,0,0,1,0-12.628,65.254,65.254,0,0,1,0,12.628Z" transform="translate(-321.855 -127.464)" fill="#e0e0e0"/>
      <path id="Trazado_599837" data-name="Trazado 599837" d="M880.315,355.608a65.254,65.254,0,0,1,0-12.628,65.266,65.266,0,0,1,0,12.628Z" transform="translate(-327.886 -127.464)" fill="#e0e0e0"/>
      <path id="Trazado_599838" data-name="Trazado 599838" d="M896.518,355.608a65.266,65.266,0,0,1,0-12.628,65.266,65.266,0,0,1,0,12.628Z" transform="translate(-333.923 -127.464)" fill="#e0e0e0"/>
      <path id="Trazado_599839" data-name="Trazado 599839" d="M912.723,355.608a65.254,65.254,0,0,1,0-12.628,65.279,65.279,0,0,1,0,12.628Z" transform="translate(-339.961 -127.464)" fill="#e0e0e0"/>
      <path id="Trazado_599840" data-name="Trazado 599840" d="M928.926,355.608a65.266,65.266,0,0,1,0-12.628,65.254,65.254,0,0,1,0,12.628Z" transform="translate(-345.998 -127.464)" fill="#e0e0e0"/>
      <path id="Trazado_599841" data-name="Trazado 599841" d="M945.111,355.608a65.279,65.279,0,0,1,0-12.628,65.254,65.254,0,0,1,0,12.628Z" transform="translate(-352.028 -127.464)" fill="#e0e0e0"/>
      <path id="Trazado_599842" data-name="Trazado 599842" d="M961.314,355.608a65.266,65.266,0,0,1,0-12.628,65.254,65.254,0,0,1,0,12.628Z" transform="translate(-358.065 -127.464)" fill="#e0e0e0"/>
      <path id="Trazado_599843" data-name="Trazado 599843" d="M977.518,355.608a65.266,65.266,0,0,1,0-12.628,65.266,65.266,0,0,1,0,12.628Z" transform="translate(-364.103 -127.464)" fill="#e0e0e0"/>
      <path id="Trazado_599844" data-name="Trazado 599844" d="M993.721,355.608a65.241,65.241,0,0,1,0-12.628,65.266,65.266,0,0,1,0,12.628Z" transform="translate(-370.14 -127.464)" fill="#e0e0e0"/>
      <path id="Trazado_599845" data-name="Trazado 599845" d="M1009.907,355.608a65,65,0,0,1,0-12.628,64.983,64.983,0,0,1,0,12.628Z" transform="translate(-376.17 -127.464)" fill="#e0e0e0"/>
      <path id="Trazado_599846" data-name="Trazado 599846" d="M962.78,377.828H848.6v12.628H962.78Z" transform="translate(-316.181 -140.448)" fill="#fff"/>
      <path id="Trazado_599847" data-name="Trazado 599847" d="M864.13,390.456a65.266,65.266,0,0,1,0-12.628,65.254,65.254,0,0,1,0,12.628Z" transform="translate(-321.855 -140.448)" fill="#e0e0e0"/>
      <path id="Trazado_599848" data-name="Trazado 599848" d="M880.315,390.456a65.254,65.254,0,0,1,0-12.628,65.266,65.266,0,0,1,0,12.628Z" transform="translate(-327.886 -140.448)" fill="#e0e0e0"/>
      <path id="Trazado_599849" data-name="Trazado 599849" d="M896.518,390.456a65.266,65.266,0,0,1,0-12.628,65.266,65.266,0,0,1,0,12.628Z" transform="translate(-333.923 -140.448)" fill="#e0e0e0"/>
      <path id="Trazado_599850" data-name="Trazado 599850" d="M912.723,390.456a65.254,65.254,0,0,1,0-12.628,65.279,65.279,0,0,1,0,12.628Z" transform="translate(-339.961 -140.448)" fill="#e0e0e0"/>
      <path id="Trazado_599851" data-name="Trazado 599851" d="M928.926,390.456a65.266,65.266,0,0,1,0-12.628,65.254,65.254,0,0,1,0,12.628Z" transform="translate(-345.998 -140.448)" fill="#e0e0e0"/>
      <path id="Trazado_599852" data-name="Trazado 599852" d="M945.111,390.456a65.279,65.279,0,0,1,0-12.628,65.254,65.254,0,0,1,0,12.628Z" transform="translate(-352.028 -140.448)" fill="#e0e0e0"/>
      <path id="Trazado_599853" data-name="Trazado 599853" d="M961.314,390.456a65.266,65.266,0,0,1,0-12.628,65.254,65.254,0,0,1,0,12.628Z" transform="translate(-358.065 -140.448)" fill="#e0e0e0"/>
      <path id="Trazado_599854" data-name="Trazado 599854" d="M977.518,390.456a65.266,65.266,0,0,1,0-12.628,65.266,65.266,0,0,1,0,12.628Z" transform="translate(-364.103 -140.448)" fill="#e0e0e0"/>
      <path id="Trazado_599855" data-name="Trazado 599855" d="M993.721,390.456a65.241,65.241,0,0,1,0-12.628,65.266,65.266,0,0,1,0,12.628Z" transform="translate(-370.14 -140.448)" fill="#e0e0e0"/>
      <path id="Trazado_599856" data-name="Trazado 599856" d="M1009.907,390.456a65,65,0,0,1,0-12.628,64.983,64.983,0,0,1,0,12.628Z" transform="translate(-376.17 -140.448)" fill="#e0e0e0"/>
      <path id="Trazado_599857" data-name="Trazado 599857" d="M950.631,416.112h-332.1v141.48h332.1Z" transform="translate(-230.462 -154.712)" fill="#263c71"/>
      <path id="Trazado_599858" data-name="Trazado 599858" d="M978.909,457.212H759.749v30.57h219.16Z" transform="translate(-283.078 -170.026)" fill="#fff"/>
      <path id="Trazado_599859" data-name="Trazado 599859" d="M935.479,545.891h-125v60.067h125Z" transform="translate(-301.98 -203.067)" fill="#1c2d55"/>
      <g id="Grupo_1013394" data-name="Grupo 1013394" transform="translate(463.307 336.285)" opacity="0.3">
        <path id="Trazado_599860" data-name="Trazado 599860" d="M767.951,547.439s-.024-.306-.047-.836c-.012-.589-.036-1.367-.047-2.321-.024-2.062-.071-4.913-.118-8.435l.212.212c-7.445.024-17.788.059-29.227.094l.306-.306v11.6l-.294-.295c8.387.059,15.632.106,20.874.142,2.556.035,4.618.058,6.113.082.671.012,1.225.023,1.65.035a4.389,4.389,0,0,1,.6.036,2.775,2.775,0,0,1-.529.035c-.413,0-.943.024-1.59.035-1.485.024-3.522.047-6.043.083-5.29.035-12.605.082-21.063.141h-.294v-11.9c-.071.059.577-.588.306-.306,11.439.035,21.782.071,29.227.094h.212v.212c-.047,3.569-.094,6.479-.118,8.564-.023.942-.035,1.7-.047,2.274a4.363,4.363,0,0,1-.047.766Z" transform="translate(-738.448 -535.469)"/>
      </g>
      <g id="Grupo_1013395" data-name="Grupo 1013395" transform="translate(679.263 267.253)" opacity="0.3">
        <path id="Trazado_599861" data-name="Trazado 599861" d="M1112.151,437.424s-.019-.306-.044-.836c-.013-.589-.038-1.366-.05-2.321-.019-2.062-.069-4.913-.113-8.435l.207.212c-7.441.024-17.787.059-29.225.094-.27.271.364-.376.307-.306v11.592l-.295-.295c8.389.059,15.629.106,20.874.142,2.553.035,4.618.059,6.111.082.671.012,1.23.024,1.65.035a4.485,4.485,0,0,1,.6.036,2.672,2.672,0,0,1-.527.035c-.414,0-.948.024-1.594.035-1.481.024-3.52.048-6.042.083-5.289.035-12.6.082-21.062.141h-.295v-11.9c-.069.059.577-.589.307-.306,11.438.036,21.777.071,29.225.094h.213v.212c-.05,3.57-.094,6.479-.119,8.565-.025.942-.038,1.7-.057,2.273a4.177,4.177,0,0,1-.05.766Z" transform="translate(-1082.652 -425.442)"/>
      </g>
      <g id="Grupo_1013396" data-name="Grupo 1013396" transform="translate(477.437 324.483)" opacity="0.3">
        <path id="Trazado_599862" data-name="Trazado 599862" d="M790.2,516.658H760.969v11.6H790.2Z" transform="translate(-760.969 -516.658)"/>
      </g>
      <path id="Trazado_599863" data-name="Trazado 599863" d="M978.909,480.82c0,.165-49.07.306-109.581.306s-109.579-.141-109.579-.306,49.053-.306,109.579-.306S978.909,480.655,978.909,480.82Z" transform="translate(-283.078 -178.708)" fill="#263c71"/>
      <path id="Trazado_599864" data-name="Trazado 599864" d="M779.376,488.569c-.165,0-.307-7.7-.307-17.2s.142-17.2.307-17.2.306,7.7.306,17.2S779.54,488.569,779.376,488.569Z" transform="translate(-290.276 -168.893)" fill="#263c71"/>
      <path id="Trazado_599865" data-name="Trazado 599865" d="M800.461,488.569c-.165,0-.306-7.7-.306-17.2s.141-17.2.306-17.2.306,7.7.306,17.2S800.626,488.569,800.461,488.569Z" transform="translate(-298.133 -168.893)" fill="#263c71"/>
      <path id="Trazado_599866" data-name="Trazado 599866" d="M822.485,488.569c-.165,0-.306-7.7-.306-17.2s.141-17.2.306-17.2.307,7.7.307,17.2S822.65,488.569,822.485,488.569Z" transform="translate(-306.339 -168.893)" fill="#263c71"/>
      <path id="Trazado_599867" data-name="Trazado 599867" d="M844.528,488.569c-.165,0-.306-7.7-.306-17.2s.141-17.2.306-17.2.306,7.7.306,17.2S844.693,488.569,844.528,488.569Z" transform="translate(-314.552 -168.893)" fill="#263c71"/>
      <path id="Trazado_599868" data-name="Trazado 599868" d="M866.552,488.569c-.165,0-.306-7.7-.306-17.2s.141-17.2.306-17.2.306,7.7.306,17.2S866.717,488.569,866.552,488.569Z" transform="translate(-322.758 -168.893)" fill="#263c71"/>
      <path id="Trazado_599869" data-name="Trazado 599869" d="M888.577,488.569c-.165,0-.306-7.7-.306-17.2s.141-17.2.306-17.2.306,7.7.306,17.2S888.742,488.569,888.577,488.569Z" transform="translate(-330.964 -168.893)" fill="#263c71"/>
      <path id="Trazado_599870" data-name="Trazado 599870" d="M910.62,488.569c-.165,0-.307-7.7-.307-17.2s.142-17.2.307-17.2.306,7.7.306,17.2S910.785,488.569,910.62,488.569Z" transform="translate(-339.177 -168.893)" fill="#263c71"/>
      <path id="Trazado_599871" data-name="Trazado 599871" d="M932.644,488.569c-.165,0-.307-7.7-.307-17.2s.142-17.2.307-17.2.306,7.7.306,17.2S932.808,488.569,932.644,488.569Z" transform="translate(-347.383 -168.893)" fill="#263c71"/>
      <path id="Trazado_599872" data-name="Trazado 599872" d="M954.668,488.569c-.165,0-.306-7.7-.306-17.2s.141-17.2.306-17.2.306,7.7.306,17.2S954.833,488.569,954.668,488.569Z" transform="translate(-355.589 -168.893)" fill="#263c71"/>
      <path id="Trazado_599873" data-name="Trazado 599873" d="M976.692,488.569c-.165,0-.306-7.7-.306-17.2s.141-17.2.306-17.2.306,7.7.306,17.2S976.857,488.569,976.692,488.569Z" transform="translate(-363.795 -168.893)" fill="#263c71"/>
      <path id="Trazado_599874" data-name="Trazado 599874" d="M998.735,488.569c-.165,0-.306-7.7-.306-17.2s.141-17.2.306-17.2.306,7.7.306,17.2S998.9,488.569,998.735,488.569Z" transform="translate(-372.008 -168.893)" fill="#263c71"/>
      <path id="Trazado_599875" data-name="Trazado 599875" d="M1020.757,488.569c-.163,0-.307-7.7-.307-17.2s.144-17.2.307-17.2.307,7.7.307,17.2S1020.921,488.569,1020.757,488.569Z" transform="translate(-380.213 -168.893)" fill="#263c71"/>
      <path id="Trazado_599876" data-name="Trazado 599876" d="M1042.787,488.569c-.169,0-.307-7.7-.307-17.2s.138-17.2.307-17.2.3,7.7.3,17.2S1042.951,488.569,1042.787,488.569Z" transform="translate(-388.421 -168.893)" fill="#263c71"/>
      <path id="Trazado_599877" data-name="Trazado 599877" d="M1064.828,488.569c-.163,0-.307-7.7-.307-17.2s.144-17.2.307-17.2.307,7.7.307,17.2S1064.991,488.569,1064.828,488.569Z" transform="translate(-396.633 -168.893)" fill="#263c71"/>
      <path id="Trazado_599878" data-name="Trazado 599878" d="M1086.848,488.569c-.163,0-.307-7.7-.307-17.2s.144-17.2.307-17.2.307,7.7.307,17.2S1087.011,488.569,1086.848,488.569Z" transform="translate(-404.838 -168.893)" fill="#263c71"/>
      <path id="Trazado_599879" data-name="Trazado 599879" d="M1108.877,488.569c-.169,0-.307-7.7-.307-17.2s.138-17.2.307-17.2.307,7.7.307,17.2S1109.041,488.569,1108.877,488.569Z" transform="translate(-413.046 -168.893)" fill="#263c71"/>
      <path id="Trazado_599880" data-name="Trazado 599880" d="M964.258,594.464h-19.19v14.8h19.19Z" transform="translate(-352.126 -221.165)" fill="#60cb28"/>
      <g id="Grupo_1013397" data-name="Grupo 1013397" transform="translate(592.942 373.299)" opacity="0.3">
        <path id="Trazado_599881" data-name="Trazado 599881" d="M964.258,594.464h-19.19v14.8h19.19Z" transform="translate(-945.068 -594.464)"/>
      </g>
      <path id="Trazado_599882" data-name="Trazado 599882" d="M967.973,609.133s-.035-3.3-.035-7.363.012-7.363.035-7.363.036,3.3.036,7.363S968,609.133,967.973,609.133Z" transform="translate(-360.647 -221.144)" fill="#1c2d55"/>
      <path id="Trazado_599883" data-name="Trazado 599883" d="M972.188,612.677h-1.473v1.661h1.473Z" transform="translate(-361.682 -227.951)" fill="#f5f5f5"/>
      <path id="Trazado_599884" data-name="Trazado 599884" d="M956.58,594.521H954.4v3.157h2.18Z" transform="translate(-355.603 -221.186)" fill="#1c2d55"/>
      <path id="Trazado_599885" data-name="Trazado 599885" d="M956.58,612.958H954.4v3.157h2.18Z" transform="translate(-355.603 -228.056)" fill="#1c2d55"/>
      <path id="Trazado_599886" data-name="Trazado 599886" d="M989.715,594.446H970.528v14.8h19.187Z" transform="translate(-361.612 -221.158)" fill="#60cb28"/>
      <path id="Trazado_599887" data-name="Trazado 599887" d="M993.415,609.115s-.036-3.3-.036-7.363.012-7.363.036-7.363.035,3.3.035,7.363S993.438,609.115,993.415,609.115Z" transform="translate(-370.127 -221.137)" fill="#1c2d55"/>
      <path id="Trazado_599888" data-name="Trazado 599888" d="M997.65,612.659h-1.473v1.661h1.473Z" transform="translate(-371.169 -227.944)" fill="#f5f5f5"/>
      <g id="Grupo_1013398" data-name="Grupo 1013398" transform="translate(614.77 373.324)" opacity="0.5">
        <path id="Trazado_599889" data-name="Trazado 599889" d="M982.04,594.5h-2.18v3.157h2.18Z" transform="translate(-979.86 -594.503)" fill="#fff"/>
      </g>
      <g id="Grupo_1013399" data-name="Grupo 1013399" transform="translate(614.77 384.88)" opacity="0.5">
        <path id="Trazado_599890" data-name="Trazado 599890" d="M982.04,612.922h-2.18v3.157h2.18Z" transform="translate(-979.86 -612.922)" fill="#fff"/>
      </g>
      <path id="Trazado_599891" data-name="Trazado 599891" d="M991.425,570.845H972.237v14.8h19.188Z" transform="translate(-362.249 -212.365)" fill="#60cb28"/>
      <path id="Trazado_599892" data-name="Trazado 599892" d="M995.142,585.532s-.036-3.3-.036-7.363.012-7.363.036-7.363.035,3.3.035,7.363S995.165,585.532,995.142,585.532Z" transform="translate(-370.77 -212.35)" fill="#1c2d55"/>
      <path id="Trazado_599893" data-name="Trazado 599893" d="M999.356,589.076h-1.471v1.661h1.471Z" transform="translate(-371.806 -219.157)" fill="#f5f5f5"/>
      <path id="Trazado_599894" data-name="Trazado 599894" d="M983.749,570.919h-2.18v3.157h2.18Z" transform="translate(-365.726 -212.392)" fill="#1c2d55"/>
      <path id="Trazado_599895" data-name="Trazado 599895" d="M983.749,589.339h-2.18V592.5h2.18Z" transform="translate(-365.726 -219.255)" fill="#1c2d55"/>
      <path id="Trazado_599896" data-name="Trazado 599896" d="M990.733,618.028H971.542v14.8h19.191Z" transform="translate(-361.99 -229.945)" fill="#60cb28"/>
      <g id="Grupo_1013400" data-name="Grupo 1013400" transform="translate(609.552 388.083)" opacity="0.3">
        <path id="Trazado_599897" data-name="Trazado 599897" d="M990.733,618.028H971.542v14.8h19.191Z" transform="translate(-971.542 -618.028)"/>
      </g>
      <path id="Trazado_599898" data-name="Trazado 599898" d="M994.447,632.716s-.036-3.3-.036-7.363.012-7.363.036-7.363.035,3.3.035,7.363S994.47,632.716,994.447,632.716Z" transform="translate(-370.511 -229.931)" fill="#1c2d55"/>
      <path id="Trazado_599899" data-name="Trazado 599899" d="M998.662,636.259H997.19v1.661h1.473Z" transform="translate(-371.547 -236.738)" fill="#f5f5f5"/>
      <path id="Trazado_599900" data-name="Trazado 599900" d="M983.054,618.1h-2.179v3.156h2.179Z" transform="translate(-365.468 -229.973)" fill="#1c2d55"/>
      <path id="Trazado_599901" data-name="Trazado 599901" d="M983.054,636.522h-2.179v3.157h2.179Z" transform="translate(-365.468 -236.835)" fill="#1c2d55"/>
      <path id="Trazado_599902" data-name="Trazado 599902" d="M958.663,618.028h-19.19v14.8h19.19Z" transform="translate(-350.042 -229.945)" fill="#60cb28"/>
      <path id="Trazado_599903" data-name="Trazado 599903" d="M962.359,632.716s-.036-3.3-.036-7.363.012-7.363.036-7.363.035,3.3.035,7.363S962.382,632.716,962.359,632.716Z" transform="translate(-358.555 -229.931)" fill="#1c2d55"/>
      <path id="Trazado_599904" data-name="Trazado 599904" d="M966.595,636.259h-1.473v1.661h1.473Z" transform="translate(-359.598 -236.738)" fill="#f5f5f5"/>
      <g id="Grupo_1013401" data-name="Grupo 1013401" transform="translate(595.286 388.131)" opacity="0.5">
        <path id="Trazado_599905" data-name="Trazado 599905" d="M950.985,618.1H948.8v3.156h2.18Z" transform="translate(-948.805 -618.104)" fill="#fff"/>
      </g>
      <g id="Grupo_1013402" data-name="Grupo 1013402" transform="translate(595.286 399.687)" opacity="0.5">
        <path id="Trazado_599906" data-name="Trazado 599906" d="M950.985,636.522H948.8v3.157h2.18Z" transform="translate(-948.805 -636.522)" fill="#fff"/>
      </g>
      <path id="Trazado_599907" data-name="Trazado 599907" d="M910.689,544H906.2v61.139h4.488Z" transform="translate(-337.645 -202.361)" fill="#263c71"/>
      <path id="Trazado_599908" data-name="Trazado 599908" d="M989.907,415.931c0,.165-55.732.306-124.471.306s-124.48-.141-124.48-.306,55.72-.306,124.48-.306S989.907,415.766,989.907,415.931Z" transform="translate(-276.075 -154.531)" fill="#1c2d55"/>
      <path id="Trazado_599909" data-name="Trazado 599909" d="M527.381,1.164,517.014,192.355h63.649L570.378,1.164Z" transform="translate(-192.636 -0.105)" fill="#e0e0e0"/>
      <path id="Trazado_599910" data-name="Trazado 599910" d="M576.783,12.5H532.56l.612-11.332h43.162Z" transform="translate(-198.428 -0.105)" fill="#60cb28"/>
      <path id="Trazado_599911" data-name="Trazado 599911" d="M577.519,64.471H529.632l.813-15.185h46.261Z" transform="translate(-197.337 -18.035)" fill="#60cb28"/>
      <path id="Trazado_599912" data-name="Trazado 599912" d="M578.2,114.171H526.928l.824-15.185h49.771Z" transform="translate(-196.33 -36.553)" fill="#60cb28"/>
      <path id="Trazado_599913" data-name="Trazado 599913" d="M578.86,163.889H524.224l.824-15.184h53Z" transform="translate(-195.322 -55.078)" fill="#60cb28"/>
      <path id="Trazado_599914" data-name="Trazado 599914" d="M579.546,213.719l-58.006-.13.754-15.184h56.438Z" transform="translate(-194.322 -73.596)" fill="#60cb28"/>
      <path id="Trazado_599915" data-name="Trazado 599915" d="M580.222,263.568l-61.386-.259.824-15.184H579.4Z" transform="translate(-193.315 -92.121)" fill="#60cb28"/>
      <path id="Trazado_599916" data-name="Trazado 599916" d="M527.192,1.059s.236,0,.718-.012,1.2,0,2.144-.024c1.908,0,4.724-.024,8.375-.047,7.363-.024,18.13-.059,31.759-.094h.165v.165c2.3,41.89,6.09,111.581,10.426,191.18v.318H516.507v-.318c3.04-54.778,5.678-102.593,7.563-136.744.954-17.034,1.732-30.652,2.25-40.029.271-4.665.483-8.27.624-10.72.07-1.2.129-2.132.165-2.757s.07-.919.07-.919,0,.33-.035.966-.071,1.579-.13,2.8c-.129,2.474-.306,6.09-.541,10.791-.5,9.389-1.2,23.042-2.086,40.1-1.814,34.1-4.359,81.86-7.268,136.556l-.295-.318h63.649l-.306.318c-4.229-79.61-7.929-149.314-10.155-191.2l.176.165c-13.594-.035-24.326-.071-31.665-.094-3.664-.024-6.491-.035-8.411-.047-.943,0-1.673-.012-2.168-.024s-.742-.012-.742-.012Z" transform="translate(-192.447)" fill="#1c2d55"/>
      <path id="Trazado_599917" data-name="Trazado 599917" d="M575.33,35.716H523.757a4.865,4.865,0,0,1,0-9.73H575.33a4.865,4.865,0,1,1,0,9.73Z" transform="translate(-193.336 -9.353)" fill="#e0e0e0"/>
      <path id="Trazado_599918" data-name="Trazado 599918" d="M575.143,35.547a5.275,5.275,0,0,0,1.319-.247,4.823,4.823,0,0,0,2.863-2.38,4.717,4.717,0,0,0-4.182-6.9c-1.367,0-2.8.012-4.312.024-12.133.024-28.826.059-47.274.094a4.582,4.582,0,0,0-2.956,1.1,4.454,4.454,0,0,0-1.531,2.709,4.6,4.6,0,0,0,2.839,5.007,8.068,8.068,0,0,0,3.086.318H534.3c7.987.024,15.185.047,21.252.071,6.019.035,10.9.071,14.324.094,1.661.024,2.957.047,3.9.059l1.013.035a.874.874,0,0,1,.341.035,1.3,1.3,0,0,1-.341.035l-1.013.035c-.93.012-2.238.035-3.9.059-3.428.024-8.316.059-14.324.094-6.067.024-13.265.035-21.252.071H523.369a4.94,4.94,0,0,1-1.685-.342,5.172,5.172,0,0,1-3.216-5.666,5.1,5.1,0,0,1,1.744-3.075,5.2,5.2,0,0,1,3.357-1.237c18.436.035,35.14.071,47.274.094,1.508,0,2.957.012,4.312.024a5.02,5.02,0,0,1,4.394,7.41,4.893,4.893,0,0,1-3.039,2.38,3.706,3.706,0,0,1-1.355.13Z" transform="translate(-193.148 -9.185)" fill="#1c2d55"/>
      <path id="Trazado_599919" data-name="Trazado 599919" d="M33.71,369.943H16.452a7.521,7.521,0,0,1-7.516-7.516V257.442a7.521,7.521,0,0,1,7.516-7.516h22.3a7.521,7.521,0,0,1,7.516,7.516v15.526H43.912V257.442a5.166,5.166,0,0,0-5.16-5.16h-22.3a5.166,5.166,0,0,0-5.16,5.16V362.427a5.165,5.165,0,0,0,5.16,5.159H33.71Z" transform="translate(-3.33 -92.792)" fill="#e0e0e0"/>
      <path id="Trazado_599920" data-name="Trazado 599920" d="M36.323,400.566H12v2.356H36.323Z" transform="translate(-4.47 -148.92)" fill="#e0e0e0"/>
      <path id="Trazado_599921" data-name="Trazado 599921" d="M36.323,368.383H12v2.356H36.323Z" transform="translate(-4.47 -136.929)" fill="#e0e0e0"/>
      <path id="Trazado_599922" data-name="Trazado 599922" d="M36.323,336.2H12v2.356H36.323Z" transform="translate(-4.47 -124.938)" fill="#e0e0e0"/>
      <path id="Trazado_599923" data-name="Trazado 599923" d="M36.323,304.021H12v2.356H36.323Z" transform="translate(-4.47 -112.948)" fill="#e0e0e0"/>
      <path id="Trazado_599924" data-name="Trazado 599924" d="M48.892,480.993V260.469L152.086,210.5v51.055L261.806,210.5v52.139h219.44V480.993Z" transform="translate(-18.217 -78.101)" fill="#60cb28"/>
      <path id="Trazado_599925" data-name="Trazado 599925" d="M450.038,392.191H91.251v59.16H450.038Z" transform="translate(-33.999 -145.799)" fill="#fff"/>
      <path id="Trazado_599926" data-name="Trazado 599926" d="M462.846,439.155c0,.165-83.745.306-187.022.306S88.79,439.32,88.79,439.155s83.721-.306,187.033-.306S462.846,438.99,462.846,439.155Z" transform="translate(-33.083 -163.184)" fill="#60cb28"/>
      <path id="Trazado_599927" data-name="Trazado 599927" d="M125.341,448.586a6.974,6.974,0,0,1,.071.777l.059,2.25h-.247c-.106-5.218-.177-17-.177-30.675.035-9.271.071-17.658.094-23.831.035-2.98.071-5.431.094-7.221l.059-1.967a3.162,3.162,0,0,1,.059-.683,2.388,2.388,0,0,1,.059.683l.059,1.967c.023,1.791.059,4.241.094,7.221.024,6.173.059,14.56.094,23.831,0,13.677-.07,25.445-.176,30.675h-.248l.059-2.25a3.394,3.394,0,0,1,.071-.777Z" transform="translate(-46.592 -143.953)" fill="#60cb28"/>
      <path id="Trazado_599928" data-name="Trazado 599928" d="M166.686,447.76a6.786,6.786,0,0,1,.071.777c.012.577.035,1.319.059,2.25h-.247c-.106-5.219-.177-17-.177-30.675.035-9.271.071-17.658.094-23.831.036-2.98.071-5.431.094-7.221.024-.8.048-1.449.059-1.967a3.163,3.163,0,0,1,.059-.683,2.388,2.388,0,0,1,.059.683c.012.518.035,1.166.059,1.967.024,1.791.059,4.241.094,7.221.024,6.173.059,14.56.094,23.831,0,13.677-.07,25.445-.176,30.675h-.248c.024-.93.048-1.673.059-2.25a3.393,3.393,0,0,1,.071-.777Z" transform="translate(-61.997 -143.645)" fill="#60cb28"/>
      <path id="Trazado_599929" data-name="Trazado 599929" d="M208.05,449.19a5.86,5.86,0,0,1,.07.73c.012.553.036,1.26.059,2.121h-.247c-.106-4.936-.177-16.069-.177-28.991.036-8.753.071-16.681.095-22.524.035-2.815.07-5.124.094-6.821.023-.754.047-1.367.059-1.862a2.769,2.769,0,0,1,.059-.647,2.173,2.173,0,0,1,.058.647c.012.495.036,1.107.059,1.862.024,1.7.059,4.005.095,6.821.023,5.843.058,13.771.094,22.524,0,12.923-.071,24.055-.177,28.991h-.247c.023-.872.047-1.567.059-2.121a2.956,2.956,0,0,1,.07-.73Z" transform="translate(-77.408 -145.429)" fill="#60cb28"/>
      <path id="Trazado_599930" data-name="Trazado 599930" d="M249.4,446.107a6.985,6.985,0,0,1,.071.778c.011.577.035,1.319.059,2.25h-.248c-.106-5.219-.176-17-.176-30.676.035-9.271.07-17.658.094-23.831.035-2.992.07-5.431.094-7.221.024-.8.047-1.449.059-1.968a3.068,3.068,0,0,1,.059-.683,2.422,2.422,0,0,1,.059.683c.011.518.035,1.166.059,1.968.023,1.791.058,4.241.094,7.221.023,6.172.059,14.56.094,23.831,0,13.677-.071,25.445-.177,30.676h-.247c.024-.93.047-1.673.059-2.25a3.353,3.353,0,0,1,.071-.778Z" transform="translate(-92.813 -143.029)" fill="#60cb28"/>
      <path id="Trazado_599931" data-name="Trazado 599931" d="M290.757,448.207a5.89,5.89,0,0,1,.071.719c.012.541.035,1.237.059,2.085h-.247c-.106-4.854-.177-15.786-.177-28.5.035-8.611.071-16.4.094-22.135.035-2.768.071-5.03.094-6.7.024-.73.047-1.343.059-1.826a2.8,2.8,0,0,1,.059-.636,2.111,2.111,0,0,1,.059.636c.012.483.035,1.084.059,1.826.023,1.673.059,3.946.094,6.7.024,5.749.059,13.536.094,22.135,0,12.7-.07,23.643-.176,28.5h-.248c.024-.848.047-1.543.059-2.085a2.884,2.884,0,0,1,.071-.719Z" transform="translate(-108.225 -145.436)" fill="#60cb28"/>
      <path id="Trazado_599932" data-name="Trazado 599932" d="M332.1,447.032a7.029,7.029,0,0,1,.07.8c.012.6.035,1.366.059,2.332h-.247c-.106-5.419-.177-17.646-.177-31.842.035-9.624.071-18.342.094-24.739.036-3.109.071-5.642.095-7.492.023-.836.047-1.508.058-2.038a3.3,3.3,0,0,1,.059-.707,2.579,2.579,0,0,1,.059.707c.012.53.035,1.2.059,2.038.024,1.85.059,4.394.094,7.492.024,6.409.059,15.114.094,24.739,0,14.2-.07,26.423-.176,31.842H332c.023-.966.047-1.732.058-2.332a3.557,3.557,0,0,1,.071-.8Z" transform="translate(-123.63 -142.504)" fill="#60cb28"/>
      <path id="Trazado_599933" data-name="Trazado 599933" d="M373.466,447.422a5.831,5.831,0,0,1,.071.707c.012.542.035,1.225.059,2.062h-.247c-.106-4.783-.177-15.573-.177-28.108,0-8.528.035-16.245.094-21.84.035-2.722.071-4.96.094-6.62.024-.719.047-1.319.059-1.8a2.579,2.579,0,0,1,.059-.624,1.981,1.981,0,0,1,.059.624c.012.483.035,1.072.059,1.8.023,1.649.059,3.887.094,6.62.059,5.584.094,13.312.094,21.84,0,12.534-.07,23.313-.176,28.108h-.248c.024-.836.047-1.52.059-2.062a2.718,2.718,0,0,1,.071-.707Z" transform="translate(-139.041 -145.429)" fill="#60cb28"/>
      <path id="Trazado_599934" data-name="Trazado 599934" d="M414.81,450.067a5.931,5.931,0,0,1,.071.73c.011.553.035,1.249.059,2.12h-.248c-.106-4.924-.176-16.033-.176-28.932.035-8.741.07-16.646.094-22.489.035-2.815.07-5.112.094-6.809.024-.742.047-1.355.059-1.85a2.773,2.773,0,0,1,.059-.648,2.185,2.185,0,0,1,.059.648c.011.5.035,1.107.059,1.85.023,1.7.058,4.005.094,6.809.023,5.831.059,13.748.094,22.489,0,12.9-.071,24.008-.177,28.932H414.7c.024-.871.047-1.567.059-2.12a2.892,2.892,0,0,1,.071-.73Z" transform="translate(-154.446 -145.799)" fill="#60cb28"/>
      <path id="Trazado_599935" data-name="Trazado 599935" d="M456.174,449.556a5.86,5.86,0,0,1,.07.73c.012.553.036,1.249.059,2.109h-.247c-.106-4.889-.177-15.892-.177-28.673.036-8.658.071-16.5.095-22.288.035-2.78.07-5.066.094-6.75.023-.742.047-1.343.059-1.838a2.593,2.593,0,0,1,.059-.636,2.13,2.13,0,0,1,.058.636c.012.483.036,1.1.059,1.838.024,1.685.059,3.97.095,6.75.023,5.784.058,13.618.094,22.288,0,12.782-.071,23.8-.177,28.673h-.247c.023-.86.047-1.555.059-2.109a2.953,2.953,0,0,1,.07-.73Z" transform="translate(-169.858 -145.806)" fill="#60cb28"/>
      <path id="Trazado_599936" data-name="Trazado 599936" d="M497.519,449.038a5.8,5.8,0,0,1,.07.718c.012.542.035,1.237.059,2.085H497.4c-.106-4.842-.177-15.75-.177-28.413.035-8.588.071-16.351.094-22.076.036-2.757.071-5.019.095-6.691.023-.73.047-1.331.058-1.814a2.8,2.8,0,0,1,.059-.636,2.112,2.112,0,0,1,.059.636c.012.483.035,1.084.059,1.814.024,1.673.059,3.934.094,6.691.024,5.736.059,13.5.094,22.076,0,12.676-.07,23.584-.176,28.413h-.247c.023-.848.047-1.543.058-2.085a2.87,2.87,0,0,1,.071-.718Z" transform="translate(-185.262 -145.806)" fill="#60cb28"/>
      <path id="Trazado_599937" data-name="Trazado 599937" d="M538.882,448.505a5.774,5.774,0,0,1,.07.707l.059,2.062h-.247c-.106-4.795-.177-15.609-.177-28.167,0-8.54.036-16.28.095-21.875.035-2.733.07-4.972.094-6.632.023-.73.047-1.319.059-1.8a2.532,2.532,0,0,1,.059-.624,2,2,0,0,1,.058.624c.012.483.036,1.072.059,1.8.024,1.661.059,3.9.095,6.632.058,5.6.094,13.335.094,21.875,0,12.558-.071,23.36-.177,28.167h-.247c.023-.836.047-1.52.059-2.062a2.744,2.744,0,0,1,.07-.707Z" transform="translate(-200.674 -145.793)" fill="#60cb28"/>
      <path id="Trazado_599938" data-name="Trazado 599938" d="M580.226,447.987a5.459,5.459,0,0,1,.071.707c.011.542.035,1.213.059,2.05h-.248c-.106-4.748-.176-15.467-.176-27.907,0-8.47.035-16.127.094-21.676.035-2.71.071-4.924.094-6.573.024-.718.047-1.308.059-1.791a2.543,2.543,0,0,1,.059-.624,2,2,0,0,1,.059.624c.011.483.035,1.072.059,1.791.023,1.638.058,3.864.094,6.573.059,5.548.094,13.217.094,21.676,0,12.44-.071,23.148-.177,27.907h-.247c.024-.836.047-1.508.059-2.05a2.8,2.8,0,0,1,.071-.707Z" transform="translate(-216.079 -145.793)" fill="#60cb28"/>
      <path id="Trazado_599939" data-name="Trazado 599939" d="M621.59,447.575a5.38,5.38,0,0,1,.071.7c.012.53.035,1.2.059,2.026h-.247c-.106-4.712-.177-15.349-.177-27.7,0-8.4.035-16.009.094-21.523.035-2.685.071-4.889.094-6.526.024-.707.047-1.3.059-1.767a2.556,2.556,0,0,1,.059-.612,1.936,1.936,0,0,1,.059.612c.012.471.035,1.06.059,1.767.023,1.626.059,3.84.094,6.526.059,5.5.094,13.112.094,21.523,0,12.346-.07,22.983-.176,27.7h-.248c.024-.824.047-1.5.059-2.026a2.66,2.66,0,0,1,.071-.7Z" transform="translate(-231.491 -145.793)" fill="#60cb28"/>
      <g id="Grupo_1013403" data-name="Grupo 1013403" transform="translate(136.826 222.996)" opacity="0.3">
        <path id="Trazado_599940" data-name="Trazado 599940" d="M237.425,534.8H218.082V364.573a9.671,9.671,0,0,1,19.343,0Z" transform="translate(-218.082 -354.902)"/>
      </g>
      <g id="Grupo_1013404" data-name="Grupo 1013404" transform="translate(187.221 222.985)" opacity="0.3">
        <path id="Trazado_599941" data-name="Trazado 599941" d="M308.076,354.884a9.678,9.678,0,0,1,9.671,9.672V534.778H298.4V364.567a9.678,9.678,0,0,1,9.671-9.671Z" transform="translate(-298.405 -354.884)"/>
      </g>
      <path id="Trazado_599942" data-name="Trazado 599942" d="M220.6,528.528H201.259V347.75a9.671,9.671,0,0,1,19.343,0V528.528Z" transform="translate(-74.988 -125.637)" fill="#263c71"/>
      <path id="Trazado_599943" data-name="Trazado 599943" d="M298.2,528.528H278.859V347.75a9.671,9.671,0,0,1,19.343,0V528.528Z" transform="translate(-103.901 -125.637)" fill="#263c71"/>
      <g id="Grupo_1013405" data-name="Grupo 1013405" transform="translate(31.853 132.396)" opacity="0.3">
        <path id="Trazado_599944" data-name="Trazado 599944" d="M50.769,260.469l102.016-42.244V210.5Z" transform="translate(-50.769 -210.497)"/>
      </g>
      <g id="Grupo_1013406" data-name="Grupo 1013406" transform="translate(137.521 133.42)" opacity="0.3">
        <path id="Trazado_599945" data-name="Trazado 599945" d="M219.19,261.7l106.069-41.843V212.13Z" transform="translate(-219.19 -212.13)"/>
      </g>
      <path id="Trazado_599946" data-name="Trazado 599946" d="M156.315,204.356,48.087,257.12l1.032,2.117,108.229-52.763Z" transform="translate(-17.917 -75.813)" fill="#1c2d55"/>
      <path id="Trazado_599947" data-name="Trazado 599947" d="M322.309,208.8,212.594,259.872l.994,2.136L323.3,210.94Z" transform="translate(-79.211 -77.47)" fill="#1c2d55"/>
      <g id="Grupo_1013407" data-name="Grupo 1013407" transform="translate(30.387 209.413)" opacity="0.3">
        <path id="Trazado_599948" data-name="Trazado 599948" d="M77.947,345.233s-.024-.306-.047-.836l-.047-2.321c-.024-2.061-.071-4.912-.118-8.434l.212.212c-7.445.023-17.788.059-29.227.094-.271.271.365-.377.306-.306v11.591l-.295-.294c8.387.059,15.632.106,20.874.141,2.556.036,4.618.059,6.114.083.671.011,1.225.023,1.649.035a4.657,4.657,0,0,1,.6.035,2.668,2.668,0,0,1-.53.036c-.412,0-.942.023-1.59.035-1.484.024-3.522.047-6.043.082-5.289.036-12.6.083-21.075.142h-.295v-11.9c-.071.059.577-.589.306-.306,11.438.035,21.781.071,29.227.094h.212v.212l-.118,8.564-.047,2.274a4.426,4.426,0,0,1-.047.765Z" transform="translate(-48.432 -333.251)"/>
      </g>
      <g id="Grupo_1013408" data-name="Grupo 1013408" transform="translate(43.869 198.246)" opacity="0.3">
        <path id="Trazado_599949" data-name="Trazado 599949" d="M99.148,315.454H69.921v11.6H99.148Z" transform="translate(-69.921 -315.454)"/>
      </g>
      <g id="Grupo_1013409" data-name="Grupo 1013409" transform="translate(246.517 367.597)" opacity="0.3">
        <path id="Trazado_599950" data-name="Trazado 599950" d="M422.429,597.357s-.024-.306-.047-.836c-.012-.589-.035-1.366-.047-2.321-.024-2.062-.071-4.913-.118-8.435l.212.212c-7.445.024-17.788.059-29.226.095-.271.271.365-.377.306-.307v5.949c0,1.944,0,3.828-.012,5.643l-.294-.295c8.387.059,15.632.106,20.874.142,2.556.035,4.618.059,6.113.082.672.012,1.225.024,1.649.036a4.388,4.388,0,0,1,.6.035,2.724,2.724,0,0,1-.53.035c-.412,0-.942.024-1.59.036-1.484.023-3.522.047-6.043.082-5.289.035-12.6.082-21.063.141h-.295v-11.9c-.07.058.577-.589.306-.307,11.439.036,21.782.071,29.226.095h.212v.212c-.047,3.569-.094,6.479-.117,8.564-.024.942-.036,1.7-.047,2.273a4.369,4.369,0,0,1-.048.766Z" transform="translate(-392.914 -585.375)"/>
      </g>
      <g id="Grupo_1013410" data-name="Grupo 1013410" transform="translate(260 356.43)" opacity="0.3">
        <path id="Trazado_599951" data-name="Trazado 599951" d="M443.63,567.577H414.4v11.6H443.63Z" transform="translate(-414.404 -567.577)"/>
      </g>
      <g id="Grupo_1013411" data-name="Grupo 1013411" transform="translate(69.862 331.773)" opacity="0.3">
        <path id="Trazado_599952" data-name="Trazado 599952" d="M140.889,540.248s-.024-.306-.048-.836c-.011-.589-.035-1.367-.058-2.321-.024-2.062-.071-4.913-.118-8.435l.212.212c-7.445.024-17.788.059-29.226.095-.271.27.365-.377.306-.307v11.6l-.306-.295c8.387.059,15.632.106,20.874.142,2.556.035,4.618.058,6.113.082.672.012,1.225.024,1.649.035a4.411,4.411,0,0,1,.6.036,2.789,2.789,0,0,1-.53.035c-.413,0-.942.024-1.59.035-1.484.024-3.522.047-6.043.083-5.29.035-12.6.082-21.075.141h-.295v-11.9c-.07.059.577-.588.306-.306,11.439.036,21.782.071,29.227.094h.211v.212c-.047,3.569-.094,6.479-.117,8.564-.024.943-.036,1.7-.059,2.274a4.45,4.45,0,0,1-.047.766Z" transform="translate(-111.35 -528.278)"/>
      </g>
      <g id="Grupo_1013412" data-name="Grupo 1013412" transform="translate(193.142 190.094)" opacity="0.3">
        <path id="Trazado_599953" data-name="Trazado 599953" d="M337.344,314.429s-.024-.307-.047-.837c-.012-.589-.036-1.366-.047-2.32-.024-2.062-.071-4.913-.118-8.435l.212.212c-7.445.024-17.788.059-29.226.094-.271.271.365-.377.306-.306v11.6l-.294-.294c8.387.059,15.632.106,20.874.141,2.556.036,4.618.059,6.113.083.671.011,1.225.023,1.649.035a4.621,4.621,0,0,1,.6.035,2.659,2.659,0,0,1-.53.036c-.413,0-.943.023-1.59.035-1.484.024-3.522.047-6.043.082-5.29.036-12.605.083-21.063.142h-.294v-11.9c-.071.059.577-.589.306-.306,11.439.035,21.782.071,29.226.094h.212v.212c-.047,3.569-.094,6.479-.118,8.564-.023.942-.035,1.7-.047,2.274a4.338,4.338,0,0,1-.047.765Z" transform="translate(-307.841 -302.459)"/>
      </g>
      <g id="Grupo_1013413" data-name="Grupo 1013413" transform="translate(369.196 207.622)" opacity="0.3">
        <path id="Trazado_599954" data-name="Trazado 599954" d="M617.95,342.38s-.023-.306-.047-.836c-.012-.589-.035-1.366-.047-2.321-.023-2.062-.071-4.913-.118-8.435l.212.212c-7.445.024-17.788.059-29.227.094-.271.271.365-.376.306-.306V342.38l-.294-.295c8.387.059,15.632.106,20.874.142,2.556.035,4.618.059,6.114.082.671.012,1.225.024,1.649.035a4.431,4.431,0,0,1,.6.036,2.718,2.718,0,0,1-.53.035c-.412,0-.942.024-1.591.035-1.484.024-3.522.048-6.043.083-5.289.035-12.6.082-21.063.141h-.295v-11.9c-.07.058.577-.589.307-.307,11.438.036,21.781.071,29.227.095h.212v.212c-.047,3.569-.095,6.479-.118,8.564-.024.942-.035,1.7-.047,2.273a4.514,4.514,0,0,1-.047.766Z" transform="translate(-588.447 -330.398)"/>
      </g>
      <g id="Grupo_1013414" data-name="Grupo 1013414" transform="translate(415.303 316.954)" opacity="0.3">
        <path id="Trazado_599955" data-name="Trazado 599955" d="M691.451,516.639s-.024-.306-.047-.836c-.012-.589-.036-1.366-.047-2.321-.024-2.062-.071-4.912-.118-8.434l.212.212c-7.445.023-17.788.058-29.227.094-.271.271.365-.377.306-.306v11.591l-.294-.294c8.387.059,15.632.106,20.874.141,2.556.035,4.618.059,6.114.082.671.012,1.225.024,1.649.036a4.469,4.469,0,0,1,.6.035,2.643,2.643,0,0,1-.53.035c-.413,0-.943.024-1.59.036-1.484.023-3.522.047-6.043.082-5.29.035-12.605.083-21.075.142h-.295v-11.9c-.07.059.577-.589.306-.306,11.439.035,21.782.07,29.227.094h.212v.212c-.047,3.569-.094,6.479-.117,8.564-.024.942-.036,1.7-.047,2.274a4.368,4.368,0,0,1-.048.766Z" transform="translate(-661.936 -504.658)"/>
      </g>
      <g id="Grupo_1013415" data-name="Grupo 1013415" transform="translate(259.54 221.689)" opacity="0.3">
        <path id="Trazado_599956" data-name="Trazado 599956" d="M442.9,352.818H413.671v11.6H442.9Z" transform="translate(-413.671 -352.818)"/>
      </g>
      <g id="Grupo_1013416" data-name="Grupo 1013416" transform="translate(398.699 196.692)" opacity="0.3">
        <path id="Trazado_599957" data-name="Trazado 599957" d="M664.7,312.976H635.471v11.6H664.7Z" transform="translate(-635.471 -312.976)"/>
      </g>
      <path id="Trazado_599958" data-name="Trazado 599958" d="M562.048,539.038H497.693v64.355h64.355Z" transform="translate(-185.437 -200.514)" fill="#1c2d55"/>
      <path id="Trazado_599959" data-name="Trazado 599959" d="M1267.913,618.161H1243.94v7.516h23.973Z" transform="translate(-463.484 -229.994)" fill="#263c71"/>
      <path id="Trazado_599960" data-name="Trazado 599960" d="M1217.24,612.734v9.943h8.188l3.275-4.76h59.773v-5.183Z" transform="translate(-453.536 -227.972)" fill="#1c2d55"/>
      <path id="Trazado_599961" data-name="Trazado 599961" d="M1195.652,562.24a.616.616,0,0,0-.64-.577c-3.238.13-18.6.836-21.758,2.356-2.409,1.166-5.063,5.5-6.933,8.435-1.343,2.1-4.3,6.75-4.894,9.129a42.977,42.977,0,0,0-.778,8.27l.853,10.979h13.922l1.386-3.628a6.116,6.116,0,0,1,5.716-3.923h13.828V575.057l-.715-12.817Z" transform="translate(-432.449 -208.943)" fill="#60cb28"/>
      <path id="Trazado_599962" data-name="Trazado 599962" d="M1172.144,567.364c-1.926,1.826-3.846,4.948-5.3,7.209-1.236,1.944-3.859,6.079-4.718,8.564a.412.412,0,0,1-.05.13,2.1,2.1,0,0,0,1.274-.754c.307-.612.7-2.7,5.534-10.579,1.474-2.4,2.911-3.8,3.244-4.582Z" transform="translate(-432.984 -211.064)" fill="#263c71"/>
      <path id="Trazado_599963" data-name="Trazado 599963" d="M1191.286,566.074c-3.557.2-11.275.718-13.734,1.567-3.219,1.1-6.82,9.6-6.989,9.978l-2.422,6.22a.265.265,0,0,0,.257.353h6.28a2,2,0,0,0,.69-.129l16.519-6.149a1.916,1.916,0,0,0,1.236-1.791v-8.317A1.73,1.73,0,0,0,1191.286,566.074Z" transform="translate(-435.236 -210.586)" fill="#1c2d55"/>
      <path id="Trazado_599964" data-name="Trazado 599964" d="M1169.23,583.944s2.334-5.218,3.112-6.927c1.18-2.58,3.946-7.869,5.81-8.434,1.706-.519,6.644-1.143,13.583-1.531h.069a1.123,1.123,0,0,1,1.117,1.119v8.506a1.043,1.043,0,0,1-.671.966l-12.2,1.508a3.4,3.4,0,0,0-2.428,1.508l-2.108,3.228a1.107,1.107,0,0,1-.389.07h-5.891Z" transform="translate(-435.648 -210.951)" fill="#263c71"/>
      <path id="Trazado_599965" data-name="Trazado 599965" d="M1183.29,579.982l-4.16,4.618,2.3-15.338.577-.2-1.129,11.367a.333.333,0,0,0,.458.342Z" transform="translate(-439.336 -211.7)" fill="#1c2d55"/>
      <path id="Trazado_599966" data-name="Trazado 599966" d="M1160.213,607.967c-.013-.2.05-.365.157-.365l2.221-.2c.194-.011.358.33.383.742l.094,1.708c.006.271-.075.506-.188.53l-2.277.388c-.107.012-.2-.129-.213-.329l-.188-2.451Z" transform="translate(-432.283 -225.985)" fill="#ebebeb"/>
      <path id="Trazado_599967" data-name="Trazado 599967" d="M1176.244,620.995H1160.22v6.42h16.024Z" transform="translate(-432.29 -231.05)" fill="#1c2d55"/>
      <path id="Trazado_599968" data-name="Trazado 599968" d="M1188.31,622.645a8.766,8.766,0,1,0,8.9-8.635A8.765,8.765,0,0,0,1188.31,622.645Z" transform="translate(-442.756 -228.447)" fill="#1c2d55"/>
      <path id="Trazado_599969" data-name="Trazado 599969" d="M1188.31,627.736v.024a8.766,8.766,0,0,0,17.53.259V628l-17.53-.247Z" transform="translate(-442.756 -233.562)" fill="#1c2d55"/>
      <path id="Trazado_599970" data-name="Trazado 599970" d="M1192.479,624.227a6.156,6.156,0,1,0,6.243-6.067A6.146,6.146,0,0,0,1192.479,624.227Z" transform="translate(-444.31 -229.993)" fill="#fafafa"/>
      <path id="Trazado_599971" data-name="Trazado 599971" d="M1198.723,618.16a6.145,6.145,0,0,0-6.243,6.067l12.31.176A6.15,6.15,0,0,0,1198.723,618.16Z" transform="translate(-444.31 -229.993)" fill="#e0e0e0"/>
      <path id="Trazado_599972" data-name="Trazado 599972" d="M1196.31,625.69a3.752,3.752,0,1,0,3.8-3.7A3.748,3.748,0,0,0,1196.31,625.69Z" transform="translate(-445.737 -231.421)" fill="#1c2d55"/>
      <path id="Trazado_599973" data-name="Trazado 599973" d="M1173.348,574.938h.358a1.636,1.636,0,0,1,1.637,1.638v5.431a1.636,1.636,0,0,1-1.637,1.637h-.358a1.636,1.636,0,0,1-1.638-1.637v-5.431A1.636,1.636,0,0,1,1173.348,574.938Z" transform="translate(-436.571 -213.89)" fill="#1c2d55"/>
      <path id="Trazado_599974" data-name="Trazado 599974" d="M1169.2,590.987h-.188v-9.224a1.658,1.658,0,0,1,1.663-1.661h.433v.188h-.433a1.473,1.473,0,0,0-1.474,1.473Z" transform="translate(-435.566 -215.814)" fill="#1c2d55"/>
      <path id="Trazado_599975" data-name="Trazado 599975" d="M1171,591.663l-.508-8.623a1.088,1.088,0,0,1,1.085-1.154v.188a.913.913,0,0,0-.91.954l.508,8.623H1171Z" transform="translate(-436.116 -216.478)" fill="#1c2d55"/>
      <path id="Trazado_599976" data-name="Trazado 599976" d="M1170.759,596.117H1168.3v2.851h2.459Z" transform="translate(-435.301 -221.781)" fill="#1c2d55"/>
      <path id="Trazado_599977" data-name="Trazado 599977" d="M1170.164,587.48h-1v.189h1Z" transform="translate(-435.621 -218.563)" fill="#1c2d55"/>
      <path id="Trazado_599978" data-name="Trazado 599978" d="M1177.049,565.513a1.4,1.4,0,0,0,.207-.023l.653-.071c.565-.071,1.4-.165,2.484-.283,2.165-.247,5.321-.6,9.267-1.06.5-.058,1-.117,1.525-.164a2.92,2.92,0,0,1,.784.047,3.089,3.089,0,0,1,.765.294,2.9,2.9,0,0,1,1.43,2.026,3.371,3.371,0,0,1,.031.435v25.8h-9.637a9.518,9.518,0,0,0-1.637.082,7,7,0,0,0-1.587.448,6.467,6.467,0,0,0-3.463,3.592,6.234,6.234,0,0,0-.2.6c-.044.2-.119.4-.144.612l-.044.306-.025.153v.153l-.025.318v.177s-.069.059-.057.047H1165.16V584.621a7.724,7.724,0,0,1,.056-.86,8.473,8.473,0,0,1,1.042-3.145c.5-.942.985-1.862,1.456-2.745.947-1.755,1.807-3.381,2.6-4.854s1.481-2.792,2.108-3.946l.445-.836c.069-.129.138-.27.213-.388a3.631,3.631,0,0,1,.245-.354,5.048,5.048,0,0,1,1.11-1.025,5.385,5.385,0,0,1,1.895-.824,4.468,4.468,0,0,1,.709-.118,1.068,1.068,0,0,0-.182.023c-.113.024-.289.048-.527.106a5.408,5.408,0,0,0-1.882.837,5.006,5.006,0,0,0-1.1,1.025c-.082.106-.163.224-.245.342s-.144.259-.213.388l-.439.836-2.1,3.946c-.778,1.473-1.65,3.1-2.579,4.865l-1.462,2.744a8.532,8.532,0,0,0-1.023,3.122,6.489,6.489,0,0,0-.063.86v14.336l-.044-.047h12.165s-.094.082-.044.047v-.177l.025-.318v-.153l.031-.153.05-.318a5.577,5.577,0,0,1,.138-.624c.05-.212.132-.4.2-.612a6.547,6.547,0,0,1,3.526-3.64,6.387,6.387,0,0,1,1.613-.447,11.055,11.055,0,0,1,1.65-.083h9.587l-.044.047V567.163a6.677,6.677,0,0,0-.038-.872,2.517,2.517,0,0,0-.257-.8,2.775,2.775,0,0,0-1.863-1.449,2.483,2.483,0,0,0-.778-.047c-.521.047-1.023.106-1.518.165-3.946.436-7.1.789-9.273,1.025-1.086.118-1.92.212-2.485.271-.282.036-.5.047-.646.071s-.226.023-.226.023Z" transform="translate(-434.131 -209.778)" fill="#1c2d55"/>
      <path id="Trazado_599979" data-name="Trazado 599979" d="M1203.852,597.426a.659.659,0,0,0,.144-.024.826.826,0,0,0,.376-.153.906.906,0,0,0,.376-.5.974.974,0,0,0,.05-.388.942.942,0,0,0-.935-.93H1199.9a.923.923,0,0,0-.627.247,1.024,1.024,0,0,0-.176,1.225.978.978,0,0,0,.458.412,1.466,1.466,0,0,0,.6.07h1.638c.634,0,1.154,0,1.518.012h.414c.094.012.138.012.138.024s-.044,0-.138,0h-.414c-.364.012-.885.011-1.518.023h-1.945a1.05,1.05,0,0,1-.32-.07,1,1,0,0,1-.5-.448,1.114,1.114,0,0,1-.132-.683,1.038,1.038,0,0,1,1.023-.919h3.984a1.027,1.027,0,0,1,.885.553,1.115,1.115,0,0,1,.107.459,1.1,1.1,0,0,1-.063.412.961.961,0,0,1-.408.507,1.007,1.007,0,0,1-.389.141h-.144Z" transform="translate(-446.698 -221.487)" fill="#1c2d55"/>
      <path id="Trazado_599980" data-name="Trazado 599980" d="M1204.4,594.982s-.709.047-1.568.047a13.785,13.785,0,0,1-1.562-.047,13.625,13.625,0,0,1,1.562-.047A13.784,13.784,0,0,1,1204.4,594.982Z" transform="translate(-447.585 -221.34)" fill="#fff"/>
      <path id="Trazado_599981" data-name="Trazado 599981" d="M1186.052,623.659l-1.462-.106c.376-5.243.947-8.376,1.713-9.589a5.8,5.8,0,0,1,4.568-3.016,21.61,21.61,0,0,1,4.524-.141h.364c3.055.13,9.436.024,9.511.024l.019,1.461c-.056,0-6.487.106-9.587-.012h-.364a19.357,19.357,0,0,0-4.216.106,4.4,4.4,0,0,0-3.595,2.368c-.351.554-1.016,2.45-1.487,8.906Z" transform="translate(-441.37 -227.235)" fill="#1c2d55"/>
      <path id="Trazado_599982" data-name="Trazado 599982" d="M1290.864,536.185H1218.8v47.98h72.064Z" transform="translate(-454.117 -199.451)" fill="#263c71"/>
      <path id="Trazado_599983" data-name="Trazado 599983" d="M1290.42,583.838c0-.306-.013-17.906-.037-45.943l.037.036h-70.426l.05-.048v45.943l-.05-.047c41.434.023,70.037.047,70.426.047-.389,0-28.992.023-70.426.047h-.044V537.836h70.514v.036c-.025,28.036-.038,45.636-.038,45.942Z" transform="translate(-454.546 -200.066)" fill="#1c2d55"/>
      <path id="Trazado_599984" data-name="Trazado 599984" d="M1198.2,572.395s-.025.023-.069.059l-.2.141c-.182.129-.439.306-.759.518-.634.436-1.531,1.025-2.516,1.661s-1.9,1.2-2.56,1.6c-.326.2-.6.365-.791.471l-.207.118-.082.035a.349.349,0,0,1,.069-.059l.213-.141c.195-.13.458-.295.766-.5.659-.424,1.55-.989,2.541-1.626s1.876-1.2,2.535-1.638l.766-.494.213-.13s.069-.047.081-.035Z" transform="translate(-443.766 -212.937)" fill="#fafafa"/>
      <path id="Trazado_599985" data-name="Trazado 599985" d="M1193.224,573.71s-.025.023-.069.059l-.2.141c-.176.129-.433.306-.753.518-.64.436-1.531,1.025-2.522,1.661s-1.895,1.2-2.554,1.6c-.333.2-.6.365-.79.471l-.213.118-.082.035s.025-.024.069-.059l.213-.141c.188-.13.458-.295.766-.5.659-.424,1.556-.989,2.547-1.626.972-.636,1.87-1.2,2.528-1.638.32-.2.577-.365.765-.494l.213-.13s.069-.047.082-.035Z" transform="translate(-441.911 -213.427)" fill="#fafafa"/>
      <path id="Trazado_599986" data-name="Trazado 599986" d="M1172.733,579.755a1.606,1.606,0,0,1-.056-.164c-.038-.106-.069-.259-.119-.448a6.422,6.422,0,0,1-.188-1.52,3.2,3.2,0,0,1,.352-1.484,1.928,1.928,0,0,1,.263-.388.9.9,0,0,1,.113-.118,4.083,4.083,0,0,0-.314.542,3.619,3.619,0,0,0-.32,1.461,8.462,8.462,0,0,0,.163,1.508,4.626,4.626,0,0,1,.107.624Z" transform="translate(-436.817 -214.148)" fill="#fafafa"/>
      <path id="Trazado_599987" data-name="Trazado 599987" d="M1161.09,599.805v-.753c.013-.471.044-1.119.107-1.838s.125-1.366.188-1.826c.019-.235.056-.424.069-.553s.031-.2.044-.2v.2l-.044.553c-.05.495-.094,1.119-.157,1.826-.044.707-.094,1.343-.125,1.826-.013.224-.038.4-.038.553a.656.656,0,0,1-.025.2Z" transform="translate(-432.615 -221.228)" fill="#fafafa"/>
      <path id="Trazado_599988" data-name="Trazado 599988" d="M1190.084,608.524a8.689,8.689,0,0,0-.891.248,6.937,6.937,0,0,0-.935.377,8.2,8.2,0,0,0-1.048.636,8.1,8.1,0,0,0-.928.813,5.558,5.558,0,0,0-.634.777c-.332.471-.483.789-.508.789,0,0,.031-.082.107-.235a2.539,2.539,0,0,1,.138-.259,3.728,3.728,0,0,1,.213-.33,5.625,5.625,0,0,1,.634-.8,7.327,7.327,0,0,1,.935-.836,6.675,6.675,0,0,1,1.073-.636,6.581,6.581,0,0,1,.954-.365,3.236,3.236,0,0,1,.376-.094c.107-.024.213-.047.295-.059a.79.79,0,0,1,.245-.024Z" transform="translate(-441.576 -226.402)" fill="#fafafa"/>
      <path id="Trazado_599989" data-name="Trazado 599989" d="M1221.48,572.843v-.318c0-.212-.013-.507-.013-.884,0-.777-.019-1.885-.044-3.263-.05-2.756-.119-6.561-.188-10.767s-.144-8.01-.163-10.767c-.012-1.378-.012-2.5-.012-3.263v-1.119l.012-.082v.318c0,.212.006.506.006.883,0,.777.025,1.885.051,3.263.044,2.757.119,6.561.188,10.767s.138,8.011.163,10.767c.012,1.378.012,2.5.012,3.263v1.2Z" transform="translate(-454.959 -201.759)" fill="#fafafa"/>
      <path id="Trazado_599990" data-name="Trazado 599990" d="M1291.54,622.645a8.766,8.766,0,1,0,8.9-8.635A8.765,8.765,0,0,0,1291.54,622.645Z" transform="translate(-481.219 -228.447)" fill="#1c2d55"/>
      <path id="Trazado_599991" data-name="Trazado 599991" d="M1291.54,627.736v.024a8.766,8.766,0,0,0,17.53.259V628l-17.53-.247Z" transform="translate(-481.219 -233.562)" fill="#1c2d55"/>
      <path id="Trazado_599992" data-name="Trazado 599992" d="M1295.69,624.227a6.156,6.156,0,1,0,6.243-6.067A6.15,6.15,0,0,0,1295.69,624.227Z" transform="translate(-482.765 -229.993)" fill="#fafafa"/>
      <path id="Trazado_599993" data-name="Trazado 599993" d="M1301.933,618.16a6.153,6.153,0,0,0-6.243,6.067l12.31.176A6.146,6.146,0,0,0,1301.933,618.16Z" transform="translate(-482.766 -229.993)" fill="#e0e0e0"/>
      <path id="Trazado_599994" data-name="Trazado 599994" d="M1299.54,625.69a3.752,3.752,0,1,0,3.8-3.7A3.749,3.749,0,0,0,1299.54,625.69Z" transform="translate(-484.2 -231.421)" fill="#1c2d55"/>
      <path id="Trazado_599995" data-name="Trazado 599995" d="M1287.127,624.429S1285.8,612,1298.684,612c11.883,0,11.626,10.7,11.507,12.346h-1.864s.96-10.544-9.643-10.544-9.675,10.756-9.675,10.756-.778-.048-1.87-.13Z" transform="translate(-479.561 -227.699)" fill="#263c71"/>
      <path id="Trazado_599996" data-name="Trazado 599996" d="M1294.384,614.029l-.107.036c-.069.023-.163.047-.295.094a9.6,9.6,0,0,0-1.048.412,8.339,8.339,0,0,0-4.605,5.49,9.9,9.9,0,0,0-.226,1.107c-.019.129-.019.235-.031.306s-.013.106-.025.106,0-.036,0-.106a1.529,1.529,0,0,1,.025-.306,7.882,7.882,0,0,1,.188-1.119,8.191,8.191,0,0,1,4.649-5.537,8.677,8.677,0,0,1,1.06-.388c.132-.036.238-.059.295-.071a.61.61,0,0,0,.107-.024Z" transform="translate(-479.916 -228.455)" fill="#fafafa"/>
      <path id="Trazado_599997" data-name="Trazado 599997" d="M1183.163,618.161H1159.19v7.516h23.973Z" transform="translate(-431.907 -229.994)" fill="#263c71"/>
      <path id="Trazado_599998" data-name="Trazado 599998" d="M1132.49,612.734v9.943h8.188l3.275-4.76h59.786v-5.183Z" transform="translate(-421.958 -227.972)" fill="#1c2d55"/>
      <path id="Trazado_599999" data-name="Trazado 599999" d="M1110.895,562.24a.611.611,0,0,0-.634-.577c-3.238.13-18.6.836-21.759,2.356-2.415,1.166-5.063,5.5-6.939,8.435-1.343,2.1-4.3,6.75-4.887,9.129a41.993,41.993,0,0,0-.778,8.27l.847,10.979h13.922l1.393-3.628a6.116,6.116,0,0,1,5.716-3.923H1111.6V575.057l-.722-12.817Z" transform="translate(-400.872 -208.943)" fill="#60cb28"/>
      <path id="Trazado_600000" data-name="Trazado 600000" d="M1087.387,567.364c-1.92,1.826-3.84,4.948-5.289,7.209-1.236,1.944-3.865,6.079-4.724,8.564a.644.644,0,0,1-.044.13,2.105,2.105,0,0,0,1.267-.754c.307-.612.7-2.7,5.54-10.579,1.474-2.4,2.911-3.8,3.237-4.582Z" transform="translate(-401.406 -211.064)" fill="#263c71"/>
      <path id="Trazado_600001" data-name="Trazado 600001" d="M1106.533,566.074c-3.564.2-11.275.718-13.74,1.567-3.212,1.1-6.82,9.6-6.983,9.978l-2.428,6.22a.267.267,0,0,0,.257.353h6.28a2.029,2.029,0,0,0,.7-.129l16.513-6.149a1.907,1.907,0,0,0,1.236-1.791v-8.317A1.728,1.728,0,0,0,1106.533,566.074Z" transform="translate(-403.656 -210.586)" fill="#1c2d55"/>
      <path id="Trazado_600002" data-name="Trazado 600002" d="M1084.473,583.944s2.334-5.218,3.112-6.927c1.173-2.58,3.946-7.869,5.8-8.434,1.713-.519,6.644-1.143,13.583-1.531h.069a1.128,1.128,0,0,1,1.123,1.119v8.506a1.043,1.043,0,0,1-.671.966l-12.2,1.508a3.39,3.39,0,0,0-2.428,1.508l-2.121,3.228a1.16,1.16,0,0,1-.389.07h-5.891Z" transform="translate(-404.063 -210.951)" fill="#263c71"/>
      <path id="Trazado_600003" data-name="Trazado 600003" d="M1098.53,579.982l-4.16,4.618,2.3-15.338.577-.2-1.135,11.367a.339.339,0,0,0,.464.342Z" transform="translate(-407.755 -211.7)" fill="#1c2d55"/>
      <path id="Trazado_600004" data-name="Trazado 600004" d="M1075.469,607.967c-.012-.2.044-.365.151-.365l2.227-.2c.188-.011.351.33.376.742l.107,1.708c.013.271-.069.506-.188.53l-2.271.388c-.107.012-.2-.129-.213-.329l-.188-2.451Z" transform="translate(-400.712 -225.985)" fill="#ebebeb"/>
      <path id="Trazado_600005" data-name="Trazado 600005" d="M1091.488,620.995H1075.47v6.42h16.018Z" transform="translate(-400.713 -231.05)" fill="#1c2d55"/>
      <path id="Trazado_600006" data-name="Trazado 600006" d="M1103.559,622.645a8.763,8.763,0,1,0,8.89-8.635A8.757,8.757,0,0,0,1103.559,622.645Z" transform="translate(-411.179 -228.447)" fill="#1c2d55"/>
      <path id="Trazado_600007" data-name="Trazado 600007" d="M1103.559,627.736v.024a8.763,8.763,0,1,0,17.524.259V628l-17.524-.247Z" transform="translate(-411.179 -233.562)" fill="#1c2d55"/>
      <path id="Trazado_600008" data-name="Trazado 600008" d="M1107.72,624.227a6.155,6.155,0,1,0,6.249-6.067A6.154,6.154,0,0,0,1107.72,624.227Z" transform="translate(-412.729 -229.993)" fill="#fafafa"/>
      <path id="Trazado_600009" data-name="Trazado 600009" d="M1113.969,618.16a6.154,6.154,0,0,0-6.249,6.067l12.316.176A6.154,6.154,0,0,0,1113.969,618.16Z" transform="translate(-412.729 -229.993)" fill="#e0e0e0"/>
      <path id="Trazado_600010" data-name="Trazado 600010" d="M1111.55,625.69a3.752,3.752,0,1,0,3.808-3.7A3.757,3.757,0,0,0,1111.55,625.69Z" transform="translate(-414.156 -231.421)" fill="#1c2d55"/>
      <path id="Trazado_600011" data-name="Trazado 600011" d="M1088.6,574.938h.351a1.632,1.632,0,0,1,1.638,1.638v5.431a1.632,1.632,0,0,1-1.638,1.637h-.351a1.632,1.632,0,0,1-1.637-1.637v-5.431A1.632,1.632,0,0,1,1088.6,574.938Z" transform="translate(-404.994 -213.89)" fill="#1c2d55"/>
      <path id="Trazado_600012" data-name="Trazado 600012" d="M1084.438,590.987h-.188v-9.224a1.662,1.662,0,0,1,1.663-1.661h.439v.188h-.439a1.477,1.477,0,0,0-1.474,1.473Z" transform="translate(-403.985 -215.814)" fill="#1c2d55"/>
      <path id="Trazado_600013" data-name="Trazado 600013" d="M1086.24,591.663l-.5-8.623a1.036,1.036,0,0,1,.295-.813,1.052,1.052,0,0,1,.784-.341v.188a.949.949,0,0,0-.659.283.884.884,0,0,0-.245.671l.508,8.623h-.182Z" transform="translate(-404.538 -216.478)" fill="#1c2d55"/>
      <path id="Trazado_600014" data-name="Trazado 600014" d="M1086.006,596.117h-2.466v2.851h2.466Z" transform="translate(-403.72 -221.781)" fill="#1c2d55"/>
      <path id="Trazado_600015" data-name="Trazado 600015" d="M1085.424,587.48h-1v.189h1Z" transform="translate(-404.048 -218.563)" fill="#1c2d55"/>
      <path id="Trazado_600016" data-name="Trazado 600016" d="M1092.293,565.513a1.518,1.518,0,0,0,.213-.023l.646-.071c.565-.071,1.405-.165,2.485-.283,2.171-.247,5.327-.6,9.273-1.06.5-.058,1-.117,1.518-.164a2.966,2.966,0,0,1,.791.047,3.19,3.19,0,0,1,.766.294,2.832,2.832,0,0,1,1.154,1.2,2.666,2.666,0,0,1,.27.825,2.535,2.535,0,0,1,.038.435v25.8h-9.637a9.49,9.49,0,0,0-1.638.082,7.045,7.045,0,0,0-1.593.448,6.487,6.487,0,0,0-3.463,3.592,7.7,7.7,0,0,0-.339,1.213l-.05.306-.019.153v.153l-.025.318v.177s-.069.059-.057.047H1080.41V584.621a6.473,6.473,0,0,1,.056-.86,8.466,8.466,0,0,1,1.035-3.145c.508-.942.991-1.862,1.462-2.745.941-1.755,1.8-3.381,2.591-4.854s1.487-2.792,2.108-3.946l.446-.836c.075-.129.144-.27.213-.388s.169-.236.251-.354a4.889,4.889,0,0,1,1.1-1.025,5.382,5.382,0,0,1,1.895-.824,4.587,4.587,0,0,1,.709-.118,1.045,1.045,0,0,0-.176.023c-.119.024-.295.048-.533.106a5.407,5.407,0,0,0-1.882.837,5.3,5.3,0,0,0-1.1,1.025c-.082.106-.163.224-.245.342s-.144.259-.213.388c-.138.271-.282.542-.433.836-.615,1.154-1.311,2.474-2.1,3.946s-1.65,3.1-2.585,4.865c-.471.883-.954,1.791-1.456,2.744a8.652,8.652,0,0,0-1.029,3.122,7.724,7.724,0,0,0-.056.86v14.336l-.05-.047H1092.6s-.094.082-.05.047v-.177l.025-.318v-.153l.038-.153.044-.318a5.584,5.584,0,0,1,.144-.624,4.665,4.665,0,0,1,.2-.612,6.537,6.537,0,0,1,3.52-3.64,6.459,6.459,0,0,1,1.613-.447,11.14,11.14,0,0,1,1.65-.083h9.593l-.05.047V567.163a6.656,6.656,0,0,0-.038-.872,2.237,2.237,0,0,0-.257-.8,2.732,2.732,0,0,0-1.117-1.166,2.841,2.841,0,0,0-.747-.283,2.471,2.471,0,0,0-.778-.047c-.514.047-1.023.106-1.518.165-3.946.436-7.1.789-9.267,1.025-1.085.118-1.92.212-2.491.271-.282.036-.489.047-.646.071-.138.012-.219.023-.219.023Z" transform="translate(-402.554 -209.778)" fill="#1c2d55"/>
      <path id="Trazado_600017" data-name="Trazado 600017" d="M1119.1,597.426a.721.721,0,0,0,.144-.024.853.853,0,0,0,.376-.153.968.968,0,0,0,.376-.5,1.109,1.109,0,0,0,.044-.388.888.888,0,0,0-.107-.424.953.953,0,0,0-.822-.506h-3.971a.919.919,0,0,0-.621.247.9.9,0,0,0-.295.589,1.008,1.008,0,0,0,.113.636.992.992,0,0,0,.464.412,1.448,1.448,0,0,0,.6.07h1.638c.64,0,1.154,0,1.525.012h.408c.094.012.144.012.144.024s-.05,0-.144,0h-.408c-.37.012-.885.011-1.525.023H1115.1a1.007,1.007,0,0,1-.828-.518,1.112,1.112,0,0,1-.126-.683,1.022,1.022,0,0,1,.326-.648,1.077,1.077,0,0,1,.7-.27h3.984a1,1,0,0,1,.985,1.013,1.239,1.239,0,0,1-.056.412.941.941,0,0,1-.414.507.973.973,0,0,1-.389.141h-.138Z" transform="translate(-415.12 -221.487)" fill="#1c2d55"/>
      <path id="Trazado_600018" data-name="Trazado 600018" d="M1119.641,594.982s-.7.047-1.562.047a13.946,13.946,0,0,1-1.569-.047,13.784,13.784,0,0,1,1.569-.047A13.622,13.622,0,0,1,1119.641,594.982Z" transform="translate(-416.004 -221.34)" fill="#fff"/>
      <path id="Trazado_600019" data-name="Trazado 600019" d="M1101.3,623.659l-1.462-.106c.376-5.243.941-8.376,1.707-9.589a5.838,5.838,0,0,1,4.574-3.016,21.6,21.6,0,0,1,4.524-.141h.364c3.049.13,9.436.024,9.505.024l.025,1.461c-.063,0-6.494.106-9.593-.012h-.364a19.376,19.376,0,0,0-4.216.106,4.4,4.4,0,0,0-3.6,2.368c-.351.554-1.01,2.45-1.481,8.906Z" transform="translate(-409.793 -227.235)" fill="#1c2d55"/>
      <path id="Trazado_600020" data-name="Trazado 600020" d="M1206.108,536.185H1134.05v47.98h72.058Z" transform="translate(-422.54 -199.451)" fill="#60cb28"/>
      <path id="Trazado_600021" data-name="Trazado 600021" d="M1205.66,583.838c0-.306-.013-17.906-.037-45.943l.037.036h-70.42l.044-.048v45.943l-.044-.047c41.427.023,70.031.047,70.42.047-.389,0-28.992.023-70.42.047h-.05V537.836h70.52v.036c-.025,28.036-.037,45.636-.037,45.942Z" transform="translate(-422.964 -200.066)" fill="#1c2d55"/>
      <path id="Trazado_600022" data-name="Trazado 600022" d="M1113.444,572.395a.371.371,0,0,1-.069.059l-.2.141c-.176.129-.433.306-.753.518-.634.436-1.531,1.025-2.522,1.661s-1.895,1.2-2.554,1.6c-.333.2-.6.365-.79.471l-.213.118-.082.035s.025-.024.069-.059l.213-.141c.188-.13.458-.295.766-.5.659-.424,1.556-.989,2.547-1.626s1.87-1.2,2.528-1.638c.32-.2.577-.365.765-.494l.213-.13s.069-.047.082-.035Z" transform="translate(-412.185 -212.937)" fill="#fafafa"/>
      <path id="Trazado_600023" data-name="Trazado 600023" d="M1108.47,573.709s-.025.023-.069.059l-.2.141c-.182.129-.439.306-.759.518-.634.436-1.531,1.025-2.516,1.661s-1.9,1.2-2.56,1.6c-.326.2-.6.365-.791.471l-.207.118-.088.035a.8.8,0,0,1,.075-.059l.213-.141.766-.5c.659-.424,1.55-.989,2.541-1.626s1.876-1.2,2.535-1.638c.32-.2.577-.365.765-.494.082-.047.151-.095.213-.13.044-.023.069-.047.082-.035Z" transform="translate(-410.33 -213.426)" fill="#fafafa"/>
      <path id="Trazado_600024" data-name="Trazado 600024" d="M1087.983,579.755s-.025-.058-.063-.164-.069-.259-.113-.448a6.1,6.1,0,0,1-.188-1.52,3.2,3.2,0,0,1,.351-1.484,2.289,2.289,0,0,1,.257-.388.7.7,0,0,1,.119-.118,4.433,4.433,0,0,0-.32.542,3.617,3.617,0,0,0-.314,1.461,8.45,8.45,0,0,0,.163,1.508c.069.377.119.624.107.624Z" transform="translate(-405.24 -214.148)" fill="#fafafa"/>
      <path id="Trazado_600025" data-name="Trazado 600025" d="M1076.33,599.805v-.753c.013-.471.05-1.119.107-1.838s.132-1.366.188-1.826c.025-.235.057-.424.069-.553s.038-.2.05-.2v.2c-.012.153-.025.341-.05.553-.044.495-.094,1.119-.151,1.826s-.094,1.343-.132,1.826c-.012.224-.031.4-.031.553a.656.656,0,0,1-.025.2Z" transform="translate(-401.034 -221.228)" fill="#fafafa"/>
      <path id="Trazado_600026" data-name="Trazado 600026" d="M1105.33,608.524a9.012,9.012,0,0,0-.9.248,6.566,6.566,0,0,0-.929.377,7.432,7.432,0,0,0-1.048.636,8.2,8.2,0,0,0-.935.813,5.565,5.565,0,0,0-.634.777c-.333.471-.483.789-.508.789l.107-.235a2.74,2.74,0,0,1,.144-.259,2.683,2.683,0,0,1,.213-.33,5.641,5.641,0,0,1,.634-.8,6.322,6.322,0,0,1,2-1.472,6.588,6.588,0,0,1,.954-.365,3.594,3.594,0,0,1,.376-.094c.107-.024.214-.047.3-.059a.831.831,0,0,1,.251-.024Z" transform="translate(-409.995 -226.402)" fill="#fafafa"/>
      <path id="Trazado_600027" data-name="Trazado 600027" d="M1136.727,572.843v-.318c0-.212-.013-.507-.013-.884,0-.777-.025-1.885-.05-3.263-.044-2.756-.113-6.561-.188-10.767s-.138-8.01-.163-10.767c-.012-1.378-.012-2.5-.012-3.263V542.7c0,.212.012.506.012.883,0,.777.025,1.885.05,3.263.044,2.757.113,6.561.188,10.767s.138,8.011.163,10.767c.013,1.378.013,2.5.013,3.263v1.119l-.013.082Z" transform="translate(-423.378 -201.759)" fill="#fafafa"/>
      <path id="Trazado_600028" data-name="Trazado 600028" d="M1206.789,622.645a8.766,8.766,0,1,0,8.89-8.635A8.757,8.757,0,0,0,1206.789,622.645Z" transform="translate(-449.642 -228.447)" fill="#1c2d55"/>
      <path id="Trazado_600029" data-name="Trazado 600029" d="M1206.789,627.736v.024a8.766,8.766,0,0,0,17.53.259V628l-17.53-.247Z" transform="translate(-449.642 -233.562)" fill="#1c2d55"/>
      <path id="Trazado_600030" data-name="Trazado 600030" d="M1210.96,624.227a6.155,6.155,0,1,0,6.243-6.067A6.145,6.145,0,0,0,1210.96,624.227Z" transform="translate(-451.196 -229.993)" fill="#fafafa"/>
      <path id="Trazado_600031" data-name="Trazado 600031" d="M1217.2,618.16a6.145,6.145,0,0,0-6.243,6.067l12.31.176A6.154,6.154,0,0,0,1217.2,618.16Z" transform="translate(-451.196 -229.993)" fill="#e0e0e0"/>
      <path id="Trazado_600032" data-name="Trazado 600032" d="M1214.79,625.69a3.752,3.752,0,1,0,3.8-3.7A3.748,3.748,0,0,0,1214.79,625.69Z" transform="translate(-452.622 -231.421)" fill="#1c2d55"/>
      <path id="Trazado_600033" data-name="Trazado 600033" d="M1202.367,624.429S1201.037,612,1213.924,612c11.889,0,11.626,10.7,11.513,12.346h-1.864s.954-10.544-9.649-10.544-9.668,10.756-9.668,10.756-.778-.048-1.876-.13Z" transform="translate(-447.98 -227.699)" fill="#263c71"/>
      <path id="Trazado_600034" data-name="Trazado 600034" d="M1209.633,614.029l-.107.036c-.075.023-.169.047-.295.094a8.7,8.7,0,0,0-1.048.412,8.516,8.516,0,0,0-2.924,2.227,8.647,8.647,0,0,0-1.688,3.263,9.625,9.625,0,0,0-.219,1.107c-.025.129-.025.235-.038.306s-.012.106-.025.106v-.106a1.529,1.529,0,0,1,.025-.306,8.926,8.926,0,0,1,.188-1.119,8.274,8.274,0,0,1,1.688-3.31,8.188,8.188,0,0,1,2.968-2.227,8.3,8.3,0,0,1,1.06-.388c.125-.036.232-.059.295-.071a.9.9,0,0,0,.107-.024Z" transform="translate(-448.338 -228.455)" fill="#fafafa"/>
    </g>
    <path id="Trazado_604748" data-name="Trazado 604748" d="M17,0H167a17,17,0,0,1,17,17V54a17,17,0,0,1-17,17H17A17,17,0,0,1,0,54V17A17,17,0,0,1,17,0Z" transform="translate(1166.383 5658)" fill="#304c8e"/>
    <path id="Trazado_604749" data-name="Trazado 604749" d="M17,0H167a17,17,0,0,1,17,17V54a17,17,0,0,1-17,17H17A17,17,0,0,1,0,54V17A17,17,0,0,1,17,0Z" transform="translate(1166.383 5922)" fill="#304c8e"/>
    <path id="Trazado_604750" data-name="Trazado 604750" d="M17,0H167a17,17,0,0,1,17,17V54a17,17,0,0,1-17,17H17A17,17,0,0,1,0,54V17A17,17,0,0,1,17,0Z" transform="translate(1166.383 5792)" fill="#304c8e"/>
    <path id="Trazado_604751" data-name="Trazado 604751" d="M31.619,15.14a5.391,5.391,0,0,1-1.764,3.727,6.013,6.013,0,0,1-4.091,1.338,5.822,5.822,0,0,1-3.143-.846,5.553,5.553,0,0,1-2.1-2.4,8.677,8.677,0,0,1-.769-3.62V11.94A8.74,8.74,0,0,1,20.5,8.218a5.641,5.641,0,0,1,2.148-2.481,5.992,5.992,0,0,1,3.235-.872A5.771,5.771,0,0,1,29.865,6.2a5.592,5.592,0,0,1,1.753,3.789H29.035A3.688,3.688,0,0,0,28.1,7.67a3.1,3.1,0,0,0-2.21-.713,3.029,3.029,0,0,0-2.6,1.237,6.181,6.181,0,0,0-.928,3.628v1.324a6.557,6.557,0,0,0,.866,3.695,2.875,2.875,0,0,0,2.538,1.273,3.354,3.354,0,0,0,2.3-.687,3.582,3.582,0,0,0,.974-2.287Zm1.61-.79a6.542,6.542,0,0,1,.646-2.938A4.718,4.718,0,0,1,35.69,9.4a5.114,5.114,0,0,1,2.687-.7,4.846,4.846,0,0,1,3.645,1.446,5.687,5.687,0,0,1,1.512,3.835l.01.584a6.6,6.6,0,0,1-.631,2.933,4.661,4.661,0,0,1-1.8,2,5.151,5.151,0,0,1-2.712.708,4.813,4.813,0,0,1-3.758-1.564,5.989,5.989,0,0,1-1.41-4.168Zm2.492.215a4.471,4.471,0,0,0,.708,2.681,2.3,2.3,0,0,0,1.969.969,2.275,2.275,0,0,0,1.964-.984,4.938,4.938,0,0,0,.7-2.881,4.413,4.413,0,0,0-.723-2.666,2.437,2.437,0,0,0-3.9-.015A4.844,4.844,0,0,0,35.72,14.565Zm12.274-5.66.072,1.159a3.992,3.992,0,0,1,3.2-1.364,3.067,3.067,0,0,1,3.045,1.7,3.935,3.935,0,0,1,3.4-1.7,3.459,3.459,0,0,1,2.733,1.015,4.469,4.469,0,0,1,.918,2.994V20H58.874V12.781a2.207,2.207,0,0,0-.461-1.548,2.02,2.02,0,0,0-1.528-.492A2.075,2.075,0,0,0,55.5,11.2a2.406,2.406,0,0,0-.754,1.195L54.752,20H52.26V12.7a1.777,1.777,0,0,0-2-1.958,2.193,2.193,0,0,0-2.123,1.22V20H45.646V8.905Zm20.815,11.3a5.155,5.155,0,0,1-3.84-1.492A5.412,5.412,0,0,1,63.5,14.74v-.308a6.657,6.657,0,0,1,.641-2.969,4.878,4.878,0,0,1,1.8-2.035A4.758,4.758,0,0,1,68.523,8.7a4.355,4.355,0,0,1,3.5,1.446,6.114,6.114,0,0,1,1.236,4.091v1H66.01a3.332,3.332,0,0,0,.918,2.174,2.755,2.755,0,0,0,2.025.8,3.374,3.374,0,0,0,2.789-1.384l1.343,1.282a4.486,4.486,0,0,1-1.779,1.543A5.57,5.57,0,0,1,68.81,20.205Zm-.3-9.505a2.1,2.1,0,0,0-1.656.718,3.72,3.72,0,0,0-.8,2H70.8v-.185a3.029,3.029,0,0,0-.667-1.892A2.082,2.082,0,0,0,68.512,10.7ZM81,11.182a6.166,6.166,0,0,0-1.015-.082,2.286,2.286,0,0,0-2.307,1.313V20H75.188V8.905h2.379l.062,1.241A2.807,2.807,0,0,1,80.13,8.7a2.333,2.333,0,0,1,.882.144Zm5.937,7.034a2.253,2.253,0,0,0,1.548-.543,1.857,1.857,0,0,0,.656-1.343h2.348a3.66,3.66,0,0,1-.646,1.933,4.237,4.237,0,0,1-1.641,1.42,4.889,4.889,0,0,1-2.235.523A4.73,4.73,0,0,1,83.278,18.7a5.979,5.979,0,0,1-1.364-4.163v-.256a5.879,5.879,0,0,1,1.354-4.055A4.687,4.687,0,0,1,86.959,8.7a4.558,4.558,0,0,1,3.225,1.154,4.132,4.132,0,0,1,1.307,3.03H89.143a2.282,2.282,0,0,0-.651-1.569,2.1,2.1,0,0,0-1.553-.615,2.193,2.193,0,0,0-1.866.877,4.474,4.474,0,0,0-.667,2.661v.4a4.548,4.548,0,0,0,.651,2.692A2.191,2.191,0,0,0,86.939,18.216ZM96.024,20H93.532V8.905h2.492ZM93.378,6.024a1.322,1.322,0,0,1,.364-.954,1.375,1.375,0,0,1,1.041-.379,1.392,1.392,0,0,1,1.046.379,1.312,1.312,0,0,1,.369.954,1.282,1.282,0,0,1-.369.938,1.4,1.4,0,0,1-1.046.374,1.386,1.386,0,0,1-1.041-.374A1.292,1.292,0,0,1,93.378,6.024ZM105.365,20a3.845,3.845,0,0,1-.287-1.036,4.191,4.191,0,0,1-5.64.287,3.051,3.051,0,0,1-1.056-2.358A3.15,3.15,0,0,1,99.7,14.171a6.385,6.385,0,0,1,3.768-.948H105v-.728a1.943,1.943,0,0,0-.482-1.379,1.91,1.91,0,0,0-1.466-.518,2.195,2.195,0,0,0-1.395.426,1.317,1.317,0,0,0-.543,1.082H98.618a2.765,2.765,0,0,1,.6-1.707,4.03,4.03,0,0,1,1.646-1.246,5.781,5.781,0,0,1,2.323-.451,4.655,4.655,0,0,1,3.107.979,3.492,3.492,0,0,1,1.189,2.753v5a5.671,5.671,0,0,0,.42,2.389V20Zm-2.738-1.794a2.834,2.834,0,0,0,1.389-.359,2.4,2.4,0,0,0,.979-.964V14.791h-1.343a3.673,3.673,0,0,0-2.082.482,1.561,1.561,0,0,0-.7,1.364,1.456,1.456,0,0,0,.477,1.143A1.846,1.846,0,0,0,102.627,18.206ZM112.748,20h-2.492V4.25h2.492Zm7.6.205a5.155,5.155,0,0,1-3.84-1.492,5.412,5.412,0,0,1-1.471-3.973v-.308a6.657,6.657,0,0,1,.641-2.969,4.878,4.878,0,0,1,1.8-2.035,4.758,4.758,0,0,1,2.584-.728,4.355,4.355,0,0,1,3.5,1.446,6.114,6.114,0,0,1,1.236,4.091v1h-7.25a3.332,3.332,0,0,0,.918,2.174,2.755,2.755,0,0,0,2.025.8,3.374,3.374,0,0,0,2.789-1.384l1.343,1.282a4.486,4.486,0,0,1-1.779,1.543A5.57,5.57,0,0,1,120.346,20.205Zm-.3-9.505a2.1,2.1,0,0,0-1.656.718,3.72,3.72,0,0,0-.8,2h4.748v-.185a3.029,3.029,0,0,0-.667-1.892A2.082,2.082,0,0,0,120.049,10.7Zm12.9,6.286a1.13,1.13,0,0,0-.549-1.015,5.834,5.834,0,0,0-1.82-.615,9.356,9.356,0,0,1-2.123-.677,2.833,2.833,0,0,1-1.866-2.615,2.953,2.953,0,0,1,1.21-2.4,4.783,4.783,0,0,1,3.076-.964,4.977,4.977,0,0,1,3.215.984,3.124,3.124,0,0,1,1.225,2.553h-2.492a1.536,1.536,0,0,0-.533-1.195,2.043,2.043,0,0,0-1.415-.477,2.208,2.208,0,0,0-1.338.379,1.2,1.2,0,0,0-.518,1.015,1.01,1.01,0,0,0,.482.892,6.627,6.627,0,0,0,1.948.641,9.222,9.222,0,0,1,2.3.769,3.26,3.26,0,0,1,1.241,1.072,2.733,2.733,0,0,1,.405,1.518,2.891,2.891,0,0,1-1.241,2.425,5.29,5.29,0,0,1-3.25.928,5.737,5.737,0,0,1-2.43-.492,4,4,0,0,1-1.661-1.354,3.2,3.2,0,0,1-.595-1.856h2.42a1.756,1.756,0,0,0,.667,1.359,2.59,2.59,0,0,0,1.63.477,2.52,2.52,0,0,0,1.5-.374A1.158,1.158,0,0,0,132.948,16.985Z" transform="translate(1181.383 5681)" fill="#fff"/>
    <path id="Trazado_604752" data-name="Trazado 604752" d="M43.616,16.155a1.8,1.8,0,0,0-.692-1.518,8.327,8.327,0,0,0-2.5-1.077,12.057,12.057,0,0,1-2.871-1.21,3.831,3.831,0,0,1-2.041-3.343,3.638,3.638,0,0,1,1.471-2.974,5.956,5.956,0,0,1,3.82-1.169,6.452,6.452,0,0,1,2.779.574A4.561,4.561,0,0,1,45.5,7.075a4.2,4.2,0,0,1,.7,2.353H43.616a2.34,2.34,0,0,0-.733-1.83,3.026,3.026,0,0,0-2.1-.661,3.16,3.16,0,0,0-1.974.543A1.81,1.81,0,0,0,38.11,9a1.637,1.637,0,0,0,.759,1.369,8.741,8.741,0,0,0,2.5,1.066,11.509,11.509,0,0,1,2.8,1.179,4.453,4.453,0,0,1,1.548,1.518,3.952,3.952,0,0,1,.492,2A3.553,3.553,0,0,1,44.78,19.1a6.2,6.2,0,0,1-3.881,1.1,7.293,7.293,0,0,1-2.979-.6,5,5,0,0,1-2.112-1.656,4.127,4.127,0,0,1-.754-2.461h2.594a2.415,2.415,0,0,0,.841,1.969,3.682,3.682,0,0,0,2.41.7,3.2,3.2,0,0,0,2.035-.549A1.77,1.77,0,0,0,43.616,16.155Zm9.516,4.05a5.155,5.155,0,0,1-3.84-1.492A5.412,5.412,0,0,1,47.82,14.74v-.308a6.657,6.657,0,0,1,.641-2.969,4.878,4.878,0,0,1,1.8-2.035A4.758,4.758,0,0,1,52.844,8.7a4.355,4.355,0,0,1,3.5,1.446,6.114,6.114,0,0,1,1.236,4.091v1h-7.25a3.332,3.332,0,0,0,.918,2.174,2.755,2.755,0,0,0,2.025.8,3.374,3.374,0,0,0,2.789-1.384l1.343,1.282a4.486,4.486,0,0,1-1.779,1.543A5.57,5.57,0,0,1,53.132,20.205Zm-.3-9.505a2.1,2.1,0,0,0-1.656.718,3.72,3.72,0,0,0-.8,2h4.748v-.185a3.029,3.029,0,0,0-.667-1.892A2.082,2.082,0,0,0,52.834,10.7Zm12.489.482a6.166,6.166,0,0,0-1.015-.082A2.286,2.286,0,0,0,62,12.412V20H59.51V8.905h2.379l.062,1.241a2.807,2.807,0,0,1,2.5-1.446,2.333,2.333,0,0,1,.882.144Zm5.67,5.66,2.348-7.937h2.574L72.071,20H69.907L66.031,8.905h2.584ZM80.12,20H77.628V8.905H80.12ZM77.474,6.024a1.322,1.322,0,0,1,.364-.954,1.375,1.375,0,0,1,1.041-.379,1.392,1.392,0,0,1,1.046.379,1.312,1.312,0,0,1,.369.954,1.282,1.282,0,0,1-.369.938,1.4,1.4,0,0,1-1.046.374,1.386,1.386,0,0,1-1.041-.374A1.292,1.292,0,0,1,77.474,6.024ZM87.39,18.216a2.253,2.253,0,0,0,1.548-.543,1.857,1.857,0,0,0,.656-1.343h2.348a3.66,3.66,0,0,1-.646,1.933,4.237,4.237,0,0,1-1.641,1.42,4.889,4.889,0,0,1-2.235.523A4.73,4.73,0,0,1,83.729,18.7a5.979,5.979,0,0,1-1.364-4.163v-.256a5.879,5.879,0,0,1,1.354-4.055A4.687,4.687,0,0,1,87.41,8.7a4.558,4.558,0,0,1,3.225,1.154,4.132,4.132,0,0,1,1.307,3.03H89.594a2.282,2.282,0,0,0-.651-1.569A2.1,2.1,0,0,0,87.39,10.7a2.193,2.193,0,0,0-1.866.877,4.474,4.474,0,0,0-.667,2.661v.4a4.548,4.548,0,0,0,.651,2.692A2.191,2.191,0,0,0,87.39,18.216ZM96.475,20H93.983V8.905h2.492ZM93.829,6.024a1.322,1.322,0,0,1,.364-.954,1.375,1.375,0,0,1,1.041-.379,1.392,1.392,0,0,1,1.046.379,1.312,1.312,0,0,1,.369.954,1.282,1.282,0,0,1-.369.938,1.4,1.4,0,0,1-1.046.374,1.386,1.386,0,0,1-1.041-.374A1.292,1.292,0,0,1,93.829,6.024ZM98.72,14.35a6.542,6.542,0,0,1,.646-2.938,4.718,4.718,0,0,1,1.815-2.01,5.114,5.114,0,0,1,2.687-.7,4.846,4.846,0,0,1,3.645,1.446,5.687,5.687,0,0,1,1.512,3.835l.01.584a6.6,6.6,0,0,1-.631,2.933,4.661,4.661,0,0,1-1.8,2,5.151,5.151,0,0,1-2.712.708,4.813,4.813,0,0,1-3.758-1.564,5.989,5.989,0,0,1-1.41-4.168Zm2.492.215a4.471,4.471,0,0,0,.708,2.681,2.3,2.3,0,0,0,1.969.969,2.275,2.275,0,0,0,1.964-.984,4.938,4.938,0,0,0,.7-2.881,4.413,4.413,0,0,0-.723-2.666,2.437,2.437,0,0,0-3.9-.015A4.844,4.844,0,0,0,101.212,14.565Zm16.15,2.42a1.13,1.13,0,0,0-.549-1.015,5.834,5.834,0,0,0-1.82-.615,9.356,9.356,0,0,1-2.123-.677A2.833,2.833,0,0,1,111,12.063a2.953,2.953,0,0,1,1.21-2.4,4.783,4.783,0,0,1,3.076-.964,4.977,4.977,0,0,1,3.215.984,3.124,3.124,0,0,1,1.225,2.553h-2.492a1.536,1.536,0,0,0-.533-1.195,2.043,2.043,0,0,0-1.415-.477,2.208,2.208,0,0,0-1.338.379,1.2,1.2,0,0,0-.518,1.015,1.01,1.01,0,0,0,.482.892,6.627,6.627,0,0,0,1.948.641,9.222,9.222,0,0,1,2.3.769,3.26,3.26,0,0,1,1.241,1.072,2.733,2.733,0,0,1,.405,1.518,2.891,2.891,0,0,1-1.241,2.425,5.29,5.29,0,0,1-3.25.928,5.737,5.737,0,0,1-2.43-.492,4,4,0,0,1-1.661-1.354,3.2,3.2,0,0,1-.595-1.856h2.42a1.756,1.756,0,0,0,.667,1.359,2.59,2.59,0,0,0,1.63.477,2.52,2.52,0,0,0,1.5-.374A1.158,1.158,0,0,0,117.362,16.985Z" transform="translate(1181.383 5945)" fill="#fff"/>
    <path id="Trazado_604753" data-name="Trazado 604753" d="M26.492,20H23.908V5.07h2.584Zm5.26-11.095.072,1.282A3.989,3.989,0,0,1,35.054,8.7q3.466,0,3.527,3.968V20H36.09V12.812a2.285,2.285,0,0,0-.456-1.564,1.919,1.919,0,0,0-1.492-.508A2.4,2.4,0,0,0,31.9,12.1V20H29.4V8.905Zm8.9,5.465a6.6,6.6,0,0,1,1.189-4.117A3.811,3.811,0,0,1,45.031,8.7a3.621,3.621,0,0,1,2.851,1.23V4.25h2.492V20H48.117l-.123-1.148a3.673,3.673,0,0,1-2.984,1.354,3.79,3.79,0,0,1-3.153-1.569A6.838,6.838,0,0,1,40.653,14.371Zm2.492.215a4.618,4.618,0,0,0,.651,2.64,2.113,2.113,0,0,0,1.851.948,2.353,2.353,0,0,0,2.235-1.364V12.074a2.317,2.317,0,0,0-2.215-1.333A2.128,2.128,0,0,0,43.8,11.7,5.143,5.143,0,0,0,43.144,14.586Zm16.55,4.327a3.864,3.864,0,0,1-3.117,1.292,3.444,3.444,0,0,1-2.733-1.056,4.493,4.493,0,0,1-.928-3.056V8.905h2.492v7.157q0,2.112,1.753,2.112a2.462,2.462,0,0,0,2.451-1.3V8.905H62.1V20H59.756Zm11.167-1.928a1.13,1.13,0,0,0-.549-1.015,5.834,5.834,0,0,0-1.82-.615,9.356,9.356,0,0,1-2.123-.677A2.833,2.833,0,0,1,64.5,12.063a2.953,2.953,0,0,1,1.21-2.4A4.783,4.783,0,0,1,68.789,8.7,4.977,4.977,0,0,1,72,9.685a3.124,3.124,0,0,1,1.225,2.553H70.738a1.536,1.536,0,0,0-.533-1.195,2.043,2.043,0,0,0-1.415-.477,2.208,2.208,0,0,0-1.338.379,1.2,1.2,0,0,0-.518,1.015,1.01,1.01,0,0,0,.482.892,6.627,6.627,0,0,0,1.948.641,9.222,9.222,0,0,1,2.3.769,3.26,3.26,0,0,1,1.241,1.072,2.733,2.733,0,0,1,.405,1.518,2.891,2.891,0,0,1-1.241,2.425,5.29,5.29,0,0,1-3.25.928,5.737,5.737,0,0,1-2.43-.492,4,4,0,0,1-1.661-1.354,3.2,3.2,0,0,1-.595-1.856h2.42a1.756,1.756,0,0,0,.667,1.359,2.59,2.59,0,0,0,1.63.477,2.52,2.52,0,0,0,1.5-.374A1.158,1.158,0,0,0,70.861,16.985ZM78.6,6.208v2.7h1.958v1.846H78.6v6.193a1.364,1.364,0,0,0,.251.918,1.165,1.165,0,0,0,.9.282,3.838,3.838,0,0,0,.872-.1v1.928a6.137,6.137,0,0,1-1.641.236q-2.871,0-2.871-3.168V10.751H74.285V8.905h1.825v-2.7Zm9.669,4.973a6.166,6.166,0,0,0-1.015-.082,2.286,2.286,0,0,0-2.307,1.313V20H82.458V8.905h2.379l.062,1.241A2.807,2.807,0,0,1,87.4,8.7a2.333,2.333,0,0,1,.882.144ZM92.5,20H90V8.905H92.5ZM89.851,6.024a1.322,1.322,0,0,1,.364-.954,1.375,1.375,0,0,1,1.041-.379A1.392,1.392,0,0,1,92.3,5.07a1.312,1.312,0,0,1,.369.954,1.282,1.282,0,0,1-.369.938,1.4,1.4,0,0,1-1.046.374,1.386,1.386,0,0,1-1.041-.374A1.292,1.292,0,0,1,89.851,6.024ZM101.838,20a3.845,3.845,0,0,1-.287-1.036,4.191,4.191,0,0,1-5.64.287,3.051,3.051,0,0,1-1.056-2.358,3.15,3.15,0,0,1,1.318-2.722,6.385,6.385,0,0,1,3.768-.948h1.528v-.728a1.943,1.943,0,0,0-.482-1.379A1.91,1.91,0,0,0,99.52,10.6a2.195,2.195,0,0,0-1.395.426,1.317,1.317,0,0,0-.543,1.082H95.091a2.765,2.765,0,0,1,.6-1.707,4.03,4.03,0,0,1,1.646-1.246A5.781,5.781,0,0,1,99.664,8.7a4.655,4.655,0,0,1,3.107.979,3.492,3.492,0,0,1,1.189,2.753v5a5.671,5.671,0,0,0,.42,2.389V20ZM99.1,18.206a2.834,2.834,0,0,0,1.389-.359,2.4,2.4,0,0,0,.979-.964V14.791h-1.343a3.673,3.673,0,0,0-2.082.482,1.561,1.561,0,0,0-.7,1.364,1.456,1.456,0,0,0,.477,1.143A1.846,1.846,0,0,0,99.1,18.206ZM109.22,20h-2.492V4.25h2.492Zm7.6.205a5.155,5.155,0,0,1-3.84-1.492,5.412,5.412,0,0,1-1.471-3.973v-.308a6.657,6.657,0,0,1,.641-2.969,4.878,4.878,0,0,1,1.8-2.035,4.758,4.758,0,0,1,2.584-.728,4.355,4.355,0,0,1,3.5,1.446,6.114,6.114,0,0,1,1.236,4.091v1h-7.25a3.332,3.332,0,0,0,.918,2.174,2.755,2.755,0,0,0,2.025.8,3.374,3.374,0,0,0,2.789-1.384l1.343,1.282a4.486,4.486,0,0,1-1.779,1.543A5.57,5.57,0,0,1,116.819,20.205Zm-.3-9.505a2.1,2.1,0,0,0-1.656.718,3.72,3.72,0,0,0-.8,2h4.748v-.185a3.029,3.029,0,0,0-.667-1.892A2.082,2.082,0,0,0,116.521,10.7Zm12.9,6.286a1.13,1.13,0,0,0-.549-1.015,5.834,5.834,0,0,0-1.82-.615,9.356,9.356,0,0,1-2.123-.677,2.833,2.833,0,0,1-1.866-2.615,2.953,2.953,0,0,1,1.21-2.4,4.783,4.783,0,0,1,3.076-.964,4.977,4.977,0,0,1,3.215.984,3.124,3.124,0,0,1,1.225,2.553H129.3a1.536,1.536,0,0,0-.533-1.195,2.043,2.043,0,0,0-1.415-.477,2.208,2.208,0,0,0-1.338.379,1.2,1.2,0,0,0-.518,1.015,1.01,1.01,0,0,0,.482.892,6.627,6.627,0,0,0,1.948.641,9.222,9.222,0,0,1,2.3.769,3.26,3.26,0,0,1,1.241,1.072,2.733,2.733,0,0,1,.405,1.518,2.891,2.891,0,0,1-1.241,2.425,5.29,5.29,0,0,1-3.25.928,5.737,5.737,0,0,1-2.43-.492,4,4,0,0,1-1.661-1.354,3.2,3.2,0,0,1-.595-1.856h2.42a1.756,1.756,0,0,0,.667,1.359,2.59,2.59,0,0,0,1.63.477,2.52,2.52,0,0,0,1.5-.374A1.158,1.158,0,0,0,129.421,16.985Z" transform="translate(1181.383 5815)" fill="#fff"/>
  </g>
</svg>
