<svg id="opinion-del-cliente_1_" data-name="opinion-del-cliente (1)" xmlns="http://www.w3.org/2000/svg" width="72.022" height="72.021" viewBox="0 0 72.022 72.021">
  <path id="Trazado_601544" data-name="Trazado 601544" d="M354.44,288.021a8.449,8.449,0,0,1-8.44-8.44,8.441,8.441,0,1,1,16.88,0A8.449,8.449,0,0,1,354.44,288.021Zm0,0" transform="translate(-297.329 -232.879)" fill="#f6a96c"/>
  <path id="Trazado_601545" data-name="Trazado 601545" d="M334.615,392a14.658,14.658,0,0,0-8.587,2.794l-3.1,7,5.355,7.087h21.241v-2.11A14.891,14.891,0,0,0,334.615,392Zm0,0" transform="translate(-277.504 -336.859)" fill="#5a7dd1"/>
  <path id="Trazado_601546" data-name="Trazado 601546" d="M10.691,17.825,4.155,21.241,5.4,13.748,0,8.623,7.481,7.568,10.691,0l3.289,7.568,7.261,1.055-5.255,5.124,1.241,7.493Zm0,0" transform="translate(0 0)" fill="#ffe126"/>
  <path id="Trazado_601547" data-name="Trazado 601547" d="M196.825,13.729l1.266,7.512-6.541-3.418-6.541,3.418,1.266-7.512L181,8.623l7.343-1.055L191.55,0l3.292,7.568L202.1,8.623Zm0,0" transform="translate(-155.539)" fill="#ffe126"/>
  <path id="Trazado_601548" data-name="Trazado 601548" d="M371.55,17.825l-6.536,3.416,1.241-7.493L361,8.623l7.34-1.055L371.55,0l3.289,7.568,7.4,1.055-5.4,5.124,1.241,7.493Zm0,0" transform="translate(-310.219 0)" fill="#ffe126"/>
  <path id="Trazado_601549" data-name="Trazado 601549" d="M54.44,288.021a8.449,8.449,0,0,1-8.44-8.44,8.441,8.441,0,1,1,16.88,0A8.449,8.449,0,0,1,54.44,288.021Zm0,0" transform="translate(-39.529 -232.879)" fill="#ffbd86"/>
  <path id="Trazado_601550" data-name="Trazado 601550" d="M14.911,392A14.891,14.891,0,0,0,0,406.77v2.11H21.241l5.234-6.33L23.5,394.794A14.655,14.655,0,0,0,14.911,392Zm0,0" transform="translate(0 -336.859)" fill="#60cb28"/>
  <path id="Trazado_601551" data-name="Trazado 601551" d="M262.541,21.241,256,17.823V0l3.292,7.568,7.258,1.055-5.275,5.106Zm0,0" transform="translate(-219.989 0)" fill="#ffe126"/>
  <path id="Trazado_601552" data-name="Trazado 601552" d="M204.44,241a8.465,8.465,0,0,0-8.44,8.44,8.441,8.441,0,1,0,16.88,0A8.465,8.465,0,0,0,204.44,241Zm0,0" transform="translate(-168.429 -207.099)" fill="#fed2a4"/>
  <path id="Trazado_601553" data-name="Trazado 601553" d="M180.54,376.77v6.33H151v-6.33a14.77,14.77,0,0,1,29.54,0Zm0,0" transform="translate(-129.759 -311.079)" fill="#7e10b8"/>
  <path id="Trazado_601554" data-name="Trazado 601554" d="M256,258.021V241a8.465,8.465,0,0,1,8.44,8.44A8.587,8.587,0,0,1,256,258.021Zm0,0" transform="translate(-219.989 -207.099)" fill="#f6a96c"/>
  <path id="Trazado_601555" data-name="Trazado 601555" d="M270.77,376.77v6.33H256V362a14.841,14.841,0,0,1,14.77,14.77Zm0,0" transform="translate(-219.989 -311.079)" fill="#7e10b8"/>
</svg>
