<svg xmlns="http://www.w3.org/2000/svg" width="70.29" height="70.289" viewBox="0 0 70.29 70.289">
  <g id="gestion-de-proyectos_1_" data-name="gestion-de-proyectos (1)" transform="translate(-25.497 -25.5)">
    <path id="Trazado_604361" data-name="Trazado 604361" d="M76.833,106.326h55.6a3.049,3.049,0,0,0,3.049-3.049V47.167H87.506L76.833,57.84Z" transform="translate(-43.509 -18.363)" fill="#f1e8dc"/>
    <circle id="Elipse_4805" data-name="Elipse 4805" cx="1.144" cy="1.144" r="1.144" transform="translate(83.172 31.777)" fill="#9a99a1"/>
    <circle id="Elipse_4806" data-name="Elipse 4806" cx="1.144" cy="1.144" r="1.144" transform="translate(71.127 31.777)" fill="#9a99a1"/>
    <circle id="Elipse_4807" data-name="Elipse 4807" cx="1.144" cy="1.144" r="1.144" transform="translate(59.082 31.777)" fill="#9a99a1"/>
    <circle id="Elipse_4808" data-name="Elipse 4808" cx="1.144" cy="1.144" r="1.144" transform="translate(47.036 31.777)" fill="#9a99a1"/>
    <path id="Trazado_604362" data-name="Trazado 604362" d="M0,0H7.929V4.574a.762.762,0,0,1-.762.762H.762A.762.762,0,0,1,0,4.574Z" transform="translate(67.642 53.308) rotate(90)" fill="#54c1ed"/>
    <path id="Trazado_604363" data-name="Trazado 604363" d="M.762,0H19.211a.762.762,0,0,1,.762.762V5.337H.762A.762.762,0,0,1,0,4.574V.762A.762.762,0,0,1,.762,0Z" transform="translate(83.652 41.263) rotate(90)" fill="#f4644d"/>
    <path id="Trazado_604364" data-name="Trazado 604364" d="M0,0H11.893V5.337H.762A.762.762,0,0,1,0,4.574Z" transform="translate(72.979 49.344) rotate(90)" fill="#8bc932"/>
    <path id="Trazado_604365" data-name="Trazado 604365" d="M0,0H16.01V5.337H.762A.762.762,0,0,1,0,4.574Z" transform="translate(78.315 45.227) rotate(90)" fill="#f9d36b"/>
    <path id="Trazado_604366" data-name="Trazado 604366" d="M84.454,140.23H76.83V91.744L81.4,87.17v50.011a3.05,3.05,0,0,0,3.049,3.049Z" transform="translate(-43.506 -52.267)" fill="#efdbc6"/>
    <path id="Trazado_604367" data-name="Trazado 604367" d="M76.833,57.841h7.624a3.049,3.049,0,0,0,3.049-3.049V47.168Z" transform="translate(-43.509 -18.364)" fill="#e5cfbd"/>
    <g id="Grupo_1014587" data-name="Grupo 1014587" transform="translate(39.225 43.898)">
      <path id="Trazado_604368" data-name="Trazado 604368" d="M133.449,182.455H116.678a1.144,1.144,0,1,1,0-2.287h16.772a1.144,1.144,0,1,1,0,2.287Z" transform="translate(-115.534 -174.983)" fill="#9a99a1"/>
      <path id="Trazado_604369" data-name="Trazado 604369" d="M163.365,216.456H157.4a1.144,1.144,0,1,1,0-2.287h5.967a1.144,1.144,0,1,1,0,2.287Z" transform="translate(-150.046 -203.8)" fill="#9a99a1"/>
      <path id="Trazado_604370" data-name="Trazado 604370" d="M119.347,216.456h-2.668a1.144,1.144,0,1,1,0-2.287h2.668a1.144,1.144,0,1,1,0,2.287Z" transform="translate(-115.535 -203.8)" fill="#9a99a1"/>
      <path id="Trazado_604371" data-name="Trazado 604371" d="M157.18,148.451h-12.5a1.144,1.144,0,0,1,0-2.287h12.5a1.144,1.144,0,1,1,0,2.287Z" transform="translate(-139.265 -146.164)" fill="#9a99a1"/>
      <circle id="Elipse_4809" data-name="Elipse 4809" cx="1.144" cy="1.144" r="1.144" transform="translate(1.144 0.001)" fill="#9a99a1"/>
      <circle id="Elipse_4810" data-name="Elipse 4810" cx="1.144" cy="1.144" r="1.144" transform="translate(15.628 10.369)" fill="#9a99a1"/>
      <path id="Trazado_604372" data-name="Trazado 604372" d="M297.325,342.287H280.554a1.144,1.144,0,1,1,0-2.287h16.772a1.144,1.144,0,1,1,0,2.287Z" transform="translate(-254.424 -310.445)" fill="#9a99a1"/>
      <path id="Trazado_604373" data-name="Trazado 604373" d="M327.242,376.287h-5.967a1.144,1.144,0,0,1,0-2.287h5.967a1.144,1.144,0,1,1,0,2.287Z" transform="translate(-288.937 -339.261)" fill="#9a99a1"/>
      <path id="Trazado_604374" data-name="Trazado 604374" d="M283.223,376.287h-2.668a1.144,1.144,0,0,1,0-2.287h2.668a1.144,1.144,0,0,1,0,2.287Z" transform="translate(-254.424 -339.261)" fill="#9a99a1"/>
      <path id="Trazado_604375" data-name="Trazado 604375" d="M321.056,308.287h-12.5a1.144,1.144,0,0,1,0-2.287h12.5a1.144,1.144,0,1,1,0,2.287Z" transform="translate(-278.154 -281.629)" fill="#9a99a1"/>
      <circle id="Elipse_4811" data-name="Elipse 4811" cx="1.144" cy="1.144" r="1.144" transform="translate(26.13 24.37)" fill="#9a99a1"/>
      <circle id="Elipse_4812" data-name="Elipse 4812" cx="1.144" cy="1.144" r="1.144" transform="translate(40.615 34.739)" fill="#9a99a1"/>
    </g>
    <path id="Trazado_604376" data-name="Trazado 604376" d="M61.328,271.669v-4.511a1.525,1.525,0,0,0-1.387-1.518l-3.365-.306a13.628,13.628,0,0,0-.974-2.34l2.165-2.6a1.525,1.525,0,0,0-.093-2.054l-3.19-3.19a1.525,1.525,0,0,0-2.054-.093l-2.6,2.165a13.632,13.632,0,0,0-2.34-.974l-.306-3.365a1.525,1.525,0,0,0-1.518-1.387H41.157a1.525,1.525,0,0,0-1.518,1.387l-.306,3.365a13.629,13.629,0,0,0-2.34.974l-2.6-2.165a1.525,1.525,0,0,0-2.054.093l-3.19,3.19a1.525,1.525,0,0,0-.093,2.054l2.165,2.6a13.627,13.627,0,0,0-.974,2.34l-3.365.306a1.525,1.525,0,0,0-1.387,1.518v4.511a1.525,1.525,0,0,0,1.387,1.518l3.365.306a13.629,13.629,0,0,0,.974,2.34l-2.165,2.6a1.525,1.525,0,0,0,.093,2.054l3.19,3.19a1.525,1.525,0,0,0,2.054.093l2.6-2.165a13.629,13.629,0,0,0,2.34.974l.306,3.365a1.525,1.525,0,0,0,1.518,1.387h4.511a1.525,1.525,0,0,0,1.518-1.387l.306-3.365a13.634,13.634,0,0,0,2.34-.974l2.6,2.165a1.525,1.525,0,0,0,2.054-.093l3.19-3.19a1.525,1.525,0,0,0,.093-2.054l-2.165-2.6a13.628,13.628,0,0,0,.974-2.34l3.365-.306a1.525,1.525,0,0,0,1.386-1.518ZM43.413,275.9a6.485,6.485,0,1,1,6.485-6.485,6.485,6.485,0,0,1-6.485,6.485Z" transform="translate(0 -191.539)" fill="#46bee8"/>
    <path id="Trazado_604377" data-name="Trazado 604377" d="M50.16,272.969l-3.191,3.191a1.525,1.525,0,0,0-.093,2.054l2.165,2.6a13.831,13.831,0,0,1,5.77-5.77l-2.6-2.165A1.525,1.525,0,0,0,50.16,272.969Z" transform="translate(-17.82 -209.359)" fill="#17afde"/>
    <path id="Trazado_604378" data-name="Trazado 604378" d="M49.041,411.12l-2.165,2.6a1.525,1.525,0,0,0,.093,2.054l3.191,3.19a1.524,1.524,0,0,0,2.054.094l2.6-2.165A13.832,13.832,0,0,1,49.041,411.12Z" transform="translate(-17.82 -326.824)" fill="#17afde"/>
    <path id="Trazado_604379" data-name="Trazado 604379" d="M29.632,346.32a13.774,13.774,0,0,1,.616-4.08l-3.362.306a1.524,1.524,0,0,0-1.386,1.519v4.51a1.524,1.524,0,0,0,1.386,1.519l3.362.306a13.773,13.773,0,0,1-.616-4.08Z" transform="translate(-0.003 -268.446)" fill="#17afde"/>
    <path id="Trazado_604380" data-name="Trazado 604380" d="M96.386,314a8.386,8.386,0,1,0,8.386,8.386A8.386,8.386,0,0,0,96.386,314Zm0,12.2a3.812,3.812,0,1,1,3.812-3.812A3.812,3.812,0,0,1,96.386,326.2Z" transform="translate(-52.973 -244.512)" fill="#17afde"/>
    <path id="Trazado_604381" data-name="Trazado 604381" d="M436.5,100.5v31.453l3.121,6.7a.762.762,0,0,0,1.382,0l3.121-6.7V100.5Z" transform="translate(-348.336 -63.565)" fill="#ffb155"/>
    <path id="Trazado_604382" data-name="Trazado 604382" d="M444.124,32.361H436.5V29.312a3.812,3.812,0,0,1,7.624,0Z" transform="translate(-348.336)" fill="#f4644d" fill-rule="evenodd"/>
    <path id="Trazado_604383" data-name="Trazado 604383" d="M436.5,70.5h7.624v4.574H436.5Z" transform="translate(-348.336 -38.139)" fill="#e6f0f6"/>
    <path id="Trazado_604384" data-name="Trazado 604384" d="M436.5,70.5h3.049v4.574H436.5Z" transform="translate(-348.336 -38.139)" fill="#aacfe2"/>
    <path id="Trazado_604385" data-name="Trazado 604385" d="M441.836,136.866,441,138.658a.762.762,0,0,1-1.381,0l-3.121-6.7V100.5h3.049v31.453Z" transform="translate(-348.336 -63.565)" fill="#f19b40"/>
    <path id="Trazado_604386" data-name="Trazado 604386" d="M439.549,26v6.785H436.5V29.736A3.813,3.813,0,0,1,439.549,26Z" transform="translate(-348.336 -0.424)" fill="#e8533a" fill-rule="evenodd"/>
  </g>
</svg>
