<svg xmlns="http://www.w3.org/2000/svg" width="275.557" height="198.423" viewBox="0 0 275.557 198.423">
  <g id="Grupo_1015049" data-name="Grupo 1015049" transform="translate(6589.264 9891.495)">
    <path id="Trazado_601429" data-name="Trazado 601429" d="M758.172,1028.111a48.253,48.253,0,0,1,14.022,12.855q7.924,10.926,7.924,26.177,0,16.688-7.924,27.974a47.314,47.314,0,0,1-21.614,16.934q-13.687,5.635-31.219,5.639a82.924,82.924,0,0,1-31.339-5.639,48.848,48.848,0,0,1-21.854-16.934q-8.044-11.282-8.045-27.974a44.521,44.521,0,0,1,4.563-20.411,45.5,45.5,0,0,1,12.968-15.492,54.726,54.726,0,0,1,4.643-3.2,58.81,58.81,0,0,1,5.24-2.866,52.782,52.782,0,0,1-5.1-3.1,46.109,46.109,0,0,1-11.271-10.888,40.45,40.45,0,0,1-7.324-24.013q0-16.09,7.324-27.016a46.508,46.508,0,0,1,20.413-16.57q12.968-5.644,29.538-5.644,16.81,0,29.778,5.644a45.736,45.736,0,0,1,20.293,16.57q7.324,10.926,7.324,27.016a40.45,40.45,0,0,1-7.324,24.013,44.251,44.251,0,0,1-11.174,10.964,53.64,53.64,0,0,1-5.11,3.112A55.475,55.475,0,0,1,758.172,1028.111Zm-53.819-49.584A14.888,14.888,0,0,1,710,971.563a18.6,18.6,0,0,1,18.492.12,14.886,14.886,0,0,1,5.643,6.963,26.849,26.849,0,0,1,1.921,10.687,28.7,28.7,0,0,1-1.921,10.93,15.522,15.522,0,0,1-5.524,7.318,15.22,15.22,0,0,1-9.245,2.646,15.112,15.112,0,0,1-15.009-9.964,28.68,28.68,0,0,1-1.921-10.93A27.178,27.178,0,0,1,704.352,978.527Zm8.557,24.883a11.073,11.073,0,0,0,6.452,1.73,10.187,10.187,0,0,0,6.237-1.662l.032-.017.032-.026a10.526,10.526,0,0,0,3.719-5l.02-.051.021-.051a23.633,23.633,0,0,0,1.541-9,21.829,21.829,0,0,0-1.5-8.667l-.01-.023-.009-.022a9.819,9.819,0,0,0-3.712-4.664l-.048-.031-.047-.032a11.324,11.324,0,0,0-6.512-1.646,11.453,11.453,0,0,0-6.367,1.589,9.818,9.818,0,0,0-3.712,4.663l-.01.023-.009.022a22.194,22.194,0,0,0-1.5,8.788,23.619,23.619,0,0,0,1.541,9A11.21,11.21,0,0,0,712.909,1003.41Zm23.983,48.359a26.407,26.407,0,0,1,2.521,12.126,27.369,27.369,0,0,1-2.521,12.134,17.867,17.867,0,0,1-6.964,7.8,20.277,20.277,0,0,1-10.566,2.646,21.588,21.588,0,0,1-10.806-2.646,19.439,19.439,0,0,1-7.2-7.8,29.785,29.785,0,0,1-.12-24.26,18.636,18.636,0,0,1,7.2-7.682,21.342,21.342,0,0,1,10.687-2.637,20.921,20.921,0,0,1,10.686,2.637A17.877,17.877,0,0,1,736.892,1051.769Zm-25.933-3.265a13.509,13.509,0,0,0-5.211,5.605,24.822,24.822,0,0,0,.12,19.579,14.349,14.349,0,0,0,5.254,5.749,16.623,16.623,0,0,0,8.239,1.95,15.29,15.29,0,0,0,7.949-1.916,12.819,12.819,0,0,0,4.989-5.63l.01-.026.011-.025a22.277,22.277,0,0,0,2.005-9.9,21.378,21.378,0,0,0-1.962-9.8l-.011-.025-.011-.017a12.753,12.753,0,0,0-5.083-5.563,15.958,15.958,0,0,0-8.137-1.95A16.325,16.325,0,0,0,710.959,1048.5Zm51.8-23.5a52.864,52.864,0,0,1,13.557,12.974c5.993,8.259,8.893,18.062,8.893,29.161,0,11.939-2.843,22.335-8.837,30.883a52.4,52.4,0,0,1-23.855,18.731c-9.841,4.053-20.923,6.02-33.152,6.02a87.86,87.86,0,0,1-33.249-6.012l-.008-.009H686.1a53.856,53.856,0,0,1-24.071-18.689c-6.1-8.547-8.99-18.961-8.99-30.925a49.628,49.628,0,0,1,5.112-22.717l.006-.009.006-.009a50.615,50.615,0,0,1,14.395-17.205q1.538-1.183,3.155-2.264a51.072,51.072,0,0,1-10.65-10.752l-.02-.025-.02-.034a45.5,45.5,0,0,1-8.263-26.956c0-11.508,2.627-21.556,8.186-29.849l.01-.016.011-.016a51.6,51.6,0,0,1,22.587-18.37c9.386-4.085,19.941-6.066,31.568-6.066,11.776,0,22.413,1.978,31.808,6.066a50.807,50.807,0,0,1,22.488,18.4c5.559,8.293,8.186,18.341,8.186,29.849a45.539,45.539,0,0,1-8.258,26.956A49.012,49.012,0,0,1,762.755,1025.007Z" transform="translate(-7242.3 -10817.689)" fill="#304c8e" fill-rule="evenodd"/>
    <g id="Grupo_1013526" data-name="Grupo 1013526" transform="translate(-6512.13 -9891.495)">
      <path id="Trazado_601430" data-name="Trazado 601430" d="M942.424,1024.212A99.212,99.212,0,1,1,843.212,925,99.21,99.21,0,0,1,942.424,1024.212Z" transform="translate(-744 -925)" fill="#f5f5f5"/>
    </g>
    <path id="Trazado_601431" data-name="Trazado 601431" d="M913.253,1070.79v7.895H901.41v-7.895Z" transform="translate(-7280.062 -10838.66)" fill="#aab2bd"/>
    <path id="Trazado_601432" data-name="Trazado 601432" d="M926.214,1061.48v3.943a3.963,3.963,0,0,1-3.948,3.952H886.735a3.963,3.963,0,0,1-3.948-3.952v-3.943Z" transform="translate(-7277.23 -10837.245)" fill="#ccd1d9"/>
    <path id="Trazado_601433" data-name="Trazado 601433" d="M909.864,1017.86a17.766,17.766,0,1,0-17.765-17.765A17.766,17.766,0,0,0,909.864,1017.86Z" transform="translate(-7278.646 -10825.211)" fill="#263c71"/>
    <path id="Trazado_601434" data-name="Trazado 601434" d="M926.214,1037.492v19.741H882.787v-19.741a3.963,3.963,0,0,1,3.948-3.952h35.531A3.963,3.963,0,0,1,926.214,1037.492Z" transform="translate(-7277.23 -10832.997)" fill="#263c71"/>
    <path id="Trazado_601435" data-name="Trazado 601435" d="M821.963,986.275v3.948H794.328v-3.948a3.959,3.959,0,0,1,3.948-3.947h19.74A3.959,3.959,0,0,1,821.963,986.275Z" transform="translate(-7263.782 -10825.211)" fill="#aab2bd"/>
    <path id="Trazado_601436" data-name="Trazado 601436" d="M821.963,1024.23v3.952a3.955,3.955,0,0,1-3.947,3.943h-19.74a3.956,3.956,0,0,1-3.948-3.943v-3.952Z" transform="translate(-7263.782 -10831.582)" fill="#aab2bd"/>
    <path id="Trazado_601437" data-name="Trazado 601437" d="M821.963,1005.453v13.822H794.328V991.639h27.635Z" transform="translate(-7263.782 -10826.627)" fill="#263c71"/>
    <path id="Trazado_601438" data-name="Trazado 601438" d="M814.068,1042.85a19.741,19.741,0,1,1-19.74,19.74A19.747,19.747,0,0,1,814.068,1042.85Z" transform="translate(-7263.782 -10834.413)" fill="#fee132"/>
    <path id="Trazado_601439" data-name="Trazado 601439" d="M816.9,1078.685a3.947,3.947,0,1,0-3.948-3.952A3.952,3.952,0,0,0,816.9,1078.685Z" transform="translate(-7266.613 -10838.66)" fill="#263c71"/>
    <path id="Trazado_601440" data-name="Trazado 601440" d="M864.573,1075.91a19.74,19.74,0,1,1-7.9,0v8.191a11.844,11.844,0,1,0,7.9,0Z" transform="translate(-7270.86 -10839.439)" fill="#263c71"/>
    <path id="Trazado_601441" data-name="Trazado 601441" d="M867.4,1082.614v7.208a3.948,3.948,0,0,1-7.9,0v-19.74a3.963,3.963,0,0,1,3.948-3.952,3.973,3.973,0,0,1,3.948,3.952v12.533Z" transform="translate(-7273.691 -10837.952)" fill="#263c71"/>
    <path id="Trazado_601442" data-name="Trazado 601442" d="M797.922,1027.376h19.739a5.927,5.927,0,0,0,5.922-5.919v-15.8h19.74a1.98,1.98,0,0,1,1.973,1.976v25.659h3.948v-25.659a5.926,5.926,0,0,0-5.921-5.919h-19.74V985.922A5.929,5.929,0,0,0,817.661,980H797.922A5.929,5.929,0,0,0,792,985.922v35.535A5.927,5.927,0,0,0,797.922,1027.376Zm19.739-3.952H797.922a1.973,1.973,0,0,1-1.974-1.967v-1.976h23.687v1.976A1.973,1.973,0,0,1,817.661,1023.424Zm-21.713-7.895V991.844h23.687v23.686Zm1.974-31.582h19.739a1.977,1.977,0,0,1,1.974,1.974V987.9H795.948v-1.973A1.977,1.977,0,0,1,797.922,983.948Z" transform="translate(-7263.428 -10824.857)" fill="#182952"/>
    <path id="Trazado_601443" data-name="Trazado 601443" d="M822.835,1065.986l2.792-2.79a13.837,13.837,0,0,0-19.54,0l2.791,2.79A9.878,9.878,0,0,1,822.835,1065.986Z" transform="translate(-7265.569 -10836.892)" fill="#263c71"/>
    <path id="Trazado_601444" data-name="Trazado 601444" d="M827.416,1058.991l2.791-2.79a21.731,21.731,0,0,0-30.709,0l2.792,2.79A17.786,17.786,0,0,1,827.416,1058.991Z" transform="translate(-7264.567 -10835.477)" fill="#263c71"/>
    <path id="Trazado_601445" data-name="Trazado 601445" d="M854.853,1056.82H858.8v3.952h-3.947Z" transform="translate(-7272.983 -10836.537)"/>
    <path id="Trazado_601446" data-name="Trazado 601446" d="M854.853,1047.51H858.8v3.943h-3.947Z" transform="translate(-7272.983 -10835.121)"/>
    <path id="Trazado_601447" data-name="Trazado 601447" d="M868.82,1056.82h3.948v3.952H868.82Z" transform="translate(-7275.107 -10836.537)"/>
    <path id="Trazado_601448" data-name="Trazado 601448" d="M868.82,1047.51h3.948v3.943H868.82Z" transform="translate(-7275.107 -10835.121)"/>
    <path id="Trazado_601449" data-name="Trazado 601449" d="M872.768,1003.684a1.973,1.973,0,0,1,1.973-1.967h11.944a19.741,19.741,0,1,0,0-3.951H874.741a5.926,5.926,0,0,0-5.921,5.919v29.611h3.948Zm33.557-19.736c.618,0,1.941,2.019,2.886,5.921h-5.772C904.384,985.967,905.707,983.948,906.325,983.948Zm3.591,9.87c.152,1.212.265,2.521.318,3.947h-7.822c.053-1.426.168-2.736.318-3.947Zm-3.591,21.712c-.617,0-1.94-2.018-2.886-5.919h5.772C908.266,1013.512,906.943,1015.53,906.325,1015.53Zm-3.59-9.87c-.152-1.213-.265-2.519-.318-3.943h7.821c-.054,1.425-.168,2.731-.318,3.943Zm11.449-3.943h7.8a15.681,15.681,0,0,1-1.027,3.943h-7.064C914.035,1004.362,914.136,1003.039,914.183,1001.716Zm7.8-3.951h-7.8c-.048-1.328-.148-2.651-.294-3.947h7.064A15.736,15.736,0,0,1,921.981,997.765Zm-23.514,0h-7.8a15.66,15.66,0,0,1,1.026-3.947h7.065C898.615,995.114,898.514,996.437,898.466,997.765Zm0,3.951c.048,1.323.148,2.646.294,3.943H891.7a15.784,15.784,0,0,1-1.026-3.943Zm-4.449,7.895h5.368a26.172,26.172,0,0,0,1.484,4.927A15.817,15.817,0,0,1,894.017,1009.611Zm17.764,4.927a26.221,26.221,0,0,0,1.484-4.927h5.368A15.822,15.822,0,0,1,911.781,1014.538Zm6.852-24.668h-5.368a26.35,26.35,0,0,0-1.484-4.931A15.86,15.86,0,0,1,918.633,989.869Zm-17.764-4.931a26.493,26.493,0,0,0-1.484,4.931h-5.368A15.854,15.854,0,0,1,900.869,984.939Z" transform="translate(-7275.107 -10824.857)" fill="#182952"/>
  </g>
</svg>
