<svg xmlns="http://www.w3.org/2000/svg" width="276.041" height="198.424" viewBox="0 0 276.041 198.424">
  <g id="Grupo_1015043" data-name="Grupo 1015043" transform="translate(6770.364 10278.167)">
    <path id="Trazado_601450" data-name="Trazado 601450" d="M482.337,587.539l-39.884-9.375,11.632-98.336H565.875v41.635h-69.71L493.707,543q.99-.347,2.048-.7a51.971,51.971,0,0,1,17-2.671,66.817,66.817,0,0,1,24.779,4.308,49.235,49.235,0,0,1,18.935,12.688,52.658,52.658,0,0,1,11.557,20.263,84.744,84.744,0,0,1,3.85,26.544,70.4,70.4,0,0,1-4.006,23.529,59.6,59.6,0,0,1-12.189,20.58,58.358,58.358,0,0,1-20.617,14.475l-.02.009-.021.009c-8.369,3.524-18.077,5.2-28.99,5.2a77.818,77.818,0,0,1-24.271-3.853,72.445,72.445,0,0,1-21.426-11.106l-.031-.024-.031-.024A56.894,56.894,0,0,1,445,634.174l-.018-.033-.017-.033a50.571,50.571,0,0,1-5.494-24.126l.05-5.037H490.07l.271,4.8a20.029,20.029,0,0,0,2.353,8.834,14.392,14.392,0,0,0,5.184,5.41,16.207,16.207,0,0,0,7.915,1.849,13.949,13.949,0,0,0,7.33-1.665,12.013,12.013,0,0,0,4.409-4.68,26.5,26.5,0,0,0,2.7-8.059,62.843,62.843,0,0,0,.884-10.767,38.289,38.289,0,0,0-1.254-10.28l-.015-.053-.013-.053a16.9,16.9,0,0,0-3.3-6.769l-.025-.031-.026-.032a13.676,13.676,0,0,0-5.734-4.114l-.02-.008-.021-.008a24.7,24.7,0,0,0-9.356-1.541c-5.348,0-8.927.929-11.206,2.286a19.555,19.555,0,0,0-5.819,4.754Zm42.909,24.774A31.612,31.612,0,0,1,522,621.92a17.1,17.1,0,0,1-6.244,6.6,18.946,18.946,0,0,1-9.966,2.4,21.241,21.241,0,0,1-10.446-2.522,19.461,19.461,0,0,1-7.084-7.325,25.072,25.072,0,0,1-3-11.046h-40.7q-.006.558,0,1.112.02,2.021.189,3.976a44.037,44.037,0,0,0,4.733,16.646,51.818,51.818,0,0,0,13.929,16.45,67.353,67.353,0,0,0,19.932,10.326,72.749,72.749,0,0,0,22.694,3.6q15.609,0,27.016-4.8A53.279,53.279,0,0,0,551.9,644.133a54.492,54.492,0,0,0,11.167-18.852,65.28,65.28,0,0,0,3.723-21.853,79.672,79.672,0,0,0-3.6-24.975,47.585,47.585,0,0,0-10.446-18.371,44.154,44.154,0,0,0-17.051-11.407,61.726,61.726,0,0,0-22.934-3.963,46.9,46.9,0,0,0-15.369,2.4q-2.409.8-4.327,1.531a37.971,37.971,0,0,0-5.4,2.431l3.962-34.7h69.162V484.916H458.605L448.039,574.25l32.179,7.565a24.408,24.408,0,0,1,7.325-6.124q5.043-3,13.808-3a29.723,29.723,0,0,1,11.287,1.921,18.749,18.749,0,0,1,7.8,5.644,21.967,21.967,0,0,1,4.322,8.765,43.34,43.34,0,0,1,1.442,11.647A67.945,67.945,0,0,1,525.246,612.313Z" transform="translate(-7209.83 -10748.813)" fill="#304c8e" fill-rule="evenodd"/>
    <g id="Grupo_1013527" data-name="Grupo 1013527" transform="translate(-6692.746 -10278.167)">
      <path id="Trazado_601451" data-name="Trazado 601451" d="M729.424,568.212A99.212,99.212,0,1,1,630.212,469,99.212,99.212,0,0,1,729.424,568.212Z" transform="translate(-531 -469)" fill="#f5f5f5"/>
    </g>
    <path id="Trazado_601452" data-name="Trazado 601452" d="M589.824,565.641h-8.971a63.478,63.478,0,0,0-5.853,26.7q0,1.7.089,3.376h14.735Z" transform="translate(-7230.436 -10761.859)" fill="#445ea0"/>
    <path id="Trazado_601453" data-name="Trazado 601453" d="M701.4,620.517h-5.591V641.55H701.4a2.608,2.608,0,0,0,2.6-2.6V623.118A2.608,2.608,0,0,0,701.4,620.517Z" transform="translate(-7248.803 -10770.203)" fill="#293d7c"/>
    <path id="Trazado_601454" data-name="Trazado 601454" d="M661.4,617.062v22.989l21.517,12.838V604.224Z" transform="translate(-7243.572 -10767.726)" fill="#eef6ff"/>
    <path id="Trazado_601455" data-name="Trazado 601455" d="M694.647,656.032a1.3,1.3,0,0,1-1.3,1.3H687.77a1.3,1.3,0,0,1-1.3-1.3V599.138a1.3,1.3,0,0,1,1.3-1.3h5.576a1.3,1.3,0,0,1,1.3,1.3Z" transform="translate(-7247.383 -10766.755)" fill="#62178f"/>
    <path id="Trazado_601456" data-name="Trazado 601456" d="M690.937,656.032V599.138a1.3,1.3,0,0,1,1.3-1.3H687.77a1.3,1.3,0,0,0-1.3,1.3v56.894a1.3,1.3,0,0,0,1.3,1.3h4.467A1.3,1.3,0,0,1,690.937,656.032Z" transform="translate(-7247.383 -10766.755)" fill="#7e19b8"/>
    <path id="Trazado_601457" data-name="Trazado 601457" d="M632.242,621.56h-6.029a1.3,1.3,0,0,0-1.3,1.3v16.662a1.3,1.3,0,0,0,1.3,1.3h6.029Z" transform="translate(-7238.024 -10770.361)" fill="#eef6ff"/>
    <path id="Trazado_601458" data-name="Trazado 601458" d="M628.686,639.523V622.861a1.3,1.3,0,0,1,1.3-1.3h-3.773a1.3,1.3,0,0,0-1.3,1.3v16.663a1.3,1.3,0,0,0,1.3,1.3h3.773A1.3,1.3,0,0,1,628.686,639.523Z" transform="translate(-7238.024 -10770.361)" fill="#d9eafc"/>
    <path id="Trazado_601459" data-name="Trazado 601459" d="M657.382,642.222a1.3,1.3,0,0,1-1.3,1.3H634.55a1.3,1.3,0,0,1-1.3-1.3v-23.24a1.3,1.3,0,0,1,1.3-1.3h21.531a1.3,1.3,0,0,1,1.3,1.3Z" transform="translate(-7239.292 -10769.771)" fill="#62178f"/>
    <path id="Trazado_601460" data-name="Trazado 601460" d="M638.41,642.222v-23.24a1.3,1.3,0,0,1,1.3-1.3H634.55a1.3,1.3,0,0,0-1.3,1.3v23.24a1.3,1.3,0,0,0,1.3,1.3h5.161A1.3,1.3,0,0,1,638.41,642.222Z" transform="translate(-7239.292 -10769.771)" fill="#7e19b8"/>
    <path id="Trazado_601461" data-name="Trazado 601461" d="M716.778,542.5a1.3,1.3,0,0,0-1.3-1.3H679.99a1.3,1.3,0,0,0-1.3,1.3v24.7a1.3,1.3,0,0,0,1.3,1.3H690.7a2.932,2.932,0,0,1,2.079,1.042l4.174,5.583a.92.92,0,0,0,1.558,0l4.174-5.583a2.932,2.932,0,0,1,2.079-1.042h10.712a1.3,1.3,0,0,0,1.3-1.3V542.5Z" transform="translate(-7246.2 -10758.144)" fill="#1c2d55"/>
    <path id="Trazado_601462" data-name="Trazado 601462" d="M683.851,567.2V542.5a1.3,1.3,0,0,1,1.3-1.3H679.99a1.3,1.3,0,0,0-1.3,1.3v24.7a1.3,1.3,0,0,0,1.3,1.3h5.161A1.3,1.3,0,0,1,683.851,567.2Z" transform="translate(-7246.2 -10758.144)" fill="#304c8e"/>
    <path id="Trazado_601463" data-name="Trazado 601463" d="M709.944,551.879H687.659a1.95,1.95,0,1,1,0-3.9h22.284a1.95,1.95,0,1,1,0,3.9Z" transform="translate(-7247.268 -10759.174)" fill="#fff"/>
    <path id="Trazado_601464" data-name="Trazado 601464" d="M709.944,559.011H687.659a1.951,1.951,0,1,1,0-3.9h22.284a1.951,1.951,0,0,1,0,3.9Z" transform="translate(-7247.268 -10760.259)" fill="#fff"/>
    <path id="Trazado_601465" data-name="Trazado 601465" d="M698.845,566.142H687.659a1.951,1.951,0,1,1,0-3.9h11.186a1.951,1.951,0,0,1,0,3.9Z" transform="translate(-7247.268 -10761.343)" fill="#fff"/>
    <path id="Trazado_601466" data-name="Trazado 601466" d="M654.608,546.924a14.462,14.462,0,1,0-14.462-14.461A14.461,14.461,0,0,0,654.608,546.924Z" transform="translate(-7240.34 -10754.617)" fill="#62178f"/>
    <path id="Trazado_601467" data-name="Trazado 601467" d="M645.3,532.462a14.464,14.464,0,0,1,11.882-14.228,14.462,14.462,0,1,0,0,28.455A14.462,14.462,0,0,1,645.3,532.462Z" transform="translate(-7240.34 -10754.616)" fill="#7e19b8"/>
    <path id="Trazado_601468" data-name="Trazado 601468" d="M655.6,541.814a.871.871,0,0,1-.622-.259l-6.831-6.889a4.434,4.434,0,0,1,0-6.227,4.341,4.341,0,0,1,6.176,0l1.3,1.314,1.3-1.314a4.341,4.341,0,0,1,6.176,0,4.429,4.429,0,0,1,0,6.227l-6.885,6.891A.871.871,0,0,1,655.6,541.814Z" transform="translate(-7241.363 -10756.008)" fill="#fff"/>
    <path id="Trazado_601469" data-name="Trazado 601469" d="M597.348,627.4a.734.734,0,0,1-.525-.22l-5.766-5.815a3.741,3.741,0,0,1,0-5.257,3.666,3.666,0,0,1,5.212,0l1.1,1.109,1.1-1.109a3.667,3.667,0,0,1,5.213,0,3.738,3.738,0,0,1,0,5.257l-5.811,5.816A.733.733,0,0,1,597.348,627.4Z" transform="translate(-7232.713 -10769.367)" fill="#62178f"/>
    <path id="Trazado_601470" data-name="Trazado 601470" d="M593.963,620.152a3.734,3.734,0,0,1-.12-5.123c-.059,0-.119-.008-.18-.008a3.643,3.643,0,0,0-2.606,1.088,3.741,3.741,0,0,0,0,5.257l5.766,5.815a.736.736,0,0,0,1.047,0l1.538-1.539Z" transform="translate(-7232.713 -10769.367)" fill="#7e19b8"/>
    <path id="Trazado_601471" data-name="Trazado 601471" d="M628.868,592.565v-3.589a3.645,3.645,0,0,1,3.641-3.641h.842a.26.26,0,0,0,0-.52,3.645,3.645,0,0,1-3.641-3.641v-3.59a3.645,3.645,0,0,1,3.641-3.641.26.26,0,0,0,0-.52,3.645,3.645,0,0,1-3.641-3.641v-3.59a3.645,3.645,0,0,1,3.641-3.641.26.26,0,0,0,0-.52h-1.608a3.645,3.645,0,0,1-3.64-3.641V554.8a3.645,3.645,0,0,1,2.985-3.579V537.242a3.913,3.913,0,0,0-3.9-3.9h-6.068a4.609,4.609,0,0,0-4.428,3.865l-2.445,17.934c-.288,2.117-1.818,3.851-3.4,3.864v33.81h18.039C628.875,592.732,628.868,592.65,628.868,592.565Z" transform="translate(-7235.885 -10756.949)" fill="#ffe2b8"/>
    <path id="Trazado_601472" data-name="Trazado 601472" d="M627.187,533.341h-6.068a4.609,4.609,0,0,0-4.428,3.865l-2.445,17.934c-.288,2.117-1.818,3.851-3.4,3.864v5.162h5.143c1.592,0,3.132-1.739,3.422-3.865l2.444-17.935a4.61,4.61,0,0,1,4.428-3.865h4.809v-1.259A3.913,3.913,0,0,0,627.187,533.341Z" transform="translate(-7235.885 -10756.949)" fill="#ffc987"/>
    <path id="Trazado_601473" data-name="Trazado 601473" d="M635.694,605.742a3.913,3.913,0,0,1-3.9-3.9v-3.59a3.913,3.913,0,0,1,3.9-3.9h21.158a3.912,3.912,0,0,1,3.9,3.9v3.59a3.912,3.912,0,0,1-3.9,3.9Z" transform="translate(-7239.07 -10766.225)" fill="#ffe2b8"/>
    <path id="Trazado_601474" data-name="Trazado 601474" d="M593.476,600.841a1.3,1.3,0,0,1-1.3-1.3V559.58a1.3,1.3,0,0,1,1.3-1.3h13.489a1.3,1.3,0,0,1,1.3,1.3v39.96a1.3,1.3,0,0,1-1.3,1.3H593.476Z" transform="translate(-7233.047 -10760.74)" fill="#293d7c"/>
    <path id="Trazado_601475" data-name="Trazado 601475" d="M597.337,599.54V559.58a1.3,1.3,0,0,1,1.3-1.3h-5.161a1.3,1.3,0,0,0-1.3,1.3v39.96a1.3,1.3,0,0,0,1.3,1.3h5.161A1.3,1.3,0,0,1,597.337,599.54Z" transform="translate(-7233.047 -10760.74)" fill="#1a2b63"/>
    <path id="Trazado_601476" data-name="Trazado 601476" d="M601.038,568.649a3.481,3.481,0,1,0-3.482-3.482A3.481,3.481,0,0,0,601.038,568.649Z" transform="translate(-7233.865 -10761.259)" fill="#aec1ed"/>
    <path id="Trazado_601477" data-name="Trazado 601477" d="M634.792,565.437a3.913,3.913,0,0,1-3.9-3.9v-3.59a3.913,3.913,0,0,1,3.9-3.9h21.922a3.913,3.913,0,0,1,3.9,3.9v3.59a3.913,3.913,0,0,1-3.9,3.9Z" transform="translate(-7238.933 -10760.097)" fill="#ffe2b8"/>
    <path id="Trazado_601478" data-name="Trazado 601478" d="M636.688,578.872a3.912,3.912,0,0,1-3.9-3.9v-3.59a3.912,3.912,0,0,1,3.9-3.9h21.265a3.912,3.912,0,0,1,3.9,3.9v3.59a3.912,3.912,0,0,1-3.9,3.9Z" transform="translate(-7239.221 -10762.14)" fill="#ffe2b8"/>
    <path id="Trazado_601479" data-name="Trazado 601479" d="M636.688,592.307a3.913,3.913,0,0,1-3.9-3.9v-3.589a3.913,3.913,0,0,1,3.9-3.9h21.265a3.912,3.912,0,0,1,3.9,3.9v3.589a3.913,3.913,0,0,1-3.9,3.9Z" transform="translate(-7239.221 -10764.182)" fill="#ffe2b8"/>
    <path id="Trazado_601480" data-name="Trazado 601480" d="M639.71,601.726a3.913,3.913,0,0,1-3.9-3.9V594.35h-.115a3.913,3.913,0,0,0-3.9,3.9v3.59a3.913,3.913,0,0,0,3.9,3.9h21.158a3.912,3.912,0,0,0,3.9-3.9v-.115Z" transform="translate(-7239.07 -10766.225)" fill="#ffc987"/>
    <path id="Trazado_601481" data-name="Trazado 601481" d="M638.808,561.421a3.913,3.913,0,0,1-3.9-3.9v-3.475h-.114a3.912,3.912,0,0,0-3.9,3.9v3.59a3.912,3.912,0,0,0,3.9,3.9h21.922a3.912,3.912,0,0,0,3.9-3.9v-.115Z" transform="translate(-7238.933 -10760.097)" fill="#ffc987"/>
    <path id="Trazado_601482" data-name="Trazado 601482" d="M640.7,574.857a3.913,3.913,0,0,1-3.9-3.9V567.48h-.114a3.912,3.912,0,0,0-3.9,3.9v3.59a3.912,3.912,0,0,0,3.9,3.9h21.265a3.913,3.913,0,0,0,3.9-3.9v-.115Z" transform="translate(-7239.222 -10762.14)" fill="#ffc987"/>
    <path id="Trazado_601483" data-name="Trazado 601483" d="M640.7,588.291a3.914,3.914,0,0,1-3.9-3.9v-3.475h-.114a3.912,3.912,0,0,0-3.9,3.9v3.589a3.913,3.913,0,0,0,3.9,3.9h21.265a3.914,3.914,0,0,0,3.9-3.9v-.115Z" transform="translate(-7239.222 -10764.182)" fill="#ffc987"/>
    <path id="Trazado_601484" data-name="Trazado 601484" d="M608.149,636.127H584.883a.519.519,0,0,0-.517.519v14.928a.52.52,0,0,0,.517.52h23.266a.52.52,0,0,0,.517-.52V636.646A.519.519,0,0,0,608.149,636.127Z" transform="translate(-7231.86 -10772.576)" fill="#ffaf10"/>
    <path id="Trazado_601485" data-name="Trazado 601485" d="M589.527,651.6v-11.37l-5.035-3.892a.506.506,0,0,1,.078-.076.517.517,0,0,0-.2.409v14.928a.519.519,0,0,0,.516.52h5.161A.52.52,0,0,1,589.527,651.6Z" transform="translate(-7231.86 -10772.596)" fill="#ef9614"/>
    <path id="Trazado_601486" data-name="Trazado 601486" d="M608.171,636.127H584.906a.513.513,0,0,0-.393.186l11.615,8.977a.709.709,0,0,0,.82,0l11.615-8.977A.512.512,0,0,0,608.171,636.127Z" transform="translate(-7231.882 -10772.576)" fill="#ffd00d"/>
    <path id="Trazado_601487" data-name="Trazado 601487" d="M727.16,587.823H703.894a.52.52,0,0,0-.517.519V603.27a.52.52,0,0,0,.517.52H727.16a.52.52,0,0,0,.517-.52V588.342A.52.52,0,0,0,727.16,587.823Z" transform="translate(-7249.954 -10765.232)" fill="#ffaf10"/>
    <path id="Trazado_601488" data-name="Trazado 601488" d="M708.538,603.291v-11.37l-5.036-3.892a.588.588,0,0,1,.078-.076.518.518,0,0,0-.2.409V603.29a.52.52,0,0,0,.517.52h5.161A.52.52,0,0,1,708.538,603.291Z" transform="translate(-7249.954 -10765.252)" fill="#ef9614"/>
    <path id="Trazado_601489" data-name="Trazado 601489" d="M727.182,587.823H703.917a.513.513,0,0,0-.393.186l11.616,8.977a.709.709,0,0,0,.819,0l11.615-8.977A.512.512,0,0,0,727.182,587.823Z" transform="translate(-7249.976 -10765.232)" fill="#ffd00d"/>
  </g>
</svg>
