<svg xmlns="http://www.w3.org/2000/svg" width="531.107" height="319.374" viewBox="0 0 531.107 319.374">
  <g id="Grupo_1015205" data-name="Grupo 1015205" transform="translate(1047.188 -3723.802)">
    <g id="Grupo_1014581" data-name="Grupo 1014581" transform="translate(-1511.015 3801.884)">
      <g id="Grupo_1014574" data-name="Grupo 1014574" transform="translate(569.708 -78.082)">
        <g id="Grupo_1014573" data-name="Grupo 1014573">
          <path id="Trazado_604249" data-name="Trazado 604249" d="M705.91,58.1,590.419,130.268A136.184,136.184,0,0,1,633.744-57.389,132.9,132.9,0,0,1,705.91-78.082Z" transform="translate(-569.708 78.082)" fill="#ffe126"/>
        </g>
      </g>
      <g id="Grupo_1014576" data-name="Grupo 1014576" transform="translate(590.419 58.101)">
        <g id="Grupo_1014575" data-name="Grupo 1014575">
          <path id="Trazado_604250" data-name="Trazado 604250" d="M701.646,30.064,668.7,162.2c-36.051-8.989-62.856-28.463-82.545-59.972Z" transform="translate(-586.155 -30.064)" fill="#60cb28"/>
        </g>
      </g>
      <g id="Grupo_1014578" data-name="Grupo 1014578" transform="translate(672.964 58.101)">
        <g id="Grupo_1014577" data-name="Grupo 1014577">
          <path id="Trazado_604251" data-name="Trazado 604251" d="M684.652,30.064l105.834,85.7c-34.031,42.026-86.309,59.519-138.78,46.436Z" transform="translate(-651.706 -30.064)" fill="#7e10b8"/>
        </g>
      </g>
      <g id="Grupo_1014580" data-name="Grupo 1014580" transform="translate(705.91 -78.082)">
        <g id="Grupo_1014579" data-name="Grupo 1014579">
          <path id="Trazado_604252" data-name="Trazado 604252" d="M677.869,58.1V-78.082A136.183,136.183,0,0,1,814.052,58.1c0,32.942-9.617,60.1-30.349,85.7Z" transform="translate(-677.869 78.082)" fill="#304c8e"/>
        </g>
      </g>
    </g>
    <path id="Trazado_605344" data-name="Trazado 605344" d="M29.395,17V4.2h4.6a6.509,6.509,0,0,1,3.757.905,3.012,3.012,0,0,1,1.288,2.628,3.045,3.045,0,0,1-.457,1.7,2.663,2.663,0,0,1-1.345,1.037,2.7,2.7,0,0,1,1.538.984,2.862,2.862,0,0,1,.536,1.758,3.388,3.388,0,0,1-1.191,2.826A5.667,5.667,0,0,1,34.589,17Zm3.085-5.44v3.067H34.5a1.923,1.923,0,0,0,1.283-.382,1.338,1.338,0,0,0,.448-1.077,1.419,1.419,0,0,0-1.591-1.608Zm0-2.021h1.608a2.285,2.285,0,0,0,1.441-.37A1.314,1.314,0,0,0,35.96,8.1a1.379,1.379,0,0,0-.466-1.168,2.493,2.493,0,0,0-1.5-.357H32.479ZM40.5,12.157a5.613,5.613,0,0,1,.554-2.536A3.96,3.96,0,0,1,42.64,7.912a4.791,4.791,0,0,1,2.435-.6A4.373,4.373,0,0,1,48.44,8.637a5.076,5.076,0,0,1,1.23,3.6v.105a4.925,4.925,0,0,1-1.235,3.529,4.384,4.384,0,0,1-3.344,1.305,4.434,4.434,0,0,1-3.261-1.217,4.761,4.761,0,0,1-1.327-3.3Zm2.962.185a3.538,3.538,0,0,0,.413,1.934,1.376,1.376,0,0,0,1.222.615q1.582,0,1.617-2.435v-.3q0-2.558-1.635-2.558-1.485,0-1.608,2.206Zm11.188.51L56.228,7.49H59.4l-3.876,11.1-.167.4a2.944,2.944,0,0,1-2.918,1.846,4.642,4.642,0,0,1-1.222-.175v-2.11H51.6a2.026,2.026,0,0,0,.954-.18,1.094,1.094,0,0,0,.488-.647l.237-.633-3.3-9.605h3.164ZM65.395,17a3.344,3.344,0,0,1-.281-.853,2.754,2.754,0,0,1-2.285,1.028,3.374,3.374,0,0,1-2.285-.813,2.588,2.588,0,0,1-.94-2.043,2.66,2.66,0,0,1,1.143-2.338,5.821,5.821,0,0,1,3.322-.791h.914v-.5q0-1.316-1.134-1.316a.927.927,0,0,0-1.055,1.042H59.831A2.655,2.655,0,0,1,61,8.175,4.931,4.931,0,0,1,64,7.314a4.323,4.323,0,0,1,2.874.888,3.086,3.086,0,0,1,1.081,2.435v4.21a4.311,4.311,0,0,0,.4,2V17ZM63.54,15.066a1.652,1.652,0,0,0,.918-.237,1.487,1.487,0,0,0,.523-.536V12.772H64.12q-1.547,0-1.547,1.389a.848.848,0,0,0,.272.655A.986.986,0,0,0,63.54,15.066Zm10.072-.176a1.317,1.317,0,0,0,.967-.338,1.241,1.241,0,0,0,.334-.945H77.69a3.288,3.288,0,0,1-1.121,2.566,4.168,4.168,0,0,1-2.887,1,4.22,4.22,0,0,1-3.27-1.3,5.125,5.125,0,0,1-1.2-3.6v-.123A5.792,5.792,0,0,1,69.75,9.6a3.872,3.872,0,0,1,1.534-1.7,4.573,4.573,0,0,1,2.373-.593A4.116,4.116,0,0,1,76.6,8.343a3.647,3.647,0,0,1,1.09,2.786H74.913A1.626,1.626,0,0,0,74.553,10a1.244,1.244,0,0,0-.967-.4q-1.151,0-1.345,1.468a10.357,10.357,0,0,0-.062,1.283,4.068,4.068,0,0,0,.343,1.986A1.187,1.187,0,0,0,73.612,14.891ZM84.3,17a3.344,3.344,0,0,1-.281-.853,2.754,2.754,0,0,1-2.285,1.028,3.374,3.374,0,0,1-2.285-.813,2.588,2.588,0,0,1-.94-2.043,2.66,2.66,0,0,1,1.143-2.338,5.821,5.821,0,0,1,3.322-.791h.914v-.5q0-1.316-1.134-1.316A.927.927,0,0,0,81.7,10.413H78.736A2.655,2.655,0,0,1,79.91,8.175a4.931,4.931,0,0,1,2.993-.86,4.323,4.323,0,0,1,2.874.888,3.086,3.086,0,0,1,1.081,2.435v4.21a4.311,4.311,0,0,0,.4,2V17Zm-1.854-1.934a1.652,1.652,0,0,0,.918-.237,1.487,1.487,0,0,0,.523-.536V12.772h-.861q-1.547,0-1.547,1.389a.848.848,0,0,0,.272.655A.986.986,0,0,0,82.445,15.066ZM83.184,3.5h3.129L83.869,6.26l-2.417,0Zm18.378,4.122a2.954,2.954,0,0,1-.461,1.644,3.361,3.361,0,0,1-1.27,1.143,3.7,3.7,0,0,1,1.45,1.226,3.164,3.164,0,0,1,.536,1.841,3.349,3.349,0,0,1-1.182,2.707,4.909,4.909,0,0,1-3.256.993,5,5,0,0,1-3.287-1,3.325,3.325,0,0,1-1.2-2.7,3.2,3.2,0,0,1,.527-1.819,3.586,3.586,0,0,1,1.494-1.248,3.38,3.38,0,0,1-1.283-1.143,2.934,2.934,0,0,1-.466-1.644,3.284,3.284,0,0,1,1.134-2.637,5.349,5.349,0,0,1,6.135,0A3.284,3.284,0,0,1,101.562,7.622Zm-2.716,5.616a1.69,1.69,0,0,0-.409-1.217,1.423,1.423,0,0,0-1.077-.426,1.438,1.438,0,0,0-1.081.426,1.678,1.678,0,0,0-.413,1.217,1.693,1.693,0,0,0,.417,1.208,1.433,1.433,0,0,0,1.094.444,1.377,1.377,0,0,0,1.063-.439A1.723,1.723,0,0,0,98.846,13.238ZM97.352,6.3a1.1,1.1,0,0,0-.91.391A1.7,1.7,0,0,0,96.13,7.78a1.8,1.8,0,0,0,.316,1.107,1.092,1.092,0,0,0,.932.422,1.047,1.047,0,0,0,.91-.422,1.856,1.856,0,0,0,.3-1.107A1.7,1.7,0,0,0,98.279,6.7,1.109,1.109,0,0,0,97.352,6.3ZM55.744,42H52.773V32.543l-2.918.853v-2.25L55.472,29.2h.272ZM66.757,29.019v2.329h-.132a4.447,4.447,0,0,0-2.729.8,3.358,3.358,0,0,0-1.314,2.21,3.464,3.464,0,0,1,2.531-.984,3.231,3.231,0,0,1,2.646,1.213,4.892,4.892,0,0,1,.984,3.182A4.48,4.48,0,0,1,68.167,40a4.108,4.108,0,0,1-1.608,1.6,4.622,4.622,0,0,1-2.29.576,4.777,4.777,0,0,1-2.435-.62,4.26,4.26,0,0,1-1.67-1.771,5.832,5.832,0,0,1-.615-2.654V35.944a7.387,7.387,0,0,1,.848-3.555,6.149,6.149,0,0,1,2.421-2.474,6.923,6.923,0,0,1,3.489-.9Zm-2.672,6.618a1.7,1.7,0,0,0-.984.272,1.73,1.73,0,0,0-.589.668v.888q0,2.426,1.679,2.426a1.362,1.362,0,0,0,1.129-.606,2.472,2.472,0,0,0,.453-1.521,2.426,2.426,0,0,0-.461-1.534A1.476,1.476,0,0,0,64.085,35.637Zm5.95-3.973a2.512,2.512,0,0,1,.773-1.916,3.334,3.334,0,0,1,4.157,0,2.578,2.578,0,0,1,.765,1.964v.633a2.5,2.5,0,0,1-.765,1.907,2.889,2.889,0,0,1-2.065.721,2.968,2.968,0,0,1-2.079-.716,2.524,2.524,0,0,1-.787-1.964Zm1.907.675a1.062,1.062,0,0,0,.255.738.9.9,0,0,0,.7.284q.923,0,.923-1.17v-.524a1.12,1.12,0,0,0-.246-.747.857.857,0,0,0-.694-.293.876.876,0,0,0-.686.284,1.114,1.114,0,0,0-.255.773Zm4.175,6.524a2.487,2.487,0,0,1,.778-1.916,2.924,2.924,0,0,1,2.07-.721,2.956,2.956,0,0,1,2.083.712,2.565,2.565,0,0,1,.773,1.986v.615a2.509,2.509,0,0,1-.765,1.916,2.9,2.9,0,0,1-2.074.721,2.968,2.968,0,0,1-2.079-.716,2.524,2.524,0,0,1-.787-1.964Zm1.9.675a1.039,1.039,0,0,0,.281.72.891.891,0,0,0,.686.31.808.808,0,0,0,.923-.8l.009-.9a1.075,1.075,0,0,0-.255-.747.992.992,0,0,0-1.371-.017,1.061,1.061,0,0,0-.272.72Zm-4.553,1.505-1.38-.694,6.249-10,1.38.694Z" transform="translate(-1007 3979)" fill="#12263f"/>
    <path id="Trazado_605345" data-name="Trazado 605345" d="M22.073,14.609H17.846L17.107,17h-3.3L18.5,4.2h2.9L26.134,17H22.82Zm-3.489-2.382h2.751l-1.38-4.438ZM29.228,7.49l.1,1.116A3.225,3.225,0,0,1,32.04,7.314a2.713,2.713,0,0,1,2.219.888,4.226,4.226,0,0,1,.76,2.672V17H32.049V11a1.6,1.6,0,0,0-.29-1.059A1.342,1.342,0,0,0,30.7,9.6a1.413,1.413,0,0,0-1.292.686V17H26.45V7.49ZM40.108,5.126V7.49h1.564V9.547H40.108V13.9a1.111,1.111,0,0,0,.193.747,1.037,1.037,0,0,0,.765.211A4.345,4.345,0,0,0,41.8,14.8v2.118a5.466,5.466,0,0,1-1.67.255,3.1,3.1,0,0,1-2.259-.721,2.954,2.954,0,0,1-.729-2.188V9.547H35.934V7.49h1.213V5.126ZM45.962,17H42.991V7.49h2.971ZM42.815,5.038A1.322,1.322,0,0,1,43.272,4a1.943,1.943,0,0,1,2.373,0A1.322,1.322,0,0,1,46.1,5.038a1.322,1.322,0,0,1-.457,1.037,1.943,1.943,0,0,1-2.373,0A1.322,1.322,0,0,1,42.815,5.038Zm4.6,7.119a5.613,5.613,0,0,1,.554-2.536,3.96,3.96,0,0,1,1.591-1.709,4.791,4.791,0,0,1,2.435-.6,4.373,4.373,0,0,1,3.366,1.323,5.076,5.076,0,0,1,1.23,3.6v.105a4.925,4.925,0,0,1-1.235,3.529,4.384,4.384,0,0,1-3.344,1.305,4.434,4.434,0,0,1-3.261-1.217,4.761,4.761,0,0,1-1.327-3.3Zm2.962.185a3.538,3.538,0,0,0,.413,1.934,1.376,1.376,0,0,0,1.222.615q1.582,0,1.617-2.435v-.3q0-2.558-1.635-2.558-1.485,0-1.608,2.206Zm7.146-.193A5.709,5.709,0,0,1,58.5,8.6,3.233,3.233,0,0,1,61.22,7.314a2.761,2.761,0,0,1,2.338,1.2l.211-1.02h2.566V20.656H63.364V16.209a2.757,2.757,0,0,1-2.162.967,3.2,3.2,0,0,1-2.685-1.305A6.027,6.027,0,0,1,57.52,12.148Zm2.962.185q0,2.558,1.477,2.558a1.43,1.43,0,0,0,1.406-.773V10.355A1.4,1.4,0,0,0,61.976,9.6q-1.38,0-1.485,2.206Zm13.192,3.639a3.054,3.054,0,0,1-2.54,1.2,3,3,0,0,1-2.369-.91,3.826,3.826,0,0,1-.8-2.615V7.49h2.962v6.179a1.065,1.065,0,0,0,1.187,1.222,1.548,1.548,0,0,0,1.45-.729V7.49h2.979V17H73.762ZM81.285,17H78.314V7.49h2.971ZM78.139,5.038A1.322,1.322,0,0,1,78.6,4a1.943,1.943,0,0,1,2.373,0,1.322,1.322,0,0,1,.457,1.037,1.322,1.322,0,0,1-.457,1.037,1.943,1.943,0,0,1-2.373,0A1.322,1.322,0,0,1,78.139,5.038ZM88.466,17a3.344,3.344,0,0,1-.281-.853A2.754,2.754,0,0,1,85.9,17.176a3.374,3.374,0,0,1-2.285-.813,2.588,2.588,0,0,1-.94-2.043,2.66,2.66,0,0,1,1.143-2.338,5.821,5.821,0,0,1,3.322-.791h.914v-.5q0-1.316-1.134-1.316a.927.927,0,0,0-1.055,1.042H82.9a2.655,2.655,0,0,1,1.173-2.239,4.931,4.931,0,0,1,2.993-.86,4.323,4.323,0,0,1,2.874.888,3.086,3.086,0,0,1,1.081,2.435v4.21a4.311,4.311,0,0,0,.4,2V17Zm-1.854-1.934a1.652,1.652,0,0,0,.918-.237,1.487,1.487,0,0,0,.523-.536V12.772h-.861q-1.547,0-1.547,1.389a.848.848,0,0,0,.272.655A.986.986,0,0,0,86.611,15.066ZM103.662,17h-2.971V7.543L97.773,8.4V6.146L103.39,4.2h.272Zm4.034-6.251.782-6.546h7.479v2.3h-5.071l-.29,2.542a3.493,3.493,0,0,1,.831-.327,4.179,4.179,0,0,1,3.938.988,4.549,4.549,0,0,1,1.024,3.168,4.541,4.541,0,0,1-.549,2.228A3.776,3.776,0,0,1,114.3,16.64a4.87,4.87,0,0,1-2.347.536,5.24,5.24,0,0,1-2.259-.5,4.052,4.052,0,0,1-1.652-1.361,3.308,3.308,0,0,1-.589-1.954h2.971a1.68,1.68,0,0,0,.448,1.114,1.423,1.423,0,0,0,1.063.412q1.494,0,1.494-2.21,0-2.044-1.828-2.044a1.824,1.824,0,0,0-1.547.667ZM51.886,34.362h1.4a1.453,1.453,0,0,0,1.661-1.626,1.406,1.406,0,0,0-.4-1.033,1.5,1.5,0,0,0-1.116-.4,1.606,1.606,0,0,0-1.024.343,1.046,1.046,0,0,0-.435.853H49.012a3.032,3.032,0,0,1,.563-1.8,3.715,3.715,0,0,1,1.56-1.235,5.334,5.334,0,0,1,2.193-.444,5.241,5.241,0,0,1,3.357.976,3.243,3.243,0,0,1,1.222,2.681,2.7,2.7,0,0,1-.505,1.56,3.6,3.6,0,0,1-1.472,1.191,3.441,3.441,0,0,1,1.6,1.121,2.951,2.951,0,0,1,.58,1.859,3.3,3.3,0,0,1-1.318,2.742,5.472,5.472,0,0,1-3.463,1.028,5.675,5.675,0,0,1-2.333-.479,3.656,3.656,0,0,1-1.63-1.327,3.45,3.45,0,0,1-.554-1.929h2.979a1.334,1.334,0,0,0,.475,1.02,1.676,1.676,0,0,0,1.169.431,1.755,1.755,0,0,0,1.248-.435,1.454,1.454,0,0,0,.466-1.112,1.7,1.7,0,0,0-.483-1.371,2.021,2.021,0,0,0-1.336-.4H51.886Zm16.6,2.408a6.11,6.11,0,0,1-1.165,4,4.551,4.551,0,0,1-6.587-.009,6.1,6.1,0,0,1-1.169-3.99V34.433a6.11,6.11,0,0,1,1.165-4,4.551,4.551,0,0,1,6.587.009,6.116,6.116,0,0,1,1.169,4Zm-2.962-2.716a4.564,4.564,0,0,0-.36-2.061,1.2,1.2,0,0,0-1.143-.681,1.176,1.176,0,0,0-1.112.633,4.3,4.3,0,0,0-.374,1.916v3.27a4.6,4.6,0,0,0,.36,2.1,1.209,1.209,0,0,0,1.143.664,1.193,1.193,0,0,0,1.116-.646,4.39,4.39,0,0,0,.369-2.026Zm4.509-2.391a2.512,2.512,0,0,1,.773-1.916,3.334,3.334,0,0,1,4.157,0,2.578,2.578,0,0,1,.765,1.964v.633a2.5,2.5,0,0,1-.765,1.907,2.889,2.889,0,0,1-2.065.721,2.968,2.968,0,0,1-2.079-.716,2.524,2.524,0,0,1-.787-1.964Zm1.907.675a1.062,1.062,0,0,0,.255.738.9.9,0,0,0,.7.284q.923,0,.923-1.17v-.524a1.12,1.12,0,0,0-.246-.747.857.857,0,0,0-.694-.293.876.876,0,0,0-.686.284,1.114,1.114,0,0,0-.255.773Zm4.175,6.524a2.487,2.487,0,0,1,.778-1.916,2.924,2.924,0,0,1,2.07-.721,2.956,2.956,0,0,1,2.083.712,2.565,2.565,0,0,1,.773,1.986v.615a2.509,2.509,0,0,1-.765,1.916,2.9,2.9,0,0,1-2.074.721,2.968,2.968,0,0,1-2.079-.716,2.524,2.524,0,0,1-.787-1.964Zm1.9.675a1.039,1.039,0,0,0,.281.72.891.891,0,0,0,.686.31.808.808,0,0,0,.923-.8l.009-.9a1.075,1.075,0,0,0-.255-.747.992.992,0,0,0-1.371-.017,1.061,1.061,0,0,0-.272.72Zm-4.553,1.505-1.38-.694,6.249-10,1.38.694Z" transform="translate(-1061 3784)" fill="#12263f"/>
    <path id="Trazado_605346" data-name="Trazado 605346" d="M21.9,12.667a4.673,4.673,0,0,1-.721,2.36,4.35,4.35,0,0,1-1.85,1.586,6.3,6.3,0,0,1-2.72.563,5.025,5.025,0,0,1-3.973-1.644,6.786,6.786,0,0,1-1.45-4.641v-.633a7.746,7.746,0,0,1,.655-3.292,4.961,4.961,0,0,1,1.885-2.18,5.26,5.26,0,0,1,2.848-.769,5.516,5.516,0,0,1,3.744,1.226,4.844,4.844,0,0,1,1.608,3.379H18.851a2.292,2.292,0,0,0-.589-1.679,2.422,2.422,0,0,0-1.687-.51,1.843,1.843,0,0,0-1.687.861,5.536,5.536,0,0,0-.562,2.751v.905a6.126,6.126,0,0,0,.514,2.927,1.882,1.882,0,0,0,1.771.879,2.369,2.369,0,0,0,1.626-.5,2.126,2.126,0,0,0,.6-1.591Zm6.987,3.3a3.054,3.054,0,0,1-2.54,1.2,3,3,0,0,1-2.369-.91,3.826,3.826,0,0,1-.8-2.615V7.49h2.962v6.179a1.065,1.065,0,0,0,1.187,1.222,1.548,1.548,0,0,0,1.45-.729V7.49h2.979V17H28.976ZM36.095,7.49l.1,1.116a3.225,3.225,0,0,1,2.716-1.292,2.713,2.713,0,0,1,2.219.888,4.226,4.226,0,0,1,.76,2.672V17H38.916V11a1.6,1.6,0,0,0-.29-1.059A1.342,1.342,0,0,0,37.571,9.6a1.413,1.413,0,0,0-1.292.686V17H33.317V7.49Zm7.058,4.685a5.809,5.809,0,0,1,.976-3.56,3.211,3.211,0,0,1,2.725-1.3,2.731,2.731,0,0,1,2.145,1V3.5h2.971V17H49.3l-.149-1.02a2.8,2.8,0,0,1-2.32,1.2,3.205,3.205,0,0,1-2.689-1.3A5.993,5.993,0,0,1,43.152,12.175Zm2.962.185q0,2.531,1.477,2.531A1.458,1.458,0,0,0,49,14.064V10.443A1.419,1.419,0,0,0,47.608,9.6q-1.371,0-1.485,2.215ZM56.775,17H53.8V7.49h2.971ZM53.629,5.038A1.322,1.322,0,0,1,54.086,4a1.943,1.943,0,0,1,2.373,0,1.322,1.322,0,0,1,.457,1.037,1.322,1.322,0,0,1-.457,1.037,1.943,1.943,0,0,1-2.373,0A1.322,1.322,0,0,1,53.629,5.038Zm7.69,2.452.1,1.116a3.225,3.225,0,0,1,2.716-1.292,2.713,2.713,0,0,1,2.219.888,4.226,4.226,0,0,1,.76,2.672V17H64.141V11a1.6,1.6,0,0,0-.29-1.059A1.342,1.342,0,0,0,62.8,9.6a1.413,1.413,0,0,0-1.292.686V17H58.542V7.49ZM74.107,17a3.344,3.344,0,0,1-.281-.853,2.754,2.754,0,0,1-2.285,1.028,3.374,3.374,0,0,1-2.285-.813,2.588,2.588,0,0,1-.94-2.043,2.66,2.66,0,0,1,1.143-2.338,5.821,5.821,0,0,1,3.322-.791h.914v-.5q0-1.316-1.134-1.316a.927.927,0,0,0-1.055,1.042H68.544a2.655,2.655,0,0,1,1.173-2.239,4.931,4.931,0,0,1,2.993-.86,4.323,4.323,0,0,1,2.874.888,3.086,3.086,0,0,1,1.081,2.435v4.21a4.311,4.311,0,0,0,.4,2V17Zm-1.854-1.934a1.652,1.652,0,0,0,.918-.237,1.487,1.487,0,0,0,.523-.536V12.772h-.861q-1.547,0-1.547,1.389a.848.848,0,0,0,.272.655A.986.986,0,0,0,72.253,15.066ZM81.1,7.49l.1,1.116a3.27,3.27,0,0,1,2.716-1.292,2.407,2.407,0,0,1,2.435,1.433,3.165,3.165,0,0,1,2.795-1.433q2.892,0,2.971,3.5V17H89.146V11A1.813,1.813,0,0,0,88.9,9.934,1.048,1.048,0,0,0,88,9.6a1.4,1.4,0,0,0-1.31.782l.009.123V17H83.731V11.015a1.906,1.906,0,0,0-.237-1.081,1.045,1.045,0,0,0-.905-.334,1.42,1.42,0,0,0-1.3.782V17H78.326V7.49ZM99.165,17a3.344,3.344,0,0,1-.281-.853A2.754,2.754,0,0,1,96.6,17.176a3.374,3.374,0,0,1-2.285-.813,2.588,2.588,0,0,1-.94-2.043,2.66,2.66,0,0,1,1.143-2.338,5.821,5.821,0,0,1,3.322-.791h.914v-.5q0-1.316-1.134-1.316a.927.927,0,0,0-1.055,1.042H93.6a2.655,2.655,0,0,1,1.173-2.239,4.931,4.931,0,0,1,2.993-.86,4.323,4.323,0,0,1,2.874.888,3.086,3.086,0,0,1,1.081,2.435v4.21a4.311,4.311,0,0,0,.4,2V17Zm-1.854-1.934a1.652,1.652,0,0,0,.918-.237,1.487,1.487,0,0,0,.523-.536V12.772h-.861q-1.547,0-1.547,1.389a.848.848,0,0,0,.272.655A.986.986,0,0,0,97.311,15.066Zm11.8-4.9-.976-.07a1.752,1.752,0,0,0-1.793.879V17h-2.962V7.49h2.777l.1,1.222a2.294,2.294,0,0,1,2.083-1.4,2.888,2.888,0,0,1,.826.105Zm4.922,4.72a1.317,1.317,0,0,0,.967-.338,1.241,1.241,0,0,0,.334-.945h2.777a3.288,3.288,0,0,1-1.121,2.566,4.168,4.168,0,0,1-2.887,1,4.22,4.22,0,0,1-3.27-1.3,5.125,5.125,0,0,1-1.2-3.6v-.123a5.792,5.792,0,0,1,.532-2.544,3.872,3.872,0,0,1,1.534-1.7,4.573,4.573,0,0,1,2.373-.593,4.116,4.116,0,0,1,2.944,1.028,3.647,3.647,0,0,1,1.09,2.786h-2.777a1.626,1.626,0,0,0-.36-1.134,1.244,1.244,0,0,0-.967-.4q-1.151,0-1.345,1.468a10.357,10.357,0,0,0-.062,1.283,4.068,4.068,0,0,0,.343,1.986A1.187,1.187,0,0,0,114.036,14.891ZM124.724,17a3.344,3.344,0,0,1-.281-.853,2.754,2.754,0,0,1-2.285,1.028,3.374,3.374,0,0,1-2.285-.813,2.588,2.588,0,0,1-.94-2.043,2.66,2.66,0,0,1,1.143-2.338,5.821,5.821,0,0,1,3.322-.791h.914v-.5q0-1.316-1.134-1.316a.927.927,0,0,0-1.055,1.042H119.16a2.655,2.655,0,0,1,1.173-2.239,4.931,4.931,0,0,1,2.993-.86A4.323,4.323,0,0,1,126.2,8.2a3.086,3.086,0,0,1,1.081,2.435v4.21a4.311,4.311,0,0,0,.4,2V17Zm-1.854-1.934a1.652,1.652,0,0,0,.918-.237,1.487,1.487,0,0,0,.523-.536V12.772h-.861q-1.547,0-1.547,1.389a.848.848,0,0,0,.272.655A.986.986,0,0,0,122.869,15.066ZM139.92,17h-2.971V7.543l-2.918.853V6.146L139.647,4.2h.272ZM150.933,4.019V6.348H150.8a4.447,4.447,0,0,0-2.729.8,3.358,3.358,0,0,0-1.314,2.21,3.464,3.464,0,0,1,2.531-.984,3.231,3.231,0,0,1,2.646,1.213,4.892,4.892,0,0,1,.984,3.182A4.48,4.48,0,0,1,152.343,15a4.108,4.108,0,0,1-1.608,1.6,4.622,4.622,0,0,1-2.29.576,4.777,4.777,0,0,1-2.435-.62,4.26,4.26,0,0,1-1.67-1.771,5.832,5.832,0,0,1-.615-2.654V10.944a7.387,7.387,0,0,1,.848-3.555A6.149,6.149,0,0,1,147,4.915a6.923,6.923,0,0,1,3.489-.9Zm-2.672,6.618a1.7,1.7,0,0,0-.984.272,1.73,1.73,0,0,0-.589.668v.888q0,2.426,1.679,2.426a1.362,1.362,0,0,0,1.129-.606,2.472,2.472,0,0,0,.453-1.521,2.426,2.426,0,0,0-.461-1.534A1.476,1.476,0,0,0,148.261,10.637ZM68.386,34.362h1.4a1.453,1.453,0,0,0,1.661-1.626,1.406,1.406,0,0,0-.4-1.033,1.5,1.5,0,0,0-1.116-.4,1.606,1.606,0,0,0-1.024.343,1.046,1.046,0,0,0-.435.853H65.512a3.032,3.032,0,0,1,.563-1.8,3.715,3.715,0,0,1,1.56-1.235,5.334,5.334,0,0,1,2.193-.444,5.241,5.241,0,0,1,3.357.976,3.243,3.243,0,0,1,1.222,2.681,2.7,2.7,0,0,1-.505,1.56,3.6,3.6,0,0,1-1.472,1.191,3.441,3.441,0,0,1,1.6,1.121,2.951,2.951,0,0,1,.58,1.859,3.3,3.3,0,0,1-1.318,2.742,5.472,5.472,0,0,1-3.463,1.028,5.675,5.675,0,0,1-2.333-.479,3.656,3.656,0,0,1-1.63-1.327,3.45,3.45,0,0,1-.554-1.929h2.979a1.334,1.334,0,0,0,.475,1.02,1.676,1.676,0,0,0,1.169.431,1.755,1.755,0,0,0,1.248-.435,1.454,1.454,0,0,0,.466-1.112,1.7,1.7,0,0,0-.483-1.371,2.021,2.021,0,0,0-1.336-.4H68.386ZM85.032,42H76.1V40.066l4.113-4.324a4.909,4.909,0,0,0,1.521-2.751,1.913,1.913,0,0,0-.36-1.257A1.287,1.287,0,0,0,80.33,31.3a1.3,1.3,0,0,0-1.1.576,2.366,2.366,0,0,0-.422,1.437H75.839a4.2,4.2,0,0,1,.589-2.175,4.129,4.129,0,0,1,1.635-1.56,4.856,4.856,0,0,1,2.338-.562,4.777,4.777,0,0,1,3.195.958,3.42,3.42,0,0,1,1.121,2.751,4,4,0,0,1-.281,1.472,6.456,6.456,0,0,1-.875,1.5,22.029,22.029,0,0,1-1.912,2.1L80,39.715h5.036Zm1.5-10.336a2.512,2.512,0,0,1,.773-1.916,3.334,3.334,0,0,1,4.157,0,2.578,2.578,0,0,1,.765,1.964v.633a2.5,2.5,0,0,1-.765,1.907,2.889,2.889,0,0,1-2.065.721,2.968,2.968,0,0,1-2.079-.716,2.524,2.524,0,0,1-.787-1.964Zm1.907.675a1.062,1.062,0,0,0,.255.738.9.9,0,0,0,.7.284q.923,0,.923-1.17v-.524a1.12,1.12,0,0,0-.246-.747.857.857,0,0,0-.694-.293.876.876,0,0,0-.686.284,1.114,1.114,0,0,0-.255.773Zm4.175,6.524a2.487,2.487,0,0,1,.778-1.916,2.924,2.924,0,0,1,2.07-.721,2.956,2.956,0,0,1,2.083.712,2.565,2.565,0,0,1,.773,1.986v.615a2.509,2.509,0,0,1-.765,1.916,2.9,2.9,0,0,1-2.074.721,2.968,2.968,0,0,1-2.079-.716,2.524,2.524,0,0,1-.787-1.964Zm1.9.675a1.039,1.039,0,0,0,.281.72.891.891,0,0,0,.686.31.808.808,0,0,0,.923-.8l.009-.9a1.075,1.075,0,0,0-.255-.747.992.992,0,0,0-1.371-.017,1.061,1.061,0,0,0-.272.72Zm-4.553,1.505-1.38-.694,6.249-10,1.38.694Z" transform="translate(-669 3784)" fill="#12263f"/>
    <path id="Trazado_605347" data-name="Trazado 605347" d="M36.558,6.585H32.717V17H29.632V6.585H25.861V4.2h10.7Zm-1.037,5.572a5.613,5.613,0,0,1,.554-2.536,3.96,3.96,0,0,1,1.591-1.709,4.791,4.791,0,0,1,2.435-.6,4.373,4.373,0,0,1,3.366,1.323,5.076,5.076,0,0,1,1.23,3.6v.105a4.925,4.925,0,0,1-1.235,3.529,4.384,4.384,0,0,1-3.344,1.305,4.434,4.434,0,0,1-3.261-1.217,4.761,4.761,0,0,1-1.327-3.3Zm2.962.185a3.538,3.538,0,0,0,.413,1.934,1.376,1.376,0,0,0,1.222.615q1.582,0,1.617-2.435v-.3Q41.734,9.6,40.1,9.6q-1.485,0-1.608,2.206ZM49.126,17H46.155V3.5h2.971Zm4.948,0H51.1V7.49h2.971ZM50.928,5.038A1.322,1.322,0,0,1,51.385,4a1.943,1.943,0,0,1,2.373,0,1.322,1.322,0,0,1,.457,1.037,1.322,1.322,0,0,1-.457,1.037,1.943,1.943,0,0,1-2.373,0A1.322,1.322,0,0,1,50.928,5.038ZM58.7,7.49l.1,1.116A3.27,3.27,0,0,1,61.51,7.314a2.407,2.407,0,0,1,2.435,1.433,3.165,3.165,0,0,1,2.795-1.433q2.892,0,2.971,3.5V17H66.739V11a1.813,1.813,0,0,0-.246-1.063,1.048,1.048,0,0,0-.9-.334,1.4,1.4,0,0,0-1.31.782l.009.123V17H61.325V11.015a1.906,1.906,0,0,0-.237-1.081,1.045,1.045,0,0,0-.905-.334,1.42,1.42,0,0,0-1.3.782V17H55.92V7.49ZM76.759,17a3.344,3.344,0,0,1-.281-.853,2.754,2.754,0,0,1-2.285,1.028,3.374,3.374,0,0,1-2.285-.813,2.588,2.588,0,0,1-.94-2.043,2.66,2.66,0,0,1,1.143-2.338,5.821,5.821,0,0,1,3.322-.791h.914v-.5q0-1.316-1.134-1.316a.927.927,0,0,0-1.055,1.042H71.2a2.655,2.655,0,0,1,1.173-2.239,4.931,4.931,0,0,1,2.993-.86,4.323,4.323,0,0,1,2.874.888,3.086,3.086,0,0,1,1.081,2.435v4.21a4.311,4.311,0,0,0,.4,2V17ZM74.9,15.066a1.652,1.652,0,0,0,.918-.237,1.487,1.487,0,0,0,.523-.536V12.772h-.861q-1.547,0-1.547,1.389a.848.848,0,0,0,.272.655A.986.986,0,0,0,74.9,15.066ZM91.955,17H88.984V7.543L86.066,8.4V6.146L91.683,4.2h.272Zm10.424,0H99.408V7.543L96.49,8.4V6.146L102.106,4.2h.272ZM58.108,42h-8.93V40.066l4.113-4.324a4.909,4.909,0,0,0,1.521-2.751,1.913,1.913,0,0,0-.36-1.257,1.287,1.287,0,0,0-1.046-.431,1.3,1.3,0,0,0-1.1.576,2.366,2.366,0,0,0-.422,1.437H48.915a4.2,4.2,0,0,1,.589-2.175,4.129,4.129,0,0,1,1.635-1.56,4.856,4.856,0,0,1,2.338-.562,4.777,4.777,0,0,1,3.195.958,3.42,3.42,0,0,1,1.121,2.751,4,4,0,0,1-.281,1.472,6.456,6.456,0,0,1-.875,1.5,22.029,22.029,0,0,1-1.912,2.1l-1.652,1.907h5.036Zm10.424,0H59.6V40.066l4.113-4.324a4.909,4.909,0,0,0,1.521-2.751,1.913,1.913,0,0,0-.36-1.257A1.287,1.287,0,0,0,63.83,31.3a1.3,1.3,0,0,0-1.1.576,2.366,2.366,0,0,0-.422,1.437H59.339a4.2,4.2,0,0,1,.589-2.175,4.129,4.129,0,0,1,1.635-1.56,4.856,4.856,0,0,1,2.338-.562,4.777,4.777,0,0,1,3.195.958,3.42,3.42,0,0,1,1.121,2.751,4,4,0,0,1-.281,1.472,6.456,6.456,0,0,1-.875,1.5,22.029,22.029,0,0,1-1.912,2.1L63.5,39.715h5.036Zm1.5-10.336a2.512,2.512,0,0,1,.773-1.916,3.334,3.334,0,0,1,4.157,0,2.578,2.578,0,0,1,.765,1.964v.633a2.5,2.5,0,0,1-.765,1.907,2.889,2.889,0,0,1-2.065.721,2.968,2.968,0,0,1-2.079-.716,2.524,2.524,0,0,1-.787-1.964Zm1.907.675a1.062,1.062,0,0,0,.255.738.9.9,0,0,0,.7.284q.923,0,.923-1.17v-.524a1.12,1.12,0,0,0-.246-.747.857.857,0,0,0-.694-.293.876.876,0,0,0-.686.284,1.114,1.114,0,0,0-.255.773Zm4.175,6.524a2.487,2.487,0,0,1,.778-1.916,2.924,2.924,0,0,1,2.07-.721,2.956,2.956,0,0,1,2.083.712,2.565,2.565,0,0,1,.773,1.986v.615a2.509,2.509,0,0,1-.765,1.916,2.9,2.9,0,0,1-2.074.721,2.968,2.968,0,0,1-2.079-.716,2.524,2.524,0,0,1-.787-1.964Zm1.9.675a1.039,1.039,0,0,0,.281.72.891.891,0,0,0,.686.31.808.808,0,0,0,.923-.8l.009-.9a1.075,1.075,0,0,0-.255-.747.992.992,0,0,0-1.371-.017,1.061,1.061,0,0,0-.272.72Zm-4.553,1.505-1.38-.694,6.249-10,1.38.694Z" transform="translate(-758 4001)" fill="#12263f"/>
  </g>
</svg>
