<svg xmlns="http://www.w3.org/2000/svg" width="295" height="276.972" viewBox="0 0 295 276.972">
  <g id="Grupo_1015083" data-name="Grupo 1015083" transform="translate(-1317.078 -442.699)">
    <g id="Grupo_875559" data-name="Grupo 875559" transform="translate(1452.028 507.106)">
      <path id="Trazado_599317" data-name="Trazado 599317" d="M1728.358,638.987s5.029,6.432,6.783,7.953,4.776,2.588,25.594,22.587c0,0-1.618,4.312-5.244,4.429,0,0-9.941-7.953-15.906-11.7s-9.941-10.76-9.941-10.76A46.24,46.24,0,0,0,1728.358,638.987Z" transform="translate(-1728.358 -638.987)" fill="#304c8e"/>
      <path id="Trazado_599318" data-name="Trazado 599318" d="M1728.358,638.987s5.029,6.432,6.783,7.953,4.776,2.588,25.594,22.587c0,0-1.618,4.312-5.244,4.429,0,0-9.941-7.953-15.906-11.7s-9.941-10.76-9.941-10.76A46.24,46.24,0,0,0,1728.358,638.987Z" transform="translate(-1728.358 -638.987)" fill="#304c8e" opacity="0.45" style="mix-blend-mode: multiply;isolation: isolate"/>
    </g>
    <g id="Grupo_875565" data-name="Grupo 875565" transform="translate(1317.078 515.6)">
      <g id="Grupo_875564" data-name="Grupo 875564">
        <g id="Grupo_875563" data-name="Grupo 875563">
          <g id="Grupo_875561" data-name="Grupo 875561" transform="translate(0.685)">
            <path id="Trazado_599319" data-name="Trazado 599319" d="M1397.834,917.908s-61.49,5.385-78.667,41.489c0,0,39.7-15.315,55.167-10.608C1374.333,948.789,1391.879,936.709,1397.834,917.908Z" transform="translate(-1319.167 -834.883)" fill="#60cb28"/>
            <path id="Trazado_599320" data-name="Trazado 599320" d="M1538.644,1132.229s-33.487,51.852-73.434,50.173c0,0,32.088-27.947,35.151-43.821C1500.361,1138.582,1519.238,1128.711,1538.644,1132.229Z" transform="translate(-1417.29 -978.372)" fill="#60cb28"/>
            <g id="Grupo_875560" data-name="Grupo 875560" transform="translate(49.042)">
              <path id="Trazado_599321" data-name="Trazado 599321" d="M1713.9,666.223c-64.8-7.167-160.595,12.312-242.091,106.37a13.048,13.048,0,0,0-1.305,15.276l22.135,36.73a13.047,13.047,0,0,0,14.116,5.983C1627.993,802.465,1689.967,726.865,1713.9,666.223Z" transform="translate(-1468.631 -664.877)" fill="#60cb28"/>
              <path id="Trazado_599322" data-name="Trazado 599322" d="M1567.475,940.357l-.013.008a353.653,353.653,0,0,1-60.707,19.811,13.042,13.042,0,0,1-14.115-5.981l-22.135-36.731a13.047,13.047,0,0,1,1.3-15.276,353.492,353.492,0,0,1,45.876-44.417l.015-.009C1513.567,874.429,1551.345,936.358,1567.475,940.357Z" transform="translate(-1468.63 -794.472)" fill="#304c8e"/>
              <path id="Trazado_599323" data-name="Trazado 599323" d="M1954.094,672.237a245.7,245.7,0,0,1,84.858-6.015,245.709,245.709,0,0,1-44.961,72.22C1986.633,746.73,1943.477,674.836,1954.094,672.237Z" transform="translate(-1793.68 -664.877)" fill="#304c8e"/>
              <path id="Trazado_599340" data-name="Trazado 599340" d="M30.94,0A30.94,30.94,0,1,1,0,30.94,30.94,30.94,0,0,1,30.94,0Z" transform="translate(137.435 16.746)" fill="#d9e9f1" stroke="#3a5982" stroke-width="10"/>
            </g>
          </g>
          <path id="Rectángulo_292004" data-name="Rectángulo 292004" d="M0,0H42.75a0,0,0,0,1,0,0V2.3A11.414,11.414,0,0,1,31.336,13.71H11.414A11.414,11.414,0,0,1,0,2.3V0A0,0,0,0,1,0,0Z" transform="matrix(0.516, 0.856, -0.856, 0.516, 51.603, 122.992)" fill="#f3ab1d"/>
          <g id="Grupo_875562" data-name="Grupo 875562" transform="translate(0 136.143)">
            <path id="Trazado_599324" data-name="Trazado 599324" d="M1373.737,1105.542c-1.588,8.231-8.723,18.751-18.794,22.062,0,0,3.764-2.794,4.672-10.054,0,0-6.321,10.105-16.607,12.46a11.748,11.748,0,0,0,3.177-7.577c-8.051,8.584-20.833-4.263-29.1.808v0c.143-19.908,13.924-25.566,13.924-25.566a11.771,11.771,0,0,0-8.19-.611c6.763-8.1,18.635-9.141,18.635-9.141-6.74-2.433-10.91-.482-11.079-.4,7.524-7.469,20.131-9.057,28.187-6.736Z" transform="translate(-1317.079 -1079.793)" fill="#f8cbcb"/>
            <path id="Trazado_599325" data-name="Trazado 599325" d="M1373.737,1158.265c-1.588,8.231-8.723,18.751-18.794,22.062,0,0,3.764-2.794,4.672-10.054,0,0-6.321,10.105-16.607,12.46a11.748,11.748,0,0,0,3.177-7.577c-8.051,8.584-20.833-4.263-29.1.808v0c5.353-5.275,21.865,2.764,30.992-4.615,0,0,2.46.892,1.387,4.01,0,0,7.166-1.8,10.638-8.169,0,0,2.741,2.836,2.024,4.994C1362.122,1172.18,1371.594,1165.465,1373.737,1158.265Z" transform="translate(-1317.079 -1132.516)" fill="#f29999"/>
            <path id="Trazado_599326" data-name="Trazado 599326" d="M1317.078,1123.237c.145-19.913,13.926-25.566,13.926-25.566a11.748,11.748,0,0,0-8.193-.61c6.685-8,18.358-9.118,18.634-9.146-6.878-2.48-11.078-.4-11.078-.4,7.523-7.476,20.134-9.062,28.192-6.74l4.841,7.9s-10.564-5.292-17.584-3.415a11.758,11.758,0,0,1,5.226,3.9s-8.348,1.117-12.476,3.648a9.12,9.12,0,0,1,4.073,3.7S1318.653,1102.894,1317.078,1123.237Z" transform="translate(-1317.078 -1079.792)" fill="#f8cbcb" opacity="0.4" style="mix-blend-mode: multiply;isolation: isolate"/>
          </g>
        </g>
      </g>
    </g>
    <g id="Grupo_875571" data-name="Grupo 875571" transform="translate(1381.931 442.699)">
      <g id="Grupo_875569" data-name="Grupo 875569" transform="translate(25.57 229.159)">
        <g id="Grupo_875568" data-name="Grupo 875568" transform="translate(5.945)">
          <g id="Grupo_875566" data-name="Grupo 875566">
            <path id="Trazado_599327" data-name="Trazado 599327" d="M1625.471,1146.044c-3.731,7.76-5.171,12.514-4.15,15.389,1.374,3.87,6.226,8.682,4.318,11.616-.705,1.085-15.093-7.883-14.861-11.219.429-6.2.546-9.571.217-10.19-1.282-2.417,4.061-6.657,5.267-7.547a25.3,25.3,0,0,0,1.52-2.925S1623.811,1140.11,1625.471,1146.044Z" transform="translate(-1610.775 -1141.095)" fill="#f0a993"/>
          </g>
          <g id="Grupo_875567" data-name="Grupo 875567">
            <path id="Trazado_599328" data-name="Trazado 599328" d="M1625.471,1146.044c-3.731,7.76-5.171,12.514-4.15,15.389,1.374,3.87,6.226,8.682,4.318,11.616-.705,1.085-15.093-7.883-14.861-11.219.429-6.2.546-9.571.217-10.19-1.282-2.417,4.061-6.657,5.267-7.547a25.3,25.3,0,0,0,1.52-2.925S1623.811,1140.11,1625.471,1146.044Z" transform="translate(-1610.775 -1141.095)" fill="#ffb8a3"/>
          </g>
        </g>
        <path id="Trazado_599329" data-name="Trazado 599329" d="M1609.072,1167.342c4.01,6.732,6.479,9.683,4.533,12.557-.6.884-13.586-8.123-14.913-10.117s.443-6.992-.01-9.488l-4.8,7.117-1.222-.829s3.64-8.31,4.985-11.21c1.664-3.59,6.48-5.245,6.48-5.245-2.954,3.03-3.12,7.252-2.369,13.067a8.573,8.573,0,0,0,2.1,4.642C1606.906,1171.234,1610.685,1172.8,1609.072,1167.342Z" transform="translate(-1592.655 -1147.163)" fill="#d44e4e"/>
      </g>
      <g id="Grupo_875570" data-name="Grupo 875570" transform="translate(0 1.906)">
        <path id="Trazado_599330" data-name="Trazado 599330" d="M1688.081,484.343c2.027-2.027,3.976-5.224,3.9-6.238s-4.288-9.044-3.119-16.14,8.265-15.984,20.038-12.787,12.787,13.6,12.319,17.247-1.949,6.924-1.637,8.249a33.028,33.028,0,0,0,1.726,4.288,34.016,34.016,0,0,0-3.285,2.807c-.546.7-4.444,7.719-5.38,7.8s-6.539-2.105-7.947-1.715-5.541,5.926-5.853,8.187l2.027,11.773,1.949,11.071s-7.251-7.329-10.136-10.448S1688.081,484.343,1688.081,484.343Z" transform="translate(-1631.2 -448.508)" fill="#ffb8a3"/>
        <path id="Trazado_599331" data-name="Trazado 599331" d="M1669.451,638.987c-.574,1.053-8.059,0-8.059,0l-19.648,58.477s7.031,2.11,11,.47l17.674-41.023,2.195-9.2Z" transform="translate(-1600.067 -576.487)" fill="#fff"/>
        <path id="Trazado_599332" data-name="Trazado 599332" d="M1603.667,792.031c-7.485,1.4-29.785-9.045-29.785-9.045s-11.739,7.676-4.366,24.015c5.77,12.787,52.948,46.469,52.948,46.469s-8.06,1.715-15.679,13.879c-6.227,9.94-10.916,22.611-20.116,34.618,0,0,1.247,4.834,9.2,5.458,0,0,5.77-12.787,24.171-32.591,13.689-14.734,17.153-16.062,14.658-24.015s-12.234-27.133-35.242-48.5C1599.456,802.323,1602.194,796.373,1603.667,792.031Z" transform="translate(-1549.905 -673.237)" fill="#636363"/>
        <path id="Trazado_599333" data-name="Trazado 599333" d="M1571.609,557.72c4.31,3.207,7.621,19.181,7.619,30.562,0,1.291-8.1,15.794-15.1,39.869-3.935,13.526-6.783,23.34-14.117,29.688-5.9,5.107-25.192-5.523-35.278-.79,0,0,6.337-19.174,15.947-29.891,10.452-11.656,15.217-12.034,17.056-22.421C1550.25,590.5,1554.768,569.182,1571.609,557.72Z" transform="translate(-1514.728 -521.885)" fill="#304c8e"/>
        <path id="Trazado_599334" data-name="Trazado 599334" d="M1688.771,594.3c2.1,9.824,5.364,22.685,4.21,27.367-1.364,5.536-15.672,41.636-20.584,48.185,0,0,7.338-19.995,9.59-26.432,3.041-8.694,9.178-16.551,9.9-23.391.505-4.769-2.417-8.459-3.586-26.665Z" transform="translate(-1620.663 -545.834)" fill="#e85656"/>
        <path id="Trazado_599335" data-name="Trazado 599335" d="M1688.771,594.3c2.1,9.824,5.364,22.685,4.21,27.367-1.364,5.536-15.672,41.636-20.584,48.185,0,0,7.338-19.995,9.59-26.432,3.041-8.694,9.178-16.551,9.9-23.391.505-4.769-2.417-8.459-3.586-26.665Z" transform="translate(-1620.663 -545.834)" fill="#3185af"/>
        <path id="Trazado_599336" data-name="Trazado 599336" d="M1819.249,809.889c3.387,2.866,4.168,4.794,5.523,5.836a92.126,92.126,0,0,1,7.607,6.513c2.448,2.449,3.022,3.907,3.543,3.907a.674.674,0,0,0,.729-.885,11.266,11.266,0,0,0-2.657-4.481,8.975,8.975,0,0,1,2.694,2.449,14.712,14.712,0,0,0,1.787,2.918c.417.313.834-.625.781-1.2s-1.511-4.742-4.012-6.148a7.074,7.074,0,0,1,3.439,2.866c1.2,2.084,2.032,3.23,2.657,3.335s.99-.469.313-1.928c0,0,1.667.365.938-1.042s-.417-3.491-3.23-5.471c0,0,.834-.1.417-.782s-2.032-3.7-4.95-5-4.533-1.25-6.512-2.345a11.593,11.593,0,0,1-3.335-2.97A13.928,13.928,0,0,0,1819.249,809.889Z" transform="translate(-1719.329 -688.336)" fill="#ffb8a3"/>
        <path id="Trazado_599337" data-name="Trazado 599337" d="M1668.812,610.435c5.5,10.643,16.725,33.1,18.713,34.618s32.513,31.227,32.513,31.227,4.912-.936,5.848-5.263c0,0-27.367-29.589-28.537-31.11,0,0-15.321-31.461-17.777-34.619S1668.461,600.728,1668.812,610.435Z" transform="translate(-1618.246 -552.262)" fill="#e85656"/>
        <path id="Trazado_599338" data-name="Trazado 599338" d="M1668.812,610.435c5.5,10.643,16.725,33.1,18.713,34.618s32.513,31.227,32.513,31.227,4.912-.936,5.848-5.263c0,0-27.367-29.589-28.537-31.11,0,0-15.321-31.461-17.777-34.619S1668.461,600.728,1668.812,610.435Z" transform="translate(-1618.246 -552.262)" fill="#304c8e"/>
      </g>
      <path id="Trazado_599339" data-name="Trazado 599339" d="M1613,453.095s-4.213-10.188-17.254-10.394c-7.542-.119-13.364,5.571-14.478,10.658-5.552-2.105-26.486,3.684-30.873,15.375-3.026,8.064-21.981,7.505-21.986,29.36,19.337-10.6,20.257-4.586,32.362-13.333,13.7-9.9,13.575-25.438,19.8-28.18-2.323,5.977,2.347,14.207,4.083,15.79a10.452,10.452,0,0,0,8.51-1.1c-1.418-1.7-4.659-11.374,1.281-9.567,2.3.7,3.287,4.979,3.287,4.979l.964-.126.423-2.066s3.716,1.445,8.729-1.376c2.9-1.631,6.295-7.255,8.216-2.287C1618.835,456.441,1615.208,453.129,1613,453.095Z" transform="translate(-1523.92 -442.699)"/>
    </g>
  </g>
</svg>
