<svg xmlns="http://www.w3.org/2000/svg" width="971.542" height="544.925" viewBox="0 0 971.542 544.925">
  <g id="Grupo_1015208" data-name="Grupo 1015208" transform="translate(-288.773 -7239)">
    <g id="Group_33_1_" data-name="Group 33 (1)" transform="translate(288.773 7239)">
      <path id="Trazado_604555" data-name="Trazado 604555" d="M731.227,327.45H0v.366H731.227Z" transform="translate(0 151.43)" fill="#ebebeb"/>
      <path id="Trazado_604556" data-name="Trazado 604556" d="M179.906,342.87H131.47v.366h48.436Z" transform="translate(60.799 158.561)" fill="#ebebeb"/>
      <path id="Trazado_604557" data-name="Trazado 604557" d="M262.859,340.16H250.15v.366h12.709Z" transform="translate(115.683 157.308)" fill="#ebebeb"/>
      <path id="Trazado_604558" data-name="Trazado 604558" d="M80.524,335.94H52.46v.366H80.524Z" transform="translate(24.26 155.357)" fill="#ebebeb"/>
      <path id="Trazado_604559" data-name="Trazado 604559" d="M427.841,334.26H389.7v.366h38.141Z" transform="translate(180.218 154.58)" fill="#ebebeb"/>
      <path id="Trazado_604560" data-name="Trazado 604560" d="M391.63,334.26H357.35v.366h34.28Z" transform="translate(165.258 154.58)" fill="#ebebeb"/>
      <path id="Trazado_604561" data-name="Trazado 604561" d="M493.233,346.26h-137v.366h137Z" transform="translate(164.74 160.129)" fill="#ebebeb"/>
      <path id="Trazado_604562" data-name="Trazado 604562" d="M328.95,413.655H46.551A8.357,8.357,0,0,1,38.2,405.3V8.351A8.357,8.357,0,0,1,46.551,0h282.4A8.357,8.357,0,0,1,337.3,8.351V405.3A8.357,8.357,0,0,1,328.95,413.655ZM46.551.366a8,8,0,0,0-7.985,7.985V405.3a8,8,0,0,0,7.985,7.985h282.4a8,8,0,0,0,7.985-7.985V8.351A8,8,0,0,0,328.95.366Z" transform="translate(17.666)" fill="#ebebeb"/>
      <path id="Trazado_604563" data-name="Trazado 604563" d="M545.25,413.655h-282.4A8.357,8.357,0,0,1,254.5,405.3V8.351A8.357,8.357,0,0,1,262.851,0h282.4A8.357,8.357,0,0,1,553.6,8.351V405.3A8.357,8.357,0,0,1,545.25,413.655ZM262.851.366a8,8,0,0,0-7.985,7.985V405.3a8,8,0,0,0,7.985,7.985h282.4a8,8,0,0,0,7.985-7.985V8.351A8,8,0,0,0,545.25.366Z" transform="translate(117.694)" fill="#ebebeb"/>
      <path id="Trazado_604564" data-name="Trazado 604564" d="M99.56,168.939H84.16v73.093h15.4Z" transform="translate(38.92 78.126)" fill="#f0f0f0"/>
      <path id="Trazado_604565" data-name="Trazado 604565" d="M96.292,172.779H85.85v49.563H96.292Z" transform="translate(39.702 79.902)" fill="#fafafa"/>
      <path id="Trazado_604566" data-name="Trazado 604566" d="M94.68,242.033h32.876V168.94H94.68Z" transform="translate(43.785 78.127)" fill="#e0e0e0"/>
      <path id="Trazado_604567" data-name="Trazado 604567" d="M112.28,168.939H96.88v73.093h15.4Z" transform="translate(44.802 78.126)" fill="#f0f0f0"/>
      <path id="Trazado_604568" data-name="Trazado 604568" d="M109.022,172.779H98.58v49.563h10.442Z" transform="translate(45.589 79.902)" fill="#fafafa"/>
      <path id="Trazado_604569" data-name="Trazado 604569" d="M107.41,242.033h32.876V168.94H107.41Z" transform="translate(49.672 78.127)" fill="#e0e0e0"/>
      <path id="Trazado_604570" data-name="Trazado 604570" d="M123.922,149.479H118.35V409.737h5.572Z" transform="translate(54.731 69.127)" fill="#ebebeb"/>
      <path id="Trazado_604571" data-name="Trazado 604571" d="M60.052,149.479H54.48V409.737h5.572Z" transform="translate(25.194 69.127)" fill="#ebebeb"/>
      <path id="Trazado_604572" data-name="Trazado 604572" d="M140.332,149.479H134.76V409.737h5.572Z" transform="translate(62.32 69.127)" fill="#ebebeb"/>
      <path id="Trazado_604573" data-name="Trazado 604573" d="M76.462,149.479H70.89V409.737h5.572Z" transform="translate(32.783 69.127)" fill="#ebebeb"/>
      <path id="Trazado_604574" data-name="Trazado 604574" d="M81.949,243.34H66.55v73.093h15.4Z" transform="translate(30.776 112.533)" fill="#f0f0f0"/>
      <path id="Trazado_604575" data-name="Trazado 604575" d="M78.692,247.189H68.25v49.563H78.692Z" transform="translate(31.562 114.313)" fill="#fafafa"/>
      <path id="Trazado_604576" data-name="Trazado 604576" d="M77.08,316.443h32.876V243.35H77.08Z" transform="translate(35.646 112.538)" fill="#e0e0e0"/>
      <path id="Trazado_604577" data-name="Trazado 604577" d="M94.679,243.34H79.28v73.093h15.4Z" transform="translate(36.663 112.533)" fill="#f0f0f0"/>
      <path id="Trazado_604578" data-name="Trazado 604578" d="M91.412,247.189H80.97v49.563H91.412Z" transform="translate(37.445 114.313)" fill="#fafafa"/>
      <path id="Trazado_604579" data-name="Trazado 604579" d="M89.8,316.443h32.876V243.35H89.8Z" transform="translate(41.528 112.538)" fill="#e0e0e0"/>
      <path id="Trazado_604580" data-name="Trazado 604580" d="M178.392,144.52H52.46v7.254H178.392Z" transform="translate(24.26 66.834)" fill="#f0f0f0"/>
      <path id="Trazado_604581" data-name="Trazado 604581" d="M178.392,218.92H52.46v7.254H178.392Z" transform="translate(24.26 101.24)" fill="#f0f0f0"/>
      <path id="Trazado_604582" data-name="Trazado 604582" d="M178.392,293.319H52.46v7.254H178.392Z" transform="translate(24.26 135.646)" fill="#f0f0f0"/>
      <path id="Trazado_604583" data-name="Trazado 604583" d="M80.97,140.316h86.066V32.139H80.97Z" transform="translate(37.445 14.863)" fill="#f0f0f0"/>
      <path id="Trazado_604584" data-name="Trazado 604584" d="M67.97,140.316H169.742V32.139H67.97Z" transform="translate(31.433 14.863)" fill="#f5f5f5"/>
      <path id="Trazado_604585" data-name="Trazado 604585" d="M73.8,37.969v91.125h84.72V37.969Z" transform="translate(34.129 17.559)" fill="#fff"/>
      <path id="Trazado_604586" data-name="Trazado 604586" d="M108.819,94.308A19.129,19.129,0,1,0,89.69,75.179,19.129,19.129,0,0,0,108.819,94.308Z" transform="translate(41.477 25.92)" fill="#f0f0f0"/>
      <path id="Trazado_604587" data-name="Trazado 604587" d="M216.66,210.663H542.451V21.1H216.66Z" transform="translate(100.195 9.758)" fill="#f0f0f0"/>
      <path id="Trazado_604588" data-name="Trazado 604588" d="M184.39,210.663H548.336V21.1H184.39Z" transform="translate(85.272 9.758)" fill="#f5f5f5"/>
      <path id="Trazado_604589" data-name="Trazado 604589" d="M198.87,31.329V191.016H520.463V31.329Z" transform="translate(91.968 14.488)" fill="#fff"/>
      <path id="Trazado_604590" data-name="Trazado 604590" d="M198.87,31.32V82.242H520.463V31.32Z" transform="translate(91.968 14.484)" fill="#fafafa"/>
      <path id="Trazado_604591" data-name="Trazado 604591" d="M198.87,94.469v67.347H520.463V94.469Z" transform="translate(91.968 43.688)" fill="#f0f0f0"/>
      <path id="Trazado_604592" data-name="Trazado 604592" d="M441.2,228.38H431.59V373.251H441.2Z" transform="translate(199.59 105.615)" fill="#e6e6e6"/>
      <path id="Trazado_604593" data-name="Trazado 604593" d="M442.339,228.38H435.67V373.251h6.669Z" transform="translate(201.477 105.615)" fill="#f0f0f0"/>
      <path id="Trazado_604594" data-name="Trazado 604594" d="M268.29,244.716H521.806V228.38H268.29Z" transform="translate(124.072 105.615)" fill="#f0f0f0"/>
      <path id="Trazado_604595" data-name="Trazado 604595" d="M268.388,239.55H258.78V368.085h9.608Z" transform="translate(119.674 110.781)" fill="#e6e6e6"/>
      <path id="Trazado_604596" data-name="Trazado 604596" d="M269.529,239.55H262.86V368.085h6.669Z" transform="translate(121.56 110.781)" fill="#f0f0f0"/>
      <path id="Trazado_604597" data-name="Trazado 604597" d="M226.828,239.55H217.22V368.085h9.608Z" transform="translate(100.454 110.781)" fill="#e6e6e6"/>
      <path id="Trazado_604598" data-name="Trazado 604598" d="M227.969,239.55H221.3V368.085h6.669Z" transform="translate(102.341 110.781)" fill="#e6e6e6"/>
      <path id="Trazado_604599" data-name="Trazado 604599" d="M399.638,239.55H390.03V368.085h9.608Z" transform="translate(180.371 110.781)" fill="#e6e6e6"/>
      <path id="Trazado_604600" data-name="Trazado 604600" d="M400.779,239.55H394.11V368.085h6.669Z" transform="translate(182.257 110.781)" fill="#e6e6e6"/>
      <path id="Trazado_604601" data-name="Trazado 604601" d="M291.908,228.38H217.22v16.336h74.688Z" transform="translate(100.454 105.615)" fill="#e6e6e6"/>
      <path id="Trazado_604602" data-name="Trazado 604602" d="M413.646,220.692c-8.175,9.14-37.468,18.661-46.14-10.062-6.3-20.884,28.927-36.313,50.016-37.2,22.712-.965,36.137,7.049,36.137,7.049A501.872,501.872,0,0,0,413.646,220.692Z" transform="translate(169.61 80.164)" fill="#e6e6e6"/>
      <path id="Trazado_604603" data-name="Trazado 604603" d="M383.316,229.029c11.51,1.228,31.063-7.576,23.326-31.735s-23.575-26.412-34.06-28.43c-13.352-2.574-40.042,8.336-40.042,8.336s39.252,50.6,50.762,51.829Z" transform="translate(153.784 77.91)" fill="#e6e6e6"/>
      <path id="Trazado_604604" data-name="Trazado 604604" d="M394.729,194.746c-14.493,6.581-26.646,8.819-19.787-11.685s15.209-30.346,28.825-34.514c17.345-5.323,37.936,6.113,37.936,6.113s-32.481,33.519-46.974,40.1Z" transform="translate(172.483 68.043)" fill="#e6e6e6"/>
      <path id="Trazado_604605" data-name="Trazado 604605" d="M388.26,193.077c11.071,3.276,19.787,2.589,11.524-17.169s-13.747-22.229-23.209-26.017c-17.491-7.005-32.145,5.572-32.145,5.572s32.759,34.353,43.83,37.629Z" transform="translate(159.283 68.336)" fill="#e6e6e6"/>
      <path id="Trazado_604606" data-name="Trazado 604606" d="M398.01,169.024c-12.021,10.53-23.092,17.2-22.595.834s8.994-31.048,21.937-37.644c8.906-4.548,28.591-2.486,28.591-2.486s-15.9,28.781-27.918,39.3Z" transform="translate(173.604 59.777)" fill="#e6e6e6"/>
      <path id="Trazado_604607" data-name="Trazado 604607" d="M376.709,163.787c7.868,6.274,14.683,9.579,12.211-3.729s-6.873-16.891-14.391-21.571c-9.594-5.981-20.079-3.086-20.079-3.086S368.841,157.513,376.709,163.787Z" transform="translate(163.917 62.292)" fill="#e6e6e6"/>
      <path id="Trazado_604608" data-name="Trazado 604608" d="M431.682,205.5h-79l10.4,33.461h58.206Z" transform="translate(163.098 95.034)" fill="#f0f0f0"/>
      <path id="Trazado_604609" data-name="Trazado 604609" d="M339.665,383.08c156.6,0,283.555-7.412,283.555-16.555S496.267,349.97,339.665,349.97,56.11,357.382,56.11,366.525,183.061,383.08,339.665,383.08Z" transform="translate(25.948 161.845)" fill="#f5f5f5"/>
      <path id="Trazado_604610" data-name="Trazado 604610" d="M312.109,136.12l-1.813,2.4c-.585.746-1.185,1.477-1.784,2.208-1.2,1.462-2.457,2.866-3.729,4.27a109.363,109.363,0,0,1-8.175,8.073c-1.462,1.287-2.969,2.574-4.548,3.817-1.609,1.228-3.276,2.428-5.046,3.583a40.559,40.559,0,0,1-13.162,5.85l-.512.117a7.439,7.439,0,0,1-1.492.19,17.6,17.6,0,0,1-6.976-1.228,21.986,21.986,0,0,1-4.446-2.369,37.654,37.654,0,0,1-5.908-5.075,74.412,74.412,0,0,1-8.131-10.34,122.1,122.1,0,0,1-6.259-10.661,116.883,116.883,0,0,1-5.148-11.129,5.863,5.863,0,0,1,9.842-6.04l.132.146,7.546,8.526c2.53,2.808,5.06,5.572,7.634,8.146a76.839,76.839,0,0,0,7.634,6.917,16.6,16.6,0,0,0,3.32,2.077c.424.176.76.263.79.2.044-.029-.336-.278-1.243-.278l-2,.307a29.085,29.085,0,0,0,5.528-3.627,87.484,87.484,0,0,0,6.6-6.04c2.179-2.238,4.387-4.577,6.523-7.005l3.2-3.671,3.042-3.583.366-.439a11.693,11.693,0,0,1,18.237,14.625Z" transform="translate(108.478 54.263)" fill="#263238"/>
      <path id="Trazado_604611" data-name="Trazado 604611" d="M241.626,128.569c-5.645.877-11.012-8.277-11.012-8.277l-4.227-5.031a4.539,4.539,0,0,1,.029-5.879l3.641-4.241a4.565,4.565,0,0,1,6.493-.424l4.841,4.343a8.148,8.148,0,0,1,2.018,2.793L245.3,116.2a10.52,10.52,0,0,1-1.726,11.085l-.351.395a2.754,2.754,0,0,1-1.594.907Z" transform="translate(104.201 47.891)" fill="#ffc3bd"/>
      <path id="Trazado_604612" data-name="Trazado 604612" d="M349.459,299.11c-7.166-52.97-9.989-84.384-14.581-110.737L289.82,187.7s20.167,84.471,29.79,118.9c9.667,34.543,64.026,120.2,64.026,120.2l11.977-7.108s-33.315-80.464-46.17-120.565Z" transform="translate(134.028 86.802)" fill="#263238"/>
      <path id="Trazado_604613" data-name="Trazado 604613" d="M348.582,366.816s8.994-11.027,8.848-14.742l9.915-5.894,5.47,10.91-4.782,2.837-1.448-.439-1.038,1.916c-4.943,2.94-12.914,7.415-16.6,8.087a2.856,2.856,0,0,1-.351-2.691Z" transform="translate(161.126 160.092)" fill="#263238"/>
      <path id="Trazado_604614" data-name="Trazado 604614" d="M341.53,115.671c-15.926-1.974-38.7-1.8-53.965.834a18.5,18.5,0,0,0-14.99,15.546c-3.217,23.048-.453,63.339,1.594,103.893,34.865,11.934,71.646-.161,71.646-.161,1.272-8.19-1.579-35-3.51-49.3,2.881-14.785,8.979-31.706,13.016-51.317a16.079,16.079,0,0,0-13.806-19.494Z" transform="translate(125.373 52.877)" fill="#263238"/>
      <path id="Trazado_604615" data-name="Trazado 604615" d="M292.589,115.371c-1.916,1.93-3.188,4.958-3.875,8.848-1.638,9.36.219,23.779,5.148,40.32,4.724-13.323,14.888-30.946,21.147-41.2,2.954-4.855,5.016-8.058,5.206-8.336v-.029a57.489,57.489,0,0,0-27.64.38Z" transform="translate(133.248 52.476)" fill="#304c8e"/>
      <path id="Trazado_604616" data-name="Trazado 604616" d="M316.716,94.436l-18.149,14.873c2.34,6.245,3.086,12.738-7.151,15.239-2.559,3.378,1.96,7.268,6.186,9.038,6.844-.848,16.482-3.13,20.65-8.862-1.316-4.5-3.305-21.074-1.55-30.3Z" transform="translate(134.421 43.665)" fill="#ffc3bd"/>
      <path id="Trazado_604617" data-name="Trazado 604617" d="M292.46,119.506a13.677,13.677,0,0,0,3.759,5.674c2.764,0,6.815-3.13,6.815-3.13s-1.565-4.387-3.759-5.279c-5.6,1.375-6.815,2.72-6.815,2.72Z" transform="translate(135.249 54.001)" fill="#fff"/>
      <path id="Trazado_604618" data-name="Trazado 604618" d="M300.332,121.474a3.977,3.977,0,0,0-3.057-.775c-3.627,5.162-5.938,13.177-8.175,22.4a156.512,156.512,0,0,0,4.314,18.12,144.363,144.363,0,0,1,7.049-16.029,96.619,96.619,0,0,1-.146-23.721Z" transform="translate(133.695 55.792)" fill="#fff"/>
      <path id="Trazado_604619" data-name="Trazado 604619" d="M306.654,98.681l-10.574,8.658a22.917,22.917,0,0,1,1.272,4.475c4.095.292,9.8-3.861,10.062-7.59A15.39,15.39,0,0,0,306.654,98.681Z" transform="translate(136.923 45.635)" opacity="0.2"/>
      <path id="Trazado_604620" data-name="Trazado 604620" d="M291.078,77.611c-5.894,3.378-2.823,6.757-2.823,6.757s-2.5,6.727.819,11.363C304.635,77.1,291.078,77.611,291.078,77.611Z" transform="translate(132.887 35.891)" fill="#263238"/>
      <path id="Trazado_604621" data-name="Trazado 604621" d="M320.9,93.275c-1.653,11.378-2.047,18.134-8.321,23.473-9.433,8.029-23.136,1.492-24.92-10.179-1.609-10.515,1.375-27.363,12.957-30.872a15.848,15.848,0,0,1,20.27,17.593Z" transform="translate(132.842 34.676)" fill="#ffc3bd"/>
      <path id="Trazado_604622" data-name="Trazado 604622" d="M323.829,103.262c-7.327.746-5.938-11.29-3.451-13.645-7.137.117-5.762-4.636-4.885-6.391-11.9,2.5-20.3,3.013-25.681-2.881-3.963-4.358-8.2.526-9.462-4.066,2.881,1.565,8.2-6.259,11.773-3.013s7.122-8.1,12.519-3.261c7.268,6.508,26.485-11.2,24.73,8.336,10.018,8.438-3.451,13.776-2.574,22.727-2.749,4.066-3,2.194-3,2.194Z" transform="translate(129.649 31.811)" fill="#263238"/>
      <path id="Trazado_604623" data-name="Trazado 604623" d="M311.489,80.3a.727.727,0,0,1-.088-1.448,10.347,10.347,0,0,0,5.879-4.066A4.869,4.869,0,0,0,318,70.637a.731.731,0,0,1,1.4-.409,6.365,6.365,0,0,1-.907,5.353,11.641,11.641,0,0,1-6.9,4.709h-.1Z" transform="translate(143.714 32.233)" fill="#263238"/>
      <path id="Trazado_604624" data-name="Trazado 604624" d="M316.143,95.623a9.933,9.933,0,0,1-5.528,5.236c-3.291,1.228-5.25-1.638-4.607-4.9.585-2.925,2.983-7.078,6.406-6.917,3.378.175,5,3.6,3.715,6.566Z" transform="translate(141.458 41.175)" fill="#ffc3bd"/>
      <path id="Trazado_604625" data-name="Trazado 604625" d="M299.291,88.346c-.073.936-.629,1.638-1.243,1.579s-1.038-.863-.965-1.784.629-1.638,1.243-1.579S299.364,87.425,299.291,88.346Z" transform="translate(137.383 40.029)" fill="#263238"/>
      <path id="Trazado_604626" data-name="Trazado 604626" d="M291.671,88.166c-.073.936-.629,1.638-1.243,1.579s-1.038-.863-.965-1.784.629-1.638,1.243-1.579S291.744,87.244,291.671,88.166Z" transform="translate(133.859 39.946)" fill="#263238"/>
      <path id="Trazado_604627" data-name="Trazado 604627" d="M294.879,88.45s-2.574,5.177-5.119,7.561c1.521,1.7,4.387,1.243,4.387,1.243Z" transform="translate(134 40.904)" fill="#ed847e"/>
      <path id="Trazado_604628" data-name="Trazado 604628" d="M302.386,87.182a.9.9,0,0,0,.278-.029.562.562,0,0,0,.307-.717,5.482,5.482,0,0,0-3.715-3.393.545.545,0,1,0-.219,1.068,4.36,4.36,0,0,1,2.91,2.72A.567.567,0,0,0,302.386,87.182Z" transform="translate(138.09 38.399)" fill="#263238"/>
      <path id="Trazado_604629" data-name="Trazado 604629" d="M288.286,85.825a.54.54,0,0,0,.512-.073,4.309,4.309,0,0,1,3.876-.775.546.546,0,1,0,.38-1.024,5.44,5.44,0,0,0-4.914.921.542.542,0,0,0-.1.775.6.6,0,0,0,.249.19Z" transform="translate(133.149 38.718)" fill="#263238"/>
      <path id="Trazado_604630" data-name="Trazado 604630" d="M316.055,114.5v.029c-.19.278-2.267,3.481-5.206,8.336a22.924,22.924,0,0,1-10.588,5.557c.585-1.96-1.155-8.57-3.1-10.6,4.577.234,10.866-.556,18.924-3.32Z" transform="translate(137.423 52.951)" fill="#304c8e"/>
      <path id="Trazado_604631" data-name="Trazado 604631" d="M316.055,114.5v.029c-.19.278-2.267,3.481-5.206,8.336a22.924,22.924,0,0,1-10.588,5.557c.585-1.96-1.155-8.57-3.1-10.6,4.577.234,10.866-.556,18.924-3.32Z" transform="translate(137.423 52.951)" fill="#fff" opacity="0.3"/>
      <path id="Trazado_604632" data-name="Trazado 604632" d="M301.092,117.711a16.918,16.918,0,0,0-9.111,9.7,6.24,6.24,0,0,1-3.451-3.788c.673-3.89,1.96-6.917,3.875-8.848C293.473,116.131,296.354,117.447,301.092,117.711Z" transform="translate(133.432 53.076)" fill="#304c8e"/>
      <path id="Trazado_604633" data-name="Trazado 604633" d="M301.092,117.711a16.918,16.918,0,0,0-9.111,9.7,6.24,6.24,0,0,1-3.451-3.788c.673-3.89,1.96-6.917,3.875-8.848C293.473,116.131,296.354,117.447,301.092,117.711Z" transform="translate(133.432 53.076)" fill="#fff" opacity="0.3"/>
      <path id="Trazado_604634" data-name="Trazado 604634" d="M333.319,121.153c2.925,3.334,5.426,6.537,7.985,9.93,2.5,3.393,4.943,6.844,7.225,10.486a119.766,119.766,0,0,1,6.523,11.48,67.263,67.263,0,0,1,2.852,6.523,42.793,42.793,0,0,1,2.179,8.087l.117.717a8.729,8.729,0,0,1-.424,4.314,42.5,42.5,0,0,1-7.078,12.153,52.763,52.763,0,0,1-4.227,4.709c-1.462,1.462-2.925,2.866-4.46,4.168a93.819,93.819,0,0,1-9.447,7.108,86.422,86.422,0,0,1-10.208,5.821,5.858,5.858,0,0,1-6.83-9.257l.263-.278c2.267-2.457,4.768-5.089,7.034-7.678s4.5-5.221,6.508-7.883a67.1,67.1,0,0,0,5.323-7.926,26.532,26.532,0,0,0,2.969-7.21l-.307,5.031a27.488,27.488,0,0,0-1.477-3.437c-.717-1.375-1.521-2.866-2.428-4.373s-1.887-3.027-2.925-4.548c-1.009-1.536-2.077-3.071-3.174-4.607-2.208-3.057-4.49-6.157-6.83-9.213l-7.02-9.053-.146-.19a11.7,11.7,0,0,1,18.032-14.9Z" transform="translate(144.684 54.18)" fill="#263238"/>
      <path id="Trazado_604635" data-name="Trazado 604635" d="M328.36,179.065a2.708,2.708,0,0,0-.527-1.755l-3.2-4.4a2.74,2.74,0,0,0-2.72-1.082l-4.519.848a31.326,31.326,0,0,0-12.211,5.177l-1.214.863a4.551,4.551,0,0,0-1.024,6.42l3.334,4.49a4.548,4.548,0,0,0,5.733,1.331l5.85-3s10.12-3.217,10.515-8.906Z" transform="translate(139.683 79.44)" fill="#ffc3bd"/>
      <path id="Trazado_604636" data-name="Trazado 604636" d="M320.373,170.841a21.238,21.238,0,0,0-6.391.132c-1.3,3.349,4.212,13.425,7.049,15.166,1.813-.424,5.938-3.963,5.938-3.963-2.428-3.232-4.958-8.862-6.61-11.334Z" transform="translate(145.111 78.917)" fill="#304c8e"/>
      <path id="Trazado_604637" data-name="Trazado 604637" d="M246.566,121.071a21.028,21.028,0,0,0-.834-6.332c-3.466-.936-12.87,5.66-14.3,8.687.614,1.755,4.592,5.47,4.592,5.47C238.962,126.131,244.285,123,246.566,121.071Z" transform="translate(107.026 53.02)" fill="#304c8e"/>
      <path id="Trazado_604638" data-name="Trazado 604638" d="M355.092,356.741l13.513-7.532-3.086-8.38L350.5,351.009Z" transform="translate(162.09 157.618)" fill="#304c8e"/>
      <path id="Trazado_604639" data-name="Trazado 604639" d="M312.409,303.888c3.2-53.453,9.389-89.166,6.8-115.5l-45-.673s4.577,84.793,7.385,120.1c2.823,35.45,17.959,122.5,17.959,122.5h13.923s3.8-85.071-1.082-126.414Z" transform="translate(126.809 86.808)" fill="#263238"/>
      <path id="Trazado_604640" data-name="Trazado 604640" d="M276.326,361.211s22.624-4.885,24.072-8.16h11.524l.38,12.168h-9.418l-1.141-1.126-1.755,1.126c-5.747,0-20.825-.219-24.481-1.521a2.58,2.58,0,0,1,.8-2.486Z" transform="translate(127.399 163.27)" fill="#263238"/>
      <path id="Trazado_604641" data-name="Trazado 604641" d="M291.58,356.492l15.5.439.717-8.789-17.988,1.1Z" transform="translate(134.024 160.999)" fill="#304c8e"/>
      <path id="Trazado_604642" data-name="Trazado 604642" d="M296.341,97.762a10.789,10.789,0,0,1-1.784-.088.274.274,0,0,1-.234-.351.33.33,0,0,1,.38-.263,9.046,9.046,0,0,0,7.444-2.325.306.306,0,0,1,.439-.029.318.318,0,0,1,0,.439,9.372,9.372,0,0,1-6.23,2.632Z" transform="translate(136.106 43.76)" fill="#263238"/>
      <path id="Trazado_604643" data-name="Trazado 604643" d="M360.569,255.82H348.46v1.462h12.109Z" transform="translate(161.146 118.305)" fill="#304c8e"/>
      <path id="Trazado_604644" data-name="Trazado 604644" d="M390.072,255.82h-27.2v1.462h27.2Z" transform="translate(167.81 118.305)" fill="#304c8e"/>
      <path id="Trazado_604645" data-name="Trazado 604645" d="M449.942,215.3H280.254l-27.3,50.528a3.358,3.358,0,0,0,2.954,4.958H449.928l13.864-27.743L449.928,215.3Z" transform="translate(116.788 99.566)" fill="#304c8e"/>
      <path id="Trazado_604646" data-name="Trazado 604646" d="M261.937,65.486a122.842,122.842,0,0,1,111.41,115.432,3.353,3.353,0,0,0,4.841,2.837l20.606-10.3a5.483,5.483,0,0,1,4.958,0l20.24,10.106a3.374,3.374,0,0,0,4.87-3.159C425.191,89.046,352.434,15.192,261.513,9.84l-13.7,27.406Z" transform="translate(114.601 4.55)" fill="#304c8e"/>
      <path id="Trazado_604647" data-name="Trazado 604647" d="M261.937,65.486a122.842,122.842,0,0,1,111.41,115.432,3.353,3.353,0,0,0,4.841,2.837l20.606-10.3a5.483,5.483,0,0,1,4.958,0l20.24,10.106a3.374,3.374,0,0,0,4.87-3.159C425.191,89.046,352.434,15.192,261.513,9.84l-13.7,27.406Z" transform="translate(114.601 4.55)" fill="#fff" opacity="0.6"/>
      <path id="Trazado_604648" data-name="Trazado 604648" d="M183.951,176.635A122.843,122.843,0,0,1,299.4,65.226a3.353,3.353,0,0,0,2.823-4.855l-10.31-20.606a5.607,5.607,0,0,1,0-4.972l10.106-20.211a3.374,3.374,0,0,0-3.159-4.87C207.511,13.4,133.672,86.139,128.29,177.045l27.406,13.7,28.24-14.113Z" transform="translate(59.328 4.489)" fill="#304c8e"/>
      <path id="Trazado_604649" data-name="Trazado 604649" d="M183.951,176.635A122.843,122.843,0,0,1,299.4,65.226a3.353,3.353,0,0,0,2.823-4.855l-10.31-20.606a5.607,5.607,0,0,1,0-4.972l10.106-20.211a3.374,3.374,0,0,0-3.159-4.87C207.511,13.4,133.672,86.139,128.29,177.045l27.406,13.7,28.24-14.113Z" transform="translate(59.328 4.489)" fill="#fff" opacity="0.4"/>
      <path id="Trazado_604650" data-name="Trazado 604650" d="M306.754,252.481h-.015A122.9,122.9,0,0,1,195.329,137.05a3.362,3.362,0,0,0-4.855-2.837l-20.591,10.3a5.6,5.6,0,0,1-2.5.585,5.679,5.679,0,0,1-2.472-.585L144.67,134.4a3.374,3.374,0,0,0-4.87,3.159,177.457,177.457,0,0,0,48.919,115.4H102.99l14.04,28.094-13.542,27.07H307.163l13.7-27.406Z" transform="translate(47.628 61.902)" fill="#304c8e"/>
      <path id="Trazado_604651" data-name="Trazado 604651" d="M306.754,252.481h-.015A122.9,122.9,0,0,1,195.329,137.05a3.362,3.362,0,0,0-4.855-2.837l-20.591,10.3a5.6,5.6,0,0,1-2.5.585,5.679,5.679,0,0,1-2.472-.585L144.67,134.4a3.374,3.374,0,0,0-4.87,3.159,177.457,177.457,0,0,0,48.919,115.4H102.99l14.04,28.094-13.542,27.07H307.163l13.7-27.406Z" transform="translate(47.628 61.902)" fill="#fff" opacity="0.2"/>
      <path id="Trazado_604652" data-name="Trazado 604652" d="M370.951,143.453A122.867,122.867,0,0,1,255.52,254.877a3.354,3.354,0,0,0-2.837,4.841l10.3,20.606a5.576,5.576,0,0,1,0,4.958l-10.106,20.24a3.374,3.374,0,0,0,3.159,4.87c91.359-3.671,165.213-76.428,170.566-167.348l-27.406-13.7Z" transform="translate(116.689 59.814)" fill="#304c8e"/>
      <path id="Trazado_604653" data-name="Trazado 604653" d="M370.951,143.453A122.867,122.867,0,0,1,255.52,254.877a3.354,3.354,0,0,0-2.837,4.841l10.3,20.606a5.576,5.576,0,0,1,0,4.958l-10.106,20.24a3.374,3.374,0,0,0,3.159,4.87c91.359-3.671,165.213-76.428,170.566-167.348l-27.406-13.7Z" transform="translate(116.689 59.814)" fill="#fff" opacity="0.8"/>
      <path id="Trazado_604654" data-name="Trazado 604654" d="M292.4,147.556l-8-22.887-12.168,1.126a57.9,57.9,0,0,0-10.266-11.48l2.5-11.963-21.849-10.53-7.81,9.4a58.088,58.088,0,0,0-15.385-.877L212.741,90.14l-22.887,8,1.126,12.154a58.363,58.363,0,0,0-11.48,10.266l-11.963-2.5-10.53,21.849,9.4,7.809a58.088,58.088,0,0,0-.877,15.385l-10.223,6.683,8,22.887,12.153-1.126a58.107,58.107,0,0,0,10.281,11.495L183.243,215l21.849,10.53,7.81-9.4a58.088,58.088,0,0,0,15.385.877l6.683,10.223,22.887-8-1.126-12.153a58.037,58.037,0,0,0,11.495-10.266l11.963,2.5,10.53-21.849-9.4-7.81a58.087,58.087,0,0,0,.878-15.385l10.223-6.683Zm-59.727,36.327a26.708,26.708,0,1,1,16.394-34.017A26.713,26.713,0,0,1,232.674,183.883Z" transform="translate(71.824 41.685)" fill="#304c8e"/>
      <path id="Trazado_604655" data-name="Trazado 604655" d="M157.112,142.557c-.7,1.082-1.55,2.486-2.325,3.773-.79,1.316-1.55,2.662-2.3,4.022-1.506,2.706-2.94,5.47-4.314,8.248a169.913,169.913,0,0,0-7.312,17.14c-.921,2.3.029.936-1.082-.526-.483-.585-.819-.57-.643-.483a3.153,3.153,0,0,0,1.053.366,33.549,33.549,0,0,0,8.234.292c6.069-.366,12.489-1.3,18.719-2.3h.1a3.273,3.273,0,0,1,1.77,6.259,105.256,105.256,0,0,1-19.3,5.967c-1.711.322-3.437.585-5.265.76a28.377,28.377,0,0,1-5.908.015,15.884,15.884,0,0,1-3.656-.834,9.857,9.857,0,0,1-4.534-3.291,8.8,8.8,0,0,1-1.492-3.232,9.44,9.44,0,0,1-.2-3.071,12.218,12.218,0,0,1,.439-2.325l.351-1.228a131.551,131.551,0,0,1,6.917-19.085c1.375-3.086,2.881-6.128,4.519-9.1.819-1.492,1.667-2.954,2.545-4.431.907-1.506,1.755-2.852,2.881-4.46a6.578,6.578,0,0,1,10.924,7.327l-.117.176Z" transform="translate(59.477 61.147)" fill="#7f3e3b"/>
      <path id="Trazado_604656" data-name="Trazado 604656" d="M171.537,168.5l-3.042,2.53a4.614,4.614,0,0,1-4.124.921l-6.742-1.77a8.582,8.582,0,0,1-5.864-5.294l-.614-1.609c4.768-4.548,13.279-5.967,13.279-5.967l2.384-.673a3.832,3.832,0,0,1,4.826,2.559l1.389,4.694a4.415,4.415,0,0,1-1.492,4.592Z" transform="translate(69.9 72.364)" fill="#7f3e3b"/>
      <path id="Trazado_604657" data-name="Trazado 604657" d="M154.064,106.109c2.106,7.766,4.68,22-.366,27.172,0,0-3.876,7.283,19.027,6.1,16.028-.819,5.1-6.1,5.1-6.1-8.819-2.062-9.067-8.5-8.014-14.522l-15.765-12.65Z" transform="translate(70.964 49.07)" fill="#7f3e3b"/>
      <path id="Trazado_604658" data-name="Trazado 604658" d="M137.366,329.92l-14.844-5.47c-1.3,11.466-5.952,28.971-5.952,28.971l10.413,4.46s6.932-20.986,10.4-27.962Z" transform="translate(53.908 150.043)" fill="#7f3e3b"/>
      <path id="Trazado_604659" data-name="Trazado 604659" d="M131.953,367.007c-7.941-5.821-7.3-5.528-11.656-8.95-3.729-2.94-4.958-3.115-7.985-5.426-2.53-1.93-.819-4.461,1.843-6.859,1.024-.921,2.281-1.945,3.744-3.276a2.382,2.382,0,0,1,3.013-.161l9.3,6.8a2.728,2.728,0,0,1,1.111,2.179,16.6,16.6,0,0,0,5.44,11.948c3.89,3.729-1.609,6.055-4.782,3.729Z" transform="translate(51.366 158.101)" fill="#263238"/>
      <path id="Trazado_604660" data-name="Trazado 604660" d="M200.458,181S184.825,261.508,172.7,299.02c-12.723,39.4-31.326,83.243-39.764,108.923-2.618.336-10.091-2.779-13.747-5.894,0,0,5.572-67.317,24.642-102.079C141.9,198.535,161.206,181,161.206,181h39.252Z" transform="translate(55.12 83.704)" fill="#304c8e"/>
      <path id="Trazado_604661" data-name="Trazado 604661" d="M200.458,181S184.825,261.508,172.7,299.02c-12.723,39.4-31.326,83.243-39.764,108.923-2.618.336-10.091-2.779-13.747-5.894,0,0,5.572-67.317,24.642-102.079C141.9,198.535,161.206,181,161.206,181h39.252Z" transform="translate(55.12 83.704)" opacity="0.3"/>
      <path id="Trazado_604662" data-name="Trazado 604662" d="M155.6,201.65l16.16,30.712c-3.685,16.16-7.766,32.861-11.67,46.491C148.334,246.167,155.6,201.65,155.6,201.65Z" transform="translate(70.932 93.254)" opacity="0.2"/>
      <path id="Trazado_604663" data-name="Trazado 604663" d="M136.67,335.562a36.118,36.118,0,0,0-1.053,5.353,1.017,1.017,0,0,1-1.345.863c-5.7-1.433-13.235-5.864-15.6-7.327a1.3,1.3,0,0,1-.643-1.258l.658-5.148a1.048,1.048,0,0,1,1.536-.76l15.663,6.786a1.3,1.3,0,0,1,.8,1.492Z" transform="translate(54.575 151.303)" fill="#263238"/>
      <path id="Trazado_604664" data-name="Trazado 604664" d="M188.159,332.91,173.9,333.963c2.34,11.378,4.768,29.337,4.768,29.337H190S187.983,340.7,188.159,332.91Z" transform="translate(80.421 153.955)" fill="#7f3e3b"/>
      <path id="Trazado_604665" data-name="Trazado 604665" d="M201.651,365.6c-9.842,0-9.14-.146-14.668-.336-4.738-.176-5.864.424-9.681.336-3.188-.073-3.057-3.115-2.077-6.61.38-1.345.907-2.91,1.448-4.855a2.58,2.58,0,0,1,2.472-1.9h11.524a2.478,2.478,0,0,1,2.091,1.1,15.136,15.136,0,0,0,10.968,6.435c5.294.717,1.843,5.835-2.091,5.835Z" transform="translate(80.749 162.89)" fill="#263238"/>
      <path id="Trazado_604666" data-name="Trazado 604666" d="M197.7,181s1.784,70.154,3.378,113.852-1.828,120.916-1.828,120.916c-.322,2.121-11.451,1.272-13.338,0,0,0-21.279-62.593-13.147-116.733-28.474-70.227-20.27-116.309-20.27-116.309Z" transform="translate(70.015 83.704)" fill="#304c8e"/>
      <path id="Trazado_604667" data-name="Trazado 604667" d="M197.7,181s1.784,70.154,3.378,113.852-1.828,120.916-1.828,120.916c-.322,2.121-11.451,1.272-13.338,0,0,0-21.279-62.593-13.147-116.733-28.474-70.227-20.27-116.309-20.27-116.309Z" transform="translate(70.015 83.704)" opacity="0.3"/>
      <path id="Trazado_604668" data-name="Trazado 604668" d="M190.693,337.853c.044,1.448.132,4.007.263,5.908a1.215,1.215,0,0,1-1.053,1.272c-4.724.643-12.255.059-14.727-.161a1.072,1.072,0,0,1-.965-.878l-.994-5.177a1.215,1.215,0,0,1,1.141-1.419l15.195-.6A1.078,1.078,0,0,1,190.693,337.853Z" transform="translate(80.095 155.754)" fill="#263238"/>
      <path id="Trazado_604669" data-name="Trazado 604669" d="M150.276,173.011c0,3.744-1.506,12.241-1.506,12.241h49.621l.526-12.621S160.674,170.466,150.276,173.011Z" transform="translate(68.799 79.436)" fill="#7f3e3b"/>
      <path id="Trazado_604670" data-name="Trazado 604670" d="M207.483,143.4a210.592,210.592,0,0,1-.351,22.873c-.409,9.93,1.477,12.372-.044,28.649-5.44,3.188-41.227,3.057-58.834.79,1.068-14.083,2.384-23.589-7.166-55.281-2.208-7.342,2.72-14.405,10.6-15.151,2.106-.2,4.344-.366,6.625-.468,8.906-.409,16.219-.673,24.13,0,2.618.219,5.338.541,7.941.877,9.374,1.228,16.789,8.906,17.067,17.725Z" transform="translate(65.002 57.528)" fill="#263238"/>
      <path id="Trazado_604671" data-name="Trazado 604671" d="M242.458,164.658l-1.989-3.437a4.642,4.642,0,0,0-3.554-2.281l-6.932-.658a8.617,8.617,0,0,0-7.327,2.94l-1.126,1.3c2.91,5.923,10.413,10.164,10.413,10.164l2,1.448a3.841,3.841,0,0,0,5.411-.746l2.925-3.934a4.434,4.434,0,0,0,.19-4.826Z" transform="translate(102.447 73.18)" fill="#7f3e3b"/>
      <path id="Trazado_604672" data-name="Trazado 604672" d="M193.387,141l.629.994c.278.424.556.863.877,1.3.6.877,1.3,1.755,2,2.6,1.419,1.726,2.983,3.378,4.607,5,1.667,1.594,3.393,3.144,5.221,4.621s3.744,2.866,5.7,4.212l-1.141-.526a84.3,84.3,0,0,0,8.2,2.515c2.91.746,5.85,1.506,8.833,2.194l8.965,2.121c3,.746,6.025,1.419,8.994,2.179h.029a3.291,3.291,0,0,1-.819,6.479c-3.174,0-6.274-.161-9.418-.293-3.13-.175-6.259-.424-9.4-.717-3.13-.322-6.274-.673-9.447-1.17a73.478,73.478,0,0,1-9.8-2.062,3.857,3.857,0,0,1-.834-.351l-.307-.176c-1.185-.687-2.4-1.345-3.583-2.047-1.17-.746-2.34-1.462-3.481-2.267a67.382,67.382,0,0,1-6.61-5.148,58.831,58.831,0,0,1-5.967-6.1c-.921-1.111-1.813-2.252-2.662-3.481-.424-.6-.848-1.243-1.243-1.9-.2-.336-.395-.658-.6-1.038s-.366-.643-.673-1.287A6.554,6.554,0,0,1,192.9,140.3l.439.7Z" transform="translate(83.616 63.468)" fill="#7f3e3b"/>
      <path id="Trazado_604673" data-name="Trazado 604673" d="M177.81,125.77c9.652,2.559,17.93,10.822,29.278,27.158-1.579,6.683-16.116,14.376-16.116,14.376S160.757,137.221,177.81,125.77Z" transform="translate(79.816 58.163)" fill="#263238"/>
      <path id="Trazado_604674" data-name="Trazado 604674" d="M171.2,96.954c.366,1.009,1.185,1.682,1.843,1.492s.892-1.155.526-2.164-1.185-1.682-1.843-1.492S170.839,95.945,171.2,96.954Z" transform="translate(79.094 43.821)" fill="#263238"/>
      <path id="Trazado_604675" data-name="Trazado 604675" d="M171.33,95.3l2.164-1.375S172.939,96.167,171.33,95.3Z" transform="translate(79.232 43.438)" fill="#263238"/>
      <path id="Trazado_604676" data-name="Trazado 604676" d="M171.67,97.55s3.261,3.861,5.879,5.426c-.877,1.623-3.334,1.682-3.334,1.682Z" transform="translate(79.389 45.112)" fill="#630f0f"/>
      <path id="Trazado_604677" data-name="Trazado 604677" d="M172,91.205a.584.584,0,0,0,.117-1.1,6.566,6.566,0,0,0-5.777-.658.572.572,0,0,0-.263.8.673.673,0,0,0,.848.307,5.244,5.244,0,0,1,4.563.57.67.67,0,0,0,.5.073Z" transform="translate(76.768 41.189)" fill="#263238"/>
      <path id="Trazado_604678" data-name="Trazado 604678" d="M147.883,107.412c4.826,11.817,6.61,16.906,14.829,21.352,12.358,6.713,25.885-.951,24.7-13.762-1.053-11.524-8.775-28.913-22.259-30.375-13.294-1.448-22.1,10.954-17.272,22.771Z" transform="translate(67.77 39.082)" fill="#7f3e3b"/>
      <path id="Trazado_604679" data-name="Trazado 604679" d="M178.1,108.841c3.949,8.688,3.437,33.315-18.676,25.681s-20.577-19.641-14.61-29.235c-12.007-10.749,3.51-19.275,17.769-23.151s26.763-.409,15.517,26.719Z" transform="translate(64.986 37.374)" fill="#263238"/>
      <path id="Trazado_604680" data-name="Trazado 604680" d="M157.315,101.854a9.445,9.445,0,1,1-11.129-7.385A9.429,9.429,0,0,1,157.315,101.854Z" transform="translate(64.1 43.601)" fill="#304c8e"/>
      <path id="Trazado_604681" data-name="Trazado 604681" d="M160.7,120.488c4.329-8.775.8-19.7-5.981-26.733-12.884-13.367-30.638-4.577-25.739,8.628,5.85,15.75-24.979,31.94-7.02,41.27,17.579,9.14,46.755-6.976,38.579-22.844C160.6,120.707,160.641,120.6,160.7,120.488Z" transform="translate(53.769 40.28)" fill="#263238"/>
      <path id="Trazado_604682" data-name="Trazado 604682" d="M163.185,102.914a8.732,8.732,0,0,0,5.777,4.095c2.983.468,3.9-2.983,2.589-6.215-1.185-2.9-4.153-6.64-6.9-5.63-2.72.994-3.217,4.972-1.462,7.736Z" transform="translate(74.99 43.931)" fill="#7f3e3b"/>
      <path id="Trazado_604683" data-name="Trazado 604683" d="M153.907,125.08c-8.658,1.331-12.124,3.963-19.187,21.352,3.2,6.479,18.237,12.694,18.237,12.694s9.945-22.522.965-34.046Z" transform="translate(62.302 57.844)" fill="#263238"/>
      <path id="Trazado_604684" data-name="Trazado 604684" d="M200.319,185.359a239.385,239.385,0,0,1-53.365-.1,1.211,1.211,0,0,1-.921-1.7c.439-1.024.863-2.047,1.287-3.071a1.13,1.13,0,0,1,1.141-.717,234.264,234.264,0,0,0,51.317,0,1.156,1.156,0,0,1,1.243,1.068c.1,1.068.219,2.121.322,3.188A1.2,1.2,0,0,1,200.319,185.359Z" transform="translate(67.486 83.133)" fill="#263238"/>
    </g>
    <g id="Grupo_1015141" data-name="Grupo 1015141">
      <path id="Trazado_604803" data-name="Trazado 604803" d="M17,0H167a17,17,0,0,1,17,17V54a17,17,0,0,1-17,17H17A17,17,0,0,1,0,54V17A17,17,0,0,1,17,0Z" transform="translate(1072.5 7452.462)" fill="#7e10b8"/>
      <path id="Trazado_605437" data-name="Trazado 605437" d="M53.787,11.287H48.531v3.938h6.144V17H46.308V4.2h8.306V6H48.531V9.529h5.256Zm4.72-3.8V17.844a3.129,3.129,0,0,1-.725,2.228,2.779,2.779,0,0,1-2.123.769,4.268,4.268,0,0,1-1.134-.149V19a3.291,3.291,0,0,0,.756.079q1.063,0,1.09-1.16V7.49Zm-2.32-2.47A1.133,1.133,0,0,1,56.5,4.2a1.179,1.179,0,0,1,.892-.325,1.193,1.193,0,0,1,.9.325,1.125,1.125,0,0,1,.316.817,1.1,1.1,0,0,1-.316.8,1.2,1.2,0,0,1-.9.321,1.188,1.188,0,0,1-.892-.321A1.107,1.107,0,0,1,56.187,5.021Zm8.789,12.155A4.419,4.419,0,0,1,61.684,15.9a4.639,4.639,0,0,1-1.261-3.406v-.264a5.706,5.706,0,0,1,.549-2.544,4.181,4.181,0,0,1,1.542-1.745,4.078,4.078,0,0,1,2.215-.624,3.733,3.733,0,0,1,3,1.239,5.24,5.24,0,0,1,1.059,3.507v.861H62.576a2.856,2.856,0,0,0,.787,1.863,2.362,2.362,0,0,0,1.736.686,2.892,2.892,0,0,0,2.391-1.187l1.151,1.1a3.845,3.845,0,0,1-1.525,1.323A4.774,4.774,0,0,1,64.976,17.176Zm-.255-8.147a1.8,1.8,0,0,0-1.419.615,3.189,3.189,0,0,0-.69,1.714h4.069V11.2a2.6,2.6,0,0,0-.571-1.622A1.785,1.785,0,0,0,64.721,9.028ZM72.455,7.49l.062.993a3.422,3.422,0,0,1,2.742-1.169,2.629,2.629,0,0,1,2.61,1.459,3.373,3.373,0,0,1,2.918-1.459,2.965,2.965,0,0,1,2.342.87,3.831,3.831,0,0,1,.787,2.566V17H81.78V10.813a1.891,1.891,0,0,0-.4-1.327,1.731,1.731,0,0,0-1.31-.422,1.778,1.778,0,0,0-1.191.391,2.063,2.063,0,0,0-.646,1.024L78.247,17H76.111V10.742A1.523,1.523,0,0,0,74.4,9.063a1.88,1.88,0,0,0-1.819,1.046V17H70.442V7.49Zm21.981,4.852a5.662,5.662,0,0,1-1,3.52,3.481,3.481,0,0,1-5.194.286v4.509H86.1V7.49h1.969l.088.967a3.137,3.137,0,0,1,2.558-1.143,3.242,3.242,0,0,1,2.729,1.3,5.813,5.813,0,0,1,.989,3.6Zm-2.127-.185A3.966,3.966,0,0,0,91.743,9.9a1.843,1.843,0,0,0-1.622-.835,1.965,1.965,0,0,0-1.881,1.081v4.219a1.983,1.983,0,0,0,1.9,1.107,1.841,1.841,0,0,0,1.6-.822A4.366,4.366,0,0,0,92.31,12.157ZM98.515,17H96.379V3.5h2.136Zm1.925-4.843a5.607,5.607,0,0,1,.554-2.518,4.044,4.044,0,0,1,1.556-1.723,4.383,4.383,0,0,1,2.3-.6,4.154,4.154,0,0,1,3.125,1.239,4.874,4.874,0,0,1,1.3,3.287l.009.5a5.658,5.658,0,0,1-.541,2.514,4,4,0,0,1-1.547,1.714,4.415,4.415,0,0,1-2.325.606,4.125,4.125,0,0,1-3.221-1.34,5.133,5.133,0,0,1-1.208-3.573Zm2.136.185a3.832,3.832,0,0,0,.606,2.3,1.971,1.971,0,0,0,1.688.831,1.95,1.95,0,0,0,1.683-.844,4.232,4.232,0,0,0,.6-2.47,3.782,3.782,0,0,0-.62-2.285,2.089,2.089,0,0,0-3.344-.013A4.152,4.152,0,0,0,102.575,12.342Z" transform="translate(1087.5 7475.462)" fill="#fff"/>
      <g id="Group_44_" data-name="Group (44)" transform="translate(1204.663 7503.423)">
        <path id="Trazado_598936" data-name="Trazado 598936" d="M10.822,11.458a2.779,2.779,0,1,0-3.343,2.066A2.779,2.779,0,0,0,10.822,11.458Z" fill="#6783c4"/>
        <path id="Trazado_598937" data-name="Trazado 598937" d="M150.54,13.415a2.779,2.779,0,1,0-3.631-1.5A2.779,2.779,0,0,0,150.54,13.415Z" transform="translate(-126.435 -0.025)" fill="#6783c4"/>
        <path id="Trazado_598938" data-name="Trazado 598938" d="M291.812,13.424a2.779,2.779,0,1,0-3.631-1.5A2.779,2.779,0,0,0,291.812,13.424Z" transform="translate(-252.793 -0.033)" fill="#6783c4"/>
        <path id="Trazado_598939" data-name="Trazado 598939" d="M433.108,13.411a2.779,2.779,0,1,0-3.631-1.5A2.779,2.779,0,0,0,433.108,13.411Z" transform="translate(-379.172 -0.021)" fill="#6783c4"/>
        <path id="Trazado_598940" data-name="Trazado 598940" d="M8.2,154.926a2.779,2.779,0,1,0-2.779-2.779A2.779,2.779,0,0,0,8.2,154.926Z" transform="translate(-0.075 -126.407)" fill="#6783c4"/>
        <path id="Trazado_598941" data-name="Trazado 598941" d="M149.471,154.926a2.779,2.779,0,1,0-2.779-2.779A2.779,2.779,0,0,0,149.471,154.926Z" transform="translate(-126.431 -126.407)" fill="#6783c4"/>
        <path id="Trazado_598942" data-name="Trazado 598942" d="M290.764,154.926a2.779,2.779,0,1,0-2.779-2.779A2.779,2.779,0,0,0,290.764,154.926Z" transform="translate(-252.808 -126.407)" fill="#6783c4"/>
        <path id="Trazado_598943" data-name="Trazado 598943" d="M432.058,154.926a2.779,2.779,0,1,0-2.779-2.779A2.779,2.779,0,0,0,432.058,154.926Z" transform="translate(-379.185 -126.407)" fill="#6783c4"/>
      </g>
      <g id="Group_43_" data-name="Group (43)" transform="translate(1054.441 7435.106)">
        <path id="Trazado_598926" data-name="Trazado 598926" d="M43.576,16.055,16.055,43.575a21.3,21.3,0,0,0,.879,2.125L45.7,16.936a21.3,21.3,0,0,0-2.125-.879Z" transform="translate(-14.867 -14.867)" fill="#cc92ea"/>
        <path id="Trazado_598927" data-name="Trazado 598927" d="M24.391.8.8,24.39a21.515,21.515,0,0,0,.349,2.28L26.67,1.148A21.515,21.515,0,0,0,24.391.8Z" transform="translate(-0.739 -0.739)" fill="#cc92ea"/>
        <path id="Trazado_598928" data-name="Trazado 598928" d="M305.344,283.808c0-.184-.01-.368-.014-.55l-22.1,22.094c.184.005.366.013.55.013a21.612,21.612,0,0,0,2.253-.118l19.188-19.188a21.6,21.6,0,0,0,.118-2.253Z" transform="translate(-262.275 -262.297)" fill="#cc92ea"/>
        <path id="Trazado_598929" data-name="Trazado 598929" d="M76.669,46.43q-.82-.645-1.7-1.208L45.2,74.989q.565.881,1.208,1.7Z" transform="translate(-41.854 -41.875)" fill="#cc92ea"/>
        <path id="Trazado_598930" data-name="Trazado 598930" d="M0,20.155,20.155,0C19.572.035,19,.095,18.427.176L.176,18.427C.095,19,.035,19.572,0,20.155Z" fill="#cc92ea"/>
        <path id="Trazado_598931" data-name="Trazado 598931" d="M114.544,84.058,84.058,114.544a21.638,21.638,0,0,0,1.833,1.64l30.293-30.293A21.651,21.651,0,0,0,114.544,84.058Z" transform="translate(-77.838 -77.838)" fill="#cc92ea"/>
        <path id="Trazado_598932" data-name="Trazado 598932" d="M167.808,139.1a21.611,21.611,0,0,0-1.178-2.155l-29.688,29.688a21.426,21.426,0,0,0,2.155,1.178Z" transform="translate(-126.808 -126.809)" fill="#cc92ea"/>
        <path id="Trazado_598933" data-name="Trazado 598933" d="M31.909,19.794A21.618,21.618,0,0,0,19.794,31.909Z" transform="translate(-18.33 -18.33)" fill="#cc92ea"/>
        <path id="Trazado_598934" data-name="Trazado 598934" d="M382.436,396.107a21.6,21.6,0,0,0,13.671-13.671Z" transform="translate(-354.136 -354.136)" fill="#cc92ea"/>
        <path id="Trazado_598935" data-name="Trazado 598935" d="M227.652,200.477l-27.175,27.175a21.435,21.435,0,0,0,2.892.721l25-25A21.692,21.692,0,0,0,227.652,200.477Z" transform="translate(-185.642 -185.642)" fill="#cc92ea"/>
      </g>
    </g>
  </g>
</svg>
