<svg xmlns="http://www.w3.org/2000/svg" width="451.826" height="319.416" viewBox="0 0 451.826 319.416">
  <g id="Grupo_1015207" data-name="Grupo 1015207" transform="translate(-810.674 -6536.5)">
    <rect id="BG" width="451.826" height="319.416" transform="translate(810.674 6536.5)" fill="#e8e8e8" opacity="0.949"/>
    <g id="Group_33" data-name="Group 33" transform="translate(978 6589.818)">
      <path id="Trazado_604401" data-name="Trazado 604401" d="M1254.326,703.583l-.51-9.325-20.076-2.9-3.132,8.795a47.934,47.934,0,0,0-5.728.981l4.73,22.423a24.932,24.932,0,0,1,20.743,3.873l10.912-20.25a47.3,47.3,0,0,0-6.937-3.6Z" transform="translate(-1009.265 -569.659)" fill="#60cb28"/>
      <path id="Trazado_604402" data-name="Trazado 604402" d="M464.877,704.852v-.966A24.407,24.407,0,0,0,487.635,688.5l.9.36A25.369,25.369,0,0,1,464.877,704.852Z" transform="translate(-383.045 -567.302)" fill="#60cb28"/>
      <path id="Trazado_604403" data-name="Trazado 604403" d="M464.872,784.51v-.966a32.287,32.287,0,0,0,20.237-7.033l.6.757a33.246,33.246,0,0,1-20.837,7.24Z" transform="translate(-383.04 -639.822)" fill="#60cb28"/>
      <path id="Trazado_604404" data-name="Trazado 604404" d="M597.4,744.648l-.541-.8a41.611,41.611,0,0,0,14.817-17.729l.884.389A42.583,42.583,0,0,1,597.4,744.648Z" transform="translate(-491.792 -598.3)" fill="#60cb28"/>
      <path id="Trazado_604405" data-name="Trazado 604405" d="M929.079,190.027l-.715.649,16.984,18.717.715-.649Z" transform="translate(-764.945 -156.577)" fill="#98a6b1"/>
      <path id="Trazado_604406" data-name="Trazado 604406" d="M174.941,420.105l-17.173-12.22,3.84-8.6a47.992,47.992,0,0,1-6.783-10.839l-9.427-.3-3.5-20.781,8.809-3.373a47.929,47.929,0,0,1,2.855-12.464l-6.446-6.87,12.218-17.173,8.6,3.841a47.956,47.956,0,0,1,10.843-6.783l.3-9.424,20.781-3.5,3.37,8.809a47.887,47.887,0,0,1,12.467,2.854l6.87-6.446,17.173,12.218-3.841,8.6a48.013,48.013,0,0,1,6.783,10.843l9.424.3,3.5,20.781-8.807,3.37a48.2,48.2,0,0,1-.854,5.614l-.1.488-23.183-5.711.082-.448a24.375,24.375,0,1,0-30.656,19.042l.425.121-4.445,23.477-.491-.116a47.673,47.673,0,0,1-5.764-1.755l-6.87,6.446Zm-15.967-12.549,15.883,11.3,6.733-6.318.283.107a46.894,46.894,0,0,0,5.433,1.705l4.093-21.618a25.354,25.354,0,1,1,32.372-20.121l21.333,5.255a47.05,47.05,0,0,0,.761-5.31l.026-.3,8.633-3.3-3.239-19.221-9.238-.293-.123-.277a47.053,47.053,0,0,0-6.958-11.123l-.195-.232,3.765-8.432-15.883-11.3-6.733,6.319-.283-.109a46.978,46.978,0,0,0-12.789-2.929l-.3-.025-3.3-8.635-19.221,3.241-.293,9.238-.277.123a47.015,47.015,0,0,0-11.123,6.958l-.232.194-8.434-3.765-11.3,15.883,6.319,6.733-.109.283a46.97,46.97,0,0,0-2.929,12.787l-.026.3-8.635,3.306,3.239,19.221,9.24.293.123.277a46.975,46.975,0,0,0,6.958,11.12l.195.232-3.764,8.434Z" transform="translate(-116.92 -256.76)" fill="#60cb28"/>
      <path id="Trazado_604407" data-name="Trazado 604407" d="M255.919,386.6l-1.687-10-9.332-.3a47.587,47.587,0,0,0-7.028-11.238l3.8-8.517-16.528-11.762-6.8,6.382a46.912,46.912,0,0,0-5.218-1.657l-4.2,22.617a24.9,24.9,0,0,1,16.828,28.178l22.255,5.482a47.708,47.708,0,0,0,.872-5.857L257.6,396.6l-1.682-10Zm-74.889-5.215a24.724,24.724,0,0,1,6.964-6.6l-11.357-19.9a47.324,47.324,0,0,0-6.082,4.345l-8.517-3.8-5.88,8.263-5.88,8.263,6.382,6.8a47.423,47.423,0,0,0-2.961,12.917l-8.722,3.339,1.687,10,1.684,10,9.331.3a47.51,47.51,0,0,0,7.03,11.235l-3.8,8.517,8.263,5.884,8.266,5.88,6.8-6.382a47,47,0,0,0,5.986,1.841l4.269-22.546a24.879,24.879,0,0,1-13.462-38.344Z" transform="translate(-119.458 -284.095)" fill="#60cb28"/>
      <path id="Trazado_604408" data-name="Trazado 604408" d="M439.53,862.123H438.5V908.9h1.029Z" transform="translate(-361.312 -710.364)" fill="#706865"/>
      <path id="Trazado_604409" data-name="Trazado 604409" d="M308.21,862.123h-1.029V908.9h1.029Z" transform="translate(-253.108 -710.364)" fill="#706865"/>
      <path id="Trazado_604410" data-name="Trazado 604410" d="M280.848,751.122h27.681a3.09,3.09,0,0,1,3.089,3.089v52.414a3.09,3.09,0,0,1-3.089,3.089H280.848a3.09,3.09,0,0,1-3.089-3.089V754.211A3.09,3.09,0,0,1,280.848,751.122Z" transform="translate(-228.865 -618.903)" fill="#bdafaa"/>
      <path id="Trazado_604411" data-name="Trazado 604411" d="M286.1,756.479H312a3.052,3.052,0,0,1,3.051,3.052v49.256A3.053,3.053,0,0,1,312,811.839H286.1a3.053,3.053,0,0,1-3.051-3.052V759.531a3.052,3.052,0,0,1,3.051-3.052Z" transform="translate(-233.223 -623.317)" fill="#fff"/>
      <path id="Trazado_604412" data-name="Trazado 604412" d="M355.363,748.6H345.274v2.279h10.089Z" transform="translate(-284.496 -616.823)" fill="#706865"/>
      <path id="Trazado_604413" data-name="Trazado 604413" d="M131.479,137.574a19.294,19.294,0,0,0,1.205-5.259l3.55-1.359-.686-4.072-.686-4.072-3.8-.121a19.3,19.3,0,0,0-2.862-4.574l1.548-3.468-3.364-2.393-3.364-2.393-2.769,2.6a19.3,19.3,0,0,0-5.259-1.205l-1.358-3.549-4.072.686-4.072.686-.121,3.8a19.3,19.3,0,0,0-4.574,2.862l-3.468-1.548-2.393,3.364-2.393,3.364,2.6,2.769a19.3,19.3,0,0,0-1.205,5.259l-3.549,1.359.686,4.072.686,4.072,3.8.121a19.3,19.3,0,0,0,2.862,4.574l-1.548,3.468,3.364,2.393L103.6,151.4l2.769-2.6a19.3,19.3,0,0,0,5.259,1.205l1.358,3.549,4.072-.686,4.072-.686.121-3.8a19.309,19.309,0,0,0,4.574-2.862l3.468,1.548,2.393-3.364,2.393-3.364-2.6-2.769ZM107.44,138.88a10.123,10.123,0,1,1,14.118-2.379A10.124,10.124,0,0,1,107.44,138.88Z" transform="translate(-74.476 -88.748)" fill="#60cb28"/>
      <path id="Trazado_604414" data-name="Trazado 604414" d="M320.777,798.09l-.67-1.751a9.6,9.6,0,0,1-2-.458l-1.366,1.282-3.789-2.7.763-1.71a9.48,9.48,0,0,1-1.088-1.739l-1.874-.059-.773-4.585,1.751-.67a9.592,9.592,0,0,1,.458-2l-1.282-1.366,2.7-3.789,1.711.763a9.48,9.48,0,0,1,1.739-1.088l.059-1.874,4.586-.773.67,1.751a9.594,9.594,0,0,1,2,.458l1.366-1.282,3.789,2.7-.763,1.71a9.483,9.483,0,0,1,1.088,1.739l1.873.059.773,4.585-1.751.67a9.6,9.6,0,0,1-.458,2l1.282,1.366-2.7,3.789-1.71-.763a9.474,9.474,0,0,1-1.739,1.088l-.059,1.873-4.586.773Zm-2.893-3.323.283.109a8.567,8.567,0,0,0,2.327.534l.3.025.6,1.572,3.026-.51.053-1.682.277-.123a8.559,8.559,0,0,0,2.024-1.265l.232-.194,1.536.686,1.779-2.5-1.151-1.227.109-.282a8.569,8.569,0,0,0,.534-2.327l.026-.3,1.572-.6-.51-3.026-1.682-.053-.123-.277a8.558,8.558,0,0,0-1.266-2.024l-.194-.232.686-1.536-2.5-1.779L324.6,778.9l-.283-.109a8.567,8.567,0,0,0-2.327-.534l-.3-.025-.6-1.572-3.026.51L318,778.855l-.277.123a8.554,8.554,0,0,0-2.024,1.265l-.232.194-1.536-.686-1.779,2.5,1.151,1.227-.109.282a8.569,8.569,0,0,0-.534,2.327l-.025.3-1.572.6.51,3.026,1.682.053.123.277a8.581,8.581,0,0,0,1.266,2.024l.194.232-.686,1.536,2.5,1.779Z" transform="translate(-255.414 -639.054)" fill="#cfcfcf"/>
      <path id="Trazado_604415" data-name="Trazado 604415" d="M351.7,819.851l-.4-.878a4.256,4.256,0,0,0,2.454-3.466l.962.089a5.221,5.221,0,0,1-3.013,4.254Zm-5.188-.478-.022-.015a5.223,5.223,0,0,1-2.186-4.248c0-.162.007-.325.023-.487l.961.091c-.012.132-.018.264-.018.4a4.261,4.261,0,0,0,1.786,3.466l-.545.8Zm5.465-7.725a4.214,4.214,0,0,0-2.454-.784,4.294,4.294,0,0,0-1.774.387l-.4-.879a5.26,5.26,0,0,1,2.176-.474,5.178,5.178,0,0,1,3.013.961Z" transform="translate(-283.699 -667.332)" fill="#cfcfcf"/>
      <path id="Trazado_604416" data-name="Trazado 604416" d="M385,905.754l-.369-.965a5.281,5.281,0,0,1-.823-.189l-.754.706-2.292-1.631.421-.943a5.222,5.222,0,0,1-.448-.716l-1.032-.033-.467-2.774.965-.37a5.287,5.287,0,0,1,.188-.823l-.706-.754,1.631-2.292.943.421a5.245,5.245,0,0,1,.716-.448l.033-1.032,2.774-.467.369.965a5.279,5.279,0,0,1,.823.188l.754-.707,2.292,1.631-.421.943a5.222,5.222,0,0,1,.448.716l1.032.033.467,2.774-.965.37a5.284,5.284,0,0,1-.188.824l.706.754-1.631,2.292-.943-.421a5.235,5.235,0,0,1-.716.448l-.033,1.032Zm-1.42-2.266.283.109a4.255,4.255,0,0,0,1.157.264l.3.025.3.782,1.214-.2.027-.837.277-.123a4.25,4.25,0,0,0,1.006-.629l.232-.194.764.34.714-1-.572-.61.109-.283a4.238,4.238,0,0,0,.264-1.157l.025-.3.783-.3-.2-1.214-.837-.027-.123-.276a4.273,4.273,0,0,0-.629-1.006l-.195-.232.342-.765-1-.714-.61.573-.283-.109a4.3,4.3,0,0,0-1.157-.266l-.3-.025-.3-.782-1.214.2-.027.837-.277.123a4.25,4.25,0,0,0-1.006.629l-.232.194-.764-.342-.714,1,.572.61-.109.283a4.248,4.248,0,0,0-.265,1.157l-.025.3-.782.3.2,1.214.837.027.123.277a4.264,4.264,0,0,0,.629,1.006l.194.232-.342.764,1,.714.61-.572Zm1.8-.927a2.976,2.976,0,1,1,.5-.042A3.028,3.028,0,0,1,385.387,902.561Zm.009-4.958a2,2,0,1,0,1.155.369A1.994,1.994,0,0,0,385.4,897.6Z" transform="translate(-312.481 -736.172)" fill="#cfcfcf"/>
      <path id="Trazado_604417" data-name="Trazado 604417" d="M261.521,979.3a2.014,2.014,0,0,1,.261.691,3.312,3.312,0,0,0,.319.815,7.766,7.766,0,0,1,.388,1.36,6.294,6.294,0,0,0-.182.911c.03.2.144.586-.034.613s-.377-.292-.377-.292a.258.258,0,0,1-.133.25.439.439,0,0,1-.444.016s-.107.2-.242.227a.551.551,0,0,1-.443-.062.526.526,0,0,1-.336.107.439.439,0,0,1-.373-.231s-.332.067-.429-.09a1.457,1.457,0,0,1-.12-.461,5.371,5.371,0,0,1,.422-2.323,2.06,2.06,0,0,0-.11-1.805l1.834.274Z" transform="translate(-213.708 -806.692)" fill="#eea886"/>
      <path id="Trazado_604418" data-name="Trazado 604418" d="M261.853,995.324s.029-1.139-.271-1.382-.333.169-.333.169.041-.406-.287-.461-.342.427-.342.427a.316.316,0,0,0-.4-.249c-.344.064-.262.464-.262.464s-.328-.392-.542-.016a1.68,1.68,0,0,0-.013,1.387s.1.173.429.088a.452.452,0,0,0,.709.123s.5.276.685-.165a.416.416,0,0,0,.624-.385Z" transform="translate(-213.619 -818.735)" fill="#db9c7c"/>
      <path id="Trazado_604419" data-name="Trazado 604419" d="M265.654,874.923s-1.95,6.5-2.608,8.895c-.206.752-.706,7.931-.795,8.22s-2.561.685-2.561.685.3-8.981.327-9.471,2.729-10.519,3.514-10.876c.588-.268.9-.046,1.641.5a1.734,1.734,0,0,1,.482,2.043Z" transform="translate(-213.977 -718.718)" fill="#304c8e"/>
      <path id="Trazado_604420" data-name="Trazado 604420" d="M406.024,819.122l-4.463,2.92.217.331,4.463-2.921Z" transform="translate(-330.875 -674.933)" fill="#4da8f2"/>
      <path id="Trazado_604421" data-name="Trazado 604421" d="M415.515,822.246a1.163,1.163,0,0,1-.115.354s-.146.174-.243.3c-.03.041-.055.078-.07.1a2.155,2.155,0,0,1-.368.574c-.212.216-1.04.9-1.04.9l-.709-.6-.737-.33a14,14,0,0,1,.587-2.017.659.659,0,0,1,.053-.06,2.742,2.742,0,0,1,.461-.318c.036-.03.415-.3.549-.268a.457.457,0,0,1,.34.284,1.093,1.093,0,0,1,.5.325.676.676,0,0,1,.438.407s.332.131.348.343Z" transform="translate(-339.669 -676.385)" fill="#efaa88"/>
      <path id="Trazado_604422" data-name="Trazado 604422" d="M273.653,1138.687s-.178,1.232-.2,1.419-1.977-.109-1.977-.109l-.158-1.468a11.581,11.581,0,0,1,2.336.16Z" transform="translate(-223.557 -938.114)" fill="#424773"/>
      <path id="Trazado_604423" data-name="Trazado 604423" d="M272.037,1146.206a5.282,5.282,0,0,0,1.218,1.067c.6.324,1.541.452,1.895.787.256.243.931,1.285-1.556,1.264s-3.688.146-3.955-.254.385-2.95.385-2.95a5.253,5.253,0,0,0,2.012.084Z" transform="translate(-222.122 -944.369)" fill="#292c47"/>
      <path id="Trazado_604424" data-name="Trazado 604424" d="M353.221,1138.687s-.177,1.232-.2,1.419-1.977-.109-1.977-.109l-.158-1.468a11.578,11.578,0,0,1,2.335.16Z" transform="translate(-289.12 -938.114)" fill="#424773"/>
      <path id="Trazado_604425" data-name="Trazado 604425" d="M351.612,1146.206a5.279,5.279,0,0,0,1.218,1.067c.6.324,2.8.59,3.158.924.256.243.681,1.218-2.82,1.127-2.488-.065-3.688.146-3.955-.254s.385-2.95.385-2.95a4.774,4.774,0,0,0,2.012.084Z" transform="translate(-287.689 -944.369)" fill="#292c47"/>
      <path id="Trazado_604426" data-name="Trazado 604426" d="M273.837,959.356a11.4,11.4,0,0,0-1.7,5.556c.137,2.639-.666,5.519-.942,8.274-.308,3.073-1.566,10.345-1.612,11.989s.2,6.89.2,6.89l2.52.058s2.117-12.715,2.665-14.012,3.267-10.548,3.358-11.584-4.484-7.17-4.484-7.17Z" transform="translate(-222.124 -790.481)" fill="#292c47"/>
      <path id="Trazado_604427" data-name="Trazado 604427" d="M299.123,957.4s1.384,7.23,1.567,8.844.3,7.816.4,8.823.854,13.176,1.1,14.706h-3.222s-2.473-8.867-2.473-13.061-1.91-9.12-3.145-11.887-4.056-2.833-4.814-7.969C288.529,956.857,298.1,955.772,299.123,957.4Z" transform="translate(-237.739 -788.131)" fill="#292c47"/>
      <path id="Trazado_604428" data-name="Trazado 604428" d="M303.965,818.916s2.466-.921,3.6.955,1.028,5.635-.215,6.1-3.11.221-3.746-.954a9.4,9.4,0,0,1-1.183-4.007,2.473,2.473,0,0,1,1.542-2.092Z" transform="translate(-249.187 -674.577)" fill="#eea886"/>
      <path id="Trazado_604429" data-name="Trazado 604429" d="M310.368,849.575a2.138,2.138,0,0,0,.066.994c.169.327-3.194.337-3.194.337a22.132,22.132,0,0,0-.791-3.29c-.518-1.507,3.919,1.961,3.919,1.961Z" transform="translate(-252.47 -698.097)" fill="#eea886"/>
      <path id="Trazado_604430" data-name="Trazado 604430" d="M302.205,822.765s.232.383,1.18.234,2.1-1.409,2.5-1.548.4-.371.4-.371l.247.362.42.027s-.383-1.128.194-1.588-.6-3.65-3.64-2.588c0,0-2.334.644-2.25,1.971a7.381,7.381,0,0,0,.947,3.5Z" transform="translate(-248.226 -673.248)" fill="#d88a51"/>
      <path id="Trazado_604431" data-name="Trazado 604431" d="M312.742,861.628s-.011-.627-.295-.687a20.177,20.177,0,0,0-3.483-.2v.729s.671.413,3.777.154Z" transform="translate(-254.578 -709.196)" fill="#e2d2ca"/>
      <path id="Trazado_604432" data-name="Trazado 604432" d="M325.326,834.814c-.053-.222-.619-.859-.836-.177s.327,1.6.632,1.519.339-.778.205-1.342Z" transform="translate(-267.33 -687.464)" fill="#eea886"/>
      <path id="Trazado_604433" data-name="Trazado 604433" d="M292.559,840.759c-1.955-.257-4.715-.949-4.715-.949l-3.778-.155a36.709,36.709,0,0,0-4.833,1.38c-.129.058-.13,3.094-.485,3.89l1.133,2.389s.654,4.731.79,6.835c.063.966-1.349,9.058-1.349,9.058a25.929,25.929,0,0,0,4.09.73c2.578.283,9.02-.1,9.061-.407s-1.247-11.339-1.3-11.912c-.087-.877.3-5.538.3-5.538.6-.461,5.822-2.888,7.248-4.153.381-.338,1.992-1.907,2.45-2.448a44.1,44.1,0,0,0,3.112-3.916c.183-.2-1.818-1.276-1.994-1.336-.155-.052-2.291,2.806-3.135,3.719a23.824,23.824,0,0,1-1.939,1.544s-3.432,1.338-4.654,1.268Z" transform="translate(-229.679 -687.379)" fill="#304c8e"/>
      <path id="Trazado_604434" data-name="Trazado 604434" d="M300.526,821.23s-3.143.246-.1,4.956Z" transform="translate(-246.45 -676.669)" fill="#d88a51"/>
      <path id="Trazado_604435" data-name="Trazado 604435" d="M427.153,819.12l.257-.392-.474.061Z" transform="translate(-351.783 -674.608)" fill="#dfe1e8"/>
      <path id="Trazado_604436" data-name="Trazado 604436" d="M918.793,34.356a2.479,2.479,0,0,0,2.477-2.477h-.583a1.893,1.893,0,1,1-1.893-1.893h.292V0H918.5V29.42a2.477,2.477,0,0,0,.291,4.936Z" transform="translate(-755.018)" fill="#385369"/>
      <path id="Trazado_604437" data-name="Trazado 604437" d="M926.572,100.128h1.395V85.968h-1.395Z" transform="translate(-763.468 -70.836)" fill="#98a6b1"/>
      <path id="Trazado_604438" data-name="Trazado 604438" d="M832.731,207.56l-.716-.65L849.371,187.8l.635.738Z" transform="translate(-685.556 -154.746)" fill="#98a6b1"/>
      <path id="Trazado_604439" data-name="Trazado 604439" d="M799.083,303.362a47.618,47.618,0,0,0,5.529-4.866L788.7,282a24.894,24.894,0,0,1-36.8-.215l-15.622,16.809a46.916,46.916,0,0,0,5.272,4.637l-1.817,9.158,9.361,3.9,9.362,3.9,5.22-7.739a47.58,47.58,0,0,0,13.255.035l5.184,7.755,9.378-3.863,9.379-3.863-1.78-9.156Z" transform="translate(-606.666 -232.183)" fill="#60cb28"/>
      <path id="Trazado_604440" data-name="Trazado 604440" d="M756.452,745.5H740.839v13.7l2.384-2.384h13.229Z" transform="translate(-610.43 -614.273)" fill="#60cb28"/>
      <path id="Trazado_604441" data-name="Trazado 604441" d="M741.78,883.058s.337-.836.392-.961a2.17,2.17,0,0,1,.774-.535,2.549,2.549,0,0,1,1.083-.266.39.39,0,0,1,.238.22.745.745,0,0,1,.062.372.457.457,0,0,1,.161.407.4.4,0,0,1,.089.43.331.331,0,0,1,.092.353,3.031,3.031,0,0,0-.424.318,6.29,6.29,0,0,1-1.537.757s-.776.014-.929-1.094Z" transform="translate(-611.205 -726.156)" fill="#eea886"/>
      <path id="Trazado_604442" data-name="Trazado 604442" d="M748.3,888.747a2.187,2.187,0,0,1-.054.581c-.061.128.918.413.918.413s-.314-.989-.865-.994Z" transform="translate(-616.533 -732.302)" fill="#cf8c6c"/>
      <path id="Trazado_604443" data-name="Trazado 604443" d="M644.725,1133.843l.428-1.333,1.81.292-.271,1.2Z" transform="translate(-531.234 -933.155)" fill="#555c94"/>
      <path id="Trazado_604444" data-name="Trazado 604444" d="M729.006,1135.942l.1.734,1.982-.331-.105-1.095Z" transform="translate(-600.68 -935.413)" fill="#555c94"/>
      <path id="Trazado_604445" data-name="Trazado 604445" d="M655.389,994.585s-.292,1.59-.63,3.355c-.059.308-.118.621-.18.931-.331,1.7-.665,3.338-.789,3.675-.281.769-6.348,11.887-6.348,11.887s-2.482-.188-2.573-.509c0,0,5.086-12.072,5.057-12.51s.622-12.815.622-12.815,4.708,5.27,4.842,5.985Z" transform="translate(-531.353 -814.577)" fill="#354c70"/>
      <path id="Trazado_604446" data-name="Trazado 604446" d="M684.513,978.543s2.374,12.156,2.577,13.087,1.1,13.384,1.1,13.384-.534,1.1-2.5.686c0,0-2.687-13.38-2.914-13.829-.879-1.739-5.193-10.167-5.61-11.372a7.241,7.241,0,0,1-.3-2.607s3.2-1.8,7.644.651Z" transform="translate(-557.706 -805.229)" fill="#354c70"/>
      <path id="Trazado_604447" data-name="Trazado 604447" d="M709.117,890.106s1.041,2.6,1.3,2.519,3.254-3.59,3.254-3.59,1.37,1.709,1.186,1.9c-.256.273-3.789,6.149-4.276,6.043s-2.659-3.7-2.659-3.7-.123-2.709,1.193-3.178Z" transform="translate(-583.307 -732.539)" fill="#7e10b8"/>
      <path id="Trazado_604448" data-name="Trazado 604448" d="M676.2,866.967a43.419,43.419,0,0,1,3.445,2.882c.745.819,2.8,4.213,2.654,5.235a74.018,74.018,0,0,0-.856,9.922c-.015,2.327.727,2.921.264,2.955-.53.04-7.325,2.5-8.331,2.8,0,0,.659-8.193.993-9.139s-1.069-10.853,1.829-14.657Z" transform="translate(-554.839 -714.355)" fill="#7e10b8"/>
      <path id="Trazado_604449" data-name="Trazado 604449" d="M756.729,844.727l.606,3.053.606,3.052a16.648,16.648,0,0,0-7.4-.3l-.267-1.346L750,847.828a16.7,16.7,0,0,0,6.725-3.1Z" transform="translate(-617.981 -696.03)" fill="#d9d0c4"/>
      <path id="Trazado_604450" data-name="Trazado 604450" d="M728.414,1139.231s1.5-.291,1.548-.334.373-.637.605-.533.234.822.46.945,2.012,1.327,2.23,1.546,1.571.092,1.727.474.168,1.281-1.849,1.07-4.321.116-4.754-.121-.105-2.464.034-3.044Z" transform="translate(-599.986 -937.968)" fill="#ffb355"/>
      <path id="Trazado_604451" data-name="Trazado 604451" d="M641.6,1137.386s1.523-.046,1.582-.084.47-.569.682-.43.1.849.3,1.005,1.773,1.634,1.954,1.885,1.537.34,1.629.743-.04,1.292-2,.76-4.283-.577-4.673-.882S641.374,1137.935,641.6,1137.386Z" transform="translate(-528.137 -936.73)" fill="#ffb355"/>
      <path id="Trazado_604452" data-name="Trazado 604452" d="M704.553,987.776s.182.74.475.9-1.362,1.742-1.362,1.742a13.99,13.99,0,0,1-.653-1.614A10.179,10.179,0,0,1,704.553,987.776Z" transform="translate(-579.261 -813.898)" fill="#eea987"/>
      <path id="Trazado_604453" data-name="Trazado 604453" d="M672.773,880.632s-1.938,9.219-2.1,10.162c-.15.893,5.682,9.422,5.682,9.422l1.939-1.151s-4.706-8.557-4.7-8.947,2.259-7.821,2.259-7.821a1.752,1.752,0,1,0-3.083-1.665Z" transform="translate(-552.616 -724.821)" fill="#7e10b8"/>
      <path id="Trazado_604454" data-name="Trazado 604454" d="M704.881,991.385a31.55,31.55,0,0,1,.592,4.1c-.039.959-3.618-1.51-3.437-2.466Z" transform="translate(-578.452 -816.872)" fill="#3c5780"/>
      <path id="Trazado_604455" data-name="Trazado 604455" d="M689.411,852.424s4.918,5.372,4.615,4.777c-1.079-2.123-1.834-2.482-1.819-2.878.012-.3.11-1.179.13-1.474.039-.563.1-1.028.1-1.028S690,848.392,690.1,849.56a7.117,7.117,0,0,1-.693,2.865Z" transform="translate(-568.055 -699.813)" fill="#eea886"/>
      <path id="Trazado_604456" data-name="Trazado 604456" d="M693.012,826.513a12.426,12.426,0,0,1,.686,1.959,7.911,7.911,0,0,0-.027,1.084,15.526,15.526,0,0,1,.385,1.63c-.055.31-.71.149-.8.66s-.566,1.474-.8,1.494c-.609.05-2.94-.9-3.089-1.389s-.994-3.207-1.256-3.725,4.108-3.352,4.505-2.533l.4.819Z" transform="translate(-566.972 -680.225)" fill="#eea886"/>
      <path id="Trazado_604457" data-name="Trazado 604457" d="M682.065,825.754c-.309-1.346,1.239-1.513,1.239-1.513a4.2,4.2,0,0,1,3.42-1.034c2.413.139,2.044,3.287,2.044,3.287a8.958,8.958,0,0,0-2.395-.066,11.411,11.411,0,0,0-.01,1.677l-.909-.081s.1-1.193-.336-1.25-.583,2.526-1.4,3.095a.9.9,0,0,0-.11-.361,10.494,10.494,0,0,1-.633-1.317,14.8,14.8,0,0,1-.914-2.438Z" transform="translate(-561.968 -678.289)" fill="#fccca2"/>
      <path id="Trazado_604458" data-name="Trazado 604458" d="M696.6,842.742a.691.691,0,0,0-1.139-.32c-.582.43.017,1.967.583,1.96S696.844,843.538,696.6,842.742Z" transform="translate(-572.847 -693.967)" fill="#eea886"/>
      <path id="Trazado_604459" data-name="Trazado 604459" d="M694.532,859.529a1.8,1.8,0,0,0,.249.6,5.252,5.252,0,0,0,1.805.944l-.105.965s-2.057-.808-1.95-2.5Z" transform="translate(-572.269 -708.227)" fill="#c48a6f"/>
      <path id="Trazado_604460" data-name="Trazado 604460" d="M746.291,880.246l.347-.165-1.573-3.339-.883.415,1.333,2.829a.545.545,0,0,0,.775.258Z" transform="translate(-613.183 -722.41)" fill="#e8734d"/>
      <path id="Trazado_604461" data-name="Trazado 604461" d="M749.143,881.38s-.984.54-.917.71a.287.287,0,0,0,.195.191l-.3.406s-.049.383.382.325c0,0-.083.353.326.248,0,0,.048.257.247.241a3.773,3.773,0,0,0,.818-.389s.1-.138-.092-.353a.388.388,0,0,0-.089-.43.427.427,0,0,0-.161-.407s.091-.481-.3-.592C749.248,881.331,749.184,881.358,749.143,881.38Z" transform="translate(-616.425 -726.191)" fill="#db9c7c"/>
      <path id="Trazado_604462" data-name="Trazado 604462" d="M735.073,864.525l3.471-.648-.565-2.845-3.443.785Z" transform="translate(-605.236 -709.465)" fill="#e8734d"/>
      <path id="Trazado_604463" data-name="Trazado 604463" d="M743.866,885.759a3.821,3.821,0,0,1,1.2.151c.1.039.182.094.182.2s-.151.237-.484.263a2.839,2.839,0,0,0-.752.212S743.658,886.511,743.866,885.759Z" transform="translate(-612.869 -729.839)" fill="#eea886"/>
      <path id="Trazado_604464" data-name="Trazado 604464" d="M690.979,1021.594c-.059.308-.118.621-.18.931l-1.971-5.216C689.089,1017.836,690.979,1021.594,690.979,1021.594Z" transform="translate(-567.574 -838.234)" fill="#293b57"/>
      <path id="Trazado_604465" data-name="Trazado 604465" d="M850.886,980.813H882.7l-10.027,30.8.937.306,10.449-32.089H850.17l-10.349,31.783.937.306Z" transform="translate(-691.988 -807.348)" fill="#fb5"/>
      <path id="Trazado_604466" data-name="Trazado 604466" d="M910.9,1011.609l-10.029-30.8h31.82l10.125,31.1.938-.306-10.349-31.783H899.517l10.448,32.089Z" transform="translate(-741.176 -807.348)" fill="#fb5"/>
      <path id="Trazado_604467" data-name="Trazado 604467" d="M924.809,1034.92H885.865v.986h38.944Z" transform="translate(-729.927 -852.744)" fill="#fb5"/>
      <path id="Trazado_604468" data-name="Trazado 604468" d="M909.663,1095.75H863.07v.986h46.593Z" transform="translate(-711.144 -902.866)" fill="#fb5"/>
      <path id="Trazado_604469" data-name="Trazado 604469" d="M1086.372,624.223s.224-.772-.12-1.075a2.6,2.6,0,0,1-.544-.97c-.079-.225-.579-.821-.3-.924s.871.944,1.039,1.14.357-.939.555-1.12,2.058.24,1.838,1a7.229,7.229,0,0,1-.97,1.575,4.907,4.907,0,0,1-.139.562l-1.362-.192Z" transform="translate(-894.277 -511.879)" fill="#e09e7f"/>
      <path id="Trazado_604470" data-name="Trazado 604470" d="M1094.34,609.817a17.718,17.718,0,0,1,1.012-2.4c.183-.106.3-.054.236.163s-.738,2.238-.738,2.238,1.436-2.547,1.567-2.668c.078-.07.319.017.292.136s-1.3,2.727-1.3,2.727,1.347-2.376,1.486-2.444a.187.187,0,0,1,.234.259c-.088.184-1.211,2.459-1.211,2.459a11.113,11.113,0,0,1,1.239-1.656c.093.007.3.074.01.5s-.884,1.489-.884,1.489Z" transform="translate(-901.704 -500.255)" fill="#e09e7f"/>
      <path id="Trazado_604471" data-name="Trazado 604471" d="M895.24,753.336s-.735.324-1.081.023a2.579,2.579,0,0,0-1.032-.412c-.233-.05-.89-.466-.955-.174s1.051.74,1.266.88-.884.477-1.036.7.507,2.009,1.235,1.691,1.3-1.139,1.434-1.169a4.812,4.812,0,0,0,.539-.21l-.368-1.326Z" transform="translate(-735.121 -620.178)" fill="#e09e7f"/>
      <path id="Trazado_604472" data-name="Trazado 604472" d="M883.187,761.557a17.736,17.736,0,0,0-2.245,1.317c-.082.2-.014.309.193.212s2.122-1.024,2.122-1.024-2.338,1.758-2.439,1.9c-.059.086.058.313.174.272s2.531-1.652,2.531-1.652-2.18,1.646-2.228,1.792a.187.187,0,0,0,.287.2c.17-.111,2.279-1.524,2.279-1.524a11.075,11.075,0,0,0-1.479,1.447c.019.091.112.292.491-.054s1.361-1.071,1.361-1.071l-1.048-1.819Z" transform="translate(-725.755 -627.5)" fill="#e09e7f"/>
      <path id="Trazado_604473" data-name="Trazado 604473" d="M905.211,704.118l1.158,1.427s7.453-3.079,8.593-4.149a12.059,12.059,0,0,0,1.844-1.339c.33-.262.652-.51.948-.727l.2-.179c.554-.5,2.058-1.839,2.058-1.839s3.737-1.985,2.214-4.13a1.466,1.466,0,0,0-1.606-.11,14.092,14.092,0,0,0-2.713,2c-.333.319-2.494,2.161-2.609,2.279-.431.437-1.9,1.745-2.657,2.316-1.336,1.007-7.431,4.452-7.431,4.452Z" transform="translate(-745.867 -570.923)" fill="#304c8e"/>
      <path id="Trazado_604474" data-name="Trazado 604474" d="M1000.78,643.336v0a8.866,8.866,0,0,1-1.014,1.672c-1.318,1.691-4.392,1.733-4.438-2.91a7.194,7.194,0,0,1,.278-2.171,3.28,3.28,0,0,1,2.108-2.4c1.093-.06,3,.21,3.64,1.633.452,1.011.125,2.686-.574,4.177Z" transform="translate(-820.121 -525.296)" fill="#eea987"/>
      <path id="Trazado_604475" data-name="Trazado 604475" d="M1002.087,642.37v0s-.158.042-.725-1.1c-.114-.23-.2-.065-.252-.167l-.9-.353s.9-1.5-.275-1.91a5.989,5.989,0,0,0-3.016.127c.39-3.688,2.106-2.4,2.106-2.4,1.093-.06,3.429.006,4.066,1.427.452,1.011-.3,2.89-1,4.382Z" transform="translate(-821.428 -524.331)" fill="#665249"/>
      <path id="Trazado_604476" data-name="Trazado 604476" d="M1019.339,657.892c.067-.31.679-.577.94.089s-.611,1.374-.84,1.228S1019.229,658.406,1019.339,657.892Z" transform="translate(-839.841 -541.816)" fill="#eea987"/>
      <path id="Trazado_604477" data-name="Trazado 604477" d="M934.355,966.033a7.085,7.085,0,0,1-2.334,1.267c-1.066.231-1.625.776-1.634,1.409s3.068,1.049,4.288.412c1.821-.951,2.006-.665,2.209-1.141a6.5,6.5,0,0,0,.053-1.886A11.881,11.881,0,0,0,934.355,966.033Z" transform="translate(-766.612 -795.948)" fill="#2e2626"/>
      <path id="Trazado_604478" data-name="Trazado 604478" d="M952.859,962.822a4.333,4.333,0,0,0-.118.528c.021.011,2.4.278,2.331-.137-.058-.336-.141-.7-.141-.7Z" transform="translate(-785.028 -793.082)" fill="#2e2626"/>
      <path id="Trazado_604479" data-name="Trazado 604479" d="M1024.084,970.814a3.727,3.727,0,0,1-1.789,1.434c-.988.237-1.352.612-1.4,1.209s2.327,1.377,4,.33c1.1-.688,1.507-.648,1.727-1.086a5.814,5.814,0,0,0,.076-1.81,12.938,12.938,0,0,0-2.609-.077Z" transform="translate(-841.188 -799.9)" fill="#2e2626"/>
      <path id="Trazado_604480" data-name="Trazado 604480" d="M1040.359,967.584a4.452,4.452,0,0,0-.03.514c.019.012,2.218.4,2.206,0a3.076,3.076,0,0,0-.139-.706l-2.035.188Z" transform="translate(-857.197 -797.106)" fill="#2f6b8c"/>
      <path id="Trazado_604481" data-name="Trazado 604481" d="M957.317,785.749s-2.989,7.414-3.848,9.932a37.839,37.839,0,0,0-1.9,7.819c-.179,2-.88,11.423-1.006,12.008s3.355.388,3.355.388,1.957-11.886,2.491-14.014c.5-1.98,5.2-10.967,5.649-10.426s1.958,9.739,2.294,11.3,1.234,13.86,1.234,13.86,3.054.489,3.67,0c0,0-.482-10.966-.7-13.894-.081-1.116.706-13.363-1.181-18.3-1-2.609-10.067,1.327-10.067,1.327Z" transform="translate(-783.236 -645.604)" fill="#60cb28"/>
      <path id="Trazado_604482" data-name="Trazado 604482" d="M988.268,690.384a15.666,15.666,0,0,0-2.921.828,15.068,15.068,0,0,0-1.13,4.379,31.273,31.273,0,0,0,.548,5.76c.365,1.342-.322,6.928-.552,8.787,0,0,4.484,2.037,12.064.449,0,0-1.333-5.782-1.107-7.621.287-2.356,1.053-7.515,1.053-7.515s.7-4.916.055-4.794a13.6,13.6,0,0,1-4.814-.274h-3.195Z" transform="translate(-810.962 -568.856)" fill="#304c8e"/>
      <path id="Trazado_604483" data-name="Trazado 604483" d="M1003.962,674.191s.792.6,3.447-.573a7.328,7.328,0,0,1,.257-3.145c.519-1.7-3.424,1.772-3.424,1.772.044.03.051.2.028.437,0,.016,0,.03-.007.047a4.7,4.7,0,0,1-.106.58c-.007.025-.014.051-.019.076-.15.569-.178.311-.178.807Z" transform="translate(-827.234 -552.064)" fill="#eea886"/>
      <path id="Trazado_604484" data-name="Trazado 604484" d="M1005.08,680.033c1.9.244,2.938-1.8,2.97-1.866-1.3,1.9-2.864,1.281-2.864,1.281a4.69,4.69,0,0,1-.106.583Z" transform="translate(-828.156 -558.79)" fill="#a77860"/>
      <path id="Trazado_604485" data-name="Trazado 604485" d="M1003.043,689.665s-.607.9.239,1.059a4.005,4.005,0,0,0,3.519-1.181s-2.484-.477-3.76.123Z" transform="translate(-826.304 -568.015)" fill="#eea886"/>
      <path id="Trazado_604486" data-name="Trazado 604486" d="M1028.595,648.7c-.269-.555.41-2,1.565-3.018a8.466,8.466,0,0,1,2.362-1.477c.475-.178,3.72-1.223,3.876-1.629.2-.515,1.06-3.038,1.13-3.259.139-.44,1.759-5.434,1.759-5.434l2.019.462s-1.505,7.221-1.693,8.147a3.319,3.319,0,0,1-1.584,2.554c-1.38.882-4.406,3.117-4.711,3.235s-3.522,2.894-4.721.419Z" transform="translate(-847.484 -522.298)" fill="#304c8e"/>
      <path id="Trazado_604487" data-name="Trazado 604487" d="M1254.469,1135.4a4.219,4.219,0,0,0-1.127.595,6.013,6.013,0,0,1-2.243,1.285c-.868.158-1.785.143-1.646,1.072s3,1.385,5.571.6,2.612-.857,2.612-1.086a16.361,16.361,0,0,0-.507-2.609C1257.015,1135.175,1254.469,1135.4,1254.469,1135.4Z" transform="translate(-1029.502 -935.401)" fill="#4b5182"/>
      <path id="Trazado_604488" data-name="Trazado 604488" d="M1345.03,1127.867a4.717,4.717,0,0,1-1.847,1.2c-.854.172-1.975.451-2.033,1.01a.689.689,0,0,0,.333.741,16.212,16.212,0,0,0,5.865-.282c.968-.364-.146-3.4-.146-3.4l-2.174.725Z" transform="translate(-1105.063 -928.73)" fill="#4b5182"/>
      <path id="Trazado_604489" data-name="Trazado 604489" d="M1296.323,861.144s-2.917,3.25-2.82,2.288a7.142,7.142,0,0,0-.437-2.288c-.148-.469-.276-.807-.276-.807.025-.046,3.174-4.514,3.059-3.117A17.154,17.154,0,0,0,1296.323,861.144Z" transform="translate(-1065.221 -706.102)" fill="#eea987"/>
      <path id="Trazado_604490" data-name="Trazado 604490" d="M1301.64,988.43s-1.281,4.464-1.065,5.258a30.266,30.266,0,0,0,2.716,4.116c.4.583,6.784,10.6,6.854,10.768s3.679-.7,3.823-1.468c0,0-5.056-10.375-6.258-11.746a5.222,5.222,0,0,1-1.287-4.376c.192-1.586,2.536-6.725,2.176-8.839s-6.747,4.057-6.964,6.289Z" transform="translate(-1071.615 -808.897)" fill="#60cb28"/>
      <path id="Trazado_604491" data-name="Trazado 604491" d="M1246.59,979.108s-8.606,6.521-9.571,7.855.118,3.316.261,3.964,5.948,13.489,6.02,14.607c0,0,3.894.324,4.578-.542,0,0-4.237-12.188-4.849-14.279s1.494-2.6,3.188-3.353,9.129-5.121,9.562-6.761a4.916,4.916,0,0,0,.005-2.629s-2.082-1.346-9.194,1.138Z" transform="translate(-1018.942 -805.518)" fill="#60cb28"/>
      <path id="Trazado_604492" data-name="Trazado 604492" d="M1264.077,861.063s-5.774-2.017-5.673-3.27,5.167-7.441,5.167-7.441l1.714,1.116-2.466,6.46,4.374,1.647-3.116,1.488Z" transform="translate(-1036.887 -700.665)" fill="#22243b"/>
      <path id="Trazado_604493" data-name="Trazado 604493" d="M1296.649,872.09a10.51,10.51,0,0,1-.674-1.639,28.153,28.153,0,0,0-3.195,2.828,5.686,5.686,0,0,1,.048,1.49Z" transform="translate(-1065.213 -717.226)" fill="#304c8e"/>
      <path id="Trazado_604494" data-name="Trazado 604494" d="M1286.852,879.421a1.545,1.545,0,0,0-1.466.289c-.887.577-3.943,3.636-4.5,3.829,0,0,1.315,5.725,1.387,7.239s1.063,9.435.486,10.444c0,0,2.216-.606,4.95-1.508a30.919,30.919,0,0,0,5.49-2.54,46.417,46.417,0,0,1-2.142-6.293c-.2-1.6-1.794-9.528-4.209-11.46Z" transform="translate(-1055.416 -724.558)" fill="#304c8e"/>
      <path id="Trazado_604495" data-name="Trazado 604495" d="M1270.017,846.927a2.671,2.671,0,0,1-.549-1.64c-.079-1.249-.035-.807-.035-.807Z" transform="translate(-1045.965 -695.765)" fill="#eea987"/>
      <path id="Trazado_604496" data-name="Trazado 604496" d="M1272.614,846.709a7,7,0,0,0-2.123-.726,3.175,3.175,0,0,0-1.516.521s-.32-1.152-.046-1.61S1272.614,846.709,1272.614,846.709Z" transform="translate(-1045.469 -696.118)" fill="#5c5c5c"/>
      <path id="Trazado_604497" data-name="Trazado 604497" d="M1294.835,863.392a5.313,5.313,0,0,1-1.766,3.057l0,0c-.148-.469-.276-.807-.276-.807A5.137,5.137,0,0,0,1294.835,863.392Z" transform="translate(-1065.221 -711.41)" fill="#a87860"/>
      <path id="Trazado_604498" data-name="Trazado 604498" d="M1270.1,835.545s-.949,2.821-1.044,3.475-2.04-.611-2.04-.611a28.334,28.334,0,0,0,1.077-3.562c.2-1.168,2.007.7,2.007.7Z" transform="translate(-1043.987 -687.573)" fill="#efaa88"/>
      <path id="Trazado_604499" data-name="Trazado 604499" d="M1260.358,850.913a2.249,2.249,0,0,0-1.825-1.7c-1.792-.1-5.844-.115-5.974-.345-.167-.293,1.8-8.164,1.8-8.164a12.433,12.433,0,0,0-2.683-.768s-4.422,11.678-3.9,12.03c1.906,1.28,10.4,1.6,10.4,1.6s1.79-.419,2.128-1.616a2.222,2.222,0,0,0,.056-1.04Z" transform="translate(-1028.097 -692.084)" fill="#304c8e"/>
      <path id="Trazado_604500" data-name="Trazado 604500" d="M1274.392,816.756a1.506,1.506,0,0,0-.313.357s-.1.274-.174.465a1.5,1.5,0,0,1-.069.145,2.781,2.781,0,0,0-.387.779c-.1.374-.308,1.729-.308,1.729l1.125.384.882.315a12.849,12.849,0,0,0,1.788-1.686c.012-.033.023-.066.032-.1a3.277,3.277,0,0,0,.046-.714c.01-.059.062-.653-.065-.778a.586.586,0,0,0-.535-.187,1.392,1.392,0,0,0-.685-.341.865.865,0,0,0-.732-.215s-.363-.278-.6-.156Z" transform="translate(-1049.03 -672.959)" fill="#efaa88"/>
      <path id="Trazado_604501" data-name="Trazado 604501" d="M1271.185,829.7s-.364,1.761.111,1.874c.392.094.113,1.8.09,2.071s.732.238.928.349,1.215,1.9,1.81,1.788a9.015,9.015,0,0,0,3.413-2.75c.488-.949.07-4.452-.822-5.714s-4.883-.7-5.533,2.381Z" transform="translate(-1047.309 -681.169)" fill="#eea886"/>
      <path id="Trazado_604502" data-name="Trazado 604502" d="M1269.658,827.523s-.613-.437-.243-2.43c.428-2.3,4.668-.985,5.008-1s2.507-.215,2.366,2.955c-.151,3.405-.31,3.341-.31,3.341s-.732-1.808-1.34-1.769c-.66.041-1.718.208-1.718.208s.109-1.579-.787-1.53-2.223-.343-2.973.223Z" transform="translate(-1045.863 -678.732)" fill="#304c8e"/>
      <path id="Trazado_604503" data-name="Trazado 604503" d="M1294.928,848.341c-.007-.179-.039-.979.577-1.042s.693.911.4,1.58-.935.459-.979-.537Z" transform="translate(-1066.98 -698.147)" fill="#eea886"/>
      <path id="Trazado_604504" data-name="Trazado 604504" d="M0,784.421H12.1v10.616l-1.846-1.848H0Z" transform="translate(0 -646.34)" fill="#60cb28"/>
      <path id="Trazado_604505" data-name="Trazado 604505" d="M141.078,1052.657l-2.432-16.175.469-.072,2.432,16.175Z" transform="translate(-114.24 -853.971)" fill="#5c5049"/>
      <path id="Trazado_604506" data-name="Trazado 604506" d="M124.2,1052.657l-2.433-16.175.469-.072,2.433,16.175Z" transform="translate(-100.336 -853.971)" fill="#5c5049"/>
      <path id="Trazado_604507" data-name="Trazado 604507" d="M50.292,1052.657l-.469-.072,2.432-16.175.469.072Z" transform="translate(-41.053 -853.971)" fill="#5c5049"/>
      <path id="Trazado_604508" data-name="Trazado 604508" d="M112.7,942.3l1.906-20.045a38.217,38.217,0,0,0-5.346-.328L106.233,942.3H112.7Z" transform="translate(-87.533 -759.629)" fill="#fab46c"/>
      <path id="Trazado_604509" data-name="Trazado 604509" d="M112.7,1031.96h-6.468v1.019H112.7Z" transform="translate(-87.533 -850.305)" fill="#fab46c"/>
      <path id="Trazado_604510" data-name="Trazado 604510" d="M77.465,941.6l-1.011-19.1s8.434-.917,13.614-.127l-12.6,19.23Z" transform="translate(-62.996 -759.739)" fill="#fab46c"/>
      <path id="Trazado_604511" data-name="Trazado 604511" d="M82.128,864.147s1.3-3.819-1.183-5a3.837,3.837,0,0,0-4.993,1.454A6.611,6.611,0,0,0,76,864.383c.341,1.174.291,2.962-.448,3.56a4.14,4.14,0,0,0-1.608,3.612c.028,1.253,4.934-3.207,4.934-3.207l3.253-4.2Z" transform="translate(-60.925 -707.577)" fill="#fccca2"/>
      <path id="Trazado_604512" data-name="Trazado 604512" d="M96.975,1102.751s-.077,2.7.308,2.86,1.844-.776,2.488-1.7-.807-3.089-1.045-4.279c-.1-.5-1.233-1.4-1.786-1.141a2.7,2.7,0,0,0-.956.917,3.259,3.259,0,0,1,.99,3.346Z" transform="translate(-79.088 -905.084)" fill="#d4c3bd"/>
      <path id="Trazado_604513" data-name="Trazado 604513" d="M95.991,1099.609a14.94,14.94,0,0,1,.725,1.635c.246.715.292,2.693.447,2.831s1.378-.481,1.541-1.22a5.419,5.419,0,0,0-.8-3,4.834,4.834,0,0,0-.952-1.167,1.228,1.228,0,0,0-.956.917Z" transform="translate(-79.094 -905.288)" fill="#de9673"/>
      <path id="Trazado_604514" data-name="Trazado 604514" d="M111.57,1105.17l1.313,1.917-.248.171-1.016-1.482Z" transform="translate(-91.93 -910.628)" fill="#d4c3bd"/>
      <path id="Trazado_604515" data-name="Trazado 604515" d="M61.633,981.4a1.786,1.786,0,0,1,0,1.874c-.642.79-4.961,2.959-4.929,4.212a10.819,10.819,0,0,0,1.107,3.713c.284.5,1.333,2.561,1.878,3.769s3.7,6.988,4.312,8.291.237-5.21.237-5.21l-3.15-9.24,7.361-7.172S67.557,979.652,61.633,981.4Z" transform="translate(-46.722 -808.051)" fill="#de9673"/>
      <path id="Trazado_604516" data-name="Trazado 604516" d="M75.044,914.778a14.252,14.252,0,0,0-2.853.926c-.81.473-2.611,2.653-2.611,3.59s7.874,1.813,7.874,1.813l1.493,5.448s3.98-.971,4.453-1.776-1.567-6.538-1.851-7.746-1.773-2.023-3.432-2.255a11.408,11.408,0,0,0-3.072,0Z" transform="translate(-57.332 -753.665)" fill="#60cb28"/>
      <path id="Trazado_604517" data-name="Trazado 604517" d="M86.371,985.78s-.143.932.237,1.327,2.125,2.7,1.2,4.959a2.848,2.848,0,0,1-2.495,2.038H82.765a27.089,27.089,0,0,1,.5,6.2c-.239,2.463-1.363,8.089-1.386,8.374s-1.077,1.172-1.385.723c0,0-.029-3.387-.194-4.667s-.872-6.4-1.084-7.156-1.468-3.056-1.468-3.292-1.227-3.947,1.45-4.894,3.623-3.6,7.174-3.616Z" transform="translate(-63.83 -812.254)" fill="#eea886"/>
      <path id="Trazado_604518" data-name="Trazado 604518" d="M80.076,1118.992s-1.757,2.051-1.56,2.419,1.921.556,3.006.239,1.315-2.908,1.88-3.985c.237-.451-.081-1.861-.673-2.009a2.7,2.7,0,0,0-1.32.111,3.258,3.258,0,0,1-1.334,3.223Z" transform="translate(-64.682 -919.231)" fill="#e6d3cc"/>
      <path id="Trazado_604519" data-name="Trazado 604519" d="M86.147,1115.293a14.835,14.835,0,0,1-.465,1.729c-.258.709-1.467,2.278-1.432,2.482a1.934,1.934,0,0,0,1.965.021,5.418,5.418,0,0,0,1.259-2.836,4.841,4.841,0,0,0-.006-1.505,1.225,1.225,0,0,0-1.32.111Z" transform="translate(-69.419 -918.756)" fill="#eea886"/>
      <path id="Trazado_604520" data-name="Trazado 604520" d="M104.076,1127.28l-.184,2.317-.3-.023.142-1.792Z" transform="translate(-85.357 -928.846)" fill="#e6d3cc"/>
      <path id="Trazado_604521" data-name="Trazado 604521" d="M70.655,987.869a2.754,2.754,0,0,1-2.495,2.038H65.612a5.035,5.035,0,0,0-3.666-1.973,7.611,7.611,0,0,0-1.962.046.132.132,0,0,1-.027,0c-3.458.512-2.791,1.781-2.78,1.817a6.215,6.215,0,0,1-.517-2.42c.332-2.737,4.287-3.31,4.929-4.1a1.785,1.785,0,0,0,0-1.874c5.924-1.746,6.815.237,6.815.237.26-.036.925-.419,1.209-.421,0,0,.3.647.506,1.232.185.516,1.407,3.133.537,5.417Z" transform="translate(-46.677 -808.057)" fill="#304c8e"/>
      <path id="Trazado_604522" data-name="Trazado 604522" d="M68.241,935.874l.877,8.15H57.581l-.877-8.15Z" transform="translate(-46.723 -771.133)" fill="#ded1c5"/>
      <path id="Trazado_604523" data-name="Trazado 604523" d="M123.423,978.008H121.5v.733h1.927Z" transform="translate(-100.109 -805.85)" fill="#ded1c5"/>
      <path id="Trazado_604524" data-name="Trazado 604524" d="M53.262,982.172H16.519v1.11H53.262Z" transform="translate(-13.611 -809.281)" fill="#bc8551"/>
      <path id="Trazado_604525" data-name="Trazado 604525" d="M94.422,864.486s2.584.764,2.216,4.352-2.058,3.4-2.216,3.428-2.163.158-2.8-4.194S94.422,864.486,94.422,864.486Z" transform="translate(-75.434 -712.269)" fill="#eea886"/>
      <path id="Trazado_604526" data-name="Trazado 604526" d="M101.211,901.37a5.927,5.927,0,0,0,.092,1.926c.228.739-3.01.76-3.009.152A6.228,6.228,0,0,0,98.314,901c-.31-1.182,2.9.371,2.9.371Z" transform="translate(-80.99 -742.031)" fill="#eea886"/>
      <path id="Trazado_604527" data-name="Trazado 604527" d="M92.874,865.055s1.4,2.234,2.882,2.752c0,0,.807-3.748-2.526-4.534s-2.811,3.787-2.562,5.005a9.92,9.92,0,0,1,2.206-3.224Z" transform="translate(-74.553 -711.237)" fill="#fccca2"/>
      <path id="Trazado_604528" data-name="Trazado 604528" d="M100.594,906.04a1.75,1.75,0,0,0,2.331.111,1.043,1.043,0,0,1-1.048.769,1.31,1.31,0,0,1-1.281-.88Z" transform="translate(-82.887 -746.55)" fill="#a77860"/>
      <path id="Trazado_604529" data-name="Trazado 604529" d="M93.377,863.964s.739-1.432,1.988-1.5a2.466,2.466,0,0,1,1.991,1.019,2.123,2.123,0,0,0-1.989-1.22c-1.5,0-1.989,1.7-1.989,1.7Z" transform="translate(-76.94 -710.483)" fill="#23344a"/>
      <path id="Trazado_604530" data-name="Trazado 604530" d="M100.379,914.479s-.046,2.483-2.014,2.556-1.559-2.381-1.559-2.381a6.847,6.847,0,0,1,3.574-.175Z" transform="translate(-79.736 -753.385)" fill="#eea886"/>
      <path id="Trazado_604531" data-name="Trazado 604531" d="M221.432,988.476h-.816v28h.816Z" transform="translate(-181.781 -814.475)" fill="#807066"/>
      <path id="Trazado_604532" data-name="Trazado 604532" d="M17.335,988.476h-.816v28h.816Z" transform="translate(-13.611 -814.475)" fill="#807066"/>
      <path id="Trazado_604533" data-name="Trazado 604533" d="M553.948,185.827a3.764,3.764,0,0,1-1.951-1.3,2.828,2.828,0,0,1-.571-2.323,17.13,17.13,0,0,0-.1-4.519,7.574,7.574,0,1,1,8.828,2.124,16.294,16.294,0,0,0-1.845,3.886,3.31,3.31,0,0,1-4.08,2.207c-.094-.02-.187-.043-.279-.07Zm5.147-19.654a6.953,6.953,0,0,0-7.239,11.176l.057.068.013.088a17.839,17.839,0,0,1,.112,4.79l0,.023a2.215,2.215,0,0,0,.454,1.828,3.188,3.188,0,0,0,1.869,1.146,2.7,2.7,0,0,0,3.347-1.745l0-.012,0-.011a17.063,17.063,0,0,1,1.97-4.132l.052-.083.09-.038a6.951,6.951,0,0,0-.729-13.1Z" transform="translate(-452.839 -136.184)" fill="#60cb28"/>
      <path id="Trazado_604534" data-name="Trazado 604534" d="M569.587,227.257l.724-8.28,1.392,1.746,1.287-.939.674,1.276,1.854-1-2.653,7.889-.587-.2,2.151-6.4-1.019.553-.633-1.2-1.188.867-.8-1-.587,6.736Z" transform="translate(-469.323 -180.431)" fill="#60cb28"/>
      <path id="Trazado_604535" data-name="Trazado 604535" d="M565.016,276.145l-5.249-1.138-.459,2.116,5.249,1.138Z" transform="translate(-460.853 -226.598)" fill="#60cb28"/>
      <path id="Trazado_604536" data-name="Trazado 604536" d="M563.263,263.2l-6.938-1.5-.738,3.4,6.938,1.5Z" transform="translate(-457.787 -215.632)" fill="#60cb28"/>
      <path id="Trazado_604537" data-name="Trazado 604537" d="M26.106,438.252l-.374-.128,3.14-9.139,7.013-1.942L38.3,417.026l5.4-2.459,1.125-7.78.392.057-1.157,7.994-5.423,2.468-2.422,10.058-7.036,1.948Z" transform="translate(-21.202 -335.181)" fill="#60cb28"/>
      <path id="Trazado_604538" data-name="Trazado 604538" d="M80.213,517.151a1.056,1.056,0,1,1-1.488-.132A1.057,1.057,0,0,1,80.213,517.151Z" transform="translate(-64.556 -425.806)" fill="#fff"/>
      <path id="Trazado_604539" data-name="Trazado 604539" d="M79.29,517.872a1.253,1.253,0,1,1,.157-1.765A1.255,1.255,0,0,1,79.29,517.872Zm-1.355-1.619a.858.858,0,1,0,1.209.107A.86.86,0,0,0,77.935,516.253Z" transform="translate(-63.638 -424.887)" fill="#60cb28"/>
      <path id="Trazado_604540" data-name="Trazado 604540" d="M94.111,460.474a1.056,1.056,0,1,1-1.488-.131A1.057,1.057,0,0,1,94.111,460.474Z" transform="translate(-76.008 -379.106)" fill="#fff"/>
      <path id="Trazado_604541" data-name="Trazado 604541" d="M93.189,461.183a1.254,1.254,0,1,1,.157-1.767,1.255,1.255,0,0,1-.157,1.767Zm-1.355-1.619a.858.858,0,1,0,1.209.108A.86.86,0,0,0,91.834,459.564Z" transform="translate(-75.09 -378.176)" fill="#60cb28"/>
      <path id="Trazado_604542" data-name="Trazado 604542" d="M124.316,446.123a1.056,1.056,0,1,1-1.488-.132A1.056,1.056,0,0,1,124.316,446.123Z" transform="translate(-100.896 -367.281)" fill="#fff"/>
      <path id="Trazado_604543" data-name="Trazado 604543" d="M123.393,446.838a1.253,1.253,0,1,1,.157-1.766A1.255,1.255,0,0,1,123.393,446.838Zm-1.355-1.619a.858.858,0,1,0,1.209.107A.86.86,0,0,0,122.038,445.219Z" transform="translate(-99.977 -366.357)" fill="#60cb28"/>
      <path id="Trazado_604544" data-name="Trazado 604544" d="M40.535,528.71a1.056,1.056,0,1,1-1.488-.132A1.056,1.056,0,0,1,40.535,528.71Z" transform="translate(-31.862 -435.33)" fill="#fff"/>
      <path id="Trazado_604545" data-name="Trazado 604545" d="M39.607,529.419a1.254,1.254,0,1,1,.156-1.767,1.257,1.257,0,0,1-.156,1.767Zm-1.355-1.62a.858.858,0,1,0,1.209.108A.86.86,0,0,0,38.252,527.8Z" transform="translate(-30.939 -434.401)" fill="#60cb28"/>
      <path id="Trazado_604546" data-name="Trazado 604546" d="M1189.24,436.419h16.989v-1.191H1189.24Z" transform="translate(-979.899 -358.615)" fill="#60cb28"/>
      <path id="Trazado_604547" data-name="Trazado 604547" d="M1189.24,452.995h16.989v-5.007H1189.24Z" transform="translate(-979.899 -369.129)" fill="#60cb28"/>
      <path id="Trazado_604548" data-name="Trazado 604548" d="M1143.9,486.742h10.023v-.749H1143.9Z" transform="translate(-942.54 -400.444)" fill="#60cb28"/>
      <path id="Trazado_604549" data-name="Trazado 604549" d="M1143.9,494.123h10.023V492.1H1143.9Z" transform="translate(-942.54 -405.474)" fill="#60cb28"/>
      <path id="Trazado_604550" data-name="Trazado 604550" d="M1301.6,412.8h.748V398.768h-.748Z" transform="translate(-1072.48 -328.573)" fill="#60cb28"/>
      <path id="Trazado_604551" data-name="Trazado 604551" d="M1244.519,642.341l-12.229-6.84,4.2-.278Z" transform="translate(-1015.371 -523.406)" fill="#d6d6d6"/>
      <path id="Trazado_604552" data-name="Trazado 604552" d="M1269.361,646.931l-3.764-6.053-3.158-.083Z" transform="translate(-1040.214 -527.995)" fill="#e8e8e8"/>
      <path id="Trazado_604553" data-name="Trazado 604553" d="M1247.115,645.74l-.245,1.541,9.662,3.725Z" transform="translate(-1027.384 -532.071)" fill="#c2c2c2"/>
      <path id="Trazado_604554" data-name="Trazado 604554" d="M102.031,558.128a36.525,36.525,0,0,1-.291-4.911q0-.464.01-.958l.966.02c-.007.323-.01.635-.01.937a36.117,36.117,0,0,0,.281,4.77l-.955.143Zm1.2-11.559-.954-.155a33.815,33.815,0,0,1,1.424-5.7l.912.319a32.889,32.889,0,0,0-1.383,5.539Zm197.923-4.353a18.467,18.467,0,0,0-3.94-3.065l.507-.822a19.621,19.621,0,0,1,4.16,3.248l-.727.638Zm-83.228-2.986,0-.966c1.937,0,3.879-.052,5.771-.141l.046.965c-1.908.091-3.864.138-5.816.142Zm-5.814-.112c-1.894-.076-3.846-.192-5.8-.347l.076-.964c1.944.152,3.885.268,5.766.344l-.039.965Zm17.432-.443-.092-.961c1.915-.182,3.843-.414,5.729-.69l.139.956c-1.9.278-3.846.511-5.777.7Zm-29.02-.459c-1.865-.211-3.8-.46-5.761-.739l.136-.956c1.949.279,3.877.526,5.733.735ZM241.05,537l-.187-.948c1.384-.274,2.782-.577,4.155-.9q.752-.177,1.491-.345l.213.942c-.49.111-.983.225-1.482.343-1.385.328-2.8.634-4.19.91Zm51.058-.408a44.514,44.514,0,0,0-5.438-1.8l.246-.933a45.506,45.506,0,0,1,5.555,1.844l-.364.895Zm-103.088-.006c-1.84-.309-3.709-.644-5.714-1.022l.179-.949c2,.377,3.862.71,5.7,1.018Zm-81.971-.674-.817-.516a21.441,21.441,0,0,1,3.8-4.523l.646.718A20.491,20.491,0,0,0,107.05,535.907Zm145.331-1.319-.173-.95c1.942-.351,3.876-.654,5.749-.9l.126.958C256.225,533.939,254.307,534.24,252.381,534.589Zm-74.768-.146q-2.853-.58-5.678-1.181l.2-.945q2.822.6,5.669,1.18Zm103.438-.822c-1.832-.283-3.756-.49-5.717-.617l.063-.964c1.987.129,3.94.339,5.8.627l-.148.955Zm-17.23-.518-.072-.964c1.975-.147,3.934-.233,5.82-.252l.011.966c-1.866.019-3.8.1-5.76.249Zm-97.554-1.053q-2.844-.612-5.665-1.213l.2-.945q2.824.6,5.668,1.212l-.2.944Zm-11.335-2.387c-2.043-.412-3.9-.773-5.68-1.1l.175-.95c1.785.33,3.648.691,5.7,1.1l-.191.947Zm-39.574-1.2-.42-.869a25.107,25.107,0,0,1,5.572-1.9l.206.944A24.16,24.16,0,0,0,115.357,528.459Zm28.2-.885c-1.972-.316-3.9-.6-5.718-.832l.123-.958c1.832.237,3.766.518,5.748.836ZM132.1,526.112l-.075-.006c-1.418-.125-2.8-.184-4.124-.19q-.781,0-1.53.029l-.037-.965c.513-.019,1.052-.029,1.571-.03,1.346,0,2.762.065,4.206.193l.072.006Z" transform="translate(-83.831 -432.543)" fill="#e0e0e0"/>
    </g>
  </g>
</svg>
