<svg xmlns="http://www.w3.org/2000/svg" width="1320.001" height="507" viewBox="0 0 1320.001 507">
  <g id="Grupo_1014605" data-name="Grupo 1014605" transform="translate(-144.331 -70)">
    <rect id="Rect치ngulo_33770" data-name="Rect치ngulo 33770" width="1320" height="507" rx="19" transform="translate(144.332 70)" fill="#60cb28"/>
    <path id="Intersecci칩n_1" data-name="Intersecci칩n 1" d="M12778.336,12135.5a19,19,0,0,1-19-19v-166.483a146.548,146.548,0,0,1,28.666,3.183,143.875,143.875,0,0,1,89.124,59.858,141.362,141.362,0,0,1,13.072,23.961,140.213,140.213,0,0,1,4.185,98.479v0Z" transform="translate(-12615.004 -11558.5)" fill="#c7edb4"/>
    <g id="Group_43_" data-name="Group (43)" transform="translate(768.256 448.564)">
      <path id="Trazado_598926" data-name="Trazado 598926" d="M71.055,16.055l-55,55A42.574,42.574,0,0,0,17.812,75.3L75.3,17.815a42.574,42.574,0,0,0-4.246-1.757Z" transform="translate(-13.68 -13.68)" fill="#4ca220"/>
      <path id="Trazado_598927" data-name="Trazado 598927" d="M47.947.8.8,47.947A43,43,0,0,0,1.5,52.5L52.5,1.5A43,43,0,0,0,47.947.8Z" transform="translate(-0.68 -0.68)" fill="#4ca220"/>
      <path id="Trazado_598928" data-name="Trazado 598928" d="M327.419,284.357c0-.368-.02-.735-.027-1.1l-44.157,44.154c.368.01.732.027,1.1.027a43.183,43.183,0,0,0,4.5-.236l38.346-38.347a43.173,43.173,0,0,0,.236-4.5Z" transform="translate(-241.347 -241.367)" fill="#4ca220"/>
      <path id="Trazado_598929" data-name="Trazado 598929" d="M108.092,47.637q-1.639-1.29-3.4-2.415L45.2,104.711q1.128,1.76,2.415,3.4Z" transform="translate(-38.515 -38.534)" fill="#4ca220"/>
      <path id="Trazado_598930" data-name="Trazado 598930" d="M0,40.279,40.279,0c-1.164.071-2.317.189-3.454.351L.351,36.825C.189,37.962.071,39.115,0,40.279Z" fill="#4ca220"/>
      <path id="Trazado_598931" data-name="Trazado 598931" d="M144.984,84.058,84.058,144.984a43.246,43.246,0,0,0,3.663,3.278l60.542-60.542A43.271,43.271,0,0,0,144.984,84.058Z" transform="translate(-71.627 -71.627)" fill="#4ca220"/>
      <path id="Trazado_598932" data-name="Trazado 598932" d="M198.627,141.25a43.194,43.194,0,0,0-2.354-4.307l-59.331,59.331a42.825,42.825,0,0,0,4.307,2.354Z" transform="translate(-116.69 -116.69)" fill="#4ca220"/>
      <path id="Trazado_598933" data-name="Trazado 598933" d="M44.006,19.794A43.2,43.2,0,0,0,19.794,44.006Z" transform="translate(-16.867 -16.867)" fill="#4ca220"/>
      <path id="Trazado_598934" data-name="Trazado 598934" d="M382.436,409.757a43.167,43.167,0,0,0,27.321-27.321Z" transform="translate(-325.877 -325.877)" fill="#4ca220"/>
      <path id="Trazado_598935" data-name="Trazado 598935" d="M254.786,200.477l-54.309,54.309a42.836,42.836,0,0,0,5.781,1.44l49.968-49.968A43.352,43.352,0,0,0,254.786,200.477Z" transform="translate(-170.828 -170.828)" fill="#4ca220"/>
    </g>
    <g id="Group_44_" data-name="Group (44)" transform="translate(699.344 122.479)">
      <path id="Trazado_598936" data-name="Trazado 598936" d="M10.822,11.458a2.779,2.779,0,1,0-3.343,2.066A2.779,2.779,0,0,0,10.822,11.458Z" fill="#641493"/>
      <path id="Trazado_598937" data-name="Trazado 598937" d="M150.54,13.415a2.779,2.779,0,1,0-3.631-1.5A2.779,2.779,0,0,0,150.54,13.415Z" transform="translate(-126.435 -0.025)" fill="#641493"/>
      <path id="Trazado_598938" data-name="Trazado 598938" d="M291.812,13.424a2.779,2.779,0,1,0-3.631-1.5A2.779,2.779,0,0,0,291.812,13.424Z" transform="translate(-252.793 -0.033)" fill="#641493"/>
      <path id="Trazado_598939" data-name="Trazado 598939" d="M433.108,13.411a2.779,2.779,0,1,0-3.631-1.5A2.779,2.779,0,0,0,433.108,13.411Z" transform="translate(-379.172 -0.021)" fill="#641493"/>
      <path id="Trazado_598940" data-name="Trazado 598940" d="M8.2,154.926a2.779,2.779,0,1,0-2.779-2.779A2.779,2.779,0,0,0,8.2,154.926Z" transform="translate(-0.075 -126.407)" fill="#641493"/>
      <path id="Trazado_598941" data-name="Trazado 598941" d="M149.471,154.926a2.779,2.779,0,1,0-2.779-2.779A2.779,2.779,0,0,0,149.471,154.926Z" transform="translate(-126.431 -126.407)" fill="#641493"/>
      <path id="Trazado_598942" data-name="Trazado 598942" d="M290.764,154.926a2.779,2.779,0,1,0-2.779-2.779A2.779,2.779,0,0,0,290.764,154.926Z" transform="translate(-252.808 -126.407)" fill="#641493"/>
      <path id="Trazado_598943" data-name="Trazado 598943" d="M432.058,154.926a2.779,2.779,0,1,0-2.779-2.779A2.779,2.779,0,0,0,432.058,154.926Z" transform="translate(-379.185 -126.407)" fill="#641493"/>
    </g>
    <g id="Group_44_2" data-name="Group (44)" transform="translate(196.658 500.48)">
      <path id="Trazado_598936-2" data-name="Trazado 598936" d="M10.822,11.458a2.779,2.779,0,1,0-3.343,2.066A2.779,2.779,0,0,0,10.822,11.458Z" fill="#641493"/>
      <path id="Trazado_598937-2" data-name="Trazado 598937" d="M150.54,13.415a2.779,2.779,0,1,0-3.631-1.5A2.779,2.779,0,0,0,150.54,13.415Z" transform="translate(-126.435 -0.025)" fill="#641493"/>
      <path id="Trazado_598938-2" data-name="Trazado 598938" d="M291.812,13.424a2.779,2.779,0,1,0-3.631-1.5A2.779,2.779,0,0,0,291.812,13.424Z" transform="translate(-252.793 -0.033)" fill="#641493"/>
      <path id="Trazado_598939-2" data-name="Trazado 598939" d="M433.108,13.411a2.779,2.779,0,1,0-3.631-1.5A2.779,2.779,0,0,0,433.108,13.411Z" transform="translate(-379.172 -0.021)" fill="#641493"/>
      <path id="Trazado_598940-2" data-name="Trazado 598940" d="M8.2,154.926a2.779,2.779,0,1,0-2.779-2.779A2.779,2.779,0,0,0,8.2,154.926Z" transform="translate(-0.075 -126.407)" fill="#641493"/>
      <path id="Trazado_598941-2" data-name="Trazado 598941" d="M149.471,154.926a2.779,2.779,0,1,0-2.779-2.779A2.779,2.779,0,0,0,149.471,154.926Z" transform="translate(-126.431 -126.407)" fill="#641493"/>
      <path id="Trazado_598942-2" data-name="Trazado 598942" d="M290.764,154.926a2.779,2.779,0,1,0-2.779-2.779A2.779,2.779,0,0,0,290.764,154.926Z" transform="translate(-252.808 -126.407)" fill="#641493"/>
      <path id="Trazado_598943-2" data-name="Trazado 598943" d="M432.058,154.926a2.779,2.779,0,1,0-2.779-2.779A2.779,2.779,0,0,0,432.058,154.926Z" transform="translate(-379.185 -126.407)" fill="#641493"/>
    </g>
  </g>
</svg>
