<svg xmlns="http://www.w3.org/2000/svg" width="530" height="798.465" viewBox="0 0 530 798.465">
  <g id="Grupo_1014611" data-name="Grupo 1014611" transform="translate(-537.5 -565)">
    <path id="Trazado_604787" data-name="Trazado 604787" d="M14,0H176a14,14,0,0,1,14,14V54a14,14,0,0,1-14,14H14A14,14,0,0,1,0,54V14A14,14,0,0,1,14,0Z" transform="translate(705 565)" fill="#60cb28"/>
    <path id="Trazado_604788" data-name="Trazado 604788" d="M14,0H176a14,14,0,0,1,14,14V54a14,14,0,0,1-14,14H14A14,14,0,0,1,0,54V14A14,14,0,0,1,14,0Z" transform="translate(705 687)" fill="#60cb28"/>
    <path id="Trazado_604789" data-name="Trazado 604789" d="M15,0H175a15,15,0,0,1,15,15V53a15,15,0,0,1-15,15H15A15,15,0,0,1,0,53V15A15,15,0,0,1,15,0Z" transform="translate(705 809)" fill="#60cb28"/>
    <path id="Trazado_604790" data-name="Trazado 604790" d="M17,0H173a17,17,0,0,1,17,17V51a17,17,0,0,1-17,17H17A17,17,0,0,1,0,51V17A17,17,0,0,1,17,0Z" transform="translate(705 931)" fill="#60cb28"/>
    <path id="Trazado_604791" data-name="Trazado 604791" d="M0,0H192.661V192.661H0Z" transform="translate(663.768 1189.232) rotate(-45)" fill="#304c8e"/>
    <path id="Trazado_604792" data-name="Trazado 604792" d="M0,0V30" transform="translate(800.5 643.5)" fill="none" stroke="#707070" stroke-width="2"/>
    <path id="Trazado_604793" data-name="Trazado 604793" d="M0,0V30" transform="translate(800.5 762)" fill="none" stroke="#707070" stroke-width="2"/>
    <path id="Trazado_604794" data-name="Trazado 604794" d="M0,0V30" transform="translate(800.5 884)" fill="none" stroke="#707070" stroke-width="2"/>
    <path id="Trazado_604795" data-name="Trazado 604795" d="M0,0V30" transform="translate(800.5 1009.5)" fill="none" stroke="#707070" stroke-width="2"/>
    <path id="Trazado_604796" data-name="Trazado 604796" d="M0,0V30" transform="translate(800.5 1332.465)" fill="none" stroke="#707070" stroke-width="2"/>
    <path id="Trazado_604797" data-name="Trazado 604797" d="M0,0V290.732" transform="translate(538.5 899.5)" fill="none" stroke="#707070" stroke-width="2"/>
    <path id="Trazado_604798" data-name="Trazado 604798" d="M140,0H0" transform="translate(926.5 721.5)" fill="none" stroke="#707070" stroke-width="2"/>
    <path id="Trazado_604799" data-name="Trazado 604799" d="M261,0H0" transform="translate(539 900)" fill="none" stroke="#707070" stroke-width="2"/>
    <path id="Trazado_604800" data-name="Trazado 604800" d="M140,0H0" transform="translate(926.5 611.018)" fill="none" stroke="#707070" stroke-width="2"/>
    <path id="Trazado_604801" data-name="Trazado 604801" d="M266,0H0" transform="translate(800.5 1362.465)" fill="none" stroke="#707070" stroke-width="2"/>
    <path id="Trazado_604802" data-name="Trazado 604802" d="M108,0H0" transform="translate(538.5 1189.232)" fill="none" stroke="#707070" stroke-width="2"/>
    <path id="Trazado_604803" data-name="Trazado 604803" d="M0,0V640.965" transform="translate(1066.5 721.5)" fill="none" stroke="#707070" stroke-width="2"/>
    <path id="Trazado_604804" data-name="Trazado 604804" d="M0,0V114.982" transform="translate(1066.5 610.518)" fill="none" stroke="#707070" stroke-width="2"/>
    <path id="Trazado_604805" data-name="Trazado 604805" d="M4.5,0,9,8H0Z" transform="translate(805 680) rotate(180)" fill="#707070"/>
    <path id="Trazado_604806" data-name="Trazado 604806" d="M4.5,0,9,8H0Z" transform="translate(805 798.5) rotate(180)" fill="#707070"/>
    <path id="Trazado_604807" data-name="Trazado 604807" d="M4.5,0,9,8H0Z" transform="translate(918.5 725.5) rotate(-90)" fill="#707070"/>
    <path id="Trazado_604808" data-name="Trazado 604808" d="M4.5,0,9,8H0Z" transform="translate(918.5 615.018) rotate(-90)" fill="#707070"/>
    <path id="Trazado_604809" data-name="Trazado 604809" d="M4.5,0,9,8H0Z" transform="translate(805 920.5) rotate(180)" fill="#707070"/>
    <path id="Trazado_604810" data-name="Trazado 604810" d="M4.5,0,9,8H0Z" transform="translate(805 1046) rotate(180)" fill="#707070"/>
    <path id="Trazado_604811" data-name="Trazado 604811" d="M4.727,14.935V20h-3.6V5.07H7.085a6.939,6.939,0,0,1,3.03.631A4.753,4.753,0,0,1,12.156,7.5a4.9,4.9,0,0,1,.723,2.64,4.32,4.32,0,0,1-1.564,3.491,6.488,6.488,0,0,1-4.291,1.307Zm0-2.779H7.085a2.224,2.224,0,0,0,1.594-.523,1.943,1.943,0,0,0,.549-1.477,2.4,2.4,0,0,0-.564-1.671,2,2,0,0,0-1.538-.636h-2.4ZM18.283,20H14.817V4.25h3.466Zm8.377,0a3.9,3.9,0,0,1-.328-.995,3.213,3.213,0,0,1-2.666,1.2A3.936,3.936,0,0,1,21,19.257a3.019,3.019,0,0,1-1.1-2.384,3.1,3.1,0,0,1,1.333-2.728,6.791,6.791,0,0,1,3.876-.923h1.066v-.587q0-1.535-1.323-1.535a1.081,1.081,0,0,0-1.23,1.216H20.169A3.1,3.1,0,0,1,21.538,9.7a5.753,5.753,0,0,1,3.491-1,5.044,5.044,0,0,1,3.353,1.036,3.6,3.6,0,0,1,1.261,2.84v4.912a5.03,5.03,0,0,0,.472,2.338V20ZM24.5,17.744a1.928,1.928,0,0,0,1.072-.277,1.735,1.735,0,0,0,.61-.625V15.068h-1q-1.8,0-1.8,1.62a.989.989,0,0,0,.318.764A1.15,1.15,0,0,0,24.5,17.744ZM34.73,8.905l.113,1.3A3.762,3.762,0,0,1,38.011,8.7,3.165,3.165,0,0,1,40.6,9.736a4.93,4.93,0,0,1,.887,3.117V20H38.021V13a1.872,1.872,0,0,0-.338-1.236,1.565,1.565,0,0,0-1.23-.395,1.648,1.648,0,0,0-1.507.8V20H31.49V8.905Zm14.038,11.3a5.7,5.7,0,0,1-4.132-1.523,5.258,5.258,0,0,1-1.579-3.963v-.287a6.814,6.814,0,0,1,.631-3,4.614,4.614,0,0,1,1.841-2.015A5.556,5.556,0,0,1,48.4,8.7a4.8,4.8,0,0,1,3.691,1.451A5.7,5.7,0,0,1,53.443,14.2V15.54h-6.87a2.491,2.491,0,0,0,.81,1.466,2.41,2.41,0,0,0,1.62.533,3.106,3.106,0,0,0,2.563-1.148l1.579,1.866a4.414,4.414,0,0,1-1.83,1.42A6.185,6.185,0,0,1,48.768,20.205Zm-.39-8.839q-1.518,0-1.8,2.01H50.06v-.267a1.712,1.712,0,0,0-.42-1.287A1.673,1.673,0,0,0,48.378,11.366ZM61.083,20a3.9,3.9,0,0,1-.328-.995,3.213,3.213,0,0,1-2.666,1.2,3.936,3.936,0,0,1-2.666-.948,3.019,3.019,0,0,1-1.1-2.384,3.1,3.1,0,0,1,1.333-2.728,6.791,6.791,0,0,1,3.876-.923H60.6v-.587q0-1.535-1.323-1.535a1.081,1.081,0,0,0-1.23,1.216H54.592A3.1,3.1,0,0,1,55.961,9.7a5.753,5.753,0,0,1,3.491-1,5.044,5.044,0,0,1,3.353,1.036,3.6,3.6,0,0,1,1.261,2.84v4.912a5.03,5.03,0,0,0,.472,2.338V20Zm-2.164-2.256a1.928,1.928,0,0,0,1.072-.277,1.735,1.735,0,0,0,.61-.625V15.068h-1q-1.8,0-1.8,1.62a.989.989,0,0,0,.318.764A1.15,1.15,0,0,0,58.919,17.744Zm11.751-.205a1.537,1.537,0,0,0,1.128-.395,1.448,1.448,0,0,0,.39-1.1h3.24a3.836,3.836,0,0,1-1.307,2.994,4.863,4.863,0,0,1-3.368,1.169,4.924,4.924,0,0,1-3.814-1.518,5.979,5.979,0,0,1-1.395-4.2V14.34a6.758,6.758,0,0,1,.62-2.969,4.517,4.517,0,0,1,1.789-1.979A5.335,5.335,0,0,1,70.721,8.7a4.8,4.8,0,0,1,3.435,1.2,4.255,4.255,0,0,1,1.271,3.25h-3.24a1.9,1.9,0,0,0-.42-1.323,1.451,1.451,0,0,0-1.128-.461q-1.343,0-1.569,1.712a12.083,12.083,0,0,0-.072,1.5,4.746,4.746,0,0,0,.4,2.317A1.384,1.384,0,0,0,70.67,17.539ZM80.534,20H77.068V8.905h3.466ZM76.863,6.044a1.542,1.542,0,0,1,.533-1.21,2.267,2.267,0,0,1,2.769,0,1.542,1.542,0,0,1,.533,1.21,1.542,1.542,0,0,1-.533,1.21,2.267,2.267,0,0,1-2.769,0A1.542,1.542,0,0,1,76.863,6.044Zm5.363,8.306a6.548,6.548,0,0,1,.646-2.958A4.62,4.62,0,0,1,84.728,9.4a5.59,5.59,0,0,1,2.84-.7A5.1,5.1,0,0,1,91.5,10.243a5.922,5.922,0,0,1,1.436,4.2v.123a5.746,5.746,0,0,1-1.441,4.117,5.115,5.115,0,0,1-3.9,1.523,5.173,5.173,0,0,1-3.8-1.42,5.555,5.555,0,0,1-1.548-3.85Zm3.456.215a4.128,4.128,0,0,0,.482,2.256,1.606,1.606,0,0,0,1.425.718q1.846,0,1.887-2.84V14.35q0-2.984-1.907-2.984-1.733,0-1.876,2.574ZM88.04,4.25h3.65L88.84,7.47l-2.82-.005Zm9.587,4.655.113,1.3A3.762,3.762,0,0,1,100.909,8.7,3.165,3.165,0,0,1,103.5,9.736a4.93,4.93,0,0,1,.887,3.117V20h-3.466V13a1.872,1.872,0,0,0-.338-1.236,1.565,1.565,0,0,0-1.23-.395,1.648,1.648,0,0,0-1.507.8V20H94.387V8.905Z" transform="translate(749 587)" fill="#12263f"/>
    <path id="Trazado_604812" data-name="Trazado 604812" d="M13.771,12.843a8.8,8.8,0,0,1-.81,3.866,5.987,5.987,0,0,1-2.3,2.589,6.41,6.41,0,0,1-3.4.907,6.5,6.5,0,0,1-3.384-.877,5.977,5.977,0,0,1-2.3-2.507,8.551,8.551,0,0,1-.866-3.743v-.841a8.843,8.843,0,0,1,.8-3.871A5.972,5.972,0,0,1,3.82,5.778a6.455,6.455,0,0,1,3.42-.913,6.392,6.392,0,0,1,3.384.9,6.08,6.08,0,0,1,2.312,2.569,8.589,8.589,0,0,1,.836,3.82Zm-3.661-.625a6.278,6.278,0,0,0-.743-3.379A2.385,2.385,0,0,0,7.239,7.685q-2.707,0-2.861,4.061l-.01,1.1A6.457,6.457,0,0,0,5.1,16.216,2.381,2.381,0,0,0,7.26,17.4a2.352,2.352,0,0,0,2.1-1.159A6.281,6.281,0,0,0,10.11,12.9Zm12.069-.185-1.138-.082a2.044,2.044,0,0,0-2.092,1.025V20H15.494V8.905h3.24l.113,1.425a2.676,2.676,0,0,1,2.43-1.63,3.37,3.37,0,0,1,.964.123Zm.646,2.338a7.491,7.491,0,0,1,.554-2.974A4.458,4.458,0,0,1,24.968,9.4a4.19,4.19,0,0,1,2.41-.7,3.331,3.331,0,0,1,2.707,1.169l.123-.964h3.138V19.58a4.678,4.678,0,0,1-.682,2.548,4.375,4.375,0,0,1-1.974,1.661,7.255,7.255,0,0,1-2.994.579,6.259,6.259,0,0,1-2.364-.461,4.266,4.266,0,0,1-1.748-1.2l1.446-2.03a3.169,3.169,0,0,0,2.543,1.138,2.058,2.058,0,0,0,2.3-2.358v-.349a3.245,3.245,0,0,1-2.512,1.1,4.01,4.01,0,0,1-3.281-1.553,6.436,6.436,0,0,1-1.251-4.158Zm3.466.215a3.947,3.947,0,0,0,.513,2.158,1.618,1.618,0,0,0,1.436.795,1.835,1.835,0,0,0,1.63-.749V12.125a1.789,1.789,0,0,0-1.61-.759,1.628,1.628,0,0,0-1.446.825A4.5,4.5,0,0,0,26.291,14.586ZM41.559,20a3.9,3.9,0,0,1-.328-.995,3.213,3.213,0,0,1-2.666,1.2,3.936,3.936,0,0,1-2.666-.948,3.019,3.019,0,0,1-1.1-2.384,3.1,3.1,0,0,1,1.333-2.728,6.791,6.791,0,0,1,3.876-.923h1.066v-.587q0-1.535-1.323-1.535a1.081,1.081,0,0,0-1.23,1.216H35.068A3.1,3.1,0,0,1,36.437,9.7a5.753,5.753,0,0,1,3.491-1,5.044,5.044,0,0,1,3.353,1.036,3.6,3.6,0,0,1,1.261,2.84v4.912a5.03,5.03,0,0,0,.472,2.338V20ZM39.4,17.744a1.928,1.928,0,0,0,1.072-.277,1.735,1.735,0,0,0,.61-.625V15.068h-1q-1.8,0-1.8,1.62a.989.989,0,0,0,.318.764A1.15,1.15,0,0,0,39.4,17.744ZM49.629,8.905l.113,1.3A3.762,3.762,0,0,1,52.91,8.7,3.165,3.165,0,0,1,55.5,9.736a4.93,4.93,0,0,1,.887,3.117V20H52.92V13a1.872,1.872,0,0,0-.338-1.236,1.565,1.565,0,0,0-1.23-.395,1.648,1.648,0,0,0-1.507.8V20H46.389V8.905ZM61.944,20H58.478V8.905h3.466ZM58.273,6.044a1.542,1.542,0,0,1,.533-1.21,2.267,2.267,0,0,1,2.769,0,1.542,1.542,0,0,1,.533,1.21,1.542,1.542,0,0,1-.533,1.21,2.267,2.267,0,0,1-2.769,0A1.542,1.542,0,0,1,58.273,6.044Zm9.875,11.29H73.2V20H63.779V18.072l4.922-6.5H63.995V8.905h9.1v1.866ZM81.129,20a3.9,3.9,0,0,1-.328-.995,3.213,3.213,0,0,1-2.666,1.2,3.936,3.936,0,0,1-2.666-.948,3.019,3.019,0,0,1-1.1-2.384A3.1,3.1,0,0,1,75.7,14.145a6.791,6.791,0,0,1,3.876-.923h1.066v-.587q0-1.535-1.323-1.535a1.081,1.081,0,0,0-1.23,1.216H74.638A3.1,3.1,0,0,1,76.007,9.7a5.753,5.753,0,0,1,3.491-1,5.044,5.044,0,0,1,3.353,1.036,3.6,3.6,0,0,1,1.261,2.84v4.912a5.03,5.03,0,0,0,.472,2.338V20Zm-2.164-2.256a1.928,1.928,0,0,0,1.072-.277,1.735,1.735,0,0,0,.61-.625V15.068h-1q-1.8,0-1.8,1.62a.989.989,0,0,0,.318.764A1.15,1.15,0,0,0,78.965,17.744Zm11.751-.205a1.537,1.537,0,0,0,1.128-.395,1.448,1.448,0,0,0,.39-1.1h3.24a3.836,3.836,0,0,1-1.307,2.994A4.863,4.863,0,0,1,90.8,20.205a4.924,4.924,0,0,1-3.814-1.518,5.979,5.979,0,0,1-1.395-4.2V14.34a6.758,6.758,0,0,1,.62-2.969A4.517,4.517,0,0,1,88,9.392,5.335,5.335,0,0,1,90.768,8.7,4.8,4.8,0,0,1,94.2,9.9a4.255,4.255,0,0,1,1.271,3.25h-3.24a1.9,1.9,0,0,0-.42-1.323,1.451,1.451,0,0,0-1.128-.461q-1.343,0-1.569,1.712a12.083,12.083,0,0,0-.072,1.5,4.746,4.746,0,0,0,.4,2.317A1.384,1.384,0,0,0,90.716,17.539ZM100.581,20H97.115V8.905h3.466ZM96.91,6.044a1.542,1.542,0,0,1,.533-1.21,2.267,2.267,0,0,1,2.769,0,1.542,1.542,0,0,1,.533,1.21,1.542,1.542,0,0,1-.533,1.21,2.267,2.267,0,0,1-2.769,0A1.542,1.542,0,0,1,96.91,6.044Zm5.363,8.306a6.548,6.548,0,0,1,.646-2.958A4.62,4.62,0,0,1,104.774,9.4a5.59,5.59,0,0,1,2.84-.7,5.1,5.1,0,0,1,3.927,1.543,5.922,5.922,0,0,1,1.436,4.2v.123a5.746,5.746,0,0,1-1.441,4.117,5.115,5.115,0,0,1-3.9,1.523,5.173,5.173,0,0,1-3.8-1.42,5.555,5.555,0,0,1-1.548-3.85Zm3.456.215a4.128,4.128,0,0,0,.482,2.256,1.606,1.606,0,0,0,1.425.718q1.846,0,1.887-2.84V14.35q0-2.984-1.907-2.984-1.733,0-1.876,2.574ZM108.086,4.25h3.65l-2.851,3.22-2.82-.005Zm9.587,4.655.113,1.3A3.762,3.762,0,0,1,120.955,8.7a3.165,3.165,0,0,1,2.589,1.036,4.93,4.93,0,0,1,.887,3.117V20h-3.466V13a1.872,1.872,0,0,0-.338-1.236,1.565,1.565,0,0,0-1.23-.395,1.648,1.648,0,0,0-1.507.8V20h-3.456V8.905Z" transform="translate(740 709)" fill="#12263f"/>
    <path id="Trazado_604813" data-name="Trazado 604813" d="M1.128,20V5.07H5.937a7.074,7.074,0,0,1,3.558.9A6.307,6.307,0,0,1,11.961,8.5a7.647,7.647,0,0,1,.9,3.666v.687a7.691,7.691,0,0,1-.866,3.676,6.334,6.334,0,0,1-2.44,2.543A6.919,6.919,0,0,1,6.04,20Zm3.6-12.151v9.382H5.978a2.8,2.8,0,0,0,2.379-1.1,5.4,5.4,0,0,0,.831-3.276v-.646a5.357,5.357,0,0,0-.831-3.261,2.849,2.849,0,0,0-2.42-1.1ZM18.19,20H14.725V8.905H18.19ZM14.52,6.044a1.542,1.542,0,0,1,.533-1.21,2.012,2.012,0,0,1,1.384-.472,2.012,2.012,0,0,1,1.384.472,1.542,1.542,0,0,1,.533,1.21,1.542,1.542,0,0,1-.533,1.21,2.012,2.012,0,0,1-1.384.472,2.012,2.012,0,0,1-1.384-.472A1.542,1.542,0,0,1,14.52,6.044Zm12.51,5.988-1.138-.082A2.044,2.044,0,0,0,23.8,12.976V20H20.344V8.905h3.24l.113,1.425a2.676,2.676,0,0,1,2.43-1.63,3.37,3.37,0,0,1,.964.123Zm6.419,8.172a5.7,5.7,0,0,1-4.132-1.523,5.258,5.258,0,0,1-1.579-3.963v-.287a6.814,6.814,0,0,1,.631-3,4.614,4.614,0,0,1,1.841-2.015A5.556,5.556,0,0,1,33.079,8.7a4.8,4.8,0,0,1,3.691,1.451A5.7,5.7,0,0,1,38.124,14.2V15.54h-6.87a2.491,2.491,0,0,0,.81,1.466,2.41,2.41,0,0,0,1.62.533,3.106,3.106,0,0,0,2.563-1.148l1.579,1.866A4.414,4.414,0,0,1,36,19.677,6.185,6.185,0,0,1,33.448,20.205Zm-.39-8.839q-1.518,0-1.8,2.01H34.74v-.267a1.712,1.712,0,0,0-.42-1.287A1.673,1.673,0,0,0,33.059,11.366ZM44.2,17.539a1.537,1.537,0,0,0,1.128-.395,1.448,1.448,0,0,0,.39-1.1h3.24a3.836,3.836,0,0,1-1.307,2.994,4.863,4.863,0,0,1-3.368,1.169,4.924,4.924,0,0,1-3.814-1.518,5.979,5.979,0,0,1-1.395-4.2V14.34a6.758,6.758,0,0,1,.62-2.969,4.517,4.517,0,0,1,1.789-1.979A5.335,5.335,0,0,1,44.256,8.7a4.8,4.8,0,0,1,3.435,1.2,4.255,4.255,0,0,1,1.271,3.25h-3.24a1.9,1.9,0,0,0-.42-1.323,1.451,1.451,0,0,0-1.128-.461q-1.343,0-1.569,1.712a12.083,12.083,0,0,0-.072,1.5,4.746,4.746,0,0,0,.4,2.317A1.384,1.384,0,0,0,44.2,17.539Zm10.91,0a1.537,1.537,0,0,0,1.128-.395,1.448,1.448,0,0,0,.39-1.1h3.24a3.836,3.836,0,0,1-1.307,2.994A4.863,4.863,0,0,1,55.2,20.205a4.924,4.924,0,0,1-3.814-1.518,5.979,5.979,0,0,1-1.395-4.2V14.34a6.758,6.758,0,0,1,.62-2.969A4.517,4.517,0,0,1,52.4,9.392,5.335,5.335,0,0,1,55.166,8.7,4.8,4.8,0,0,1,58.6,9.9a4.255,4.255,0,0,1,1.271,3.25h-3.24a1.9,1.9,0,0,0-.42-1.323,1.451,1.451,0,0,0-1.128-.461q-1.343,0-1.569,1.712a12.083,12.083,0,0,0-.072,1.5,4.746,4.746,0,0,0,.4,2.317A1.384,1.384,0,0,0,55.115,17.539ZM64.979,20H61.513V8.905h3.466ZM61.308,6.044a1.542,1.542,0,0,1,.533-1.21,2.267,2.267,0,0,1,2.769,0,1.542,1.542,0,0,1,.533,1.21,1.542,1.542,0,0,1-.533,1.21,2.267,2.267,0,0,1-2.769,0A1.542,1.542,0,0,1,61.308,6.044Zm5.363,8.306a6.548,6.548,0,0,1,.646-2.958A4.62,4.62,0,0,1,69.173,9.4a5.59,5.59,0,0,1,2.84-.7,5.1,5.1,0,0,1,3.927,1.543,5.922,5.922,0,0,1,1.436,4.2v.123a5.746,5.746,0,0,1-1.441,4.117,5.115,5.115,0,0,1-3.9,1.523,5.173,5.173,0,0,1-3.8-1.42,5.555,5.555,0,0,1-1.548-3.85Zm3.456.215a4.128,4.128,0,0,0,.482,2.256,1.606,1.606,0,0,0,1.425.718q1.846,0,1.887-2.84V14.35q0-2.984-1.907-2.984-1.733,0-1.876,2.574ZM72.485,4.25h3.65L73.285,7.47l-2.82-.005Zm9.587,4.655.113,1.3A3.762,3.762,0,0,1,85.354,8.7a3.165,3.165,0,0,1,2.589,1.036,4.93,4.93,0,0,1,.887,3.117V20H85.364V13a1.872,1.872,0,0,0-.338-1.236,1.565,1.565,0,0,0-1.23-.395,1.648,1.648,0,0,0-1.507.8V20H78.832V8.905Z" transform="translate(755 830)" fill="#12263f"/>
    <path id="Trazado_604814" data-name="Trazado 604814" d="M13.207,14.945a5.452,5.452,0,0,1-.841,2.753,5.075,5.075,0,0,1-2.158,1.851,7.347,7.347,0,0,1-3.174.656A5.863,5.863,0,0,1,2.4,18.288,7.917,7.917,0,0,1,.708,12.874v-.738A9.037,9.037,0,0,1,1.471,8.3a5.788,5.788,0,0,1,2.2-2.543,6.137,6.137,0,0,1,3.322-.9,6.435,6.435,0,0,1,4.368,1.43,5.652,5.652,0,0,1,1.876,3.943H9.649A2.674,2.674,0,0,0,8.962,8.27a2.826,2.826,0,0,0-1.969-.595,2.15,2.15,0,0,0-1.969,1,6.458,6.458,0,0,0-.656,3.209v1.056a7.146,7.146,0,0,0,.6,3.415,2.2,2.2,0,0,0,2.066,1.025,2.764,2.764,0,0,0,1.9-.584,2.481,2.481,0,0,0,.7-1.856Zm1.107-.595a6.548,6.548,0,0,1,.646-2.958A4.62,4.62,0,0,1,16.816,9.4a5.59,5.59,0,0,1,2.84-.7,5.1,5.1,0,0,1,3.927,1.543,5.922,5.922,0,0,1,1.436,4.2v.123a5.746,5.746,0,0,1-1.441,4.117,5.115,5.115,0,0,1-3.9,1.523,5.173,5.173,0,0,1-3.8-1.42,5.555,5.555,0,0,1-1.548-3.85Zm3.456.215a4.128,4.128,0,0,0,.482,2.256,1.606,1.606,0,0,0,1.425.718q1.846,0,1.887-2.84V14.35q0-2.984-1.907-2.984-1.733,0-1.876,2.574Zm11.946-5.66.113,1.3A3.762,3.762,0,0,1,33,8.7a3.165,3.165,0,0,1,2.589,1.036,4.93,4.93,0,0,1,.887,3.117V20H33.007V13a1.872,1.872,0,0,0-.338-1.236,1.565,1.565,0,0,0-1.23-.395,1.648,1.648,0,0,0-1.507.8V20H26.476V8.905ZM42.41,6.147V8.905h1.825v2.4H42.41V16.38a1.3,1.3,0,0,0,.226.872,1.21,1.21,0,0,0,.892.246,5.069,5.069,0,0,0,.861-.062v2.471a6.377,6.377,0,0,1-1.948.3,3.62,3.62,0,0,1-2.635-.841,3.446,3.446,0,0,1-.851-2.553V11.3H37.54v-2.4h1.415V6.147Zm9.9,5.886-1.138-.082a2.044,2.044,0,0,0-2.092,1.025V20H45.62V8.905h3.24l.113,1.425A2.676,2.676,0,0,1,51.4,8.7a3.37,3.37,0,0,1,.964.123Zm.441,2.317a6.548,6.548,0,0,1,.646-2.958A4.62,4.62,0,0,1,55.248,9.4a5.59,5.59,0,0,1,2.84-.7,5.1,5.1,0,0,1,3.927,1.543,5.922,5.922,0,0,1,1.436,4.2v.123a5.746,5.746,0,0,1-1.441,4.117,5.115,5.115,0,0,1-3.9,1.523,5.173,5.173,0,0,1-3.8-1.42,5.555,5.555,0,0,1-1.548-3.85Zm3.456.215a4.128,4.128,0,0,0,.482,2.256,1.606,1.606,0,0,0,1.425.718q1.846,0,1.887-2.84V14.35q0-2.984-1.907-2.984-1.733,0-1.876,2.574ZM68.619,20H65.153V4.25h3.466Z" transform="translate(763 953)" fill="#12263f"/>
    <path id="Trazado_604815" data-name="Trazado 604815" d="M22.146,17.929h6.778V20H19.552V5.07h2.594Zm8.06-3.579a6.542,6.542,0,0,1,.646-2.938A4.718,4.718,0,0,1,32.667,9.4a5.114,5.114,0,0,1,2.687-.7A4.846,4.846,0,0,1,39,10.146a5.687,5.687,0,0,1,1.512,3.835l.01.584a6.6,6.6,0,0,1-.631,2.933,4.661,4.661,0,0,1-1.8,2,5.151,5.151,0,0,1-2.712.708,4.813,4.813,0,0,1-3.758-1.564,5.989,5.989,0,0,1-1.41-4.168Zm2.492.215a4.471,4.471,0,0,0,.708,2.681,2.3,2.3,0,0,0,1.969.969,2.275,2.275,0,0,0,1.964-.984,4.938,4.938,0,0,0,.7-2.881,4.413,4.413,0,0,0-.723-2.666,2.437,2.437,0,0,0-3.9-.015A4.844,4.844,0,0,0,32.7,14.565Zm9.5-.195a6.489,6.489,0,0,1,1.215-4.127A3.9,3.9,0,0,1,46.633,8.7a3.654,3.654,0,0,1,2.984,1.323l.113-1.118h2.246V19.662a4.471,4.471,0,0,1-1.359,3.445,5.175,5.175,0,0,1-3.666,1.261,5.908,5.908,0,0,1-2.384-.508A4.236,4.236,0,0,1,42.8,22.533l1.179-1.5a3.561,3.561,0,0,0,2.83,1.364,2.752,2.752,0,0,0,1.958-.672,2.574,2.574,0,0,0,.718-1.974v-.749a3.668,3.668,0,0,1-2.871,1.2,3.891,3.891,0,0,1-3.184-1.548A6.7,6.7,0,0,1,42.193,14.371Zm2.481.215a4.467,4.467,0,0,0,.682,2.63,2.193,2.193,0,0,0,1.892.959,2.4,2.4,0,0,0,2.235-1.292V12a2.363,2.363,0,0,0-2.215-1.261,2.2,2.2,0,0,0-1.912.974A5,5,0,0,0,44.674,14.586Zm15.668-3.4a6.166,6.166,0,0,0-1.015-.082,2.286,2.286,0,0,0-2.307,1.313V20H54.528V8.905h2.379l.062,1.241a2.807,2.807,0,0,1,2.5-1.446,2.333,2.333,0,0,1,.882.144Zm.738,3.168a6.542,6.542,0,0,1,.646-2.938A4.718,4.718,0,0,1,63.542,9.4a5.114,5.114,0,0,1,2.687-.7,4.846,4.846,0,0,1,3.645,1.446,5.687,5.687,0,0,1,1.512,3.835l.01.584a6.6,6.6,0,0,1-.631,2.933,4.661,4.661,0,0,1-1.8,2,5.151,5.151,0,0,1-2.712.708,4.813,4.813,0,0,1-3.758-1.564,5.989,5.989,0,0,1-1.41-4.168Zm2.492.215a4.471,4.471,0,0,0,.708,2.681,2.3,2.3,0,0,0,1.969.969,2.275,2.275,0,0,0,1.964-.984,4.938,4.938,0,0,0,.7-2.881,4.413,4.413,0,0,0-.723-2.666,2.437,2.437,0,0,0-3.9-.015A4.844,4.844,0,0,0,63.572,14.565Zm14.694-.195a6.6,6.6,0,0,1,1.189-4.117A3.811,3.811,0,0,1,82.645,8.7,3.621,3.621,0,0,1,85.5,9.931V4.25h2.492V20H85.731l-.123-1.148a3.673,3.673,0,0,1-2.984,1.354,3.79,3.79,0,0,1-3.153-1.569A6.838,6.838,0,0,1,78.266,14.371Zm2.492.215a4.618,4.618,0,0,0,.651,2.64,2.113,2.113,0,0,0,1.851.948A2.353,2.353,0,0,0,85.5,16.811V12.074a2.317,2.317,0,0,0-2.215-1.333,2.128,2.128,0,0,0-1.866.959A5.143,5.143,0,0,0,80.758,14.586Zm14.714,5.619a5.155,5.155,0,0,1-3.84-1.492,5.412,5.412,0,0,1-1.471-3.973v-.308a6.657,6.657,0,0,1,.641-2.969,4.878,4.878,0,0,1,1.8-2.035A4.758,4.758,0,0,1,95.185,8.7a4.355,4.355,0,0,1,3.5,1.446,6.114,6.114,0,0,1,1.236,4.091v1h-7.25a3.332,3.332,0,0,0,.918,2.174,2.755,2.755,0,0,0,2.025.8A3.374,3.374,0,0,0,98.4,16.832l1.343,1.282a4.486,4.486,0,0,1-1.779,1.543A5.57,5.57,0,0,1,95.472,20.205Zm-.3-9.505a2.1,2.1,0,0,0-1.656.718,3.72,3.72,0,0,0-.8,2h4.748v-.185a3.029,3.029,0,0,0-.667-1.892A2.082,2.082,0,0,0,95.175,10.7ZM109.735,20h-2.492V4.25h2.492Zm2.246-5.65a6.542,6.542,0,0,1,.646-2.938,4.718,4.718,0,0,1,1.815-2.01,5.114,5.114,0,0,1,2.687-.7,4.846,4.846,0,0,1,3.645,1.446,5.687,5.687,0,0,1,1.512,3.835l.01.584a6.6,6.6,0,0,1-.631,2.933,4.661,4.661,0,0,1-1.8,2,5.151,5.151,0,0,1-2.712.708,4.813,4.813,0,0,1-3.758-1.564,5.989,5.989,0,0,1-1.41-4.168Zm2.492.215a4.471,4.471,0,0,0,.708,2.681,2.3,2.3,0,0,0,1.969.969,2.275,2.275,0,0,0,1.964-.984,4.938,4.938,0,0,0,.7-2.881,4.413,4.413,0,0,0-.723-2.666,2.437,2.437,0,0,0-3.9-.015A4.844,4.844,0,0,0,114.473,14.565Zm16.15,2.42a1.13,1.13,0,0,0-.549-1.015,5.834,5.834,0,0,0-1.82-.615,9.356,9.356,0,0,1-2.123-.677,2.833,2.833,0,0,1-1.866-2.615,2.953,2.953,0,0,1,1.21-2.4,4.783,4.783,0,0,1,3.076-.964,4.977,4.977,0,0,1,3.215.984,3.124,3.124,0,0,1,1.225,2.553H130.5a1.536,1.536,0,0,0-.533-1.195,2.043,2.043,0,0,0-1.415-.477,2.208,2.208,0,0,0-1.338.379,1.2,1.2,0,0,0-.518,1.015,1.01,1.01,0,0,0,.482.892,6.627,6.627,0,0,0,1.948.641,9.222,9.222,0,0,1,2.3.769,3.26,3.26,0,0,1,1.241,1.072,2.733,2.733,0,0,1,.405,1.518,2.891,2.891,0,0,1-1.241,2.425,5.29,5.29,0,0,1-3.25.928,5.737,5.737,0,0,1-2.43-.492,4,4,0,0,1-1.661-1.354A3.2,3.2,0,0,1,123.9,16.5h2.42a1.756,1.756,0,0,0,.667,1.359,2.59,2.59,0,0,0,1.63.477,2.52,2.52,0,0,0,1.5-.374A1.158,1.158,0,0,0,130.623,16.985ZM25.7,36.182a6.166,6.166,0,0,0-1.015-.082,2.286,2.286,0,0,0-2.307,1.313V45H19.885V33.905h2.379l.062,1.241a2.807,2.807,0,0,1,2.5-1.446,2.333,2.333,0,0,1,.882.144Zm6.265,9.023a5.155,5.155,0,0,1-3.84-1.492,5.412,5.412,0,0,1-1.471-3.973v-.308a6.657,6.657,0,0,1,.641-2.969,4.878,4.878,0,0,1,1.8-2.035,4.758,4.758,0,0,1,2.584-.728,4.355,4.355,0,0,1,3.5,1.446,6.114,6.114,0,0,1,1.236,4.091v1h-7.25a3.332,3.332,0,0,0,.918,2.174,2.755,2.755,0,0,0,2.025.8A3.374,3.374,0,0,0,34.9,41.832l1.343,1.282a4.486,4.486,0,0,1-1.779,1.543A5.57,5.57,0,0,1,31.965,45.205Zm-.3-9.505a2.1,2.1,0,0,0-1.656.718,3.72,3.72,0,0,0-.8,2h4.748v-.185a3.029,3.029,0,0,0-.667-1.892A2.082,2.082,0,0,0,31.667,35.7Zm12.9,6.286a1.13,1.13,0,0,0-.549-1.015,5.834,5.834,0,0,0-1.82-.615,9.356,9.356,0,0,1-2.123-.677,2.833,2.833,0,0,1-1.866-2.615,2.953,2.953,0,0,1,1.21-2.4A4.783,4.783,0,0,1,42.5,33.7a4.977,4.977,0,0,1,3.215.984,3.124,3.124,0,0,1,1.225,2.553H44.444a1.536,1.536,0,0,0-.533-1.195,2.043,2.043,0,0,0-1.415-.477,2.208,2.208,0,0,0-1.338.379,1.2,1.2,0,0,0-.518,1.015,1.01,1.01,0,0,0,.482.892,6.627,6.627,0,0,0,1.948.641,9.222,9.222,0,0,1,2.3.769,3.26,3.26,0,0,1,1.241,1.072,2.733,2.733,0,0,1,.405,1.518,2.891,2.891,0,0,1-1.241,2.425,5.29,5.29,0,0,1-3.25.928,5.737,5.737,0,0,1-2.43-.492,4,4,0,0,1-1.661-1.354A3.2,3.2,0,0,1,37.84,41.5h2.42a1.756,1.756,0,0,0,.667,1.359,2.59,2.59,0,0,0,1.63.477,2.52,2.52,0,0,0,1.5-.374A1.158,1.158,0,0,0,44.567,41.985Zm11.341,1.928a3.864,3.864,0,0,1-3.117,1.292,3.444,3.444,0,0,1-2.733-1.056,4.493,4.493,0,0,1-.928-3.056V33.905h2.492v7.157q0,2.112,1.753,2.112a2.462,2.462,0,0,0,2.451-1.3V33.905h2.492V45H55.969ZM63.506,45H61.014V29.25h2.492ZM69.34,31.208v2.7H71.3v1.846H69.34v6.193a1.364,1.364,0,0,0,.251.918,1.165,1.165,0,0,0,.9.282,3.838,3.838,0,0,0,.872-.1v1.928a6.137,6.137,0,0,1-1.641.236q-2.871,0-2.871-3.168V35.751H65.023V33.905h1.825v-2.7ZM79.83,45a3.845,3.845,0,0,1-.287-1.036,4.191,4.191,0,0,1-5.64.287,3.051,3.051,0,0,1-1.056-2.358,3.15,3.15,0,0,1,1.318-2.722,6.385,6.385,0,0,1,3.768-.948h1.528v-.728a1.943,1.943,0,0,0-.482-1.379,1.91,1.91,0,0,0-1.466-.518,2.195,2.195,0,0,0-1.395.426,1.317,1.317,0,0,0-.543,1.082H73.083a2.765,2.765,0,0,1,.6-1.707,4.03,4.03,0,0,1,1.646-1.246,5.781,5.781,0,0,1,2.323-.451,4.655,4.655,0,0,1,3.107.979,3.492,3.492,0,0,1,1.189,2.753v5a5.671,5.671,0,0,0,.42,2.389V45Zm-2.738-1.794a2.834,2.834,0,0,0,1.389-.359,2.4,2.4,0,0,0,.979-.964V39.791H78.117a3.673,3.673,0,0,0-2.082.482,1.561,1.561,0,0,0-.7,1.364,1.456,1.456,0,0,0,.477,1.143A1.846,1.846,0,0,0,77.092,43.206Zm7-3.835a6.6,6.6,0,0,1,1.189-4.117A3.811,3.811,0,0,1,88.474,33.7a3.621,3.621,0,0,1,2.851,1.23V29.25h2.492V45H91.56l-.123-1.148a3.673,3.673,0,0,1-2.984,1.354A3.79,3.79,0,0,1,85.3,43.636,6.838,6.838,0,0,1,84.1,39.371Zm2.492.215a4.618,4.618,0,0,0,.651,2.64,2.113,2.113,0,0,0,1.851.948,2.353,2.353,0,0,0,2.235-1.364V37.074a2.317,2.317,0,0,0-2.215-1.333,2.128,2.128,0,0,0-1.866.959A5.143,5.143,0,0,0,86.587,39.586Zm9.362-.236a6.542,6.542,0,0,1,.646-2.938A4.718,4.718,0,0,1,98.41,34.4a5.114,5.114,0,0,1,2.687-.7,4.846,4.846,0,0,1,3.645,1.446,5.687,5.687,0,0,1,1.512,3.835l.01.584a6.6,6.6,0,0,1-.631,2.933,4.661,4.661,0,0,1-1.8,2,5.151,5.151,0,0,1-2.712.708,4.813,4.813,0,0,1-3.758-1.564,5.989,5.989,0,0,1-1.41-4.168Zm2.492.215a4.471,4.471,0,0,0,.708,2.681,2.3,2.3,0,0,0,1.969.969,2.275,2.275,0,0,0,1.964-.984,4.938,4.938,0,0,0,.7-2.881,4.413,4.413,0,0,0-.723-2.666,2.437,2.437,0,0,0-3.9-.015A4.844,4.844,0,0,0,98.441,39.565Zm16.15,2.42a1.13,1.13,0,0,0-.549-1.015,5.834,5.834,0,0,0-1.82-.615,9.356,9.356,0,0,1-2.123-.677,2.833,2.833,0,0,1-1.866-2.615,2.953,2.953,0,0,1,1.21-2.4,4.783,4.783,0,0,1,3.076-.964,4.977,4.977,0,0,1,3.215.984,3.124,3.124,0,0,1,1.225,2.553h-2.492a1.536,1.536,0,0,0-.533-1.195,2.043,2.043,0,0,0-1.415-.477,2.208,2.208,0,0,0-1.338.379,1.2,1.2,0,0,0-.518,1.015,1.01,1.01,0,0,0,.482.892,6.627,6.627,0,0,0,1.948.641,9.222,9.222,0,0,1,2.3.769,3.26,3.26,0,0,1,1.241,1.072,2.733,2.733,0,0,1,.405,1.518,2.891,2.891,0,0,1-1.241,2.425,5.29,5.29,0,0,1-3.25.928,5.737,5.737,0,0,1-2.43-.492,4,4,0,0,1-1.661-1.354,3.2,3.2,0,0,1-.595-1.856h2.42a1.756,1.756,0,0,0,.667,1.359,2.59,2.59,0,0,0,1.63.477,2.52,2.52,0,0,0,1.5-.374A1.158,1.158,0,0,0,114.591,41.985Zm13.73-.554,2.256-7.526h2.656l-4.409,12.776q-1.015,2.8-3.445,2.8a4.442,4.442,0,0,1-1.2-.186V47.358l.472.031a2.426,2.426,0,0,0,1.42-.343,2.275,2.275,0,0,0,.754-1.153l.359-.953-3.9-11.035h2.687ZM33.969,64.35a6.542,6.542,0,0,1,.646-2.938A4.718,4.718,0,0,1,36.43,59.4a5.114,5.114,0,0,1,2.687-.7,4.846,4.846,0,0,1,3.645,1.446,5.687,5.687,0,0,1,1.512,3.835l.01.584a6.6,6.6,0,0,1-.631,2.933,4.661,4.661,0,0,1-1.8,2,5.151,5.151,0,0,1-2.712.708,4.813,4.813,0,0,1-3.758-1.564,5.989,5.989,0,0,1-1.41-4.168Zm2.492.215a4.471,4.471,0,0,0,.708,2.681,2.3,2.3,0,0,0,1.969.969,2.275,2.275,0,0,0,1.964-.984,4.938,4.938,0,0,0,.7-2.881,4.413,4.413,0,0,0-.723-2.666,2.437,2.437,0,0,0-3.9-.015A4.844,4.844,0,0,0,36.461,64.565Zm19.667,0a6.665,6.665,0,0,1-1.154,4.112A3.758,3.758,0,0,1,51.8,70.205a3.619,3.619,0,0,1-3.035-1.4L48.643,70H46.387V54.25h2.492v5.722a3.607,3.607,0,0,1,2.9-1.271,3.8,3.8,0,0,1,3.189,1.507,6.775,6.775,0,0,1,1.159,4.214Zm-2.492-.215A4.71,4.71,0,0,0,53,61.643a2.117,2.117,0,0,0-1.846-.9,2.313,2.313,0,0,0-2.276,1.415v4.573a2.337,2.337,0,0,0,2.3,1.446,2.1,2.1,0,0,0,1.8-.872,4.564,4.564,0,0,0,.656-2.635Zm7.178-5.445V70.984a3.65,3.65,0,0,1-.846,2.6,3.242,3.242,0,0,1-2.476.9,4.98,4.98,0,0,1-1.323-.174V72.338a3.839,3.839,0,0,0,.882.092q1.241,0,1.271-1.354V58.905Zm-2.707-2.881a1.322,1.322,0,0,1,.364-.954,1.375,1.375,0,0,1,1.041-.379,1.392,1.392,0,0,1,1.046.379,1.312,1.312,0,0,1,.369.954,1.282,1.282,0,0,1-.369.938,1.4,1.4,0,0,1-1.046.374,1.386,1.386,0,0,1-1.041-.374A1.292,1.292,0,0,1,58.107,56.024ZM68.361,70.205a5.155,5.155,0,0,1-3.84-1.492,5.412,5.412,0,0,1-1.471-3.973v-.308a6.657,6.657,0,0,1,.641-2.969,4.878,4.878,0,0,1,1.8-2.035,4.758,4.758,0,0,1,2.584-.728,4.355,4.355,0,0,1,3.5,1.446,6.114,6.114,0,0,1,1.236,4.091v1h-7.25a3.332,3.332,0,0,0,.918,2.174,2.755,2.755,0,0,0,2.025.8,3.374,3.374,0,0,0,2.789-1.384l1.343,1.282a4.486,4.486,0,0,1-1.779,1.543A5.57,5.57,0,0,1,68.361,70.205Zm-.3-9.505a2.1,2.1,0,0,0-1.656.718,3.72,3.72,0,0,0-.8,2H70.35v-.185a3.029,3.029,0,0,0-.667-1.892A2.082,2.082,0,0,0,68.063,60.7Zm9.8-4.491v2.7h1.958v1.846H77.866v6.193a1.364,1.364,0,0,0,.251.918,1.165,1.165,0,0,0,.9.282,3.838,3.838,0,0,0,.872-.1v1.928a6.137,6.137,0,0,1-1.641.236q-2.871,0-2.871-3.168V60.751H73.549V58.905h1.825v-2.7ZM84.377,70H81.886V58.905h2.492ZM81.732,56.024a1.322,1.322,0,0,1,.364-.954,1.375,1.375,0,0,1,1.041-.379,1.392,1.392,0,0,1,1.046.379,1.312,1.312,0,0,1,.369.954,1.282,1.282,0,0,1-.369.938,1.4,1.4,0,0,1-1.046.374,1.386,1.386,0,0,1-1.041-.374A1.292,1.292,0,0,1,81.732,56.024ZM91,66.842l2.348-7.937h2.574L92.078,70H89.915L86.039,58.905h2.584Zm5.855-2.492a6.542,6.542,0,0,1,.646-2.938,4.718,4.718,0,0,1,1.815-2.01A5.114,5.114,0,0,1,102,58.7a4.846,4.846,0,0,1,3.645,1.446,5.687,5.687,0,0,1,1.512,3.835l.01.584a6.6,6.6,0,0,1-.631,2.933,4.661,4.661,0,0,1-1.8,2,5.151,5.151,0,0,1-2.712.708,4.813,4.813,0,0,1-3.758-1.564,5.989,5.989,0,0,1-1.41-4.168Zm2.492.215a4.471,4.471,0,0,0,.708,2.681,2.3,2.3,0,0,0,1.969.969,2.275,2.275,0,0,0,1.964-.984,4.938,4.938,0,0,0,.7-2.881,4.413,4.413,0,0,0-.723-2.666,2.437,2.437,0,0,0-3.9-.015A4.844,4.844,0,0,0,99.348,64.565Zm16.15,2.42a1.13,1.13,0,0,0-.549-1.015,5.834,5.834,0,0,0-1.82-.615,9.356,9.356,0,0,1-2.123-.677,2.833,2.833,0,0,1-1.866-2.615,2.953,2.953,0,0,1,1.21-2.4,4.783,4.783,0,0,1,3.076-.964,4.977,4.977,0,0,1,3.215.984,3.124,3.124,0,0,1,1.225,2.553h-2.492a1.536,1.536,0,0,0-.533-1.195,2.043,2.043,0,0,0-1.415-.477,2.208,2.208,0,0,0-1.338.379,1.2,1.2,0,0,0-.518,1.015,1.01,1.01,0,0,0,.482.892,6.627,6.627,0,0,0,1.948.641,9.222,9.222,0,0,1,2.3.769,3.26,3.26,0,0,1,1.241,1.072,2.733,2.733,0,0,1,.405,1.518,2.891,2.891,0,0,1-1.241,2.425,5.29,5.29,0,0,1-3.25.928,5.737,5.737,0,0,1-2.43-.492,4,4,0,0,1-1.661-1.354,3.2,3.2,0,0,1-.595-1.856h2.42a1.756,1.756,0,0,0,.667,1.359,2.59,2.59,0,0,0,1.63.477,2.52,2.52,0,0,0,1.5-.374A1.158,1.158,0,0,0,115.5,66.985ZM38.24,89.565a6.606,6.606,0,0,1-1.169,4.107,4.061,4.061,0,0,1-6.06.333v5.26H28.519V83.905h2.3l.1,1.128A3.66,3.66,0,0,1,33.9,83.7a3.782,3.782,0,0,1,3.184,1.512,6.782,6.782,0,0,1,1.154,4.2Zm-2.481-.215a4.627,4.627,0,0,0-.661-2.635,2.15,2.15,0,0,0-1.892-.974A2.293,2.293,0,0,0,31.011,87v4.922a2.314,2.314,0,0,0,2.215,1.292,2.148,2.148,0,0,0,1.861-.959A5.094,5.094,0,0,0,35.759,89.35ZM43,95H40.506V79.25H43Zm9.341,0a3.845,3.845,0,0,1-.287-1.036,4.191,4.191,0,0,1-5.64.287,3.051,3.051,0,0,1-1.056-2.358,3.15,3.15,0,0,1,1.318-2.722,6.385,6.385,0,0,1,3.768-.948H51.97v-.728a1.943,1.943,0,0,0-.482-1.379,1.91,1.91,0,0,0-1.466-.518,2.195,2.195,0,0,0-1.395.426,1.317,1.317,0,0,0-.543,1.082H45.592a2.765,2.765,0,0,1,.6-1.707,4.03,4.03,0,0,1,1.646-1.246,5.781,5.781,0,0,1,2.323-.451,4.655,4.655,0,0,1,3.107.979,3.492,3.492,0,0,1,1.189,2.753v5a5.671,5.671,0,0,0,.42,2.389V95ZM49.6,93.206a2.834,2.834,0,0,0,1.389-.359,2.4,2.4,0,0,0,.979-.964V89.791H50.627a3.673,3.673,0,0,0-2.082.482,1.561,1.561,0,0,0-.7,1.364,1.456,1.456,0,0,0,.477,1.143A1.846,1.846,0,0,0,49.6,93.206Zm9.782-9.3.072,1.282a3.989,3.989,0,0,1,3.23-1.487q3.466,0,3.527,3.968V95H63.721V87.812a2.285,2.285,0,0,0-.456-1.564,1.919,1.919,0,0,0-1.492-.508A2.4,2.4,0,0,0,59.527,87.1V95H57.035V83.905Zm14.253,11.3a5.155,5.155,0,0,1-3.84-1.492,5.412,5.412,0,0,1-1.471-3.973v-.308a6.657,6.657,0,0,1,.641-2.969,4.878,4.878,0,0,1,1.8-2.035,4.758,4.758,0,0,1,2.584-.728,4.355,4.355,0,0,1,3.5,1.446,6.114,6.114,0,0,1,1.236,4.091v1h-7.25a3.332,3.332,0,0,0,.918,2.174,2.755,2.755,0,0,0,2.025.8,3.374,3.374,0,0,0,2.789-1.384l1.343,1.282a4.486,4.486,0,0,1-1.779,1.543A5.57,5.57,0,0,1,73.636,95.205Zm-.3-9.505a2.1,2.1,0,0,0-1.656.718,3.72,3.72,0,0,0-.8,2h4.748v-.185a3.029,3.029,0,0,0-.667-1.892A2.082,2.082,0,0,0,73.339,85.7ZM86.649,95a3.845,3.845,0,0,1-.287-1.036,4.191,4.191,0,0,1-5.64.287,3.051,3.051,0,0,1-1.056-2.358,3.15,3.15,0,0,1,1.318-2.722,6.385,6.385,0,0,1,3.768-.948H86.28v-.728a1.943,1.943,0,0,0-.482-1.379,1.91,1.91,0,0,0-1.466-.518,2.195,2.195,0,0,0-1.395.426,1.317,1.317,0,0,0-.543,1.082H79.9a2.765,2.765,0,0,1,.6-1.707,4.03,4.03,0,0,1,1.646-1.246,5.781,5.781,0,0,1,2.323-.451,4.655,4.655,0,0,1,3.107.979,3.492,3.492,0,0,1,1.189,2.753v5a5.671,5.671,0,0,0,.42,2.389V95Zm-2.738-1.794a2.834,2.834,0,0,0,1.389-.359,2.4,2.4,0,0,0,.979-.964V89.791H84.936a3.673,3.673,0,0,0-2.082.482,1.561,1.561,0,0,0-.7,1.364,1.456,1.456,0,0,0,.477,1.143A1.846,1.846,0,0,0,83.911,93.206Zm7-3.835A6.6,6.6,0,0,1,92.1,85.254,3.811,3.811,0,0,1,95.293,83.7a3.621,3.621,0,0,1,2.851,1.23V79.25h2.492V95H98.379l-.123-1.148a3.673,3.673,0,0,1-2.984,1.354,3.79,3.79,0,0,1-3.153-1.569A6.838,6.838,0,0,1,90.914,89.371Zm2.492.215a4.618,4.618,0,0,0,.651,2.64,2.113,2.113,0,0,0,1.851.948,2.353,2.353,0,0,0,2.235-1.364V87.074a2.317,2.317,0,0,0-2.215-1.333,2.128,2.128,0,0,0-1.866.959A5.143,5.143,0,0,0,93.406,89.586Zm9.362-.236a6.542,6.542,0,0,1,.646-2.938,4.718,4.718,0,0,1,1.815-2.01,5.114,5.114,0,0,1,2.687-.7,4.846,4.846,0,0,1,3.645,1.446,5.687,5.687,0,0,1,1.512,3.835l.01.584a6.6,6.6,0,0,1-.631,2.933,4.661,4.661,0,0,1-1.8,2,5.151,5.151,0,0,1-2.712.708,4.813,4.813,0,0,1-3.758-1.564,5.989,5.989,0,0,1-1.41-4.168Zm2.492.215a4.471,4.471,0,0,0,.708,2.681,2.3,2.3,0,0,0,1.969.969,2.275,2.275,0,0,0,1.964-.984,4.938,4.938,0,0,0,.7-2.881,4.413,4.413,0,0,0-.723-2.666,2.437,2.437,0,0,0-3.9-.015A4.844,4.844,0,0,0,105.26,89.565Zm16.15,2.42a1.13,1.13,0,0,0-.549-1.015,5.834,5.834,0,0,0-1.82-.615,9.356,9.356,0,0,1-2.123-.677,2.833,2.833,0,0,1-1.866-2.615,2.953,2.953,0,0,1,1.21-2.4,4.783,4.783,0,0,1,3.076-.964,4.977,4.977,0,0,1,3.215.984,3.124,3.124,0,0,1,1.225,2.553h-2.492a1.536,1.536,0,0,0-.533-1.195,2.043,2.043,0,0,0-1.415-.477,2.208,2.208,0,0,0-1.338.379,1.2,1.2,0,0,0-.518,1.015,1.01,1.01,0,0,0,.482.892,6.627,6.627,0,0,0,1.948.641,9.222,9.222,0,0,1,2.3.769,3.26,3.26,0,0,1,1.241,1.072,2.733,2.733,0,0,1,.405,1.518,2.891,2.891,0,0,1-1.241,2.425,5.29,5.29,0,0,1-3.25.928,5.737,5.737,0,0,1-2.43-.492,4,4,0,0,1-1.661-1.354,3.2,3.2,0,0,1-.595-1.856h2.42a1.756,1.756,0,0,0,.667,1.359,2.59,2.59,0,0,0,1.63.477,2.52,2.52,0,0,0,1.5-.374A1.158,1.158,0,0,0,121.409,91.985Z" transform="translate(724 1140)" fill="#f6f6f6"/>
  </g>
</svg>
