<svg xmlns="http://www.w3.org/2000/svg" xmlns:xlink="http://www.w3.org/1999/xlink" width="948.027" height="512.485" viewBox="0 0 948.027 512.485">
  <defs>
    <clipPath id="clip-path">
      <rect id="Rectángulo_344409" data-name="Rectángulo 344409" width="658.055" height="512.485" fill="#fff"/>
    </clipPath>
  </defs>
  <g id="Grupo_1014612" data-name="Grupo 1014612" transform="translate(-304.973 -3067)">
    <g id="Frame_1_" data-name="Frame (1)" transform="translate(304.973 3067)" clip-path="url(#clip-path)">
      <g id="Grupo_1013497" data-name="Grupo 1013497" transform="translate(506.606 416.998)">
        <path id="Trazado_601329" data-name="Trazado 601329" d="M866.94,730.833h141.374" transform="translate(-866.94 -720.761)" fill="none" stroke="#7e19b8" stroke-width="9.201"/>
        <path id="Trazado_601330" data-name="Trazado 601330" d="M1111.779,713.6H1091.63v20.144h20.149Z" transform="translate(-960.33 -713.597)" fill="#7e19b8"/>
      </g>
      <g id="Grupo_1013498" data-name="Grupo 1013498" transform="translate(407.984 246.17)">
        <path id="Trazado_601331" data-name="Trazado 601331" d="M698.171,438.5H839.536" transform="translate(-698.171 -428.428)" fill="none" stroke="#304c8e" stroke-width="9.201"/>
        <path id="Trazado_601332" data-name="Trazado 601332" d="M943.009,421.264H922.865v20.144h20.144Z" transform="translate(-791.563 -421.264)" fill="#304c8e"/>
      </g>
      <g id="Grupo_1013499" data-name="Grupo 1013499" transform="translate(309.353 75.342)">
        <path id="Trazado_601333" data-name="Trazado 601333" d="M529.386,146.167H670.76" transform="translate(-529.386 -136.095)" fill="none" stroke="#60cb28" stroke-width="9.201"/>
        <path id="Trazado_601334" data-name="Trazado 601334" d="M774.224,128.931H754.08v20.144h20.143Z" transform="translate(-622.778 -128.931)" fill="#60cb28"/>
      </g>
      <path id="Trazado_601335" data-name="Trazado 601335" d="M98.631,584.667,0,755.5H591.759l-98.63-170.828Z" transform="translate(0 -243.01)" fill="#7e19b8"/>
      <path id="Trazado_601336" data-name="Trazado 601336" d="M168.785,463.162h394.5L464.66,292.333H267.407Z" transform="translate(-70.154 -121.505)" fill="#304c8e"/>
      <path id="Trazado_601337" data-name="Trazado 601337" d="M534.807,170.828,436.185,0,337.554,170.828Z" transform="translate(-140.301)" fill="#60cb28"/>
    </g>
    <path id="Trazado_604816" data-name="Trazado 604816" d="M32.654,5.07h3.589V15.314a4.9,4.9,0,0,1-.661,2.543,4.515,4.515,0,0,1-1.846,1.733,5.641,5.641,0,0,1-2.64.615,5.438,5.438,0,0,1-3.794-1.23,4.472,4.472,0,0,1-1.354-3.486h3.609a2.465,2.465,0,0,0,.354,1.487,1.4,1.4,0,0,0,1.184.461,1.34,1.34,0,0,0,1.154-.559,2.626,2.626,0,0,0,.405-1.564Zm12.3,13.73a3.563,3.563,0,0,1-2.963,1.4,3.494,3.494,0,0,1-2.763-1.061,4.463,4.463,0,0,1-.938-3.051V8.905h3.456v7.208a1.242,1.242,0,0,0,1.384,1.425,1.806,1.806,0,0,0,1.692-.851V8.905H48.3V20h-3.24Zm8.408-9.9.113,1.3A3.762,3.762,0,0,1,56.648,8.7a3.165,3.165,0,0,1,2.589,1.036,4.93,4.93,0,0,1,.887,3.117V20H56.658V13a1.872,1.872,0,0,0-.338-1.236,1.565,1.565,0,0,0-1.23-.395,1.648,1.648,0,0,0-1.507.8V20H50.126V8.905ZM66.061,6.147V8.905h1.825v2.4H66.061V16.38a1.3,1.3,0,0,0,.226.872,1.21,1.21,0,0,0,.892.246,5.069,5.069,0,0,0,.861-.062v2.471a6.377,6.377,0,0,1-1.948.3,3.62,3.62,0,0,1-2.635-.841,3.446,3.446,0,0,1-.851-2.553V11.3H61.19v-2.4h1.415V6.147ZM75.494,20a3.9,3.9,0,0,1-.328-.995,3.213,3.213,0,0,1-2.666,1.2,3.936,3.936,0,0,1-2.666-.948,3.019,3.019,0,0,1-1.1-2.384,3.1,3.1,0,0,1,1.333-2.728,6.791,6.791,0,0,1,3.876-.923h1.066v-.587q0-1.535-1.323-1.535a1.081,1.081,0,0,0-1.23,1.216H69A3.1,3.1,0,0,1,70.373,9.7a5.753,5.753,0,0,1,3.491-1,5.044,5.044,0,0,1,3.353,1.036,3.6,3.6,0,0,1,1.261,2.84v4.912a5.03,5.03,0,0,0,.472,2.338V20Zm-2.164-2.256a1.928,1.928,0,0,0,1.072-.277,1.735,1.735,0,0,0,.61-.625V15.068h-1q-1.8,0-1.8,1.62a.989.989,0,0,0,.318.764A1.15,1.15,0,0,0,73.331,17.744ZM11.49,45V30.07H16.3a7.074,7.074,0,0,1,3.558.9A6.307,6.307,0,0,1,22.323,33.5a7.647,7.647,0,0,1,.9,3.666v.687a7.691,7.691,0,0,1-.866,3.676,6.334,6.334,0,0,1-2.44,2.543A6.919,6.919,0,0,1,16.4,45Zm3.6-12.151v9.382H16.34a2.8,2.8,0,0,0,2.379-1.1,5.4,5.4,0,0,0,.831-3.276v-.646a5.357,5.357,0,0,0-.831-3.261,2.849,2.849,0,0,0-2.42-1.1ZM28.552,45H25.086V33.905h3.466ZM24.881,31.044a1.542,1.542,0,0,1,.533-1.21,2.267,2.267,0,0,1,2.769,0,1.639,1.639,0,0,1,0,2.42,2.267,2.267,0,0,1-2.769,0A1.542,1.542,0,0,1,24.881,31.044Zm12.51,5.988-1.138-.082a2.044,2.044,0,0,0-2.092,1.025V45H30.705V33.905h3.24l.113,1.425a2.676,2.676,0,0,1,2.43-1.63,3.37,3.37,0,0,1,.964.123Zm6.419,8.172a5.7,5.7,0,0,1-4.132-1.523A5.258,5.258,0,0,1,38.1,39.719v-.287a6.814,6.814,0,0,1,.631-3,4.614,4.614,0,0,1,1.841-2.015,5.556,5.556,0,0,1,2.871-.713,4.8,4.8,0,0,1,3.691,1.451A5.7,5.7,0,0,1,48.486,39.2V40.54h-6.87a2.491,2.491,0,0,0,.81,1.466,2.41,2.41,0,0,0,1.62.533,3.106,3.106,0,0,0,2.563-1.148l1.579,1.866a4.414,4.414,0,0,1-1.83,1.42A6.185,6.185,0,0,1,43.81,45.205Zm-.39-8.839q-1.518,0-1.8,2.01H45.1v-.267a1.712,1.712,0,0,0-.42-1.287A1.673,1.673,0,0,0,43.42,36.366Zm11.146,6.173a1.537,1.537,0,0,0,1.128-.395,1.448,1.448,0,0,0,.39-1.1h3.24a3.836,3.836,0,0,1-1.307,2.994,4.863,4.863,0,0,1-3.368,1.169,4.924,4.924,0,0,1-3.814-1.518,5.979,5.979,0,0,1-1.395-4.2V39.34a6.758,6.758,0,0,1,.62-2.969,4.517,4.517,0,0,1,1.789-1.979,5.335,5.335,0,0,1,2.769-.692,4.8,4.8,0,0,1,3.435,1.2,4.255,4.255,0,0,1,1.271,3.25h-3.24a1.9,1.9,0,0,0-.42-1.323,1.451,1.451,0,0,0-1.128-.461q-1.343,0-1.569,1.712a12.083,12.083,0,0,0-.072,1.5,4.746,4.746,0,0,0,.4,2.317A1.384,1.384,0,0,0,54.566,42.539ZM64.81,31.147v2.758h1.825v2.4H64.81V41.38a1.3,1.3,0,0,0,.226.872,1.21,1.21,0,0,0,.892.246,5.069,5.069,0,0,0,.861-.062v2.471a6.377,6.377,0,0,1-1.948.3,3.62,3.62,0,0,1-2.635-.841,3.446,3.446,0,0,1-.851-2.553V36.3H59.939v-2.4h1.415V31.147ZM71.639,45H68.173V33.905h3.466ZM67.968,31.044a1.542,1.542,0,0,1,.533-1.21,2.267,2.267,0,0,1,2.769,0,1.639,1.639,0,0,1,0,2.42,2.267,2.267,0,0,1-2.769,0A1.542,1.542,0,0,1,67.968,31.044Zm10.223,9.844,1.753-6.983h3.64L79.965,45H76.438l-3.62-11.095h3.65ZM90.711,45a3.9,3.9,0,0,1-.328-.995,3.213,3.213,0,0,1-2.666,1.2,3.936,3.936,0,0,1-2.666-.948,3.019,3.019,0,0,1-1.1-2.384,3.1,3.1,0,0,1,1.333-2.728,6.791,6.791,0,0,1,3.876-.923h1.066v-.587q0-1.535-1.323-1.535a1.081,1.081,0,0,0-1.23,1.216H84.22A3.1,3.1,0,0,1,85.589,34.7a5.753,5.753,0,0,1,3.491-1,5.044,5.044,0,0,1,3.353,1.036,3.6,3.6,0,0,1,1.261,2.84v4.912a5.03,5.03,0,0,0,.472,2.338V45Zm-2.164-2.256a1.928,1.928,0,0,0,1.072-.277,1.735,1.735,0,0,0,.61-.625V40.068h-1q-1.8,0-1.8,1.62a.989.989,0,0,0,.318.764A1.15,1.15,0,0,0,88.548,42.744Zm-65,25.41a5.787,5.787,0,0,1-2.43,1.487,10.482,10.482,0,0,1-3.507.564,6.253,6.253,0,0,1-4.686-1.794,7.264,7.264,0,0,1-1.876-4.994l-.01-1.292a8.91,8.91,0,0,1,.779-3.85,5.787,5.787,0,0,1,2.23-2.533,6.309,6.309,0,0,1,3.358-.887,6.614,6.614,0,0,1,4.332,1.277,5.409,5.409,0,0,1,1.8,3.809H20.067a2.831,2.831,0,0,0-.8-1.784,2.581,2.581,0,0,0-1.743-.533,2.348,2.348,0,0,0-2.092,1.148,6.132,6.132,0,0,0-.749,3.281v.9a6,6,0,0,0,.764,3.358,2.7,2.7,0,0,0,2.4,1.123,3.024,3.024,0,0,0,2.092-.625V64.494h-2.5V62.022h6.1Zm7.3,2.051a5.7,5.7,0,0,1-4.132-1.523,5.258,5.258,0,0,1-1.579-3.963v-.287a6.814,6.814,0,0,1,.631-3A4.614,4.614,0,0,1,27.6,59.413a5.556,5.556,0,0,1,2.871-.713,4.8,4.8,0,0,1,3.691,1.451A5.7,5.7,0,0,1,35.52,64.2V65.54h-6.87a2.491,2.491,0,0,0,.81,1.466,2.41,2.41,0,0,0,1.62.533,3.106,3.106,0,0,0,2.563-1.148l1.579,1.866a4.414,4.414,0,0,1-1.83,1.42A6.185,6.185,0,0,1,30.844,70.205Zm-.39-8.839q-1.518,0-1.8,2.01h3.486v-.267a1.712,1.712,0,0,0-.42-1.287A1.673,1.673,0,0,0,30.454,61.366Zm13.166.667-1.138-.082a2.044,2.044,0,0,0-2.092,1.025V70H36.935V58.905h3.24l.113,1.425a2.676,2.676,0,0,1,2.43-1.63,3.37,3.37,0,0,1,.964.123Zm6.419,8.172a5.7,5.7,0,0,1-4.132-1.523,5.258,5.258,0,0,1-1.579-3.963v-.287a6.814,6.814,0,0,1,.631-3A4.614,4.614,0,0,1,46.8,59.413,5.556,5.556,0,0,1,49.67,58.7a4.8,4.8,0,0,1,3.691,1.451A5.7,5.7,0,0,1,54.715,64.2V65.54h-6.87a2.491,2.491,0,0,0,.81,1.466,2.41,2.41,0,0,0,1.62.533,3.106,3.106,0,0,0,2.563-1.148l1.579,1.866a4.414,4.414,0,0,1-1.83,1.42A6.185,6.185,0,0,1,50.039,70.205Zm-.39-8.839q-1.518,0-1.8,2.01h3.486v-.267a1.712,1.712,0,0,0-.42-1.287A1.673,1.673,0,0,0,49.649,61.366Zm9.628-2.461.113,1.3A3.762,3.762,0,0,1,62.559,58.7a3.165,3.165,0,0,1,2.589,1.036,4.93,4.93,0,0,1,.887,3.117V70H62.569V63a1.872,1.872,0,0,0-.338-1.236A1.565,1.565,0,0,0,61,61.366a1.648,1.648,0,0,0-1.507.8V70H56.038V58.905Zm13.361,8.634a1.537,1.537,0,0,0,1.128-.395,1.448,1.448,0,0,0,.39-1.1H77.4a3.836,3.836,0,0,1-1.307,2.994,4.863,4.863,0,0,1-3.368,1.169,4.924,4.924,0,0,1-3.814-1.518,5.979,5.979,0,0,1-1.395-4.2V64.34a6.758,6.758,0,0,1,.62-2.969,4.517,4.517,0,0,1,1.789-1.979A5.335,5.335,0,0,1,72.69,58.7a4.8,4.8,0,0,1,3.435,1.2A4.255,4.255,0,0,1,77.4,63.15h-3.24a1.9,1.9,0,0,0-.42-1.323,1.451,1.451,0,0,0-1.128-.461q-1.343,0-1.569,1.712a12.083,12.083,0,0,0-.072,1.5,4.746,4.746,0,0,0,.4,2.317A1.384,1.384,0,0,0,72.639,67.539ZM82.5,70H79.037V58.905H82.5ZM78.832,56.044a1.542,1.542,0,0,1,.533-1.21,2.267,2.267,0,0,1,2.769,0,1.639,1.639,0,0,1,0,2.42,2.267,2.267,0,0,1-2.769,0A1.542,1.542,0,0,1,78.832,56.044ZM90.88,70a3.9,3.9,0,0,1-.328-.995,3.213,3.213,0,0,1-2.666,1.2,3.936,3.936,0,0,1-2.666-.948,3.019,3.019,0,0,1-1.1-2.384,3.1,3.1,0,0,1,1.333-2.728,6.791,6.791,0,0,1,3.876-.923H90.4v-.587q0-1.535-1.323-1.535a1.081,1.081,0,0,0-1.23,1.216H84.39A3.1,3.1,0,0,1,85.759,59.7a5.753,5.753,0,0,1,3.491-1A5.044,5.044,0,0,1,92.6,59.736a3.6,3.6,0,0,1,1.261,2.84v4.912a5.03,5.03,0,0,0,.472,2.338V70Zm-2.164-2.256a1.928,1.928,0,0,0,1.072-.277,1.735,1.735,0,0,0,.61-.625V65.068h-1q-1.8,0-1.8,1.62a.989.989,0,0,0,.318.764A1.15,1.15,0,0,0,88.717,67.744Z" transform="translate(548 3141)" fill="#12263f"/>
    <path id="Trazado_604817" data-name="Trazado 604817" d="M3.4,20V5.07H8.212a7.074,7.074,0,0,1,3.558.9A6.307,6.307,0,0,1,14.237,8.5a7.647,7.647,0,0,1,.9,3.666v.687a7.691,7.691,0,0,1-.866,3.676,6.334,6.334,0,0,1-2.44,2.543A6.919,6.919,0,0,1,8.315,20ZM7,7.849v9.382H8.253a2.8,2.8,0,0,0,2.379-1.1,5.4,5.4,0,0,0,.831-3.276v-.646a5.357,5.357,0,0,0-.831-3.261,2.849,2.849,0,0,0-2.42-1.1ZM20.466,20H17V8.905h3.466ZM16.795,6.044a1.542,1.542,0,0,1,.533-1.21,2.267,2.267,0,0,1,2.769,0,1.542,1.542,0,0,1,.533,1.21,1.542,1.542,0,0,1-.533,1.21,2.267,2.267,0,0,1-2.769,0A1.542,1.542,0,0,1,16.795,6.044ZM29.3,12.033l-1.138-.082a2.044,2.044,0,0,0-2.092,1.025V20H22.619V8.905h3.24l.113,1.425A2.676,2.676,0,0,1,28.4,8.7a3.37,3.37,0,0,1,.964.123Zm6.419,8.172a5.7,5.7,0,0,1-4.132-1.523,5.258,5.258,0,0,1-1.579-3.963v-.287a6.814,6.814,0,0,1,.631-3,4.614,4.614,0,0,1,1.841-2.015A5.556,5.556,0,0,1,35.354,8.7a4.8,4.8,0,0,1,3.691,1.451A5.7,5.7,0,0,1,40.4,14.2V15.54h-6.87a2.491,2.491,0,0,0,.81,1.466,2.41,2.41,0,0,0,1.62.533,3.106,3.106,0,0,0,2.563-1.148L40.1,18.257a4.414,4.414,0,0,1-1.83,1.42A6.185,6.185,0,0,1,35.724,20.205Zm-.39-8.839q-1.518,0-1.8,2.01h3.486v-.267a1.712,1.712,0,0,0-.42-1.287A1.673,1.673,0,0,0,35.334,11.366ZM46.48,17.539a1.537,1.537,0,0,0,1.128-.395,1.448,1.448,0,0,0,.39-1.1h3.24a3.836,3.836,0,0,1-1.307,2.994,4.863,4.863,0,0,1-3.368,1.169,4.924,4.924,0,0,1-3.814-1.518,5.979,5.979,0,0,1-1.395-4.2V14.34a6.758,6.758,0,0,1,.62-2.969,4.517,4.517,0,0,1,1.789-1.979A5.335,5.335,0,0,1,46.531,8.7a4.8,4.8,0,0,1,3.435,1.2,4.255,4.255,0,0,1,1.271,3.25H48a1.9,1.9,0,0,0-.42-1.323,1.451,1.451,0,0,0-1.128-.461q-1.343,0-1.569,1.712a12.083,12.083,0,0,0-.072,1.5,4.746,4.746,0,0,0,.4,2.317A1.384,1.384,0,0,0,46.48,17.539ZM56.724,6.147V8.905h1.825v2.4H56.724V16.38a1.3,1.3,0,0,0,.226.872,1.21,1.21,0,0,0,.892.246,5.069,5.069,0,0,0,.861-.062v2.471a6.377,6.377,0,0,1-1.948.3,3.62,3.62,0,0,1-2.635-.841,3.446,3.446,0,0,1-.851-2.553V11.3H51.853v-2.4h1.415V6.147Zm2.44,8.2a6.548,6.548,0,0,1,.646-2.958A4.62,4.62,0,0,1,61.666,9.4a5.59,5.59,0,0,1,2.84-.7,5.1,5.1,0,0,1,3.927,1.543,5.922,5.922,0,0,1,1.436,4.2v.123a5.746,5.746,0,0,1-1.441,4.117,5.115,5.115,0,0,1-3.9,1.523,5.173,5.173,0,0,1-3.8-1.42,5.555,5.555,0,0,1-1.548-3.85Zm3.456.215a4.128,4.128,0,0,0,.482,2.256,1.606,1.606,0,0,0,1.425.718q1.846,0,1.887-2.84V14.35q0-2.984-1.907-2.984-1.733,0-1.876,2.574ZM78.1,12.033l-1.138-.082a2.044,2.044,0,0,0-2.092,1.025V20H71.417V8.905h3.24l.113,1.425A2.676,2.676,0,0,1,77.2,8.7a3.37,3.37,0,0,1,.964.123Zm6.419,8.172a5.7,5.7,0,0,1-4.132-1.523,5.258,5.258,0,0,1-1.579-3.963v-.287a6.814,6.814,0,0,1,.631-3,4.614,4.614,0,0,1,1.841-2.015A5.556,5.556,0,0,1,84.153,8.7a4.8,4.8,0,0,1,3.691,1.451A5.7,5.7,0,0,1,89.2,14.2V15.54h-6.87a2.491,2.491,0,0,0,.81,1.466,2.41,2.41,0,0,0,1.62.533,3.106,3.106,0,0,0,2.563-1.148L88.9,18.257a4.414,4.414,0,0,1-1.83,1.42A6.185,6.185,0,0,1,84.522,20.205Zm-.39-8.839q-1.518,0-1.8,2.01h3.486v-.267a1.712,1.712,0,0,0-.42-1.287A1.673,1.673,0,0,0,84.132,11.366ZM96.4,16.883a.8.8,0,0,0-.461-.708,7.019,7.019,0,0,0-1.753-.554,8,8,0,0,1-2.133-.754,3.573,3.573,0,0,1-1.282-1.133,2.706,2.706,0,0,1-.441-1.528A3.066,3.066,0,0,1,91.587,9.69a5.2,5.2,0,0,1,3.3-.99,5.756,5.756,0,0,1,3.527.995,3.11,3.11,0,0,1,1.333,2.615H96.283q0-1.333-1.4-1.333a1.393,1.393,0,0,0-.913.3.937.937,0,0,0-.369.754.86.86,0,0,0,.451.749,4.263,4.263,0,0,0,1.441.472,12.45,12.45,0,0,1,1.738.441q2.5.861,2.5,3.086a2.906,2.906,0,0,1-1.348,2.471,5.913,5.913,0,0,1-3.491.954,6.034,6.034,0,0,1-2.543-.513A4.252,4.252,0,0,1,90.6,18.3a3.158,3.158,0,0,1-.625-1.856h3.23a1.335,1.335,0,0,0,.513,1.123,2.109,2.109,0,0,0,1.261.354,1.659,1.659,0,0,0,1.061-.287A.918.918,0,0,0,96.4,16.883Zm9.741-2.512a6.777,6.777,0,0,1,1.138-4.153A3.746,3.746,0,0,1,110.454,8.7a3.186,3.186,0,0,1,2.5,1.169V4.25h3.466V20h-3.107l-.174-1.189a3.272,3.272,0,0,1-2.707,1.395,3.74,3.74,0,0,1-3.138-1.518A6.992,6.992,0,0,1,106.137,14.371Zm3.456.215q0,2.953,1.723,2.953a1.7,1.7,0,0,0,1.641-.964V12.351a1.655,1.655,0,0,0-1.62-.984q-1.6,0-1.733,2.584Zm14.161,5.619a5.7,5.7,0,0,1-4.132-1.523,5.258,5.258,0,0,1-1.579-3.963v-.287a6.814,6.814,0,0,1,.631-3,4.614,4.614,0,0,1,1.841-2.015,5.556,5.556,0,0,1,2.871-.713,4.8,4.8,0,0,1,3.691,1.451,5.7,5.7,0,0,1,1.354,4.045V15.54h-6.87a2.491,2.491,0,0,0,.81,1.466,2.41,2.41,0,0,0,1.62.533,3.106,3.106,0,0,0,2.563-1.148l1.579,1.866a4.414,4.414,0,0,1-1.83,1.42A6.185,6.185,0,0,1,123.753,20.205Zm-.39-8.839q-1.518,0-1.8,2.01h3.486v-.267a1.712,1.712,0,0,0-.42-1.287A1.673,1.673,0,0,0,123.364,11.366Zm20.323,5.845h-4.932L137.894,20h-3.845l5.476-14.93h3.384L148.424,20h-3.866Zm-4.071-2.779h3.209l-1.61-5.178Zm2.071-13.361h3.65l-2.851,3.22-2.82-.005Zm14.376,10.961-1.138-.082a2.044,2.044,0,0,0-2.092,1.025V20h-3.456V8.905h3.24l.113,1.425a2.676,2.676,0,0,1,2.43-1.63,3.37,3.37,0,0,1,.964.123Zm6.419,8.172a5.7,5.7,0,0,1-4.132-1.523,5.258,5.258,0,0,1-1.579-3.963v-.287a6.814,6.814,0,0,1,.631-3,4.614,4.614,0,0,1,1.841-2.015,5.556,5.556,0,0,1,2.871-.713,4.8,4.8,0,0,1,3.691,1.451,5.7,5.7,0,0,1,1.354,4.045V15.54h-6.87a2.491,2.491,0,0,0,.81,1.466,2.41,2.41,0,0,0,1.62.533,3.106,3.106,0,0,0,2.563-1.148l1.579,1.866a4.414,4.414,0,0,1-1.83,1.42A6.185,6.185,0,0,1,162.482,20.205Zm-.39-8.839q-1.518,0-1.8,2.01h3.486v-.267a1.712,1.712,0,0,0-.42-1.287A1.673,1.673,0,0,0,162.093,11.366ZM174.8,20a3.9,3.9,0,0,1-.328-.995,3.213,3.213,0,0,1-2.666,1.2,3.936,3.936,0,0,1-2.666-.948,3.019,3.019,0,0,1-1.1-2.384,3.1,3.1,0,0,1,1.333-2.728,6.791,6.791,0,0,1,3.876-.923h1.066v-.587q0-1.535-1.323-1.535a1.081,1.081,0,0,0-1.23,1.216h-3.456A3.1,3.1,0,0,1,169.676,9.7a5.753,5.753,0,0,1,3.491-1,5.044,5.044,0,0,1,3.353,1.036,3.6,3.6,0,0,1,1.261,2.84v4.912a5.03,5.03,0,0,0,.472,2.338V20Zm-2.164-2.256a1.928,1.928,0,0,0,1.072-.277,1.735,1.735,0,0,0,.61-.625V15.068h-1q-1.8,0-1.8,1.62a.989.989,0,0,0,.318.764A1.15,1.15,0,0,0,172.634,17.744ZM16.262,30.07h3.589V40.314a4.9,4.9,0,0,1-.661,2.543,4.515,4.515,0,0,1-1.846,1.733,5.641,5.641,0,0,1-2.64.615,5.438,5.438,0,0,1-3.794-1.23,4.472,4.472,0,0,1-1.354-3.486h3.609a2.465,2.465,0,0,0,.354,1.487,1.4,1.4,0,0,0,1.184.461,1.34,1.34,0,0,0,1.154-.559,2.626,2.626,0,0,0,.405-1.564ZM27.326,45.205a5.7,5.7,0,0,1-4.132-1.523,5.258,5.258,0,0,1-1.579-3.963v-.287a6.814,6.814,0,0,1,.631-3,4.614,4.614,0,0,1,1.841-2.015,5.556,5.556,0,0,1,2.871-.713,4.8,4.8,0,0,1,3.691,1.451A5.7,5.7,0,0,1,32,39.2V40.54h-6.87a2.491,2.491,0,0,0,.81,1.466,2.41,2.41,0,0,0,1.62.533,3.106,3.106,0,0,0,2.563-1.148L31.7,43.257a4.414,4.414,0,0,1-1.83,1.42A6.185,6.185,0,0,1,27.326,45.205Zm-.39-8.839q-1.518,0-1.8,2.01h3.486v-.267a1.712,1.712,0,0,0-.42-1.287A1.673,1.673,0,0,0,26.936,36.366ZM34.155,45V36.3h-1.61v-2.4h1.61v-.882a3.833,3.833,0,0,1,1.118-2.943,4.416,4.416,0,0,1,3.138-1.046,6.871,6.871,0,0,1,1.62.215l.01,2.543a3.157,3.157,0,0,0-.851-.092q-1.569,0-1.569,1.354v.851h2.164v2.4H37.621V45Zm11.966.205a5.7,5.7,0,0,1-4.132-1.523,5.258,5.258,0,0,1-1.579-3.963v-.287a6.814,6.814,0,0,1,.631-3,4.614,4.614,0,0,1,1.841-2.015,5.556,5.556,0,0,1,2.871-.713,4.8,4.8,0,0,1,3.691,1.451A5.7,5.7,0,0,1,50.8,39.2V40.54h-6.87a2.491,2.491,0,0,0,.81,1.466,2.41,2.41,0,0,0,1.62.533,3.106,3.106,0,0,0,2.563-1.148L50.5,43.257a4.414,4.414,0,0,1-1.83,1.42A6.185,6.185,0,0,1,46.121,45.205Zm-.39-8.839q-1.518,0-1.8,2.01h3.486v-.267a1.712,1.712,0,0,0-.42-1.287A1.673,1.673,0,0,0,45.731,36.366ZM58,41.883a.8.8,0,0,0-.461-.708,7.019,7.019,0,0,0-1.753-.554,8,8,0,0,1-2.133-.754,3.573,3.573,0,0,1-1.282-1.133,2.706,2.706,0,0,1-.441-1.528,3.066,3.066,0,0,1,1.261-2.517,5.2,5.2,0,0,1,3.3-.99,5.756,5.756,0,0,1,3.527.995,3.11,3.11,0,0,1,1.333,2.615H57.882q0-1.333-1.4-1.333a1.393,1.393,0,0,0-.913.3.937.937,0,0,0-.369.754.86.86,0,0,0,.451.749,4.263,4.263,0,0,0,1.441.472,12.45,12.45,0,0,1,1.738.441q2.5.861,2.5,3.086a2.906,2.906,0,0,1-1.348,2.471,5.913,5.913,0,0,1-3.491.954,6.034,6.034,0,0,1-2.543-.513A4.252,4.252,0,0,1,52.2,43.3a3.158,3.158,0,0,1-.625-1.856h3.23a1.335,1.335,0,0,0,.513,1.123,2.109,2.109,0,0,0,1.261.354,1.659,1.659,0,0,0,1.061-.287A.918.918,0,0,0,58,41.883Zm9.741-2.512a6.777,6.777,0,0,1,1.138-4.153A3.746,3.746,0,0,1,72.053,33.7a3.186,3.186,0,0,1,2.5,1.169V29.25h3.466V45H74.914l-.174-1.189a3.272,3.272,0,0,1-2.707,1.395A3.74,3.74,0,0,1,68.9,43.688,6.992,6.992,0,0,1,67.736,39.371Zm3.456.215q0,2.953,1.723,2.953a1.7,1.7,0,0,0,1.641-.964V37.351a1.655,1.655,0,0,0-1.62-.984q-1.6,0-1.733,2.584Zm14.161,5.619a5.7,5.7,0,0,1-4.132-1.523,5.258,5.258,0,0,1-1.579-3.963v-.287a6.814,6.814,0,0,1,.631-3,4.614,4.614,0,0,1,1.841-2.015,5.556,5.556,0,0,1,2.871-.713,4.8,4.8,0,0,1,3.691,1.451A5.7,5.7,0,0,1,90.028,39.2V40.54h-6.87a2.491,2.491,0,0,0,.81,1.466,2.41,2.41,0,0,0,1.62.533,3.106,3.106,0,0,0,2.563-1.148l1.579,1.866a4.414,4.414,0,0,1-1.83,1.42A6.185,6.185,0,0,1,85.353,45.205Zm-.39-8.839q-1.518,0-1.8,2.01h3.486v-.267a1.712,1.712,0,0,0-.42-1.287A1.673,1.673,0,0,0,84.963,36.366ZM96.806,45V30.07h4.809a7.074,7.074,0,0,1,3.558.9,6.307,6.307,0,0,1,2.466,2.533,7.647,7.647,0,0,1,.9,3.666v.687a7.691,7.691,0,0,1-.866,3.676,6.334,6.334,0,0,1-2.44,2.543,6.919,6.919,0,0,1-3.512.928Zm3.6-12.151v9.382h1.251a2.8,2.8,0,0,0,2.379-1.1,5.4,5.4,0,0,0,.831-3.276v-.646a5.357,5.357,0,0,0-.831-3.261,2.849,2.849,0,0,0-2.42-1.1ZM113.869,45H110.4V33.905h3.466ZM110.2,31.044a1.542,1.542,0,0,1,.533-1.21,2.267,2.267,0,0,1,2.769,0,1.639,1.639,0,0,1,0,2.42,2.267,2.267,0,0,1-2.769,0A1.542,1.542,0,0,1,110.2,31.044Zm10.223,9.844,1.753-6.983h3.64L122.195,45h-3.527l-3.62-11.095h3.65ZM130.49,45h-3.466V33.905h3.466Zm-3.671-13.956a1.542,1.542,0,0,1,.533-1.21,2.267,2.267,0,0,1,2.769,0,1.639,1.639,0,0,1,0,2.42,2.267,2.267,0,0,1-2.769,0A1.542,1.542,0,0,1,126.819,31.044Zm11.607,10.838a.8.8,0,0,0-.461-.708,7.019,7.019,0,0,0-1.753-.554,8,8,0,0,1-2.133-.754,3.573,3.573,0,0,1-1.282-1.133,2.706,2.706,0,0,1-.441-1.528,3.066,3.066,0,0,1,1.261-2.517,5.2,5.2,0,0,1,3.3-.99,5.756,5.756,0,0,1,3.527.995,3.11,3.11,0,0,1,1.333,2.615h-3.466q0-1.333-1.4-1.333a1.393,1.393,0,0,0-.913.3.937.937,0,0,0-.369.754.86.86,0,0,0,.451.749,4.263,4.263,0,0,0,1.441.472,12.45,12.45,0,0,1,1.738.441q2.5.861,2.5,3.086a2.906,2.906,0,0,1-1.348,2.471,5.913,5.913,0,0,1-3.491.954,6.034,6.034,0,0,1-2.543-.513,4.252,4.252,0,0,1-1.743-1.395,3.158,3.158,0,0,1-.625-1.856h3.23a1.335,1.335,0,0,0,.513,1.123,2.109,2.109,0,0,0,1.261.354,1.659,1.659,0,0,0,1.061-.287A.918.918,0,0,0,138.427,41.883ZM147.02,45h-3.466V33.905h3.466Zm-3.671-13.956a1.542,1.542,0,0,1,.533-1.21,2.267,2.267,0,0,1,2.769,0,1.639,1.639,0,0,1,0,2.42,2.267,2.267,0,0,1-2.769,0A1.542,1.542,0,0,1,143.349,31.044Zm5.363,8.306a6.548,6.548,0,0,1,.646-2.958,4.62,4.62,0,0,1,1.856-1.994,5.59,5.59,0,0,1,2.84-.7,5.1,5.1,0,0,1,3.927,1.543,5.922,5.922,0,0,1,1.436,4.2v.123a5.746,5.746,0,0,1-1.441,4.117,5.115,5.115,0,0,1-3.9,1.523,5.173,5.173,0,0,1-3.8-1.42,5.555,5.555,0,0,1-1.548-3.85Zm3.456.215a4.128,4.128,0,0,0,.482,2.256,1.606,1.606,0,0,0,1.425.718q1.846,0,1.887-2.84V39.35q0-2.984-1.907-2.984-1.733,0-1.876,2.574Zm2.358-10.315h3.65l-2.851,3.22-2.82-.005Zm9.587,4.655.113,1.3a3.762,3.762,0,0,1,3.168-1.507,3.165,3.165,0,0,1,2.589,1.036,4.93,4.93,0,0,1,.887,3.117V45H167.4V38a1.872,1.872,0,0,0-.338-1.236,1.565,1.565,0,0,0-1.23-.395,1.648,1.648,0,0,0-1.507.8V45h-3.456V33.905Z" transform="translate(514 3303)" fill="#f6f6f6"/>
    <path id="Trazado_604818" data-name="Trazado 604818" d="M36.575,16.032a1.479,1.479,0,0,0-.559-1.23,6.946,6.946,0,0,0-1.964-.913,18.839,18.839,0,0,1-2.3-.913q-2.9-1.425-2.9-3.917a3.512,3.512,0,0,1,.723-2.189,4.676,4.676,0,0,1,2.046-1.477A7.961,7.961,0,0,1,34.6,4.865a6.963,6.963,0,0,1,2.886.574,4.57,4.57,0,0,1,1.984,1.635A4.271,4.271,0,0,1,40.174,9.5H36.585a1.8,1.8,0,0,0-.559-1.415,2.178,2.178,0,0,0-1.512-.5,2.456,2.456,0,0,0-1.523.426,1.253,1.253,0,0,0,.056,2.123,7.758,7.758,0,0,0,2.164.964,13.254,13.254,0,0,1,2.543,1.072,4.273,4.273,0,0,1,2.42,3.845A3.645,3.645,0,0,1,38.7,19.087a6.568,6.568,0,0,1-4.05,1.118,8.036,8.036,0,0,1-3.286-.651,4.955,4.955,0,0,1-2.215-1.784,4.649,4.649,0,0,1-.743-2.61h3.609a2.29,2.29,0,0,0,.62,1.769,2.932,2.932,0,0,0,2.015.569,2.316,2.316,0,0,0,1.41-.385A1.269,1.269,0,0,0,36.575,16.032ZM48.469,18.8a3.563,3.563,0,0,1-2.963,1.4,3.494,3.494,0,0,1-2.763-1.061,4.463,4.463,0,0,1-.938-3.051V8.905H45.26v7.208a1.242,1.242,0,0,0,1.384,1.425,1.806,1.806,0,0,0,1.692-.851V8.905h3.476V20h-3.24ZM64,14.535a6.691,6.691,0,0,1-1.164,4.127A3.731,3.731,0,0,1,59.7,20.205a3.2,3.2,0,0,1-2.512-1.118v5.178H53.729V8.905h3.23l.1,1.025A3.2,3.2,0,0,1,59.677,8.7a3.761,3.761,0,0,1,3.189,1.512A6.773,6.773,0,0,1,64,14.371Zm-3.456-.215q0-2.953-1.723-2.953a1.626,1.626,0,0,0-1.641.882v4.368a1.679,1.679,0,0,0,1.661.923q1.651,0,1.7-2.851Zm10.346,5.886a5.7,5.7,0,0,1-4.132-1.523,5.258,5.258,0,0,1-1.579-3.963v-.287a6.814,6.814,0,0,1,.631-3,4.614,4.614,0,0,1,1.841-2.015A5.556,5.556,0,0,1,70.525,8.7a4.8,4.8,0,0,1,3.691,1.451A5.7,5.7,0,0,1,75.57,14.2V15.54H68.7a2.491,2.491,0,0,0,.81,1.466,2.41,2.41,0,0,0,1.62.533,3.106,3.106,0,0,0,2.563-1.148l1.579,1.866a4.414,4.414,0,0,1-1.83,1.42A6.185,6.185,0,0,1,70.895,20.205Zm-.39-8.839q-1.518,0-1.8,2.01h3.486v-.267a1.712,1.712,0,0,0-.42-1.287A1.673,1.673,0,0,0,70.5,11.366Zm13.166.667-1.138-.082a2.044,2.044,0,0,0-2.092,1.025V20H76.985V8.905h3.24l.113,1.425a2.676,2.676,0,0,1,2.43-1.63,3.37,3.37,0,0,1,.964.123Zm5.855,3.855,1.753-6.983h3.64L91.3,20H87.772L84.153,8.905H87.8ZM99.6,20H96.129V8.905H99.6ZM95.924,6.044a1.542,1.542,0,0,1,.533-1.21,2.267,2.267,0,0,1,2.769,0,1.542,1.542,0,0,1,.533,1.21,1.542,1.542,0,0,1-.533,1.21,2.267,2.267,0,0,1-2.769,0A1.542,1.542,0,0,1,95.924,6.044Zm11.607,10.838a.8.8,0,0,0-.461-.708,7.019,7.019,0,0,0-1.753-.554,8,8,0,0,1-2.133-.754,3.573,3.573,0,0,1-1.282-1.133,2.706,2.706,0,0,1-.441-1.528,3.066,3.066,0,0,1,1.261-2.517,5.2,5.2,0,0,1,3.3-.99,5.756,5.756,0,0,1,3.527.995,3.11,3.11,0,0,1,1.333,2.615h-3.466q0-1.333-1.4-1.333a1.393,1.393,0,0,0-.913.3.937.937,0,0,0-.369.754.86.86,0,0,0,.451.749,4.263,4.263,0,0,0,1.441.472,12.45,12.45,0,0,1,1.738.441q2.5.861,2.5,3.086a2.906,2.906,0,0,1-1.348,2.471,5.913,5.913,0,0,1-3.491.954,6.034,6.034,0,0,1-2.543-.513,4.252,4.252,0,0,1-1.743-1.395,3.158,3.158,0,0,1-.625-1.856h3.23a1.335,1.335,0,0,0,.513,1.123,2.109,2.109,0,0,0,1.261.354,1.659,1.659,0,0,0,1.061-.287A.918.918,0,0,0,107.532,16.883Zm4.512-2.533a6.548,6.548,0,0,1,.646-2.958A4.62,4.62,0,0,1,114.545,9.4a5.59,5.59,0,0,1,2.84-.7,5.1,5.1,0,0,1,3.927,1.543,5.922,5.922,0,0,1,1.436,4.2v.123a5.746,5.746,0,0,1-1.441,4.117,5.115,5.115,0,0,1-3.9,1.523,5.173,5.173,0,0,1-3.8-1.42,5.555,5.555,0,0,1-1.548-3.85Zm3.456.215a4.128,4.128,0,0,0,.482,2.256,1.606,1.606,0,0,0,1.425.718q1.846,0,1.887-2.84V14.35q0-2.984-1.907-2.984-1.733,0-1.876,2.574Zm15.483-2.533-1.138-.082a2.044,2.044,0,0,0-2.092,1.025V20H124.3V8.905h3.24l.113,1.425a2.676,2.676,0,0,1,2.43-1.63,3.37,3.37,0,0,1,.964.123Zm6.419,8.172a5.7,5.7,0,0,1-4.132-1.523,5.258,5.258,0,0,1-1.579-3.963v-.287a6.814,6.814,0,0,1,.631-3,4.614,4.614,0,0,1,1.841-2.015,5.556,5.556,0,0,1,2.871-.713,4.8,4.8,0,0,1,3.691,1.451,5.7,5.7,0,0,1,1.354,4.045V15.54h-6.87a2.491,2.491,0,0,0,.81,1.466,2.41,2.41,0,0,0,1.62.533,3.106,3.106,0,0,0,2.563-1.148l1.579,1.866a4.414,4.414,0,0,1-1.83,1.42A6.185,6.185,0,0,1,137.4,20.205Zm-.39-8.839q-1.518,0-1.8,2.01h3.486v-.267a1.712,1.712,0,0,0-.42-1.287A1.673,1.673,0,0,0,137.012,11.366Zm12.264,5.517a.8.8,0,0,0-.461-.708,7.019,7.019,0,0,0-1.753-.554,8,8,0,0,1-2.133-.754,3.573,3.573,0,0,1-1.282-1.133,2.706,2.706,0,0,1-.441-1.528,3.066,3.066,0,0,1,1.261-2.517,5.2,5.2,0,0,1,3.3-.99,5.756,5.756,0,0,1,3.527.995,3.11,3.11,0,0,1,1.333,2.615h-3.466q0-1.333-1.4-1.333a1.393,1.393,0,0,0-.913.3.937.937,0,0,0-.369.754.86.86,0,0,0,.451.749,4.263,4.263,0,0,0,1.441.472,12.45,12.45,0,0,1,1.738.441q2.5.861,2.5,3.086a2.906,2.906,0,0,1-1.348,2.471,5.913,5.913,0,0,1-3.491.954,6.034,6.034,0,0,1-2.543-.513,4.252,4.252,0,0,1-1.743-1.395,3.158,3.158,0,0,1-.625-1.856h3.23a1.335,1.335,0,0,0,.513,1.123,2.109,2.109,0,0,0,1.261.354,1.659,1.659,0,0,0,1.061-.287A.918.918,0,0,0,149.275,16.883ZM57.857,37.843a8.8,8.8,0,0,1-.81,3.866,5.987,5.987,0,0,1-2.3,2.589,6.41,6.41,0,0,1-3.4.907,6.5,6.5,0,0,1-3.384-.877,5.977,5.977,0,0,1-2.3-2.507,8.551,8.551,0,0,1-.866-3.743v-.841a8.843,8.843,0,0,1,.8-3.871,5.972,5.972,0,0,1,2.307-2.589,6.83,6.83,0,0,1,6.8-.01,6.08,6.08,0,0,1,2.312,2.569,8.589,8.589,0,0,1,.836,3.82ZM54.2,37.217a6.278,6.278,0,0,0-.743-3.379,2.385,2.385,0,0,0-2.128-1.154q-2.707,0-2.861,4.061l-.01,1.1a6.457,6.457,0,0,0,.728,3.374A2.381,2.381,0,0,0,51.345,42.4a2.352,2.352,0,0,0,2.1-1.159A6.281,6.281,0,0,0,54.2,37.9Zm15.658,2.317a6.691,6.691,0,0,1-1.164,4.127,3.731,3.731,0,0,1-3.143,1.543,3.2,3.2,0,0,1-2.512-1.118v5.178H59.579V33.905h3.23l.1,1.025a3.2,3.2,0,0,1,2.615-1.23,3.761,3.761,0,0,1,3.189,1.512,6.773,6.773,0,0,1,1.138,4.158ZM66.4,39.319q0-2.953-1.723-2.953a1.626,1.626,0,0,0-1.641.882v4.368a1.679,1.679,0,0,0,1.661.923q1.651,0,1.7-2.851Zm10.346,5.886a5.7,5.7,0,0,1-4.132-1.523,5.258,5.258,0,0,1-1.579-3.963v-.287a6.814,6.814,0,0,1,.631-3A4.614,4.614,0,0,1,73.5,34.413a5.556,5.556,0,0,1,2.871-.713,4.8,4.8,0,0,1,3.691,1.451A5.7,5.7,0,0,1,81.42,39.2V40.54H74.55a2.491,2.491,0,0,0,.81,1.466,2.41,2.41,0,0,0,1.62.533,3.106,3.106,0,0,0,2.563-1.148l1.579,1.866a4.414,4.414,0,0,1-1.83,1.42A6.185,6.185,0,0,1,76.744,45.205Zm-.39-8.839q-1.518,0-1.8,2.01h3.486v-.267a1.712,1.712,0,0,0-.42-1.287A1.673,1.673,0,0,0,76.355,36.366Zm13.166.667-1.138-.082a2.044,2.044,0,0,0-2.092,1.025V45H82.835V33.905h3.24l.113,1.425a2.676,2.676,0,0,1,2.43-1.63,3.37,3.37,0,0,1,.964.123ZM96.709,45a3.9,3.9,0,0,1-.328-.995,3.213,3.213,0,0,1-2.666,1.2,3.936,3.936,0,0,1-2.666-.948,3.019,3.019,0,0,1-1.1-2.384,3.1,3.1,0,0,1,1.333-2.728,6.791,6.791,0,0,1,3.876-.923h1.066v-.587q0-1.535-1.323-1.535a1.081,1.081,0,0,0-1.23,1.216H90.218A3.1,3.1,0,0,1,91.587,34.7a5.753,5.753,0,0,1,3.491-1,5.044,5.044,0,0,1,3.353,1.036,3.6,3.6,0,0,1,1.261,2.84v4.912a5.03,5.03,0,0,0,.472,2.338V45Zm-2.164-2.256a1.928,1.928,0,0,0,1.072-.277,1.735,1.735,0,0,0,.61-.625V40.068h-1q-1.8,0-1.8,1.62a.989.989,0,0,0,.318.764A1.15,1.15,0,0,0,94.545,42.744Zm13.771-5.711-1.138-.082a2.044,2.044,0,0,0-2.092,1.025V45h-3.456V33.905h3.24l.113,1.425a2.676,2.676,0,0,1,2.43-1.63,3.37,3.37,0,0,1,.964.123ZM113.207,45h-3.466V33.905h3.466Zm-3.671-13.956a1.542,1.542,0,0,1,.533-1.21,2.267,2.267,0,0,1,2.769,0,1.639,1.639,0,0,1,0,2.42,2.267,2.267,0,0,1-2.769,0A1.542,1.542,0,0,1,109.536,31.044ZM114.9,39.35a6.548,6.548,0,0,1,.646-2.958A4.62,4.62,0,0,1,117.4,34.4a5.59,5.59,0,0,1,2.84-.7,5.1,5.1,0,0,1,3.927,1.543,5.922,5.922,0,0,1,1.436,4.2v.123a5.746,5.746,0,0,1-1.441,4.117,5.115,5.115,0,0,1-3.9,1.523,5.173,5.173,0,0,1-3.8-1.42,5.555,5.555,0,0,1-1.548-3.85Zm3.456.215a4.128,4.128,0,0,0,.482,2.256,1.606,1.606,0,0,0,1.425.718q1.846,0,1.887-2.84V39.35q0-2.984-1.907-2.984-1.733,0-1.876,2.574Zm14.581,2.317a.8.8,0,0,0-.461-.708,7.019,7.019,0,0,0-1.753-.554,8,8,0,0,1-2.133-.754,3.573,3.573,0,0,1-1.282-1.133,2.706,2.706,0,0,1-.441-1.528,3.066,3.066,0,0,1,1.261-2.517,5.2,5.2,0,0,1,3.3-.99,5.756,5.756,0,0,1,3.527.995,3.11,3.11,0,0,1,1.333,2.615h-3.466q0-1.333-1.4-1.333a1.393,1.393,0,0,0-.913.3.937.937,0,0,0-.369.754.86.86,0,0,0,.451.749,4.263,4.263,0,0,0,1.441.472,12.45,12.45,0,0,1,1.738.441q2.5.861,2.5,3.086a2.906,2.906,0,0,1-1.348,2.471,5.913,5.913,0,0,1-3.491.954,6.034,6.034,0,0,1-2.543-.513,4.252,4.252,0,0,1-1.743-1.395,3.158,3.158,0,0,1-.625-1.856h3.23a1.335,1.335,0,0,0,.513,1.123,2.109,2.109,0,0,0,1.261.354,1.659,1.659,0,0,0,1.061-.287A.918.918,0,0,0,132.936,41.883Z" transform="translate(514 3469)" fill="#f6f6f6"/>
    <path id="Trazado_604819" data-name="Trazado 604819" d="M0,0H253V97H0Z" transform="translate(1000 3115)" fill="#60cb28"/>
    <path id="Trazado_604820" data-name="Trazado 604820" d="M0,0H253V97H0Z" transform="translate(1000 3288)" fill="#304c8e"/>
    <path id="Trazado_604821" data-name="Trazado 604821" d="M0,0H253V97H0Z" transform="translate(1000 3461)" fill="#7e10b8"/>
    <path id="Trazado_604822" data-name="Trazado 604822" d="M18.409,20H14.83L9.539,10.71V20H5.94V5.07h3.6l5.281,9.29V5.07h3.589Zm5.763,0H20.706V8.905h3.466ZM20.5,6.044a1.542,1.542,0,0,1,.533-1.21,2.267,2.267,0,0,1,2.769,0,1.542,1.542,0,0,1,.533,1.21,1.542,1.542,0,0,1-.533,1.21,2.267,2.267,0,0,1-2.769,0A1.542,1.542,0,0,1,20.5,6.044Zm10.223,9.844,1.753-6.983h3.64L32.5,20H28.97L25.351,8.905H29Zm11.659,4.317a5.7,5.7,0,0,1-4.132-1.523,5.258,5.258,0,0,1-1.579-3.963v-.287a6.814,6.814,0,0,1,.631-3,4.614,4.614,0,0,1,1.841-2.015A5.556,5.556,0,0,1,42.013,8.7,4.8,4.8,0,0,1,45.7,10.151,5.7,5.7,0,0,1,47.058,14.2V15.54h-6.87A2.491,2.491,0,0,0,41,17.006a2.41,2.41,0,0,0,1.62.533,3.106,3.106,0,0,0,2.563-1.148l1.579,1.866a4.414,4.414,0,0,1-1.83,1.42A6.185,6.185,0,0,1,42.382,20.205Zm-.39-8.839q-1.518,0-1.8,2.01h3.486v-.267a1.712,1.712,0,0,0-.42-1.287A1.673,1.673,0,0,0,41.993,11.366ZM52.093,20H48.627V4.25h3.466Zm16.775-6.337h-5.66v3.568h6.686V20H59.609V5.07H69.914V7.849H63.208V11h5.66Zm8.142,3.22a.8.8,0,0,0-.461-.708,7.019,7.019,0,0,0-1.753-.554,8,8,0,0,1-2.133-.754,3.573,3.573,0,0,1-1.282-1.133,2.706,2.706,0,0,1-.441-1.528A3.066,3.066,0,0,1,72.2,9.69a5.2,5.2,0,0,1,3.3-.99,5.756,5.756,0,0,1,3.527.995,3.11,3.11,0,0,1,1.333,2.615H76.9q0-1.333-1.4-1.333a1.393,1.393,0,0,0-.913.3.937.937,0,0,0-.369.754.86.86,0,0,0,.451.749,4.263,4.263,0,0,0,1.441.472,12.45,12.45,0,0,1,1.738.441q2.5.861,2.5,3.086a2.906,2.906,0,0,1-1.348,2.471,5.913,5.913,0,0,1-3.491.954,6.034,6.034,0,0,1-2.543-.513A4.252,4.252,0,0,1,71.216,18.3a3.158,3.158,0,0,1-.625-1.856h3.23a1.335,1.335,0,0,0,.513,1.123,2.109,2.109,0,0,0,1.261.354,1.659,1.659,0,0,0,1.061-.287A.918.918,0,0,0,77.01,16.883ZM85.982,6.147V8.905h1.825v2.4H85.982V16.38a1.3,1.3,0,0,0,.226.872,1.21,1.21,0,0,0,.892.246,5.069,5.069,0,0,0,.861-.062v2.471a6.377,6.377,0,0,1-1.948.3,3.62,3.62,0,0,1-2.635-.841,3.446,3.446,0,0,1-.851-2.553V11.3H81.111v-2.4h1.415V6.147Zm9.9,5.886-1.138-.082a2.044,2.044,0,0,0-2.092,1.025V20H89.191V8.905h3.24l.113,1.425a2.676,2.676,0,0,1,2.43-1.63,3.37,3.37,0,0,1,.964.123ZM103.065,20a3.9,3.9,0,0,1-.328-.995,3.213,3.213,0,0,1-2.666,1.2,3.936,3.936,0,0,1-2.666-.948,3.019,3.019,0,0,1-1.1-2.384,3.1,3.1,0,0,1,1.333-2.728,6.791,6.791,0,0,1,3.876-.923h1.066v-.587q0-1.535-1.323-1.535a1.081,1.081,0,0,0-1.23,1.216H96.574A3.1,3.1,0,0,1,97.943,9.7a5.753,5.753,0,0,1,3.491-1,5.044,5.044,0,0,1,3.353,1.036,3.6,3.6,0,0,1,1.261,2.84v4.912a5.03,5.03,0,0,0,.472,2.338V20ZM100.9,17.744a1.928,1.928,0,0,0,1.072-.277,1.735,1.735,0,0,0,.61-.625V15.068h-1q-1.8,0-1.8,1.62a.989.989,0,0,0,.318.764A1.15,1.15,0,0,0,100.9,17.744Zm11.084-11.6V8.905h1.825v2.4h-1.825V16.38a1.3,1.3,0,0,0,.226.872,1.21,1.21,0,0,0,.892.246,5.069,5.069,0,0,0,.861-.062v2.471a6.377,6.377,0,0,1-1.948.3,3.62,3.62,0,0,1-2.635-.841,3.446,3.446,0,0,1-.851-2.553V11.3h-1.415v-2.4h1.415V6.147Zm8.552,14.058a5.7,5.7,0,0,1-4.132-1.523,5.258,5.258,0,0,1-1.579-3.963v-.287a6.814,6.814,0,0,1,.631-3A4.614,4.614,0,0,1,117.3,9.413a5.556,5.556,0,0,1,2.871-.713,4.8,4.8,0,0,1,3.691,1.451,5.7,5.7,0,0,1,1.354,4.045V15.54h-6.87a2.491,2.491,0,0,0,.81,1.466,2.41,2.41,0,0,0,1.62.533,3.106,3.106,0,0,0,2.563-1.148l1.579,1.866a4.414,4.414,0,0,1-1.83,1.42A6.185,6.185,0,0,1,120.538,20.205Zm-.39-8.839q-1.518,0-1.8,2.01h3.486v-.267a1.712,1.712,0,0,0-.42-1.287A1.673,1.673,0,0,0,120.148,11.366Zm-.041-7.126h3.65l-2.851,3.22-2.82-.005ZM126.2,14.371a7.491,7.491,0,0,1,.554-2.974A4.458,4.458,0,0,1,128.341,9.4a4.19,4.19,0,0,1,2.41-.7,3.331,3.331,0,0,1,2.707,1.169l.123-.964h3.138V19.58a4.678,4.678,0,0,1-.682,2.548,4.375,4.375,0,0,1-1.974,1.661,7.255,7.255,0,0,1-2.994.579,6.259,6.259,0,0,1-2.364-.461,4.266,4.266,0,0,1-1.748-1.2l1.446-2.03a3.169,3.169,0,0,0,2.543,1.138,2.058,2.058,0,0,0,2.3-2.358v-.349a3.245,3.245,0,0,1-2.512,1.1,4.01,4.01,0,0,1-3.281-1.553,6.436,6.436,0,0,1-1.251-4.158Zm3.466.215a3.947,3.947,0,0,0,.513,2.158,1.618,1.618,0,0,0,1.436.795,1.835,1.835,0,0,0,1.63-.749V12.125a1.789,1.789,0,0,0-1.61-.759,1.628,1.628,0,0,0-1.446.825A4.5,4.5,0,0,0,129.664,14.586ZM142.327,20h-3.466V8.905h3.466ZM138.656,6.044a1.542,1.542,0,0,1,.533-1.21,2.267,2.267,0,0,1,2.769,0,1.542,1.542,0,0,1,.533,1.21,1.542,1.542,0,0,1-.533,1.21,2.267,2.267,0,0,1-2.769,0A1.542,1.542,0,0,1,138.656,6.044Zm10.49,11.495a1.537,1.537,0,0,0,1.128-.395,1.448,1.448,0,0,0,.39-1.1h3.24a3.836,3.836,0,0,1-1.307,2.994,4.863,4.863,0,0,1-3.368,1.169,4.924,4.924,0,0,1-3.814-1.518,5.979,5.979,0,0,1-1.395-4.2V14.34a6.758,6.758,0,0,1,.62-2.969,4.517,4.517,0,0,1,1.789-1.979A5.335,5.335,0,0,1,149.2,8.7a4.8,4.8,0,0,1,3.435,1.2,4.255,4.255,0,0,1,1.271,3.25h-3.24a1.9,1.9,0,0,0-.42-1.323,1.451,1.451,0,0,0-1.128-.461q-1.343,0-1.569,1.712a12.083,12.083,0,0,0-.072,1.5,4.746,4.746,0,0,0,.4,2.317A1.384,1.384,0,0,0,149.146,17.539Zm5.783-3.189a6.548,6.548,0,0,1,.646-2.958A4.62,4.62,0,0,1,157.431,9.4a5.59,5.59,0,0,1,2.84-.7,5.1,5.1,0,0,1,3.927,1.543,5.922,5.922,0,0,1,1.436,4.2v.123a5.746,5.746,0,0,1-1.441,4.117,5.115,5.115,0,0,1-3.9,1.523,5.173,5.173,0,0,1-3.8-1.42,5.555,5.555,0,0,1-1.548-3.85Zm3.456.215a4.128,4.128,0,0,0,.482,2.256,1.606,1.606,0,0,0,1.425.718q1.846,0,1.887-2.84V14.35q0-2.984-1.907-2.984-1.733,0-1.876,2.574ZM28.135,39.35a6.548,6.548,0,0,1,.646-2.958A4.62,4.62,0,0,1,30.636,34.4a5.59,5.59,0,0,1,2.84-.7A5.1,5.1,0,0,1,37.4,35.243a5.922,5.922,0,0,1,1.436,4.2v.123A5.746,5.746,0,0,1,37.4,43.682a5.115,5.115,0,0,1-3.9,1.523,5.173,5.173,0,0,1-3.8-1.42,5.555,5.555,0,0,1-1.548-3.85Zm3.456.215a4.128,4.128,0,0,0,.482,2.256,1.606,1.606,0,0,0,1.425.718q1.846,0,1.887-2.84V39.35q0-2.984-1.907-2.984-1.733,0-1.876,2.574ZM45.751,45V30.07H50.56a7.074,7.074,0,0,1,3.558.9A6.307,6.307,0,0,1,56.584,33.5a7.647,7.647,0,0,1,.9,3.666v.687a7.691,7.691,0,0,1-.866,3.676,6.334,6.334,0,0,1-2.44,2.543A6.919,6.919,0,0,1,50.662,45Zm3.6-12.151v9.382H50.6a2.8,2.8,0,0,0,2.379-1.1,5.4,5.4,0,0,0,.831-3.276v-.646a5.357,5.357,0,0,0-.831-3.261,2.849,2.849,0,0,0-2.42-1.1ZM64.536,45.205A5.7,5.7,0,0,1,60.4,43.682a5.258,5.258,0,0,1-1.579-3.963v-.287a6.814,6.814,0,0,1,.631-3A4.614,4.614,0,0,1,61.3,34.413a5.556,5.556,0,0,1,2.871-.713,4.8,4.8,0,0,1,3.691,1.451A5.7,5.7,0,0,1,69.212,39.2V40.54h-6.87a2.491,2.491,0,0,0,.81,1.466,2.41,2.41,0,0,0,1.62.533,3.106,3.106,0,0,0,2.563-1.148l1.579,1.866a4.414,4.414,0,0,1-1.83,1.42A6.185,6.185,0,0,1,64.536,45.205Zm-.39-8.839q-1.518,0-1.8,2.01h3.486v-.267a1.712,1.712,0,0,0-.42-1.287A1.673,1.673,0,0,0,64.146,36.366Zm11.146,6.173a1.537,1.537,0,0,0,1.128-.395,1.448,1.448,0,0,0,.39-1.1h3.24a3.836,3.836,0,0,1-1.307,2.994,4.863,4.863,0,0,1-3.368,1.169,4.924,4.924,0,0,1-3.814-1.518,5.979,5.979,0,0,1-1.395-4.2V39.34a6.758,6.758,0,0,1,.62-2.969,4.517,4.517,0,0,1,1.789-1.979,5.335,5.335,0,0,1,2.769-.692,4.8,4.8,0,0,1,3.435,1.2,4.255,4.255,0,0,1,1.271,3.25H76.81a1.9,1.9,0,0,0-.42-1.323,1.451,1.451,0,0,0-1.128-.461q-1.343,0-1.569,1.712a12.083,12.083,0,0,0-.072,1.5,4.746,4.746,0,0,0,.4,2.317A1.384,1.384,0,0,0,75.292,42.539ZM85.156,45H81.691V33.905h3.466ZM81.486,31.044a1.542,1.542,0,0,1,.533-1.21,2.267,2.267,0,0,1,2.769,0,1.639,1.639,0,0,1,0,2.42,2.267,2.267,0,0,1-2.769,0A1.542,1.542,0,0,1,81.486,31.044ZM93.093,41.883a.8.8,0,0,0-.461-.708,7.019,7.019,0,0,0-1.753-.554,8,8,0,0,1-2.133-.754,3.573,3.573,0,0,1-1.282-1.133,2.706,2.706,0,0,1-.441-1.528,3.066,3.066,0,0,1,1.261-2.517,5.2,5.2,0,0,1,3.3-.99,5.756,5.756,0,0,1,3.527.995,3.11,3.11,0,0,1,1.333,2.615H92.98q0-1.333-1.4-1.333a1.393,1.393,0,0,0-.913.3.937.937,0,0,0-.369.754.86.86,0,0,0,.451.749,4.263,4.263,0,0,0,1.441.472,12.45,12.45,0,0,1,1.738.441q2.5.861,2.5,3.086a2.906,2.906,0,0,1-1.348,2.471,5.913,5.913,0,0,1-3.491.954,6.034,6.034,0,0,1-2.543-.513A4.252,4.252,0,0,1,87.3,43.3a3.158,3.158,0,0,1-.625-1.856H89.9a1.335,1.335,0,0,0,.513,1.123,2.109,2.109,0,0,0,1.261.354,1.659,1.659,0,0,0,1.061-.287A.918.918,0,0,0,93.093,41.883ZM101.686,45H98.22V33.905h3.466ZM98.015,31.044a1.542,1.542,0,0,1,.533-1.21,2.267,2.267,0,0,1,2.769,0,1.639,1.639,0,0,1,0,2.42,2.267,2.267,0,0,1-2.769,0A1.542,1.542,0,0,1,98.015,31.044Zm5.363,8.306a6.548,6.548,0,0,1,.646-2.958A4.62,4.62,0,0,1,105.88,34.4a5.59,5.59,0,0,1,2.84-.7,5.1,5.1,0,0,1,3.927,1.543,5.922,5.922,0,0,1,1.436,4.2v.123a5.746,5.746,0,0,1-1.441,4.117,5.115,5.115,0,0,1-3.9,1.523,5.173,5.173,0,0,1-3.8-1.42,5.555,5.555,0,0,1-1.548-3.85Zm3.456.215a4.128,4.128,0,0,0,.482,2.256,1.606,1.606,0,0,0,1.425.718q1.846,0,1.887-2.84V39.35q0-2.984-1.907-2.984-1.733,0-1.876,2.574Zm11.946-5.66.113,1.3A3.762,3.762,0,0,1,122.06,33.7a3.165,3.165,0,0,1,2.589,1.036,4.93,4.93,0,0,1,.887,3.117V45h-3.466V38a1.872,1.872,0,0,0-.338-1.236,1.565,1.565,0,0,0-1.23-.395,1.648,1.648,0,0,0-1.507.8V45h-3.456V33.905ZM133.7,45a3.9,3.9,0,0,1-.328-.995,3.213,3.213,0,0,1-2.666,1.2,3.936,3.936,0,0,1-2.666-.948,3.019,3.019,0,0,1-1.1-2.384,3.1,3.1,0,0,1,1.333-2.728,6.791,6.791,0,0,1,3.876-.923h1.066v-.587q0-1.535-1.323-1.535a1.081,1.081,0,0,0-1.23,1.216h-3.456a3.1,3.1,0,0,1,1.369-2.612,5.753,5.753,0,0,1,3.491-1,5.044,5.044,0,0,1,3.353,1.036,3.6,3.6,0,0,1,1.261,2.84v4.912a5.03,5.03,0,0,0,.472,2.338V45Zm-2.164-2.256a1.928,1.928,0,0,0,1.072-.277,1.735,1.735,0,0,0,.61-.625V40.068h-1q-1.8,0-1.8,1.62a.989.989,0,0,0,.318.764A1.15,1.15,0,0,0,131.535,42.744ZM142.24,45h-3.466V29.25h3.466Z" transform="translate(1039 3139)" fill="#12263f"/>
    <path id="Trazado_604823" data-name="Trazado 604823" d="M15.194,20H11.615L6.324,10.71V20h-3.6V5.07h3.6l5.281,9.29V5.07h3.589Zm5.763,0H17.491V8.905h3.466ZM17.286,6.044a1.542,1.542,0,0,1,.533-1.21,2.267,2.267,0,0,1,2.769,0,1.542,1.542,0,0,1,.533,1.21,1.542,1.542,0,0,1-.533,1.21,2.267,2.267,0,0,1-2.769,0A1.542,1.542,0,0,1,17.286,6.044Zm10.223,9.844,1.753-6.983H32.9L29.283,20H25.756L22.136,8.905h3.65Zm11.659,4.317a5.7,5.7,0,0,1-4.132-1.523,5.258,5.258,0,0,1-1.579-3.963v-.287a6.814,6.814,0,0,1,.631-3,4.614,4.614,0,0,1,1.841-2.015A5.556,5.556,0,0,1,38.8,8.7a4.8,4.8,0,0,1,3.691,1.451A5.7,5.7,0,0,1,43.844,14.2V15.54h-6.87a2.491,2.491,0,0,0,.81,1.466,2.41,2.41,0,0,0,1.62.533,3.106,3.106,0,0,0,2.563-1.148l1.579,1.866a4.414,4.414,0,0,1-1.83,1.42A6.185,6.185,0,0,1,39.168,20.205Zm-.39-8.839q-1.518,0-1.8,2.01H40.46v-.267a1.712,1.712,0,0,0-.42-1.287A1.673,1.673,0,0,0,38.778,11.366ZM48.878,20H45.412V4.25h3.466ZM67.5,7.849H63.018V20h-3.6V7.849h-4.4V5.07H67.5ZM73.385,20a3.9,3.9,0,0,1-.328-.995,3.213,3.213,0,0,1-2.666,1.2,3.936,3.936,0,0,1-2.666-.948,3.019,3.019,0,0,1-1.1-2.384,3.1,3.1,0,0,1,1.333-2.728,6.791,6.791,0,0,1,3.876-.923H72.9v-.587q0-1.535-1.323-1.535a1.081,1.081,0,0,0-1.23,1.216H66.894A3.1,3.1,0,0,1,68.263,9.7a5.753,5.753,0,0,1,3.491-1,5.044,5.044,0,0,1,3.353,1.036,3.6,3.6,0,0,1,1.261,2.84v4.912a5.03,5.03,0,0,0,.472,2.338V20Zm-2.164-2.256a1.928,1.928,0,0,0,1.072-.277,1.735,1.735,0,0,0,.61-.625V15.068h-1q-1.8,0-1.8,1.62a.989.989,0,0,0,.318.764A1.15,1.15,0,0,0,71.221,17.744ZM72.083,4.25h3.65L72.883,7.47l-2.82-.005Zm10.89,13.289a1.537,1.537,0,0,0,1.128-.395,1.448,1.448,0,0,0,.39-1.1h3.24a3.836,3.836,0,0,1-1.307,2.994,4.863,4.863,0,0,1-3.368,1.169,4.924,4.924,0,0,1-3.814-1.518,5.979,5.979,0,0,1-1.395-4.2V14.34a6.758,6.758,0,0,1,.62-2.969,4.517,4.517,0,0,1,1.789-1.979A5.335,5.335,0,0,1,83.024,8.7a4.8,4.8,0,0,1,3.435,1.2,4.255,4.255,0,0,1,1.271,3.25H84.49a1.9,1.9,0,0,0-.42-1.323,1.451,1.451,0,0,0-1.128-.461q-1.343,0-1.569,1.712a12.083,12.083,0,0,0-.072,1.5,4.746,4.746,0,0,0,.4,2.317A1.384,1.384,0,0,0,82.972,17.539ZM93.216,6.147V8.905h1.825v2.4H93.216V16.38a1.3,1.3,0,0,0,.226.872,1.21,1.21,0,0,0,.892.246,5.069,5.069,0,0,0,.861-.062v2.471a6.377,6.377,0,0,1-1.948.3,3.62,3.62,0,0,1-2.635-.841,3.446,3.446,0,0,1-.851-2.553V11.3H88.345v-2.4H89.76V6.147ZM100.045,20H96.579V8.905h3.466ZM96.374,6.044a1.542,1.542,0,0,1,.533-1.21,2.267,2.267,0,0,1,2.769,0,1.542,1.542,0,0,1,.533,1.21,1.542,1.542,0,0,1-.533,1.21,2.267,2.267,0,0,1-2.769,0A1.542,1.542,0,0,1,96.374,6.044Zm10.49,11.495a1.537,1.537,0,0,0,1.128-.395,1.448,1.448,0,0,0,.39-1.1h3.24a3.836,3.836,0,0,1-1.307,2.994,4.863,4.863,0,0,1-3.368,1.169,4.924,4.924,0,0,1-3.814-1.518,5.979,5.979,0,0,1-1.395-4.2V14.34a6.758,6.758,0,0,1,.62-2.969,4.517,4.517,0,0,1,1.789-1.979,5.335,5.335,0,0,1,2.769-.692,4.8,4.8,0,0,1,3.435,1.2,4.255,4.255,0,0,1,1.271,3.25h-3.24a1.9,1.9,0,0,0-.42-1.323,1.451,1.451,0,0,0-1.128-.461q-1.343,0-1.569,1.712a12.083,12.083,0,0,0-.072,1.5,4.746,4.746,0,0,0,.4,2.317A1.384,1.384,0,0,0,106.864,17.539Zm5.783-3.189a6.548,6.548,0,0,1,.646-2.958A4.62,4.62,0,0,1,115.149,9.4a5.59,5.59,0,0,1,2.84-.7,5.1,5.1,0,0,1,3.927,1.543,5.922,5.922,0,0,1,1.436,4.2v.123a5.746,5.746,0,0,1-1.441,4.117,5.115,5.115,0,0,1-3.9,1.523,5.173,5.173,0,0,1-3.8-1.42,5.555,5.555,0,0,1-1.548-3.85Zm3.456.215a4.128,4.128,0,0,0,.482,2.256,1.606,1.606,0,0,0,1.425.718q1.846,0,1.887-2.84V14.35q0-2.984-1.907-2.984-1.733,0-1.876,2.574Zm13.566-.215a6.548,6.548,0,0,1,.646-2.958A4.62,4.62,0,0,1,132.171,9.4a5.59,5.59,0,0,1,2.84-.7,5.1,5.1,0,0,1,3.927,1.543,5.922,5.922,0,0,1,1.436,4.2v.123a5.746,5.746,0,0,1-1.441,4.117,5.115,5.115,0,0,1-3.9,1.523,5.173,5.173,0,0,1-3.8-1.42,5.555,5.555,0,0,1-1.548-3.85Zm3.456.215a4.128,4.128,0,0,0,.482,2.256,1.606,1.606,0,0,0,1.425.718q1.846,0,1.887-2.84V14.35q0-2.984-1.907-2.984-1.733,0-1.876,2.574Zm13.566-.195a6.777,6.777,0,0,1,1.138-4.153A3.746,3.746,0,0,1,151.007,8.7a3.186,3.186,0,0,1,2.5,1.169V4.25h3.466V20h-3.107l-.174-1.189a3.272,3.272,0,0,1-2.707,1.395,3.74,3.74,0,0,1-3.138-1.518A6.992,6.992,0,0,1,146.69,14.371Zm3.456.215q0,2.953,1.723,2.953a1.7,1.7,0,0,0,1.641-.964V12.351a1.655,1.655,0,0,0-1.62-.984q-1.6,0-1.733,2.584Zm14.161,5.619a5.7,5.7,0,0,1-4.132-1.523,5.258,5.258,0,0,1-1.579-3.963v-.287a6.814,6.814,0,0,1,.631-3,4.614,4.614,0,0,1,1.841-2.015,5.556,5.556,0,0,1,2.871-.713,4.8,4.8,0,0,1,3.691,1.451,5.7,5.7,0,0,1,1.354,4.045V15.54h-6.87a2.491,2.491,0,0,0,.81,1.466,2.41,2.41,0,0,0,1.62.533,3.106,3.106,0,0,0,2.563-1.148l1.579,1.866a4.414,4.414,0,0,1-1.83,1.42A6.185,6.185,0,0,1,164.306,20.205Zm-.39-8.839q-1.518,0-1.8,2.01H165.6v-.267a1.712,1.712,0,0,0-.42-1.287A1.673,1.673,0,0,0,163.917,11.366ZM35.7,39.945a5.452,5.452,0,0,1-.841,2.753A5.075,5.075,0,0,1,32.7,44.549a7.347,7.347,0,0,1-3.174.656,5.863,5.863,0,0,1-4.635-1.917A7.917,7.917,0,0,1,23.2,37.874v-.738a9.037,9.037,0,0,1,.764-3.84,5.788,5.788,0,0,1,2.2-2.543,6.137,6.137,0,0,1,3.322-.9,6.435,6.435,0,0,1,4.368,1.43,5.652,5.652,0,0,1,1.876,3.943H32.139a2.674,2.674,0,0,0-.687-1.958,2.826,2.826,0,0,0-1.969-.595,2.15,2.15,0,0,0-1.969,1,6.458,6.458,0,0,0-.656,3.209v1.056a7.146,7.146,0,0,0,.6,3.415,2.2,2.2,0,0,0,2.066,1.025,2.764,2.764,0,0,0,1.9-.584,2.481,2.481,0,0,0,.7-1.856ZM36.8,39.35a6.548,6.548,0,0,1,.646-2.958A4.62,4.62,0,0,1,39.306,34.4a5.59,5.59,0,0,1,2.84-.7,5.1,5.1,0,0,1,3.927,1.543,5.922,5.922,0,0,1,1.436,4.2v.123a5.746,5.746,0,0,1-1.441,4.117,5.115,5.115,0,0,1-3.9,1.523,5.173,5.173,0,0,1-3.8-1.42,5.555,5.555,0,0,1-1.548-3.85Zm3.456.215a4.128,4.128,0,0,0,.482,2.256,1.606,1.606,0,0,0,1.425.718q1.846,0,1.887-2.84V39.35q0-2.984-1.907-2.984-1.733,0-1.876,2.574ZM48.6,39.35a6.548,6.548,0,0,1,.646-2.958A4.62,4.62,0,0,1,51.1,34.4a5.59,5.59,0,0,1,2.84-.7,5.1,5.1,0,0,1,3.927,1.543,5.922,5.922,0,0,1,1.436,4.2v.123a5.746,5.746,0,0,1-1.441,4.117,5.115,5.115,0,0,1-3.9,1.523,5.173,5.173,0,0,1-3.8-1.42,5.555,5.555,0,0,1-1.548-3.85Zm3.456.215a4.128,4.128,0,0,0,.482,2.256,1.606,1.606,0,0,0,1.425.718q1.846,0,1.887-2.84V39.35q0-2.984-1.907-2.984-1.733,0-1.876,2.574Zm15.483-2.533L66.4,36.951a2.044,2.044,0,0,0-2.092,1.025V45H60.85V33.905h3.24l.113,1.425a2.676,2.676,0,0,1,2.43-1.63,3.37,3.37,0,0,1,.964.123Zm.615,2.338a6.777,6.777,0,0,1,1.138-4.153A3.746,3.746,0,0,1,72.467,33.7a3.186,3.186,0,0,1,2.5,1.169V29.25h3.466V45H75.328l-.174-1.189a3.272,3.272,0,0,1-2.707,1.395,3.74,3.74,0,0,1-3.138-1.518A6.992,6.992,0,0,1,68.15,39.371Zm3.456.215q0,2.953,1.723,2.953a1.7,1.7,0,0,0,1.641-.964V37.351a1.655,1.655,0,0,0-1.62-.984q-1.6,0-1.733,2.584ZM84.044,45H80.578V33.905h3.466ZM80.373,31.044a1.542,1.542,0,0,1,.533-1.21,2.267,2.267,0,0,1,2.769,0,1.639,1.639,0,0,1,0,2.42,2.267,2.267,0,0,1-2.769,0A1.542,1.542,0,0,1,80.373,31.044Zm8.972,2.861.113,1.3A3.762,3.762,0,0,1,92.626,33.7a3.165,3.165,0,0,1,2.589,1.036,4.93,4.93,0,0,1,.887,3.117V45H92.637V38a1.872,1.872,0,0,0-.338-1.236,1.565,1.565,0,0,0-1.23-.395,1.648,1.648,0,0,0-1.507.8V45H86.1V33.905ZM104.265,45a3.9,3.9,0,0,1-.328-.995,3.213,3.213,0,0,1-2.666,1.2,3.936,3.936,0,0,1-2.666-.948,3.019,3.019,0,0,1-1.1-2.384,3.1,3.1,0,0,1,1.333-2.728,6.791,6.791,0,0,1,3.876-.923h1.066v-.587q0-1.535-1.323-1.535a1.081,1.081,0,0,0-1.23,1.216H97.774A3.1,3.1,0,0,1,99.143,34.7a5.753,5.753,0,0,1,3.491-1,5.044,5.044,0,0,1,3.353,1.036,3.6,3.6,0,0,1,1.261,2.84v4.912a5.03,5.03,0,0,0,.472,2.338V45ZM102.1,42.744a1.928,1.928,0,0,0,1.072-.277,1.735,1.735,0,0,0,.61-.625V40.068h-1q-1.8,0-1.8,1.62a.989.989,0,0,0,.318.764A1.15,1.15,0,0,0,102.1,42.744Zm11.751-.205a1.537,1.537,0,0,0,1.128-.395,1.448,1.448,0,0,0,.39-1.1h3.24a3.836,3.836,0,0,1-1.307,2.994,4.863,4.863,0,0,1-3.368,1.169,4.924,4.924,0,0,1-3.814-1.518,5.979,5.979,0,0,1-1.395-4.2V39.34a6.758,6.758,0,0,1,.62-2.969,4.517,4.517,0,0,1,1.789-1.979A5.335,5.335,0,0,1,113.9,33.7a4.8,4.8,0,0,1,3.435,1.2,4.255,4.255,0,0,1,1.271,3.25h-3.24a1.9,1.9,0,0,0-.42-1.323,1.451,1.451,0,0,0-1.128-.461q-1.343,0-1.569,1.712a12.083,12.083,0,0,0-.072,1.5,4.746,4.746,0,0,0,.4,2.317A1.384,1.384,0,0,0,113.852,42.539ZM123.716,45H120.25V33.905h3.466Zm-3.671-13.956a1.542,1.542,0,0,1,.533-1.21,2.267,2.267,0,0,1,2.769,0,1.639,1.639,0,0,1,0,2.42,2.267,2.267,0,0,1-2.769,0A1.542,1.542,0,0,1,120.045,31.044Zm5.363,8.306a6.548,6.548,0,0,1,.646-2.958A4.62,4.62,0,0,1,127.91,34.4a5.59,5.59,0,0,1,2.84-.7,5.1,5.1,0,0,1,3.927,1.543,5.922,5.922,0,0,1,1.436,4.2v.123a5.746,5.746,0,0,1-1.441,4.117,5.115,5.115,0,0,1-3.9,1.523,5.173,5.173,0,0,1-3.8-1.42,5.555,5.555,0,0,1-1.548-3.85Zm3.456.215a4.128,4.128,0,0,0,.482,2.256,1.606,1.606,0,0,0,1.425.718q1.846,0,1.887-2.84V39.35q0-2.984-1.907-2.984-1.733,0-1.876,2.574Zm2.358-10.315h3.65l-2.851,3.22-2.82-.005Zm9.587,4.655.113,1.3a3.762,3.762,0,0,1,3.168-1.507,3.165,3.165,0,0,1,2.589,1.036,4.93,4.93,0,0,1,.887,3.117V45H144.1V38a1.872,1.872,0,0,0-.338-1.236,1.565,1.565,0,0,0-1.23-.395,1.648,1.648,0,0,0-1.507.8V45h-3.456V33.905Z" transform="translate(1039 3312)" fill="#f6f6f6"/>
    <path id="Trazado_604824" data-name="Trazado 604824" d="M17.742,20H14.164L8.873,10.71V20h-3.6V5.07h3.6l5.281,9.29V5.07h3.589ZM23.5,20H20.039V8.905H23.5ZM19.834,6.044a1.542,1.542,0,0,1,.533-1.21,2.267,2.267,0,0,1,2.769,0,1.542,1.542,0,0,1,.533,1.21,1.542,1.542,0,0,1-.533,1.21,2.267,2.267,0,0,1-2.769,0A1.542,1.542,0,0,1,19.834,6.044Zm10.223,9.844,1.753-6.983h3.64L31.831,20H28.3L24.684,8.905h3.65Zm11.659,4.317a5.7,5.7,0,0,1-4.132-1.523A5.258,5.258,0,0,1,36,14.719v-.287a6.814,6.814,0,0,1,.631-3,4.614,4.614,0,0,1,1.841-2.015A5.556,5.556,0,0,1,41.347,8.7a4.8,4.8,0,0,1,3.691,1.451A5.7,5.7,0,0,1,46.392,14.2V15.54h-6.87a2.491,2.491,0,0,0,.81,1.466,2.41,2.41,0,0,0,1.62.533,3.106,3.106,0,0,0,2.563-1.148l1.579,1.866a4.414,4.414,0,0,1-1.83,1.42A6.185,6.185,0,0,1,41.716,20.205Zm-.39-8.839q-1.518,0-1.8,2.01h3.486v-.267a1.712,1.712,0,0,0-.42-1.287A1.673,1.673,0,0,0,41.326,11.366ZM51.426,20H47.96V4.25h3.466Zm20.159-7.157a8.8,8.8,0,0,1-.81,3.866,5.987,5.987,0,0,1-2.3,2.589,6.41,6.41,0,0,1-3.4.907,6.5,6.5,0,0,1-3.384-.877,5.977,5.977,0,0,1-2.3-2.507,8.551,8.551,0,0,1-.866-3.743v-.841a8.843,8.843,0,0,1,.8-3.871,5.972,5.972,0,0,1,2.307-2.589,6.83,6.83,0,0,1,6.8-.01A6.08,6.08,0,0,1,70.75,8.336a8.589,8.589,0,0,1,.836,3.82Zm-3.661-.625a6.278,6.278,0,0,0-.743-3.379,2.385,2.385,0,0,0-2.128-1.154q-2.707,0-2.861,4.061l-.01,1.1a6.457,6.457,0,0,0,.728,3.374A2.381,2.381,0,0,0,65.074,17.4a2.352,2.352,0,0,0,2.1-1.159,6.281,6.281,0,0,0,.749-3.333Zm15.658,2.317a6.691,6.691,0,0,1-1.164,4.127,3.731,3.731,0,0,1-3.143,1.543,3.2,3.2,0,0,1-2.512-1.118v5.178H73.308V8.905h3.23l.1,1.025A3.2,3.2,0,0,1,79.255,8.7a3.761,3.761,0,0,1,3.189,1.512,6.773,6.773,0,0,1,1.138,4.158Zm-3.456-.215q0-2.953-1.723-2.953a1.626,1.626,0,0,0-1.641.882v4.368a1.679,1.679,0,0,0,1.661.923q1.651,0,1.7-2.851Zm10.346,5.886a5.7,5.7,0,0,1-4.132-1.523,5.258,5.258,0,0,1-1.579-3.963v-.287a6.814,6.814,0,0,1,.631-3,4.614,4.614,0,0,1,1.841-2.015A5.556,5.556,0,0,1,90.1,8.7,4.8,4.8,0,0,1,93.8,10.151,5.7,5.7,0,0,1,95.149,14.2V15.54h-6.87a2.491,2.491,0,0,0,.81,1.466,2.41,2.41,0,0,0,1.62.533,3.106,3.106,0,0,0,2.563-1.148l1.579,1.866a4.414,4.414,0,0,1-1.83,1.42A6.185,6.185,0,0,1,90.473,20.205Zm-.39-8.839q-1.518,0-1.8,2.01h3.486v-.267a1.712,1.712,0,0,0-.42-1.287A1.673,1.673,0,0,0,90.083,11.366Zm13.166.667-1.138-.082a2.044,2.044,0,0,0-2.092,1.025V20H96.564V8.905H99.8l.113,1.425a2.676,2.676,0,0,1,2.43-1.63,3.37,3.37,0,0,1,.964.123ZM110.438,20a3.9,3.9,0,0,1-.328-.995,3.213,3.213,0,0,1-2.666,1.2,3.936,3.936,0,0,1-2.666-.948,3.019,3.019,0,0,1-1.1-2.384,3.1,3.1,0,0,1,1.333-2.728,6.791,6.791,0,0,1,3.876-.923h1.066v-.587q0-1.535-1.323-1.535a1.081,1.081,0,0,0-1.23,1.216h-3.456A3.1,3.1,0,0,1,105.316,9.7a5.753,5.753,0,0,1,3.491-1,5.044,5.044,0,0,1,3.353,1.036,3.6,3.6,0,0,1,1.261,2.84v4.912a5.03,5.03,0,0,0,.472,2.338V20Zm-2.164-2.256a1.928,1.928,0,0,0,1.072-.277,1.735,1.735,0,0,0,.61-.625V15.068h-1q-1.8,0-1.8,1.62a.989.989,0,0,0,.318.764A1.15,1.15,0,0,0,108.274,17.744Zm11.084-11.6V8.905h1.825v2.4h-1.825V16.38a1.3,1.3,0,0,0,.226.872,1.21,1.21,0,0,0,.892.246,5.069,5.069,0,0,0,.861-.062v2.471a6.377,6.377,0,0,1-1.948.3,3.62,3.62,0,0,1-2.635-.841,3.446,3.446,0,0,1-.851-2.553V11.3h-1.415v-2.4H115.9V6.147ZM126.188,20h-3.466V8.905h3.466ZM122.517,6.044a1.542,1.542,0,0,1,.533-1.21,2.267,2.267,0,0,1,2.769,0,1.542,1.542,0,0,1,.533,1.21,1.542,1.542,0,0,1-.533,1.21,2.267,2.267,0,0,1-2.769,0A1.542,1.542,0,0,1,122.517,6.044Zm10.223,9.844,1.753-6.983h3.64L134.514,20h-3.527l-3.62-11.095h3.65Zm5.834-1.538a6.548,6.548,0,0,1,.646-2.958A4.62,4.62,0,0,1,141.076,9.4a5.59,5.59,0,0,1,2.84-.7,5.1,5.1,0,0,1,3.927,1.543,5.922,5.922,0,0,1,1.436,4.2v.123a5.746,5.746,0,0,1-1.441,4.117,5.115,5.115,0,0,1-3.9,1.523,5.173,5.173,0,0,1-3.8-1.42,5.555,5.555,0,0,1-1.548-3.85Zm3.456.215a4.128,4.128,0,0,0,.482,2.256,1.606,1.606,0,0,0,1.425.718q1.846,0,1.887-2.84V14.35q0-2.984-1.907-2.984-1.733,0-1.876,2.574ZM155.6,14.35a6.548,6.548,0,0,1,.646-2.958A4.62,4.62,0,0,1,158.1,9.4a5.59,5.59,0,0,1,2.84-.7,5.1,5.1,0,0,1,3.927,1.543,5.922,5.922,0,0,1,1.436,4.2v.123a5.746,5.746,0,0,1-1.441,4.117,5.115,5.115,0,0,1-3.9,1.523,5.173,5.173,0,0,1-3.8-1.42,5.555,5.555,0,0,1-1.548-3.85Zm3.456.215a4.128,4.128,0,0,0,.482,2.256,1.606,1.606,0,0,0,1.425.718q1.846,0,1.887-2.84V14.35q0-2.984-1.907-2.984-1.733,0-1.876,2.574ZM49.924,38.663h-5.66v3.568h6.686V45H40.665V30.07H50.97v2.779H44.264V36h5.66Zm6.05-4.758V45.379a4.027,4.027,0,0,1-1.128,3.035,4.333,4.333,0,0,1-3.117,1.066,7.359,7.359,0,0,1-1.63-.174V46.692a6.611,6.611,0,0,0,.974.092,1.264,1.264,0,0,0,1.436-1.425V33.905Zm-3.722-2.861a1.542,1.542,0,0,1,.533-1.21,2.267,2.267,0,0,1,2.769,0,1.639,1.639,0,0,1,0,2.42,2.267,2.267,0,0,1-2.769,0A1.542,1.542,0,0,1,52.252,31.044ZM63.3,45.205a5.7,5.7,0,0,1-4.132-1.523,5.258,5.258,0,0,1-1.579-3.963v-.287a6.814,6.814,0,0,1,.631-3,4.614,4.614,0,0,1,1.841-2.015,5.556,5.556,0,0,1,2.871-.713,4.8,4.8,0,0,1,3.691,1.451A5.7,5.7,0,0,1,67.971,39.2V40.54H61.1a2.491,2.491,0,0,0,.81,1.466,2.41,2.41,0,0,0,1.62.533,3.106,3.106,0,0,0,2.563-1.148l1.579,1.866a4.414,4.414,0,0,1-1.83,1.42A6.185,6.185,0,0,1,63.3,45.205Zm-.39-8.839q-1.518,0-1.8,2.01h3.486v-.267a1.712,1.712,0,0,0-.42-1.287A1.673,1.673,0,0,0,62.906,36.366Zm11.146,6.173a1.537,1.537,0,0,0,1.128-.395,1.448,1.448,0,0,0,.39-1.1h3.24A3.836,3.836,0,0,1,77.5,44.036a4.863,4.863,0,0,1-3.368,1.169,4.924,4.924,0,0,1-3.814-1.518,5.979,5.979,0,0,1-1.395-4.2V39.34a6.758,6.758,0,0,1,.62-2.969,4.517,4.517,0,0,1,1.789-1.979A5.335,5.335,0,0,1,74.1,33.7a4.8,4.8,0,0,1,3.435,1.2,4.255,4.255,0,0,1,1.271,3.25h-3.24a1.9,1.9,0,0,0-.42-1.323,1.451,1.451,0,0,0-1.128-.461q-1.343,0-1.569,1.712a12.083,12.083,0,0,0-.072,1.5,4.746,4.746,0,0,0,.4,2.317A1.384,1.384,0,0,0,74.052,42.539ZM86.879,43.8a3.563,3.563,0,0,1-2.963,1.4,3.494,3.494,0,0,1-2.763-1.061,4.463,4.463,0,0,1-.938-3.051V33.905H83.67v7.208a1.242,1.242,0,0,0,1.384,1.425,1.806,1.806,0,0,0,1.692-.851V33.905h3.476V45h-3.24ZM96.8,42.539a1.537,1.537,0,0,0,1.128-.395,1.448,1.448,0,0,0,.39-1.1h3.24a3.836,3.836,0,0,1-1.307,2.994,4.863,4.863,0,0,1-3.368,1.169,4.924,4.924,0,0,1-3.814-1.518,5.979,5.979,0,0,1-1.395-4.2V39.34a6.758,6.758,0,0,1,.62-2.969,4.517,4.517,0,0,1,1.789-1.979,5.335,5.335,0,0,1,2.769-.692,4.8,4.8,0,0,1,3.435,1.2,4.255,4.255,0,0,1,1.271,3.25h-3.24a1.9,1.9,0,0,0-.42-1.323,1.451,1.451,0,0,0-1.128-.461q-1.343,0-1.569,1.712a12.083,12.083,0,0,0-.072,1.5,4.746,4.746,0,0,0,.4,2.317A1.384,1.384,0,0,0,96.8,42.539ZM106.669,45H103.2V33.905h3.466ZM103,31.044a1.542,1.542,0,0,1,.533-1.21,2.267,2.267,0,0,1,2.769,0,1.639,1.639,0,0,1,0,2.42,2.267,2.267,0,0,1-2.769,0A1.542,1.542,0,0,1,103,31.044Zm5.363,8.306a6.548,6.548,0,0,1,.646-2.958,4.62,4.62,0,0,1,1.856-1.994,5.59,5.59,0,0,1,2.84-.7,5.1,5.1,0,0,1,3.927,1.543,5.922,5.922,0,0,1,1.436,4.2v.123a5.746,5.746,0,0,1-1.441,4.117,5.115,5.115,0,0,1-3.9,1.523,5.173,5.173,0,0,1-3.8-1.42,5.555,5.555,0,0,1-1.548-3.85Zm3.456.215a4.128,4.128,0,0,0,.482,2.256,1.606,1.606,0,0,0,1.425.718q1.846,0,1.887-2.84V39.35q0-2.984-1.907-2.984-1.733,0-1.876,2.574Zm2.358-10.315h3.65l-2.851,3.22-2.82-.005Zm9.587,4.655.113,1.3a3.762,3.762,0,0,1,3.168-1.507,3.165,3.165,0,0,1,2.589,1.036,4.93,4.93,0,0,1,.887,3.117V45h-3.466V38a1.872,1.872,0,0,0-.338-1.236,1.565,1.565,0,0,0-1.23-.395,1.648,1.648,0,0,0-1.507.8V45h-3.456V33.905Z" transform="translate(1039 3485)" fill="#f6f6f6"/>
  </g>
</svg>
