<svg id="beneficios" xmlns="http://www.w3.org/2000/svg" width="71.464" height="71.465" viewBox="0 0 71.464 71.465">
  <path id="Trazado_604254" data-name="Trazado 604254" d="M71.464,53.333,69.975,65.69,67,62.713l-26.8,26.8L29.925,79.388,4.913,104.4,0,99.487,29.925,69.561,40.2,79.834,62.084,57.8l-2.978-2.978Z" transform="translate(0 -45.889)" fill="#14254e"/>
  <path id="Trazado_604255" data-name="Trazado 604255" d="M437.333,179.971v41.092h10.422V178.333l-4.466-4.466Z" transform="translate(-376.291 -149.599)" fill="#a52ae6"/>
  <path id="Trazado_604256" data-name="Trazado 604256" d="M309.333,304.581h10.422V270.933l-10.422,10.422Z" transform="translate(-266.157 -233.117)" fill="#60cb28"/>
  <path id="Trazado_604257" data-name="Trazado 604257" d="M181.333,299.015v25.757h10.422V300.206l-5.806-5.806Z" transform="translate(-156.023 -253.308)" fill="#dee4f0"/>
  <path id="Trazado_604258" data-name="Trazado 604258" d="M53.333,399.113H63.755V380.8L53.333,391.222Z" transform="translate(-45.889 -327.649)" fill="#ffe126"/>
  <path id="Trazado_604259" data-name="Trazado 604259" d="M191.434,9.082l2.084-1.638-1.042-2.531-2.68.149a5.684,5.684,0,0,0-1.34-1.34l.3-2.68L186.372,0l-1.787,2.084a3.628,3.628,0,0,0-1.787,0L181.161,0,178.63,1.042l.3,2.68a5.684,5.684,0,0,0-1.34,1.34l-2.68-.3L173.866,7.3l2.084,1.638a3.628,3.628,0,0,0,0,1.787l-2.084,1.638,1.042,2.531,2.68-.3a5.684,5.684,0,0,0,1.34,1.34l-.3,2.68,2.531,1.042,1.787-2.084a3.628,3.628,0,0,0,1.787,0l1.638,2.084L188.9,18.61l-.3-2.68a5.684,5.684,0,0,0,1.34-1.34l2.68.3,1.042-2.531-2.084-1.787C191.434,10.273,191.583,9.677,191.434,9.082ZM182.5,12.655a2.678,2.678,0,0,1-1.489-3.722,2.678,2.678,0,0,1,3.722-1.489,2.678,2.678,0,0,1,1.489,3.722A2.915,2.915,0,0,1,182.5,12.655Z" transform="translate(-149.598)" fill="#7e10b8"/>
  <path id="Trazado_604260" data-name="Trazado 604260" d="M21.886,45.374l1.638-3.127-2.531-2.382-3.127,1.787-2.233-.893-.893-3.424H11.166l-.893,3.573A5.875,5.875,0,0,0,8.04,41.8L4.913,40.163,2.531,42.694,4.318,45.82l-.893,2.233L0,48.947V52.52l3.424.893c.3.744.6,1.489.893,2.084L2.68,58.624l2.531,2.382L8.337,59.22l2.233.893,1.042,3.424h3.573l.893-3.424c.744-.3,1.489-.6,2.084-.893l3.127,1.638,2.382-2.531L21.886,55.2l.893-2.233L26.2,51.924V48.351l-3.424-.893A21.888,21.888,0,0,0,21.886,45.374Zm-8.635,9.082a3.871,3.871,0,1,1,3.871-3.871A4.288,4.288,0,0,1,13.251,54.455Z" transform="translate(0 -32.123)" fill="#8ad7f8"/>
  <path id="Trazado_604261" data-name="Trazado 604261" d="M213.369,33.571a5.337,5.337,0,1,0,2.829,7A5.357,5.357,0,0,0,213.369,33.571Zm.6,5.955a2.678,2.678,0,0,1-3.722,1.489,2.719,2.719,0,0,1-1.489-3.722,2.678,2.678,0,0,1,3.722-1.489A2.915,2.915,0,0,1,213.964,39.526Z" transform="translate(-177.19 -28.509)" fill="#931fd1"/>
  <path id="Trazado_604262" data-name="Trazado 604262" d="M53.3,84.267a6.609,6.609,0,0,0-6.4,6.7,6.553,6.553,0,1,0,6.4-6.7Zm.3,10.571a3.844,3.844,0,0,1-3.871-3.871A3.755,3.755,0,0,1,53.6,87.1a3.844,3.844,0,0,1,3.871,3.871A3.941,3.941,0,0,1,53.6,94.838Z" transform="translate(-40.349 -72.505)" fill="#55c0eb"/>
</svg>
