<svg id="bienes" xmlns="http://www.w3.org/2000/svg" width="83.719" height="83.719" viewBox="0 0 83.719 83.719">
  <path id="Trazado_599844" data-name="Trazado 599844" d="M83.719,41.859A41.859,41.859,0,1,1,41.859,0,41.859,41.859,0,0,1,83.719,41.859Z" fill="#bef0dd"/>
  <path id="Trazado_599845" data-name="Trazado 599845" d="M75.622,255.207v10.138a.818.818,0,0,1-.818.818H56.818a.818.818,0,0,1-.818-.818V255.207a.818.818,0,0,1,.818-.818H74.8A.818.818,0,0,1,75.622,255.207ZM74.8,240H56.818a.818.818,0,0,0-.818.818v10.138a.818.818,0,0,0,.818.818H74.8a.818.818,0,0,0,.818-.818V240.818A.818.818,0,0,0,74.8,240Zm22.238,14.389H79.055a.818.818,0,0,0-.818.818v10.138a.818.818,0,0,0,.818.818H97.042a.818.818,0,0,0,.818-.818V255.207A.818.818,0,0,0,97.042,254.389Zm0-14.389H79.055a.818.818,0,0,0-.818.818v10.138a.818.818,0,0,0,.818.818H97.042a.818.818,0,0,0,.818-.818V240.818A.818.818,0,0,0,97.042,240Zm23.546,14.389H102.6a.818.818,0,0,0-.818.818v10.138a.818.818,0,0,0,.818.818h17.986a.818.818,0,0,0,.818-.818V255.207A.818.818,0,0,0,120.588,254.389Zm0-14.389H102.6a.818.818,0,0,0-.818.818v10.138a.818.818,0,0,0,.818.818h17.986a.818.818,0,0,0,.818-.818V240.818A.818.818,0,0,0,120.588,240Z" transform="translate(-46.843 -200.757)" fill="#5ad1a5" opacity="0.58"/>
  <path id="Trazado_599846" data-name="Trazado 599846" d="M123.72,420a41.856,41.856,0,0,1-64.281,0Z" transform="translate(-49.72 -351.324)" fill="#f2c230"/>
  <path id="Trazado_599847" data-name="Trazado 599847" d="M281.162,20.818V42.074a.818.818,0,0,1-.818.818H255.818a.818.818,0,0,1-.818-.818V20.818a.818.818,0,0,1,.818-.818h24.527A.818.818,0,0,1,281.162,20.818Z" transform="translate(-213.304 -16.73)" fill="#d29650"/>
  <path id="Trazado_599848" data-name="Trazado 599848" d="M235.878,168.4,195,174.527V150h40.878Z" transform="translate(-163.115 -125.473)" fill="#aa6432"/>
  <path id="Trazado_599849" data-name="Trazado 599849" d="M262.358,43.27H255V40h7.358a.818.818,0,0,1,.818.818v1.635A.818.818,0,0,1,262.358,43.27Z" transform="translate(-213.304 -33.459)" fill="#f7d139"/>
  <path id="Trazado_599850" data-name="Trazado 599850" d="M128.571,439.135a1.635,1.635,0,0,1-1.635,1.635H110.584a1.635,1.635,0,0,1,0-3.27h16.351A1.635,1.635,0,0,1,128.571,439.135Zm-32.7-1.635H75.513a42.1,42.1,0,0,0,3.7,3.27h16.66a1.635,1.635,0,0,0,0-3.27Z" transform="translate(-63.166 -365.963)" fill="#e3a600"/>
  <path id="Trazado_599851" data-name="Trazado 599851" d="M210.534,189.811H195V180h15.534a.818.818,0,0,1,.818.818v8.176A.818.818,0,0,1,210.534,189.811Z" transform="translate(-163.115 -150.568)" fill="#f63"/>
  <path id="Trazado_599852" data-name="Trazado 599852" d="M100.543,44.041H42.628l-1.325-5.3a1.634,1.634,0,0,0-1.728-1.231c-.05,0-.1-.008-.153-.008H26.6a1.635,1.635,0,0,0,0,3.27H38.44l1.314,5.255,6.433,33.934L43.07,89.307a1.635,1.635,0,1,0,3.1,1.034l2.888-8.665,51.689-6.581a1.635,1.635,0,0,0,1.429-1.622V63.682h0V45.676A1.635,1.635,0,0,0,100.543,44.041Zm-57.218,3.27H56.231l.822,7.809-12.179.358Zm2.165,11.421,11.905-.35.786,7.467L47.031,66.856Zm3.721,19.629-1.569-8.277L58.524,69.1l.822,7.814c.005.052.013.1.023.153Zm10.307-31.05h12.9c0,.032,0,.064,0,.1l.426,7.249-12.517.368Zm1.155,10.975,12.366-.364.385,6.549L61.439,65.554ZM62.6,76.655c0-.028,0-.055,0-.083l-.817-7.766,11.836-1.07.439,7.46ZM75.692,47.311H87.135v6.925l-11.017.324Zm.619,10.515,10.825-.318v5.725l-10.451.944Zm1,16.958-.432-7.341,10.259-.927v6.957c0,.02,0,.039,0,.059Zm21.6-2.75-8.5,1.083v-6.9l8.5-.768Zm0-9.865-8.5.768V57.411l8.5-.25Zm0-8.279-8.5.25V47.311h8.5Z" transform="translate(-20.912 -31.368)" fill="#414669"/>
  <path id="Trazado_599853" data-name="Trazado 599853" d="M87.4,81.507v3.27a.818.818,0,0,1-.818.818H37.53a.818.818,0,0,1-.818-.818v-3.27a.818.818,0,0,1,.818-.818H86.584A.818.818,0,0,1,87.4,81.507ZM27.515,30H20.566A3.066,3.066,0,0,0,17.5,33.066h0a3.066,3.066,0,0,0,3.066,3.066h6.949a3.066,3.066,0,0,0,3.066-3.066h0A3.066,3.066,0,0,0,27.515,30Z" transform="translate(-14.639 -25.095)" fill="#3185af"/>
  <path id="Trazado_599854" data-name="Trazado 599854" d="M220.973,338.318v11.446a.818.818,0,0,1-.818.818h-3.27a.818.818,0,0,1-.818-.818V338.318a.818.818,0,0,1,.818-.818h3.27A.818.818,0,0,1,220.973,338.318Zm-31.885-.818h-3.27a.818.818,0,0,0-.818.818v11.446a.818.818,0,0,0,.818.818h3.27a.818.818,0,0,0,.818-.818V338.318A.818.818,0,0,0,189.088,337.5Z" transform="translate(-154.75 -282.314)" fill="#104966"/>
  <path id="Trazado_599855" data-name="Trazado 599855" d="M207.513,393.223a5.723,5.723,0,1,1-5.723-5.723A5.723,5.723,0,0,1,207.513,393.223Zm-36.79-5.723a5.723,5.723,0,1,0,5.723,5.723A5.723,5.723,0,0,0,170.723,387.5Z" transform="translate(-138.02 -324.139)" fill="#501e0f"/>
  <path id="Trazado_599856" data-name="Trazado 599856" d="M217.608,405.77a3.27,3.27,0,1,1-3.27-3.27A3.27,3.27,0,0,1,217.608,405.77ZM183.27,402.5a3.27,3.27,0,1,0,3.27,3.27A3.27,3.27,0,0,0,183.27,402.5Z" transform="translate(-150.568 -336.686)" fill="#b9783d"/>
</svg>
