<svg xmlns="http://www.w3.org/2000/svg" width="70.341" height="73.498" viewBox="0 0 70.341 73.498">
  <g id="edificios" transform="translate(-10.998)">
    <path id="Trazado_601276" data-name="Trazado 601276" d="M58.257,80.97l18-5.587A35.174,35.174,0,1,0,20.28,80.97Z" transform="translate(0 -18.838)" fill="#4fabf7"/>
    <path id="Trazado_601277" data-name="Trazado 601277" d="M306.268,29.8a2.371,2.371,0,0,1,3-2.121.633.633,0,0,0,.679-.219,4.3,4.3,0,0,1,7.488,1.305.627.627,0,0,0,.676.421,2.613,2.613,0,0,1,2.518,1.235.631.631,0,0,0,.849.216,2,2,0,1,1,.965,3.747H305.595a2.038,2.038,0,0,1-2.046-2.034,2,2,0,0,1,2.081-1.962A.62.62,0,0,0,306.268,29.8Z" transform="translate(-250.554 -22.086)" fill="#73c3f9"/>
    <path id="Trazado_601278" data-name="Trazado 601278" d="M228.752,81.273A3.658,3.658,0,0,1,233.38,78a.976.976,0,0,0,1.047-.339,6.628,6.628,0,0,1,11.552,2.014.967.967,0,0,0,1.043.649,4.03,4.03,0,0,1,3.884,1.9.974.974,0,0,0,1.31.334,3.082,3.082,0,1,1,1.489,5.78H227.712a3.145,3.145,0,0,1-3.157-3.137,3.088,3.088,0,0,1,3.211-3.026.958.958,0,0,0,.986-.907Z" transform="translate(-182.901 -64.307)" fill="#9bd8f9"/>
    <path id="Trazado_601279" data-name="Trazado 601279" d="M38.61,185.9a3.081,3.081,0,0,0-4.552-2.345.974.974,0,0,1-1.31-.334,4.03,4.03,0,0,0-3.884-1.9.967.967,0,0,1-1.043-.649,6.628,6.628,0,0,0-11.552-2.014.977.977,0,0,1-1.047.339,3.578,3.578,0,0,0-2.852.384A35.187,35.187,0,0,0,11,189.126c0,.069,0,.137,0,.205H35.548A3.083,3.083,0,0,0,38.61,185.9Z" transform="translate(-0.001 -150.798)" fill="#73c3f9"/>
    <path id="Trazado_601280" data-name="Trazado 601280" d="M319.872,174.926h-.219v15.886a35.334,35.334,0,0,0,13.772-13.065V152.328l-22.278-10.6v29.693h8.726a1.755,1.755,0,1,1,0,3.51Z" transform="translate(-257.061 -121.379)" fill="#3c58a0"/>
    <path id="Trazado_601281" data-name="Trazado 601281" d="M311.146,171.416h8.732v-.22a2.452,2.452,0,0,1-1.647-2.446V149.012a1.654,1.654,0,0,1,1.777-1.858l-.216-1.316-8.646-4.115v29.693Z" transform="translate(-257.061 -121.379)" fill="#2a428c"/>
    <path id="Trazado_601282" data-name="Trazado 601282" d="M74.728,263.209a35.1,35.1,0,0,0,21.345,11.2V254.842h8.261V234.948H74.728Z" transform="translate(-54.581 -201.221)" fill="#dae2fe"/>
    <path id="Trazado_601283" data-name="Trazado 601283" d="M82.484,240.456a5.508,5.508,0,0,1,5.508-5.508H74.728v28.261a35.325,35.325,0,0,0,7.756,6.4Z" transform="translate(-54.581 -201.221)" fill="#bec8f7"/>
    <path id="Trazado_601284" data-name="Trazado 601284" d="M97.843,121.263h22.97v16.466H97.843Z" transform="translate(-74.378 -103.856)" fill="#dae2fe"/>
    <path id="Trazado_601285" data-name="Trazado 601285" d="M104.02,133.836v-8.68a3.893,3.893,0,0,1,3.893-3.893H97.843v16.466h10.07A3.893,3.893,0,0,1,104.02,133.836Z" transform="translate(-74.378 -103.856)" fill="#bec8f7"/>
    <g id="Grupo_1013462" data-name="Grupo 1013462" transform="translate(33.852)">
      <path id="Trazado_601286" data-name="Trazado 601286" d="M171.3,6.723a1.1,1.1,0,0,1-1.1-1.1V1.1a1.1,1.1,0,1,1,2.194,0V5.626A1.1,1.1,0,0,1,171.3,6.723Z" transform="translate(-170.206)" fill="#dae2fe"/>
    </g>
    <g id="Grupo_1013463" data-name="Grupo 1013463" transform="translate(23.437 37.527)">
      <path id="Trazado_601287" data-name="Trazado 601287" d="M98.747,261.422a1.1,1.1,0,0,0-1.1,1.1v26.538q1.062.9,2.194,1.717V262.519A1.1,1.1,0,0,0,98.747,261.422Z" transform="translate(-97.65 -261.422)" fill="#a8b7ef"/>
      <path id="Trazado_601288" data-name="Trazado 601288" d="M127.769,261.422a1.1,1.1,0,0,0-1.1,1.1V292.1q1.072.668,2.194,1.259V262.519A1.1,1.1,0,0,0,127.769,261.422Z" transform="translate(-122.506 -261.422)" fill="#a8b7ef"/>
      <path id="Trazado_601289" data-name="Trazado 601289" d="M156.792,261.422a1.1,1.1,0,0,0-1.1,1.1v31.8q1.078.485,2.194.9v-32.7A1.1,1.1,0,0,0,156.792,261.422Z" transform="translate(-147.363 -261.422)" fill="#a8b7ef"/>
      <path id="Trazado_601290" data-name="Trazado 601290" d="M185.814,261.422a1.1,1.1,0,0,0-1.1,1.1v33.36q1.083.329,2.194.59v-33.95A1.1,1.1,0,0,0,185.814,261.422Z" transform="translate(-172.218 -261.422)" fill="#a8b7ef"/>
    </g>
    <g id="Grupo_1013464" data-name="Grupo 1013464" transform="translate(40.102 37.527)">
      <path id="Trazado_601291" data-name="Trazado 601291" d="M214.835,272.4a1.1,1.1,0,0,1-1.1-1.1v-8.78a1.1,1.1,0,0,1,2.194,0v8.78A1.1,1.1,0,0,1,214.835,272.4Z" transform="translate(-213.738 -261.422)" fill="#a8b7ef"/>
    </g>
    <g id="Grupo_1013465" data-name="Grupo 1013465" transform="translate(27.603 20.311)">
      <path id="Trazado_601292" data-name="Trazado 601292" d="M127.77,152.421a1.1,1.1,0,0,1-1.1-1.1v-8.735a1.1,1.1,0,1,1,2.194,0v8.735A1.1,1.1,0,0,1,127.77,152.421Z" transform="translate(-126.673 -141.492)" fill="#a8b7ef"/>
    </g>
    <g id="Grupo_1013466" data-name="Grupo 1013466" transform="translate(31.769 20.311)">
      <path id="Trazado_601293" data-name="Trazado 601293" d="M156.792,152.421a1.1,1.1,0,0,1-1.1-1.1v-8.735a1.1,1.1,0,1,1,2.194,0v8.735A1.1,1.1,0,0,1,156.792,152.421Z" transform="translate(-155.695 -141.492)" fill="#a8b7ef"/>
    </g>
    <g id="Grupo_1013467" data-name="Grupo 1013467" transform="translate(35.936 20.311)">
      <path id="Trazado_601294" data-name="Trazado 601294" d="M185.814,152.421a1.1,1.1,0,0,1-1.1-1.1v-8.735a1.1,1.1,0,1,1,2.194,0v8.735A1.1,1.1,0,0,1,185.814,152.421Z" transform="translate(-184.717 -141.492)" fill="#a8b7ef"/>
    </g>
    <g id="Grupo_1013468" data-name="Grupo 1013468" transform="translate(40.102 20.311)">
      <path id="Trazado_601295" data-name="Trazado 601295" d="M214.836,152.421a1.1,1.1,0,0,1-1.1-1.1v-8.735a1.1,1.1,0,0,1,2.194,0v8.735A1.1,1.1,0,0,1,214.836,152.421Z" transform="translate(-213.739 -141.492)" fill="#a8b7ef"/>
    </g>
    <g id="Grupo_1013469" data-name="Grupo 1013469" transform="translate(40.102 20.311)">
      <path id="Trazado_601296" data-name="Trazado 601296" d="M214.835,152.421a1.1,1.1,0,0,1-1.1-1.1v-8.735a1.1,1.1,0,0,1,2.194,0v8.735A1.1,1.1,0,0,1,214.835,152.421Z" transform="translate(-213.738 -141.492)" fill="#a8b7ef"/>
    </g>
    <g id="Grupo_1013470" data-name="Grupo 1013470" transform="translate(44.268 37.527)">
      <path id="Trazado_601297" data-name="Trazado 601297" d="M243.858,272.4a1.1,1.1,0,0,1-1.1-1.1v-8.78a1.1,1.1,0,0,1,2.194,0v8.78A1.1,1.1,0,0,1,243.858,272.4Z" transform="translate(-242.761 -261.422)" fill="#a8b7ef"/>
    </g>
    <path id="Trazado_601298" data-name="Trazado 601298" d="M135.937,44.867H147.97V55.834H135.937Z" transform="translate(-107.004 -38.426)" fill="#dae2fe"/>
    <path id="Trazado_601299" data-name="Trazado 601299" d="M140.965,52.515V48.186a3.319,3.319,0,0,1,3.319-3.319h-8.347V55.834h8.347A3.319,3.319,0,0,1,140.965,52.515Z" transform="translate(-107.004 -38.426)" fill="#bec8f7"/>
    <path id="Trazado_601300" data-name="Trazado 601300" d="M221.381,373.53v19.526a35.459,35.459,0,0,0,4.97.351A35.012,35.012,0,0,0,243,389.224V373.53Z" transform="translate(-180.182 -319.909)" fill="#ffc839"/>
    <path id="Trazado_601301" data-name="Trazado 601301" d="M229.158,388.448v-9.96a4.959,4.959,0,0,1,4.959-4.959H221.381v19.526a35.416,35.416,0,0,0,10.642-.1A4.968,4.968,0,0,1,229.158,388.448Z" transform="translate(-180.182 -319.909)" fill="#ffb332"/>
    <g id="Grupo_1013471" data-name="Grupo 1013471" transform="translate(57.605 34.441)">
      <path id="Trazado_601302" data-name="Trazado 601302" d="M349.664,242.116h-12.9a1.1,1.1,0,0,1,0-2.194h12.9a1.1,1.1,0,0,1,0,2.194Z" transform="translate(-335.67 -239.922)" fill="#73c3f9"/>
    </g>
    <g id="Grupo_1013472" data-name="Grupo 1013472" transform="translate(57.605 39.063)">
      <path id="Trazado_601303" data-name="Trazado 601303" d="M349.664,274.315h-12.9a1.1,1.1,0,0,1,0-2.194h12.9a1.1,1.1,0,0,1,0,2.194Z" transform="translate(-335.67 -272.121)" fill="#73c3f9"/>
    </g>
    <g id="Grupo_1013473" data-name="Grupo 1013473" transform="translate(57.605 43.686)">
      <path id="Trazado_601304" data-name="Trazado 601304" d="M349.664,306.515h-12.9a1.1,1.1,0,0,1,0-2.194h12.9a1.1,1.1,0,0,1,0,2.194Z" transform="translate(-335.67 -304.321)" fill="#73c3f9"/>
    </g>
    <g id="Grupo_1013474" data-name="Grupo 1013474" transform="translate(66.254 48.308)">
      <path id="Trazado_601305" data-name="Trazado 601305" d="M401.269,338.714h-4.248a1.1,1.1,0,0,1,0-2.194h4.248a1.1,1.1,0,1,1,0,2.194Z" transform="translate(-395.924 -336.52)" fill="#73c3f9"/>
    </g>
    <g id="Grupo_1013475" data-name="Grupo 1013475" transform="translate(66.254 52.93)">
      <path id="Trazado_601306" data-name="Trazado 601306" d="M401.269,370.913h-4.248a1.1,1.1,0,0,1,0-2.194h4.248a1.1,1.1,0,1,1,0,2.194Z" transform="translate(-395.924 -368.719)" fill="#73c3f9"/>
    </g>
    <g id="Grupo_1013476" data-name="Grupo 1013476" transform="translate(65.377 57.552)">
      <path id="Trazado_601307" data-name="Trazado 601307" d="M396.033,403.113h-5.125a1.1,1.1,0,1,1,0-2.194h5.125a1.1,1.1,0,1,1,0,2.194Z" transform="translate(-389.811 -400.919)" fill="#73c3f9"/>
    </g>
    <path id="Trazado_601308" data-name="Trazado 601308" d="M396.033,433.118h-5.125a1.1,1.1,0,0,0,0,2.194h3.334q1.122-1.019,2.151-2.132A1.092,1.092,0,0,0,396.033,433.118Z" transform="translate(-324.433 -370.944)" fill="#73c3f9"/>
    <g id="Grupo_1013477" data-name="Grupo 1013477" transform="translate(52.738 19.123)">
      <path id="Trazado_601309" data-name="Trazado 601309" d="M325.526,146.2a1.091,1.091,0,0,1-.471-.107l-22.661-10.8a1.1,1.1,0,1,1,.944-1.981L326,144.116a1.1,1.1,0,0,1-.473,2.088Z" transform="translate(-301.769 -133.213)" fill="#4f71b6"/>
    </g>
    <g id="Grupo_1013478" data-name="Grupo 1013478" transform="translate(44.661 56.846)">
      <path id="Trazado_601310" data-name="Trazado 601310" d="M246.6,399.533a1.1,1.1,0,0,1-1.1-1.1V397.1a1.1,1.1,0,1,1,2.194,0v1.338A1.1,1.1,0,0,1,246.6,399.533Z" transform="translate(-245.503 -396.001)" fill="#ff9100"/>
    </g>
    <g id="Grupo_1013479" data-name="Grupo 1013479" transform="translate(48.828 56.846)">
      <path id="Trazado_601311" data-name="Trazado 601311" d="M275.622,399.533a1.1,1.1,0,0,1-1.1-1.1V397.1a1.1,1.1,0,1,1,2.194,0v1.338A1.1,1.1,0,0,1,275.622,399.533Z" transform="translate(-274.525 -396.001)" fill="#ff9100"/>
    </g>
    <g id="Grupo_1013480" data-name="Grupo 1013480" transform="translate(52.994 56.846)">
      <path id="Trazado_601312" data-name="Trazado 601312" d="M304.644,399.533a1.1,1.1,0,0,1-1.1-1.1V397.1a1.1,1.1,0,1,1,2.194,0v1.338A1.1,1.1,0,0,1,304.644,399.533Z" transform="translate(-303.547 -396.001)" fill="#ff9100"/>
    </g>
    <g id="Grupo_1013481" data-name="Grupo 1013481" transform="translate(57.16 56.846)">
      <path id="Trazado_601313" data-name="Trazado 601313" d="M333.667,399.533a1.1,1.1,0,0,1-1.1-1.1V397.1a1.1,1.1,0,1,1,2.194,0v1.338A1.1,1.1,0,0,1,333.667,399.533Z" transform="translate(-332.57 -396.001)" fill="#ff9100"/>
    </g>
    <g id="Grupo_1013482" data-name="Grupo 1013482" transform="translate(44.661 62.521)">
      <path id="Trazado_601314" data-name="Trazado 601314" d="M246.6,439.063a1.1,1.1,0,0,1-1.1-1.1v-1.338a1.1,1.1,0,0,1,2.194,0v1.338A1.1,1.1,0,0,1,246.6,439.063Z" transform="translate(-245.503 -435.531)" fill="#ff9100"/>
    </g>
    <g id="Grupo_1013483" data-name="Grupo 1013483" transform="translate(48.828 62.521)">
      <path id="Trazado_601315" data-name="Trazado 601315" d="M275.622,439.063a1.1,1.1,0,0,1-1.1-1.1v-1.338a1.1,1.1,0,0,1,2.194,0v1.338A1.1,1.1,0,0,1,275.622,439.063Z" transform="translate(-274.525 -435.531)" fill="#ff9100"/>
    </g>
    <g id="Grupo_1013484" data-name="Grupo 1013484" transform="translate(52.994 62.521)">
      <path id="Trazado_601316" data-name="Trazado 601316" d="M304.644,439.063a1.1,1.1,0,0,1-1.1-1.1v-1.338a1.1,1.1,0,0,1,2.194,0v1.338A1.1,1.1,0,0,1,304.644,439.063Z" transform="translate(-303.547 -435.531)" fill="#ff9100"/>
    </g>
    <g id="Grupo_1013485" data-name="Grupo 1013485" transform="translate(57.16 62.521)">
      <path id="Trazado_601317" data-name="Trazado 601317" d="M333.667,439.063a1.1,1.1,0,0,1-1.1-1.1v-1.338a1.1,1.1,0,0,1,2.194,0v1.338A1.1,1.1,0,0,1,333.667,439.063Z" transform="translate(-332.57 -435.531)" fill="#ff9100"/>
    </g>
    <g id="Grupo_1013486" data-name="Grupo 1013486" transform="translate(44.661 68.196)">
      <path id="Trazado_601318" data-name="Trazado 601318" d="M246.6,478.594a1.1,1.1,0,0,1-1.1-1.1v-1.338a1.1,1.1,0,0,1,2.194,0V477.5A1.1,1.1,0,0,1,246.6,478.594Z" transform="translate(-245.503 -475.062)" fill="#ff9100"/>
    </g>
    <g id="Grupo_1013487" data-name="Grupo 1013487" transform="translate(48.828 68.196)">
      <path id="Trazado_601319" data-name="Trazado 601319" d="M275.622,478.594a1.1,1.1,0,0,1-1.1-1.1v-1.338a1.1,1.1,0,0,1,2.194,0V477.5A1.1,1.1,0,0,1,275.622,478.594Z" transform="translate(-274.525 -475.062)" fill="#ff9100"/>
    </g>
    <g id="Grupo_1013488" data-name="Grupo 1013488" transform="translate(52.994 68.196)">
      <path id="Trazado_601320" data-name="Trazado 601320" d="M304.644,478.594a1.1,1.1,0,0,1-1.1-1.1v-1.338a1.1,1.1,0,0,1,2.194,0V477.5A1.1,1.1,0,0,1,304.644,478.594Z" transform="translate(-303.547 -475.062)" fill="#ff9100"/>
    </g>
    <path id="Trazado_601321" data-name="Trazado 601321" d="M333.667,475.062a1.1,1.1,0,0,0-1.1,1.1V477.5a1.1,1.1,0,0,0,.526.936q.818-.283,1.617-.605a1.1,1.1,0,0,0,.051-.33v-1.338A1.1,1.1,0,0,0,333.667,475.062Z" transform="translate(-275.41 -406.866)" fill="#ff9100"/>
    <g id="Grupo_1013489" data-name="Grupo 1013489" transform="translate(39.224 49.818)">
      <path id="Trazado_601322" data-name="Trazado 601322" d="M231.219,350.988H209.6a1.975,1.975,0,1,1,0-3.949h21.618a1.975,1.975,0,0,1,0,3.949Z" transform="translate(-207.626 -347.039)" fill="#ffdd40"/>
    </g>
    <path id="Trazado_601323" data-name="Trazado 601323" d="M218.565,349.014a1.974,1.974,0,0,1,1.975-1.975H209.6a1.975,1.975,0,1,0,0,3.949h10.939A1.974,1.974,0,0,1,218.565,349.014Z" transform="translate(-168.402 -297.221)" fill="#ffc839"/>
    <g id="Grupo_1013490" data-name="Grupo 1013490" transform="translate(27.836 5.344)">
      <path id="Trazado_601324" data-name="Trazado 601324" d="M141.425,39.418H129.392a1.1,1.1,0,0,1,0-2.194h12.033a1.1,1.1,0,0,1,0,2.194Z" transform="translate(-128.295 -37.224)" fill="#e9efff"/>
    </g>
    <g id="Grupo_1013491" data-name="Grupo 1013491" transform="translate(22.368 16.31)">
      <path id="Trazado_601325" data-name="Trazado 601325" d="M114.268,115.815H91.3a1.1,1.1,0,0,1,0-2.194h22.97a1.1,1.1,0,1,1,0,2.194Z" transform="translate(-90.201 -113.621)" fill="#e9efff"/>
    </g>
    <g id="Grupo_1013492" data-name="Grupo 1013492" transform="translate(19.049 32.63)">
      <path id="Trazado_601326" data-name="Trazado 601326" d="M97.789,229.5H68.183a1.1,1.1,0,0,1,0-2.194H97.789a1.1,1.1,0,0,1,0,2.194Z" transform="translate(-67.086 -227.306)" fill="#e9efff"/>
    </g>
    <g id="Grupo_1013493" data-name="Grupo 1013493" transform="translate(31.769 9.164)">
      <path id="Trazado_601327" data-name="Trazado 601327" d="M156.792,69.115a1.1,1.1,0,0,1-1.1-1.1V64.935a1.1,1.1,0,0,1,2.194,0v3.083A1.1,1.1,0,0,1,156.792,69.115Z" transform="translate(-155.695 -63.838)" fill="#a8b7ef"/>
    </g>
    <g id="Grupo_1013494" data-name="Grupo 1013494" transform="translate(35.936 9.164)">
      <path id="Trazado_601328" data-name="Trazado 601328" d="M185.814,69.115a1.1,1.1,0,0,1-1.1-1.1V64.935a1.1,1.1,0,1,1,2.194,0v3.083A1.1,1.1,0,0,1,185.814,69.115Z" transform="translate(-184.717 -63.838)" fill="#a8b7ef"/>
    </g>
  </g>
</svg>
