<svg xmlns="http://www.w3.org/2000/svg" width="278.559" height="198.424" viewBox="0 0 278.559 198.424">
  <g id="Grupo_1015037" data-name="Grupo 1015037" transform="translate(6764.402 10664.838)">
    <path id="Trazado_601513" data-name="Trazado 601513" d="M582.268,166.984v41.394H450.1V174.841l57.521-60.471a157.539,157.539,0,0,0,11.547-14.66,56.131,56.131,0,0,0,6.054-11.292l.017-.045.017-.045a22.711,22.711,0,0,0,1.812-8.112A25.644,25.644,0,0,0,525.236,69.7l-.03-.066-.028-.067a11.053,11.053,0,0,0-4.444-5.428l-.027-.017-.027-.017a14.258,14.258,0,0,0-7.739-1.861,12.333,12.333,0,0,0-7.824,2.547,18.715,18.715,0,0,0-5.725,7.757,32.2,32.2,0,0,0-2.136,12.1v5.088H446.5V84.658A62.235,62.235,0,0,1,455,52.669l.008-.015.008-.015a63.483,63.483,0,0,1,23.832-23.076c10.237-5.858,21.974-8.71,35.054-8.71,13.383,0,24.964,2.074,34.541,6.467A47.509,47.509,0,0,1,570.4,46.78c5.033,8.46,7.425,18.48,7.425,29.833a58.761,58.761,0,0,1-3.157,19.181,80.351,80.351,0,0,1-8.836,17.819l-.009.014-.009.014a148.5,148.5,0,0,1-13.661,17.4q-7.753,8.722-17.6,18.457L519.4,166.984Zm-74.01,5.088H577.18V203.29H455.186V176.874L511.38,117.8a162.785,162.785,0,0,0,12.007-15.25,61.128,61.128,0,0,0,6.6-12.368,27.7,27.7,0,0,0,2.161-9.966,30.6,30.6,0,0,0-2.282-12.608,16.124,16.124,0,0,0-6.484-7.8,19.278,19.278,0,0,0-10.447-2.642,17.411,17.411,0,0,0-10.926,3.6,23.8,23.8,0,0,0-7.325,9.846,37.238,37.238,0,0,0-2.522,14.049H451.584q0-2.579.2-5.088a56.427,56.427,0,0,1,7.6-24.33,58.409,58.409,0,0,1,21.973-21.253q14.049-8.045,32.54-8.045,19.332,0,32.42,6t19.692,17.411q6.725,11.287,6.724,27.257a53.687,53.687,0,0,1-2.881,17.53,75.35,75.35,0,0,1-8.285,16.69,143.527,143.527,0,0,1-13.208,16.81q-7.685,8.645-17.531,18.371Z" transform="translate(-7210.898 -10679.032)" fill="#304c8e" fill-rule="evenodd"/>
    <g id="Grupo_1013529" data-name="Grupo 1013529" transform="translate(-6684.267 -10664.839)">
      <path id="Trazado_601514" data-name="Trazado 601514" d="M739.423,112.212A99.212,99.212,0,1,1,640.212,13,99.212,99.212,0,0,1,739.423,112.212Z" transform="translate(-541 -13)" fill="#f5f5f5"/>
    </g>
    <path id="Trazado_601515" data-name="Trazado 601515" d="M616.049,103.2H599.4V83.491a1.676,1.676,0,0,1,1.676-1.676h13.292a1.676,1.676,0,0,1,1.676,1.676Z" transform="translate(-7234.146 -10688.301)" fill="#ffcf5d"/>
    <path id="Trazado_601516" data-name="Trazado 601516" d="M643.585,103.2H626.94V83.491a1.676,1.676,0,0,1,1.676-1.676h13.292a1.676,1.676,0,0,1,1.676,1.676Z" transform="translate(-7238.333 -10688.301)" fill="#ffcf5d"/>
    <path id="Trazado_601517" data-name="Trazado 601517" d="M671.121,103.2H654.477V83.491a1.676,1.676,0,0,1,1.676-1.676h13.293a1.676,1.676,0,0,1,1.676,1.676Z" transform="translate(-7242.519 -10688.301)" fill="#ffcf5d"/>
    <path id="Trazado_601518" data-name="Trazado 601518" d="M614.372,81.815h-5.029V96.492H599.4V103.2h16.645V83.491A1.676,1.676,0,0,0,614.372,81.815Z" transform="translate(-7234.146 -10688.301)" fill="#fee132"/>
    <path id="Trazado_601519" data-name="Trazado 601519" d="M641.908,81.815h-5.029V96.492H626.94V103.2h16.645V83.491A1.676,1.676,0,0,0,641.908,81.815Z" transform="translate(-7238.333 -10688.301)" fill="#fee132"/>
    <path id="Trazado_601520" data-name="Trazado 601520" d="M669.445,81.815h-5.029V96.492h-9.939V103.2h16.644V83.491A1.676,1.676,0,0,0,669.445,81.815Z" transform="translate(-7242.519 -10688.301)" fill="#fee132"/>
    <path id="Trazado_601521" data-name="Trazado 601521" d="M691.233,88.52V83.491a1.676,1.676,0,0,0-1.676-1.676H686.2a1.677,1.677,0,0,0-1.676,1.676V88.52a2.515,2.515,0,0,0-2.514,2.514V103.2h11.734V91.035A2.514,2.514,0,0,0,691.233,88.52Z" transform="translate(-7246.706 -10688.301)" fill="#263c71"/>
    <path id="Trazado_601522" data-name="Trazado 601522" d="M712.978,88.52V83.491a1.676,1.676,0,0,0-1.676-1.676h-3.353a1.676,1.676,0,0,0-1.676,1.676V88.52a2.515,2.515,0,0,0-2.515,2.514V103.2h11.734V91.035A2.514,2.514,0,0,0,712.978,88.52Z" transform="translate(-7250.012 -10688.301)" fill="#263c71"/>
    <path id="Trazado_601523" data-name="Trazado 601523" d="M646.194,122.846h-9.939A3.352,3.352,0,0,0,632.9,126.2a3.352,3.352,0,0,0-3.353-3.352h-9.939a3.352,3.352,0,0,0-3.353,3.352,3.352,3.352,0,0,0-3.353-3.352h-9.939a3.352,3.352,0,0,0-3.353,3.352v18.03h49.934V126.2A3.352,3.352,0,0,0,646.194,122.846Z" transform="translate(-7234.178 -10694.539)" fill="#1c2d55"/>
    <path id="Trazado_601524" data-name="Trazado 601524" d="M646.194,122.846h-3.352v14.677H632.9V126.2a3.352,3.352,0,0,0-3.353-3.352H626.2v14.677h-9.94V126.2a3.352,3.352,0,0,0-3.353-3.352h-3.352v14.677h-9.94v6.706h49.934V126.2A3.352,3.352,0,0,0,646.194,122.846Z" transform="translate(-7234.178 -10694.539)" fill="#263c71"/>
    <path id="Trazado_601525" data-name="Trazado 601525" d="M706.283,128.118h-7.7a3.352,3.352,0,0,1-6.7,0h-7.7a3.352,3.352,0,0,1-6.7,0h-7.7a3.352,3.352,0,0,0-3.352,3.352v13.56h43.228V131.47A3.352,3.352,0,0,0,706.283,128.118Z" transform="translate(-7244.333 -10695.341)" fill="#fff9eb"/>
    <path id="Trazado_601526" data-name="Trazado 601526" d="M706.283,128.118h-3.353v10.206h-7.7V131.47a3.353,3.353,0,0,0-3.353-3.352h-3.353v10.206h-7.7V131.47a3.353,3.353,0,0,0-3.353-3.352h-3.353v10.206h-7.7v6.706h43.228V131.47A3.352,3.352,0,0,0,706.283,128.118Z" transform="translate(-7244.333 -10695.341)" fill="#d3cdbf"/>
    <path id="Trazado_601527" data-name="Trazado 601527" d="M670.662,171.215V167.23a3.353,3.353,0,0,0-3.353-3.353H656.252a3.352,3.352,0,0,0-3.352,3.353,3.353,3.353,0,0,0-3.353-3.353H638.49a3.353,3.353,0,0,0-3.353,3.353,3.353,3.353,0,0,0-3.353-3.353H620.728a3.353,3.353,0,0,0-3.353,3.353,3.353,3.353,0,0,0-3.353-3.353H602.966a3.353,3.353,0,0,0-3.353,3.353v3.985a3.353,3.353,0,0,0,3.353,3.353,3.353,3.353,0,0,0-3.353,3.353v7.338h71.049v-7.338a3.353,3.353,0,0,0-3.353-3.353A3.353,3.353,0,0,0,670.662,171.215Z" transform="translate(-7234.178 -10700.777)" fill="#8b9ba9"/>
    <path id="Trazado_601528" data-name="Trazado 601528" d="M670.662,172.892V167.23a3.353,3.353,0,0,0-3.353-3.353h-3.353v3.985H652.9v-.633a3.353,3.353,0,0,0-3.353-3.353h-3.353v3.985H635.138v-.633a3.353,3.353,0,0,0-3.353-3.353h-3.353v3.985H617.375v-.633a3.353,3.353,0,0,0-3.353-3.353H610.67v3.985H599.613v3.353a3.353,3.353,0,0,0,3.353,3.353h7.7v3.985H599.613v6.706h71.049v-7.338a3.353,3.353,0,0,0-3.353-3.353h1.676A1.677,1.677,0,0,0,670.662,172.892Zm-42.23,5.662H617.375v-3.985h11.057Zm17.762,0H635.138v-3.985h11.057Zm17.762,0H652.9v-3.985h11.057Z" transform="translate(-7234.178 -10700.777)" fill="#6c7a88"/>
    <path id="Trazado_601529" data-name="Trazado 601529" d="M706.059,170.582v-5.029a1.677,1.677,0,0,0-1.676-1.676H701.03a1.677,1.677,0,0,0-1.676,1.676v5.029a2.515,2.515,0,0,0-2.515,2.514v12.163h11.734V173.1A2.514,2.514,0,0,0,706.059,170.582Z" transform="translate(-7248.959 -10700.777)" fill="#263c71"/>
    <path id="Trazado_601530" data-name="Trazado 601530" d="M702.407,66H594.676A1.676,1.676,0,0,0,593,67.676v3.353a1.676,1.676,0,0,0,1.676,1.676h107.73a1.676,1.676,0,0,0,1.676-1.676V67.676A1.676,1.676,0,0,0,702.407,66Z" transform="translate(-7233.172 -10685.896)" fill="#263c71"/>
    <path id="Trazado_601531" data-name="Trazado 601531" d="M702.407,189.092H594.676A1.676,1.676,0,0,0,593,190.768v3.353a1.676,1.676,0,0,0,1.676,1.676h107.73a1.676,1.676,0,0,0,1.676-1.676v-3.353A1.676,1.676,0,0,0,702.407,189.092Z" transform="translate(-7233.172 -10704.61)" fill="#263c71"/>
    <path id="Trazado_601532" data-name="Trazado 601532" d="M702.407,107.031H594.676A1.676,1.676,0,0,0,593,108.707v3.352a1.676,1.676,0,0,0,1.676,1.676h107.73a1.676,1.676,0,0,0,1.676-1.676v-3.352A1.676,1.676,0,0,0,702.407,107.031Z" transform="translate(-7233.172 -10692.135)" fill="#263c71"/>
    <path id="Trazado_601533" data-name="Trazado 601533" d="M702.407,148.062H594.676A1.676,1.676,0,0,0,593,149.738v3.353a1.676,1.676,0,0,0,1.676,1.676h107.73a1.676,1.676,0,0,0,1.676-1.676v-3.353A1.676,1.676,0,0,0,702.407,148.062Z" transform="translate(-7233.172 -10698.373)" fill="#263c71"/>
  </g>
</svg>
