<svg xmlns="http://www.w3.org/2000/svg" width="280" height="198.424" viewBox="0 0 280 198.424">
  <g id="Grupo_1015039" data-name="Grupo 1015039" transform="translate(6423.266 10664.838)">
    <path id="Trazado_601534" data-name="Trazado 601534" d="M890.7,93.859h24.779c4.483,0,7.678-.787,9.9-2a12.316,12.316,0,0,0,5.212-5.446,22.378,22.378,0,0,0,1.9-9.678,15.894,15.894,0,0,0-1.72-7.4l-.025-.049-.025-.05a11.281,11.281,0,0,0-4.7-4.907l-.043-.025-.042-.026c-2.027-1.227-4.922-2.026-9.012-2.026a17.631,17.631,0,0,0-7.288,1.6l-.052.023-.052.022a14.47,14.47,0,0,0-5.6,4.051,8.54,8.54,0,0,0-1.737,5.549v5.088h-50.76V73.491c0-10.915,3.016-20.529,9.227-28.566l.005-.006a57.747,57.747,0,0,1,23.775-17.9A78.929,78.929,0,0,1,915.6,20.855c12.917,0,24.477,2,34.573,6.137,10.159,4.084,18.266,10.259,24.092,18.585,6.009,8.386,8.858,18.6,8.858,30.316a40.741,40.741,0,0,1-4.791,19.314,49.235,49.235,0,0,1-13.1,15.53q-1.441,1.143-2.963,2.2a52.719,52.719,0,0,1,5.464,3.531,44.1,44.1,0,0,1,13.543,16.119,47.725,47.725,0,0,1,4.732,21.594,52.3,52.3,0,0,1-5.478,24.174,51.444,51.444,0,0,1-15.305,17.973,70.25,70.25,0,0,1-22.378,10.885l-.023.007-.023.007a99.636,99.636,0,0,1-27.2,3.554,90.466,90.466,0,0,1-23.151-3.05l-.025-.007-.026-.007a71.548,71.548,0,0,1-21.445-9.825l-.02-.013-.019-.013a53.464,53.464,0,0,1-16.04-17.5l-.02-.032-.018-.033c-4.1-7.382-6.043-15.994-6.043-25.645v-5.088h50.76v5.088a12.873,12.873,0,0,0,2.122,7.225,17.309,17.309,0,0,0,6.394,5.416,19.081,19.081,0,0,0,8.849,2.083,21.443,21.443,0,0,0,10.189-2.15,15.066,15.066,0,0,0,6.053-5.745,15.971,15.971,0,0,0,2.084-8.15c0-5.423-.928-9.173-2.338-11.655l-.021-.038-.021-.039a11.93,11.93,0,0,0-6.051-5.44l-.019-.008-.018-.008a28.325,28.325,0,0,0-11.3-1.98H890.7Zm38.828,77.852a26.441,26.441,0,0,1-12.608,2.762,24.16,24.16,0,0,1-11.167-2.642,22.37,22.37,0,0,1-8.286-7.084,17.965,17.965,0,0,1-3-10.087H853.885q0,2.615.2,5.088a44.3,44.3,0,0,0,5.2,18.086,48.369,48.369,0,0,0,14.529,15.85,66.5,66.5,0,0,0,19.932,9.126,85.4,85.4,0,0,0,21.853,2.881,94.56,94.56,0,0,0,25.815-3.362,65.163,65.163,0,0,0,20.773-10.086A46.3,46.3,0,0,0,976,176.033a47.19,47.19,0,0,0,4.922-21.853,42.658,42.658,0,0,0-4.2-19.332,38.977,38.977,0,0,0-12.007-14.288,48.727,48.727,0,0,0-7.44-4.509,56.8,56.8,0,0,0-6.121-2.574,58.249,58.249,0,0,0,5.842-3.162,53.1,53.1,0,0,0,5.078-3.563,44.12,44.12,0,0,0,11.767-13.928,35.608,35.608,0,0,0,4.2-16.931q0-16.33-7.922-27.377-7.8-11.167-21.853-16.81-14.049-5.764-32.66-5.764a73.844,73.844,0,0,0-29.178,5.764,52.671,52.671,0,0,0-21.733,16.33A39.021,39.021,0,0,0,856.777,68.4a50.562,50.562,0,0,0-.251,5.088h40.584a13.588,13.588,0,0,1,2.882-8.765,19.536,19.536,0,0,1,7.565-5.523,22.712,22.712,0,0,1,9.366-2.041q7.083,0,11.647,2.762a16.366,16.366,0,0,1,6.724,7.084,20.981,20.981,0,0,1,2.281,9.726,27.4,27.4,0,0,1-2.4,11.888,17.4,17.4,0,0,1-7.325,7.684q-4.8,2.642-12.368,2.641H895.79v30.138h19.691a33.327,33.327,0,0,1,13.328,2.4,17.009,17.009,0,0,1,8.526,7.685q3,5.282,3,14.169a21.054,21.054,0,0,1-2.762,10.686A20.147,20.147,0,0,1,929.531,171.711Z" transform="translate(-7272.063 -10679.032)" fill="#304c8e" fill-rule="evenodd"/>
    <g id="Grupo_1013530" data-name="Grupo 1013530" transform="translate(-6341.689 -10664.839)">
      <path id="Trazado_601535" data-name="Trazado 601535" d="M1143.424,112.212A99.212,99.212,0,1,1,1044.212,13,99.211,99.211,0,0,1,1143.424,112.212Z" transform="translate(-945 -13)" fill="#f5f5f5"/>
    </g>
    <path id="Trazado_601536" data-name="Trazado 601536" d="M1085.283,149.806l16.654-16.484c6.224-6.221,18.189,1.628,11.727,9.233l-20.173,23.731a14.118,14.118,0,0,1-2.7,2.448,20.125,20.125,0,0,1-10.939,2.77h-29.933a56.036,56.036,0,0,0-6.479.376l-8.615.967-17.85-17.328s10.125-19.129,30-13.631a42.709,42.709,0,0,0,11.414,1.519h19.673c9.26,0,9.336,14.716-.076,14.716h-17.129" transform="translate(-7297.633 -10695.789)" fill="#ffcdac"/>
    <path id="Trazado_601537" data-name="Trazado 601537" d="M1019,198.784l16.993-17.428v-.017l-28.831-27.973c0-.005-.009,0-.017,0L990,171.169Z" transform="translate(-7293.531 -10699.179)" fill="#304c8e"/>
    <path id="Trazado_601538" data-name="Trazado 601538" d="M1012.319,92.051a10.613,10.613,0,0,0-9.6,10.563v11.3a3.537,3.537,0,0,0,3.536,3.533h24.227a3.529,3.529,0,0,0,3.528-3.533v-11.3A10.607,10.607,0,0,0,1024.4,92.05" transform="translate(-7295.464 -10689.856)" fill="#1c2d55"/>
    <path id="Trazado_601539" data-name="Trazado 601539" d="M1030.9,77.856A11.855,11.855,0,1,1,1019.044,66,11.855,11.855,0,0,1,1030.9,77.856Z" transform="translate(-7296.144 -10685.896)" fill="#ffcdac"/>
    <path id="Trazado_601540" data-name="Trazado 601540" d="M1049.219,92.051a10.613,10.613,0,0,0-9.6,10.563v11.3a3.537,3.537,0,0,0,3.536,3.533h24.226a3.536,3.536,0,0,0,3.536-3.533v-11.3A10.614,10.614,0,0,0,1061.3,92.05" transform="translate(-7301.075 -10689.856)" fill="#7e19b8"/>
    <path id="Trazado_601541" data-name="Trazado 601541" d="M1067.807,77.856A11.859,11.859,0,1,1,1055.953,66,11.855,11.855,0,0,1,1067.807,77.856Z" transform="translate(-7301.754 -10685.896)" fill="#ffcdac"/>
    <path id="Trazado_601542" data-name="Trazado 601542" d="M1086.129,92.051a10.613,10.613,0,0,0-9.6,10.563v11.3a3.529,3.529,0,0,0,3.528,3.533h24.226a3.531,3.531,0,0,0,3.536-3.533v-11.3a10.607,10.607,0,0,0-9.607-10.564" transform="translate(-7306.687 -10689.856)" fill="#ffd98e"/>
    <path id="Trazado_601543" data-name="Trazado 601543" d="M1104.709,77.856A11.854,11.854,0,1,1,1092.854,66,11.855,11.855,0,0,1,1104.709,77.856Z" transform="translate(-7307.366 -10685.896)" fill="#ffcdac"/>
  </g>
</svg>
