<svg xmlns="http://www.w3.org/2000/svg" width="445" height="349.526" viewBox="0 0 445 349.526">
  <g id="Grupo_1015198" data-name="Grupo 1015198" transform="translate(5822 2406.061)">
    <g id="Grupo_1015187" data-name="Grupo 1015187" transform="translate(-6212 -10600.203)">
      <g id="Grupo_875823" data-name="Grupo 875823" transform="translate(390 8194.143)">
        <g id="Grupo_875469" data-name="Grupo 875469" transform="translate(0 0)">
          <g id="Grupo_875440" data-name="Grupo 875440" transform="translate(445 292.939) rotate(180)">
            <path id="Trazado_596408" data-name="Trazado 596408" d="M0,0H445V292.939H0Z" fill="#f6f6f6"/>
            <path id="Trazado_599230" data-name="Trazado 599230" d="M0,0Z" transform="translate(445 0.212) rotate(180)" fill="#f6f6f6"/>
          </g>
          <rect id="Rectángulo_292089" data-name="Rectángulo 292089" width="384" height="246" transform="translate(384 264.061) rotate(180)" fill="#f6f6f6"/>
        </g>
      </g>
      <g id="Grupo_875822" data-name="Grupo 875822" transform="translate(390 8212.078)">
        <path id="Trazado_604949" data-name="Trazado 604949" d="M9.106,16H.822V14.356l3.91-4.167A9.645,9.645,0,0,0,5.923,8.654a2.467,2.467,0,0,0,.386-1.245A1.846,1.846,0,0,0,5.9,6.143,1.468,1.468,0,0,0,4.74,5.682a1.584,1.584,0,0,0-1.282.56,2.219,2.219,0,0,0-.469,1.473H.581A3.962,3.962,0,0,1,1.108,5.7,3.715,3.715,0,0,1,2.6,4.267a4.529,4.529,0,0,1,2.183-.519,4.288,4.288,0,0,1,2.9.9A3.172,3.172,0,0,1,8.716,7.176,4.064,4.064,0,0,1,8.251,9a10.148,10.148,0,0,1-1.594,2.167l-2.748,2.9h5.2Zm9.6-5a6.123,6.123,0,0,1-1.038,3.835,3.622,3.622,0,0,1-3.038,1.328,3.647,3.647,0,0,1-3.021-1.3,5.943,5.943,0,0,1-1.071-3.735V8.9a6.042,6.042,0,0,1,1.05-3.843,3.649,3.649,0,0,1,3.026-1.312,3.652,3.652,0,0,1,3.021,1.3A5.925,5.925,0,0,1,18.71,8.778Zm-2.4-2.446A4.426,4.426,0,0,0,15.9,6.368a1.389,1.389,0,0,0-1.282-.685,1.364,1.364,0,0,0-1.249.652,4.142,4.142,0,0,0-.427,2.04v2.941a4.646,4.646,0,0,0,.4,2.2,1.37,1.37,0,0,0,1.291.719,1.347,1.347,0,0,0,1.27-.69,4.535,4.535,0,0,0,.407-2.11ZM20.3,6.238a2.389,2.389,0,0,1,.722-1.805A2.619,2.619,0,0,1,22.91,3.74a2.66,2.66,0,0,1,1.909.685,2.435,2.435,0,0,1,.722,1.855v.6a2.359,2.359,0,0,1-.722,1.8,2.647,2.647,0,0,1-1.893.681,2.664,2.664,0,0,1-1.905-.685A2.417,2.417,0,0,1,20.3,6.828Zm1.594.639a1.118,1.118,0,0,0,.286.8.986.986,0,0,0,.751.3.94.94,0,0,0,.739-.307,1.189,1.189,0,0,0,.274-.822V6.238a1.164,1.164,0,0,0-.274-.805,1.067,1.067,0,0,0-1.494,0,1.188,1.188,0,0,0-.282.843Zm4.184,6.159a2.359,2.359,0,0,1,.73-1.805,2.656,2.656,0,0,1,1.893-.685,2.683,2.683,0,0,1,1.905.677,2.422,2.422,0,0,1,.726,1.864v.6a2.377,2.377,0,0,1-.714,1.8,2.631,2.631,0,0,1-1.9.685,2.662,2.662,0,0,1-1.917-.689,2.407,2.407,0,0,1-.722-1.826Zm1.594.647a1.11,1.11,0,0,0,.3.78.974.974,0,0,0,.747.324q1.013,0,1.013-1.121v-.631a1.128,1.128,0,0,0-.282-.8,1.073,1.073,0,0,0-1.494,0,1.164,1.164,0,0,0-.282.826ZM23.4,15.1l-1.17-.631,5.9-9.446,1.17.631Z" transform="translate(21 -3.875)" fill="#304c8e"/>
        <path id="Trazado_604950" data-name="Trazado 604950" d="M6.649,16H4.25V6.753l-2.864.888V5.69L6.392,3.9h.257Zm4.283-5.943.7-6.143H18.4v2H13.6l-.3,2.6a3.8,3.8,0,0,1,1.818-.457,3.484,3.484,0,0,1,2.706,1.071,4.277,4.277,0,0,1,.979,3,4.382,4.382,0,0,1-.494,2.1,3.486,3.486,0,0,1-1.415,1.436,4.418,4.418,0,0,1-2.175.51,4.692,4.692,0,0,1-2.034-.444A3.607,3.607,0,0,1,11.2,14.473a3.4,3.4,0,0,1-.577-1.834H13a1.773,1.773,0,0,0,.527,1.175,1.671,1.671,0,0,0,1.183.419,1.475,1.475,0,0,0,1.253-.585,2.711,2.711,0,0,0,.44-1.656,2.242,2.242,0,0,0-.506-1.577,1.858,1.858,0,0,0-1.436-.548,2.077,2.077,0,0,0-1.386.448l-.232.216ZM20.3,6.238a2.389,2.389,0,0,1,.722-1.805A2.619,2.619,0,0,1,22.91,3.74a2.66,2.66,0,0,1,1.909.685,2.435,2.435,0,0,1,.722,1.855v.6a2.359,2.359,0,0,1-.722,1.8,2.647,2.647,0,0,1-1.893.681,2.664,2.664,0,0,1-1.905-.685A2.417,2.417,0,0,1,20.3,6.828Zm1.594.639a1.118,1.118,0,0,0,.286.8.986.986,0,0,0,.751.3.94.94,0,0,0,.739-.307,1.189,1.189,0,0,0,.274-.822V6.238a1.164,1.164,0,0,0-.274-.805,1.067,1.067,0,0,0-1.494,0,1.188,1.188,0,0,0-.282.843Zm4.184,6.159a2.359,2.359,0,0,1,.73-1.805,2.656,2.656,0,0,1,1.893-.685,2.683,2.683,0,0,1,1.905.677,2.422,2.422,0,0,1,.726,1.864v.6a2.377,2.377,0,0,1-.714,1.8,2.631,2.631,0,0,1-1.9.685,2.662,2.662,0,0,1-1.917-.689,2.407,2.407,0,0,1-.722-1.826Zm1.594.647a1.11,1.11,0,0,0,.3.78.974.974,0,0,0,.747.324q1.013,0,1.013-1.121v-.631a1.128,1.128,0,0,0-.282-.8,1.073,1.073,0,0,0-1.494,0,1.164,1.164,0,0,0-.282.826ZM23.4,15.1l-1.17-.631,5.9-9.446,1.17.631Z" transform="translate(21 44.125)" fill="#304c8e"/>
        <path id="Trazado_604951" data-name="Trazado 604951" d="M6.649,16H4.25V6.753l-2.864.888V5.69L6.392,3.9h.257ZM18.71,11a6.123,6.123,0,0,1-1.038,3.835,3.622,3.622,0,0,1-3.038,1.328,3.647,3.647,0,0,1-3.021-1.3,5.943,5.943,0,0,1-1.071-3.735V8.9a6.042,6.042,0,0,1,1.05-3.843,3.649,3.649,0,0,1,3.026-1.312,3.652,3.652,0,0,1,3.021,1.3A5.925,5.925,0,0,1,18.71,8.778Zm-2.4-2.446A4.426,4.426,0,0,0,15.9,6.368a1.389,1.389,0,0,0-1.282-.685,1.364,1.364,0,0,0-1.249.652,4.142,4.142,0,0,0-.427,2.04v2.941a4.646,4.646,0,0,0,.4,2.2,1.37,1.37,0,0,0,1.291.719,1.347,1.347,0,0,0,1.27-.69,4.535,4.535,0,0,0,.407-2.11ZM20.3,6.238a2.389,2.389,0,0,1,.722-1.805A2.619,2.619,0,0,1,22.91,3.74a2.66,2.66,0,0,1,1.909.685,2.435,2.435,0,0,1,.722,1.855v.6a2.359,2.359,0,0,1-.722,1.8,2.647,2.647,0,0,1-1.893.681,2.664,2.664,0,0,1-1.905-.685A2.417,2.417,0,0,1,20.3,6.828Zm1.594.639a1.118,1.118,0,0,0,.286.8.986.986,0,0,0,.751.3.94.94,0,0,0,.739-.307,1.189,1.189,0,0,0,.274-.822V6.238a1.164,1.164,0,0,0-.274-.805,1.067,1.067,0,0,0-1.494,0,1.188,1.188,0,0,0-.282.843Zm4.184,6.159a2.359,2.359,0,0,1,.73-1.805,2.656,2.656,0,0,1,1.893-.685,2.683,2.683,0,0,1,1.905.677,2.422,2.422,0,0,1,.726,1.864v.6a2.377,2.377,0,0,1-.714,1.8,2.631,2.631,0,0,1-1.9.685,2.662,2.662,0,0,1-1.917-.689,2.407,2.407,0,0,1-.722-1.826Zm1.594.647a1.11,1.11,0,0,0,.3.78.974.974,0,0,0,.747.324q1.013,0,1.013-1.121v-.631a1.128,1.128,0,0,0-.282-.8,1.073,1.073,0,0,0-1.494,0,1.164,1.164,0,0,0-.282.826ZM23.4,15.1l-1.17-.631,5.9-9.446,1.17.631Z" transform="translate(21 101.125)" fill="#304c8e"/>
        <path id="Trazado_604952" data-name="Trazado 604952" d="M1.179,10.057l.7-6.143H8.649v2H3.843l-.3,2.6a3.8,3.8,0,0,1,1.818-.457A3.484,3.484,0,0,1,8.068,9.127a4.277,4.277,0,0,1,.979,3,4.382,4.382,0,0,1-.494,2.1,3.486,3.486,0,0,1-1.415,1.436,4.418,4.418,0,0,1-2.175.51,4.692,4.692,0,0,1-2.034-.444,3.607,3.607,0,0,1-1.482-1.249,3.4,3.4,0,0,1-.577-1.834H3.246a1.773,1.773,0,0,0,.527,1.175,1.671,1.671,0,0,0,1.183.419,1.475,1.475,0,0,0,1.253-.585,2.711,2.711,0,0,0,.44-1.656,2.242,2.242,0,0,0-.506-1.577,1.858,1.858,0,0,0-1.436-.548,2.077,2.077,0,0,0-1.386.448l-.232.216Zm9.363-3.818a2.389,2.389,0,0,1,.722-1.805,2.619,2.619,0,0,1,1.893-.693,2.66,2.66,0,0,1,1.909.685,2.435,2.435,0,0,1,.722,1.855v.6a2.359,2.359,0,0,1-.722,1.8,2.647,2.647,0,0,1-1.893.681,2.664,2.664,0,0,1-1.905-.685,2.417,2.417,0,0,1-.726-1.847Zm1.594.639a1.118,1.118,0,0,0,.286.8.986.986,0,0,0,.751.3.94.94,0,0,0,.739-.307,1.189,1.189,0,0,0,.274-.822V6.238a1.164,1.164,0,0,0-.274-.805,1.067,1.067,0,0,0-1.494,0,1.188,1.188,0,0,0-.282.843Zm4.184,6.159a2.359,2.359,0,0,1,.73-1.805,2.656,2.656,0,0,1,1.893-.685,2.683,2.683,0,0,1,1.905.677,2.422,2.422,0,0,1,.726,1.864v.6a2.377,2.377,0,0,1-.714,1.8,2.631,2.631,0,0,1-1.9.685,2.662,2.662,0,0,1-1.917-.689,2.407,2.407,0,0,1-.722-1.826Zm1.594.647a1.11,1.11,0,0,0,.3.78.974.974,0,0,0,.747.324q1.013,0,1.013-1.121v-.631a1.128,1.128,0,0,0-.282-.8,1.073,1.073,0,0,0-1.494,0,1.164,1.164,0,0,0-.282.826ZM13.646,15.1l-1.17-.631,5.9-9.446,1.17.631Z" transform="translate(21 173.125)" fill="#304c8e"/>
        <path id="Trazado_604953" data-name="Trazado 604953" d="M8.957,11a6.123,6.123,0,0,1-1.038,3.835,3.622,3.622,0,0,1-3.038,1.328,3.647,3.647,0,0,1-3.021-1.3A5.943,5.943,0,0,1,.789,11.127V8.9A6.042,6.042,0,0,1,1.839,5.06,3.649,3.649,0,0,1,4.864,3.748a3.652,3.652,0,0,1,3.021,1.3A5.925,5.925,0,0,1,8.957,8.778Zm-2.4-2.446a4.426,4.426,0,0,0-.411-2.189,1.389,1.389,0,0,0-1.282-.685,1.364,1.364,0,0,0-1.249.652,4.142,4.142,0,0,0-.427,2.04v2.941a4.646,4.646,0,0,0,.4,2.2,1.37,1.37,0,0,0,1.291.719,1.347,1.347,0,0,0,1.27-.69,4.535,4.535,0,0,0,.407-2.11Zm3.984-2.319a2.389,2.389,0,0,1,.722-1.805,2.619,2.619,0,0,1,1.893-.693,2.66,2.66,0,0,1,1.909.685,2.435,2.435,0,0,1,.722,1.855v.6a2.359,2.359,0,0,1-.722,1.8,2.647,2.647,0,0,1-1.893.681,2.664,2.664,0,0,1-1.905-.685,2.417,2.417,0,0,1-.726-1.847Zm1.594.639a1.118,1.118,0,0,0,.286.8.986.986,0,0,0,.751.3.94.94,0,0,0,.739-.307,1.189,1.189,0,0,0,.274-.822V6.238a1.164,1.164,0,0,0-.274-.805,1.067,1.067,0,0,0-1.494,0,1.188,1.188,0,0,0-.282.843Zm4.184,6.159a2.359,2.359,0,0,1,.73-1.805,2.656,2.656,0,0,1,1.893-.685,2.683,2.683,0,0,1,1.905.677,2.422,2.422,0,0,1,.726,1.864v.6a2.377,2.377,0,0,1-.714,1.8,2.631,2.631,0,0,1-1.9.685,2.662,2.662,0,0,1-1.917-.689,2.407,2.407,0,0,1-.722-1.826Zm1.594.647a1.11,1.11,0,0,0,.3.78.974.974,0,0,0,.747.324q1.013,0,1.013-1.121v-.631a1.128,1.128,0,0,0-.282-.8,1.073,1.073,0,0,0-1.494,0,1.164,1.164,0,0,0-.282.826ZM13.646,15.1l-1.17-.631,5.9-9.446,1.17.631Z" transform="translate(21 231.125)" fill="#304c8e"/>
        <path id="Trazado_604954" data-name="Trazado 604954" d="M1.179,10.057l.7-6.143H8.649v2H3.843l-.3,2.6a3.8,3.8,0,0,1,1.818-.457A3.484,3.484,0,0,1,8.068,9.127a4.277,4.277,0,0,1,.979,3,4.382,4.382,0,0,1-.494,2.1,3.486,3.486,0,0,1-1.415,1.436,4.418,4.418,0,0,1-2.175.51,4.692,4.692,0,0,1-2.034-.444,3.607,3.607,0,0,1-1.482-1.249,3.4,3.4,0,0,1-.577-1.834H3.246a1.773,1.773,0,0,0,.527,1.175,1.671,1.671,0,0,0,1.183.419,1.475,1.475,0,0,0,1.253-.585,2.711,2.711,0,0,0,.44-1.656,2.242,2.242,0,0,0-.506-1.577,1.858,1.858,0,0,0-1.436-.548,2.077,2.077,0,0,0-1.386.448l-.232.216ZM4.341,33.7l1.511-2.681H8.417l-2.557,4.4L8.525,40H5.952l-1.6-2.822L2.756,40H.174l2.665-4.582-2.548-4.4H2.864Z" transform="translate(142 250.125)" fill="#636363"/>
        <path id="Trazado_604955" data-name="Trazado 604955" d="M6.649,16H4.25V6.753l-2.864.888V5.69L6.392,3.9h.257ZM4.341,33.7l1.511-2.681H8.417l-2.557,4.4L8.525,40H5.952l-1.6-2.822L2.756,40H.174l2.665-4.582-2.548-4.4H2.864Z" transform="translate(219 250.125)" fill="#636363"/>
        <path id="Trazado_604956" data-name="Trazado 604956" d="M8.957,11a6.123,6.123,0,0,1-1.038,3.835,3.622,3.622,0,0,1-3.038,1.328,3.647,3.647,0,0,1-3.021-1.3A5.943,5.943,0,0,1,.789,11.127V8.9A6.042,6.042,0,0,1,1.839,5.06,3.649,3.649,0,0,1,4.864,3.748a3.652,3.652,0,0,1,3.021,1.3A5.925,5.925,0,0,1,8.957,8.778Zm-2.4-2.446a4.426,4.426,0,0,0-.411-2.189,1.389,1.389,0,0,0-1.282-.685,1.364,1.364,0,0,0-1.249.652,4.142,4.142,0,0,0-.427,2.04v2.941a4.646,4.646,0,0,0,.4,2.2,1.37,1.37,0,0,0,1.291.719,1.347,1.347,0,0,0,1.27-.69,4.535,4.535,0,0,0,.407-2.11ZM10.8,14.821a1.208,1.208,0,0,1,.386-.93,1.5,1.5,0,0,1,1.942,0,1.208,1.208,0,0,1,.386.93,1.191,1.191,0,0,1-.382.917,1.525,1.525,0,0,1-1.951,0A1.191,1.191,0,0,1,10.8,14.821Zm5.072-4.765.7-6.143h6.773v2H18.536l-.3,2.6a3.8,3.8,0,0,1,1.818-.457,3.484,3.484,0,0,1,2.706,1.071,4.277,4.277,0,0,1,.979,3,4.382,4.382,0,0,1-.494,2.1,3.486,3.486,0,0,1-1.415,1.436,4.418,4.418,0,0,1-2.175.51,4.692,4.692,0,0,1-2.034-.444,3.607,3.607,0,0,1-1.482-1.249,3.4,3.4,0,0,1-.577-1.834h2.374a1.773,1.773,0,0,0,.527,1.175,1.671,1.671,0,0,0,1.183.419,1.475,1.475,0,0,0,1.253-.585,2.711,2.711,0,0,0,.44-1.656,2.242,2.242,0,0,0-.506-1.577A1.858,1.858,0,0,0,19.4,9.866a2.077,2.077,0,0,0-1.386.448l-.232.216ZM4.341,33.7l1.511-2.681H8.417l-2.557,4.4L8.525,40H5.952l-1.6-2.822L2.756,40H.174l2.665-4.582-2.548-4.4H2.864Z" transform="translate(314 250.125)" fill="#636363"/>
        <path id="Trazado_604957" data-name="Trazado 604957" d="M8.957,11a6.123,6.123,0,0,1-1.038,3.835,3.622,3.622,0,0,1-3.038,1.328,3.647,3.647,0,0,1-3.021-1.3A5.943,5.943,0,0,1,.789,11.127V8.9A6.042,6.042,0,0,1,1.839,5.06,3.649,3.649,0,0,1,4.864,3.748a3.652,3.652,0,0,1,3.021,1.3A5.925,5.925,0,0,1,8.957,8.778Zm-2.4-2.446a4.426,4.426,0,0,0-.411-2.189,1.389,1.389,0,0,0-1.282-.685,1.364,1.364,0,0,0-1.249.652,4.142,4.142,0,0,0-.427,2.04v2.941a4.646,4.646,0,0,0,.4,2.2,1.37,1.37,0,0,0,1.291.719,1.347,1.347,0,0,0,1.27-.69,4.535,4.535,0,0,0,.407-2.11Z" transform="translate(400 250.125)" fill="#636363"/>
        <path id="Trazado_213249" data-name="Trazado 213249" d="M-6402-3242h-332.824" transform="translate(6790.438 3364.22)" fill="none" stroke="#4162b0" stroke-width="2"/>
        <path id="Trazado_213250" data-name="Trazado 213250" d="M244.159,0H0" transform="translate(226.531 0.141) rotate(90)" fill="none" stroke="#4162b0" stroke-width="2"/>
        <path id="Trazado_213251" data-name="Trazado 213251" d="M-6637.932-3340.707h232.765v190.823" transform="translate(6692.729 3394.461)" fill="none" stroke="#304c8e" stroke-width="3" stroke-dasharray="4"/>
        <path id="Trazado_213252" data-name="Trazado 213252" d="M-6637.934-3340.707h95.722v133.77" transform="translate(6692.73 3451.339)" fill="none" stroke="#304c8e" stroke-width="3" stroke-dasharray="4"/>
        <path id="Trazado_213253" data-name="Trazado 213253" d="M-6637.934-3340.707h49.531v60.949" transform="translate(6692.73 3523.477)" fill="none" stroke="#304c8e" stroke-width="3" stroke-dasharray="4"/>
        <path id="Trazado_604958" data-name="Trazado 604958" d="M0,0H77.508V22.194H0Z" transform="translate(149.023 0.141)" fill="#60cb28"/>
        <path id="Trazado_604959" data-name="Trazado 604959" d="M0,0H103.01V22.335H0Z" transform="translate(302.424 0)" fill="#60cb28"/>
        <path id="Trazado_604960" data-name="Trazado 604960" d="M0,0H64.508V24.566H0Z" transform="translate(162.023 122.22)" fill="#60cb28"/>
        <path id="Trazado_604961" data-name="Trazado 604961" d="M0,0H86V25H0Z" transform="translate(302 122.125)" fill="#60cb28"/>
        <path id="Trazado_604962" data-name="Trazado 604962" d="M4.277,15H2.309V3.625H4.277ZM8.285,6.547l.055.977A3.039,3.039,0,0,1,10.8,6.391q2.641,0,2.688,3.023V15h-1.9V9.523a1.741,1.741,0,0,0-.348-1.191,1.462,1.462,0,0,0-1.137-.387A1.829,1.829,0,0,0,8.395,8.984V15H6.5V6.547ZM17.8,4.492V6.547h1.492V7.953H17.8v4.719a1.039,1.039,0,0,0,.191.7.888.888,0,0,0,.684.215,2.925,2.925,0,0,0,.664-.078v1.469a4.676,4.676,0,0,1-1.25.18q-2.188,0-2.187-2.414V7.953H14.512V6.547H15.9V4.492Zm6.664,10.664a3.928,3.928,0,0,1-2.926-1.137,4.124,4.124,0,0,1-1.121-3.027v-.234A5.072,5.072,0,0,1,20.906,8.5a3.716,3.716,0,0,1,1.371-1.551,3.625,3.625,0,0,1,1.969-.555,3.318,3.318,0,0,1,2.668,1.1,4.658,4.658,0,0,1,.941,3.117v.766H22.332a2.539,2.539,0,0,0,.7,1.656,2.1,2.1,0,0,0,1.543.609A2.571,2.571,0,0,0,26.7,12.586l1.023.977a3.418,3.418,0,0,1-1.355,1.176A4.244,4.244,0,0,1,24.465,15.156Zm-.227-7.242a1.6,1.6,0,0,0-1.262.547,2.835,2.835,0,0,0-.613,1.523H25.98V9.844A2.307,2.307,0,0,0,25.473,8.4,1.586,1.586,0,0,0,24.238,7.914Zm9.516.367a4.7,4.7,0,0,0-.773-.062,1.741,1.741,0,0,0-1.758,1V15h-1.9V6.547h1.813l.047.945a2.139,2.139,0,0,1,1.906-1.1,1.777,1.777,0,0,1,.672.109Zm5.625,0a4.7,4.7,0,0,0-.773-.062,1.741,1.741,0,0,0-1.758,1V15h-1.9V6.547h1.813l.047.945a2.139,2.139,0,0,1,1.906-1.1,1.777,1.777,0,0,1,.672.109Zm.563,2.414a4.984,4.984,0,0,1,.492-2.238,3.6,3.6,0,0,1,1.383-1.531,3.9,3.9,0,0,1,2.047-.535,3.692,3.692,0,0,1,2.777,1.1,4.333,4.333,0,0,1,1.152,2.922l.008.445a5.029,5.029,0,0,1-.48,2.234,3.551,3.551,0,0,1-1.375,1.523,3.925,3.925,0,0,1-2.066.539,3.667,3.667,0,0,1-2.863-1.191,4.563,4.563,0,0,1-1.074-3.176Zm1.9.164a3.406,3.406,0,0,0,.539,2.043,1.752,1.752,0,0,0,1.5.738,1.733,1.733,0,0,0,1.5-.75,3.762,3.762,0,0,0,.535-2.2,3.362,3.362,0,0,0-.551-2.031,1.856,1.856,0,0,0-2.973-.012A3.691,3.691,0,0,0,41.84,10.859Zm7.234-.148A4.944,4.944,0,0,1,50,7.566a2.971,2.971,0,0,1,2.457-1.176A2.784,2.784,0,0,1,54.73,7.4l.086-.852h1.711v8.2a3.406,3.406,0,0,1-1.035,2.625,3.943,3.943,0,0,1-2.793.961,4.5,4.5,0,0,1-1.816-.387,3.228,3.228,0,0,1-1.348-1.012l.9-1.141a2.713,2.713,0,0,0,2.156,1.039,2.1,2.1,0,0,0,1.492-.512,1.961,1.961,0,0,0,.547-1.5v-.57a2.8,2.8,0,0,1-2.187.914,2.964,2.964,0,0,1-2.426-1.18A5.1,5.1,0,0,1,49.074,10.711Zm1.891.164a3.4,3.4,0,0,0,.52,2,1.671,1.671,0,0,0,1.441.73,1.827,1.827,0,0,0,1.7-.984V8.906a1.8,1.8,0,0,0-1.687-.961,1.677,1.677,0,0,0-1.457.742A3.811,3.811,0,0,0,50.965,10.875ZM63.527,15a2.93,2.93,0,0,1-.219-.789,3.193,3.193,0,0,1-4.3.219,2.325,2.325,0,0,1-.8-1.8,2.4,2.4,0,0,1,1-2.074,4.865,4.865,0,0,1,2.871-.723h1.164V9.281a1.481,1.481,0,0,0-.367-1.051,1.456,1.456,0,0,0-1.117-.395A1.672,1.672,0,0,0,60.7,8.16a1,1,0,0,0-.414.824h-1.9a2.107,2.107,0,0,1,.461-1.3A3.071,3.071,0,0,1,60.1,6.734a4.4,4.4,0,0,1,1.77-.344,3.547,3.547,0,0,1,2.367.746,2.661,2.661,0,0,1,.906,2.1v3.813a4.321,4.321,0,0,0,.32,1.82V15Zm-2.086-1.367a2.159,2.159,0,0,0,1.059-.273,1.827,1.827,0,0,0,.746-.734V11.031H62.223a2.8,2.8,0,0,0-1.586.367,1.189,1.189,0,0,0-.531,1.039,1.109,1.109,0,0,0,.363.871A1.407,1.407,0,0,0,61.441,13.633Zm7.453-7.086.055.977A3.039,3.039,0,0,1,71.41,6.391q2.641,0,2.688,3.023V15H72.2V9.523a1.741,1.741,0,0,0-.348-1.191,1.462,1.462,0,0,0-1.137-.387A1.829,1.829,0,0,0,69,8.984V15h-1.9V6.547ZM78.41,4.492V6.547H79.9V7.953H78.41v4.719a1.039,1.039,0,0,0,.191.7.888.888,0,0,0,.684.215,2.925,2.925,0,0,0,.664-.078v1.469a4.676,4.676,0,0,1-1.25.18q-2.188,0-2.187-2.414V7.953H75.121V6.547h1.391V4.492Zm6.664,10.664a3.928,3.928,0,0,1-2.926-1.137,4.124,4.124,0,0,1-1.121-3.027v-.234A5.072,5.072,0,0,1,81.516,8.5a3.716,3.716,0,0,1,1.371-1.551,3.625,3.625,0,0,1,1.969-.555,3.318,3.318,0,0,1,2.668,1.1,4.658,4.658,0,0,1,.941,3.117v.766H82.941a2.539,2.539,0,0,0,.7,1.656,2.1,2.1,0,0,0,1.543.609,2.571,2.571,0,0,0,2.125-1.055l1.023.977a3.418,3.418,0,0,1-1.355,1.176A4.244,4.244,0,0,1,85.074,15.156Zm-.227-7.242a1.6,1.6,0,0,0-1.262.547,2.835,2.835,0,0,0-.613,1.523H86.59V9.844A2.307,2.307,0,0,0,86.082,8.4,1.586,1.586,0,0,0,84.848,7.914Z" transform="translate(310.053 0.693)" fill="#12263f"/>
        <path id="Trazado_604963" data-name="Trazado 604963" d="M19.738,10.781V15H17.762V3.625h4.352a4.4,4.4,0,0,1,3.027.993,3.34,3.34,0,0,1,1.121,2.628,3.229,3.229,0,0,1-1.1,2.6,4.613,4.613,0,0,1-3.074.931Zm0-1.594h2.375a2.339,2.339,0,0,0,1.609-.5,1.823,1.823,0,0,0,.555-1.434,1.967,1.967,0,0,0-.562-1.473,2.168,2.168,0,0,0-1.547-.566h-2.43Zm11.688,5.969A3.928,3.928,0,0,1,28.5,14.02a4.124,4.124,0,0,1-1.121-3.027v-.234A5.072,5.072,0,0,1,27.867,8.5a3.716,3.716,0,0,1,1.371-1.551,3.625,3.625,0,0,1,1.969-.555,3.318,3.318,0,0,1,2.668,1.1,4.658,4.658,0,0,1,.941,3.117v.766H29.293a2.539,2.539,0,0,0,.7,1.656,2.1,2.1,0,0,0,1.543.609,2.571,2.571,0,0,0,2.125-1.055l1.023.977a3.418,3.418,0,0,1-1.355,1.176A4.244,4.244,0,0,1,31.426,15.156ZM31.2,7.914a1.6,1.6,0,0,0-1.262.547,2.835,2.835,0,0,0-.613,1.523h3.617V9.844A2.307,2.307,0,0,0,32.434,8.4,1.586,1.586,0,0,0,31.2,7.914Zm9.516.367a4.7,4.7,0,0,0-.773-.062,1.741,1.741,0,0,0-1.758,1V15h-1.9V6.547H38.1l.047.945a2.139,2.139,0,0,1,1.906-1.1,1.777,1.777,0,0,1,.672.109Zm5.625,0a4.7,4.7,0,0,0-.773-.062,1.741,1.741,0,0,0-1.758,1V15h-1.9V6.547h1.813l.047.945a2.139,2.139,0,0,1,1.906-1.1,1.777,1.777,0,0,1,.672.109ZM46.9,10.7a4.984,4.984,0,0,1,.492-2.238,3.6,3.6,0,0,1,1.383-1.531,3.9,3.9,0,0,1,2.047-.535,3.692,3.692,0,0,1,2.777,1.1,4.333,4.333,0,0,1,1.152,2.922l.008.445a5.029,5.029,0,0,1-.48,2.234,3.551,3.551,0,0,1-1.375,1.523,3.925,3.925,0,0,1-2.066.539,3.667,3.667,0,0,1-2.863-1.191A4.563,4.563,0,0,1,46.9,10.789Zm1.9.164A3.406,3.406,0,0,0,49.34,12.9a1.752,1.752,0,0,0,1.5.738,1.733,1.733,0,0,0,1.5-.75,3.762,3.762,0,0,0,.535-2.2,3.362,3.362,0,0,0-.551-2.031,1.856,1.856,0,0,0-2.973-.012A3.691,3.691,0,0,0,48.8,10.859Z" transform="translate(309 123.125)" fill="#12263f"/>
        <path id="Trazado_213254" data-name="Trazado 213254" d="M-6373.224-3066.838h-362.185" transform="translate(6790.207 3311.25)" fill="none" stroke="#707070" stroke-width="2"/>
        <path id="Trazado_213255" data-name="Trazado 213255" d="M244.373,0H0" transform="translate(54.797 244.577) rotate(-90)" fill="none" stroke="#707070" stroke-width="2"/>
        <path id="Trazado_213256" data-name="Trazado 213256" d="M0,0H445V57.466H0Z" transform="translate(0 274.125)" fill="#7e10b8"/>
        <path id="Trazado_604948" data-name="Trazado 604948" d="M16.2,10.992V15H13.852V3.625h4.438a5.134,5.134,0,0,1,2.254.469,3.454,3.454,0,0,1,1.5,1.332,3.714,3.714,0,0,1,.523,1.965,3.266,3.266,0,0,1-1.145,2.637,4.767,4.767,0,0,1-3.168.965Zm0-1.9h2.094a2.059,2.059,0,0,0,1.418-.437,1.591,1.591,0,0,0,.488-1.25A1.876,1.876,0,0,0,19.7,6.055a1.839,1.839,0,0,0-1.359-.531H16.2ZM28.836,15a2.507,2.507,0,0,1-.227-.758,2.732,2.732,0,0,1-2.133.914,3,3,0,0,1-2.059-.719,2.312,2.312,0,0,1-.816-1.812,2.389,2.389,0,0,1,1-2.062,4.915,4.915,0,0,1,2.879-.727h1.039V9.352a1.393,1.393,0,0,0-.3-.937,1.183,1.183,0,0,0-.949-.352,1.345,1.345,0,0,0-.895.273.929.929,0,0,0-.324.75H23.789a2.268,2.268,0,0,1,.453-1.359,3,3,0,0,1,1.281-.98,4.669,4.669,0,0,1,1.859-.355,3.689,3.689,0,0,1,2.48.785,2.747,2.747,0,0,1,.918,2.207v3.664a4.041,4.041,0,0,0,.336,1.82V15Zm-1.867-1.57a1.945,1.945,0,0,0,.922-.223,1.462,1.462,0,0,0,.625-.6V11.156h-.844q-1.7,0-1.8,1.172l-.008.133a.9.9,0,0,0,.3.7A1.153,1.153,0,0,0,26.969,13.43Zm10.3-4.766a6.134,6.134,0,0,0-.812-.062,1.654,1.654,0,0,0-1.68.867V15H32.516V6.547h2.133l.063,1.008a2.092,2.092,0,0,1,1.883-1.164,2.366,2.366,0,0,1,.7.1Zm4.18-4.2V6.547h1.445V8.2H41.445v4.219a1.007,1.007,0,0,0,.18.672.9.9,0,0,0,.688.2,3.6,3.6,0,0,0,.664-.055v1.711a4.648,4.648,0,0,1-1.367.2,2.156,2.156,0,0,1-2.422-2.4V8.2H37.953V6.547h1.234V4.469ZM46.531,15H44.266V6.547h2.266Zm-2.4-10.641a1.112,1.112,0,0,1,.34-.836,1.465,1.465,0,0,1,1.848,0,1.105,1.105,0,0,1,.344.836,1.108,1.108,0,0,1-.348.844,1.448,1.448,0,0,1-1.836,0A1.108,1.108,0,0,1,44.133,4.359Zm7.773,8.977a1.481,1.481,0,0,0,1.016-.344,1.2,1.2,0,0,0,.406-.914h2.117a2.9,2.9,0,0,1-.469,1.574,3.093,3.093,0,0,1-1.262,1.109,3.949,3.949,0,0,1-1.77.395A3.67,3.67,0,0,1,49.086,14a4.56,4.56,0,0,1-1.047-3.184v-.148a4.508,4.508,0,0,1,1.039-3.117A3.627,3.627,0,0,1,51.93,6.391a3.555,3.555,0,0,1,2.543.9,3.2,3.2,0,0,1,.973,2.4H53.328a1.551,1.551,0,0,0-.406-1.072,1.51,1.51,0,0,0-2.223.163,3.333,3.333,0,0,0-.4,1.866v.235a3.375,3.375,0,0,0,.4,1.878A1.377,1.377,0,0,0,51.906,13.336ZM59.117,15H56.852V6.547h2.266Zm-2.4-10.641a1.112,1.112,0,0,1,.34-.836,1.465,1.465,0,0,1,1.848,0,1.105,1.105,0,0,1,.344.836A1.108,1.108,0,0,1,58.9,5.2a1.448,1.448,0,0,1-1.836,0A1.108,1.108,0,0,1,56.719,4.359Zm11.867,6.492A5.07,5.07,0,0,1,67.7,13.98,2.843,2.843,0,0,1,65.3,15.156a2.633,2.633,0,0,1-2.07-.891V18.25H60.977V6.547H63.07l.078.828a2.654,2.654,0,0,1,2.141-.984,2.862,2.862,0,0,1,2.43,1.156,5.207,5.207,0,0,1,.867,3.188Zm-2.258-.164a3.327,3.327,0,0,0-.418-1.82A1.361,1.361,0,0,0,64.7,8.227a1.479,1.479,0,0,0-1.461.813V12.5a1.5,1.5,0,0,0,1.477.836Q66.328,13.336,66.328,10.688ZM74.883,15a2.507,2.507,0,0,1-.227-.758,2.732,2.732,0,0,1-2.133.914,3,3,0,0,1-2.059-.719,2.312,2.312,0,0,1-.816-1.812,2.389,2.389,0,0,1,1-2.062,4.915,4.915,0,0,1,2.879-.727h1.039V9.352a1.393,1.393,0,0,0-.3-.937,1.183,1.183,0,0,0-.949-.352,1.345,1.345,0,0,0-.895.273.929.929,0,0,0-.324.75H69.836a2.268,2.268,0,0,1,.453-1.359,3,3,0,0,1,1.281-.98,4.669,4.669,0,0,1,1.859-.355,3.689,3.689,0,0,1,2.48.785,2.747,2.747,0,0,1,.918,2.207v3.664a4.041,4.041,0,0,0,.336,1.82V15Zm-1.867-1.57a1.945,1.945,0,0,0,.922-.223,1.462,1.462,0,0,0,.625-.6V11.156h-.844q-1.7,0-1.8,1.172l-.008.133a.9.9,0,0,0,.3.7A1.153,1.153,0,0,0,73.016,13.43Zm9.063-.094a1.481,1.481,0,0,0,1.016-.344,1.2,1.2,0,0,0,.406-.914h2.117a2.9,2.9,0,0,1-.469,1.574,3.093,3.093,0,0,1-1.262,1.109,3.949,3.949,0,0,1-1.77.395A3.67,3.67,0,0,1,79.258,14a4.56,4.56,0,0,1-1.047-3.184v-.148A4.508,4.508,0,0,1,79.25,7.555,3.627,3.627,0,0,1,82.1,6.391a3.555,3.555,0,0,1,2.543.9,3.2,3.2,0,0,1,.973,2.4H83.5a1.551,1.551,0,0,0-.406-1.072,1.51,1.51,0,0,0-2.223.163,3.333,3.333,0,0,0-.4,1.866v.235a3.375,3.375,0,0,0,.4,1.878A1.377,1.377,0,0,0,82.078,13.336ZM89.289,15H87.023V6.547h2.266Zm-2.4-10.641a1.112,1.112,0,0,1,.34-.836,1.465,1.465,0,0,1,1.848,0,1.105,1.105,0,0,1,.344.836,1.108,1.108,0,0,1-.348.844,1.448,1.448,0,0,1-1.836,0A1.108,1.108,0,0,1,86.891,4.359ZM90.8,10.7a5.013,5.013,0,0,1,.484-2.242A3.546,3.546,0,0,1,92.676,6.93a4.069,4.069,0,0,1,2.113-.539,3.849,3.849,0,0,1,2.793,1.047,4.2,4.2,0,0,1,1.207,2.844l.016.578a4.418,4.418,0,0,1-1.086,3.121,4.209,4.209,0,0,1-5.832,0A4.5,4.5,0,0,1,90.8,10.8Zm2.258.16a3.16,3.16,0,0,0,.453,1.843,1.628,1.628,0,0,0,2.578.008,3.457,3.457,0,0,0,.461-2.015,3.128,3.128,0,0,0-.461-1.831,1.5,1.5,0,0,0-1.3-.649,1.474,1.474,0,0,0-1.281.646A3.516,3.516,0,0,0,93.055,10.856ZM95.234,3H97.7L95.531,5.422H93.7Zm7.039,3.547.07.977a2.951,2.951,0,0,1,2.43-1.133,2.453,2.453,0,0,1,2,.789,3.682,3.682,0,0,1,.672,2.359V15h-2.258V9.594a1.465,1.465,0,0,0-.312-1.043,1.4,1.4,0,0,0-1.039-.324,1.553,1.553,0,0,0-1.43.813V15h-2.258V6.547Zm10.516,4.164a5.094,5.094,0,0,1,.887-3.148A2.877,2.877,0,0,1,116.1,6.391a2.589,2.589,0,0,1,2.039.922V3h2.266V15h-2.039l-.109-.9a2.657,2.657,0,0,1-2.172,1.055,2.869,2.869,0,0,1-2.395-1.176A5.258,5.258,0,0,1,112.789,10.711Zm2.258.168a3.337,3.337,0,0,0,.414,1.823,1.349,1.349,0,0,0,1.2.634,1.511,1.511,0,0,0,1.477-.884V9.111a1.489,1.489,0,0,0-1.461-.884Q115.047,8.227,115.047,10.879Zm11,4.277a4.15,4.15,0,0,1-3.027-1.141,4.054,4.054,0,0,1-1.168-3.039v-.219a5.106,5.106,0,0,1,.492-2.277,3.612,3.612,0,0,1,1.395-1.547,3.914,3.914,0,0,1,2.059-.543,3.508,3.508,0,0,1,2.73,1.094,4.444,4.444,0,0,1,1,3.1v.922h-5.383a2.1,2.1,0,0,0,.66,1.328,2,2,0,0,0,1.395.5,2.437,2.437,0,0,0,2.039-.945l1.109,1.242a3.389,3.389,0,0,1-1.375,1.121A4.511,4.511,0,0,1,126.047,15.156Zm-.258-6.945a1.411,1.411,0,0,0-1.09.455,2.357,2.357,0,0,0-.535,1.3H127.3V9.788a1.681,1.681,0,0,0-.406-1.165A1.456,1.456,0,0,0,125.789,8.211Zm11.117-1.664.07.945a2.971,2.971,0,0,1,2.43-1.1,2.255,2.255,0,0,1,2.242,1.289,2.9,2.9,0,0,1,2.539-1.289,2.521,2.521,0,0,1,2.047.8,3.681,3.681,0,0,1,.672,2.41V15h-2.266V9.609a1.61,1.61,0,0,0-.281-1.051,1.246,1.246,0,0,0-.992-.332,1.409,1.409,0,0,0-1.406.969l.008,5.8h-2.258V9.617a1.59,1.59,0,0,0-.289-1.062,1.259,1.259,0,0,0-.984-.328,1.463,1.463,0,0,0-1.391.8V15h-2.258V6.547Zm15.625,8.609a4.15,4.15,0,0,1-3.027-1.141,4.054,4.054,0,0,1-1.168-3.039v-.219a5.106,5.106,0,0,1,.492-2.277,3.612,3.612,0,0,1,1.395-1.547,3.914,3.914,0,0,1,2.059-.543,3.508,3.508,0,0,1,2.73,1.094,4.444,4.444,0,0,1,1,3.1v.922h-5.383a2.1,2.1,0,0,0,.66,1.328,2,2,0,0,0,1.395.5,2.437,2.437,0,0,0,2.039-.945l1.109,1.242a3.389,3.389,0,0,1-1.375,1.121A4.511,4.511,0,0,1,152.531,15.156Zm-.258-6.945a1.411,1.411,0,0,0-1.09.455,2.357,2.357,0,0,0-.535,1.3h3.141V9.788a1.681,1.681,0,0,0-.406-1.165A1.456,1.456,0,0,0,152.273,8.211Zm9.766.453a6.134,6.134,0,0,0-.812-.062,1.654,1.654,0,0,0-1.68.867V15h-2.258V6.547h2.133l.063,1.008a2.092,2.092,0,0,1,1.883-1.164,2.366,2.366,0,0,1,.7.1Zm4.453,4.672a1.481,1.481,0,0,0,1.016-.344,1.2,1.2,0,0,0,.406-.914h2.117a2.9,2.9,0,0,1-.469,1.574,3.093,3.093,0,0,1-1.262,1.109,3.949,3.949,0,0,1-1.77.395A3.67,3.67,0,0,1,163.672,14a4.56,4.56,0,0,1-1.047-3.184v-.148a4.508,4.508,0,0,1,1.039-3.117,3.627,3.627,0,0,1,2.852-1.164,3.555,3.555,0,0,1,2.543.9,3.2,3.2,0,0,1,.973,2.4h-2.117a1.551,1.551,0,0,0-.406-1.072,1.51,1.51,0,0,0-2.223.163,3.333,3.333,0,0,0-.4,1.866v.235a3.375,3.375,0,0,0,.4,1.878A1.377,1.377,0,0,0,166.492,13.336ZM176.219,15a2.507,2.507,0,0,1-.227-.758,2.732,2.732,0,0,1-2.133.914,3,3,0,0,1-2.059-.719,2.312,2.312,0,0,1-.816-1.812,2.389,2.389,0,0,1,1-2.062,4.915,4.915,0,0,1,2.879-.727H175.9V9.352a1.393,1.393,0,0,0-.3-.937,1.183,1.183,0,0,0-.949-.352,1.345,1.345,0,0,0-.895.273.929.929,0,0,0-.324.75h-2.258a2.268,2.268,0,0,1,.453-1.359,3,3,0,0,1,1.281-.98,4.669,4.669,0,0,1,1.859-.355,3.689,3.689,0,0,1,2.48.785,2.747,2.747,0,0,1,.918,2.207v3.664a4.041,4.041,0,0,0,.336,1.82V15Zm-1.867-1.57a1.945,1.945,0,0,0,.922-.223,1.462,1.462,0,0,0,.625-.6V11.156h-.844q-1.7,0-1.8,1.172l-.008.133a.9.9,0,0,0,.3.7A1.153,1.153,0,0,0,174.352,13.43Zm5.2-2.719a5.094,5.094,0,0,1,.887-3.148,2.877,2.877,0,0,1,2.426-1.172,2.589,2.589,0,0,1,2.039.922V3h2.266V15h-2.039l-.109-.9a2.657,2.657,0,0,1-2.172,1.055,2.869,2.869,0,0,1-2.395-1.176A5.258,5.258,0,0,1,179.547,10.711Zm2.258.168a3.337,3.337,0,0,0,.414,1.823,1.349,1.349,0,0,0,1.2.634,1.511,1.511,0,0,0,1.477-.884V9.111a1.489,1.489,0,0,0-1.461-.884Q181.8,8.227,181.8,10.879Zm6.758-.184a5.013,5.013,0,0,1,.484-2.242,3.546,3.546,0,0,1,1.395-1.523,4.069,4.069,0,0,1,2.113-.539,3.849,3.849,0,0,1,2.793,1.047,4.2,4.2,0,0,1,1.207,2.844l.016.578a4.418,4.418,0,0,1-1.086,3.121,4.209,4.209,0,0,1-5.832,0,4.5,4.5,0,0,1-1.09-3.187Zm2.258.16a3.16,3.16,0,0,0,.453,1.843,1.628,1.628,0,0,0,2.578.008,3.457,3.457,0,0,0,.461-2.015,3.128,3.128,0,0,0-.461-1.831,1.5,1.5,0,0,0-1.3-.649,1.474,1.474,0,0,0-1.281.646A3.516,3.516,0,0,0,190.82,10.856ZM202.563,15V8.2H201.3V6.547h1.258V5.828a2.918,2.918,0,0,1,.816-2.207,3.162,3.162,0,0,1,2.285-.785,5.278,5.278,0,0,1,1.148.156l-.023,1.75a2.878,2.878,0,0,0-.687-.07q-1.273,0-1.273,1.2v.68h1.68V8.2h-1.68V15Zm9.867-6.336a6.134,6.134,0,0,0-.812-.062,1.654,1.654,0,0,0-1.68.867V15H207.68V6.547h2.133l.063,1.008a2.092,2.092,0,0,1,1.883-1.164,2.366,2.366,0,0,1,.7.1Zm4.828,6.492a4.15,4.15,0,0,1-3.027-1.141,4.054,4.054,0,0,1-1.168-3.039v-.219a5.106,5.106,0,0,1,.492-2.277,3.612,3.612,0,0,1,1.395-1.547,3.914,3.914,0,0,1,2.059-.543,3.508,3.508,0,0,1,2.73,1.094,4.444,4.444,0,0,1,1,3.1v.922h-5.383a2.1,2.1,0,0,0,.66,1.328,2,2,0,0,0,1.395.5,2.437,2.437,0,0,0,2.039-.945l1.109,1.242a3.389,3.389,0,0,1-1.375,1.121A4.511,4.511,0,0,1,217.258,15.156ZM217,8.211a1.411,1.411,0,0,0-1.09.455,2.357,2.357,0,0,0-.535,1.3h3.141V9.788a1.681,1.681,0,0,0-.406-1.165A1.456,1.456,0,0,0,217,8.211Zm7.094-1.664.07.977a2.951,2.951,0,0,1,2.43-1.133,2.453,2.453,0,0,1,2,.789,3.682,3.682,0,0,1,.672,2.359V15h-2.258V9.594a1.465,1.465,0,0,0-.312-1.043,1.4,1.4,0,0,0-1.039-.324,1.553,1.553,0,0,0-1.43.813V15h-2.258V6.547Zm9.586-2.078V6.547h1.445V8.2H233.68v4.219a1.007,1.007,0,0,0,.18.672.9.9,0,0,0,.688.2,3.6,3.6,0,0,0,.664-.055v1.711a4.648,4.648,0,0,1-1.367.2,2.156,2.156,0,0,1-2.422-2.4V8.2h-1.234V6.547h1.234V4.469Zm6.594,10.688a4.15,4.15,0,0,1-3.027-1.141,4.054,4.054,0,0,1-1.168-3.039v-.219a5.106,5.106,0,0,1,.492-2.277,3.612,3.612,0,0,1,1.395-1.547,3.914,3.914,0,0,1,2.059-.543,3.508,3.508,0,0,1,2.73,1.094,4.444,4.444,0,0,1,1,3.1v.922h-5.383a2.1,2.1,0,0,0,.66,1.328,2,2,0,0,0,1.395.5,2.437,2.437,0,0,0,2.039-.945l1.109,1.242a3.389,3.389,0,0,1-1.375,1.121A4.511,4.511,0,0,1,240.273,15.156Zm-.258-6.945a1.411,1.411,0,0,0-1.09.455,2.357,2.357,0,0,0-.535,1.3h3.141V9.788a1.681,1.681,0,0,0-.406-1.165A1.456,1.456,0,0,0,240.016,8.211ZM253.914,15a2.507,2.507,0,0,1-.227-.758,2.732,2.732,0,0,1-2.133.914,3,3,0,0,1-2.059-.719,2.312,2.312,0,0,1-.816-1.812,2.389,2.389,0,0,1,1-2.062,4.915,4.915,0,0,1,2.879-.727h1.039V9.352a1.393,1.393,0,0,0-.3-.937,1.183,1.183,0,0,0-.949-.352,1.345,1.345,0,0,0-.895.273.929.929,0,0,0-.324.75h-2.258a2.268,2.268,0,0,1,.453-1.359,3,3,0,0,1,1.281-.98,4.669,4.669,0,0,1,1.859-.355,3.689,3.689,0,0,1,2.48.785,2.747,2.747,0,0,1,.918,2.207v3.664a4.041,4.041,0,0,0,.336,1.82V15Zm-1.867-1.57a1.945,1.945,0,0,0,.922-.223,1.462,1.462,0,0,0,.625-.6V11.156h-.844q-1.7,0-1.8,1.172l-.008.133a.9.9,0,0,0,.3.7A1.153,1.153,0,0,0,252.047,13.43ZM263.961,15H261.7V3h2.266Zm1.508-4.3a5.013,5.013,0,0,1,.484-2.242,3.546,3.546,0,0,1,1.395-1.523,4.069,4.069,0,0,1,2.113-.539,3.849,3.849,0,0,1,2.793,1.047,4.2,4.2,0,0,1,1.207,2.844l.016.578a4.418,4.418,0,0,1-1.086,3.121,4.209,4.209,0,0,1-5.832,0,4.5,4.5,0,0,1-1.09-3.187Zm2.258.16a3.16,3.16,0,0,0,.453,1.843,1.628,1.628,0,0,0,2.578.008,3.458,3.458,0,0,0,.461-2.015,3.128,3.128,0,0,0-.461-1.831,1.5,1.5,0,0,0-1.3-.649,1.474,1.474,0,0,0-1.281.646A3.516,3.516,0,0,0,267.727,10.856Zm11.719,1.808a.727.727,0,0,0-.41-.652,4.659,4.659,0,0,0-1.316-.426q-3.016-.633-3.016-2.562a2.323,2.323,0,0,1,.934-1.879,3.766,3.766,0,0,1,2.441-.754,4.053,4.053,0,0,1,2.574.758,2.388,2.388,0,0,1,.965,1.969h-2.258a1.092,1.092,0,0,0-.312-.8A1.322,1.322,0,0,0,278.07,8a1.351,1.351,0,0,0-.883.258.814.814,0,0,0-.312.656.7.7,0,0,0,.355.605,3.657,3.657,0,0,0,1.2.4,9.8,9.8,0,0,1,1.422.379,2.336,2.336,0,0,1,1.789,2.273,2.2,2.2,0,0,1-.992,1.871,4.28,4.28,0,0,1-2.562.715,4.47,4.47,0,0,1-1.887-.379,3.166,3.166,0,0,1-1.293-1.039,2.414,2.414,0,0,1-.469-1.426h2.141a1.179,1.179,0,0,0,.445.922,1.766,1.766,0,0,0,1.109.32,1.635,1.635,0,0,0,.98-.246A.766.766,0,0,0,279.445,12.664Zm11.148.672a1.481,1.481,0,0,0,1.016-.344,1.2,1.2,0,0,0,.406-.914h2.117a2.9,2.9,0,0,1-.469,1.574,3.093,3.093,0,0,1-1.262,1.109,3.949,3.949,0,0,1-1.77.395A3.67,3.67,0,0,1,287.773,14a4.56,4.56,0,0,1-1.047-3.184v-.148a4.508,4.508,0,0,1,1.039-3.117,3.627,3.627,0,0,1,2.852-1.164,3.555,3.555,0,0,1,2.543.9,3.2,3.2,0,0,1,.973,2.4h-2.117a1.551,1.551,0,0,0-.406-1.072,1.51,1.51,0,0,0-2.223.163,3.333,3.333,0,0,0-.4,1.866v.235a3.375,3.375,0,0,0,.4,1.878A1.377,1.377,0,0,0,290.594,13.336ZM295.07,10.7a5.013,5.013,0,0,1,.484-2.242,3.546,3.546,0,0,1,1.395-1.523,4.069,4.069,0,0,1,2.113-.539,3.849,3.849,0,0,1,2.793,1.047,4.2,4.2,0,0,1,1.207,2.844l.016.578a4.418,4.418,0,0,1-1.086,3.121,4.209,4.209,0,0,1-5.832,0,4.5,4.5,0,0,1-1.09-3.187Zm2.258.16a3.16,3.16,0,0,0,.453,1.843,1.628,1.628,0,0,0,2.578.008,3.458,3.458,0,0,0,.461-2.015,3.128,3.128,0,0,0-.461-1.831,1.5,1.5,0,0,0-1.3-.649,1.474,1.474,0,0,0-1.281.646A3.516,3.516,0,0,0,297.328,10.856Zm9.219-4.309.07.977a2.951,2.951,0,0,1,2.43-1.133,2.453,2.453,0,0,1,2,.789,3.681,3.681,0,0,1,.672,2.359V15h-2.258V9.594a1.465,1.465,0,0,0-.312-1.043,1.4,1.4,0,0,0-1.039-.324,1.553,1.553,0,0,0-1.43.813V15h-2.258V6.547Zm11.461,6.117a.727.727,0,0,0-.41-.652,4.659,4.659,0,0,0-1.316-.426q-3.016-.633-3.016-2.562a2.323,2.323,0,0,1,.934-1.879,3.766,3.766,0,0,1,2.441-.754,4.053,4.053,0,0,1,2.574.758,2.388,2.388,0,0,1,.965,1.969h-2.258a1.092,1.092,0,0,0-.312-.8A1.322,1.322,0,0,0,316.633,8a1.351,1.351,0,0,0-.883.258.814.814,0,0,0-.312.656.7.7,0,0,0,.355.605,3.657,3.657,0,0,0,1.2.4,9.8,9.8,0,0,1,1.422.379A2.336,2.336,0,0,1,320.2,12.57a2.2,2.2,0,0,1-.992,1.871,4.28,4.28,0,0,1-2.562.715,4.47,4.47,0,0,1-1.887-.379,3.166,3.166,0,0,1-1.293-1.039A2.414,2.414,0,0,1,313,12.313h2.141a1.179,1.179,0,0,0,.445.922,1.766,1.766,0,0,0,1.109.32,1.635,1.635,0,0,0,.98-.246A.766.766,0,0,0,318.008,12.664ZM324.039,15h-2.266V6.547h2.266Zm-2.4-10.641a1.112,1.112,0,0,1,.34-.836,1.465,1.465,0,0,1,1.848,0,1.105,1.105,0,0,1,.344.836,1.108,1.108,0,0,1-.348.844,1.448,1.448,0,0,1-1.836,0A1.108,1.108,0,0,1,321.641,4.359Zm3.906,6.352a5.094,5.094,0,0,1,.887-3.148,2.877,2.877,0,0,1,2.426-1.172,2.589,2.589,0,0,1,2.039.922V3h2.266V15h-2.039l-.109-.9a2.657,2.657,0,0,1-2.172,1.055,2.869,2.869,0,0,1-2.395-1.176A5.258,5.258,0,0,1,325.547,10.711Zm2.258.168a3.337,3.337,0,0,0,.414,1.823,1.349,1.349,0,0,0,1.2.634,1.511,1.511,0,0,0,1.477-.884V9.111a1.489,1.489,0,0,0-1.461-.884Q327.8,8.227,327.8,10.879Zm11,4.277a4.15,4.15,0,0,1-3.027-1.141,4.054,4.054,0,0,1-1.168-3.039v-.219A5.106,5.106,0,0,1,335.1,8.48,3.612,3.612,0,0,1,336.5,6.934a3.914,3.914,0,0,1,2.059-.543,3.508,3.508,0,0,1,2.73,1.094,4.444,4.444,0,0,1,1,3.1v.922H336.9a2.1,2.1,0,0,0,.66,1.328,2,2,0,0,0,1.395.5,2.437,2.437,0,0,0,2.039-.945l1.109,1.242a3.389,3.389,0,0,1-1.375,1.121A4.511,4.511,0,0,1,338.8,15.156Zm-.258-6.945a1.411,1.411,0,0,0-1.09.455,2.357,2.357,0,0,0-.535,1.3h3.141V9.788a1.681,1.681,0,0,0-.406-1.165A1.456,1.456,0,0,0,338.547,8.211Zm9.766.453A6.134,6.134,0,0,0,347.5,8.6a1.654,1.654,0,0,0-1.68.867V15h-2.258V6.547H345.7l.063,1.008a2.092,2.092,0,0,1,1.883-1.164,2.366,2.366,0,0,1,.7.1ZM354.063,15a2.508,2.508,0,0,1-.227-.758,2.732,2.732,0,0,1-2.133.914,3,3,0,0,1-2.059-.719,2.312,2.312,0,0,1-.816-1.812,2.389,2.389,0,0,1,1-2.062,4.915,4.915,0,0,1,2.879-.727h1.039V9.352a1.393,1.393,0,0,0-.3-.937,1.183,1.183,0,0,0-.949-.352,1.345,1.345,0,0,0-.895.273.929.929,0,0,0-.324.75h-2.258a2.268,2.268,0,0,1,.453-1.359,3,3,0,0,1,1.281-.98,4.669,4.669,0,0,1,1.859-.355,3.689,3.689,0,0,1,2.48.785,2.747,2.747,0,0,1,.918,2.207v3.664a4.041,4.041,0,0,0,.336,1.82V15ZM352.2,13.43a1.945,1.945,0,0,0,.922-.223,1.462,1.462,0,0,0,.625-.6V11.156H352.9q-1.7,0-1.8,1.172l-.008.133a.9.9,0,0,0,.3.7A1.153,1.153,0,0,0,352.2,13.43Zm5.2-2.719a5.094,5.094,0,0,1,.887-3.148A2.877,2.877,0,0,1,360.7,6.391a2.589,2.589,0,0,1,2.039.922V3h2.266V15h-2.039l-.109-.9a2.657,2.657,0,0,1-2.172,1.055,2.869,2.869,0,0,1-2.395-1.176A5.258,5.258,0,0,1,357.391,10.711Zm2.258.168a3.337,3.337,0,0,0,.414,1.823,1.349,1.349,0,0,0,1.2.634,1.511,1.511,0,0,0,1.477-.884V9.111a1.489,1.489,0,0,0-1.461-.884Q359.648,8.227,359.648,10.879Zm6.758-.184a5.013,5.013,0,0,1,.484-2.242,3.546,3.546,0,0,1,1.395-1.523,4.069,4.069,0,0,1,2.113-.539,3.849,3.849,0,0,1,2.793,1.047,4.2,4.2,0,0,1,1.207,2.844l.016.578a4.418,4.418,0,0,1-1.086,3.121,4.209,4.209,0,0,1-5.832,0,4.5,4.5,0,0,1-1.09-3.187Zm2.258.16a3.16,3.16,0,0,0,.453,1.843,1.628,1.628,0,0,0,2.578.008,3.458,3.458,0,0,0,.461-2.015A3.128,3.128,0,0,0,371.7,8.86a1.5,1.5,0,0,0-1.3-.649,1.474,1.474,0,0,0-1.281.646A3.516,3.516,0,0,0,368.664,10.856Zm11.719,1.808a.727.727,0,0,0-.41-.652,4.659,4.659,0,0,0-1.316-.426q-3.016-.633-3.016-2.562a2.323,2.323,0,0,1,.934-1.879,3.766,3.766,0,0,1,2.441-.754,4.053,4.053,0,0,1,2.574.758,2.388,2.388,0,0,1,.965,1.969H380.3a1.092,1.092,0,0,0-.312-.8A1.322,1.322,0,0,0,379.008,8a1.351,1.351,0,0,0-.883.258.814.814,0,0,0-.312.656.7.7,0,0,0,.355.605,3.657,3.657,0,0,0,1.2.4,9.8,9.8,0,0,1,1.422.379,2.336,2.336,0,0,1,1.789,2.273,2.2,2.2,0,0,1-.992,1.871,4.28,4.28,0,0,1-2.562.715,4.47,4.47,0,0,1-1.887-.379,3.166,3.166,0,0,1-1.293-1.039,2.414,2.414,0,0,1-.469-1.426h2.141a1.179,1.179,0,0,0,.445.922,1.766,1.766,0,0,0,1.109.32,1.635,1.635,0,0,0,.98-.246A.766.766,0,0,0,380.383,12.664ZM155.844,37.336a1.481,1.481,0,0,0,1.016-.344,1.2,1.2,0,0,0,.406-.914h2.117a2.9,2.9,0,0,1-.469,1.574,3.093,3.093,0,0,1-1.262,1.109,3.949,3.949,0,0,1-1.77.395A3.67,3.67,0,0,1,153.023,38a4.56,4.56,0,0,1-1.047-3.184v-.148a4.508,4.508,0,0,1,1.039-3.117,3.627,3.627,0,0,1,2.852-1.164,3.555,3.555,0,0,1,2.543.9,3.2,3.2,0,0,1,.973,2.4h-2.117a1.551,1.551,0,0,0-.406-1.072,1.51,1.51,0,0,0-2.223.163,3.333,3.333,0,0,0-.4,1.866v.235a3.375,3.375,0,0,0,.4,1.878A1.377,1.377,0,0,0,155.844,37.336ZM160.32,34.7a5.013,5.013,0,0,1,.484-2.242A3.546,3.546,0,0,1,162.2,30.93a4.069,4.069,0,0,1,2.113-.539,3.849,3.849,0,0,1,2.793,1.047,4.2,4.2,0,0,1,1.207,2.844l.016.578a4.418,4.418,0,0,1-1.086,3.121,4.209,4.209,0,0,1-5.832,0,4.5,4.5,0,0,1-1.09-3.187Zm2.258.16a3.16,3.16,0,0,0,.453,1.843,1.628,1.628,0,0,0,2.578.008,3.457,3.457,0,0,0,.461-2.015,3.128,3.128,0,0,0-.461-1.831,1.5,1.5,0,0,0-1.3-.649,1.474,1.474,0,0,0-1.281.646A3.516,3.516,0,0,0,162.578,34.856Zm9.258-4.309.07.945a2.971,2.971,0,0,1,2.43-1.1,2.255,2.255,0,0,1,2.242,1.289,2.9,2.9,0,0,1,2.539-1.289,2.521,2.521,0,0,1,2.047.8,3.681,3.681,0,0,1,.672,2.41V39H179.57V33.609a1.61,1.61,0,0,0-.281-1.051,1.246,1.246,0,0,0-.992-.332,1.409,1.409,0,0,0-1.406.969L176.9,39h-2.258V33.617a1.59,1.59,0,0,0-.289-1.062,1.259,1.259,0,0,0-.984-.328,1.463,1.463,0,0,0-1.391.8V39h-2.258V30.547Zm19.344,4.3a5.07,5.07,0,0,1-.887,3.129,2.843,2.843,0,0,1-2.395,1.176,2.633,2.633,0,0,1-2.07-.891V42.25H183.57v-11.7h2.094l.078.828a2.654,2.654,0,0,1,2.141-.984,2.862,2.862,0,0,1,2.43,1.156,5.207,5.207,0,0,1,.867,3.188Zm-2.258-.164a3.327,3.327,0,0,0-.418-1.82,1.361,1.361,0,0,0-1.215-.641,1.479,1.479,0,0,0-1.461.813V36.5a1.5,1.5,0,0,0,1.477.836Q188.922,37.336,188.922,34.688Zm7.547,4.469a4.15,4.15,0,0,1-3.027-1.141,4.054,4.054,0,0,1-1.168-3.039v-.219a5.106,5.106,0,0,1,.492-2.277,3.612,3.612,0,0,1,1.395-1.547,3.914,3.914,0,0,1,2.059-.543,3.508,3.508,0,0,1,2.73,1.094,4.444,4.444,0,0,1,1,3.1v.922h-5.383a2.1,2.1,0,0,0,.66,1.328,2,2,0,0,0,1.395.5,2.437,2.437,0,0,0,2.039-.945l1.109,1.242a3.389,3.389,0,0,1-1.375,1.121A4.511,4.511,0,0,1,196.469,39.156Zm-.258-6.945a1.411,1.411,0,0,0-1.09.455,2.357,2.357,0,0,0-.535,1.3h3.141v-.181a1.681,1.681,0,0,0-.406-1.165A1.456,1.456,0,0,0,196.211,32.211Zm7.719-3.742v2.078h1.445V32.2H203.93v4.219a1.007,1.007,0,0,0,.18.672.9.9,0,0,0,.688.2,3.6,3.6,0,0,0,.664-.055v1.711a4.648,4.648,0,0,1-1.367.2,2.156,2.156,0,0,1-2.422-2.4V32.2h-1.234V30.547h1.234V28.469Zm6.594,10.688a4.15,4.15,0,0,1-3.027-1.141,4.054,4.054,0,0,1-1.168-3.039v-.219a5.106,5.106,0,0,1,.492-2.277,3.612,3.612,0,0,1,1.395-1.547,3.914,3.914,0,0,1,2.059-.543A3.508,3.508,0,0,1,213,31.484a4.444,4.444,0,0,1,1,3.1v.922h-5.383a2.1,2.1,0,0,0,.66,1.328,2,2,0,0,0,1.395.5,2.437,2.437,0,0,0,2.039-.945l1.109,1.242a3.389,3.389,0,0,1-1.375,1.121A4.511,4.511,0,0,1,210.523,39.156Zm-.258-6.945a1.411,1.411,0,0,0-1.09.455,2.357,2.357,0,0,0-.535,1.3h3.141v-.181a1.681,1.681,0,0,0-.406-1.165A1.456,1.456,0,0,0,210.266,32.211Zm7.094-1.664.07.977a2.951,2.951,0,0,1,2.43-1.133,2.453,2.453,0,0,1,2,.789,3.682,3.682,0,0,1,.672,2.359V39h-2.258V33.594a1.465,1.465,0,0,0-.312-1.043,1.4,1.4,0,0,0-1.039-.324,1.553,1.553,0,0,0-1.43.813V39h-2.258V30.547Zm10.4,6.789a1.481,1.481,0,0,0,1.016-.344,1.2,1.2,0,0,0,.406-.914H231.3a2.9,2.9,0,0,1-.469,1.574,3.093,3.093,0,0,1-1.262,1.109,3.949,3.949,0,0,1-1.77.395A3.67,3.67,0,0,1,224.938,38a4.56,4.56,0,0,1-1.047-3.184v-.148a4.508,4.508,0,0,1,1.039-3.117,3.627,3.627,0,0,1,2.852-1.164,3.555,3.555,0,0,1,2.543.9,3.2,3.2,0,0,1,.973,2.4H229.18a1.551,1.551,0,0,0-.406-1.072,1.51,1.51,0,0,0-2.223.163,3.333,3.333,0,0,0-.4,1.866v.235a3.375,3.375,0,0,0,.4,1.878A1.377,1.377,0,0,0,227.758,37.336ZM234.969,39H232.7V30.547h2.266Zm-2.4-10.641a1.112,1.112,0,0,1,.34-.836,1.465,1.465,0,0,1,1.848,0,1.193,1.193,0,0,1,0,1.68,1.448,1.448,0,0,1-1.836,0A1.109,1.109,0,0,1,232.57,28.359ZM241.727,39a2.507,2.507,0,0,1-.227-.758,2.732,2.732,0,0,1-2.133.914,3,3,0,0,1-2.059-.719,2.312,2.312,0,0,1-.816-1.812,2.389,2.389,0,0,1,1-2.062,4.915,4.915,0,0,1,2.879-.727h1.039v-.484a1.393,1.393,0,0,0-.3-.937,1.183,1.183,0,0,0-.949-.352,1.345,1.345,0,0,0-.895.273.929.929,0,0,0-.324.75H236.68a2.268,2.268,0,0,1,.453-1.359,3,3,0,0,1,1.281-.98,4.669,4.669,0,0,1,1.859-.355,3.689,3.689,0,0,1,2.48.785,2.747,2.747,0,0,1,.918,2.207v3.664a4.041,4.041,0,0,0,.336,1.82V39Zm-1.867-1.57a1.945,1.945,0,0,0,.922-.223,1.462,1.462,0,0,0,.625-.6V35.156h-.844q-1.7,0-1.8,1.172l-.008.133a.9.9,0,0,0,.3.7A1.153,1.153,0,0,0,239.859,37.43Z" transform="translate(30 281.125)" fill="#fff"/>
        <path id="Trazado_604964" data-name="Trazado 604964" d="M11.547,9.922H6.875v3.5h5.461V15H4.9V3.625h7.383V5.219H6.875V8.359h4.672ZM18.5,12.7a.861.861,0,0,0-.418-.773,4.445,4.445,0,0,0-1.387-.469,7.129,7.129,0,0,1-1.617-.516,2.158,2.158,0,0,1-1.422-1.992,2.25,2.25,0,0,1,.922-1.828,3.644,3.644,0,0,1,2.344-.734,3.792,3.792,0,0,1,2.449.75A2.38,2.38,0,0,1,20.3,9.086h-1.9A1.17,1.17,0,0,0,18,8.176a1.557,1.557,0,0,0-1.078-.363A1.682,1.682,0,0,0,15.9,8.1a.911.911,0,0,0-.395.773.769.769,0,0,0,.367.68,5.049,5.049,0,0,0,1.484.488,7.027,7.027,0,0,1,1.754.586,2.484,2.484,0,0,1,.945.816,2.082,2.082,0,0,1,.309,1.156,2.2,2.2,0,0,1-.945,1.848,4.031,4.031,0,0,1-2.477.707,4.371,4.371,0,0,1-1.852-.375,3.047,3.047,0,0,1-1.266-1.031,2.441,2.441,0,0,1-.453-1.414h1.844a1.338,1.338,0,0,0,.508,1.035,1.973,1.973,0,0,0,1.242.363,1.92,1.92,0,0,0,1.141-.285A.883.883,0,0,0,18.5,12.7Zm5.9-8.211V6.547h1.492V7.953H24.4v4.719a1.039,1.039,0,0,0,.191.7.888.888,0,0,0,.684.215,2.925,2.925,0,0,0,.664-.078v1.469a4.676,4.676,0,0,1-1.25.18q-2.188,0-2.187-2.414V7.953H21.109V6.547H22.5V4.492Zm7.367,3.789a4.7,4.7,0,0,0-.773-.062,1.741,1.741,0,0,0-1.758,1V15h-1.9V6.547h1.813l.047.945a2.139,2.139,0,0,1,1.906-1.1,1.777,1.777,0,0,1,.672.109Zm4.773,6.875a3.928,3.928,0,0,1-2.926-1.137,4.124,4.124,0,0,1-1.121-3.027v-.234A5.072,5.072,0,0,1,32.98,8.5a3.716,3.716,0,0,1,1.371-1.551,3.625,3.625,0,0,1,1.969-.555,3.318,3.318,0,0,1,2.668,1.1,4.658,4.658,0,0,1,.941,3.117v.766H34.406a2.539,2.539,0,0,0,.7,1.656,2.1,2.1,0,0,0,1.543.609,2.571,2.571,0,0,0,2.125-1.055l1.023.977a3.418,3.418,0,0,1-1.355,1.176A4.244,4.244,0,0,1,36.539,15.156Zm-.227-7.242a1.6,1.6,0,0,0-1.262.547,2.835,2.835,0,0,0-.613,1.523h3.617V9.844A2.307,2.307,0,0,0,37.547,8.4,1.586,1.586,0,0,0,36.313,7.914ZM43.422,15h-1.9V3h1.9Zm4.086,0h-1.9V3h1.9Zm7.117,0a2.93,2.93,0,0,1-.219-.789,3.193,3.193,0,0,1-4.3.219,2.325,2.325,0,0,1-.8-1.8,2.4,2.4,0,0,1,1-2.074,4.865,4.865,0,0,1,2.871-.723h1.164V9.281a1.481,1.481,0,0,0-.367-1.051,1.456,1.456,0,0,0-1.117-.395A1.672,1.672,0,0,0,51.8,8.16a1,1,0,0,0-.414.824h-1.9a2.107,2.107,0,0,1,.461-1.3A3.071,3.071,0,0,1,51.2,6.734a4.4,4.4,0,0,1,1.77-.344,3.547,3.547,0,0,1,2.367.746,2.661,2.661,0,0,1,.906,2.1v3.813a4.321,4.321,0,0,0,.32,1.82V15Zm-2.086-1.367a2.159,2.159,0,0,0,1.059-.273,1.827,1.827,0,0,0,.746-.734V11.031H53.32a2.8,2.8,0,0,0-1.586.367,1.189,1.189,0,0,0-.531,1.039,1.109,1.109,0,0,0,.363.871A1.407,1.407,0,0,0,52.539,13.633Z" transform="translate(157.653 0.835)" fill="#12263f"/>
        <path id="Trazado_604965" data-name="Trazado 604965" d="M8.48,12.523l2.891-8.9h2.172L9.449,15H7.535L3.457,3.625H5.621ZM19.332,15a2.93,2.93,0,0,1-.219-.789,2.955,2.955,0,0,1-2.219.945,2.982,2.982,0,0,1-2.078-.727,2.325,2.325,0,0,1-.8-1.8,2.4,2.4,0,0,1,1-2.074,4.865,4.865,0,0,1,2.871-.723H19.05V9.281a1.481,1.481,0,0,0-.367-1.051,1.456,1.456,0,0,0-1.117-.395A1.672,1.672,0,0,0,16.5,8.16a1,1,0,0,0-.414.824h-1.9a2.107,2.107,0,0,1,.461-1.3,3.071,3.071,0,0,1,1.254-.949,4.4,4.4,0,0,1,1.77-.344,3.547,3.547,0,0,1,2.367.746,2.661,2.661,0,0,1,.906,2.1v3.813a4.321,4.321,0,0,0,.32,1.82V15Zm-2.086-1.367a2.159,2.159,0,0,0,1.059-.273,1.827,1.827,0,0,0,.746-.734V11.031H18.027a2.8,2.8,0,0,0-1.586.367,1.189,1.189,0,0,0-.531,1.039,1.109,1.109,0,0,0,.363.871A1.407,1.407,0,0,0,17.246,13.633Zm9.164.008a1.716,1.716,0,0,0,1.18-.414,1.415,1.415,0,0,0,.5-1.023h1.789a2.789,2.789,0,0,1-.492,1.473,3.228,3.228,0,0,1-1.25,1.082,3.725,3.725,0,0,1-1.7.4,3.6,3.6,0,0,1-2.812-1.148,4.555,4.555,0,0,1-1.039-3.172v-.2a4.479,4.479,0,0,1,1.031-3.09,3.571,3.571,0,0,1,2.813-1.16,3.473,3.473,0,0,1,2.457.879,3.148,3.148,0,0,1,1,2.309H28.089a1.738,1.738,0,0,0-.5-1.2,1.6,1.6,0,0,0-1.184-.469,1.671,1.671,0,0,0-1.422.668,3.408,3.408,0,0,0-.508,2.027v.3a3.465,3.465,0,0,0,.5,2.051A1.669,1.669,0,0,0,26.41,13.641ZM36.363,15a2.93,2.93,0,0,1-.219-.789,3.193,3.193,0,0,1-4.3.219,2.325,2.325,0,0,1-.8-1.8,2.4,2.4,0,0,1,1-2.074,4.865,4.865,0,0,1,2.871-.723h1.164V9.281a1.481,1.481,0,0,0-.367-1.051A1.456,1.456,0,0,0,34.6,7.836a1.672,1.672,0,0,0-1.062.324,1,1,0,0,0-.414.824h-1.9a2.107,2.107,0,0,1,.461-1.3,3.071,3.071,0,0,1,1.254-.949,4.4,4.4,0,0,1,1.77-.344,3.547,3.547,0,0,1,2.367.746,2.661,2.661,0,0,1,.906,2.1v3.813a4.321,4.321,0,0,0,.32,1.82V15Zm-2.086-1.367a2.159,2.159,0,0,0,1.059-.273,1.827,1.827,0,0,0,.746-.734V11.031H35.058a2.8,2.8,0,0,0-1.586.367,1.189,1.189,0,0,0-.531,1.039,1.109,1.109,0,0,0,.363.871A1.407,1.407,0,0,0,34.277,13.633Z" transform="translate(173.121 122.567)" fill="#12263f"/>
        <g id="vaca" transform="translate(62.427 197.409)">
          <g id="Grupo_1013541" data-name="Grupo 1013541" transform="translate(0 11.885)">
            <path id="Trazado_601774" data-name="Trazado 601774" d="M3.188,38.045H2V28.109a6.357,6.357,0,0,1,4.591-6.086A.6.6,0,0,1,6.754,22H7.942v1.188H6.84a5.164,5.164,0,0,0-3.651,4.92Z" transform="translate(-2 -22)" fill="#a8b0bc"/>
          </g>
          <g id="Grupo_1013543" data-name="Grupo 1013543" transform="translate(12.479 27.93)">
            <g id="Grupo_1013542" data-name="Grupo 1013542">
              <path id="Trazado_601775" data-name="Trazado 601775" d="M23,49h1.188v2.377H23Z" transform="translate(-23 -49)" fill="#a8b0bc"/>
            </g>
          </g>
          <g id="Grupo_1013545" data-name="Grupo 1013545" transform="translate(14.856 27.93)">
            <g id="Grupo_1013544" data-name="Grupo 1013544">
              <path id="Trazado_601776" data-name="Trazado 601776" d="M27,49h1.188v2.377H27Z" transform="translate(-27 -49)" fill="#a8b0bc"/>
            </g>
          </g>
          <path id="Trazado_601777" data-name="Trazado 601777" d="M37.565,5.565l-.2-.3A5.887,5.887,0,0,1,36.377,2L35.04,3a2.6,2.6,0,0,0-.278,3.919l.427.427" transform="translate(-14.984 -2)" fill="#a8b0bc"/>
          <path id="Trazado_601778" data-name="Trazado 601778" d="M52,5.565l.2-.3A5.887,5.887,0,0,0,53.188,2l1.337,1A2.6,2.6,0,0,1,54.8,6.922l-.427.427" transform="translate(-22.288 -2)" fill="#a8b0bc"/>
          <path id="Trazado_601779" data-name="Trazado 601779" d="M56.506,12h.708a2.557,2.557,0,0,1,2.557,2.557v1.6h-.724a2.558,2.558,0,0,1-1.808-.749l-.439-.44-.077-.111" transform="translate(-24.116 -6.058)" fill="#c66b60"/>
          <path id="Trazado_601780" data-name="Trazado 601780" d="M2.713,50.506A1.784,1.784,0,0,1,2,49.08V47l1.392.7a1.783,1.783,0,0,1,.985,1.594v2.464Z" transform="translate(-2 -20.259)" fill="#52565a"/>
          <path id="Trazado_601781" data-name="Trazado 601781" d="M27.131,45a3.309,3.309,0,0,1-3.565,2.971A3.309,3.309,0,0,1,20,45" transform="translate(-9.304 -19.447)" fill="#c66b60"/>
          <path id="Trazado_601782" data-name="Trazado 601782" d="M46.8,49.967v-.084L47,49.1a33.291,33.291,0,0,0,.994-8.071v-.107a7.706,7.706,0,0,1-2.252,2.337l-.125.084-.038.03q-.094,2.944-.42,5.875l-.105.945a2.247,2.247,0,0,1,1.751-.229Z" transform="translate(-19.469 -17.794)" fill="#a8b0bc"/>
          <path id="Trazado_601783" data-name="Trazado 601783" d="M14.993,51.24l-.021-.091.258-1.807a33.422,33.422,0,0,0,.336-4.73v-.226c-.214-.063-.43-.115-.642-.185l-.469-.156a27.93,27.93,0,0,0-1.859,7.1v.007H12a2.328,2.328,0,0,1,1.191.328,2.245,2.245,0,0,1,1.8-.237Z" transform="translate(-6.058 -19.059)" fill="#a8b0bc"/>
          <path id="Trazado_601784" data-name="Trazado 601784" d="M33.366,25.073V25.1a7.725,7.725,0,0,1-3.44,6.428l-.125.083-.038.03q-.094,2.944-.42,5.875l-.137,1.227H26.829l-.174-.781a42.566,42.566,0,0,1-.951-6.925v-.019H25.64l-.547.182a19.619,19.619,0,0,1-6.2,1.006H18.72a19.622,19.622,0,0,1-6.2-1.006l-.469-.156a27.93,27.93,0,0,0-1.859,7.1l-.01.08-1.671.339L6.624,31.016,6.086,22.94a5.354,5.354,0,0,1,.148-1.653l.064-.254A5.347,5.347,0,0,1,11,17l9.29-.845V14.551A2.551,2.551,0,0,1,22.843,12h1.609" transform="translate(-3.653 -6.058)" fill="#e3e4e5"/>
          <path id="Trazado_601785" data-name="Trazado 601785" d="M35.594,20.073l-.582-8.156C35,11.809,35,11.7,35,11.591A4.59,4.59,0,0,1,39.59,7h3.893a4.59,4.59,0,0,1,4.591,4.59c0,.109,0,.218-.012.327l-.582,8.157" transform="translate(-15.39 -4.029)" fill="#ebf7fe"/>
          <path id="Trazado_601786" data-name="Trazado 601786" d="M32.971,13.619a4.558,4.558,0,0,1,.3-1.619h-.714A2.557,2.557,0,0,0,30,14.557v1.6h.724a2.558,2.558,0,0,0,1.808-.749l.439-.44.062-.313-.051-.713C32.975,13.837,32.971,13.728,32.971,13.619Z" transform="translate(-13.361 -6.058)" fill="#c66b60"/>
          <path id="Trazado_601787" data-name="Trazado 601787" d="M40.16,24a5.537,5.537,0,0,1,1.783.29A5.537,5.537,0,0,1,43.725,24c2.3,0,4.16,1.331,4.16,2.971s-1.862,2.971-4.16,2.971a5.537,5.537,0,0,1-1.783-.29,5.537,5.537,0,0,1-1.783.29c-2.3,0-4.16-1.331-4.16-2.971S37.862,24,40.16,24Z" transform="translate(-15.796 -10.927)" fill="#c66b60"/>
          <path id="Trazado_601788" data-name="Trazado 601788" d="M47.947,7H47.61A4.75,4.75,0,0,0,52.3,15.057l.224-3.139c.008-.109.012-.218.012-.327A4.59,4.59,0,0,0,47.947,7Z" transform="translate(-19.853 -4.029)" fill="#52565a"/>
          <path id="Trazado_601789" data-name="Trazado 601789" d="M24.377,30a2.377,2.377,0,0,1,2.377,2.377c0,.03-.008.057-.009.087a2.351,2.351,0,0,1,.6-.087,2.377,2.377,0,1,1-2.377,2.377c0-.03.008-.057.009-.087a2.351,2.351,0,0,1-.6.087,2.377,2.377,0,1,1,0-4.754Z" transform="translate(-10.115 -13.361)" fill="#52565a"/>
          <g id="Grupo_1013546" data-name="Grupo 1013546" transform="translate(28.524 14.856)">
            <path id="Trazado_601790" data-name="Trazado 601790" d="M50.891,28.783a.891.891,0,1,1,.891-.891A.892.892,0,0,1,50.891,28.783Z" transform="translate(-50 -27)" fill="#e47c6e"/>
          </g>
          <g id="Grupo_1013547" data-name="Grupo 1013547" transform="translate(21.987 14.856)">
            <path id="Trazado_601791" data-name="Trazado 601791" d="M39.891,28.783a.891.891,0,1,1,.891-.891A.892.892,0,0,1,39.891,28.783Z" transform="translate(-39 -27)" fill="#e47c6e"/>
          </g>
          <g id="Grupo_1013548" data-name="Grupo 1013548" transform="translate(29.118 7.725)">
            <path id="Trazado_601792" data-name="Trazado 601792" d="M51.891,16.783a.891.891,0,1,1,.891-.891A.892.892,0,0,1,51.891,16.783Z" transform="translate(-51 -15)" fill="#243242"/>
          </g>
          <g id="Grupo_1013549" data-name="Grupo 1013549" transform="translate(21.393 7.725)">
            <path id="Trazado_601793" data-name="Trazado 601793" d="M38.891,16.783a.891.891,0,1,1,.891-.891A.892.892,0,0,1,38.891,16.783Z" transform="translate(-38 -15)" fill="#243242"/>
          </g>
          <path id="Trazado_601794" data-name="Trazado 601794" d="M14.377,56a2.377,2.377,0,0,1,2.377,2.377v1.188H12V58.377A2.377,2.377,0,0,1,14.377,56Z" transform="translate(-6.058 -23.911)" fill="#243242"/>
          <path id="Trazado_601795" data-name="Trazado 601795" d="M10.377,56a2.377,2.377,0,0,1,2.377,2.377v1.188H8V58.377A2.377,2.377,0,0,1,10.377,56Z" transform="translate(-4.435 -23.911)" fill="#52565a"/>
          <g id="Grupo_1013550" data-name="Grupo 1013550" transform="translate(5.348 33.872)">
            <path id="Trazado_601796" data-name="Trazado 601796" d="M11,59h1.188v1.783H11Z" transform="translate(-11 -59)" fill="#243242"/>
          </g>
          <path id="Trazado_601797" data-name="Trazado 601797" d="M45.377,56a2.377,2.377,0,0,1,2.377,2.377v1.188H43V58.377A2.377,2.377,0,0,1,45.377,56Z" transform="translate(-18.636 -23.911)" fill="#243242"/>
          <path id="Trazado_601798" data-name="Trazado 601798" d="M41.377,56a2.377,2.377,0,0,1,2.377,2.377v1.188H39V58.377A2.377,2.377,0,0,1,41.377,56Z" transform="translate(-17.013 -23.911)" fill="#52565a"/>
          <g id="Grupo_1013551" data-name="Grupo 1013551" transform="translate(23.77 33.872)">
            <path id="Trazado_601799" data-name="Trazado 601799" d="M42,59h1.188v1.783H42Z" transform="translate(-42 -59)" fill="#243242"/>
          </g>
          <g id="Grupo_1013552" data-name="Grupo 1013552" transform="translate(2.499 10.446)">
            <path id="Trazado_601800" data-name="Trazado 601800" d="M15,21.612a2.971,2.971,0,1,0,5.128-2.033L15.48,20a2.953,2.953,0,0,0-.48,1.61Z" transform="translate(-9.774 -19.579)" fill="#52565a"/>
            <path id="Trazado_601801" data-name="Trazado 601801" d="M6.677,32a2.953,2.953,0,0,0-.472.048L6.6,37.934c.027,0,.053.008.08.008a2.971,2.971,0,0,0,0-5.942Z" transform="translate(-6.205 -24.619)" fill="#52565a"/>
          </g>
        </g>
        <g id="perro" transform="translate(246.035 196.444)">
          <path id="Trazado_601810" data-name="Trazado 601810" d="M333.445,258a.707.707,0,0,0-1.368-.033,10.438,10.438,0,0,1-.885,2.122,8.1,8.1,0,0,1-3.826,3.535l1.893,4.36A9.215,9.215,0,0,0,333.445,258Zm0,0" transform="translate(-305.884 -240.562)" fill="#ffaf5c"/>
          <path id="Trazado_601811" data-name="Trazado 601811" d="M294.087,321.2a3.82,3.82,0,0,0-4.808-.528l-2.845,11.969h2.875a20.3,20.3,0,0,0,3.133-2.185,8.686,8.686,0,0,0,2.835-4.35,5.274,5.274,0,0,0-1.19-4.906Zm0,0" transform="translate(-267.637 -299.047)" fill="#d67f3e"/>
          <path id="Trazado_601812" data-name="Trazado 601812" d="M289.278,320.678l-2.845,11.97h2.875l.332-.2,2.944-8.853a6.5,6.5,0,0,0,.225-3.236A3.637,3.637,0,0,0,289.278,320.678Zm0,0" transform="translate(-267.637 -299.048)" fill="#b25d24"/>
          <path id="Trazado_601813" data-name="Trazado 601813" d="M1.354,321.2a3.82,3.82,0,0,1,4.808-.528l2.845,11.969H6.132A20.3,20.3,0,0,1,3,330.46a8.687,8.687,0,0,1-2.835-4.35,5.274,5.274,0,0,1,1.19-4.906Zm0,0" transform="translate(0 -299.047)" fill="#d67f3e"/>
          <path id="Trazado_601814" data-name="Trazado 601814" d="M138.379,214.926h9.641v19.495h-9.641Zm0,0" transform="translate(-129.298 -200.822)" fill="#d67f3e"/>
          <path id="Trazado_601815" data-name="Trazado 601815" d="M166.426,368h5.96v-7.133a2.98,2.98,0,1,0-5.96,0V368Zm0,0" transform="translate(-155.505 -334.401)" fill="#efeec5"/>
          <path id="Trazado_601816" data-name="Trazado 601816" d="M260.6,236.113l-3.346,1.634v16.471h2.917l3.443-10.356a6.515,6.515,0,0,0-3.015-7.749Zm0,0" transform="translate(-240.372 -220.618)" fill="#ffaf5c"/>
          <path id="Trazado_601817" data-name="Trazado 601817" d="M67.77,236.113l3.345,1.634v16.471H68.2l-3.444-10.356a6.515,6.515,0,0,1,3.015-7.749Zm0,0" transform="translate(-60.194 -220.618)" fill="#ffaf5c"/>
          <path id="Trazado_601818" data-name="Trazado 601818" d="M71.078,460.293a3.394,3.394,0,0,0-3.358,2.9.432.432,0,0,0,.431.489h5.855a.432.432,0,0,0,.431-.489A3.394,3.394,0,0,0,71.078,460.293Zm0,0" transform="translate(-63.272 -430.087)" fill="#f2f2f2"/>
          <path id="Trazado_601819" data-name="Trazado 601819" d="M114.3,463.2a3.4,3.4,0,0,0-3.921-2.858,3.09,3.09,0,0,1,1.994,2.858c.027.259-.121.489-.307.489h1.8A.432.432,0,0,0,114.3,463.2Zm0,0" transform="translate(-103.132 -430.088)" fill="#c9c9c9"/>
          <path id="Trazado_601820" data-name="Trazado 601820" d="M256.847,460.293a3.394,3.394,0,0,0-3.358,2.9.432.432,0,0,0,.431.489h5.855a.432.432,0,0,0,.431-.489A3.394,3.394,0,0,0,256.847,460.293Zm0,0" transform="translate(-236.85 -430.087)" fill="#f2f2f2"/>
          <path id="Trazado_601821" data-name="Trazado 601821" d="M300.065,463.2a3.4,3.4,0,0,0-3.921-2.858,3.091,3.091,0,0,1,1.993,2.858c.027.259-.121.489-.307.489h1.8A.432.432,0,0,0,300.065,463.2Zm0,0" transform="translate(-276.71 -430.088)" fill="#c9c9c9"/>
          <g id="Grupo_1013562" data-name="Grupo 1013562" transform="translate(5.814 31.814)">
            <path id="Trazado_601822" data-name="Trazado 601822" d="M275.371,486.192a.459.459,0,0,1,0-.06,6.339,6.339,0,0,1,.088-.731.507.507,0,0,0-1-.181,7.372,7.372,0,0,0-.1.848,1.33,1.33,0,0,0,.068.52h1.136A.506.506,0,0,0,275.371,486.192Zm0,0" transform="translate(-262.166 -484.804)" fill="#403f4f"/>
            <path id="Trazado_601823" data-name="Trazado 601823" d="M316.715,486.589h1.136a1.326,1.326,0,0,0,.067-.521,7.444,7.444,0,0,0-.1-.847.507.507,0,0,0-1,.181,6.4,6.4,0,0,1,.087.731.406.406,0,0,1,0,.059A.506.506,0,0,0,316.715,486.589Zm0,0" transform="translate(-301.745 -484.804)" fill="#403f4f"/>
            <path id="Trazado_601824" data-name="Trazado 601824" d="M89.605,486.192a.462.462,0,0,1,0-.06,6.4,6.4,0,0,1,.088-.731.507.507,0,0,0-1-.181,7.335,7.335,0,0,0-.1.847,1.324,1.324,0,0,0,.067.522H89.8A.507.507,0,0,0,89.605,486.192Zm0,0" transform="translate(-88.59 -484.804)" fill="#403f4f"/>
            <path id="Trazado_601825" data-name="Trazado 601825" d="M130.941,486.589h1.136a1.329,1.329,0,0,0,.068-.521,7.386,7.386,0,0,0-.1-.847.507.507,0,0,0-1,.181,6.4,6.4,0,0,1,.087.73.421.421,0,0,1,0,.06A.506.506,0,0,0,130.941,486.589Zm0,0" transform="translate(-128.162 -484.804)" fill="#403f4f"/>
          </g>
          <path id="Trazado_601826" data-name="Trazado 601826" d="M272.512,1.531,274.642.3a2.25,2.25,0,0,1,1.125-.3h1.25a4.98,4.98,0,0,1,4.968,4.637l.169,2.443a2.334,2.334,0,0,1-3.341,2.264L274.192,7.12Zm0,0" transform="translate(-254.629 0)" fill="#d67f3e"/>
          <path id="Trazado_601827" data-name="Trazado 601827" d="M279.238,16.224l-2.684-5.016A4.906,4.906,0,0,0,274.14,9l-1.629.94,1.68,5.589,4.621,2.224a2.335,2.335,0,0,0,1.02.231,5.613,5.613,0,0,0-.594-1.764Zm0,0" transform="translate(-254.628 -8.413)" fill="#b25d24"/>
          <path id="Trazado_601828" data-name="Trazado 601828" d="M13.807,1.531,11.678.3A2.25,2.25,0,0,0,10.553,0H9.3A4.98,4.98,0,0,0,4.335,4.637L4.166,7.08A2.334,2.334,0,0,0,7.507,9.344L12.127,7.12Zm0,0" transform="translate(-3.887 0)" fill="#d67f3e"/>
          <path id="Trazado_601829" data-name="Trazado 601829" d="M78.664,17.52l-3.057-1.368a5.512,5.512,0,0,1-3.26-5.031v-.863a5.616,5.616,0,0,1,.664-2.65L75.7,2.592A4.905,4.905,0,0,1,80.021,0h2.96a4.906,4.906,0,0,1,4.325,2.591l2.684,5.016a5.616,5.616,0,0,1,.664,2.65v.863a5.512,5.512,0,0,1-3.26,5.031L84.338,17.52a6.944,6.944,0,0,1-5.674,0Zm0,0" transform="translate(-67.6 0)" fill="#ffaf5c"/>
          <path id="Trazado_601830" data-name="Trazado 601830" d="M112.971,12.5l-2.684-5.016a4.9,4.9,0,0,0-2.522-2.248,4.9,4.9,0,0,1,.772,1.067l2.684,5.016a5.615,5.615,0,0,1,.664,2.65v.864a5.512,5.512,0,0,1-3.26,5.031l-3.057,1.368a6.943,6.943,0,0,1-5.674,0l-2.953-1.322a5.5,5.5,0,0,0,1.646,1.134l3.057,1.368a6.943,6.943,0,0,0,5.674,0l3.057-1.368a5.512,5.512,0,0,0,3.26-5.031v-.863a5.616,5.616,0,0,0-.664-2.65Zm0,0" transform="translate(-90.58 -4.895)" fill="#d67f3e"/>
          <path id="Trazado_601831" data-name="Trazado 601831" d="M146.346,123.339a.507.507,0,0,1-.507-.507v-.406a.507.507,0,1,1,1.014,0v.406A.507.507,0,0,1,146.346,123.339Zm0,0" transform="translate(-136.269 -113.918)" fill="#403f4f"/>
          <path id="Trazado_601832" data-name="Trazado 601832" d="M262.9,123.339a.507.507,0,0,1-.507-.507v-.406a.507.507,0,0,1,1.014,0v.406A.507.507,0,0,1,262.9,123.339Zm0,0" transform="translate(-245.172 -113.918)" fill="#403f4f"/>
          <path id="Trazado_601833" data-name="Trazado 601833" d="M175.664,222.4a2.733,2.733,0,1,1-2.733-2.733A2.733,2.733,0,0,1,175.664,222.4Zm0,0" transform="translate(-159.03 -205.253)" fill="#e573b7"/>
          <path id="Trazado_601834" data-name="Trazado 601834" d="M122.269,181.016h-6.36a3.334,3.334,0,1,0,3.18,4.338,3.334,3.334,0,1,0,3.18-4.338Zm0,0" transform="translate(-105.187 -169.137)" fill="#efeec5"/>
          <path id="Trazado_601835" data-name="Trazado 601835" d="M231.9,181.016H229.91a3.335,3.335,0,0,1,1,6.516,3.334,3.334,0,1,0,1-6.516Zm0,0" transform="translate(-214.823 -169.137)" fill="#c9c793"/>
          <path id="Trazado_601836" data-name="Trazado 601836" d="M172.53,148.938c-1.374,0-2.761.442-2.761,1.43a2.768,2.768,0,1,0,5.522,0C175.291,149.38,173.9,148.938,172.53,148.938Zm0,0" transform="translate(-158.629 -139.164)" fill="#5b586d"/>
        </g>
        <path id="estrella" d="M31.346,11.873a1.667,1.667,0,0,0-1.438-1.149L20.837,9.9,17.251,1.5a1.67,1.67,0,0,0-3.072,0L10.591,9.9l-9.073.824a1.672,1.672,0,0,0-.948,2.923l6.857,6.013L5.406,28.567a1.668,1.668,0,0,0,2.484,1.8L15.714,25.7l7.822,4.677a1.67,1.67,0,0,0,2.486-1.8L24,19.661l6.857-6.012a1.671,1.671,0,0,0,.49-1.776Zm0,0" transform="translate(68.405 66.822)" fill="#ffc107"/>
        <g id="signo-de-interrogacion" transform="translate(247.846 67.314)">
          <g id="Grupo_1013555" data-name="Grupo 1013555" transform="translate(0 0)">
            <g id="Grupo_1013554" data-name="Grupo 1013554">
              <g id="Grupo_1013553" data-name="Grupo 1013553">
                <path id="Trazado_601802" data-name="Trazado 601802" d="M188.844,53.534l6.149-4.817.96-8.387-7.11-3.914-2.886,3.966a4.881,4.881,0,0,1-.559,8.967,6.929,6.929,0,0,0-4.6,6.53v1.26a2.972,2.972,0,0,0,2.972,2.972h4.347Z" transform="translate(-172.952 -33.925)" fill="#fe9738"/>
                <path id="Trazado_601803" data-name="Trazado 601803" d="M73.373,13.8H69.026a2.972,2.972,0,0,1-2.972-2.972A10.817,10.817,0,0,1,77.6.028h4.347L78.854,3.151" transform="translate(-66.054 -0.005)" fill="#fe9738"/>
              </g>
              <path id="Trazado_601804" data-name="Trazado 601804" d="M188.12,424.763h-4.347a2.972,2.972,0,0,0-2.972,2.972v.025a2.972,2.972,0,0,0,2.972,2.972h3.818" transform="translate(-172.95 -395.701)" fill="#fe9738"/>
            </g>
          </g>
          <g id="Grupo_1013561" data-name="Grupo 1013561" transform="translate(4.347 0)">
            <g id="Grupo_1013560" data-name="Grupo 1013560" transform="translate(0 0)">
              <g id="Grupo_1013557" data-name="Grupo 1013557" transform="translate(0 0)">
                <g id="Grupo_1013556" data-name="Grupo 1013556">
                  <path id="Trazado_601805" data-name="Trazado 601805" d="M140.407,26.192a2.972,2.972,0,0,1-2.972-2.972V21.959a6.927,6.927,0,0,1,4.6-6.53,4.88,4.88,0,1,0-6.456-5.286,4.974,4.974,0,0,0-.047.684,2.972,2.972,0,1,1-5.944,0,10.823,10.823,0,1,1,14.429,10.206.974.974,0,0,0-.634.926V23.22A2.972,2.972,0,0,1,140.407,26.192Z" transform="translate(-129.584 -0.005)" fill="#ffd15b"/>
                </g>
                <path id="Trazado_601806" data-name="Trazado 601806" d="M247.3,430.733a2.972,2.972,0,0,1-2.972-2.972v-.025a2.972,2.972,0,1,1,5.944,0v.025A2.972,2.972,0,0,1,247.3,430.733Z" transform="translate(-236.479 -395.702)" fill="#ffd15b"/>
              </g>
              <g id="Grupo_1013559" data-name="Grupo 1013559">
                <g id="Grupo_1013558" data-name="Grupo 1013558">
                  <path id="Trazado_601807" data-name="Trazado 601807" d="M132.315,9.318a10.833,10.833,0,0,0-.1,1.505,2.97,2.97,0,0,0,1.658,2.666,2.972,2.972,0,0,1-4.286-2.666A10.825,10.825,0,0,1,141.129.024q.3.02.6.058a10.873,10.873,0,0,0-9.416,9.236Z" transform="translate(-129.583 0)" fill="#ffc344"/>
                  <path id="Trazado_601808" data-name="Trazado 601808" d="M251.563,96.365a6.929,6.929,0,0,0-4.6,6.53v1.26a2.971,2.971,0,0,0,1.66,2.666,2.972,2.972,0,0,1-4.286-2.666v-1.26a6.927,6.927,0,0,1,4.6-6.53,4.881,4.881,0,0,0-.3-9.3,4.877,4.877,0,0,1,2.929,9.3Z" transform="translate(-236.487 -80.94)" fill="#ffc344"/>
                </g>
                <path id="Trazado_601809" data-name="Trazado 601809" d="M248.624,430.417a2.973,2.973,0,0,1-4.286-2.666v-.025a2.973,2.973,0,0,1,4.286-2.666,2.974,2.974,0,0,0-1.66,2.666v.025A2.971,2.971,0,0,0,248.624,430.417Z" transform="translate(-236.487 -395.693)" fill="#ffc344"/>
              </g>
            </g>
          </g>
        </g>
      </g>
    </g>
    <g id="Grupo_1015190" data-name="Grupo 1015190" transform="translate(0 -392)">
      <circle id="Elipse_5618" data-name="Elipse 5618" cx="11" cy="11" r="11" transform="translate(-5717 -1837)" fill="#7e10b8"/>
      <path id="Trazado_604966" data-name="Trazado 604966" d="M5.7,0H4.242V-9.633L1.328-8.562V-9.875L5.469-11.43H5.7Z" transform="translate(-5710 -1820)" fill="#fff"/>
    </g>
    <g id="Grupo_1015191" data-name="Grupo 1015191" transform="translate(0 -392)">
      <circle id="Elipse_5619" data-name="Elipse 5619" cx="11" cy="11" r="11" transform="translate(-5669 -1907)" fill="#7e10b8"/>
      <path id="Trazado_604967" data-name="Trazado 604967" d="M8.4,0H.945V-1.039L4.883-5.414A9.354,9.354,0,0,0,6.09-7.027a2.693,2.693,0,0,0,.332-1.285,2.041,2.041,0,0,0-.539-1.461,1.885,1.885,0,0,0-1.437-.57A2.232,2.232,0,0,0,2.77-9.73a2.343,2.343,0,0,0-.6,1.707H.727a3.355,3.355,0,0,1,1.012-2.539,3.751,3.751,0,0,1,2.707-.969,3.6,3.6,0,0,1,2.508.832,2.838,2.838,0,0,1,.922,2.215q0,1.68-2.141,4L2.688-1.18H8.4Z" transform="translate(-5662 -1890)" fill="#fff"/>
    </g>
    <g id="Grupo_1015192" data-name="Grupo 1015192" transform="translate(0 -392)">
      <circle id="Elipse_5620" data-name="Elipse 5620" cx="11" cy="11" r="11" transform="translate(-5531 -1961)" fill="#7e10b8"/>
      <path id="Trazado_604968" data-name="Trazado 604968" d="M3.047-6.391H4.133A2.387,2.387,0,0,0,5.742-6.93a1.8,1.8,0,0,0,.586-1.414,1.764,1.764,0,0,0-1.992-2,2.072,2.072,0,0,0-1.5.535,1.873,1.873,0,0,0-.559,1.418H.836a2.9,2.9,0,0,1,.988-2.246,3.6,3.6,0,0,1,2.512-.895,3.558,3.558,0,0,1,2.523.852,3.076,3.076,0,0,1,.914,2.367,2.5,2.5,0,0,1-.48,1.438A2.9,2.9,0,0,1,5.984-5.836a2.8,2.8,0,0,1,1.449.984,2.734,2.734,0,0,1,.512,1.68,3.1,3.1,0,0,1-1,2.43,3.745,3.745,0,0,1-2.6.9A3.844,3.844,0,0,1,1.738-.711,2.877,2.877,0,0,1,.734-3H2.188a1.859,1.859,0,0,0,.586,1.438,2.229,2.229,0,0,0,1.57.539,2.187,2.187,0,0,0,1.6-.547A2.108,2.108,0,0,0,6.5-3.141a1.912,1.912,0,0,0-.609-1.523,2.655,2.655,0,0,0-1.758-.547H3.047Z" transform="translate(-5524 -1944)" fill="#fff"/>
    </g>
  </g>
</svg>
