<svg xmlns="http://www.w3.org/2000/svg" width="275.677" height="198.423" viewBox="0 0 275.677 198.423">
  <g id="Grupo_1015045" data-name="Grupo 1015045" transform="translate(6415.551 10278.167)">
    <path id="Trazado_601490" data-name="Trazado 601490" d="M966.41,476.854v42h-7.249a66.718,66.718,0,0,0-20.3,3,45.709,45.709,0,0,0-16,8.859l0,0a38.308,38.308,0,0,0-8.8,11.04q.959-.478,1.947-.926a55.22,55.22,0,0,1,22.993-4.537,51.735,51.735,0,0,1,23.4,5.095,48.568,48.568,0,0,1,17.255,14.175A62.258,62.258,0,0,1,990.1,576.313a87.935,87.935,0,0,1,3.451,25.1,67.127,67.127,0,0,1-4.944,25.822A62.2,62.2,0,0,1,974.886,648a63.155,63.155,0,0,1-21,13.84,69.556,69.556,0,0,1-26.54,4.941,73.629,73.629,0,0,1-27.457-5.044l-.029-.011-.03-.013a65.322,65.322,0,0,1-22.118-14.963l-.024-.025-.024-.025a70.3,70.3,0,0,1-14.637-23.922l-.008-.019-.007-.019a90.746,90.746,0,0,1-5.114-31.41V576.56c0-15.523,2.532-29.535,7.717-41.946l.006-.014.006-.014a92.005,92.005,0,0,1,52.449-51.03,101.7,101.7,0,0,1,36.765-6.7Zm-75.931,30.064a87.738,87.738,0,0,0-20.172,29.658q-7.324,17.531-7.324,39.985v14.769a85.692,85.692,0,0,0,4.8,29.658A65.217,65.217,0,0,0,881.354,643.2a60.231,60.231,0,0,0,20.412,13.809,68.556,68.556,0,0,0,25.575,4.682,64.486,64.486,0,0,0,24.615-4.563A58.045,58.045,0,0,0,971.288,644.4,57.231,57.231,0,0,0,983.9,625.31a62.086,62.086,0,0,0,4.562-23.895,82.789,82.789,0,0,0-3.248-23.654,56.993,56.993,0,0,0-9.6-19.092,43.447,43.447,0,0,0-15.49-12.728,46.667,46.667,0,0,0-21.133-4.563,47.552,47.552,0,0,0-28.165,8.116,42.82,42.82,0,0,0-6.439,5.29,53.594,53.594,0,0,1,2.12-8.477q.527-1.542,1.145-3.007a44.7,44.7,0,0,1,11.888-16.451A50.785,50.785,0,0,1,937.308,517a71.776,71.776,0,0,1,21.853-3.242h2.161v-31.82h-6.484a96.614,96.614,0,0,0-34.941,6.364A87.908,87.908,0,0,0,890.479,506.918Zm18.056,71.336a21.981,21.981,0,0,0-4.848,6.231c-.081.164-.162.328-.24.492v12.357q0,4.208.361,7.875a53.574,53.574,0,0,0,1.079,6.773,29.13,29.13,0,0,0,4.323,10.327,18.5,18.5,0,0,0,7.085,6.123,23.084,23.084,0,0,0,9.966,2.042,17.764,17.764,0,0,0,8.645-2.161,20.689,20.689,0,0,0,6.844-6.124,28.539,28.539,0,0,0,4.563-9.245,43.966,43.966,0,0,0-.12-23.655,26.032,26.032,0,0,0-4.8-9.125,18.955,18.955,0,0,0-7.324-5.764,20.877,20.877,0,0,0-9.246-2.042,23.647,23.647,0,0,0-13.087,3.483A24.482,24.482,0,0,0,908.534,578.254Zm9.958,45.589a18.06,18.06,0,0,0,7.768,1.542,12.671,12.671,0,0,0,6.209-1.541,15.605,15.605,0,0,0,5.166-4.649l.029-.04.031-.04a23.461,23.461,0,0,0,3.739-7.615,38.916,38.916,0,0,0-.1-20.7,20.993,20.993,0,0,0-3.843-7.368l-.057-.068-.054-.07A13.874,13.874,0,0,0,932,579.048l-.079-.036-.078-.037a15.8,15.8,0,0,0-7.023-1.531,18.6,18.6,0,0,0-10.332,2.671l-.012.008-.013.008a17.5,17.5,0,0,0-5.929,6.093v11.108a60.719,60.719,0,0,0,1.311,13.5,24.1,24.1,0,0,0,3.522,8.536A13.423,13.423,0,0,0,918.493,623.843Z" transform="translate(-7273.446 -10748.361)" fill="#304c8e" fill-rule="evenodd"/>
    <g id="Grupo_1013528" data-name="Grupo 1013528" transform="translate(-6338.297 -10278.167)">
      <path id="Trazado_601491" data-name="Trazado 601491" d="M1147.423,568.212A99.212,99.212,0,1,1,1048.212,469,99.21,99.21,0,0,1,1147.423,568.212Z" transform="translate(-949 -469)" fill="#f5f5f5"/>
    </g>
    <path id="Trazado_601492" data-name="Trazado 601492" d="M1101.083,571.91h-41.389V563.1a1.738,1.738,0,1,0-3.477,0v8.807h-41.389a1.735,1.735,0,0,0-1.738,1.74v9.376a1.738,1.738,0,1,0,3.477,0v-7.635h39.651v7.635a1.738,1.738,0,1,0,3.477,0v-7.635h39.651v7.635a1.738,1.738,0,1,0,3.477,0V573.65A1.735,1.735,0,0,0,1101.083,571.91Z" transform="translate(-7297.042 -10761.209)" fill="#263c71"/>
    <path id="Trazado_601493" data-name="Trazado 601493" d="M1064.74,610.649a7.032,7.032,0,1,0-7.03-7.032A7.03,7.03,0,0,0,1064.74,610.649Z" transform="translate(-7303.825 -10766.564)" fill="#5986cb"/>
    <path id="Trazado_601494" data-name="Trazado 601494" d="M1068.065,597.488a6.956,6.956,0,0,1,.763,3.19,7.028,7.028,0,0,1-10.218,6.266,7.031,7.031,0,1,0,9.455-9.456Z" transform="translate(-7303.962 -10766.701)" fill="#304c8e"/>
    <path id="Trazado_601495" data-name="Trazado 601495" d="M1050.9,627.234a1.4,1.4,0,0,1-1.391-1.556,14.065,14.065,0,0,1,27.957,0,1.391,1.391,0,0,1-1.382,1.556Z" transform="translate(-7302.577 -10769.086)" fill="#5986cb"/>
    <path id="Trazado_601496" data-name="Trazado 601496" d="M1064.09,627.564H1078.3a1.393,1.393,0,0,0,1.382-1.559,14.046,14.046,0,0,0-7.03-10.67A15.482,15.482,0,0,1,1064.09,627.564Z" transform="translate(-7304.795 -10769.415)" fill="#304c8e"/>
    <path id="Trazado_601497" data-name="Trazado 601497" d="M1116.15,610.649a7.032,7.032,0,1,0-7.03-7.032A7.037,7.037,0,0,0,1116.15,610.649Z" transform="translate(-7311.641 -10766.564)" fill="#5986cb"/>
    <path id="Trazado_601498" data-name="Trazado 601498" d="M1119.483,597.488a7.035,7.035,0,0,1-9.463,9.456,7.034,7.034,0,1,0,9.463-9.456Z" transform="translate(-7311.778 -10766.701)" fill="#304c8e"/>
    <path id="Trazado_601499" data-name="Trazado 601499" d="M1102.311,627.234a1.4,1.4,0,0,1-1.382-1.556,14.065,14.065,0,0,1,27.958,0,1.4,1.4,0,0,1-1.382,1.556Z" transform="translate(-7310.395 -10769.086)" fill="#5986cb"/>
    <path id="Trazado_601500" data-name="Trazado 601500" d="M1115.51,627.564h14.212A1.4,1.4,0,0,0,1131.1,626a14.077,14.077,0,0,0-7.038-10.67A15.472,15.472,0,0,1,1115.51,627.564Z" transform="translate(-7312.613 -10769.415)" fill="#304c8e"/>
    <path id="Trazado_601501" data-name="Trazado 601501" d="M1013.328,610.649a7.032,7.032,0,1,0-7.038-7.032A7.03,7.03,0,0,0,1013.328,610.649Z" transform="translate(-7296.007 -10766.564)" fill="#5986cb"/>
    <path id="Trazado_601502" data-name="Trazado 601502" d="M1016.655,597.488a7.035,7.035,0,0,1-6.266,10.222,6.956,6.956,0,0,1-3.188-.766,7.031,7.031,0,1,0,9.455-9.456Z" transform="translate(-7296.146 -10766.701)" fill="#304c8e"/>
    <path id="Trazado_601503" data-name="Trazado 601503" d="M999.482,627.234a1.4,1.4,0,0,1-1.384-1.556,14.065,14.065,0,0,1,27.957,0,1.4,1.4,0,0,1-1.382,1.556Z" transform="translate(-7294.761 -10769.086)" fill="#5986cb"/>
    <path id="Trazado_601504" data-name="Trazado 601504" d="M1012.68,627.564h14.212a1.4,1.4,0,0,0,1.382-1.559,14.077,14.077,0,0,0-7.038-10.67A15.472,15.472,0,0,1,1012.68,627.564Z" transform="translate(-7296.979 -10769.415)" fill="#304c8e"/>
    <path id="Trazado_601505" data-name="Trazado 601505" d="M1024.736,646.571H999.392A1.392,1.392,0,0,1,998,645.179v-5.185a1.392,1.392,0,0,1,1.392-1.391h25.344a1.389,1.389,0,0,1,1.391,1.391v5.185A1.389,1.389,0,0,1,1024.736,646.571Z" transform="translate(-7294.747 -10772.952)" fill="#263c71"/>
    <path id="Trazado_601506" data-name="Trazado 601506" d="M1076.146,646.571h-25.337a1.4,1.4,0,0,1-1.4-1.392v-5.185a1.4,1.4,0,0,1,1.4-1.391h25.337a1.4,1.4,0,0,1,1.4,1.391v5.185A1.4,1.4,0,0,1,1076.146,646.571Z" transform="translate(-7302.563 -10772.952)" fill="#263c71"/>
    <path id="Trazado_601507" data-name="Trazado 601507" d="M1064.74,526.064a7.032,7.032,0,1,0-7.03-7.032A7.03,7.03,0,0,0,1064.74,526.064Z" transform="translate(-7303.825 -10753.704)" fill="#6a0f9f"/>
    <path id="Trazado_601508" data-name="Trazado 601508" d="M1068.065,512.9a6.953,6.953,0,0,1,.763,3.19,7.029,7.029,0,0,1-10.218,6.266,7.031,7.031,0,1,0,9.455-9.456Z" transform="translate(-7303.962 -10753.842)" fill="#7e19b8"/>
    <path id="Trazado_601509" data-name="Trazado 601509" d="M1050.9,542.649a1.4,1.4,0,0,1-1.391-1.557,14.065,14.065,0,0,1,27.957,0,1.392,1.392,0,0,1-1.382,1.557Z" transform="translate(-7302.577 -10756.226)" fill="#6a0f9f"/>
    <path id="Trazado_601510" data-name="Trazado 601510" d="M1064.09,542.979H1078.3a1.393,1.393,0,0,0,1.382-1.56,14.045,14.045,0,0,0-7.03-10.669A15.483,15.483,0,0,1,1064.09,542.979Z" transform="translate(-7304.795 -10756.555)" fill="#7e19b8"/>
    <path id="Trazado_601511" data-name="Trazado 601511" d="M1076.146,561.985h-25.337a1.4,1.4,0,0,1-1.4-1.392v-5.185a1.4,1.4,0,0,1,1.4-1.392h25.337a1.4,1.4,0,0,1,1.4,1.392v5.185A1.4,1.4,0,0,1,1076.146,561.985Z" transform="translate(-7302.563 -10760.093)" fill="#263c71"/>
    <path id="Trazado_601512" data-name="Trazado 601512" d="M1127.566,646.571h-25.346a1.389,1.389,0,0,1-1.391-1.392v-5.185a1.389,1.389,0,0,1,1.391-1.391h25.346a1.394,1.394,0,0,1,1.391,1.391v5.185A1.4,1.4,0,0,1,1127.566,646.571Z" transform="translate(-7310.381 -10772.952)" fill="#263c71"/>
  </g>
</svg>
