<svg xmlns="http://www.w3.org/2000/svg" width="278.822" height="198.424" viewBox="0 0 278.822 198.424">
  <g id="Grupo_1015041" data-name="Grupo 1015041" transform="translate(7142.857 10278.167)">
    <path id="Trazado_601395" data-name="Trazado 601395" d="M138.742,586.333v41.394H121.091v37.1H70.451v-37.1H3.2L.186,596.682,70.451,483.657v-3.829h50.64V586.333ZM116,591.421h17.651V622.64H116v37.1H75.539v-37.1H7.818L5.416,597.9l70.123-112.8v-.193H116Zm-40.464,0H44.08L72.9,541.711l2.642-4.324Zm-5.088-5.088V556.074L52.91,586.333Z" transform="translate(-7143.043 -10748.813)" fill="#304c8e" fill-rule="evenodd"/>
    <g id="Grupo_1013524" data-name="Grupo 1013524" transform="translate(-7062.458 -10278.167)">
      <path id="Trazado_601396" data-name="Trazado 601396" d="M293.424,568.212A99.212,99.212,0,1,1,194.212,469,99.212,99.212,0,0,1,293.424,568.212Z" transform="translate(-95 -469)" fill="#f5f5f5"/>
    </g>
    <path id="Trazado_601397" data-name="Trazado 601397" d="M188.554,625.254h-7.1l-.624-4.408a33.151,33.151,0,0,0-6.261-15.1h-.6a39,39,0,0,1-6.573-.566l-.039.019A7.745,7.745,0,0,0,160,599.9a6.893,6.893,0,0,0-.936.058,5.835,5.835,0,0,0-1.014.2,7.806,7.806,0,0,0-4.778,3.549,7.976,7.976,0,0,0-1.073,4v44.857h29.255v-11.7h9.752a1.956,1.956,0,0,0,1.95-1.95V625.254Z" transform="translate(-7166.155 -10767.068)" fill="#263c71"/>
    <path id="Trazado_601398" data-name="Trazado 601398" d="M211.163,610v-3.2h7.8V610a4.3,4.3,0,0,0,2.769,3.959c.02.019.039.019.078.039a4.355,4.355,0,0,0,4.8-.839l2.243-2.262,5.519,5.519-2.262,2.243a4.356,4.356,0,0,0-.839,4.8c.02.039.02.059.039.078a4.3,4.3,0,0,0,3.959,2.769h3.2v7.8h-3.2a4.3,4.3,0,0,0-3.959,2.769c-.019.02-.019.039-.039.078a4.356,4.356,0,0,0,.839,4.8l2.262,2.243-5.519,5.519-2.243-2.262a4.355,4.355,0,0,0-4.8-.839c-.039.02-.059.02-.078.039a4.3,4.3,0,0,0-2.769,3.959v3.2h-7.8v-3.2a4.3,4.3,0,0,0-2.769-3.959c-.019-.02-.039-.02-.078-.039a4.355,4.355,0,0,0-4.8.839l-2.243,2.262-7.606-7.606h3.842a1.956,1.956,0,0,0,1.95-1.95v-1.95h6.885a11.709,11.709,0,1,0-.176-15.388,3.814,3.814,0,0,0-1.248-.215,3.731,3.731,0,0,0-2.672,1.112l-2.789,2.789h-4.6a4.3,4.3,0,0,0,3.959-2.769c.02-.02.02-.039.039-.078a4.356,4.356,0,0,0-.839-4.8l-2.262-2.243,5.519-5.519,2.243,2.262a4.356,4.356,0,0,0,4.8.839c.039-.02.059-.02.078-.039A4.3,4.3,0,0,0,211.163,610Z" transform="translate(-7172.46 -10768.117)" fill="#fcd770"/>
    <path id="Trazado_601399" data-name="Trazado 601399" d="M239.6,524h31.205v27.3H239.6V524Z" transform="translate(-7179.443 -10755.529)" fill="#263c71"/>
    <path id="Trazado_601400" data-name="Trazado 601400" d="M276.8,571.95V593.4H253.4V570h23.4Z" transform="translate(-7181.541 -10762.522)" fill="#263c71"/>
    <path id="Trazado_601401" data-name="Trazado 601401" d="M202.8,584.9V565.4h19.5v19.5H202.8Z" transform="translate(-7173.848 -10761.823)" fill="#263c71"/>
    <path id="Trazado_601402" data-name="Trazado 601402" d="M211.3,545.6a3.9,3.9,0,1,0-3.9-3.9A3.9,3.9,0,0,0,211.3,545.6Z" transform="translate(-7174.547 -10757.627)" fill="#263c71"/>
    <path id="Trazado_601403" data-name="Trazado 601403" d="M271.1,637.6a3.9,3.9,0,1,0-3.9-3.9A3.9,3.9,0,0,0,271.1,637.6Z" transform="translate(-7183.639 -10771.614)" fill="#263c71"/>
    <path id="Trazado_601404" data-name="Trazado 601404" d="M185.907,548.95v3.9a1.956,1.956,0,0,1-1.95,1.95H144.95a1.672,1.672,0,0,1-.7-.137A1.957,1.957,0,0,1,143,552.851V547h40.957A1.956,1.956,0,0,1,185.907,548.95Z" transform="translate(-7164.756 -10759.025)" fill="#fcd770"/>
    <path id="Trazado_601405" data-name="Trazado 601405" d="M180.314,535.7h-3.862a1.956,1.956,0,0,0-1.95,1.95V543.5h-7.8v-9.752a1.956,1.956,0,0,0-1.95-1.95h-3.9a1.956,1.956,0,0,0-1.95,1.95V543.5h-7.8v-5.851a1.956,1.956,0,0,0-1.95-1.95h-3.9a1.479,1.479,0,0,0-.293.019,19.2,19.2,0,0,1,35.359-.019Z" transform="translate(-7165.054 -10755.529)" fill="#ffeaa7"/>
    <path id="Trazado_601406" data-name="Trazado 601406" d="M186.782,541.545l.819,4.057h-7.8V539.75a1.956,1.956,0,0,1,1.95-1.95h3.862A17.417,17.417,0,0,1,186.782,541.545Z" transform="translate(-7170.351 -10757.627)" fill="#fcd770"/>
    <path id="Trazado_601407" data-name="Trazado 601407" d="M169.2,535.15V544.9h-7.8V535.15a1.956,1.956,0,0,1,1.95-1.95h3.9A1.956,1.956,0,0,1,169.2,535.15Z" transform="translate(-7167.554 -10756.928)" fill="#fcd770"/>
    <path id="Trazado_601408" data-name="Trazado 601408" d="M148.851,537.8a1.956,1.956,0,0,1,1.95,1.95V545.6H143l.215-2.184a19.074,19.074,0,0,1,1.443-5.6,1.474,1.474,0,0,1,.293-.02Z" transform="translate(-7164.756 -10757.627)" fill="#fcd770"/>
    <path id="Trazado_601409" data-name="Trazado 601409" d="M156.652,562.026v1.95a3.929,3.929,0,0,0-3.9,3.9,4.693,4.693,0,0,0,1.385,3.335l1.95,1.95a1.967,1.967,0,0,1,.566,1.365v7l-6.1-4.369A17.989,17.989,0,0,1,143,562.495v-.8a13.374,13.374,0,0,1,1.248-5.656,1.672,1.672,0,0,0,.7.137H162.5A5.843,5.843,0,0,0,156.652,562.026Z" transform="translate(-7164.756 -10760.399)" fill="#656d78"/>
    <path id="Trazado_601410" data-name="Trazado 601410" d="M177.9,579.6v1.151a6.659,6.659,0,0,1-6.651,6.651H170.1a16.355,16.355,0,0,0,3.784,10.376c.351.429.7.878,1.034,1.326h-.6a39.01,39.01,0,0,1-6.573-.565l-.039.02a7.746,7.746,0,0,0-7.353-5.3,6.882,6.882,0,0,0-.936.059,5.824,5.824,0,0,0-1.014.2V574.553a1.967,1.967,0,0,0-.566-1.365l-1.95-1.95A4.693,4.693,0,0,1,154.5,567.9a3.929,3.929,0,0,1,3.9-3.9v-1.95a5.843,5.843,0,0,1,5.851-5.851H177.9s5.851,7.8,5.851,17.553L177.9,575.7Z" transform="translate(-7166.505 -10760.425)" fill="#f0d0b4"/>
    <path id="Trazado_601411" data-name="Trazado 601411" d="M216.1,629.1A3.912,3.912,0,0,1,220,633a7.791,7.791,0,0,1-7.8,7.8H200.5V629.1l2.789-2.789a3.731,3.731,0,0,1,2.672-1.112,3.814,3.814,0,0,1,1.248.215,3.714,3.714,0,0,1,2.126,1.872l.917,1.814Z" transform="translate(-7173.499 -10770.915)" fill="#f0d0b4"/>
    <path id="Trazado_601412" data-name="Trazado 601412" d="M252.342,541.456l-2.411-2.411-2.758,2.758,5.391,5.391,13.071-15.254-2.961-2.535Z" transform="translate(-7180.594 -10756.351)"/>
  </g>
</svg>
