<svg xmlns="http://www.w3.org/2000/svg" width="265.711" height="198.424" viewBox="0 0 265.711 198.424">
  <g id="Grupo_1015314" data-name="Grupo 1015314" transform="translate(5738.747 11412.338)">
    <g id="Grupo_1015313" data-name="Grupo 1015313" transform="translate(-3 -373.5)">
      <path id="Trazado_601376" data-name="Trazado 601376" d="M106.152,23.828v185H55.512V81.331L15.647,92.978V51.83l80.839-28ZM60.6,74.544v129.2h40.465V28.916H97.342L20.735,55.452V86.191Z" transform="translate(-5751.394 -11053.484)" fill="#304c8e" fill-rule="evenodd"/>
      <g id="Grupo_1013523" data-name="Grupo 1013523" transform="translate(-5668.458 -11038.838)">
        <path id="Trazado_601377" data-name="Trazado 601377" d="M293.424,112.212A99.212,99.212,0,1,1,194.212,13,99.212,99.212,0,0,1,293.424,112.212Z" transform="translate(-95 -13)" fill="#f5f5f5"/>
      </g>
    </g>
    <path id="Trazado_601378" data-name="Trazado 601378" d="M211.5,83.016H233v7.167H211.5Z" transform="translate(-5784.171 -11435.982)" fill="#304c8e"/>
    <path id="Trazado_601379" data-name="Trazado 601379" d="M205.161,154.854h10.751V187.1H205.161Z" transform="translate(-5783.207 -11446.904)" fill="#304c8e"/>
    <path id="Trazado_601380" data-name="Trazado 601380" d="M222.064,163.307h10.751V188.39H222.064Z" transform="translate(-5785.777 -11448.189)" fill="#304c8e"/>
    <path id="Trazado_601381" data-name="Trazado 601381" d="M238.967,131.613h10.75v51.958h-10.75Z" transform="translate(-5788.347 -11443.371)" fill="#304c8e"/>
    <path id="Trazado_601382" data-name="Trazado 601382" d="M255.871,121.049h10.75v60.916h-10.75Z" transform="translate(-5790.917 -11441.766)" fill="#304c8e"/>
    <path id="Trazado_601383" data-name="Trazado 601383" d="M251.708,99.833a5.368,5.368,0,0,0-5.045,3.583H231.668a5.359,5.359,0,1,0-9.078,5.307l-11.176,19.87a5.218,5.218,0,0,0-.914-.094,5.321,5.321,0,0,0-1.929.373L204.39,124a5.289,5.289,0,0,0,.735-2.662,5.352,5.352,0,0,0-8.959-3.978v-10.4a8.906,8.906,0,0,0-6.383-8.582L178.25,94.917V92.178a12.514,12.514,0,0,0,5.375-10.261V77.092a11.664,11.664,0,0,0,2.5-3.335l1.818-3.635-4.368-1.457a21.594,21.594,0,0,1-5.142-2.512,12.8,12.8,0,0,0-19.9,10.637l0,5.43a12.144,12.144,0,0,0,3.58,8.652,12.409,12.409,0,0,0,1.805,1.491v2.553l-11.533,3.46A8.9,8.9,0,0,0,146,106.959v17.958h47.633l-11.275,11.275,2.534,2.534,12.556-12.556a5.289,5.289,0,0,0,2.3.539,5.343,5.343,0,0,0,1.93-.373l4.18,4.878a5.3,5.3,0,0,0-.734,2.662,5.375,5.375,0,1,0,9.408-3.515l11.175-19.87A5.25,5.25,0,0,0,231.67,107h14.995a5.366,5.366,0,1,0,5.044-7.167ZM170.9,108.792h.374l1.394,12.541H169.5Zm.688-3.583h-1l-1.273-3.817a6.858,6.858,0,0,0,3.546,0Zm-.248-37.625a9.2,9.2,0,0,1,5.113,1.548,24.968,24.968,0,0,0,5.994,2.932l.448.15a7.936,7.936,0,0,1-11.471,3l-3.787-2.526-1.309.654a13.447,13.447,0,0,1-3.934,1.254A9.227,9.227,0,0,1,171.335,67.583Zm-9.218,10.655a17.124,17.124,0,0,0,5.244-1.43l2.07,1.381a11.811,11.811,0,0,0,10.611,1.145v2.582a8.994,8.994,0,0,1-9.01,8.958h-.27a8.643,8.643,0,0,1-8.646-8.65Zm8.644,16.22h.27a12.626,12.626,0,0,0,3.634-.537v1.834a3.95,3.95,0,0,1-7.164,0V94.009A12.209,12.209,0,0,0,170.761,94.458Zm-21.177,12.5a5.341,5.341,0,0,1,3.831-5.149l11.145-3.344,2.909,8.726L165.9,121.333h-5.564V107H156.75v14.333h-7.166Zm43,14.375h-7.166V107h-3.583v14.333H176.27l-1.57-14.142,2.908-8.726,11.146,3.344a5.338,5.338,0,0,1,3.83,5.149Zm5.375,0a1.792,1.792,0,1,1,1.792,1.792A1.793,1.793,0,0,1,197.958,121.333ZM210.5,135.667a1.792,1.792,0,1,1,1.792-1.792A1.792,1.792,0,0,1,210.5,135.667ZM226.625,107a1.792,1.792,0,1,1,1.791-1.792A1.792,1.792,0,0,1,226.625,107Zm25.083,0a1.792,1.792,0,1,1,1.792-1.792A1.792,1.792,0,0,1,251.708,107Z" transform="translate(-5774.212 -11433.092)"/>
    <path id="Trazado_601384" data-name="Trazado 601384" d="M192.484,190.774h3.584v3.583h-3.584Z" transform="translate(-5781.28 -11452.365)"/>
    <path id="Trazado_601385" data-name="Trazado 601385" d="M200.936,190.774h64.5v3.583h-64.5Z" transform="translate(-5782.564 -11452.365)"/>
    <path id="Trazado_601386" data-name="Trazado 601386" d="M262.173,64H233.507a3.587,3.587,0,0,0-3.583,3.583v3.583H206.632a3.587,3.587,0,0,0-3.584,3.583V92.667a3.587,3.587,0,0,0,3.584,3.583h5.375v7.167l9.555-7.167H235.3a3.586,3.586,0,0,0,3.583-3.583V89.083h5.375V96.25l9.555-7.166h8.362a3.587,3.587,0,0,0,3.583-3.583V67.583A3.587,3.587,0,0,0,262.173,64ZM235.3,92.667h-14.93L215.59,96.25V92.667h-8.959l0-17.917H235.3ZM262.173,85.5h-9.555l-4.778,3.583V85.5h-8.959V74.75a3.587,3.587,0,0,0-3.583-3.583h-1.792V67.583h28.666Z" transform="translate(-5782.886 -11433.092)"/>
    <path id="Trazado_601387" data-name="Trazado 601387" d="M253.759,76.677h3.583V80.26h-3.583Z" transform="translate(-5790.596 -11435.02)"/>
    <path id="Trazado_601388" data-name="Trazado 601388" d="M262.21,76.677h3.583V80.26H262.21Z" transform="translate(-5791.88 -11435.02)"/>
    <path id="Trazado_601389" data-name="Trazado 601389" d="M211.5,80.9H233v3.583H211.5Z" transform="translate(-5784.171 -11435.662)"/>
    <path id="Trazado_601390" data-name="Trazado 601390" d="M211.5,89.355H233v3.583H211.5Z" transform="translate(-5784.171 -11436.947)"/>
    <path id="Trazado_601391" data-name="Trazado 601391" d="M174.342,186.648h-10.1l-.907-4.521a19.454,19.454,0,0,1-3.1-1.287l-3.84,2.561-7.142-7.143,2.56-3.84a19.77,19.77,0,0,1-1.286-3.1L146,168.407V158.3l4.522-.907a19.454,19.454,0,0,1,1.286-3.1l-2.56-3.84,7.142-7.142,3.84,2.56a19.778,19.778,0,0,1,3.1-1.286l.909-4.522h10.1l.907,4.522a19.477,19.477,0,0,1,3.1,1.286l3.84-2.56,7.143,7.142-2.561,3.84a19.747,19.747,0,0,1,1.287,3.1l4.521.909v10.1l-4.521.907a19.48,19.48,0,0,1-1.287,3.1l2.561,3.84-7.143,7.143-3.84-2.561a19.77,19.77,0,0,1-3.1,1.287Z" transform="translate(-5774.212 -11444.656)" fill="#304c8e"/>
    <path id="Trazado_601392" data-name="Trazado 601392" d="M182.381,172.545l-2.919-2.078a8.946,8.946,0,0,0-12.479-12.479l-2.079-2.92a12.53,12.53,0,0,1,17.477,17.477Z" transform="translate(-5777.086 -11446.584)"/>
    <path id="Trazado_601393" data-name="Trazado 601393" d="M171.219,178.771A12.53,12.53,0,0,1,161,158.968l2.92,2.078A8.946,8.946,0,0,0,176.4,173.525l2.078,2.92A12.46,12.46,0,0,1,171.219,178.771Z" transform="translate(-5776.14 -11447.531)"/>
    <path id="Trazado_601394" data-name="Trazado 601394" d="M172.505,171.943a5.375,5.375,0,1,1,5.374-5.374A5.382,5.382,0,0,1,172.505,171.943Zm0-7.166a1.791,1.791,0,1,0,1.791,1.792A1.793,1.793,0,0,0,172.505,164.777Z" transform="translate(-5777.425 -11447.869)"/>
  </g>
</svg>
