<svg xmlns="http://www.w3.org/2000/svg" width="279.521" height="198.423" viewBox="0 0 279.521 198.423">
  <g id="Grupo_1015047" data-name="Grupo 1015047" transform="translate(6953.612 9891.496)">
    <path id="Trazado_601413" data-name="Trazado 601413" d="M359.616,935.828v27.74L292.57,1120.83H238.553l65.44-143.607H223.363v-41.4ZM311.9,972.135l-65.439,143.607h42.746l65.319-153.214V940.916H228.451v31.22Z" transform="translate(-7176.974 -10818.142)" fill="#304c8e" fill-rule="evenodd"/>
    <g id="Grupo_1013525" data-name="Grupo 1013525" transform="translate(-6872.515 -9891.495)">
      <path id="Trazado_601414" data-name="Trazado 601414" d="M517.424,1024.212A99.212,99.212,0,1,1,418.212,925,99.21,99.21,0,0,1,517.424,1024.212Z" transform="translate(-319 -925)" fill="#f5f5f5"/>
    </g>
    <path id="Trazado_601415" data-name="Trazado 601415" d="M471.717,983.646v27.347a.721.721,0,0,0-.073.076l-12.689,12.686H449.84a9.138,9.138,0,0,0-7.292,3.646H417.024v43.755h40.109v7.292h-47.4v-54.694a18.237,18.237,0,0,0-18.231-18.231v-5.783a3.585,3.585,0,0,1,.328-1.51h14.257a3.657,3.657,0,0,0,3.646-3.646V980.328a3.589,3.589,0,0,1,1.514-.328h56.826A3.657,3.657,0,0,1,471.717,983.646Z" transform="translate(-7202.537 -10824.857)" fill="#e6e9ed"/>
    <path id="Trazado_601416" data-name="Trazado 601416" d="M456.7,1066.528a9.912,9.912,0,0,1-2.206-2.425,10.3,10.3,0,0,1-1.459-3.1h-.018l-7.712,7.708-1.823.729-6.746,2.7a3.054,3.054,0,0,1-4.193-2.84,2.985,2.985,0,0,1,.055-.585,3.155,3.155,0,0,1,.164-.551l3.427-8.564,1.823-1.823,10.939-10.939a3.66,3.66,0,0,1-3.646-3.646v-1.823a9,9,0,0,1,1.823-5.47H421.6v43.755h40.109v-9.115Z" transform="translate(-7207.114 -10833.355)" fill="#ffeaa7"/>
    <path id="Trazado_601417" data-name="Trazado 601417" d="M421.6,988.6H469v7.292H421.6Z" transform="translate(-7207.114 -10826.165)" fill="#304c8e"/>
    <path id="Trazado_601418" data-name="Trazado 601418" d="M409.79,980.387v14.257a3.657,3.657,0,0,1-3.646,3.646H391.887a3.762,3.762,0,0,1,.748-1.077l16.08-16.078A3.661,3.661,0,0,1,409.79,980.387Z" transform="translate(-7202.596 -10824.916)" fill="#304c8e"/>
    <path id="Trazado_601419" data-name="Trazado 601419" d="M455.208,1044.5v14.806a10.391,10.391,0,0,0,.438,3.01h-.019l-7.711,7.708-9.116-9.116,1.823-1.823,10.939-10.939a3.676,3.676,0,0,0,3.646-3.646Z" transform="translate(-7209.729 -10834.663)" fill="#304c8e"/>
    <path id="Trazado_601420" data-name="Trazado 601420" d="M482.462,1016.223a6.447,6.447,0,0,1,9.043,9.192l-10.647,10.642-14.8,14.806v-9.116a5.465,5.465,0,0,0-1.6-3.867,5.561,5.561,0,0,0-2.279-1.365l7.53-7.53,12.689-12.686A.581.581,0,0,1,482.462,1016.223Z" transform="translate(-7213.282 -10830.087)" fill="#304c8e"/>
    <path id="Trazado_601421" data-name="Trazado 601421" d="M447.262,1072.966l-1.823.729-6.746,2.7a3.045,3.045,0,0,1-3.974-3.968l3.427-8.573Z" transform="translate(-7209.075 -10837.605)" fill="#aab2bd"/>
    <path id="Trazado_601422" data-name="Trazado 601422" d="M488.954,1070.3l3.646,21.878H468.9V1075.77Z" transform="translate(-7214.305 -10838.586)" fill="#304c8e"/>
    <path id="Trazado_601423" data-name="Trazado 601423" d="M455.766,1045.108a3.551,3.551,0,0,1-2.57,1.077,3.654,3.654,0,0,1-3.646-3.646v-1.823a9,9,0,0,1,1.823-5.469,9.135,9.135,0,0,1,7.292-3.646h9.116l-7.53,7.53a5.716,5.716,0,0,0-1.586-.237,1.83,1.83,0,0,0-1.823,1.823v1.823A3.559,3.559,0,0,1,455.766,1045.108Z" transform="translate(-7211.363 -10832.702)" fill="#f0d0b4"/>
    <path id="Trazado_601424" data-name="Trazado 601424" d="M481.212,1041.712a50.1,50.1,0,0,1,6.108,23.972l-20.054,5.469-5.014-4.011a9.907,9.907,0,0,1-2.206-2.425,10.278,10.278,0,0,1-1.458-3.095,10.393,10.393,0,0,1-.438-3.01v-16.629a1.83,1.83,0,0,1,1.823-1.823,5.721,5.721,0,0,1,1.586.237,5.56,5.56,0,0,1,2.279,1.365,5.466,5.466,0,0,1,1.6,3.867v9.116l14.8-14.806Z" transform="translate(-7212.67 -10833.971)" fill="#f0d0b4"/>
    <path id="Trazado_601425" data-name="Trazado 601425" d="M406.462,1031.6v58.34a7.291,7.291,0,0,1-7.293,7.293H377.292A7.292,7.292,0,0,1,370,1089.94V1031.6a18.211,18.211,0,0,0,7.293,14.585v12.762a1.83,1.83,0,0,0,1.823,1.823h18.231a1.83,1.83,0,0,0,1.823-1.823v-12.762A18.209,18.209,0,0,0,406.462,1031.6Z" transform="translate(-7199.269 -10832.702)" fill="#969faa"/>
    <path id="Trazado_601426" data-name="Trazado 601426" d="M398.8,1096.42H380.477a1.827,1.827,0,0,1-1.823-1.823v-18.163a1.827,1.827,0,0,1,1.823-1.823H398.8a1.828,1.828,0,0,1,1.823,1.823V1094.6A1.819,1.819,0,0,1,398.8,1096.42Z" transform="translate(-7200.584 -10839.241)" fill="#304c8e"/>
    <path id="Trazado_601427" data-name="Trazado 601427" d="M400.477,1048.8v12.762a1.83,1.83,0,0,1-1.823,1.823H380.423a1.83,1.83,0,0,1-1.823-1.823V1048.8a18.231,18.231,0,0,0,21.877,0Z" transform="translate(-7200.576 -10835.317)" fill="#304c8e"/>
    <path id="Trazado_601428" data-name="Trazado 601428" d="M406.462,1028.331a18.231,18.231,0,1,1-18.231-18.231A18.208,18.208,0,0,1,406.462,1028.331Z" transform="translate(-7199.269 -10829.434)" fill="#fee132"/>
  </g>
</svg>
