<svg xmlns="http://www.w3.org/2000/svg" width="820" height="525.201" viewBox="0 0 820 525.201">
  <g id="Grupo_876048" data-name="Grupo 876048" transform="translate(-390 -10663)">
    <g id="Grupo_153971" data-name="Grupo 153971" transform="translate(390 10688.286)">
      <g id="Grupo_153438" data-name="Grupo 153438" transform="translate(0 0)">
        <path id="Trazado_605293" data-name="Trazado 605293" d="M0,0H650V431H0Z" transform="translate(170 11.714)" fill="#e1f5d6"/>
        <path id="Trazado_605294" data-name="Trazado 605294" d="M0,0H650V203H0Z" transform="translate(170 239.714)" fill="#dee9f0"/>
        <path id="Trazado_213258" data-name="Trazado 213258" d="M-6919-2343.81h753.59" transform="translate(6985.386 2583.613)" fill="none" stroke="#7e10b8" stroke-width="2" stroke-dasharray="4"/>
        <path id="Trazado_605295" data-name="Trazado 605295" d="M3.133,10.781V15H1.156V3.625H5.508a4.4,4.4,0,0,1,3.027.993A3.34,3.34,0,0,1,9.656,7.246a3.229,3.229,0,0,1-1.1,2.6,4.613,4.613,0,0,1-3.074.931Zm0-1.594H5.508a2.339,2.339,0,0,0,1.609-.5,1.823,1.823,0,0,0,.555-1.434,1.967,1.967,0,0,0-.562-1.473,2.168,2.168,0,0,0-1.547-.566H3.133ZM10.742,10.7a4.984,4.984,0,0,1,.492-2.238,3.6,3.6,0,0,1,1.383-1.531,3.9,3.9,0,0,1,2.047-.535,3.692,3.692,0,0,1,2.777,1.1,4.333,4.333,0,0,1,1.152,2.922l.008.445a5.029,5.029,0,0,1-.48,2.234,3.551,3.551,0,0,1-1.375,1.523,3.925,3.925,0,0,1-2.066.539,3.667,3.667,0,0,1-2.863-1.191,4.563,4.563,0,0,1-1.074-3.176Zm1.9.164A3.406,3.406,0,0,0,13.18,12.9a1.752,1.752,0,0,0,1.5.738,1.733,1.733,0,0,0,1.5-.75,3.762,3.762,0,0,0,.535-2.2,3.362,3.362,0,0,0-.551-2.031,1.856,1.856,0,0,0-2.973-.012A3.691,3.691,0,0,0,12.641,10.859ZM23.68,13.641a1.716,1.716,0,0,0,1.18-.414,1.415,1.415,0,0,0,.5-1.023h1.789a2.789,2.789,0,0,1-.492,1.473,3.228,3.228,0,0,1-1.25,1.082,3.725,3.725,0,0,1-1.7.4,3.6,3.6,0,0,1-2.812-1.148,4.555,4.555,0,0,1-1.039-3.172v-.2a4.479,4.479,0,0,1,1.031-3.09A3.571,3.571,0,0,1,23.7,6.391a3.473,3.473,0,0,1,2.457.879,3.148,3.148,0,0,1,1,2.309H25.359a1.738,1.738,0,0,0-.5-1.2,1.6,1.6,0,0,0-1.184-.469,1.671,1.671,0,0,0-1.422.668,3.408,3.408,0,0,0-.508,2.027v.3a3.465,3.465,0,0,0,.5,2.051A1.669,1.669,0,0,0,23.68,13.641ZM28.227,10.7a4.984,4.984,0,0,1,.492-2.238A3.6,3.6,0,0,1,30.1,6.926a3.9,3.9,0,0,1,2.047-.535,3.692,3.692,0,0,1,2.777,1.1,4.333,4.333,0,0,1,1.152,2.922l.008.445a5.029,5.029,0,0,1-.48,2.234,3.551,3.551,0,0,1-1.375,1.523,3.925,3.925,0,0,1-2.066.539A3.667,3.667,0,0,1,29.3,13.965a4.563,4.563,0,0,1-1.074-3.176Zm1.9.164a3.406,3.406,0,0,0,.539,2.043,1.752,1.752,0,0,0,1.5.738,1.733,1.733,0,0,0,1.5-.75,3.762,3.762,0,0,0,.535-2.2,3.362,3.362,0,0,0-.551-2.031,1.856,1.856,0,0,0-2.973-.012A3.691,3.691,0,0,0,30.125,10.859Z" transform="translate(304 451.714)" fill="#12263f"/>
        <path id="Trazado_605296" data-name="Trazado 605296" d="M1.156,15V3.625h3.9A4.76,4.76,0,0,1,7.992,4.4,2.724,2.724,0,0,1,9,6.7a2.456,2.456,0,0,1-.422,1.406,2.715,2.715,0,0,1-1.234.969,2.511,2.511,0,0,1,1.426.941,2.742,2.742,0,0,1,.5,1.66,3.028,3.028,0,0,1-1.027,2.461A4.467,4.467,0,0,1,5.3,15ZM3.133,9.867v3.555h2.2a2.124,2.124,0,0,0,1.453-.461A1.618,1.618,0,0,0,7.3,11.68,1.623,1.623,0,0,0,5.492,9.867Zm0-1.453H5.07A2.241,2.241,0,0,0,6.512,8a1.432,1.432,0,0,0,.52-1.184,1.452,1.452,0,0,0-.48-1.219,2.426,2.426,0,0,0-1.5-.375H3.133ZM16.117,15a2.93,2.93,0,0,1-.219-.789,2.955,2.955,0,0,1-2.219.945A2.982,2.982,0,0,1,11.6,14.43a2.325,2.325,0,0,1-.8-1.8,2.4,2.4,0,0,1,1-2.074,4.865,4.865,0,0,1,2.871-.723h1.164V9.281a1.481,1.481,0,0,0-.367-1.051,1.456,1.456,0,0,0-1.117-.395,1.672,1.672,0,0,0-1.062.324,1,1,0,0,0-.414.824h-1.9a2.107,2.107,0,0,1,.461-1.3,3.071,3.071,0,0,1,1.254-.949,4.4,4.4,0,0,1,1.77-.344,3.547,3.547,0,0,1,2.367.746,2.661,2.661,0,0,1,.906,2.1v3.813a4.321,4.321,0,0,0,.32,1.82V15Zm-2.086-1.367a2.159,2.159,0,0,0,1.059-.273,1.827,1.827,0,0,0,.746-.734V11.031H14.813a2.8,2.8,0,0,0-1.586.367,1.189,1.189,0,0,0-.531,1.039,1.109,1.109,0,0,0,.363.871A1.407,1.407,0,0,0,14.031,13.633ZM21.7,6.547v9.2a2.781,2.781,0,0,1-.645,1.98,2.47,2.47,0,0,1-1.887.684,3.794,3.794,0,0,1-1.008-.133v-1.5a2.925,2.925,0,0,0,.672.07q.945,0,.969-1.031V6.547Zm-2.062-2.2a1.008,1.008,0,0,1,.277-.727,1.048,1.048,0,0,1,.793-.289,1.061,1.061,0,0,1,.8.289,1,1,0,0,1,.281.727.977.977,0,0,1-.281.715,1.069,1.069,0,0,1-.8.285,1.056,1.056,0,0,1-.793-.285A.984.984,0,0,1,19.641,4.352ZM28.781,15a2.93,2.93,0,0,1-.219-.789,3.193,3.193,0,0,1-4.3.219,2.325,2.325,0,0,1-.8-1.8,2.4,2.4,0,0,1,1-2.074,4.865,4.865,0,0,1,2.871-.723H28.5V9.281a1.481,1.481,0,0,0-.367-1.051,1.456,1.456,0,0,0-1.117-.395,1.672,1.672,0,0,0-1.062.324,1,1,0,0,0-.414.824h-1.9a2.107,2.107,0,0,1,.461-1.3,3.071,3.071,0,0,1,1.254-.949,4.4,4.4,0,0,1,1.77-.344,3.547,3.547,0,0,1,2.367.746,2.661,2.661,0,0,1,.906,2.1v3.813a4.321,4.321,0,0,0,.32,1.82V15ZM26.7,13.633a2.159,2.159,0,0,0,1.059-.273,1.827,1.827,0,0,0,.746-.734V11.031H27.477a2.8,2.8,0,0,0-1.586.367,1.189,1.189,0,0,0-.531,1.039,1.109,1.109,0,0,0,.363.871A1.407,1.407,0,0,0,26.7,13.633Zm10.43-.93a.861.861,0,0,0-.418-.773,4.445,4.445,0,0,0-1.387-.469,7.129,7.129,0,0,1-1.617-.516,2.158,2.158,0,0,1-1.422-1.992A2.25,2.25,0,0,1,33.2,7.125a3.644,3.644,0,0,1,2.344-.734A3.792,3.792,0,0,1,38,7.141a2.38,2.38,0,0,1,.934,1.945h-1.9a1.17,1.17,0,0,0-.406-.91,1.557,1.557,0,0,0-1.078-.363,1.682,1.682,0,0,0-1.02.289.911.911,0,0,0-.395.773.769.769,0,0,0,.367.68,5.049,5.049,0,0,0,1.484.488,7.027,7.027,0,0,1,1.754.586,2.484,2.484,0,0,1,.945.816,2.082,2.082,0,0,1,.309,1.156,2.2,2.2,0,0,1-.945,1.848,4.031,4.031,0,0,1-2.477.707,4.371,4.371,0,0,1-1.852-.375,3.047,3.047,0,0,1-1.266-1.031A2.441,2.441,0,0,1,32,12.336h1.844a1.338,1.338,0,0,0,.508,1.035,1.973,1.973,0,0,0,1.242.363,1.92,1.92,0,0,0,1.141-.285A.883.883,0,0,0,37.125,12.7Z" transform="translate(0 411.714)" fill="#12263f"/>
        <path id="Trazado_605297" data-name="Trazado 605297" d="M3.719,3.625,7,12.344l3.273-8.719h2.555V15H10.859V11.25l.2-5.016L7.7,15H6.281L2.93,6.242l.2,5.008V15H1.156V3.625ZM14.625,10.7a4.984,4.984,0,0,1,.492-2.238A3.6,3.6,0,0,1,16.5,6.926a3.9,3.9,0,0,1,2.047-.535,3.692,3.692,0,0,1,2.777,1.1,4.333,4.333,0,0,1,1.152,2.922l.008.445A5.029,5.029,0,0,1,22,13.094a3.551,3.551,0,0,1-1.375,1.523,3.925,3.925,0,0,1-2.066.539A3.667,3.667,0,0,1,15.7,13.965a4.563,4.563,0,0,1-1.074-3.176Zm1.9.164a3.406,3.406,0,0,0,.539,2.043,1.752,1.752,0,0,0,1.5.738,1.733,1.733,0,0,0,1.5-.75,3.762,3.762,0,0,0,.535-2.2,3.362,3.362,0,0,0-.551-2.031,1.856,1.856,0,0,0-2.973-.012A3.691,3.691,0,0,0,16.523,10.859Zm7.211-.148a5.026,5.026,0,0,1,.906-3.137,2.9,2.9,0,0,1,2.43-1.184,2.759,2.759,0,0,1,2.172.938V3h1.9V15H29.422l-.094-.875a2.8,2.8,0,0,1-2.273,1.031,2.887,2.887,0,0,1-2.4-1.2A5.21,5.21,0,0,1,23.734,10.711Zm1.9.164a3.519,3.519,0,0,0,.5,2.012,1.61,1.61,0,0,0,1.41.723,1.793,1.793,0,0,0,1.7-1.039V8.961a1.766,1.766,0,0,0-1.687-1.016,1.622,1.622,0,0,0-1.422.73A3.918,3.918,0,0,0,25.633,10.875Zm11.211,4.281a3.928,3.928,0,0,1-2.926-1.137A4.124,4.124,0,0,1,32.8,10.992v-.234A5.072,5.072,0,0,1,33.285,8.5a3.716,3.716,0,0,1,1.371-1.551,3.625,3.625,0,0,1,1.969-.555,3.318,3.318,0,0,1,2.668,1.1,4.658,4.658,0,0,1,.941,3.117v.766H34.711a2.539,2.539,0,0,0,.7,1.656,2.1,2.1,0,0,0,1.543.609,2.571,2.571,0,0,0,2.125-1.055l1.023.977a3.418,3.418,0,0,1-1.355,1.176A4.244,4.244,0,0,1,36.844,15.156Zm-.227-7.242a1.6,1.6,0,0,0-1.262.547,2.835,2.835,0,0,0-.613,1.523h3.617V9.844A2.307,2.307,0,0,0,37.852,8.4,1.586,1.586,0,0,0,36.617,7.914Zm9.516.367a4.7,4.7,0,0,0-.773-.062,1.741,1.741,0,0,0-1.758,1V15H41.7V6.547h1.813l.047.945a2.139,2.139,0,0,1,1.906-1.1,1.777,1.777,0,0,1,.672.109ZM52.148,15a2.93,2.93,0,0,1-.219-.789,3.193,3.193,0,0,1-4.3.219,2.325,2.325,0,0,1-.8-1.8,2.4,2.4,0,0,1,1-2.074A4.865,4.865,0,0,1,50.7,9.836h1.164V9.281A1.481,1.481,0,0,0,51.5,8.23a1.456,1.456,0,0,0-1.117-.395,1.672,1.672,0,0,0-1.062.324,1,1,0,0,0-.414.824h-1.9a2.107,2.107,0,0,1,.461-1.3,3.071,3.071,0,0,1,1.254-.949,4.4,4.4,0,0,1,1.77-.344,3.547,3.547,0,0,1,2.367.746,2.661,2.661,0,0,1,.906,2.1v3.813a4.321,4.321,0,0,0,.32,1.82V15Zm-2.086-1.367a2.159,2.159,0,0,0,1.059-.273,1.827,1.827,0,0,0,.746-.734V11.031H50.844a2.8,2.8,0,0,0-1.586.367,1.189,1.189,0,0,0-.531,1.039,1.109,1.109,0,0,0,.363.871A1.407,1.407,0,0,0,50.063,13.633ZM55.4,10.711A5.026,5.026,0,0,1,56.3,7.574a2.9,2.9,0,0,1,2.43-1.184,2.759,2.759,0,0,1,2.172.938V3h1.9V15H61.086l-.094-.875a2.8,2.8,0,0,1-2.273,1.031,2.887,2.887,0,0,1-2.4-1.2A5.21,5.21,0,0,1,55.4,10.711Zm1.9.164a3.519,3.519,0,0,0,.5,2.012,1.61,1.61,0,0,0,1.41.723,1.793,1.793,0,0,0,1.7-1.039V8.961a1.766,1.766,0,0,0-1.687-1.016,1.622,1.622,0,0,0-1.422.73A3.919,3.919,0,0,0,57.3,10.875ZM69.836,15a2.93,2.93,0,0,1-.219-.789,3.193,3.193,0,0,1-4.3.219,2.325,2.325,0,0,1-.8-1.8,2.4,2.4,0,0,1,1-2.074,4.865,4.865,0,0,1,2.871-.723h1.164V9.281a1.481,1.481,0,0,0-.367-1.051,1.456,1.456,0,0,0-1.117-.395,1.672,1.672,0,0,0-1.062.324,1,1,0,0,0-.414.824H64.7a2.107,2.107,0,0,1,.461-1.3,3.071,3.071,0,0,1,1.254-.949,4.4,4.4,0,0,1,1.77-.344,3.547,3.547,0,0,1,2.367.746,2.661,2.661,0,0,1,.906,2.1v3.813a4.321,4.321,0,0,0,.32,1.82V15ZM67.75,13.633a2.159,2.159,0,0,0,1.059-.273,1.827,1.827,0,0,0,.746-.734V11.031H68.531a2.8,2.8,0,0,0-1.586.367,1.189,1.189,0,0,0-.531,1.039,1.109,1.109,0,0,0,.363.871A1.407,1.407,0,0,0,67.75,13.633Zm10.43-.93a.861.861,0,0,0-.418-.773,4.445,4.445,0,0,0-1.387-.469,7.129,7.129,0,0,1-1.617-.516,2.158,2.158,0,0,1-1.422-1.992,2.25,2.25,0,0,1,.922-1.828A3.644,3.644,0,0,1,76.6,6.391a3.792,3.792,0,0,1,2.449.75,2.38,2.38,0,0,1,.934,1.945h-1.9a1.17,1.17,0,0,0-.406-.91A1.557,1.557,0,0,0,76.6,7.813a1.682,1.682,0,0,0-1.02.289.911.911,0,0,0-.395.773.769.769,0,0,0,.367.68,5.049,5.049,0,0,0,1.484.488,7.027,7.027,0,0,1,1.754.586,2.484,2.484,0,0,1,.945.816,2.082,2.082,0,0,1,.309,1.156,2.2,2.2,0,0,1-.945,1.848,4.031,4.031,0,0,1-2.477.707,4.371,4.371,0,0,1-1.852-.375,3.047,3.047,0,0,1-1.266-1.031,2.441,2.441,0,0,1-.453-1.414H74.9a1.338,1.338,0,0,0,.508,1.035,1.973,1.973,0,0,0,1.242.363,1.92,1.92,0,0,0,1.141-.285A.883.883,0,0,0,78.18,12.7Z" transform="translate(0 205.714)" fill="#12263f"/>
        <path id="Trazado_605298" data-name="Trazado 605298" d="M20.1,13.773h6.508V15H18.328V13.875l6.234-9.023H18.43V3.625h7.93V4.72Zm7.68-3.078a4.993,4.993,0,0,1,.488-2.234A3.643,3.643,0,0,1,29.629,6.93a3.7,3.7,0,0,1,1.988-.539,3.565,3.565,0,0,1,2.793,1.2,4.6,4.6,0,0,1,1.066,3.18v.1A5.036,5.036,0,0,1,35,13.082a3.589,3.589,0,0,1-1.352,1.527,3.743,3.743,0,0,1-2.02.547,3.556,3.556,0,0,1-2.785-1.2A4.575,4.575,0,0,1,27.781,10.8Zm1.453.172a3.616,3.616,0,0,0,.652,2.258,2.211,2.211,0,0,0,3.5-.012,3.955,3.955,0,0,0,.648-2.418,3.61,3.61,0,0,0-.66-2.254,2.1,2.1,0,0,0-1.754-.863,2.075,2.075,0,0,0-1.727.852A3.925,3.925,0,0,0,29.234,10.867Zm9.422-4.32L38.7,7.609a3.08,3.08,0,0,1,2.531-1.219q2.68,0,2.7,3.023V15H42.492V9.406a1.946,1.946,0,0,0-.418-1.352A1.675,1.675,0,0,0,40.8,7.617a2.086,2.086,0,0,0-1.234.375,2.546,2.546,0,0,0-.828.984V15H37.289V6.547ZM51.336,15a3.036,3.036,0,0,1-.2-.891,3.225,3.225,0,0,1-2.406,1.047,2.984,2.984,0,0,1-2.051-.707,2.287,2.287,0,0,1-.8-1.793,2.39,2.39,0,0,1,1-2.051,4.733,4.733,0,0,1,2.824-.73h1.406V9.211A1.623,1.623,0,0,0,50.656,8a1.821,1.821,0,0,0-1.336-.449,2.107,2.107,0,0,0-1.3.391,1.151,1.151,0,0,0-.523.945H46.047A2,2,0,0,1,46.5,7.668a3.066,3.066,0,0,1,1.219-.934,4.1,4.1,0,0,1,1.691-.344,3.342,3.342,0,0,1,2.289.73,2.635,2.635,0,0,1,.859,2.012v3.891a4.757,4.757,0,0,0,.3,1.852V15Zm-2.4-1.1a2.54,2.54,0,0,0,1.289-.352,2.127,2.127,0,0,0,.883-.914V10.9H49.977q-2.656,0-2.656,1.555a1.316,1.316,0,0,0,.453,1.063A1.742,1.742,0,0,0,48.938,13.9Zm9.492-3.2a4.952,4.952,0,0,1,.922-3.129,3.137,3.137,0,0,1,4.766-.168V3h1.445V15H64.234l-.07-.906a2.943,2.943,0,0,1-2.414,1.063,2.887,2.887,0,0,1-2.395-1.2,5.008,5.008,0,0,1-.926-3.141Zm1.445.164a3.749,3.749,0,0,0,.594,2.25,1.92,1.92,0,0,0,1.641.813A2.108,2.108,0,0,0,64.117,12.7V8.813a2.125,2.125,0,0,0-1.992-1.2,1.929,1.929,0,0,0-1.656.82A4.128,4.128,0,0,0,59.875,10.867Zm11.438,4.289a3.693,3.693,0,0,1-2.8-1.129,4.19,4.19,0,0,1-1.078-3.02v-.266a5.073,5.073,0,0,1,.48-2.246,3.748,3.748,0,0,1,1.344-1.547,3.378,3.378,0,0,1,1.871-.559A3.166,3.166,0,0,1,73.7,7.477a4.7,4.7,0,0,1,.914,3.109v.6H68.883a3,3,0,0,0,.73,2.02,2.3,2.3,0,0,0,1.777.77,2.517,2.517,0,0,0,1.3-.312,3.259,3.259,0,0,0,.93-.828l.883.688A3.55,3.55,0,0,1,71.313,15.156Zm-.18-7.578a1.928,1.928,0,0,0-1.469.637A3.1,3.1,0,0,0,68.93,10h4.234V9.891a2.753,2.753,0,0,0-.594-1.707A1.815,1.815,0,0,0,71.133,7.578Zm12.5,6.4a2.082,2.082,0,0,0,1.352-.469,1.649,1.649,0,0,0,.641-1.172h1.367a2.621,2.621,0,0,1-.5,1.383,3.293,3.293,0,0,1-1.23,1.047,3.55,3.55,0,0,1-1.629.391A3.482,3.482,0,0,1,80.887,14a4.59,4.59,0,0,1-1.02-3.152v-.242a5.089,5.089,0,0,1,.453-2.2,3.451,3.451,0,0,1,1.3-1.492,3.7,3.7,0,0,1,2-.531,3.39,3.39,0,0,1,2.363.852,3.043,3.043,0,0,1,1,2.211H85.625A1.992,1.992,0,0,0,85,8.105a1.932,1.932,0,0,0-1.379-.527,2.023,2.023,0,0,0-1.707.793,3.724,3.724,0,0,0-.605,2.293v.273a3.65,3.65,0,0,0,.6,2.25A2.033,2.033,0,0,0,83.633,13.977Zm4.6-3.281a4.993,4.993,0,0,1,.488-2.234A3.643,3.643,0,0,1,90.082,6.93a3.7,3.7,0,0,1,1.988-.539,3.565,3.565,0,0,1,2.793,1.2,4.6,4.6,0,0,1,1.066,3.18v.1a5.036,5.036,0,0,1-.473,2.215,3.589,3.589,0,0,1-1.352,1.527,3.743,3.743,0,0,1-2.02.547,3.556,3.556,0,0,1-2.785-1.2A4.575,4.575,0,0,1,88.234,10.8Zm1.453.172a3.616,3.616,0,0,0,.652,2.258,2.211,2.211,0,0,0,3.5-.012,3.955,3.955,0,0,0,.648-2.418,3.61,3.61,0,0,0-.66-2.254,2.1,2.1,0,0,0-1.754-.863,2.075,2.075,0,0,0-1.727.852A3.925,3.925,0,0,0,89.688,10.867Zm12.977,1.891a1.064,1.064,0,0,0-.441-.91,4.249,4.249,0,0,0-1.539-.559,7.277,7.277,0,0,1-1.742-.562,2.479,2.479,0,0,1-.953-.781,1.869,1.869,0,0,1-.309-1.078,2.193,2.193,0,0,1,.879-1.758,3.432,3.432,0,0,1,2.246-.719,3.532,3.532,0,0,1,2.332.742,2.357,2.357,0,0,1,.895,1.9h-1.453a1.3,1.3,0,0,0-.5-1.023,1.888,1.888,0,0,0-1.27-.43,1.976,1.976,0,0,0-1.234.344,1.082,1.082,0,0,0-.445.9.877.877,0,0,0,.414.789,5.1,5.1,0,0,0,1.5.508,7.8,7.8,0,0,1,1.754.578,2.558,2.558,0,0,1,1,.809,1.988,1.988,0,0,1,.324,1.152,2.163,2.163,0,0,1-.906,1.816,3.8,3.8,0,0,1-2.352.684,4.257,4.257,0,0,1-1.8-.359,2.922,2.922,0,0,1-1.223-1,2.42,2.42,0,0,1-.441-1.395h1.445a1.5,1.5,0,0,0,.582,1.152,2.258,2.258,0,0,0,1.434.426,2.331,2.331,0,0,0,1.316-.332A1.02,1.02,0,0,0,102.664,12.758ZM107.953,4.5V6.547h1.578V7.664h-1.578v5.249a1.173,1.173,0,0,0,.211.763.888.888,0,0,0,.719.254,3.5,3.5,0,0,0,.688-.094V15a4.215,4.215,0,0,1-1.109.155A1.8,1.8,0,0,1,107,14.57a2.517,2.517,0,0,1-.492-1.664V7.664h-1.539V6.547h1.539V4.5Zm2.727,6.2a4.993,4.993,0,0,1,.488-2.234,3.643,3.643,0,0,1,1.359-1.531,3.7,3.7,0,0,1,1.988-.539,3.565,3.565,0,0,1,2.793,1.2,4.6,4.6,0,0,1,1.066,3.18v.1a5.036,5.036,0,0,1-.473,2.215,3.589,3.589,0,0,1-1.352,1.527,3.743,3.743,0,0,1-2.02.547,3.556,3.556,0,0,1-2.785-1.2A4.575,4.575,0,0,1,110.68,10.8Zm1.453.172a3.616,3.616,0,0,0,.652,2.258,2.211,2.211,0,0,0,3.5-.012,3.955,3.955,0,0,0,.648-2.418,3.61,3.61,0,0,0-.66-2.254,2.1,2.1,0,0,0-1.754-.863,2.075,2.075,0,0,0-1.727.852A3.925,3.925,0,0,0,112.133,10.867Zm12.977,1.891a1.064,1.064,0,0,0-.441-.91,4.249,4.249,0,0,0-1.539-.559,7.277,7.277,0,0,1-1.742-.562,2.479,2.479,0,0,1-.953-.781,1.869,1.869,0,0,1-.309-1.078A2.193,2.193,0,0,1,121,7.109a3.432,3.432,0,0,1,2.246-.719,3.532,3.532,0,0,1,2.332.742,2.357,2.357,0,0,1,.895,1.9h-1.453a1.3,1.3,0,0,0-.5-1.023,1.888,1.888,0,0,0-1.27-.43,1.976,1.976,0,0,0-1.234.344,1.082,1.082,0,0,0-.445.9.877.877,0,0,0,.414.789,5.1,5.1,0,0,0,1.5.508,7.8,7.8,0,0,1,1.754.578,2.558,2.558,0,0,1,1,.809,1.988,1.988,0,0,1,.324,1.152,2.163,2.163,0,0,1-.906,1.816,3.8,3.8,0,0,1-2.352.684,4.257,4.257,0,0,1-1.8-.359,2.922,2.922,0,0,1-1.223-1,2.42,2.42,0,0,1-.441-1.395h1.445a1.5,1.5,0,0,0,.582,1.152,2.258,2.258,0,0,0,1.434.426,2.331,2.331,0,0,0,1.316-.332A1.02,1.02,0,0,0,125.109,12.758Z" transform="translate(338 341.714)" fill="#12263f"/>
        <path id="Trazado_605299" data-name="Trazado 605299" d="M7.523,12.352H3.117L2.2,15H.141l4.3-11.375H6.211L10.516,15H8.453ZM3.672,10.758h3.3L5.32,6.039ZM13.641,15h-1.9V3h1.9ZM18.086,4.492V6.547h1.492V7.953H18.086v4.719a1.039,1.039,0,0,0,.191.7.888.888,0,0,0,.684.215,2.925,2.925,0,0,0,.664-.078v1.469a4.676,4.676,0,0,1-1.25.18q-2.188,0-2.187-2.414V7.953H14.8V6.547h1.391V4.492ZM26.078,15a2.93,2.93,0,0,1-.219-.789,3.193,3.193,0,0,1-4.3.219,2.325,2.325,0,0,1-.8-1.8,2.4,2.4,0,0,1,1-2.074,4.865,4.865,0,0,1,2.871-.723H25.8V9.281A1.481,1.481,0,0,0,25.43,8.23a1.456,1.456,0,0,0-1.117-.395,1.672,1.672,0,0,0-1.062.324,1,1,0,0,0-.414.824h-1.9a2.107,2.107,0,0,1,.461-1.3,3.071,3.071,0,0,1,1.254-.949,4.4,4.4,0,0,1,1.77-.344,3.547,3.547,0,0,1,2.367.746,2.661,2.661,0,0,1,.906,2.1v3.813a4.321,4.321,0,0,0,.32,1.82V15Zm-2.086-1.367a2.159,2.159,0,0,0,1.059-.273,1.827,1.827,0,0,0,.746-.734V11.031H24.773a2.8,2.8,0,0,0-1.586.367,1.189,1.189,0,0,0-.531,1.039,1.109,1.109,0,0,0,.363.871A1.407,1.407,0,0,0,23.992,13.633Zm10.43-.93A.861.861,0,0,0,34,11.93a4.445,4.445,0,0,0-1.387-.469A7.129,7.129,0,0,1,31,10.945a2.158,2.158,0,0,1-1.422-1.992A2.25,2.25,0,0,1,30.5,7.125a3.644,3.644,0,0,1,2.344-.734,3.792,3.792,0,0,1,2.449.75,2.38,2.38,0,0,1,.934,1.945h-1.9a1.17,1.17,0,0,0-.406-.91,1.557,1.557,0,0,0-1.078-.363,1.682,1.682,0,0,0-1.02.289.911.911,0,0,0-.395.773.769.769,0,0,0,.367.68,5.049,5.049,0,0,0,1.484.488,7.027,7.027,0,0,1,1.754.586,2.484,2.484,0,0,1,.945.816,2.082,2.082,0,0,1,.309,1.156,2.2,2.2,0,0,1-.945,1.848,4.031,4.031,0,0,1-2.477.707,4.371,4.371,0,0,1-1.852-.375A3.047,3.047,0,0,1,29.75,13.75a2.441,2.441,0,0,1-.453-1.414h1.844a1.338,1.338,0,0,0,.508,1.035,1.973,1.973,0,0,0,1.242.363,1.92,1.92,0,0,0,1.141-.285A.883.883,0,0,0,34.422,12.7Z" transform="translate(0 37.714)" fill="#12263f"/>
        <path id="Trazado_605300" data-name="Trazado 605300" d="M7.523,12.352H3.117L2.2,15H.141l4.3-11.375H6.211L10.516,15H8.453ZM3.672,10.758h3.3L5.32,6.039ZM13.641,15h-1.9V3h1.9ZM18.086,4.492V6.547h1.492V7.953H18.086v4.719a1.039,1.039,0,0,0,.191.7.888.888,0,0,0,.684.215,2.925,2.925,0,0,0,.664-.078v1.469a4.676,4.676,0,0,1-1.25.18q-2.188,0-2.187-2.414V7.953H14.8V6.547h1.391V4.492Zm2.352,6.2a4.984,4.984,0,0,1,.492-2.238,3.6,3.6,0,0,1,1.383-1.531,3.9,3.9,0,0,1,2.047-.535,3.692,3.692,0,0,1,2.777,1.1,4.333,4.333,0,0,1,1.152,2.922l.008.445a5.029,5.029,0,0,1-.48,2.234,3.551,3.551,0,0,1-1.375,1.523,3.925,3.925,0,0,1-2.066.539,3.667,3.667,0,0,1-2.863-1.191,4.563,4.563,0,0,1-1.074-3.176Zm1.9.164a3.406,3.406,0,0,0,.539,2.043,1.752,1.752,0,0,0,1.5.738,1.733,1.733,0,0,0,1.5-.75,3.762,3.762,0,0,0,.535-2.2,3.362,3.362,0,0,0-.551-2.031,1.856,1.856,0,0,0-2.973-.012A3.691,3.691,0,0,0,22.336,10.859Z" transform="translate(639 451.714)" fill="#12263f"/>
        <path id="Trazado_605301" data-name="Trazado 605301" d="M3.719,3.625,7,12.344l3.273-8.719h2.555V15H10.859V11.25l.2-5.016L7.7,15H6.281L2.93,6.242l.2,5.008V15H1.156V3.625ZM14.625,10.7a4.984,4.984,0,0,1,.492-2.238A3.6,3.6,0,0,1,16.5,6.926a3.9,3.9,0,0,1,2.047-.535,3.692,3.692,0,0,1,2.777,1.1,4.333,4.333,0,0,1,1.152,2.922l.008.445A5.029,5.029,0,0,1,22,13.094a3.551,3.551,0,0,1-1.375,1.523,3.925,3.925,0,0,1-2.066.539A3.667,3.667,0,0,1,15.7,13.965a4.563,4.563,0,0,1-1.074-3.176Zm1.9.164a3.406,3.406,0,0,0,.539,2.043,1.752,1.752,0,0,0,1.5.738,1.733,1.733,0,0,0,1.5-.75,3.762,3.762,0,0,0,.535-2.2,3.362,3.362,0,0,0-.551-2.031,1.856,1.856,0,0,0-2.973-.012A3.691,3.691,0,0,0,16.523,10.859Zm7.211-.148a5.026,5.026,0,0,1,.906-3.137,2.9,2.9,0,0,1,2.43-1.184,2.759,2.759,0,0,1,2.172.938V3h1.9V15H29.422l-.094-.875a2.8,2.8,0,0,1-2.273,1.031,2.887,2.887,0,0,1-2.4-1.2A5.21,5.21,0,0,1,23.734,10.711Zm1.9.164a3.519,3.519,0,0,0,.5,2.012,1.61,1.61,0,0,0,1.41.723,1.793,1.793,0,0,0,1.7-1.039V8.961a1.766,1.766,0,0,0-1.687-1.016,1.622,1.622,0,0,0-1.422.73A3.918,3.918,0,0,0,25.633,10.875Zm11.211,4.281a3.928,3.928,0,0,1-2.926-1.137A4.124,4.124,0,0,1,32.8,10.992v-.234A5.072,5.072,0,0,1,33.285,8.5a3.716,3.716,0,0,1,1.371-1.551,3.625,3.625,0,0,1,1.969-.555,3.318,3.318,0,0,1,2.668,1.1,4.658,4.658,0,0,1,.941,3.117v.766H34.711a2.539,2.539,0,0,0,.7,1.656,2.1,2.1,0,0,0,1.543.609,2.571,2.571,0,0,0,2.125-1.055l1.023.977a3.418,3.418,0,0,1-1.355,1.176A4.244,4.244,0,0,1,36.844,15.156Zm-.227-7.242a1.6,1.6,0,0,0-1.262.547,2.835,2.835,0,0,0-.613,1.523h3.617V9.844A2.307,2.307,0,0,0,37.852,8.4,1.586,1.586,0,0,0,36.617,7.914Zm9.516.367a4.7,4.7,0,0,0-.773-.062,1.741,1.741,0,0,0-1.758,1V15H41.7V6.547h1.813l.047.945a2.139,2.139,0,0,1,1.906-1.1,1.777,1.777,0,0,1,.672.109ZM52.148,15a2.93,2.93,0,0,1-.219-.789,3.193,3.193,0,0,1-4.3.219,2.325,2.325,0,0,1-.8-1.8,2.4,2.4,0,0,1,1-2.074A4.865,4.865,0,0,1,50.7,9.836h1.164V9.281A1.481,1.481,0,0,0,51.5,8.23a1.456,1.456,0,0,0-1.117-.395,1.672,1.672,0,0,0-1.062.324,1,1,0,0,0-.414.824h-1.9a2.107,2.107,0,0,1,.461-1.3,3.071,3.071,0,0,1,1.254-.949,4.4,4.4,0,0,1,1.77-.344,3.547,3.547,0,0,1,2.367.746,2.661,2.661,0,0,1,.906,2.1v3.813a4.321,4.321,0,0,0,.32,1.82V15Zm-2.086-1.367a2.159,2.159,0,0,0,1.059-.273,1.827,1.827,0,0,0,.746-.734V11.031H50.844a2.8,2.8,0,0,0-1.586.367,1.189,1.189,0,0,0-.531,1.039,1.109,1.109,0,0,0,.363.871A1.407,1.407,0,0,0,50.063,13.633ZM55.4,10.711A5.026,5.026,0,0,1,56.3,7.574a2.9,2.9,0,0,1,2.43-1.184,2.759,2.759,0,0,1,2.172.938V3h1.9V15H61.086l-.094-.875a2.8,2.8,0,0,1-2.273,1.031,2.887,2.887,0,0,1-2.4-1.2A5.21,5.21,0,0,1,55.4,10.711Zm1.9.164a3.519,3.519,0,0,0,.5,2.012,1.61,1.61,0,0,0,1.41.723,1.793,1.793,0,0,0,1.7-1.039V8.961a1.766,1.766,0,0,0-1.687-1.016,1.622,1.622,0,0,0-1.422.73A3.919,3.919,0,0,0,57.3,10.875Zm7.133-.18a4.984,4.984,0,0,1,.492-2.238A3.6,3.6,0,0,1,66.3,6.926a3.9,3.9,0,0,1,2.047-.535,3.692,3.692,0,0,1,2.777,1.1,4.333,4.333,0,0,1,1.152,2.922l.008.445a5.029,5.029,0,0,1-.48,2.234,3.551,3.551,0,0,1-1.375,1.523,3.925,3.925,0,0,1-2.066.539A3.667,3.667,0,0,1,65.5,13.965a4.563,4.563,0,0,1-1.074-3.176Zm1.9.164a3.406,3.406,0,0,0,.539,2.043,1.752,1.752,0,0,0,1.5.738,1.733,1.733,0,0,0,1.5-.75,3.762,3.762,0,0,0,.535-2.2,3.362,3.362,0,0,0-.551-2.031,1.856,1.856,0,0,0-2.973-.012A3.691,3.691,0,0,0,66.328,10.859Z" transform="translate(451 451.714)" fill="#12263f"/>
        <path id="Trazado_605302" data-name="Trazado 605302" d="M0,0H164V37H0Z" transform="translate(170 -0.286)" fill="#dee4f0"/>
        <path id="Trazado_605303" data-name="Trazado 605303" d="M0,0H164V37H0Z" transform="translate(330 -0.286)" fill="#e8e8e8"/>
        <path id="Trazado_605304" data-name="Trazado 605304" d="M0,0H165V37H0Z" transform="translate(493 -0.286)" fill="#dee4f0"/>
        <path id="Trazado_605305" data-name="Trazado 605305" d="M0,0H165V37H0Z" transform="translate(655 -0.286)" fill="#e8e8e8"/>
        <path id="Trazado_605306" data-name="Trazado 605306" d="M58.2,15V3.625h3.211a5.169,5.169,0,0,1,2.625.656A4.438,4.438,0,0,1,65.8,6.148,6.078,6.078,0,0,1,66.43,8.93v.727a6.1,6.1,0,0,1-.621,2.82,4.369,4.369,0,0,1-1.773,1.859A5.5,5.5,0,0,1,61.352,15ZM59.7,4.852v8.922h1.578a3.434,3.434,0,0,0,2.7-1.079,4.458,4.458,0,0,0,.965-3.073V8.957a4.529,4.529,0,0,0-.91-3.014,3.239,3.239,0,0,0-2.582-1.091Zm12.273,10.3a3.693,3.693,0,0,1-2.8-1.129,4.19,4.19,0,0,1-1.078-3.02v-.266a5.073,5.073,0,0,1,.48-2.246,3.748,3.748,0,0,1,1.344-1.547A3.378,3.378,0,0,1,71.8,6.391a3.166,3.166,0,0,1,2.563,1.086,4.7,4.7,0,0,1,.914,3.109v.6H69.547a3,3,0,0,0,.73,2.02,2.3,2.3,0,0,0,1.777.77,2.517,2.517,0,0,0,1.3-.312,3.259,3.259,0,0,0,.93-.828l.883.688A3.55,3.55,0,0,1,71.977,15.156ZM71.8,7.578a1.928,1.928,0,0,0-1.469.637A3.1,3.1,0,0,0,69.594,10h4.234V9.891a2.753,2.753,0,0,0-.594-1.707A1.815,1.815,0,0,0,71.8,7.578Zm8.539,6.4a2.082,2.082,0,0,0,1.352-.469,1.649,1.649,0,0,0,.641-1.172H83.7a2.621,2.621,0,0,1-.5,1.383,3.293,3.293,0,0,1-1.23,1.047,3.55,3.55,0,0,1-1.629.391A3.482,3.482,0,0,1,77.59,14a4.59,4.59,0,0,1-1.02-3.152v-.242a5.089,5.089,0,0,1,.453-2.2,3.451,3.451,0,0,1,1.3-1.492,3.7,3.7,0,0,1,2-.531,3.39,3.39,0,0,1,2.363.852,3.043,3.043,0,0,1,1,2.211H82.328a1.992,1.992,0,0,0-.621-1.348,1.932,1.932,0,0,0-1.379-.527,2.023,2.023,0,0,0-1.707.793,3.724,3.724,0,0,0-.605,2.293v.273a3.65,3.65,0,0,0,.6,2.25A2.033,2.033,0,0,0,80.336,13.977ZM86.891,15H85.445V3h1.445Zm3.883,0H89.328V6.547h1.445ZM89.211,4.3a.863.863,0,0,1,.215-.594.807.807,0,0,1,.637-.242.819.819,0,0,1,.641.242.854.854,0,0,1,.219.594.826.826,0,0,1-.219.586.834.834,0,0,1-.641.234.821.821,0,0,1-.637-.234A.834.834,0,0,1,89.211,4.3Zm6.664,8.734,2.094-6.492h1.477L96.414,15h-1.1L92.25,6.547h1.477Zm8.367,2.117a3.693,3.693,0,0,1-2.8-1.129,4.19,4.19,0,0,1-1.078-3.02v-.266a5.073,5.073,0,0,1,.48-2.246,3.748,3.748,0,0,1,1.344-1.547,3.378,3.378,0,0,1,1.871-.559,3.166,3.166,0,0,1,2.563,1.086,4.7,4.7,0,0,1,.914,3.109v.6h-5.727a3,3,0,0,0,.73,2.02,2.3,2.3,0,0,0,1.777.77,2.517,2.517,0,0,0,1.3-.312,3.259,3.259,0,0,0,.93-.828l.883.688A3.55,3.55,0,0,1,104.242,15.156Zm-.18-7.578a1.928,1.928,0,0,0-1.469.637A3.1,3.1,0,0,0,101.859,10h4.234V9.891a2.753,2.753,0,0,0-.594-1.707A1.815,1.815,0,0,0,104.063,7.578Z" transform="translate(655 6.714)" fill="#12263f"/>
        <path id="Trazado_605307" data-name="Trazado 605307" d="M53.164,3.625l3.719,9.281L60.6,3.625h1.945V15h-1.5V10.57l.141-4.781L57.453,15H56.3L52.578,5.813l.148,4.758V15h-1.5V3.625ZM70.188,15a3.036,3.036,0,0,1-.2-.891,3.225,3.225,0,0,1-2.406,1.047,2.984,2.984,0,0,1-2.051-.707,2.288,2.288,0,0,1-.8-1.793,2.39,2.39,0,0,1,1-2.051,4.733,4.733,0,0,1,2.824-.73h1.406V9.211A1.623,1.623,0,0,0,69.508,8a1.821,1.821,0,0,0-1.336-.449,2.108,2.108,0,0,0-1.3.391,1.151,1.151,0,0,0-.523.945H64.9a2,2,0,0,1,.449-1.223,3.066,3.066,0,0,1,1.219-.934,4.1,4.1,0,0,1,1.691-.344,3.342,3.342,0,0,1,2.289.73,2.635,2.635,0,0,1,.859,2.012v3.891a4.757,4.757,0,0,0,.3,1.852V15Zm-2.4-1.1a2.54,2.54,0,0,0,1.289-.352,2.127,2.127,0,0,0,.883-.914V10.9H68.828q-2.656,0-2.656,1.555a1.316,1.316,0,0,0,.453,1.063A1.742,1.742,0,0,0,67.789,13.9Zm5.531-3.2a4.952,4.952,0,0,1,.922-3.129,3.137,3.137,0,0,1,4.766-.168V3h1.445V15H79.125l-.07-.906a2.943,2.943,0,0,1-2.414,1.063,2.887,2.887,0,0,1-2.395-1.2,5.008,5.008,0,0,1-.926-3.141Zm1.445.164a3.749,3.749,0,0,0,.594,2.25A1.92,1.92,0,0,0,77,13.93,2.108,2.108,0,0,0,79.008,12.7V8.813a2.125,2.125,0,0,0-1.992-1.2,1.929,1.929,0,0,0-1.656.82A4.128,4.128,0,0,0,74.766,10.867Zm13.148,3.3a3.07,3.07,0,0,1-2.477.992,2.628,2.628,0,0,1-2.059-.785,3.4,3.4,0,0,1-.715-2.324v-5.5h1.445v5.461q0,1.922,1.563,1.922a2.163,2.163,0,0,0,2.2-1.234V6.547H89.32V15H87.945ZM95.6,7.844a4.331,4.331,0,0,0-.711-.055A1.9,1.9,0,0,0,92.961,9v6H91.516V6.547h1.406l.023.977a2.251,2.251,0,0,1,2.016-1.133A1.477,1.477,0,0,1,95.6,6.5Zm4.688,7.313a3.693,3.693,0,0,1-2.8-1.129,4.19,4.19,0,0,1-1.078-3.02v-.266a5.073,5.073,0,0,1,.48-2.246,3.748,3.748,0,0,1,1.344-1.547,3.378,3.378,0,0,1,1.871-.559,3.166,3.166,0,0,1,2.563,1.086,4.7,4.7,0,0,1,.914,3.109v.6H97.859a3,3,0,0,0,.73,2.02,2.3,2.3,0,0,0,1.777.77,2.517,2.517,0,0,0,1.3-.312,3.259,3.259,0,0,0,.93-.828l.883.688A3.55,3.55,0,0,1,100.289,15.156Zm-.18-7.578a1.928,1.928,0,0,0-1.469.637A3.1,3.1,0,0,0,97.906,10h4.234V9.891a2.753,2.753,0,0,0-.594-1.707A1.815,1.815,0,0,0,100.109,7.578Zm6.508,6.242h4.945V15h-6.711V13.938l4.664-6.2h-4.594v-1.2h6.406V7.57Z" transform="translate(493 6.714)" fill="#12263f"/>
        <path id="Trazado_605308" data-name="Trazado 605308" d="M45.777,11.391a4.185,4.185,0,0,1-1.332,2.785,4.365,4.365,0,0,1-2.98.98,4.008,4.008,0,0,1-3.23-1.445A5.815,5.815,0,0,1,37.02,9.844V8.75a6.481,6.481,0,0,1,.566-2.789,4.231,4.231,0,0,1,1.605-1.848A4.47,4.47,0,0,1,41.6,3.469,4.11,4.11,0,0,1,44.5,4.48a4.235,4.235,0,0,1,1.273,2.8H44.27a3.268,3.268,0,0,0-.848-1.975A2.565,2.565,0,0,0,41.6,4.7a2.684,2.684,0,0,0-2.254,1.063,4.882,4.882,0,0,0-.816,3.026v1.1a5.018,5.018,0,0,0,.773,2.948,2.5,2.5,0,0,0,2.164,1.095,2.887,2.887,0,0,0,1.918-.566,3.143,3.143,0,0,0,.887-1.973Zm5.906-3.547a4.331,4.331,0,0,0-.711-.055A1.9,1.9,0,0,0,49.043,9v6H47.6V6.547H49l.023.977a2.251,2.251,0,0,1,2.016-1.133,1.477,1.477,0,0,1,.641.109Zm4.688,7.313a3.693,3.693,0,0,1-2.8-1.129,4.19,4.19,0,0,1-1.078-3.02v-.266a5.073,5.073,0,0,1,.48-2.246A3.748,3.748,0,0,1,54.32,6.949a3.378,3.378,0,0,1,1.871-.559,3.166,3.166,0,0,1,2.563,1.086,4.7,4.7,0,0,1,.914,3.109v.6H53.941a3,3,0,0,0,.73,2.02,2.3,2.3,0,0,0,1.777.77,2.517,2.517,0,0,0,1.3-.312,3.259,3.259,0,0,0,.93-.828l.883.688A3.55,3.55,0,0,1,56.371,15.156Zm-.18-7.578a1.928,1.928,0,0,0-1.469.637A3.1,3.1,0,0,0,53.988,10h4.234V9.891a2.753,2.753,0,0,0-.594-1.707A1.815,1.815,0,0,0,56.191,7.578Zm8.539,6.4a2.082,2.082,0,0,0,1.352-.469,1.649,1.649,0,0,0,.641-1.172H68.09a2.621,2.621,0,0,1-.5,1.383,3.293,3.293,0,0,1-1.23,1.047,3.55,3.55,0,0,1-1.629.391A3.482,3.482,0,0,1,61.984,14a4.59,4.59,0,0,1-1.02-3.152v-.242a5.089,5.089,0,0,1,.453-2.2,3.451,3.451,0,0,1,1.3-1.492,3.7,3.7,0,0,1,2-.531,3.39,3.39,0,0,1,2.363.852,3.043,3.043,0,0,1,1,2.211H66.723A1.992,1.992,0,0,0,66.1,8.105a1.932,1.932,0,0,0-1.379-.527,2.023,2.023,0,0,0-1.707.793,3.724,3.724,0,0,0-.605,2.293v.273a3.65,3.65,0,0,0,.6,2.25A2.033,2.033,0,0,0,64.73,13.977ZM71.285,15H69.84V6.547h1.445ZM69.723,4.3a.863.863,0,0,1,.215-.594.807.807,0,0,1,.637-.242.819.819,0,0,1,.641.242.854.854,0,0,1,.219.594.826.826,0,0,1-.219.586.834.834,0,0,1-.641.234.821.821,0,0,1-.637-.234A.834.834,0,0,1,69.723,4.3Zm5.234,2.242L75,7.484A3.122,3.122,0,0,1,77.5,6.391,2.417,2.417,0,0,1,79.918,7.75a3.2,3.2,0,0,1,1.1-.984,3.242,3.242,0,0,1,1.6-.375q2.781,0,2.828,2.945V15H84V9.422a1.941,1.941,0,0,0-.414-1.355,1.823,1.823,0,0,0-1.391-.449,1.916,1.916,0,0,0-1.336.48,1.949,1.949,0,0,0-.617,1.293V15H78.785V9.461a1.613,1.613,0,0,0-1.8-1.844,1.934,1.934,0,0,0-1.945,1.211V15H73.59V6.547ZM89.191,15H87.746V6.547h1.445ZM87.629,4.3a.863.863,0,0,1,.215-.594.807.807,0,0,1,.637-.242.819.819,0,0,1,.641.242.854.854,0,0,1,.219.594.826.826,0,0,1-.219.586.834.834,0,0,1-.641.234.821.821,0,0,1-.637-.234A.834.834,0,0,1,87.629,4.3Zm7.383,10.852a3.693,3.693,0,0,1-2.8-1.129,4.19,4.19,0,0,1-1.078-3.02v-.266a5.073,5.073,0,0,1,.48-2.246,3.748,3.748,0,0,1,1.344-1.547,3.378,3.378,0,0,1,1.871-.559,3.166,3.166,0,0,1,2.563,1.086,4.7,4.7,0,0,1,.914,3.109v.6H92.582a3,3,0,0,0,.73,2.02,2.3,2.3,0,0,0,1.777.77,2.517,2.517,0,0,0,1.3-.312,3.259,3.259,0,0,0,.93-.828l.883.688A3.55,3.55,0,0,1,95.012,15.156Zm-.18-7.578a1.928,1.928,0,0,0-1.469.637A3.1,3.1,0,0,0,92.629,10h4.234V9.891a2.753,2.753,0,0,0-.594-1.707A1.815,1.815,0,0,0,94.832,7.578Zm6.516-1.031.047,1.063a3.08,3.08,0,0,1,2.531-1.219q2.68,0,2.7,3.023V15h-1.445V9.406a1.946,1.946,0,0,0-.418-1.352,1.675,1.675,0,0,0-1.277-.437,2.086,2.086,0,0,0-1.234.375,2.546,2.546,0,0,0-.828.984V15H99.98V6.547ZM110.77,4.5V6.547h1.578V7.664H110.77v5.249a1.173,1.173,0,0,0,.211.763.888.888,0,0,0,.719.254,3.5,3.5,0,0,0,.688-.094V15a4.215,4.215,0,0,1-1.109.155,1.8,1.8,0,0,1-1.461-.586,2.517,2.517,0,0,1-.492-1.664V7.664h-1.539V6.547h1.539V4.5Zm2.727,6.2a4.993,4.993,0,0,1,.488-2.234,3.643,3.643,0,0,1,1.359-1.531,3.7,3.7,0,0,1,1.988-.539,3.565,3.565,0,0,1,2.793,1.2,4.6,4.6,0,0,1,1.066,3.18v.1a5.036,5.036,0,0,1-.473,2.215,3.589,3.589,0,0,1-1.352,1.527,3.743,3.743,0,0,1-2.02.547,3.556,3.556,0,0,1-2.785-1.2A4.575,4.575,0,0,1,113.5,10.8Zm1.453.172a3.616,3.616,0,0,0,.652,2.258,2.211,2.211,0,0,0,3.5-.012,3.955,3.955,0,0,0,.648-2.418,3.61,3.61,0,0,0-.66-2.254,2.1,2.1,0,0,0-1.754-.863,2.075,2.075,0,0,0-1.727.852A3.925,3.925,0,0,0,114.949,10.867Z" transform="translate(334 6.714)" fill="#12263f"/>
        <path id="Trazado_605309" data-name="Trazado 605309" d="M40.82,15h-1.5V3.625h1.5ZM44.7,6.547l.047,1.063a3.08,3.08,0,0,1,2.531-1.219q2.68,0,2.7,3.023V15H48.539V9.406a1.946,1.946,0,0,0-.418-1.352,1.675,1.675,0,0,0-1.277-.437,2.086,2.086,0,0,0-1.234.375,2.546,2.546,0,0,0-.828.984V15H43.336V6.547ZM54.125,4.5V6.547H55.7V7.664H54.125v5.249a1.173,1.173,0,0,0,.211.763.888.888,0,0,0,.719.254,3.5,3.5,0,0,0,.688-.094V15a4.215,4.215,0,0,1-1.109.155,1.8,1.8,0,0,1-1.461-.586,2.517,2.517,0,0,1-.492-1.664V7.664H51.141V6.547H52.68V4.5Zm7.352,3.344a4.331,4.331,0,0,0-.711-.055A1.9,1.9,0,0,0,58.836,9v6H57.391V6.547H58.8l.023.977a2.251,2.251,0,0,1,2.016-1.133,1.477,1.477,0,0,1,.641.109Zm.789,2.852a4.993,4.993,0,0,1,.488-2.234A3.643,3.643,0,0,1,64.113,6.93,3.7,3.7,0,0,1,66.1,6.391a3.565,3.565,0,0,1,2.793,1.2,4.6,4.6,0,0,1,1.066,3.18v.1a5.036,5.036,0,0,1-.473,2.215,3.589,3.589,0,0,1-1.352,1.527,3.743,3.743,0,0,1-2.02.547,3.556,3.556,0,0,1-2.785-1.2A4.575,4.575,0,0,1,62.266,10.8Zm1.453.172a3.616,3.616,0,0,0,.652,2.258,2.211,2.211,0,0,0,3.5-.012,3.955,3.955,0,0,0,.648-2.418,3.61,3.61,0,0,0-.66-2.254A2.1,2.1,0,0,0,66.1,7.578a2.075,2.075,0,0,0-1.727.852A3.925,3.925,0,0,0,63.719,10.867Zm7.7-.164a4.952,4.952,0,0,1,.922-3.129,3.137,3.137,0,0,1,4.766-.168V3h1.445V15H77.227l-.07-.906a2.943,2.943,0,0,1-2.414,1.063,2.887,2.887,0,0,1-2.395-1.2,5.008,5.008,0,0,1-.926-3.141Zm1.445.164a3.749,3.749,0,0,0,.594,2.25,1.92,1.92,0,0,0,1.641.813A2.108,2.108,0,0,0,77.109,12.7V8.813a2.125,2.125,0,0,0-1.992-1.2,1.929,1.929,0,0,0-1.656.82A4.128,4.128,0,0,0,72.867,10.867Zm13.148,3.3a3.07,3.07,0,0,1-2.477.992,2.628,2.628,0,0,1-2.059-.785,3.4,3.4,0,0,1-.715-2.324v-5.5h1.445v5.461q0,1.922,1.563,1.922a2.163,2.163,0,0,0,2.2-1.234V6.547h1.445V15H86.047Zm6.992-.187a2.082,2.082,0,0,0,1.352-.469A1.649,1.649,0,0,0,95,12.336h1.367a2.621,2.621,0,0,1-.5,1.383,3.293,3.293,0,0,1-1.23,1.047,3.55,3.55,0,0,1-1.629.391A3.482,3.482,0,0,1,90.262,14a4.59,4.59,0,0,1-1.02-3.152v-.242a5.089,5.089,0,0,1,.453-2.2A3.451,3.451,0,0,1,91,6.922a3.7,3.7,0,0,1,2-.531,3.39,3.39,0,0,1,2.363.852,3.043,3.043,0,0,1,1,2.211H95a1.992,1.992,0,0,0-.621-1.348A1.932,1.932,0,0,0,93,7.578a2.023,2.023,0,0,0-1.707.793,3.724,3.724,0,0,0-.605,2.293v.273a3.65,3.65,0,0,0,.6,2.25A2.033,2.033,0,0,0,93.008,13.977Zm8.375,0a2.082,2.082,0,0,0,1.352-.469,1.649,1.649,0,0,0,.641-1.172h1.367a2.621,2.621,0,0,1-.5,1.383,3.293,3.293,0,0,1-1.23,1.047,3.55,3.55,0,0,1-1.629.391A3.482,3.482,0,0,1,98.637,14a4.59,4.59,0,0,1-1.02-3.152v-.242a5.089,5.089,0,0,1,.453-2.2,3.451,3.451,0,0,1,1.3-1.492,3.7,3.7,0,0,1,2-.531,3.39,3.39,0,0,1,2.363.852,3.043,3.043,0,0,1,1,2.211h-1.367a1.992,1.992,0,0,0-.621-1.348,1.932,1.932,0,0,0-1.379-.527,2.023,2.023,0,0,0-1.707.793,3.724,3.724,0,0,0-.605,2.293v.273a3.65,3.65,0,0,0,.6,2.25A2.033,2.033,0,0,0,101.383,13.977ZM107.938,15h-1.445V6.547h1.445ZM106.375,4.3a.863.863,0,0,1,.215-.594.807.807,0,0,1,.637-.242.819.819,0,0,1,.641.242.854.854,0,0,1,.219.594.826.826,0,0,1-.219.586.834.834,0,0,1-.641.234.821.821,0,0,1-.637-.234A.834.834,0,0,1,106.375,4.3Zm3.492,6.391a4.993,4.993,0,0,1,.488-2.234,3.643,3.643,0,0,1,1.359-1.531,3.7,3.7,0,0,1,1.988-.539,3.565,3.565,0,0,1,2.793,1.2,4.6,4.6,0,0,1,1.066,3.18v.1a5.036,5.036,0,0,1-.473,2.215,3.589,3.589,0,0,1-1.352,1.527,3.743,3.743,0,0,1-2.02.547,3.556,3.556,0,0,1-2.785-1.2,4.575,4.575,0,0,1-1.066-3.164Zm1.453.172a3.616,3.616,0,0,0,.652,2.258,2.211,2.211,0,0,0,3.5-.012,3.955,3.955,0,0,0,.648-2.418,3.61,3.61,0,0,0-.66-2.254,2.1,2.1,0,0,0-1.754-.863,2.075,2.075,0,0,0-1.727.852A3.925,3.925,0,0,0,111.32,10.867ZM114.359,3h1.75l-2.094,2.3-1.164,0Zm6.383,3.547.047,1.063a3.08,3.08,0,0,1,2.531-1.219q2.68,0,2.7,3.023V15h-1.445V9.406a1.946,1.946,0,0,0-.418-1.352,1.675,1.675,0,0,0-1.277-.437,2.086,2.086,0,0,0-1.234.375,2.546,2.546,0,0,0-.828.984V15h-1.445V6.547Z" transform="translate(170 6.714)" fill="#12263f"/>
        <g id="Trazado_599611" data-name="Trazado 599611" transform="translate(0 442.714)" fill="none">
          <path d="M0,0H820V41H0Z" stroke="none"/>
          <path d="M 1 1 L 1 40 L 819 40 L 819 1 L 1 1 M 0 0 L 820 0 L 820 41 L 0 41 L 0 0 Z" stroke="none" fill="#304c8e"/>
        </g>
        <path id="Trazado_213259" data-name="Trazado 213259" d="M-6610-2406v406.8" transform="translate(6941.44 2442.454)" fill="none" stroke="#beb9b9" stroke-width="1"/>
        <path id="Trazado_213260" data-name="Trazado 213260" d="M-6610-2406v406.8" transform="translate(7103.147 2442.454)" fill="none" stroke="#beb9b9" stroke-width="1"/>
        <path id="Trazado_213261" data-name="Trazado 213261" d="M-6610-2406v406.8" transform="translate(7264.853 2442.454)" fill="none" stroke="#beb9b9" stroke-width="1"/>
        <path id="Trazado_213257" data-name="Trazado 213257" d="M-6861.919-2071.295s40.078-5.433,46.87-11.547,21.738-19.021,21.738-19.021,13.689-15.625,17.374-20.379,54.632-80.157,62.782-93.743,19.7-27.171,21.058-31.247,57.74-86.95,65.892-105.291,20.947-60.457,38.666-70.647,59.833-27.852,75.456-25.134,36-9.51,76.761,14.266,113.443,85.591,122.953,92.384,56.383,61.816,59.778,65.213" transform="translate(7030.721 2499.993)" fill="none" stroke="#304c8e" stroke-linecap="round" stroke-width="3"/>
      </g>
      <g id="signo-de-interrogacion" transform="translate(157.977 147.891)">
        <g id="Grupo_1013555" data-name="Grupo 1013555" transform="translate(66.054 0.001)">
          <g id="Grupo_1013554" data-name="Grupo 1013554">
            <g id="Grupo_1013553" data-name="Grupo 1013553">
              <path id="Trazado_601802" data-name="Trazado 601802" d="M194.716,66.032,205.355,57.7l1.661-14.51-12.3-6.771-4.993,6.862a8.445,8.445,0,0,1-.967,15.514,11.987,11.987,0,0,0-7.952,11.3v2.18a5.142,5.142,0,0,0,5.141,5.143h7.52Z" transform="translate(-167.22 -32.106)" fill="#fe9738"/>
              <path id="Trazado_601803" data-name="Trazado 601803" d="M78.716,23.871H71.2a5.142,5.142,0,0,1-5.142-5.142A18.714,18.714,0,0,1,86.03.045h7.521L88.2,5.448" transform="translate(-66.054 -0.005)" fill="#fe9738"/>
            </g>
            <path id="Trazado_601804" data-name="Trazado 601804" d="M193.463,424.763h-7.52A5.142,5.142,0,0,0,180.8,429.9v.043a5.142,5.142,0,0,0,5.142,5.142h6.606" transform="translate(-167.218 -374.483)" fill="#fe9738"/>
          </g>
        </g>
        <g id="Grupo_1013561" data-name="Grupo 1013561" transform="translate(73.574 0)">
          <g id="Grupo_1013560" data-name="Grupo 1013560" transform="translate(0 0)">
            <g id="Grupo_1013557" data-name="Grupo 1013557" transform="translate(0 0.001)">
              <g id="Grupo_1013556" data-name="Grupo 1013556">
                <path id="Trazado_601805" data-name="Trazado 601805" d="M148.309,45.312a5.142,5.142,0,0,1-5.142-5.142V37.989a11.984,11.984,0,0,1,7.953-11.3,8.443,8.443,0,1,0-11.17-9.146,8.6,8.6,0,0,0-.082,1.184,5.142,5.142,0,1,1-10.284,0,18.726,18.726,0,1,1,24.964,17.658,1.685,1.685,0,0,0-1.1,1.6V40.17A5.142,5.142,0,0,1,148.309,45.312Z" transform="translate(-129.584 -0.005)" fill="#ffd15b"/>
              </g>
              <path id="Trazado_601806" data-name="Trazado 601806" d="M249.472,435.091a5.142,5.142,0,0,1-5.142-5.142v-.043a5.142,5.142,0,1,1,10.284,0v.043A5.142,5.142,0,0,1,249.472,435.091Z" transform="translate(-230.747 -374.484)" fill="#ffd15b"/>
            </g>
            <g id="Grupo_1013559" data-name="Grupo 1013559">
              <g id="Grupo_1013558" data-name="Grupo 1013558">
                <path id="Trazado_601807" data-name="Trazado 601807" d="M134.309,16.121a18.743,18.743,0,0,0-.18,2.6A5.138,5.138,0,0,0,137,23.338a5.143,5.143,0,0,1-7.415-4.613A18.729,18.729,0,0,1,149.56.041q.524.035,1.04.1a18.811,18.811,0,0,0-16.291,15.98Z" transform="translate(-129.583 0)" fill="#ffc344"/>
                <path id="Trazado_601808" data-name="Trazado 601808" d="M256.837,103.286a11.988,11.988,0,0,0-7.954,11.3v2.181a5.14,5.14,0,0,0,2.871,4.613,5.143,5.143,0,0,1-7.415-4.613v-2.181a11.985,11.985,0,0,1,7.954-11.3,8.444,8.444,0,0,0-.524-16.088,8.439,8.439,0,0,1,5.067,16.088Z" transform="translate(-230.755 -76.6)" fill="#ffc344"/>
              </g>
              <path id="Trazado_601809" data-name="Trazado 601809" d="M251.753,434.552a5.143,5.143,0,0,1-7.415-4.613V429.9a5.143,5.143,0,0,1,7.415-4.613,5.146,5.146,0,0,0-2.871,4.613v.044A5.14,5.14,0,0,0,251.753,434.552Z" transform="translate(-230.754 -374.474)" fill="#ffc344"/>
            </g>
          </g>
        </g>
      </g>
      <path id="estrella" d="M60.224,22.358a3.2,3.2,0,0,0-2.763-2.207L40.034,18.569,33.142,2.439a3.209,3.209,0,0,0-5.9,0L20.349,18.569,2.918,20.151A3.213,3.213,0,0,0,1.1,25.767L14.27,37.32,10.385,54.431A3.2,3.2,0,0,0,15.158,57.9l15.033-8.985L45.219,57.9a3.209,3.209,0,0,0,4.775-3.467L46.11,37.32,59.283,25.769a3.211,3.211,0,0,0,.941-3.411Zm0,0" transform="translate(349.618 64.29)" fill="#ffc107"/>
      <g id="vaca" transform="translate(540 107.334)">
        <g id="Grupo_1013541" data-name="Grupo 1013541" transform="translate(2 20.208)">
          <path id="Trazado_601774" data-name="Trazado 601774" d="M3.821,46.581H2V31.359a9.74,9.74,0,0,1,7.034-9.324A.917.917,0,0,1,9.283,22H11.1v1.821H9.414a7.911,7.911,0,0,0-5.594,7.538Z" transform="translate(-2 -22)" fill="#a8b0bc"/>
        </g>
        <g id="Grupo_1013543" data-name="Grupo 1013543" transform="translate(21.118 44.789)">
          <g id="Grupo_1013542" data-name="Grupo 1013542">
            <path id="Trazado_601775" data-name="Trazado 601775" d="M23,49h1.821v3.642H23Z" transform="translate(-23 -49)" fill="#a8b0bc"/>
          </g>
        </g>
        <g id="Grupo_1013545" data-name="Grupo 1013545" transform="translate(24.76 44.789)">
          <g id="Grupo_1013544" data-name="Grupo 1013544">
            <path id="Trazado_601776" data-name="Trazado 601776" d="M27,49h1.821v3.642H27Z" transform="translate(-27 -49)" fill="#a8b0bc"/>
          </g>
        </g>
        <path id="Trazado_601777" data-name="Trazado 601777" d="M39.462,7.462,39.157,7a9.02,9.02,0,0,1-1.515-5L35.593,3.536a3.984,3.984,0,0,0-.426,6l.654.654" transform="translate(-2.867)" fill="#a8b0bc"/>
        <path id="Trazado_601778" data-name="Trazado 601778" d="M52,7.462,52.306,7a9.02,9.02,0,0,0,1.515-5l2.048,1.536a3.984,3.984,0,0,1,.426,6l-.654.654" transform="translate(-4.48)" fill="#a8b0bc"/>
        <path id="Trazado_601779" data-name="Trazado 601779" d="M56.506,12H57.59a3.918,3.918,0,0,1,3.917,3.917v2.455H60.4a3.918,3.918,0,0,1-2.77-1.147l-.673-.674-.118-.17" transform="translate(-4.883 -0.896)" fill="#c66b60"/>
        <path id="Trazado_601780" data-name="Trazado 601780" d="M3.092,52.371A2.733,2.733,0,0,1,2,50.186V47l2.132,1.066a2.731,2.731,0,0,1,1.509,2.443v3.775Z" transform="translate(0 -4.032)" fill="#52565a"/>
        <path id="Trazado_601781" data-name="Trazado 601781" d="M30.925,45c0,2.514-2.445,4.552-5.462,4.552S20,47.514,20,45" transform="translate(-1.613 -3.853)" fill="#c66b60"/>
        <path id="Trazado_601782" data-name="Trazado 601782" d="M47.736,54.778v-.128l.3-1.194A51,51,0,0,0,49.557,41.09v-.164a11.805,11.805,0,0,1-3.45,3.581l-.192.128-.058.046q-.145,4.511-.643,9l-.161,1.448a3.442,3.442,0,0,1,2.683-.351Z" transform="translate(-3.857 -3.488)" fill="#a8b0bc"/>
        <path id="Trazado_601783" data-name="Trazado 601783" d="M16.585,55.068l-.033-.139.4-2.768a51.2,51.2,0,0,0,.515-7.247v-.347c-.328-.1-.659-.177-.983-.284l-.719-.239a42.79,42.79,0,0,0-2.848,10.875l0,.01H12a3.567,3.567,0,0,1,1.825.5,3.439,3.439,0,0,1,2.759-.363Z" transform="translate(-0.896 -3.767)" fill="#a8b0bc"/>
        <path id="Trazado_601784" data-name="Trazado 601784" d="M47.885,32.029v.039a11.834,11.834,0,0,1-5.27,9.848l-.192.127-.058.046q-.145,4.511-.643,9l-.209,1.879H37.871l-.266-1.2a65.211,65.211,0,0,1-1.457-10.61l0-.029h-.1l-.838.279a30.056,30.056,0,0,1-9.5,1.541h-.264a30.062,30.062,0,0,1-9.5-1.541l-.719-.239A42.79,42.79,0,0,0,12.38,52.048l-.015.122-2.56.52L6.917,41.133,6.092,28.761a8.2,8.2,0,0,1,.227-2.532l.1-.389a8.192,8.192,0,0,1,7.207-6.173l14.233-1.295V15.907A3.908,3.908,0,0,1,31.764,12h2.465" transform="translate(-0.365 -0.896)" fill="#e3e4e5"/>
        <path id="Trazado_601785" data-name="Trazado 601785" d="M35.91,27.029l-.892-12.5c-.012-.167-.018-.334-.018-.5A7.032,7.032,0,0,1,42.032,7H48a7.032,7.032,0,0,1,7.033,7.032c0,.168-.006.334-.018.5l-.892,12.5" transform="translate(-2.957 -0.448)" fill="#ebf7fe"/>
        <path id="Trazado_601786" data-name="Trazado 601786" d="M34.552,14.48A6.983,6.983,0,0,1,35.011,12H33.917A3.918,3.918,0,0,0,30,15.917v2.455h1.109a3.918,3.918,0,0,0,2.77-1.147l.673-.674.1-.479-.078-1.092c-.011-.167-.017-.334-.017-.5Z" transform="translate(-2.509 -0.896)" fill="#c66b60"/>
        <path id="Trazado_601787" data-name="Trazado 601787" d="M42.373,24a8.483,8.483,0,0,1,2.731.444A8.483,8.483,0,0,1,47.835,24c3.52,0,6.373,2.038,6.373,4.552S51.355,33.1,47.835,33.1A8.483,8.483,0,0,1,45.1,32.66a8.482,8.482,0,0,1-2.731.444C38.853,33.1,36,31.066,36,28.552S38.853,24,42.373,24Z" transform="translate(-3.046 -1.971)" fill="#c66b60"/>
        <path id="Trazado_601788" data-name="Trazado 601788" d="M48.982,7h-.516a7.277,7.277,0,0,0,7.187,12.343L56,14.534c.012-.167.018-.334.018-.5A7.032,7.032,0,0,0,48.982,7Z" transform="translate(-3.942 -0.448)" fill="#52565a"/>
        <path id="Trazado_601789" data-name="Trazado 601789" d="M25.642,30a3.642,3.642,0,0,1,3.642,3.642c0,.046-.012.087-.014.133a3.6,3.6,0,0,1,.924-.133,3.642,3.642,0,1,1-3.642,3.642c0-.046.012-.087.014-.133a3.6,3.6,0,0,1-.924.133,3.642,3.642,0,0,1,0-7.283Z" transform="translate(-1.792 -2.509)" fill="#52565a"/>
        <g id="Grupo_1013546" data-name="Grupo 1013546" transform="translate(45.699 24.76)">
          <path id="Trazado_601790" data-name="Trazado 601790" d="M51.366,29.731a1.366,1.366,0,1,1,1.366-1.366A1.367,1.367,0,0,1,51.366,29.731Z" transform="translate(-50 -27)" fill="#e47c6e"/>
        </g>
        <g id="Grupo_1013547" data-name="Grupo 1013547" transform="translate(35.685 24.76)">
          <path id="Trazado_601791" data-name="Trazado 601791" d="M40.366,29.731a1.366,1.366,0,1,1,1.366-1.366A1.367,1.367,0,0,1,40.366,29.731Z" transform="translate(-39 -27)" fill="#e47c6e"/>
        </g>
        <g id="Grupo_1013548" data-name="Grupo 1013548" transform="translate(46.61 13.835)">
          <path id="Trazado_601792" data-name="Trazado 601792" d="M52.366,17.731a1.366,1.366,0,1,1,1.366-1.366A1.367,1.367,0,0,1,52.366,17.731Z" transform="translate(-51 -15)" fill="#243242"/>
        </g>
        <g id="Grupo_1013549" data-name="Grupo 1013549" transform="translate(34.775 13.835)">
          <path id="Trazado_601793" data-name="Trazado 601793" d="M39.366,17.731a1.366,1.366,0,1,1,1.366-1.366A1.367,1.367,0,0,1,39.366,17.731Z" transform="translate(-38 -15)" fill="#243242"/>
        </g>
        <path id="Trazado_601794" data-name="Trazado 601794" d="M15.642,56a3.642,3.642,0,0,1,3.642,3.642v1.821H12V59.642A3.642,3.642,0,0,1,15.642,56Z" transform="translate(-0.896 -4.838)" fill="#243242"/>
        <path id="Trazado_601795" data-name="Trazado 601795" d="M11.642,56a3.642,3.642,0,0,1,3.642,3.642v1.821H8V59.642A3.642,3.642,0,0,1,11.642,56Z" transform="translate(-0.538 -4.838)" fill="#52565a"/>
        <g id="Grupo_1013550" data-name="Grupo 1013550" transform="translate(10.194 53.893)">
          <path id="Trazado_601796" data-name="Trazado 601796" d="M11,59h1.821v2.731H11Z" transform="translate(-11 -59)" fill="#243242"/>
        </g>
        <path id="Trazado_601797" data-name="Trazado 601797" d="M46.642,56a3.642,3.642,0,0,1,3.642,3.642v1.821H43V59.642A3.642,3.642,0,0,1,46.642,56Z" transform="translate(-3.673 -4.838)" fill="#243242"/>
        <path id="Trazado_601798" data-name="Trazado 601798" d="M42.642,56a3.642,3.642,0,0,1,3.642,3.642v1.821H39V59.642A3.642,3.642,0,0,1,42.642,56Z" transform="translate(-3.315 -4.838)" fill="#52565a"/>
        <g id="Grupo_1013551" data-name="Grupo 1013551" transform="translate(38.416 53.893)">
          <path id="Trazado_601799" data-name="Trazado 601799" d="M42,59h1.821v2.731H42Z" transform="translate(-42 -59)" fill="#243242"/>
        </g>
        <g id="Grupo_1013552" data-name="Grupo 1013552" transform="translate(5.828 18.004)">
          <path id="Trazado_601800" data-name="Trazado 601800" d="M15,22.693a4.552,4.552,0,1,0,7.857-3.114l-7.122.647A4.524,4.524,0,0,0,15,22.693Z" transform="translate(-6.993 -19.579)" fill="#52565a"/>
          <path id="Trazado_601801" data-name="Trazado 601801" d="M6.929,32a4.524,4.524,0,0,0-.724.073l.6,9.018c.042,0,.081.013.123.013a4.552,4.552,0,0,0,0-9.1Z" transform="translate(-6.205 -20.692)" fill="#52565a"/>
        </g>
      </g>
      <g id="perro" transform="translate(702.986 259.521)">
        <path id="Trazado_601810" data-name="Trazado 601810" d="M337.554,258.368a1.186,1.186,0,0,0-2.292-.055,17.488,17.488,0,0,1-1.483,3.556,13.583,13.583,0,0,1-6.412,5.925l3.172,7.307a15.444,15.444,0,0,0,7.015-16.733Zm0,0" transform="translate(-291.363 -229.142)" fill="#ffaf5c"/>
        <path id="Trazado_601811" data-name="Trazado 601811" d="M299.261,321.985a6.4,6.4,0,0,0-8.059-.885l-4.768,20.06h4.819A34.017,34.017,0,0,0,296.5,337.5a14.557,14.557,0,0,0,4.752-7.29,8.839,8.839,0,0,0-1.995-8.223Zm0,0" transform="translate(-254.931 -284.85)" fill="#d67f3e"/>
        <path id="Trazado_601812" data-name="Trazado 601812" d="M291.2,321.1l-4.768,20.06h4.819q.279-.164.556-.331l4.934-14.838a10.887,10.887,0,0,0,.378-5.423,6.1,6.1,0,0,0-5.918.531Zm0,0" transform="translate(-254.931 -284.851)" fill="#b25d24"/>
        <path id="Trazado_601813" data-name="Trazado 601813" d="M2.269,321.985a6.4,6.4,0,0,1,8.059-.885l4.767,20.06H10.276A34.017,34.017,0,0,1,5.025,337.5a14.56,14.56,0,0,1-4.752-7.29,8.839,8.839,0,0,1,2-8.223Zm0,0" transform="translate(0 -284.85)" fill="#d67f3e"/>
        <path id="Trazado_601814" data-name="Trazado 601814" d="M138.379,214.926h16.159V247.6H138.379Zm0,0" transform="translate(-123.16 -191.288)" fill="#d67f3e"/>
        <path id="Trazado_601815" data-name="Trazado 601815" d="M166.426,374.836h9.989V362.882a4.994,4.994,0,1,0-9.989,0v11.955Zm0,0" transform="translate(-148.122 -318.526)" fill="#efeec5"/>
        <path id="Trazado_601816" data-name="Trazado 601816" d="M262.861,236.113l-5.607,2.738v27.6h4.889l5.771-17.356a10.918,10.918,0,0,0-5.052-12.986Zm0,0" transform="translate(-228.96 -210.145)" fill="#ffaf5c"/>
        <path id="Trazado_601817" data-name="Trazado 601817" d="M70.033,236.113l5.607,2.738v27.6H70.752L64.98,249.1a10.919,10.919,0,0,1,5.053-12.986Zm0,0" transform="translate(-57.336 -210.145)" fill="#ffaf5c"/>
        <path id="Trazado_601818" data-name="Trazado 601818" d="M73.351,460.293a5.688,5.688,0,0,0-5.628,4.868.725.725,0,0,0,.722.819h9.813a.724.724,0,0,0,.722-.819A5.688,5.688,0,0,0,73.351,460.293Zm0,0" transform="translate(-60.267 -409.67)" fill="#f2f2f2"/>
        <path id="Trazado_601819" data-name="Trazado 601819" d="M116.947,465.161a5.692,5.692,0,0,0-6.572-4.79c1.73.405,3.09,2.346,3.341,4.79.045.434-.2.819-.515.819h3.024A.724.724,0,0,0,116.947,465.161Zm0,0" transform="translate(-98.236 -409.67)" fill="#c9c9c9"/>
        <path id="Trazado_601820" data-name="Trazado 601820" d="M259.12,460.293a5.688,5.688,0,0,0-5.628,4.868.724.724,0,0,0,.722.819h9.813a.724.724,0,0,0,.722-.819A5.688,5.688,0,0,0,259.12,460.293Zm0,0" transform="translate(-225.605 -409.67)" fill="#f2f2f2"/>
        <path id="Trazado_601821" data-name="Trazado 601821" d="M302.716,465.161a5.691,5.691,0,0,0-6.572-4.79c1.73.405,3.089,2.346,3.341,4.79.045.434-.2.819-.515.819h3.024A.724.724,0,0,0,302.716,465.161Zm0,0" transform="translate(-263.574 -409.67)" fill="#c9c9c9"/>
        <g id="Grupo_1013562" data-name="Grupo 1013562" transform="translate(9.744 53.319)">
          <path id="Trazado_601822" data-name="Trazado 601822" d="M276.057,487.13a.757.757,0,0,1,0-.1,10.614,10.614,0,0,1,.147-1.224.85.85,0,0,0-1.672-.3,12.36,12.36,0,0,0-.171,1.421,2.23,2.23,0,0,0,.114.872h1.9A.848.848,0,0,0,276.057,487.13Zm0,0" transform="translate(-253.926 -484.804)" fill="#403f4f"/>
          <path id="Trazado_601823" data-name="Trazado 601823" d="M316.715,487.8h1.9a2.224,2.224,0,0,0,.113-.873,12.477,12.477,0,0,0-.171-1.42.85.85,0,0,0-1.672.3,10.714,10.714,0,0,1,.146,1.226.684.684,0,0,1,0,.1A.849.849,0,0,0,316.715,487.8Zm0,0" transform="translate(-291.626 -484.804)" fill="#403f4f"/>
          <path id="Trazado_601824" data-name="Trazado 601824" d="M90.291,487.131a.775.775,0,0,1,0-.1,10.718,10.718,0,0,1,.147-1.224.85.85,0,0,0-1.672-.3,12.291,12.291,0,0,0-.171,1.419,2.22,2.22,0,0,0,.112.874h1.9A.849.849,0,0,0,90.291,487.131Zm0,0" transform="translate(-88.59 -484.804)" fill="#403f4f"/>
          <path id="Trazado_601825" data-name="Trazado 601825" d="M130.941,487.8h1.9a2.228,2.228,0,0,0,.113-.873,12.381,12.381,0,0,0-.171-1.42.85.85,0,0,0-1.672.3,10.729,10.729,0,0,1,.146,1.224.71.71,0,0,1,0,.1A.848.848,0,0,0,130.941,487.8Zm0,0" transform="translate(-126.283 -484.804)" fill="#403f4f"/>
        </g>
        <path id="Trazado_601826" data-name="Trazado 601826" d="M272.512,2.566l3.57-2.06A3.77,3.77,0,0,1,277.966,0h2.095a8.346,8.346,0,0,1,8.326,7.771l.283,4.095a3.912,3.912,0,0,1-5.6,3.794l-7.744-3.728Zm0,0" transform="translate(-242.541)" fill="#d67f3e"/>
        <path id="Trazado_601827" data-name="Trazado 601827" d="M283.786,21.1l-4.5-8.406A8.223,8.223,0,0,0,275.241,9l-2.729,1.575,2.816,9.366,7.744,3.728a3.913,3.913,0,0,0,1.71.387,9.407,9.407,0,0,0-1-2.957Zm0,0" transform="translate(-242.54 -8.014)" fill="#b25d24"/>
        <path id="Trazado_601828" data-name="Trazado 601828" d="M20.328,2.566,16.759.505A3.77,3.77,0,0,0,14.874,0H12.78A8.347,8.347,0,0,0,4.453,7.771L4.17,11.866a3.912,3.912,0,0,0,5.6,3.794l7.744-3.728Zm0,0" transform="translate(-3.702)" fill="#d67f3e"/>
        <path id="Trazado_601829" data-name="Trazado 601829" d="M82.934,29.362l-5.124-2.293a9.237,9.237,0,0,1-5.463-8.432V17.19a9.412,9.412,0,0,1,1.114-4.441l4.5-8.406A8.221,8.221,0,0,1,85.208,0H90.17a8.222,8.222,0,0,1,7.249,4.343l4.5,8.406a9.412,9.412,0,0,1,1.114,4.441v1.447a9.237,9.237,0,0,1-5.464,8.432l-5.123,2.293a11.638,11.638,0,0,1-9.509,0Zm0,0" transform="translate(-64.39 0)" fill="#ffaf5c"/>
        <path id="Trazado_601830" data-name="Trazado 601830" d="M123.806,17.411l-4.5-8.406a8.219,8.219,0,0,0-4.227-3.767,8.205,8.205,0,0,1,1.293,1.789l4.5,8.406a9.411,9.411,0,0,1,1.114,4.441v1.447a9.238,9.238,0,0,1-5.463,8.432L111.4,32.046a11.637,11.637,0,0,1-9.509,0l-4.949-2.215a9.223,9.223,0,0,0,2.759,1.9l5.124,2.293a11.637,11.637,0,0,0,9.509,0l5.124-2.293A9.237,9.237,0,0,0,124.92,23.3V21.852a9.412,9.412,0,0,0-1.114-4.441Zm0,0" transform="translate(-86.279 -4.662)" fill="#d67f3e"/>
        <path id="Trazado_601831" data-name="Trazado 601831" d="M146.689,124.3a.85.85,0,0,1-.85-.85v-.681a.85.85,0,1,1,1.7,0v.681A.85.85,0,0,1,146.689,124.3Zm0,0" transform="translate(-129.799 -108.51)" fill="#403f4f"/>
        <path id="Trazado_601832" data-name="Trazado 601832" d="M263.24,124.3a.85.85,0,0,1-.85-.85v-.681a.85.85,0,1,1,1.7,0v.681A.85.85,0,0,1,263.24,124.3Zm0,0" transform="translate(-233.532 -108.51)" fill="#403f4f"/>
        <path id="Trazado_601833" data-name="Trazado 601833" d="M179.359,224.248a4.58,4.58,0,1,1-4.58-4.58A4.58,4.58,0,0,1,179.359,224.248Zm0,0" transform="translate(-151.48 -195.509)" fill="#e573b7"/>
        <path id="Trazado_601834" data-name="Trazado 601834" d="M128.821,181.016h-10.66a5.588,5.588,0,1,0,5.33,7.27,5.588,5.588,0,1,0,5.33-7.27Zm0,0" transform="translate(-100.193 -161.108)" fill="#efeec5"/>
        <path id="Trazado_601835" data-name="Trazado 601835" d="M233.253,181.016H229.91a5.589,5.589,0,0,1,1.671,10.921,5.588,5.588,0,1,0,1.671-10.921Zm0,0" transform="translate(-204.624 -161.108)" fill="#c9c793"/>
        <path id="Trazado_601836" data-name="Trazado 601836" d="M174.4,148.938c-2.3,0-4.627.741-4.627,2.4a4.64,4.64,0,1,0,9.254,0C179.024,149.679,176.7,148.938,174.4,148.938Zm0,0" transform="translate(-151.098 -132.558)" fill="#5b586d"/>
      </g>
    </g>
    <path id="Trazado_599609" data-name="Trazado 599609" d="M0,0H146V25H0Z" transform="translate(454 10663)" fill="#7e10b8"/>
    <path id="Trazado_605292" data-name="Trazado 605292" d="M10.266,15H7.922L3.359,7.516V15H1.016V3.625H3.359l4.57,7.5v-7.5h2.336Zm4.281,0H12.281V6.547h2.266Zm-2.4-10.641a1.112,1.112,0,0,1,.34-.836,1.465,1.465,0,0,1,1.848,0,1.105,1.105,0,0,1,.344.836,1.108,1.108,0,0,1-.348.844,1.448,1.448,0,0,1-1.836,0A1.108,1.108,0,0,1,12.148,4.359Zm7.422,7.883,1.57-5.7H23.5L20.648,15H18.492L15.641,6.547H18Zm8.711,2.914a4.15,4.15,0,0,1-3.027-1.141,4.054,4.054,0,0,1-1.168-3.039v-.219a5.106,5.106,0,0,1,.492-2.277,3.612,3.612,0,0,1,1.395-1.547,3.914,3.914,0,0,1,2.059-.543,3.508,3.508,0,0,1,2.73,1.094,4.444,4.444,0,0,1,1,3.1v.922H26.375a2.1,2.1,0,0,0,.66,1.328,2,2,0,0,0,1.395.5,2.437,2.437,0,0,0,2.039-.945l1.109,1.242A3.389,3.389,0,0,1,30.2,14.754,4.511,4.511,0,0,1,28.281,15.156Zm-.258-6.945a1.411,1.411,0,0,0-1.09.455,2.357,2.357,0,0,0-.535,1.3h3.141V9.788a1.681,1.681,0,0,0-.406-1.165A1.456,1.456,0,0,0,28.023,8.211ZM35.422,15H33.156V3h2.266Zm5.492-4.289A5.094,5.094,0,0,1,41.8,7.563a2.877,2.877,0,0,1,2.426-1.172,2.589,2.589,0,0,1,2.039.922V3h2.266V15H46.492l-.109-.9a2.657,2.657,0,0,1-2.172,1.055,2.869,2.869,0,0,1-2.395-1.176A5.258,5.258,0,0,1,40.914,10.711Zm2.258.168a3.337,3.337,0,0,0,.414,1.823,1.349,1.349,0,0,0,1.2.634,1.511,1.511,0,0,0,1.477-.884V9.111A1.489,1.489,0,0,0,44.8,8.227Q43.172,8.227,43.172,10.879Zm11,4.277a4.15,4.15,0,0,1-3.027-1.141,4.054,4.054,0,0,1-1.168-3.039v-.219a5.106,5.106,0,0,1,.492-2.277,3.612,3.612,0,0,1,1.395-1.547,3.914,3.914,0,0,1,2.059-.543,3.508,3.508,0,0,1,2.73,1.094,4.444,4.444,0,0,1,1,3.1v.922H52.266a2.1,2.1,0,0,0,.66,1.328,2,2,0,0,0,1.395.5,2.437,2.437,0,0,0,2.039-.945l1.109,1.242a3.389,3.389,0,0,1-1.375,1.121A4.511,4.511,0,0,1,54.172,15.156Zm-.258-6.945a1.411,1.411,0,0,0-1.09.455,2.357,2.357,0,0,0-.535,1.3H55.43V9.788a1.681,1.681,0,0,0-.406-1.165A1.456,1.456,0,0,0,53.914,8.211Zm12.164,4.031,1.57-5.7h2.359L67.156,15H65L62.148,6.547h2.359Zm8.711,2.914a4.15,4.15,0,0,1-3.027-1.141,4.054,4.054,0,0,1-1.168-3.039v-.219a5.106,5.106,0,0,1,.492-2.277A3.612,3.612,0,0,1,72.48,6.934a3.914,3.914,0,0,1,2.059-.543,3.508,3.508,0,0,1,2.73,1.094,4.444,4.444,0,0,1,1,3.1v.922H72.883a2.1,2.1,0,0,0,.66,1.328,2,2,0,0,0,1.395.5,2.437,2.437,0,0,0,2.039-.945l1.109,1.242a3.389,3.389,0,0,1-1.375,1.121A4.511,4.511,0,0,1,74.789,15.156Zm-.258-6.945a1.411,1.411,0,0,0-1.09.455,2.357,2.357,0,0,0-.535,1.3h3.141V9.788a1.681,1.681,0,0,0-.406-1.165A1.456,1.456,0,0,0,74.531,8.211Zm7.094-1.664.07.977a2.951,2.951,0,0,1,2.43-1.133,2.453,2.453,0,0,1,2,.789A3.682,3.682,0,0,1,86.8,9.539V15H84.539V9.594a1.465,1.465,0,0,0-.312-1.043,1.4,1.4,0,0,0-1.039-.324,1.553,1.553,0,0,0-1.43.813V15H79.5V6.547Zm9.586-2.078V6.547h1.445V8.2H91.211v4.219a1.007,1.007,0,0,0,.18.672.9.9,0,0,0,.688.2,3.6,3.6,0,0,0,.664-.055v1.711a4.648,4.648,0,0,1-1.367.2,2.156,2.156,0,0,1-2.422-2.4V8.2H87.719V6.547h1.234V4.469ZM98.813,15a2.507,2.507,0,0,1-.227-.758,2.732,2.732,0,0,1-2.133.914,3,3,0,0,1-2.059-.719,2.312,2.312,0,0,1-.816-1.812,2.389,2.389,0,0,1,1-2.062,4.915,4.915,0,0,1,2.879-.727h1.039V9.352a1.393,1.393,0,0,0-.3-.937,1.183,1.183,0,0,0-.949-.352,1.345,1.345,0,0,0-.895.273.929.929,0,0,0-.324.75H93.766a2.268,2.268,0,0,1,.453-1.359,3,3,0,0,1,1.281-.98,4.669,4.669,0,0,1,1.859-.355,3.689,3.689,0,0,1,2.48.785,2.747,2.747,0,0,1,.918,2.207v3.664a4.041,4.041,0,0,0,.336,1.82V15Zm-1.867-1.57a1.945,1.945,0,0,0,.922-.223,1.462,1.462,0,0,0,.625-.6V11.156h-.844q-1.7,0-1.8,1.172l-.008.133a.9.9,0,0,0,.3.7A1.153,1.153,0,0,0,96.945,13.43Zm10.125-.766a.727.727,0,0,0-.41-.652,4.659,4.659,0,0,0-1.316-.426q-3.016-.633-3.016-2.562a2.323,2.323,0,0,1,.934-1.879,3.766,3.766,0,0,1,2.441-.754,4.053,4.053,0,0,1,2.574.758,2.388,2.388,0,0,1,.965,1.969h-2.258a1.092,1.092,0,0,0-.312-.8A1.322,1.322,0,0,0,105.7,8a1.351,1.351,0,0,0-.883.258.814.814,0,0,0-.312.656.7.7,0,0,0,.355.605,3.657,3.657,0,0,0,1.2.4,9.8,9.8,0,0,1,1.422.379,2.336,2.336,0,0,1,1.789,2.273,2.2,2.2,0,0,1-.992,1.871,4.28,4.28,0,0,1-2.562.715,4.47,4.47,0,0,1-1.887-.379,3.166,3.166,0,0,1-1.293-1.039,2.414,2.414,0,0,1-.469-1.426H104.2a1.179,1.179,0,0,0,.445.922,1.766,1.766,0,0,0,1.109.32,1.635,1.635,0,0,0,.98-.246A.766.766,0,0,0,107.07,12.664Z" transform="translate(469 10666)" fill="#fff"/>
    <path id="Trazado_218940" data-name="Trazado 218940" d="M-6079.562-69.818h-652.046V-514.049" transform="translate(7289.563 11200.923)" fill="none" stroke="#304c8e" stroke-width="2"/>
    <path id="Trazado_599610" data-name="Trazado 599610" d="M0,0H52.069V2.955H0Z" transform="translate(400.465 11182.545)" fill="#304c8e"/>
    <path id="Trazado_605310" data-name="Trazado 605310" d="M3.508,15H1.164V3.625H3.508Zm4.1-8.453.07.977a2.951,2.951,0,0,1,2.43-1.133,2.453,2.453,0,0,1,2,.789,3.682,3.682,0,0,1,.672,2.359V15H10.523V9.594a1.465,1.465,0,0,0-.312-1.043,1.4,1.4,0,0,0-1.039-.324,1.553,1.553,0,0,0-1.43.813V15H5.484V6.547Zm10.047,5.7,1.57-5.7h2.359L18.734,15H16.578L13.727,6.547h2.359Zm8.711,2.914a4.15,4.15,0,0,1-3.027-1.141,4.054,4.054,0,0,1-1.168-3.039v-.219a5.106,5.106,0,0,1,.492-2.277,3.612,3.612,0,0,1,1.395-1.547,3.914,3.914,0,0,1,2.059-.543,3.508,3.508,0,0,1,2.73,1.094,4.444,4.444,0,0,1,1,3.1v.922H24.461a2.1,2.1,0,0,0,.66,1.328,2,2,0,0,0,1.395.5,2.437,2.437,0,0,0,2.039-.945l1.109,1.242a3.389,3.389,0,0,1-1.375,1.121A4.511,4.511,0,0,1,26.367,15.156Zm-.258-6.945a1.411,1.411,0,0,0-1.09.455,2.357,2.357,0,0,0-.535,1.3h3.141V9.788a1.681,1.681,0,0,0-.406-1.165A1.456,1.456,0,0,0,26.109,8.211Zm9.766.453a6.134,6.134,0,0,0-.812-.062,1.654,1.654,0,0,0-1.68.867V15H31.125V6.547h2.133l.063,1.008A2.092,2.092,0,0,1,35.2,6.391a2.366,2.366,0,0,1,.7.1Zm5.664,4a.727.727,0,0,0-.41-.652,4.659,4.659,0,0,0-1.316-.426Q36.8,10.953,36.8,9.023a2.323,2.323,0,0,1,.934-1.879,3.766,3.766,0,0,1,2.441-.754,4.053,4.053,0,0,1,2.574.758,2.388,2.388,0,0,1,.965,1.969H41.453a1.092,1.092,0,0,0-.312-.8A1.322,1.322,0,0,0,40.164,8a1.351,1.351,0,0,0-.883.258.814.814,0,0,0-.312.656.7.7,0,0,0,.355.605,3.657,3.657,0,0,0,1.2.4,9.8,9.8,0,0,1,1.422.379,2.336,2.336,0,0,1,1.789,2.273,2.2,2.2,0,0,1-.992,1.871,4.28,4.28,0,0,1-2.562.715,4.47,4.47,0,0,1-1.887-.379A3.166,3.166,0,0,1,37,13.738a2.414,2.414,0,0,1-.469-1.426h2.141a1.179,1.179,0,0,0,.445.922,1.766,1.766,0,0,0,1.109.32,1.635,1.635,0,0,0,.98-.246A.766.766,0,0,0,41.539,12.664ZM47.57,15H45.3V6.547H47.57Zm-2.4-10.641a1.112,1.112,0,0,1,.34-.836,1.465,1.465,0,0,1,1.848,0,1.105,1.105,0,0,1,.344.836,1.108,1.108,0,0,1-.348.844,1.448,1.448,0,0,1-1.836,0A1.108,1.108,0,0,1,45.172,4.359ZM49.078,10.7a5.013,5.013,0,0,1,.484-2.242A3.546,3.546,0,0,1,50.957,6.93a4.069,4.069,0,0,1,2.113-.539,3.849,3.849,0,0,1,2.793,1.047,4.2,4.2,0,0,1,1.207,2.844l.016.578A4.418,4.418,0,0,1,56,13.98a4.209,4.209,0,0,1-5.832,0,4.5,4.5,0,0,1-1.09-3.187Zm2.258.16a3.16,3.16,0,0,0,.453,1.843,1.628,1.628,0,0,0,2.578.008,3.457,3.457,0,0,0,.461-2.015,3.128,3.128,0,0,0-.461-1.831,1.5,1.5,0,0,0-1.3-.649,1.474,1.474,0,0,0-1.281.646A3.516,3.516,0,0,0,51.336,10.856ZM53.516,3h2.461L53.813,5.422H51.977Zm7.039,3.547.07.977a2.951,2.951,0,0,1,2.43-1.133,2.453,2.453,0,0,1,2,.789,3.682,3.682,0,0,1,.672,2.359V15H63.469V9.594a1.465,1.465,0,0,0-.312-1.043,1.4,1.4,0,0,0-1.039-.324,1.553,1.553,0,0,0-1.43.813V15H58.43V6.547Z" transform="translate(464.535 11173.045)" fill="#304c8e"/>
    <path id="Trazado_599608" data-name="Trazado 599608" d="M737.895,9526.869c10.143-16.289,132.332-195.808,215.059-210.058s165.237,37.285,318.682,164.107" transform="translate(-105 1600.197)" fill="none" stroke="#60cb28" stroke-width="4"/>
    <text id="Curva_de_beneficio_o_utilidad" data-name="Curva de beneficio o utilidad" transform="translate(895 10968.557)" fill="#12263f" font-size="17" font-family="Roboto-Bold, Roboto" font-weight="700"><tspan x="-33.784" y="16">Curva de </tspan><tspan x="-42.322" y="38">beneficio o </tspan><tspan x="-28.526" y="60">utilidad</tspan></text>
  </g>
</svg>
