<svg xmlns="http://www.w3.org/2000/svg" width="135.596" height="135.625" viewBox="0 0 135.596 135.625">
  <g id="Grupo_1014748" data-name="Grupo 1014748" transform="translate(-884.354 -2671.651)">
    <path id="Trazado_601564" data-name="Trazado 601564" d="M132.493,534.841a67.813,67.813,0,1,1-67.813,67.813A67.793,67.793,0,0,1,132.493,534.841Z" transform="translate(819.673 2136.81)" fill="#60cb28"/>
    <g id="Grupo_1014747" data-name="Grupo 1014747">
      <path id="Trazado_601597" data-name="Trazado 601597" d="M290.294,783.414H273.845a2.741,2.741,0,0,0-2.741,2.741V788.9a2.741,2.741,0,0,0,2.741,2.741h16.449a2.741,2.741,0,0,0,2.741-2.741v-2.741A2.741,2.741,0,0,0,290.294,783.414Z" transform="translate(695.719 1987.545)" fill="#e0e4ee"/>
      <path id="Trazado_601598" data-name="Trazado 601598" d="M290.294,762.828H273.845a2.741,2.741,0,0,0-2.741,2.741v2.741a2.741,2.741,0,0,0,2.741,2.741h16.449a2.741,2.741,0,0,0,2.741-2.741v-2.741A2.741,2.741,0,0,0,290.294,762.828Z" transform="translate(695.719 1999.906)" fill="#ffe477"/>
      <path id="Trazado_601599" data-name="Trazado 601599" d="M293.036,765.569v2.741a2.75,2.75,0,0,0-2.741-2.741H273.845a2.749,2.749,0,0,0-2.741,2.741v-2.741a2.749,2.749,0,0,1,2.741-2.741h16.449a2.749,2.749,0,0,1,2.741,2.741Z" transform="translate(695.719 1999.906)" fill="#fee132"/>
      <path id="Trazado_601600" data-name="Trazado 601600" d="M231.277,786.155V788.9a2.75,2.75,0,0,1-2.741,2.741H212.086a2.75,2.75,0,0,1-2.741-2.741v-1.59a12.822,12.822,0,0,0,2.029-3.8,2.429,2.429,0,0,1,.713-.1h16.449a2.75,2.75,0,0,1,2.741,2.741Z" transform="translate(732.804 1987.545)" fill="#e0e4ee"/>
      <path id="Trazado_601601" data-name="Trazado 601601" d="M234.429,765.569v2.741a2.75,2.75,0,0,1-2.741,2.741H215.238a2.527,2.527,0,0,1-.644-.082,13.261,13.261,0,0,0,.644-4.03v-4.112h16.449a2.749,2.749,0,0,1,2.741,2.741Z" transform="translate(729.652 1999.906)" fill="#ffe477"/>
      <path id="Trazado_601602" data-name="Trazado 601602" d="M233.77,744.982v2.741a2.749,2.749,0,0,1-2.741,2.741H214.58v-1.371a23.249,23.249,0,0,0-1.083-6.634,2.828,2.828,0,0,1,1.083-.219h16.449a2.75,2.75,0,0,1,2.741,2.741Z" transform="translate(730.311 2012.269)" fill="#e0e4ee"/>
      <path id="Trazado_601603" data-name="Trazado 601603" d="M231.277,724.4v2.741a2.749,2.749,0,0,1-2.741,2.741H212.086a2.7,2.7,0,0,1-1.247-.3,34.711,34.711,0,0,0-1.494-3.838V724.4a2.75,2.75,0,0,1,2.741-2.741h16.449a2.75,2.75,0,0,1,2.741,2.741Z" transform="translate(732.804 2024.63)" fill="#ffe477"/>
      <path id="Trazado_601604" data-name="Trazado 601604" d="M271.087,632.415a13.707,13.707,0,1,0-13.708-13.708A13.708,13.708,0,0,0,271.087,632.415Z" transform="translate(703.96 2094.68)" fill="#ffe477"/>
      <path id="Trazado_601605" data-name="Trazado 601605" d="M288.07,621.984a13.707,13.707,0,0,1-25.235,7.415,13.707,13.707,0,0,0,18.944-18.943,13.7,13.7,0,0,1,6.292,11.528Z" transform="translate(700.684 2091.404)" fill="#fee132"/>
      <path id="Trazado_601606" data-name="Trazado 601606" d="M166.776,666.759l-2.577,9.6v.014a.668.668,0,0,0-.165-.014H150.327a.67.67,0,0,0-.165.014v-.014l-2.577-9.6.576.082,9.019,1.288Z" transform="translate(769.89 2057.595)" fill="#ffe477"/>
      <path id="Trazado_601607" data-name="Trazado 601607" d="M185.566,666.759l-2.577,9.6v.014a.668.668,0,0,0-.165-.014h-3.948l2.577-9.6Z" transform="translate(751.1 2057.595)" fill="#fee132"/>
      <path id="Trazado_601608" data-name="Trazado 601608" d="M178.63,690.775v.014a.668.668,0,0,0-.165-.014Z" transform="translate(751.347 2043.174)" fill="#fee132"/>
      <path id="Trazado_601609" data-name="Trazado 601609" d="M164.2,690.789a2.737,2.737,0,0,1-.165,5.469H150.327a2.75,2.75,0,0,1-2.741-2.741,2.682,2.682,0,0,1,.809-1.933,2.621,2.621,0,0,1,1.768-.795.67.67,0,0,1,.165-.014h13.707A.667.667,0,0,1,164.2,690.789Z" transform="translate(769.89 2043.174)" fill="#1c2d55"/>
      <path id="Trazado_601610" data-name="Trazado 601610" d="M185.319,693.517a2.762,2.762,0,0,1-2.742,2.741h-4.112a2.737,2.737,0,0,0,.165-5.469.668.668,0,0,0-.165-.014h4.112a.666.666,0,0,1,.165.014,2.741,2.741,0,0,1,2.577,2.728Z" transform="translate(751.347 2043.174)" fill="#1c2d55"/>
      <path id="Trazado_601611" data-name="Trazado 601611" d="M231.277,724.4v2.741a2.75,2.75,0,0,0-2.741-2.741H212.086a2.75,2.75,0,0,0-2.741,2.741V724.4a2.75,2.75,0,0,1,2.741-2.741h16.449a2.75,2.75,0,0,1,2.741,2.741Z" transform="translate(732.804 2024.63)" fill="#fee132"/>
      <path id="Trazado_601612" data-name="Trazado 601612" d="M231.277,765.569v2.741a2.75,2.75,0,0,0-2.741-2.741H212.086a2.75,2.75,0,0,0-2.741,2.741v-2.741a2.749,2.749,0,0,1,2.741-2.741h16.449a2.749,2.749,0,0,1,2.741,2.741Z" transform="translate(732.804 1999.906)" fill="#fee132"/>
      <path id="Trazado_601613" data-name="Trazado 601613" d="M231.277,744.982v2.741a2.75,2.75,0,0,0-2.741-2.741H212.086a2.75,2.75,0,0,0-2.741,2.741v-2.741a2.75,2.75,0,0,1,2.741-2.741h16.449a2.75,2.75,0,0,1,2.741,2.741Z" transform="translate(732.804 2012.269)" fill="#1c2d55"/>
      <path id="Trazado_601614" data-name="Trazado 601614" d="M231.277,786.155V788.9a2.75,2.75,0,0,0-2.741-2.741H212.086a2.75,2.75,0,0,0-2.741,2.741v-2.741a2.75,2.75,0,0,1,2.741-2.741h16.449a2.75,2.75,0,0,1,2.741,2.741Z" transform="translate(732.804 1987.545)" fill="#1c2d55"/>
      <path id="Trazado_601615" data-name="Trazado 601615" d="M293.036,786.155V788.9a2.75,2.75,0,0,0-2.741-2.741H273.845A2.749,2.749,0,0,0,271.1,788.9v-2.741a2.749,2.749,0,0,1,2.741-2.741h16.449a2.75,2.75,0,0,1,2.741,2.741Z" transform="translate(695.719 1987.545)" fill="#1c2d55"/>
      <path id="Trazado_601616" data-name="Trazado 601616" d="M162.639,726.432v5.483c0,6.346-4.825,12.337-10.966,12.337H137.966c-6.141,0-10.966-5.99-10.966-12.337v-5.483a20.924,20.924,0,0,1,.439-4.113c1.343-6.607,5.552-14.036,10.527-17.819h13.708C157.718,709.106,162.639,719.071,162.639,726.432Z" transform="translate(782.251 2034.932)" fill="#ffe477"/>
      <path id="Trazado_601617" data-name="Trazado 601617" d="M165.606,726.432v5.483c0,6.346-4.825,12.337-10.966,12.337H140.932a10.708,10.708,0,0,1-8.992-5.456,9.7,9.7,0,0,0,4.88,1.344h13.707c6.141,0,10.966-5.99,10.966-12.337v-5.483c0-5.606-2.851-12.707-6.881-17.819h.027C160.685,709.106,165.606,719.071,165.606,726.432Z" transform="translate(779.285 2034.932)" fill="#fee132"/>
      <path id="Trazado_601618" data-name="Trazado 601618" d="M284.138,634.483h2.741v-2.741A2.741,2.741,0,0,0,289.621,629v-2.741a2.742,2.742,0,0,0-2.741-2.741h-2.741v-2.741h5.483v-2.741h-2.741v-2.741h-2.741v2.741a2.742,2.742,0,0,0-2.742,2.741v2.741a2.742,2.742,0,0,0,2.742,2.741h2.741V629H281.4v2.741h2.742Z" transform="translate(689.538 2088.499)"/>
      <path id="Trazado_601619" data-name="Trazado 601619" d="M160.613,728.5h-2.741a4.112,4.112,0,1,1,0-8.224H166.1v-2.741h-5.483v-2.741h-2.741v2.741a6.854,6.854,0,1,0,0,13.707h2.741a4.112,4.112,0,0,1,0,8.225h-8.224v2.741h5.483v2.741h2.741v-2.741a6.854,6.854,0,0,0,0-13.708Z" transform="translate(767.829 2028.751)"/>
    </g>
  </g>
</svg>
