<svg xmlns="http://www.w3.org/2000/svg" width="135.596" height="135.626" viewBox="0 0 135.596 135.626">
  <g id="Grupo_1014750" data-name="Grupo 1014750" transform="translate(-884.354 -2886.637)">
    <path id="Trazado_601566" data-name="Trazado 601566" d="M132.493,1510.84a67.813,67.813,0,1,1-67.813,67.813A67.794,67.794,0,0,1,132.493,1510.84Z" transform="translate(819.673 1375.797)" fill="#60cb28"/>
    <g id="Grupo_1014749" data-name="Grupo 1014749">
      <path id="Trazado_601634" data-name="Trazado 601634" d="M214.9,1736.75h15.518v12.537H214.9Z" transform="translate(729.471 1240.141)" fill="#304c8e"/>
      <path id="Trazado_601635" data-name="Trazado 601635" d="M214.9,1736.75h5.611v12.537H214.9Z" transform="translate(729.471 1240.141)" fill="#5e6f90"/>
      <path id="Trazado_601636" data-name="Trazado 601636" d="M210.833,1714.5H124.111l-1.111.176v5.313a3.579,3.579,0,0,0,3.579,3.58h81.785a3.579,3.579,0,0,0,3.58-3.58v-5.313Z" transform="translate(784.653 1253.502)" fill="#a2c7f8"/>
      <path id="Trazado_601637" data-name="Trazado 601637" d="M223.793,1772.6h-31.14a1.791,1.791,0,0,1-1.789-1.79v-1.342a1.791,1.791,0,0,1,1.789-1.79h31.14a1.791,1.791,0,0,1,1.789,1.79v1.342A1.791,1.791,0,0,1,223.793,1772.6Z" transform="translate(743.902 1221.567)" fill="#a2c7f8"/>
      <path id="Trazado_601638" data-name="Trazado 601638" d="M199.812,1770.812v-1.342a1.791,1.791,0,0,1,1.79-1.79h-8.948a1.791,1.791,0,0,0-1.789,1.79v1.342a1.791,1.791,0,0,0,1.789,1.79H201.6A1.791,1.791,0,0,1,199.812,1770.812Z" transform="translate(743.902 1221.567)" fill="#8db3df"/>
      <path id="Trazado_601639" data-name="Trazado 601639" d="M230.737,1725.139h-6.443a1.3,1.3,0,0,1,0-2.609h6.443a1.3,1.3,0,0,1,0,2.609Z" transform="translate(724.61 1248.68)" fill="#304c8e"/>
      <path id="Trazado_601640" data-name="Trazado 601640" d="M211.944,1635.111H123v-50.426a2.685,2.685,0,0,1,2.684-2.685h83.575a2.685,2.685,0,0,1,2.685,2.685Z" transform="translate(784.653 1333.066)" fill="#304c8e"/>
      <path id="Trazado_601641" data-name="Trazado 601641" d="M134.842,1636.592v-41.857a.894.894,0,0,1,.895-.895h77.692a.894.894,0,0,1,.895.895v41.857a.894.894,0,0,1-.895.895H135.737A.894.894,0,0,1,134.842,1636.592Z" transform="translate(777.542 1325.957)" fill="#fff3de"/>
      <path id="Trazado_601642" data-name="Trazado 601642" d="M275.436,1684.375H265.48a1.3,1.3,0,1,1,0-2.6h9.957a1.3,1.3,0,1,1,0,2.6Z" transform="translate(699.878 1273.155)" fill="#304c8e"/>
      <path id="Trazado_601643" data-name="Trazado 601643" d="M283.734,1672.845H265.48a1.3,1.3,0,1,1,0-2.6h18.254a1.3,1.3,0,1,1,0,2.6Z" transform="translate(699.878 1280.079)" fill="#304c8e"/>
      <path id="Trazado_601644" data-name="Trazado 601644" d="M283.734,1661.3H265.48a1.3,1.3,0,1,1,0-2.6h18.254a1.3,1.3,0,1,1,0,2.6Z" transform="translate(699.878 1287.009)" fill="#304c8e"/>
      <path id="Trazado_601645" data-name="Trazado 601645" d="M283.734,1649.775H265.48a1.3,1.3,0,1,1,0-2.6h18.254a1.3,1.3,0,1,1,0,2.6Z" transform="translate(699.878 1293.933)" fill="#304c8e"/>
      <path id="Trazado_601646" data-name="Trazado 601646" d="M283.734,1638.235H265.48a1.3,1.3,0,1,1,0-2.6h18.254a1.3,1.3,0,1,1,0,2.6Z" transform="translate(699.878 1300.862)" fill="#304c8e"/>
      <path id="Trazado_601647" data-name="Trazado 601647" d="M189.892,1616.273a.7.7,0,0,1-.7-.7v-3.568H164.378v3.568a.7.7,0,0,1-.7.7H160.12v21.134h3.562a.7.7,0,0,1,.7.7v3.46H189.2v-3.46a.7.7,0,0,1,.695-.7h3.425v-21.134Z" transform="translate(762.363 1315.046)" fill="#fff"/>
      <path id="Trazado_601648" data-name="Trazado 601648" d="M164.378,1615.578a.7.7,0,0,1-.7.7H160.12v21.134h3.562a.7.7,0,0,1,.7.7v3.46h1.315V1612.01h-1.315Z" transform="translate(762.363 1315.046)" fill="#eaf6ff"/>
      <path id="Trazado_601649" data-name="Trazado 601649" d="M170.777,1608.75H195.6v2.6H170.777Z" transform="translate(755.964 1317.003)" fill="#304c8e"/>
      <path id="Trazado_601650" data-name="Trazado 601650" d="M156.858,1622.68h2.606v21.134h-2.606Z" transform="translate(764.322 1308.639)" fill="#304c8e"/>
      <path id="Trazado_601651" data-name="Trazado 601651" d="M170.777,1682.72H195.6v2.6H170.777Z" transform="translate(755.964 1272.585)" fill="#304c8e"/>
      <path id="Trazado_601652" data-name="Trazado 601652" d="M239.951,1622.68h2.606v21.134h-2.606Z" transform="translate(714.426 1308.639)" fill="#304c8e"/>
      <path id="Trazado_601653" data-name="Trazado 601653" d="M176.826,1628.15h19.848v16.66H176.826Z" transform="translate(752.331 1305.354)" fill="#c7edb4"/>
      <path id="Trazado_601654" data-name="Trazado 601654" d="M176.826,1628.15h5.609v16.66h-5.609Z" transform="translate(752.331 1305.354)" fill="#4ca220"/>
      <path id="Trazado_601655" data-name="Trazado 601655" d="M155.5,1678.41h4.974v4.97H155.5Z" transform="translate(765.136 1275.174)" fill="#1c2d55"/>
      <path id="Trazado_601656" data-name="Trazado 601656" d="M239.178,1682.729h-5.842a.871.871,0,0,1-.869-.871v-5.841a.867.867,0,0,1,.869-.867h5.842a.868.868,0,0,1,.869.867v5.841A.871.871,0,0,1,239.178,1682.729Z" transform="translate(718.919 1277.131)" fill="#1c2d55"/>
      <path id="Trazado_601657" data-name="Trazado 601657" d="M158.952,1682.729H153.11a.871.871,0,0,1-.869-.871v-5.841a.867.867,0,0,1,.869-.867h5.842a.868.868,0,0,1,.869.867v5.841A.871.871,0,0,1,158.952,1682.729Z" transform="translate(767.094 1277.131)" fill="#1c2d55"/>
      <path id="Trazado_601658" data-name="Trazado 601658" d="M236.049,1681.858v-5.841a.868.868,0,0,1,.869-.867h-3.582a.867.867,0,0,0-.869.867v5.841a.871.871,0,0,0,.869.871h3.582A.871.871,0,0,1,236.049,1681.858Z" transform="translate(718.919 1277.131)" fill="#263c71"/>
      <path id="Trazado_601659" data-name="Trazado 601659" d="M155.823,1681.858v-5.841a.868.868,0,0,1,.869-.867H153.11a.867.867,0,0,0-.869.867v5.841a.871.871,0,0,0,.869.871h3.582A.871.871,0,0,1,155.823,1681.858Z" transform="translate(767.094 1277.131)" fill="#263c71"/>
      <path id="Trazado_601660" data-name="Trazado 601660" d="M239.178,1611.719h-5.842a.867.867,0,0,1-.869-.867v-5.845a.867.867,0,0,1,.869-.867h5.842a.868.868,0,0,1,.869.867v5.845A.867.867,0,0,1,239.178,1611.719Z" transform="translate(718.919 1319.771)" fill="#1c2d55"/>
      <path id="Trazado_601661" data-name="Trazado 601661" d="M236.049,1610.852v-5.845a.868.868,0,0,1,.869-.867h-3.582a.867.867,0,0,0-.869.867v5.845a.867.867,0,0,0,.869.867h3.582A.867.867,0,0,1,236.049,1610.852Z" transform="translate(718.919 1319.771)" fill="#263c71"/>
      <path id="Trazado_601662" data-name="Trazado 601662" d="M158.952,1611.719H153.11a.867.867,0,0,1-.869-.867v-5.845a.867.867,0,0,1,.869-.867h5.842a.868.868,0,0,1,.869.867v5.845A.867.867,0,0,1,158.952,1611.719Z" transform="translate(767.094 1319.771)" fill="#1c2d55"/>
      <path id="Trazado_601663" data-name="Trazado 601663" d="M155.823,1610.852v-5.845a.868.868,0,0,1,.869-.867H153.11a.867.867,0,0,0-.869.867v5.845a.867.867,0,0,0,.869.867h3.582A.867.867,0,0,1,155.823,1610.852Z" transform="translate(767.094 1319.771)" fill="#263c71"/>
      <path id="Trazado_601664" data-name="Trazado 601664" d="M284.168,1617.1H265.046a.868.868,0,0,1-.869-.871v-4.806a.867.867,0,0,1,.869-.867h19.123a.867.867,0,0,1,.869.867v4.806A.868.868,0,0,1,284.168,1617.1Z" transform="translate(699.878 1315.916)" fill="#641493"/>
      <path id="Trazado_601665" data-name="Trazado 601665" d="M272.369,1616.081v-4.5a1.021,1.021,0,0,1,1.022-1.023h-8.346a.867.867,0,0,0-.869.867v4.806a.868.868,0,0,0,.869.871h8.346A1.024,1.024,0,0,1,272.369,1616.081Z" transform="translate(699.878 1315.916)" fill="#7e19b8"/>
      <path id="Trazado_601666" data-name="Trazado 601666" d="M194.716,1624.89H174.868a1.3,1.3,0,0,0-1.3,1.3v16.66a1.3,1.3,0,0,0,1.3,1.3h19.848a1.3,1.3,0,0,0,1.3-1.3v-16.66A1.3,1.3,0,0,0,194.716,1624.89Zm-3.579,2.6-14.966,12.561v-12.561Zm-12.69,14.051,14.966-12.561v12.561Z" transform="translate(754.29 1307.312)" fill="#304c8e"/>
    </g>
  </g>
</svg>
