<svg xmlns="http://www.w3.org/2000/svg" width="135.596" height="135.626" viewBox="0 0 135.596 135.626">
  <g id="Grupo_1014752" data-name="Grupo 1014752" transform="translate(-884.354 -3104.365)">
    <path id="Trazado_601568" data-name="Trazado 601568" d="M132.493,2486.84a67.813,67.813,0,1,1-67.813,67.813A67.794,67.794,0,0,1,132.493,2486.84Z" transform="translate(819.673 617.525)" fill="#60cb28"/>
    <g id="Grupo_1014751" data-name="Grupo 1014751">
      <path id="Trazado_601675" data-name="Trazado 601675" d="M296.533,2700.517v16.3a2.725,2.725,0,0,1-2.717,2.717h-16.3a2.725,2.725,0,0,1-2.717-2.717v-16.3a2.725,2.725,0,0,1,2.717-2.717h5.433v5.433h5.433V2697.8h5.433A2.725,2.725,0,0,1,296.533,2700.517Z" transform="translate(693.499 490.847)" fill="#1c466d"/>
      <path id="Trazado_601676" data-name="Trazado 601676" d="M303.333,2662.417a2.725,2.725,0,0,1-2.717,2.717h-16.3a2.725,2.725,0,0,1-2.717-2.717v-16.3a2.725,2.725,0,0,1,2.717-2.717h5.433v5.433h5.433V2643.4h5.433a2.725,2.725,0,0,1,2.717,2.717Z" transform="translate(689.416 523.514)" fill="#1c466d"/>
      <path id="Trazado_601677" data-name="Trazado 601677" d="M248.932,2646.117v16.3a2.725,2.725,0,0,1-2.717,2.717h-5.433v-8.15a2.725,2.725,0,0,0-2.717-2.717H227.2v-8.15a2.725,2.725,0,0,1,2.717-2.717h5.433v5.433h5.433V2643.4h5.433A2.725,2.725,0,0,1,248.932,2646.117Z" transform="translate(722.083 523.514)" fill="#1c466d"/>
      <path id="Trazado_601678" data-name="Trazado 601678" d="M272.034,2557.717V2587.6a2.725,2.725,0,0,1-2.717,2.717h-32.6A2.725,2.725,0,0,1,234,2587.6v-29.884a2.725,2.725,0,0,1,2.717-2.717h10.867v8.15H258.45V2555h10.867A2.725,2.725,0,0,1,272.034,2557.717Z" transform="translate(717.999 576.597)" fill="#1c466d"/>
      <path id="Trazado_601679" data-name="Trazado 601679" d="M268,2555h10.867v8.15H268Z" transform="translate(697.583 576.597)" fill="#1c2d55"/>
      <path id="Trazado_601680" data-name="Trazado 601680" d="M247.6,2643.4h5.433v5.433H247.6Z" transform="translate(709.832 523.514)" fill="#1c2d55"/>
      <path id="Trazado_601681" data-name="Trazado 601681" d="M302,2643.4h5.433v5.433H302Z" transform="translate(677.166 523.514)" fill="#1c2d55"/>
      <path id="Trazado_601682" data-name="Trazado 601682" d="M295.2,2697.8h5.433v5.433H295.2Z" transform="translate(681.249 490.847)" fill="#1c2d55"/>
      <path id="Trazado_601683" data-name="Trazado 601683" d="M155.771,2582.2a6.113,6.113,0,0,1,0,12.225h-8.829a4.08,4.08,0,0,0-4.075,4.075v2.717a2.739,2.739,0,0,0-2.717,2.717v.231a2.734,2.734,0,0,0,.8,1.93l1.915,1.914v6.792l-1.589-.787a16.794,16.794,0,0,1,7.512-31.813Z" transform="translate(779.249 560.264)" fill="#656d78"/>
      <path id="Trazado_601684" data-name="Trazado 601684" d="M156.45,2721.427v7.375H132V2708.71a14.182,14.182,0,0,0,4.931,10.747l.611.5a13.493,13.493,0,0,0,1.915,1.386,14.1,14.1,0,0,0,7.281,2.026h1.82a14.2,14.2,0,0,0,4.768-.831Z" transform="translate(779.249 484.295)" fill="#265e91"/>
      <path id="Trazado_601685" data-name="Trazado 601685" d="M145.583,2694.375l-6.126,6.125a13.759,13.759,0,0,1-1.915-1.382l-.611-.5a14.147,14.147,0,0,1,4.238-23.975l1.7-.639a28.256,28.256,0,0,1,8.15,7.415,28.573,28.573,0,0,1,4.673,10.068v.012Z" transform="translate(779.249 505.139)" fill="#265e91"/>
      <path id="Trazado_601686" data-name="Trazado 601686" d="M216.78,2686.3a3.862,3.862,0,0,0-2.431,2.433l-.747,2.253v-10.867h16.3a2.74,2.74,0,0,0,2.717-2.717v29.884A2.725,2.725,0,0,1,229.9,2710H213.6v-10.3l10.758-3.859a3.859,3.859,0,0,0-1.032-7.579h-1.576l-1.032-1.031A3.84,3.84,0,0,0,216.78,2686.3Z" transform="translate(730.249 503.097)" fill="#fee132"/>
      <path id="Trazado_601687" data-name="Trazado 601687" d="M233.983,2670.6a2.725,2.725,0,0,1,2.717,2.717,2.732,2.732,0,0,1-2.717,2.717H220.4V2670.6h13.583Z" transform="translate(726.166 507.18)" fill="#e6e9ed"/>
      <path id="Trazado_601688" data-name="Trazado 601688" d="M196.8,2694.4v6.792l-8.911,2.541a27.972,27.972,0,0,0-2.268-6.14Z" transform="translate(747.052 492.889)" fill="#f0d0b4"/>
      <path id="Trazado_601689" data-name="Trazado 601689" d="M188.265,2702.469a3.866,3.866,0,0,1-1.7,6.452l-10.758,3.859-8.15,2.92-3.124,1.115a14.2,14.2,0,0,1-4.768.827h-1.82a14.1,14.1,0,0,1-7.281-2.025l6.126-6.125,10.106-2.88v-.012l8.911-2.541.747-2.253a3.84,3.84,0,0,1,6.371-1.494l1.032,1.031h1.576A3.878,3.878,0,0,1,188.265,2702.469Z" transform="translate(768.04 490.021)" fill="#f0d0b4"/>
      <path id="Trazado_601690" data-name="Trazado 601690" d="M163.267,2633.175v11.49a28.263,28.263,0,0,0-8.15-7.415v-10.867l-1.915-1.914a2.734,2.734,0,0,1-.8-1.93v-.231a2.739,2.739,0,0,1,2.717-2.717v-2.717a4.08,4.08,0,0,1,4.075-4.075h7.091a4.086,4.086,0,0,1,3.64,2.229c1.2,2.333,2.853,6.044,2.853,8.637l-4.075,1.358v3.52a4.638,4.638,0,0,1-4.632,4.63Z" transform="translate(766.999 541.889)" fill="#f0d0b4"/>
      <path id="Trazado_601691" data-name="Trazado 601691" d="M298.6,2626.4h2.717v2.717H298.6Z" transform="translate(679.207 533.722)"/>
      <path id="Trazado_601692" data-name="Trazado 601692" d="M285,2626.4h2.717v2.717H285Z" transform="translate(687.374 533.722)"/>
      <path id="Trazado_601693" data-name="Trazado 601693" d="M312.2,2626.4h2.717v2.717H312.2Z" transform="translate(671.04 533.722)"/>
      <path id="Trazado_601694" data-name="Trazado 601694" d="M285,2612.8h13.584v2.717H285Z" transform="translate(687.374 541.889)"/>
    </g>
  </g>
</svg>
