<svg xmlns="http://www.w3.org/2000/svg" width="295" height="174" viewBox="0 0 295 174">
  <g id="Grupo_874930" data-name="Grupo 874930" transform="translate(-1020 -597)">
    <rect id="Rectángulo_291559" data-name="Rectángulo 291559" width="295" height="174" transform="translate(1020 597)" fill="#fff"/>
    <g id="Grupo_874929" data-name="Grupo 874929" transform="translate(178.721 -698.771)">
      <g id="Icontec" transform="translate(942.789 1308.771)">
        <path id="Trazado_598333" data-name="Trazado 598333" d="M57.681,69.076a10.406,10.406,0,1,0,10.57,10.4A10.5,10.5,0,0,0,57.681,69.076Zm0,27.085A16.681,16.681,0,1,1,74.361,79.481,16.634,16.634,0,0,1,57.681,96.161Z" transform="translate(-11.272 -33.403)" fill="#0185ca" fill-rule="evenodd"/>
        <g id="Grupo_874926" data-name="Grupo 874926" transform="translate(0 20.479)">
          <path id="Trazado_598334" data-name="Trazado 598334" d="M38.524,109.423A40.971,40.971,0,0,1,29.111,83a41.948,41.948,0,0,1,6.111-21.8l-4.789-3.8a47.957,47.957,0,0,0,3.8,56.483Z" transform="translate(-23 -57.4)" fill="#0185ca" fill-rule="evenodd"/>
        </g>
        <path id="Trazado_598335" data-name="Trazado 598335" d="M29.7,56.324l4.624,4.624a61.079,61.079,0,0,1,4.624-4.624L34.324,51.7C32.838,53.186,31.186,54.673,29.7,56.324Z" transform="translate(-18.635 -40.635)" fill="#0185ca" fill-rule="evenodd"/>
        <path id="Trazado_598336" data-name="Trazado 598336" d="M61.164,45A48.494,48.494,0,0,0,35.4,52.432l3.8,4.789a41.723,41.723,0,0,1,22.131-6.276A41.05,41.05,0,0,1,89.405,61.681l5.45-3.138A47.579,47.579,0,0,0,61.164,45Z" transform="translate(-14.921 -45)" fill="#0185ca" fill-rule="evenodd"/>
        <path id="Trazado_598337" data-name="Trazado 598337" d="M82.667,102.455a25.78,25.78,0,0,1-18.828,8.093A25.269,25.269,0,1,1,78.208,64.47L83.823,61a32.532,32.532,0,0,0-20.149-7.1C46.168,53.9,31.8,67.938,31.8,85.279a31.58,31.58,0,0,0,31.875,31.379,32.038,32.038,0,0,0,23.782-10.57Z" transform="translate(-17.266 -39.201)" fill="#0185ca" fill-rule="evenodd"/>
        <g id="Grupo_874927" data-name="Grupo 874927" transform="translate(16.846 77.953)">
          <path id="Trazado_598338" data-name="Trazado 598338" d="M85.884,94.842A41.2,41.2,0,0,1,37.494,92.2L33.2,96.329a47.477,47.477,0,0,0,56.483,3.3Z" transform="translate(-33.2 -92.2)" fill="#0185ca" fill-rule="evenodd"/>
        </g>
        <path id="Trazado_598339" data-name="Trazado 598339" d="M82.449,58.677,80.8,56.2,62.3,67.43l1.817,2.642c.165.165.165.33.33.5a25.2,25.2,0,0,1,4.129,13.708,24.824,24.824,0,0,1-3.3,12.387l5.12,3.633a30.994,30.994,0,0,0,.661-30.884l7.762-4.624a40.541,40.541,0,0,1,5.12,19.653,39.591,39.591,0,0,1-13.377,29.728l3.964,4.789a46.592,46.592,0,0,0,15.69-34.682A45.743,45.743,0,0,0,82.449,58.677Z" transform="translate(2.605 -37.703)" fill="#0185ca" fill-rule="evenodd"/>
      </g>
      <path id="Trazado_598340" data-name="Trazado 598340" d="M134.19,88.938a9.249,9.249,0,1,1,9.249-9.249A9.13,9.13,0,0,1,134.19,88.938Zm0-24.938a15.69,15.69,0,1,0,15.855,15.69A15.682,15.682,0,0,0,134.19,64Z" transform="translate(813.389 1360.754)" fill="#0185ca" fill-rule="evenodd"/>
      <path id="Trazado_598341" data-name="Trazado 598341" d="M96.333,67.527a3.979,3.979,0,1,1,3.633-3.964A3.646,3.646,0,0,1,96.333,67.527ZM93.361,98.246h6.111V71H93.361Z" transform="translate(796.579 1357.887)" fill="#0185ca" fill-rule="evenodd"/>
      <path id="Trazado_598342" data-name="Trazado 598342" d="M116.62,95.379a15.693,15.693,0,1,1,0-31.379,16.405,16.405,0,0,1,11.4,4.624l.33.33-4.294,5.12-.5-.5a9.361,9.361,0,0,0-16.35,5.946,9.238,9.238,0,0,0,9.414,9.083,9.763,9.763,0,0,0,7.1-3.138l.5-.5,4.294,5.12-.33.33A16.025,16.025,0,0,1,116.62,95.379Z" transform="translate(801.726 1360.754)" fill="#0185ca" fill-rule="evenodd"/>
      <g id="Grupo_874928" data-name="Grupo 874928" transform="translate(1061.865 1424.754)">
        <path id="Trazado_598343" data-name="Trazado 598343" d="M212.89,95.379a15.69,15.69,0,1,1,11.065-26.755l.33.33-4.129,5.12-.33-.5a8.8,8.8,0,0,0-6.771-3.138,9.083,9.083,0,0,0,0,18.167,9.4,9.4,0,0,0,6.936-3.138l.33-.5,4.129,5.12-.33.33A14.792,14.792,0,0,1,212.89,95.379Z" transform="translate(-197.2 -64)" fill="#0185ca" fill-rule="evenodd"/>
      </g>
      <path id="Trazado_598343-2" data-name="Trazado 598343" d="M156.69,64A15.757,15.757,0,0,0,141,80.02V95.379h7.1V79.524a8.754,8.754,0,1,1,17.506-.165v16.02h7.1V80.02A16.142,16.142,0,0,0,156.69,64Z" transform="translate(828.048 1360.754)" fill="#0185ca" fill-rule="evenodd"/>
      <path id="Trazado_598344" data-name="Trazado 598344" d="M182.9,76.552a7.563,7.563,0,0,1,7.762-6.606c4.129,0,7.267,2.642,7.6,6.606ZM190.664,64a14.452,14.452,0,0,0-10.57,4.459,16.268,16.268,0,0,0-4.294,11.4c0,9.249,6.606,15.524,15.855,15.524,8.423,0,12.221-5.45,12.882-6.606l.165-.33-.33-.165L200.243,85.3l-.33-.33-.33.33a9.456,9.456,0,0,1-7.762,3.8c-4.955,0-8.753-2.973-9.083-7.6h22.626V79.69c0-4.624-1.321-8.588-3.964-11.4C198.922,65.486,195.288,64,190.664,64Z" transform="translate(850.722 1360.754)" fill="#0185ca" fill-rule="evenodd"/>
      <path id="Trazado_598345" data-name="Trazado 598345" d="M179.915,91.714h-1.486c-2.808,0-4.129-.661-4.129-4.624V71.73h5.946v-5.12H174.3V60.5h-6.936v6.111H163.4v5.12h3.964V86.1a16.38,16.38,0,0,0,1.486,7.6c1.486,2.642,3.964,3.964,7.6,3.964a18.967,18.967,0,0,0,2.808-.165h.5v-5.78Z" transform="translate(842.643 1358.473)" fill="#0185ca" fill-rule="evenodd"/>
    </g>
  </g>
</svg>
