<svg xmlns="http://www.w3.org/2000/svg" width="391.791" height="292.871" viewBox="0 0 391.791 292.871">
  <g id="Grupo_1014608" data-name="Grupo 1014608" transform="translate(-1024.209 -802.027)">
    <g id="Image_Place_Holder" data-name="Image Place Holder" transform="translate(1024.209 821.482)" opacity="0.1">
      <rect id="Image_Place_Holder-2" data-name="Image Place Holder" width="391.791" height="273.415" rx="10" fill="#304c8e"/>
    </g>
    <g id="Mixtas" transform="translate(1098.779 802.027)">
      <path id="Trazado_599762" data-name="Trazado 599762" d="M219.712,175.056l74.71-102.188,56.567,41.356-74.71,102.188Z" transform="translate(-118.873 -39.426)" fill="#4ca220"/>
      <path id="Trazado_599763" data-name="Trazado 599763" d="M336.269,225.443a21.355,21.355,0,1,1,18.711-8.693A21.306,21.306,0,0,1,336.269,225.443Z" transform="translate(-171.181 -98.89)" fill="#4ca220"/>
      <path id="Trazado_599764" data-name="Trazado 599764" d="M384.619,82.865a16.917,16.917,0,0,1-23.647,3.658l9.989-13.655Z" transform="translate(-195.304 -39.427)" fill="#4ca220"/>
      <path id="Trazado_599765" data-name="Trazado 599765" d="M239.725,116.768l49-116.75,64.627,27.127-49,116.75Z" transform="translate(-129.701 -0.01)" fill="#60cb28"/>
      <path id="Trazado_599766" data-name="Trazado 599766" d="M399.578,47.107,350.657,163.623l13.73,5.768L413.408,52.638Z" transform="translate(-189.723 -25.488)" fill="#60cb28"/>
      <path id="Trazado_599767" data-name="Trazado 599767" d="M341.9,152.666a21.355,21.355,0,1,1,16.184-12.8A21.3,21.3,0,0,1,341.9,152.666Z" transform="translate(-171.529 -59.643)" fill="#4ca220"/>
      <path id="Trazado_599768" data-name="Trazado 599768" d="M460.882,67.029a16.927,16.927,0,0,1-9.055-22.155l15.6,6.556Z" transform="translate(-243.747 -24.28)" fill="#4ca220"/>
      <path id="Trazado_599769" data-name="Trazado 599769" d="M354.461,6.556A16.917,16.917,0,0,1,332.307,15.6L338.857,0Z" transform="translate(-179.795)" fill="#4ca220"/>
      <path id="Trazado_599770" data-name="Trazado 599770" d="M6.7,114.326,63.264,72.97l74.71,102.188L81.407,216.513Z" transform="translate(-3.618 -39.482)" fill="#4ca220"/>
      <path id="Trazado_599771" data-name="Trazado 599771" d="M126.13,225.443a21.355,21.355,0,1,0-18.711-8.693A21.306,21.306,0,0,0,126.13,225.443Z" transform="translate(-55.891 -98.89)" fill="#4ca220"/>
      <path id="Trazado_599772" data-name="Trazado 599772" d="M100.241,82.865a16.918,16.918,0,0,0,23.648,3.658L113.9,72.868Z" transform="translate(-54.231 -39.427)" fill="#4ca220"/>
      <path id="Trazado_599773" data-name="Trazado 599773" d="M25.34,27.172,89.967.046l49,116.75L74.344,143.922Z" transform="translate(-13.704 -0.025)" fill="#60cb28"/>
      <path id="Trazado_599774" data-name="Trazado 599774" d="M120.467,152.666a21.355,21.355,0,1,0-16.184-12.8A21.3,21.3,0,0,0,120.467,152.666Z" transform="translate(-55.517 -59.643)" fill="#4ca220"/>
      <path id="Trazado_599775" data-name="Trazado 599775" d="M31.9,67.029a16.927,16.927,0,0,0,9.055-22.155l-15.6,6.556Z" transform="translate(-13.711 -24.28)" fill="#4ca220"/>
      <path id="Trazado_599776" data-name="Trazado 599776" d="M132.161,6.556A16.917,16.917,0,0,0,154.315,15.6L147.766,0Z" transform="translate(-71.502)" fill="#4ca220"/>
      <path id="Trazado_599777" data-name="Trazado 599777" d="M199.549,130.4a48.2,48.2,0,1,0-48.2-48.2A48.2,48.2,0,0,0,199.549,130.4Z" transform="translate(-81.887 -18.4)" fill="#fdf486"/>
      <path id="Trazado_599778" data-name="Trazado 599778" d="M248.218,34.008a48.588,48.588,0,0,0-6.915.5,48.2,48.2,0,0,1,0,95.4,48.2,48.2,0,1,0,6.915-95.895Z" transform="translate(-130.555 -18.401)" fill="#fdf056"/>
      <path id="Trazado_599779" data-name="Trazado 599779" d="M195.472,129.78a51.653,51.653,0,1,1,51.653-51.653A51.711,51.711,0,0,1,195.472,129.78Zm0-96.39a44.737,44.737,0,1,0,44.739,44.738A44.788,44.788,0,0,0,195.472,33.39Z" transform="translate(-77.81 -14.325)" fill="#ffd600"/>
      <path id="Trazado_599780" data-name="Trazado 599780" d="M253.531,110.572a12.224,12.224,0,0,0-7.787-7.888c-3.191-1.127-11.3-2.877-9.8-7.883,1.229-4.147,6.864-3.878,9.757-1.834a3.456,3.456,0,0,0,4.648-5.116,14.174,14.174,0,0,0-6.22-3V81.723a3.458,3.458,0,0,0-6.915,0V85.1a11.5,11.5,0,0,0-8.393,11.1c0,7.9,8.374,10.8,14.621,13.005,5.386,1.906,4.255,9.253-.686,10.9-3.185,1.056-6.936.124-9.635-1.641a3.457,3.457,0,0,0-3.785,5.787,17.277,17.277,0,0,0,7.878,2.989v3.34a3.458,3.458,0,0,0,6.915,0V126.9a13.318,13.318,0,0,0,9.4-16.329Z" transform="translate(-123.232 -42.347)" fill="#ffd600"/>
      <path id="Trazado_599781" data-name="Trazado 599781" d="M339.288,371.865h46.728A19.336,19.336,0,0,0,405.3,352.5l.05-44.059a42.678,42.678,0,1,0-85.356,0v44.037A19.337,19.337,0,0,0,339.288,371.865Z" transform="translate(-173.135 -143.715)" fill="#2b3894"/>
      <path id="Trazado_599782" data-name="Trazado 599782" d="M404.842,265.614a42.871,42.871,0,0,0-6.915.562,42.794,42.794,0,0,1,35.763,42.268L433.64,352.5a19.336,19.336,0,0,1-19.288,19.361h13.83A19.336,19.336,0,0,0,447.47,352.5l.051-44.059A42.754,42.754,0,0,0,404.842,265.614Z" transform="translate(-215.299 -143.715)" fill="#1b2887"/>
      <path id="Trazado_599783" data-name="Trazado 599783" d="M331.691,467.874a37.3,37.3,0,1,1,74.59,0Z" transform="translate(-179.461 -232.901)" fill="#fee132"/>
      <path id="Trazado_599784" data-name="Trazado 599784" d="M404.8,430.446a37.318,37.318,0,0,0-6.915.653,37.4,37.4,0,0,1,30.38,36.775H442.1A37.362,37.362,0,0,0,404.8,430.446Z" transform="translate(-215.278 -232.901)" fill="#edd01e"/>
      <path id="Trazado_599785" data-name="Trazado 599785" d="M386.919,327.9c-6.3,26.6-32.591,25.063-44.929,22.764a32.611,32.611,0,0,0,65.182-1.639C390.483,344.678,386.919,327.9,386.919,327.9Z" transform="translate(-185.034 -177.416)" fill="#e09380"/>
      <path id="Trazado_599786" data-name="Trazado 599786" d="M399.692,414.451h0a14.366,14.366,0,0,1-10.242-4.259,3.457,3.457,0,0,1,4.9-4.881,7.531,7.531,0,0,0,10.689,0,3.457,3.457,0,1,1,4.9,4.88A14.364,14.364,0,0,1,399.692,414.451Z" transform="translate(-210.167 -218.75)" fill="#b2705b"/>
      <path id="Trazado_599787" data-name="Trazado 599787" d="M80.834,297.382a40.412,40.412,0,1,1-40.411-40.61A40.567,40.567,0,0,1,80.834,297.382Z" transform="translate(0 -138.931)" fill="#2b3894"/>
      <path id="Trazado_599788" data-name="Trazado 599788" d="M79.906,256.772a40.453,40.453,0,0,0-6.915.595,40.642,40.642,0,0,1-.006,80.03,40.594,40.594,0,1,0,6.921-80.625Z" transform="translate(-39.484 -138.931)" fill="#1b2887"/>
      <path id="Trazado_599789" data-name="Trazado 599789" d="M6.752,467.874a37.3,37.3,0,1,1,74.59,0Z" transform="translate(-3.647 -232.901)" fill="#304c8e"/>
      <path id="Trazado_599790" data-name="Trazado 599790" d="M79.865,430.446a37.315,37.315,0,0,0-6.915.653,37.4,37.4,0,0,1,30.38,36.775h13.83A37.362,37.362,0,0,0,79.865,430.446Z" transform="translate(-39.465 -232.901)" fill="#304c8e"/>
      <path id="Trazado_599791" data-name="Trazado 599791" d="M17.052,357.626a32.611,32.611,0,0,0,65.182,1.639v-1.639A13.83,13.83,0,0,0,68.4,343.8H30.882A13.83,13.83,0,0,0,17.052,357.626Z" transform="translate(-9.22 -186.017)" fill="#ffbeaa"/>
      <path id="Trazado_599792" data-name="Trazado 599792" d="M74.753,414.451a14.366,14.366,0,0,1-10.243-4.259,3.457,3.457,0,0,1,4.9-4.881,7.53,7.53,0,0,0,10.689,0,3.457,3.457,0,1,1,4.9,4.881A14.367,14.367,0,0,1,74.753,414.451Z" transform="translate(-34.353 -218.75)" fill="#e09380"/>
      <path id="Trazado_599793" data-name="Trazado 599793" d="M241.175,289.655a20.711,20.711,0,0,0-4.381-12.772,9.4,9.4,0,0,1-1.941-5.785v-3.553a40.9,40.9,0,1,0-81.806,0l-.028,2.843a9.157,9.157,0,0,1-2.2,5.806,20.92,20.92,0,0,0,4.4,30.766,4.856,4.856,0,0,1,1.985,5.046c-.861,4.211.342,9.176,4.767,13.823a5.089,5.089,0,0,0,3.69,1.562h55.808a5.1,5.1,0,0,0,3.7-1.565c4.423-4.646,5.626-9.61,4.765-13.82a4.857,4.857,0,0,1,1.985-5.046A20.758,20.758,0,0,0,241.175,289.655Z" transform="translate(-78.97 -122.55)" fill="#7c3f2c"/>
      <path id="Trazado_599794" data-name="Trazado 599794" d="M285.216,276.884a9.4,9.4,0,0,1-1.941-5.784v-3.553a40.915,40.915,0,0,0-47.818-40.462,41.016,41.016,0,0,1,33.988,40.462V271.1a9.4,9.4,0,0,0,1.941,5.784,20.8,20.8,0,0,1-4.876,30.076,4.856,4.856,0,0,0-1.985,5.045c.861,4.21-.342,9.174-4.765,13.82a5.1,5.1,0,0,1-3.7,1.565h13.83a5.1,5.1,0,0,0,3.7-1.565c4.423-4.646,5.626-9.61,4.765-13.82a4.856,4.856,0,0,1,1.985-5.045,20.8,20.8,0,0,0,4.876-30.076Z" transform="translate(-127.393 -122.551)" fill="#954c35"/>
      <path id="Trazado_599795" data-name="Trazado 599795" d="M169.222,446.9V429.116a37.3,37.3,0,1,1,74.59,0V446.9Z" transform="translate(-91.555 -211.93)" fill="#7e19b8"/>
      <path id="Trazado_599796" data-name="Trazado 599796" d="M242.333,391.688a37.321,37.321,0,0,0-6.915.653,37.4,37.4,0,0,1,30.38,36.775V446.9h13.83V429.116A37.362,37.362,0,0,0,242.333,391.688Z" transform="translate(-127.371 -211.93)" fill="#6a0f9f"/>
      <path id="Trazado_599797" data-name="Trazado 599797" d="M199.773,289.141c6.3,26.6,32.591,25.063,44.928,22.764a32.611,32.611,0,0,1-65.182-1.639C196.21,305.92,199.773,289.141,199.773,289.141Z" transform="translate(-97.126 -156.445)" fill="#ffbeaa"/>
      <path id="Trazado_599798" data-name="Trazado 599798" d="M237.222,375.693a14.365,14.365,0,0,1-10.243-4.259,3.457,3.457,0,1,1,4.9-4.881,7.53,7.53,0,0,0,10.689,0,3.457,3.457,0,1,1,4.9,4.881A14.368,14.368,0,0,1,237.222,375.693Z" transform="translate(-122.26 -197.78)" fill="#e09380"/>
    </g>
  </g>
</svg>
