<svg xmlns="http://www.w3.org/2000/svg" width="188.486" height="188.166" viewBox="0 0 188.486 188.166">
  <g id="Group_46_" data-name="Group (46)" transform="translate(0 -29.4)">
    <path id="Trazado_599608" data-name="Trazado 599608" d="M179.913,155.877c-18.218,42.369-66.75,66.1-108.837,59.7-6.849-1.042-25.623-4.146-42.246-18.786C-3.169,168.608-10.012,112.8,15.8,73.47c18.788-28.625,52.466-44.852,84.468-44.04,6.893.175,33.31,1.253,56.526,20.159A86.392,86.392,0,0,1,174.5,69.434c15.916,24.582,17.284,58.831,5.411,86.443Z" transform="translate(0 0)" fill="#fff"/>
    <g id="Grupo_1013377" data-name="Grupo 1013377" transform="translate(13.299 29.509)" opacity="0.84">
      <path id="Trazado_599609" data-name="Trazado 599609" d="M116.423,121.761s.473-19.894-8.69-25.218S81.149,87.889,80.5,59.324C80.113,42.6,79.7,35.289,79.422,32.1a1.883,1.883,0,0,1,2.224-2.017c8.678,1.635,36.869,8.364,42.779,27.605C131.433,80.5,116.423,121.761,116.423,121.761Z" transform="translate(-79.415 -30.051)" fill="#304c8e"/>
      <path id="Trazado_599610" data-name="Trazado 599610" d="M129.758,77.249c9.526,8.5,20.541,23.532,26.412,38.567a70.7,70.7,0,0,1,3.915,17.11,78.818,78.818,0,0,1-.607,21.522.637.637,0,0,1-.744.507.645.645,0,0,1-.509-.731A87.256,87.256,0,0,0,156.2,122.8c-3.466-12.868-11.2-25.345-19.194-35.928l-.823-1.042c-6.2-7.956-7.5-8.015-6.92-8.57a.362.362,0,0,1,.49-.009Z" transform="translate(-120.815 -69.268)" fill="#bdd0fb"/>
    </g>
    <path id="Trazado_599611" data-name="Trazado 599611" d="M62.718,371.633c1.327.65-12.564-16.817-16.915-44.25-2.05-12.928-2.077-29.124-9.441-35.366-6.129-5.195-26.984-1.915-33.809-.669a1.023,1.023,0,0,0-.476,1.79c3.273,2.748,10.273,9.231,12.1,15.764,2.4,8.611,10.591,14.088,17.921,15.571s11.407,2.921,14.977,14.642S58.947,369.784,62.718,371.633Z" transform="translate(-1.424 -216.272)" fill="#bdd0fb"/>
    <path id="Trazado_599612" data-name="Trazado 599612" d="M63.079,323.861c8.706.365,18.052,4.336,22.794,11.786l.448.711A167.112,167.112,0,0,1,96.468,359.7a.233.233,0,0,1-.149.3.238.238,0,0,1-.292-.14C93.76,354.3,90.5,347.267,87.91,342.006c-2.781-5.741-4.728-9.629-11.071-13.353a35.323,35.323,0,0,0-13.787-4.419.187.187,0,0,1,.027-.374Z" transform="translate(-52.353 -245.147)" fill="#b6c0d7"/>
    <path id="Trazado_599613" data-name="Trazado 599613" d="M250.135,222.072c1.909-43.54-34.644-80.507-81.641-82.567S81.85,171.071,79.941,214.611s34.643,80.507,81.641,82.567S248.226,265.612,250.135,222.072Z" transform="translate(-66.494 -91.59)" fill="#d1deff"/>
    <path id="Trazado_599614" data-name="Trazado 599614" d="M166.418,251.267c-1.87,3-3.311,6.381-3.04,9.906.313,4.083,2.38,7.906,2.486,12,.18,6.942-5.179,12.752-6.851,19.493-1.868,7.533,5.177,16.117,7.983,20.322s1.6-3.412,3.3-6.381,5.372,12.5,11.1,15.892c3.076,1.821,6.684,3.034,8.9,5.841,3.226,4.1,2.332,9.922,1.848,15.113s.241,11.517,4.916,13.825c2.753,1.359,6.252.9,8.736,2.7,4.362,3.167,2.278,10.072,4.007,15.178,1.88,5.553,5.607,5.627,11.374,6.8s-.726-11.492,1.975-15.92c1.42-2.327,3.588-4.179,4.707-6.665,1.553-3.448,1.115-8.054,4.129-10.338,2.259-1.712,5.4-1.249,8.236-1.274s6.281-1.255,6.6-4.071c.286-2.5-2.216-4.491-4.663-5.07s-5.055-.3-7.458-1.043c-6.875-2.117-10.081-11.737-17.26-12.187-6.136-.385-11.277,6.5-17.306,5.3-3.361-.671-5.663-3.648-8.158-6-3.206-3.019-7.183-5.285-9.728-8.879s-2.978-9.337.642-11.844c2.689-1.862,6.511-1.106,9.167.8s4.466,4.739,6.418,7.364a4.874,4.874,0,0,0,2.249,1.953c2.595.812,4.488-2.838,3.867-5.484s-2.491-4.974-2.578-7.692c-.155-4.789,5-7.827,9.526-9.4s9.856-3.459,11.186-8.062c.47-1.626.347-3.415,1.064-4.948,2.376-5.08,14.915-7.617,11.918-10.563s-12.51-3.587-14.362-9.519c-.663-2.124-1.346-4.931-3.562-5.137-3.609-.335-5.668,4.132-8.7,4.9-1.437.364-1.575,2.805-1.519,5.806a3.946,3.946,0,0,1-7.891.149,6.1,6.1,0,0,1,.459-2.442,11.029,11.029,0,0,1,2.806-3.636c4.656-4.445,18.549-9.33,15.64-11.223s-16.872-7.115-18.955-4.232,1.362.442,2.2,3.859-10.329,2.96-15.493,4.439a3.7,3.7,0,0,1-2.6.1c-.892-.432-1.268-1.471-1.753-2.336-2.594-4.634-11.221-1.626-11.221-1.626a14.037,14.037,0,0,0-4.354,4.23Z" transform="translate(-132.124 -176.791)" fill="#304c8e"/>
    <path id="Trazado_599615" data-name="Trazado 599615" d="M436.5,147.608c-1.254,2.337,2.475,2.3,2.846,4.927,3.357.366,4.736-4.927,8.055-5.545,1.874-.349,3.69.994,4.708,2.6s1.493,3.5,2.356,5.2a12.808,12.808,0,0,0,10.182,6.833,3.52,3.52,0,0,0,2.643-.6c2.023-1.783-.872-5.132-.12-7.722.859-2.96,5.127-2.511,8.01-3.6.8-.3,6.914-1.932,7.013-2.776.175-1.5-2.664-2.45-5.839-3.266-5.38-1.384-14.846-1.326-19.473-.907-6.156.557-16.412.107-20.382,4.844Z" transform="translate(-363.185 -94.161)" fill="#304c8e"/>
    <path id="Trazado_599616" data-name="Trazado 599616" d="M884.331,392.777a77.612,77.612,0,0,0-.342-26.4c-.432-2.319-1.445-5.083-3.78-5.417-2.7-.386-6.008,2.717-7.7.575-.747-.946-.448-2.322-.025-3.449a22.851,22.851,0,0,1,5.088-7.975,28.779,28.779,0,0,0,4.033-4.315c2.277-3.552.678-8.744-2.547-11.465s-7.386,2.159-10.776.222-3.5-6.638-4.133-10.491c-.472-2.854-2.575-10.586-4.9-6.82s3.1,18.755,9.2,25.94a4.571,4.571,0,0,1,1.487,2.972c-.149,2.711-4.1,2.591-6.756,3.146-3.29.687-8.332-1.074-5.55,4.658,1.468,3.023,8.478,7.162,6.594,9.185s-7.675,7.884-10.391,12.624-4.034,10.642-1.985,15.706,8.21,8.561,13.239,6.428c2.354-1,4.92-3.074,7.108-1.752,1.982,1.2,1.689,4.074,1.591,6.388s1.236,5.384,3.486,4.841a3.741,3.741,0,0,0,1.824-1.315c3.167-3.64,4.471-8.524,5.232-13.288Z" transform="translate(-708.36 -238.797)" fill="#304c8e"/>
    <path id="Trazado_599617" data-name="Trazado 599617" d="M228.669,326c36.914,0,66.838-28.269,66.838-63.141s-29.925-63.141-66.838-63.141-66.838,28.269-66.838,63.141S191.756,326,228.669,326Z" transform="translate(-134.73 -141.792)" fill="#fff" opacity="0.17"/>
    <g id="Grupo_1013385" data-name="Grupo 1013385" transform="translate(23.197 50.901)" opacity="0.68">
      <g id="Grupo_1013378" data-name="Grupo 1013378" transform="translate(55.722 0.418)">
        <path id="Trazado_599618" data-name="Trazado 599618" d="M514.661,237.08a239.15,239.15,0,0,1-3.414,41.573c-.618,3.427-1.336,6.837-2.191,10.213A98.345,98.345,0,0,1,506,298.86a47.3,47.3,0,0,1-4.568,9.415,18.752,18.752,0,0,1-3.425,4,9.711,9.711,0,0,1-2.238,1.444,6.7,6.7,0,0,1-2.608.616,6.57,6.57,0,0,1-2.637-.486,9.157,9.157,0,0,1-2.29-1.365,17.757,17.757,0,0,1-3.5-3.937,36.151,36.151,0,0,1-2.587-4.563c-.758-1.574-1.433-3.186-2.047-4.819A96.026,96.026,0,0,1,477,289.182c-.864-3.375-1.588-6.783-2.212-10.209-1.244-6.852-2.092-13.77-2.662-20.707s-.848-13.9-.879-20.86c-.015-3.48.073-6.959.195-10.437s.315-6.953.569-10.423c.509-6.941,1.271-13.866,2.408-20.734.57-3.433,1.236-6.853,2.037-10.241a98.4,98.4,0,0,1,2.9-10.035c.583-1.642,1.22-3.267,1.946-4.853a35.45,35.45,0,0,1,2.492-4.6,17.134,17.134,0,0,1,3.425-3.967,8.735,8.735,0,0,1,2.263-1.358,6.367,6.367,0,0,1,2.6-.464,6.877,6.877,0,0,1,2.57.6,10.034,10.034,0,0,1,2.234,1.4,19.1,19.1,0,0,1,3.5,3.9,37.332,37.332,0,0,1,2.659,4.508c.789,1.556,1.492,3.153,2.141,4.77a95.193,95.193,0,0,1,3.287,9.914c.925,3.357,1.708,6.752,2.386,10.166a218.951,218.951,0,0,1,3.8,41.529Zm-.858,0c.01-6.937-.256-13.877-.834-20.789a199.988,199.988,0,0,0-2.728-20.621c-.644-3.408-1.393-6.8-2.284-10.146a94.562,94.562,0,0,0-3.181-9.893c-.63-1.613-1.314-3.206-2.083-4.756a36.889,36.889,0,0,0-2.592-4.487,18.8,18.8,0,0,0-3.4-3.865,9.77,9.77,0,0,0-2.159-1.378,6.49,6.49,0,0,0-2.466-.6,6.056,6.056,0,0,0-2.489.466,8.444,8.444,0,0,0-2.176,1.335,16.814,16.814,0,0,0-3.323,3.923,35.052,35.052,0,0,0-2.424,4.577c-.706,1.579-1.325,3.2-1.888,4.836a97.884,97.884,0,0,0-2.79,10.011c-.767,3.382-1.4,6.794-1.936,10.22-1.07,6.855-1.768,13.766-2.212,20.689s-.61,13.865-.6,20.8q-.021,10.406.743,20.794c.524,6.916,1.324,13.816,2.52,20.648.6,3.415,1.3,6.813,2.136,10.176a95.752,95.752,0,0,0,3.01,9.939c.6,1.623,1.257,3.224,2,4.784a35.654,35.654,0,0,0,2.519,4.513,17.319,17.319,0,0,0,3.372,3.848,8.7,8.7,0,0,0,2.162,1.31,5.958,5.958,0,0,0,2.449.464,6.212,6.212,0,0,0,2.425-.591,9.22,9.22,0,0,0,2.117-1.388,18.275,18.275,0,0,0,3.3-3.914,46.82,46.82,0,0,0,4.449-9.333,97.771,97.771,0,0,0,2.975-9.95c.828-3.365,1.519-6.764,2.113-10.18,1.187-6.833,1.978-13.733,2.5-20.65s.775-13.857.773-20.795Z" transform="translate(-471.248 -160.288)" fill="#fff"/>
      </g>
      <g id="Grupo_1013379" data-name="Grupo 1013379" transform="translate(16.133 0)">
        <path id="Trazado_599619" data-name="Trazado 599619" d="M352.949,235a101.371,101.371,0,0,1-3.589,26.548A85.516,85.516,0,0,1,338.271,285.9a70.09,70.09,0,0,1-8.476,10.395,59.348,59.348,0,0,1-10.437,8.414,50.3,50.3,0,0,1-12.182,5.573,45.451,45.451,0,0,1-26.49.01,50.306,50.306,0,0,1-12.19-5.567,59.421,59.421,0,0,1-10.449-8.407,70.159,70.159,0,0,1-8.489-10.394,85.641,85.641,0,0,1-11.114-24.359,100.368,100.368,0,0,1-3.6-26.566,105.406,105.406,0,0,1,.913-13.4,96.379,96.379,0,0,1,2.7-13.159,85.6,85.6,0,0,1,11.126-24.345,70.092,70.092,0,0,1,8.49-10.383,59.312,59.312,0,0,1,10.446-8.4,50.5,50.5,0,0,1,12.182-5.549,45.2,45.2,0,0,1,26.456.009,50.5,50.5,0,0,1,12.174,5.557,59.246,59.246,0,0,1,10.434,8.4,70.045,70.045,0,0,1,8.476,10.385,85.5,85.5,0,0,1,11.1,24.338,101.372,101.372,0,0,1,3.6,26.544Zm-.984,0A100.426,100.426,0,0,0,348.5,208.69,85.2,85.2,0,0,0,337.7,184.478a69.481,69.481,0,0,0-8.316-10.369,58.132,58.132,0,0,0-10.281-8.416,49.689,49.689,0,0,0-12.053-5.565,44.262,44.262,0,0,0-26.236.009,49.641,49.641,0,0,0-12.045,5.574,58.076,58.076,0,0,0-10.27,8.421,69.391,69.391,0,0,0-8.3,10.371,85.1,85.1,0,0,0-10.77,24.206,97.205,97.205,0,0,0-2.592,13.032,101.05,101.05,0,0,0,.007,26.519,97.119,97.119,0,0,0,2.6,13.029,85.087,85.087,0,0,0,10.783,24.192,69.369,69.369,0,0,0,8.3,10.361,57.864,57.864,0,0,0,10.267,8.409,49.848,49.848,0,0,0,12.036,5.557,44.022,44.022,0,0,0,26.2.01,49.828,49.828,0,0,0,12.045-5.55,57.961,57.961,0,0,0,10.279-8.4,69.5,69.5,0,0,0,8.316-10.36,85.193,85.193,0,0,0,10.808-24.2,100.428,100.428,0,0,0,3.483-26.3Z" transform="translate(-234.849 -157.789)" fill="#fff"/>
      </g>
      <g id="Grupo_1013380" data-name="Grupo 1013380" transform="translate(6.169 46.392)">
        <path id="Trazado_599620" data-name="Trazado 599620" d="M175.418,435.053l17.753-.119,17.753-.068,35.506-.055,35.506.06,17.753.074,17.752.129a.043.043,0,0,1,.044.044.043.043,0,0,1-.044.043l-17.752.129-17.753.074-35.506.06-35.506-.054-17.753-.068-17.753-.119a.065.065,0,0,1,0-.13Z" transform="translate(-175.354 -434.812)" fill="#fff"/>
      </g>
      <g id="Grupo_1013381" data-name="Grupo 1013381" transform="translate(26.766 16.656)">
        <path id="Trazado_599621" data-name="Trazado 599621" d="M298.408,257.49l12.6-.12,12.6-.068c4.2-.029,8.4-.026,12.6-.035l12.6-.02,25.208.06,12.6.074c4.2.044,8.4.069,12.6.129a.044.044,0,0,1,0,.087c-4.2.06-8.4.085-12.6.129l-12.6.074-25.208.06-12.6-.02c-4.2-.009-8.4-.006-12.6-.034l-12.6-.068-12.6-.12a.065.065,0,0,1,0-.129Z" transform="translate(-298.344 -257.248)" fill="#fff"/>
      </g>
      <g id="Grupo_1013382" data-name="Grupo 1013382" transform="translate(0 76.126)">
        <path id="Trazado_599622" data-name="Trazado 599622" d="M138.58,612.6l19.3-.119,19.3-.068,38.591-.054,38.591.06,19.3.074,19.3.129a.043.043,0,0,1,.042.044.042.042,0,0,1-.042.043l-19.3.129-19.3.074-38.591.061-38.591-.054-19.3-.069-19.3-.119a.065.065,0,0,1,0-.13Z" transform="translate(-138.516 -612.361)" fill="#fff"/>
      </g>
      <g id="Grupo_1013383" data-name="Grupo 1013383" transform="translate(6.169 105.861)">
        <path id="Trazado_599623" data-name="Trazado 599623" d="M175.418,790.159l17.753-.119,17.753-.068,35.506-.055,35.506.061,17.753.074,17.752.129a.043.043,0,0,1,.044.043.044.044,0,0,1-.044.043l-17.752.129-17.753.074-35.506.06-35.506-.054-17.753-.068-17.753-.119a.065.065,0,0,1,0-.13Z" transform="translate(-175.354 -789.917)" fill="#fff"/>
      </g>
      <g id="Grupo_1013384" data-name="Grupo 1013384" transform="translate(29.144 135.676)">
        <path id="Trazado_599624" data-name="Trazado 599624" d="M413.6,968.4H312.768a.226.226,0,0,1,0-.453H413.6a.226.226,0,0,1,0,.453Z" transform="translate(-312.542 -967.952)" fill="#fff"/>
      </g>
    </g>
    <path id="Trazado_599625" data-name="Trazado 599625" d="M725.162,138.82a33.206,33.206,0,1,0-46.961,0A33.205,33.205,0,0,0,725.162,138.82Z" transform="translate(-556.528 -43.902)" fill="#fff"/>
    <path id="Trazado_599626" data-name="Trazado 599626" d="M729.871,143.528a32.1,32.1,0,1,0-45.4,0A32.1,32.1,0,0,0,729.871,143.528Z" transform="translate(-562.017 -49.391)" fill="#1c2d55"/>
    <path id="Trazado_599627" data-name="Trazado 599627" d="M746.725,168.734a27.17,27.17,0,1,0-38.425,0A27.17,27.17,0,0,0,746.725,168.734Z" transform="translate(-583.058 -77.384)" fill="#304c8e"/>
    <path id="Trazado_599628" data-name="Trazado 599628" d="M864.971,118.413a.346.346,0,0,0,.154-.036.339.339,0,0,0,.149-.456A29.848,29.848,0,0,0,838.5,101.436a30.164,30.164,0,0,0-5.407.487.339.339,0,0,0,.122.667,29.544,29.544,0,0,1,5.286-.476,29.171,29.171,0,0,1,26.168,16.112.34.34,0,0,0,.3.187Z" transform="translate(-693.346 -59.972)" fill="#bdd0fb"/>
    <g id="Grupo_1013387" data-name="Grupo 1013387" transform="translate(124.21 51.66)">
      <path id="Trazado_599629" data-name="Trazado 599629" d="M779.541,233.5v12.281a12.563,12.563,0,0,0,2.769,7.866l.268.3.013.028a11.762,11.762,0,0,0,9.136,4.17l5.563-.091a12.4,12.4,0,0,0,11.9-12.6v-9.3L779.541,233.5Z" transform="translate(-773.203 -221.581)" fill="#ff9c99"/>
      <path id="Trazado_599630" data-name="Trazado 599630" d="M809.541,371.454a29.181,29.181,0,0,0,10.768,1.431,29.633,29.633,0,0,0,8.353-1.8V358.237l-19.122.287Z" transform="translate(-798.179 -325.427)" fill="#ff9c99"/>
      <g id="Grupo_1013386" data-name="Grupo 1013386" transform="translate(7.09 10.74)" opacity="0.6">
        <path id="Trazado_599631" data-name="Trazado 599631" d="M813.1,235.292s-15.162,7.7-16.118,12.382c-5.548.127-7.971-5.067-7.971-5.067l-4.979-11.694.347-4.458,28.7,4.84.025,4Z" transform="translate(-784.035 -226.455)" fill="#ff9c99"/>
      </g>
      <path id="Trazado_599632" data-name="Trazado 599632" d="M917.285,239.889l.394.331a3.314,3.314,0,0,1,.956,4.281l-5.773,8.228c-.9,1.281-2.793,1.355-4.272.131l-.145-.12c-1.481-1.227-1.983-3.289-1.079-4.571l5.8-8.235c.855-1.212,2.714-1.217,4.113-.046Z" transform="translate(-879.247 -226.174)" fill="#febbba"/>
      <path id="Trazado_599633" data-name="Trazado 599633" d="M882.284,205.254l.266.222a3.606,3.606,0,0,1,.839,4.753l-6.767,9.556a3.208,3.208,0,0,1-4.746.355,3.831,3.831,0,0,1-.925-5.044l6.8-9.564a3.068,3.068,0,0,1,4.529-.277Z" transform="translate(-848.817 -197.35)" fill="#febbba"/>
      <path id="Trazado_599634" data-name="Trazado 599634" d="M847.422,176.319l.42.351a3.611,3.611,0,0,1,.843,4.765l-6.8,9.564a3.191,3.191,0,0,1-4.736.374l-.155-.127a3.884,3.884,0,0,1-.964-5.087l6.841-9.572a3.088,3.088,0,0,1,4.553-.268Z" transform="translate(-819.747 -173.254)" fill="#febbba"/>
      <path id="Trazado_599635" data-name="Trazado 599635" d="M813.9,163.3c1.385,1.157,1.817,3.059.964,4.253l-5.792,8.1c-.9,1.261-2.79,1.331-4.258.12l-.144-.119c-1.47-1.213-1.96-3.249-1.054-4.511l5.582-7.772c.991-1.38,3.1-1.412,4.7-.073Z" transform="translate(-792.865 -162.32)" fill="#febbba"/>
      <path id="Trazado_599636" data-name="Trazado 599636" d="M761.5,237.658l-.7.011a12.406,12.406,0,0,1-9.705-4.515s0-.015,0-.017l-.264-.332-6.441-7.921a12.219,12.219,0,0,1-2.675-8.42,6.94,6.94,0,0,1,6.148-6.611l.063-.007,9.86-.914a3.592,3.592,0,0,1,3.837,3.278,5.608,5.608,0,0,1-.173,2.138,5.282,5.282,0,0,1-3.5,3.664l-3.219.982s5.859.415,6.895,10.48a39.244,39.244,0,0,1-.127,8.183Z" transform="translate(-741.696 -201.115)" fill="#ff9c99"/>
      <path id="Trazado_599637" data-name="Trazado 599637" d="M800.5,254.163c-1.749-9.128-13.938-10.387-11.883-10.36,2.285.032,2.285-5.2,2.285-5.2s2.079,2.624,2.636,3.281,6.563-2.891,6.563-2.891a.849.849,0,0,1,.221.07,5.283,5.283,0,0,1-3.5,3.665l-3.219.982s5.859.394,6.895,10.458Z" transform="translate(-780.569 -225.824)" fill="#febbba" opacity="0.3"/>
    </g>
    <path id="Trazado_599638" data-name="Trazado 599638" d="M481.748,1122.087a.619.619,0,0,0-.016-.161c-.8-3.165-4.062-4.786-4.062-4.786l-1.57.122c-.9,2.79-1.485,4.151-1.34,4.913,0,.022.011.042.016.062a37.2,37.2,0,0,0,6.972-.151Z" transform="translate(-395.235 -905.579)" fill="#304c8e"/>
    <path id="Trazado_599639" data-name="Trazado 599639" d="M474.965,1146.831a.68.68,0,0,0,.5.5,21.427,21.427,0,0,0,6-.086.569.569,0,0,0,.474-.568A37.364,37.364,0,0,1,474.965,1146.831Z" transform="translate(-395.424 -930.172)" fill="#263c71"/>
    <path id="Trazado_599640" data-name="Trazado 599640" d="M486.227,1102.55l-.687,3.309a.541.541,0,0,1-.462.445,4.6,4.6,0,0,1-1.065-.017.68.68,0,0,1-.539-.8l.478-2.939h2.276Z" transform="translate(-402.499 -893.432)" fill="#fff"/>
    <path id="Trazado_599641" data-name="Trazado 599641" d="M360.936,1145.3a9.088,9.088,0,0,0,2.993-.427c0,.166,0,.337-.005.511a.331.331,0,0,1-.316.337l-9.206-.059a.42.42,0,0,1-.338-.611c1.207.1,4.281.322,6.873.25Z" transform="translate(-294.734 -928.665)" fill="#263c71"/>
    <path id="Trazado_599642" data-name="Trazado 599642" d="M354.268,1123.5a.4.4,0,0,1,.036-.069,11.727,11.727,0,0,1,6.976-4.379l1.963-.062a9.412,9.412,0,0,1,.89,4.332,9,9,0,0,1-2.992.427,68.751,68.751,0,0,1-6.873-.25Z" transform="translate(-294.939 -907.119)" fill="#304c8e"/>
    <path id="Trazado_599643" data-name="Trazado 599643" d="M397.392,1098.856c-.021.147-.291,2.371-.4,3.232a.429.429,0,0,1-.36.387,4.537,4.537,0,0,1-1.348-.022.579.579,0,0,1-.44-.583v-3.49Z" transform="translate(-328.725 -889.961)" fill="#fff"/>
    <path id="Trazado_599644" data-name="Trazado 599644" d="M408.849,843.083s3.141,27.921,1.4,45.371a13.53,13.53,0,0,1-3.141-.348s-3.264-27.3-4.32-35.111a.263.263,0,0,0-.518-.016c-1.3,6.573-6.42,32.344-7.029,34.779a4.348,4.348,0,0,1-3.141,0s2.792-37.344,4.886-43.976l11.867-.7Z" transform="translate(-326.433 -677.418)" fill="#304c8e"/>
    <path id="Trazado_599645" data-name="Trazado 599645" d="M411.66,645.52s-13.262-2.094-23.733.7l.7,10.82s2.792,15.008,4.886,21.639c0,0,8.027,1.4,11.866-.7,0,0,3.141-18.847,4.886-21.639C410.264,656.339,412.009,649.01,411.66,645.52Z" transform="translate(-322.962 -512.312)" fill="#263c71"/>
    <path id="Trazado_599646" data-name="Trazado 599646" d="M450,592.32l1.321,8.934s-3.691,1.7-6.276-.073l.556-6.306Z" transform="translate(-370.512 -468.649)" fill="#ff9c99"/>
    <path id="Trazado_599647" data-name="Trazado 599647" d="M433.909,554.812c-.042.075-.838,4.581-1.328,7.37a1.956,1.956,0,0,0,1.812,2.292l1.069.063a3.812,3.812,0,0,0,3.993-3.228l.773-5.052s-5.31-3.277-6.32-1.444Z" transform="translate(-360.113 -436.959)" fill="#ff9c99"/>
    <path id="Trazado_599648" data-name="Trazado 599648" d="M439.569,540.905a1.5,1.5,0,0,0-.105-2.2,2.115,2.115,0,0,0-2.524-.365.7.7,0,0,1-.829-.164.447.447,0,0,0-.417-.155.658.658,0,0,1-.744-.573,1.736,1.736,0,0,0-1.533-1.6c-2.054-.4-3.08,1.659-3.043,3.1s2.289,1.749,3.566,1.509a2.452,2.452,0,0,1,2.115,1.1.679.679,0,0,1,.134.583l-.325,1.4a6.417,6.417,0,0,0,.762,1.247,1.382,1.382,0,0,0,.741.476c.383-.713,1.454-.834,1.952-.85a.682.682,0,0,0,.494-.234,1.493,1.493,0,0,0-.162-2.336.678.678,0,0,1-.083-.941Z" transform="translate(-358.3 -421.596)" fill="#263c71"/>
    <path id="Trazado_599649" data-name="Trazado 599649" d="M469.929,587.318s.044-2.521,1.065-2.758,2.121.5,1.248,2.01c-1.085,1.878-2.313.747-2.313.747Z" transform="translate(-391.231 -462.153)" fill="#ff9c99"/>
    <path id="Trazado_599650" data-name="Trazado 599650" d="M331.837,578.017s-30.414-9.045-15.534-30.023l1.247,1.645s-4.277,14.878,10.574,16.229c0,0,3.847,9.921,3.713,12.151Z" transform="translate(-259.92 -431.746)" fill="#263c71"/>
    <path id="Trazado_599651" data-name="Trazado 599651" d="M493.981,576.387s29.967-8.157,15.088-29.135l-1.007,1.425s4.483,14.208-10.368,15.559C497.694,564.236,493.847,574.156,493.981,576.387Z" transform="translate(-411.253 -431.128)" fill="#263c71"/>
    <path id="Trazado_599652" data-name="Trazado 599652" d="M561.083,529.116s.236-3.388-1.79-3.726-2.6,1.025-2.936,2.038,3.037,3.037,3.713,3.037S561.083,529.116,561.083,529.116Z" transform="translate(-463.166 -412.884)" fill="#263c71"/>
    <path id="Trazado_599653" data-name="Trazado 599653" d="M337.288,529.234s-.337-4.05,1.687-4.388,2.7,1.687,3.038,2.7-3.038,3.038-3.713,3.038-1.013-1.35-1.013-1.35Z" transform="translate(-280.786 -412.444)" fill="#ff9c99"/>
    <path id="Trazado_599654" data-name="Trazado 599654" d="M49.315,542.344a36.2,36.2,0,0,1-2.2,3.468c-2.581,3.271-5.529,6.689-9.039,8.985-3.982,2.605-10.953,2.8-12.466,8.077a10.846,10.846,0,0,0,3.711,11.351c1.7,1.415,3.944,2.022,5.589,3.5,2.333,2.093,1.583,4.552,1.63,7.365a8.313,8.313,0,0,0,6.019,8.317c8.027,2.874,27.094-10.846,17.376-27.682s-3.9-21.445-3.9-21.445Z" transform="translate(-20.984 -427.042)" fill="#0d046b"/>
    <path id="Trazado_599655" data-name="Trazado 599655" d="M221.7,533.375S211.884,548.9,200.213,551.9c0,0,2.274,6.477,4.029,7.218,0,0,14.358-11.981,18.049-23.535Z" transform="translate(-166.684 -419.575)" fill="#feb0ae"/>
    <path id="Trazado_599656" data-name="Trazado 599656" d="M20.373,1121.3l-.318,2.616a1.08,1.08,0,0,1-.948.944,16.746,16.746,0,0,1-3.5.055.926.926,0,0,1-.777-1.2,9.538,9.538,0,0,1,1.754-3.416h2.9A.894.894,0,0,1,20.373,1121.3Z" transform="translate(-12.311 -908.21)" fill="#304c8e"/>
    <path id="Trazado_599657" data-name="Trazado 599657" d="M155.986,943.36l.49,2.88s-1.64,16.608-1.931,23.251a5.2,5.2,0,0,0,.77,2.957l2.851,4.63L150.92,972.8l-.144-.884,1.186-1.631-1.554-18.605a5.707,5.707,0,0,1,.65-3.157l1.5-2.816Z" transform="translate(-125.203 -760.901)" fill="#feb0ae"/>
    <path id="Trazado_599658" data-name="Trazado 599658" d="M157.73,1114.545h-2.312a1.391,1.391,0,0,1-1.1-.543c-.721-.936-2.214-2.763-2.929-2.812-.962-.064-.839,3.354-.839,3.354h-.539l-.683-4.247a2.513,2.513,0,0,1,1.319-2.627,3.552,3.552,0,0,0,1.411,2.343c1.192.72,4.849,3.294,4.849,3.294a3.318,3.318,0,0,1,.94.025A.612.612,0,0,1,157.73,1114.545Z" transform="translate(-124.29 -897.695)" fill="#304c8e"/>
    <path id="Trazado_599659" data-name="Trazado 599659" d="M38.223,945.584s-9.605,18.22-11.132,22.38a39.932,39.932,0,0,0-2.082,7.96c-.032.514-.671,1.007-2.431,1.007a1.687,1.687,0,0,1-1.571-.717,1.027,1.027,0,0,1-.039-.995c.556-1.124,2.319-4.718,2.972-6.347.78-1.946,2.457-10.765,3.377-13.831s1.96-6.392,5.965-9.456c0,0,2.75-2.693,4.943,0Z" transform="translate(-17.365 -761.758)" fill="#feb0ae"/>
    <path id="Trazado_599660" data-name="Trazado 599660" d="M141.9,664.04c2.478-10.5-3.8-16.438-3.8-16.438,3.961-3.8,11.177-5.531,11.177-5.531s6.886,5.034,6.069,8.975c-.478,2.31-4.84,13.833-4.84,13.833a9.582,9.582,0,0,1-8.607-.839Z" transform="translate(-114.972 -510.068)" fill="#263c71"/>
    <path id="Trazado_599661" data-name="Trazado 599661" d="M99.04,778.45c1.009-3.038,5.494-5.2,5.494-5.2a9.583,9.583,0,0,0,8.607.839,17.26,17.26,0,0,1,.28,6.67c-.624,3.213-4.541,23.859-4.541,23.859-6.171,1.251-15.661-1.258-15.661-1.258C97.149,796.383,98.033,781.488,99.04,778.45Z" transform="translate(-77.608 -619.281)" fill="#7e19b8"/>
    <path id="Trazado_599662" data-name="Trazado 599662" d="M167.786,596.35l-2.015,9.049c-.193.8.534.667,1.339.515,1.32-.249,3.021-.761,3.589-1.788a.969.969,0,0,0,.1-.341l.865-6.275a1.127,1.127,0,0,0-.66-1.185l-1.67-.74a1.128,1.128,0,0,0-1.553.766Z" transform="translate(-137.984 -471.286)" fill="#feb0ae"/>
    <path id="Trazado_599663" data-name="Trazado 599663" d="M174.879,549.781a8.929,8.929,0,0,1,3.066,5.149c.921,3.7-.576,5.023-2.111,4.942a7.122,7.122,0,0,1-5.689-3.208c-1.929-2.652,1.924-8.656,4.734-6.882Z" transform="translate(-141.218 -432.966)" fill="#feb0ae"/>
    <path id="Trazado_599664" data-name="Trazado 599664" d="M159.191,539.43s-.786-5.3,3.613-4.487l.889.926s2.153-2.425-.23-4.257-5.689-1.364-7.518,1.973-2.493,5.681-.96,7.755,2.686.295,2.686.295-.7-1.794-.12-2.564,1.336.448,1.336.448l.3-.087Z" transform="translate(-128.321 -417.224)" fill="#0d046b"/>
    <path id="Trazado_599665" data-name="Trazado 599665" d="M171.235,578.168s-.388-2.726-1.78-1.946.5,2.546,1.261,3.147l.519-1.2Z" transform="translate(-140.663 -455.13)" fill="#feb0ae"/>
    <path id="Trazado_599666" data-name="Trazado 599666" d="M320.368,521.077c.028.32-1.1.542-1.458-.824.1-.593.273-3.188.7-3.591,2.292-2.148,4.2-1.887,4.2-1.887a9.091,9.091,0,0,1,.559,2.253,2.608,2.608,0,0,1-.6,1.762c-.406.49-.952,1.122-1.445,1.6a2.27,2.27,0,0,1-1.952.686Z" transform="translate(-265.503 -404.082)" fill="#feb0ae"/>
    <path id="Trazado_599667" data-name="Trazado 599667" d="M327.525,523.9l-.374-.163a18.159,18.159,0,0,1,1.5-3.153.752.752,0,0,0,.249-.479.318.318,0,0,0-.079-.179l-1.62.914-.724,1.2-.341-.23.781-1.292,1.961-1.107.1.09a.815.815,0,0,1,.321.58,1.121,1.121,0,0,1-.361.8,18.026,18.026,0,0,0-1.419,3.019Z" transform="translate(-271.52 -407.947)" fill="#feb0ae"/>
    <path id="Trazado_599668" data-name="Trazado 599668" d="M27.42,674.189s-11.152,22.9-15.191,24.9a45.505,45.505,0,0,0-6.61,1.188.656.656,0,0,0,.026,1.261,9.936,9.936,0,0,0,7.3-.566s-1.425,2.137-.594,2.969c0,0,1.9-2.256,2.613-2.969.628-.628,12.048-13.078,16.849-20.587.388-.607.119-2.41-.15-3.077-.62-1.537-2-3.99-4.24-3.118Z" transform="translate(-4.293 -536.655)" fill="#feb0ae"/>
    <path id="Trazado_599669" data-name="Trazado 599669" d="M324.214,516.161s1.279-2.29,1.708-1.772.553.563.288,1.354.232,2.509-.491,3.051S324.427,518.975,324.214,516.161Z" transform="translate(-269.919 -403.705)" fill="#feb0ae"/>
    <path id="Trazado_599670" data-name="Trazado 599670" d="M38.408,669.04a.1.1,0,0,0,.077-.037.1.1,0,0,0-.015-.139,16.579,16.579,0,0,1-3.986-4.795,5.481,5.481,0,0,1-.3-4.312,8.708,8.708,0,0,1,1.431-2.238.1.1,0,0,0-.009-.14.1.1,0,0,0-.14.009,8.9,8.9,0,0,0-1.463,2.289,5.585,5.585,0,0,0,.3,4.483,16.791,16.791,0,0,0,4.037,4.858.1.1,0,0,0,.062.022Z" transform="translate(-28.031 -522.794)" fill="#bdd0fb"/>
    <path id="Trazado_599671" data-name="Trazado 599671" d="M72.331,589.729a.1.1,0,0,0,.04-.008c.667-.291,1.357-.566,2.025-.832a38.574,38.574,0,0,0,3.559-1.557,17.965,17.965,0,0,0,7.685-7.219.1.1,0,0,0-.176-.093,17.775,17.775,0,0,1-7.6,7.137,38.509,38.509,0,0,1-3.54,1.549c-.669.266-1.361.542-2.032.834a.1.1,0,0,0,.04.19Z" transform="translate(-60.136 -458.365)" fill="#bdd0fb"/>
    <path id="Trazado_599672" data-name="Trazado 599672" d="M199.444,540.24a.1.1,0,0,0,.1-.075,3.15,3.15,0,0,0-.364-2.367,2.27,2.27,0,0,0-1.813-.828.1.1,0,0,0-.1.095.1.1,0,0,0,.094.1,2.08,2.08,0,0,1,1.664.749,3,3,0,0,1,.33,2.2.1.1,0,0,0,.073.12A.088.088,0,0,0,199.444,540.24Z" transform="translate(-164.225 -422.567)" fill="#bdd0fb"/>
    <path id="Trazado_599673" data-name="Trazado 599673" d="M1031.538,1122.822a.551.551,0,0,0-.017-.162c-.807-3.205-4.116-4.85-4.116-4.85l-1.589.126c-.916,2.825-1.505,4.2-1.358,4.977a.441.441,0,0,0,.017.064,37.806,37.806,0,0,0,7.064-.154Z" transform="translate(-852.876 -906.137)" fill="#304c8e"/>
    <path id="Trazado_599674" data-name="Trazado 599674" d="M1024.67,1147.892a.691.691,0,0,0,.506.511,21.863,21.863,0,0,0,6.079-.085.582.582,0,0,0,.48-.578,37.63,37.63,0,0,1-7.064.152Z" transform="translate(-853.072 -931.055)" fill="#fff"/>
    <path id="Trazado_599675" data-name="Trazado 599675" d="M1036.081,1103.022l-.7,3.353a.546.546,0,0,1-.469.45,4.618,4.618,0,0,1-1.079-.017.69.69,0,0,1-.546-.81l.484-2.978h2.306Z" transform="translate(-860.24 -893.824)" fill="#ff9c99"/>
    <path id="Trazado_599676" data-name="Trazado 599676" d="M909.135,1146.334a9.211,9.211,0,0,0,3.032-.434c0,.169,0,.342-.005.519a.337.337,0,0,1-.32.342l-9.328-.06a.427.427,0,0,1-.343-.621c1.223.1,4.338.328,6.964.255Z" transform="translate(-751.052 -929.523)" fill="#fff"/>
    <path id="Trazado_599677" data-name="Trazado 599677" d="M902.382,1124.25a.528.528,0,0,1,.037-.07,11.894,11.894,0,0,1,7.068-4.438l1.989-.062a9.549,9.549,0,0,1,.9,4.391,9.2,9.2,0,0,1-3.032.434C906.72,1124.577,903.605,1124.351,902.382,1124.25Z" transform="translate(-751.263 -907.694)" fill="#304c8e"/>
    <path id="Trazado_599678" data-name="Trazado 599678" d="M946.068,1099.291c-.022.149-.3,2.4-.4,3.276a.434.434,0,0,1-.365.392,4.544,4.544,0,0,1-1.366-.022.587.587,0,0,1-.446-.589v-3.537l2.577.482Z" transform="translate(-785.487 -890.319)" fill="#ff9c99"/>
    <path id="Trazado_599679" data-name="Trazado 599679" d="M957.679,840.13s3.184,28.29,1.415,45.971a13.7,13.7,0,0,1-3.183-.353s-3.306-27.66-4.376-35.575a.267.267,0,0,0-.526-.017c-1.319,6.659-6.5,32.772-7.121,35.239a4.411,4.411,0,0,1-3.183,0s2.829-37.838,4.951-44.557l12.023-.707Z" transform="translate(-783.168 -674.959)" fill="#304c8e"/>
    <path id="Trazado_599680" data-name="Trazado 599680" d="M999.373,586.052l1.338,9.053s-3.74,1.718-6.358-.074l.564-6.389Z" transform="translate(-827.832 -463.431)" fill="#ff9c99"/>
    <path id="Trazado_599681" data-name="Trazado 599681" d="M959.484,639.811c-3.356-.426-14.161-1.506-23,.851l.707,10.963s2.829,15.206,4.951,21.925c0,0,8.133,1.415,12.023-.707,0,0,3.184-19.1,4.95-21.925a56.373,56.373,0,0,0,1.462-9.861,1.25,1.25,0,0,0-1.092-1.245Z" transform="translate(-779.653 -507.671)" fill="#60cb28"/>
    <path id="Trazado_599682" data-name="Trazado 599682" d="M867.823,585.363s-31.634-3.375-20-27.011l1.25,1.277s-1.478,14.4,13.76,13.346C862.836,572.975,867.595,583.085,867.823,585.363Z" transform="translate(-703.702 -440.37)" fill="#60cb28"/>
    <path id="Trazado_599683" data-name="Trazado 599683" d="M847.166,541.46s-.345-4.149,1.728-4.494,2.766,1.728,3.112,2.766-3.112,3.111-3.8,3.111S847.166,541.46,847.166,541.46Z" transform="translate(-705.276 -422.533)" fill="#ff9c99"/>
    <path id="Trazado_599684" data-name="Trazado 599684" d="M1057.675,645.218c2.757,3.257,18.11,22.859-4.445,30.81v-1.772s9.216-7.8,2.127-18.433c0,0,.971-8.047,1.683-10.473A.368.368,0,0,1,1057.675,645.218Z" transform="translate(-876.849 -512.579)" fill="#60cb28"/>
    <path id="Trazado_599685" data-name="Trazado 599685" d="M1022.207,812.554s-3.19-2.127-4.609-1.418a2.192,2.192,0,0,0-1.418,1.772s.71,1.418,1.772,1.063,3.545.355,4.609,0c0,0,.355-1.418-.353-1.418Z" transform="translate(-846.003 -650.7)" fill="#60cb28"/>
    <path id="Trazado_599686" data-name="Trazado 599686" d="M980.622,550.146s-1.708,3.923-1.822,5.982-.559,3.4,1.822,3.81a5.06,5.06,0,0,0,5.473-2.823s1.7-3.161,1.321-4.455S980.622,550.146,980.622,550.146Z" transform="translate(-814.793 -433.538)" fill="#ff9c99"/>
    <path id="Trazado_599687" data-name="Trazado 599687" d="M983.876,534.336h-.3s1.239-2.543.151-2.991-5.407-1.327-6.339-2.859a2.849,2.849,0,0,1,1.1-3.918.16.16,0,0,1,.2.075l.1.188a.162.162,0,0,0,.3-.031.161.161,0,0,1,.29-.044c.285.458,1.057,1.2,3.128,1.585,2.937.542,4.88,1.731,4.928,3.761a.161.161,0,0,0,.25.133c.218-.132.564-.194,1.028.2.806.678.476,2.438-1.291,3.885a.161.161,0,0,0,.007.259c.32.209.8.7-.44,1.368a3.3,3.3,0,0,1-2.3.531.164.164,0,0,1-.122-.167l.112-1.8a.163.163,0,0,0-.162-.172h-.641Z" transform="translate(-813.388 -412.233)" fill="#263c71"/>
    <path id="Trazado_599688" data-name="Trazado 599688" d="M1017.6,575.622s.653-2.506,1.775-1.8-.583,2.808-1.485,2.9Z" transform="translate(-847.186 -453.142)" fill="#ff9c99"/>
    <path id="Trazado_599689" data-name="Trazado 599689" d="M342.969,513.837c.917,1.537,1.225,2.985.539,4.288a2.752,2.752,0,0,1-3.093-1.391C340.458,514.387,341.051,512.98,342.969,513.837Z" transform="translate(-283.407 -403.099)" fill="#feb0ae"/>
    <path id="Trazado_599690" data-name="Trazado 599690" d="M582.622,541s10.3,16.284,22.538,19.43c0,0-2.386,6.794-4.227,7.571,0,0-15.061-12.567-18.932-24.687l.621-2.314Z" transform="translate(-484.534 -425.923)" fill="#feb8b7"/>
    <path id="Trazado_599691" data-name="Trazado 599691" d="M567.569,541.6c-.029.336,1.153.568,1.53-.864-.1-.622-.287-3.344-.739-3.767-2.4-2.253-4.4-1.98-4.4-1.98a9.567,9.567,0,0,0-.586,2.363,2.737,2.737,0,0,0,.632,1.848c.426.514,1,1.177,1.516,1.681A2.381,2.381,0,0,0,567.569,541.6Z" transform="translate(-469.025 -420.913)" fill="#fff"/>
    <path id="Trazado_599692" data-name="Trazado 599692" d="M572.018,544.559l.393-.171a19.067,19.067,0,0,0-1.574-3.307.792.792,0,0,1-.261-.5.335.335,0,0,1,.083-.188l1.7.96.759,1.256.358-.241-.819-1.355-2.057-1.162-.109.095a.861.861,0,0,0-.337.609,1.174,1.174,0,0,0,.378.839,18.849,18.849,0,0,1,1.488,3.167Z" transform="translate(-474.669 -424.964)" fill="#feb8b7"/>
    <path id="Trazado_599693" data-name="Trazado 599693" d="M580.88,536.446s-1.341-2.4-1.792-1.859-.58.591-.3,1.421-.243,2.632.515,3.2,1.355.19,1.578-2.762Z" transform="translate(-481.737 -420.518)" fill="#fff"/>
    <path id="Trazado_599694" data-name="Trazado 599694" d="M723.072,562.858s1.474.65,3.122,3.6a21.529,21.529,0,0,1,2.146,7.613c.121,1.522.842,2.741,1.813,2.973,2.418.579,6.144,2.54,6.74,9.094.455,5-1.179,6.9-2.893,7.558-1.259.482-2.1,2.394-1.841,4.379a6.166,6.166,0,0,1-2.232,5.845c-4.734,3.9-9.461-9.24-9.461-9.24l-.969-22.943,3.574-8.879Z" transform="translate(-599.005 -444.12)" fill="#263c71"/>
    <path id="Trazado_599695" data-name="Trazado 599695" d="M855.9,1126.6l.306,2.519a1.038,1.038,0,0,0,.912.909,16.115,16.115,0,0,0,3.37.054.891.891,0,0,0,.748-1.156,9.165,9.165,0,0,0-1.689-3.289h-2.794A.859.859,0,0,0,855.9,1126.6Z" transform="translate(-712.557 -912.656)" fill="#263c71"/>
    <path id="Trazado_599696" data-name="Trazado 599696" d="M714.846,955.243l-.472,2.773s1.579,15.992,1.859,22.391a5.018,5.018,0,0,1-.742,2.849l-2.745,4.458,6.978-4.118.139-.851-1.142-1.571,1.5-17.916a5.491,5.491,0,0,0-.626-3.041l-1.443-2.712-3.3-2.264Z" transform="translate(-593.385 -770.794)" fill="#febab9"/>
    <path id="Trazado_599697" data-name="Trazado 599697" d="M707.076,1120.09H709.3a1.337,1.337,0,0,0,1.064-.523c.694-.9,2.132-2.661,2.82-2.706.926-.062.807,3.229.807,3.229h.519l.657-4.09a2.422,2.422,0,0,0-1.27-2.53,3.426,3.426,0,0,1-1.359,2.257c-1.147.692-4.669,3.17-4.669,3.17a3.218,3.218,0,0,0-.905.025.589.589,0,0,0,.109,1.167Z" transform="translate(-588.174 -902.524)" fill="#263c71"/>
    <path id="Trazado_599698" data-name="Trazado 599698" d="M782.35,957.389s9.25,17.546,10.72,21.552a38.517,38.517,0,0,1,2.005,7.663c.031.5.646.97,2.341.97a1.626,1.626,0,0,0,1.513-.69.991.991,0,0,0,.037-.958c-.535-1.082-2.233-4.543-2.862-6.113-.751-1.872-2.366-10.366-3.252-13.319s-1.887-6.155-5.744-9.105c0,0-2.648-2.593-4.759,0Z" transform="translate(-651.332 -771.622)" fill="#febab9"/>
    <path id="Trazado_599699" data-name="Trazado 599699" d="M682.765,687.171c-2.386-10.11,3.853-15.049,3.853-15.049-.268-3.22-7.14-5.2-9.862-5.86a2.27,2.27,0,0,0-1.988.46c-1.781,1.482-5.557,5.02-4.952,7.936.461,2.224,4.661,13.321,4.661,13.321a9.227,9.227,0,0,0,8.288-.807Z" transform="translate(-557.59 -530.154)" fill="#263c71"/>
    <path id="Trazado_599700" data-name="Trazado 599700" d="M709.152,796.446c-.971-2.925-5.29-5.005-5.29-5.005a9.228,9.228,0,0,1-8.288.807,16.629,16.629,0,0,0-.27,6.422c.6,3.094,4.372,22.976,4.372,22.976,5.943,1.2,15.081-1.212,15.081-1.212-3.785-6.72-4.636-21.064-5.606-23.989Z" transform="translate(-578.687 -634.424)" fill="#7e19b8"/>
    <path id="Trazado_599701" data-name="Trazado 599701" d="M712.285,621.078l1.94,8.713c.186.767-.514.642-1.29.5-1.271-.239-2.908-.733-3.456-1.722a.95.95,0,0,1-.1-.329l-.833-6.042a1.086,1.086,0,0,1,.636-1.141l1.608-.713a1.085,1.085,0,0,1,1.5.737Z" transform="translate(-589.88 -491.898)" fill="#feb9b8"/>
    <path id="Trazado_599702" data-name="Trazado 599702" d="M694.451,574.992a8.6,8.6,0,0,0-3.859,4.29c-1.562,3.32-.4,4.853,1.07,5.063a6.86,6.86,0,0,0,5.975-1.966c2.318-2.144-.2-8.537-3.185-7.387Z" transform="translate(-574.321 -454.109)" fill="#febbba"/>
    <path id="Trazado_599703" data-name="Trazado 599703" d="M706.845,565.9s1.733-4.857-2.573-4.914l-1.013.708s-1.58-2.693,1.013-3.978,5.629-.224,6.732,3.27,1.292,5.833-.544,7.5-2.593-.224-2.593-.224,1-1.564.593-2.4-1.346.173-1.346.173l-.269-.139Z" transform="translate(-585.089 -439.399)" fill="#263c71"/>
    <path id="Trazado_599704" data-name="Trazado 599704" d="M725.532,606.17s.876-2.5,2.046-1.505-.95,2.311-1.78,2.737l-.265-1.231Z" transform="translate(-604.029 -478.731)" fill="#febbba"/>
    <path id="Trazado_599705" data-name="Trazado 599705" d="M749.244,591.129s28.248-3.224,17.026-28.119l-1.806,1.548s3.224,17.542-12.489,20.012c0,0-2.864,4.324-2.731,6.558Z" transform="translate(-623.767 -444.248)" fill="#fff"/>
    <path id="Trazado_599706" data-name="Trazado 599706" d="M834.628,544.6s2.159-3.452.51-4.681-3.179.264-3.943,1.011,1.311,4.1,1.913,4.408,1.521-.738,1.521-.738Z" transform="translate(-691.858 -424.631)" fill="#febbba"/>
    <path id="Trazado_599707" data-name="Trazado 599707" d="M555.384,526.337a4.653,4.653,0,0,1,2.079-3.159.927.927,0,0,1,1.075.151,2.744,2.744,0,0,1,.7,2.781c-1.7,1.622-3.114,2.192-3.855.226Z" transform="translate(-462.375 -410.997)" fill="#feb8b7"/>
  </g>
</svg>
