<svg xmlns="http://www.w3.org/2000/svg" xmlns:xlink="http://www.w3.org/1999/xlink" width="1030" height="434.294" viewBox="0 0 1030 434.294">
  <defs>
    <clipPath id="clip-path">
      <rect id="Rectángulo_347497" data-name="Rectángulo 347497" width="1030" height="434.294" fill="none"/>
    </clipPath>
  </defs>
  <g id="Grupo_1014630" data-name="Grupo 1014630" transform="translate(-285 -5487.464)">
    <g id="Grupo_1014621" data-name="Grupo 1014621" transform="translate(285 5487.464)">
      <g id="Grupo_1014620" data-name="Grupo 1014620" clip-path="url(#clip-path)">
        <path id="Trazado_604782" data-name="Trazado 604782" d="M1009.987,60.166a24.888,24.888,0,0,0-8.539,4.019c-4.917-6.834-13.69-10.083-23.715-7.786a33.6,33.6,0,0,0-9.92,4.087A15.145,15.145,0,0,0,956,48.793c.03-.543.048-1.088.048-1.632,0-15.72-12.617-25.684-28.219-22.513a33.01,33.01,0,0,0-9.387,3.5c-5.869-13.888-20.43-21.691-37.514-18.628-12.6,2.265-23.873,9.962-31.286,20.265a23.348,23.348,0,0,0-9.115-.292,29.416,29.416,0,0,0-17.63,10.23,7.286,7.286,0,0,0-8.6-6.227,10.485,10.485,0,0,0-8.459,7.937,29.244,29.244,0,0,0-8.117,0,35.06,35.06,0,0,0-23.282,14.314,32.888,32.888,0,0,0-22.448-5.2,41.24,41.24,0,0,0-35.174,32.735,13.4,13.4,0,0,0-9.1-2.348c-.467.043-.929.11-1.384.2-2.813-9.76-12.048-16.262-23.022-15.368a25.987,25.987,0,0,0-14.467,5.974,13.7,13.7,0,0,0-14.48-10.224,15.725,15.725,0,0,0-5.759,1.526,16.256,16.256,0,0,0-16.651-11.111A18.711,18.711,0,0,0,615.21,65.225a28.646,28.646,0,0,0-8.993-1.021c-15.831.7-28.671,13.8-28.671,29.524,0,.763.039,1.516.1,2.262a27.717,27.717,0,0,0-7.589-.846,28.282,28.282,0,0,0-13.508,3.842c-.5-18.995-16.168-33.9-35.44-33.844a35.325,35.325,0,0,0-34.855,28.518,19.411,19.411,0,0,0-11.062-4.1c-6.159-27.9-31.117-49.179-60.949-50.648A60.726,60.726,0,0,0,375.06,50.388a34.356,34.356,0,0,0-25.9-15.676c-10.824-.867-20.349,3.767-25.926,11.581a23.762,23.762,0,0,0-13.665-6.225,19.139,19.139,0,0,0-18.478,8.653c-12.305-.9-23.124,3.987-29.847,12.484a19.924,19.924,0,0,0-11.321-5.62,15.955,15.955,0,0,0-9.755,1.71c-7.507-13.223-21-23.232-36.375-25.573C192.281,29.974,181.857,32.858,174.2,39a21.3,21.3,0,0,0-13.423-8.695,15.592,15.592,0,0,0-9.355,1.118C141.848,16.265,126.171,4.617,108.5,1.074,88.2-2.983,70.637,4.717,61.886,19.694a36.7,36.7,0,0,0-6.88-2.323c-17.46-3.974-31.57,6.855-31.57,24.513,0,.345.015.689.026,1.033a21.31,21.31,0,0,0-5.886-2.474C7.861,38.041,0,44,0,53.859V316.776a2070.862,2070.862,0,0,0,1030,0V75.452c0-11.223-8.95-18.008-20.013-15.286" transform="translate(0 0)" fill="#f3fdff"/>
        <path id="Trazado_604783" data-name="Trazado 604783" d="M506.135,213.157l.772-33.365H483.472v-48.3H469.557V141.76H455.642v9.4H441.728V199.62h-10.7V177.089h-3.811V174.6H402.4v2.485h-3.81v46.983h-7.758V163.69H387.02V161.2H362.2v2.485h-3.811v34.77h-8.444V177.089h-3.811V174.6H321.315v2.485H317.5v8.044l-7.965,8.851v14.838H298.888v-9.2h-5.5V177.089H273.12V163.75l-8.643-7.608v-21.6h-9.082V113.5h-2.053v21.048h-9.082v81.9H232.33V191.227h-6.28v-6.093l-13.744,6.093h-3.366V176.074L192.5,154.113l-16.442,21.96V227.6H168.34v10.012H156.95V196.748h-9.438l.393-16.956H136.983v-4.857H125.917l-1.7-29.368-1.7,29.368h-2.128v4.857h-2.873l1.051,45.41h-2.039V205.168L93.642,191.227v25.222H70.761v-19.7H56.636V185.133L32.442,202.76V185.133L0,208.767V381.475H517.154V213.157Z" transform="translate(0 -16.079)" fill="#b2e0ea"/>
        <path id="Trazado_604784" data-name="Trazado 604784" d="M492.959,288.784V248.695l-38.988-39.489v85.186h-7.577v19.7H423.513V288.87L400.63,302.812v20.034h-2.841l1.855-56.8h-3.158v-5.337H378.243v5.337h-12l.609,18.635H356.3v50.577h-6.756V243.224l-20.664-27.6-20.664,27.6V288.87h-3.366l-13.744-6.093v6.093h-6.281v25.222H272.9v-81.9H252.678v21.6l-8.643,7.608v13.34h-20.27v22.53h-5.5v9.2h-20.9V291.628l-7.965-8.851v-8.043h-3.811v-2.485h-24.82v2.485h-3.811V296.1h-4.636V256.972h-4.705V253.9H116.974v3.069h-4.705v64.742H108.32V274.733h-3.811v-2.485H79.689v2.485H75.878v22.53H73.173V275.006H54.012l-.076-59.662V203.755H36.78V191.1H19.625v23.433L0,244.46V431.952H122.516v.042h40.058v-.042H517.155V306.411Z" transform="translate(0 -27.072)" fill="#9bd3dd"/>
        <path id="Trazado_604785" data-name="Trazado 604785" d="M1103.625,213.157l.772-33.365h-23.436v-48.3h-13.915V141.76h-13.915v9.4h-13.914V199.62h-10.7V177.089h-3.811V174.6H999.889v2.485h-3.811v46.983H988.32V163.69h-3.811V161.2H959.69v2.485h-3.811v34.77h-8.444V177.089h-3.811V174.6H918.8v2.485h-3.811v8.044l-7.965,8.851v14.838H896.378v-9.2h-5.5V177.089h-20.27V163.75l-8.643-7.608v-21.6h-9.082V113.5h-2.053v21.048h-9.082v81.9H829.82V191.227h-6.28v-6.093L809.8,191.227H806.43V176.074l-16.441-21.96-16.442,21.96V227.6h-7.717v10.012h-11.39V196.748H745l.393-16.956H734.473v-4.857H723.406l-1.7-29.368L720,174.935h-2.128v4.857H715l1.051,45.41h-2.039V205.168l-22.881-13.941v25.222H668.25v-19.7H654.126V185.133L629.931,202.76V185.133L597.49,208.767V381.475h517.155V213.157Z" transform="translate(-84.644 -16.079)" fill="#cbf1f9"/>
        <path id="Trazado_604786" data-name="Trazado 604786" d="M1090.449,288.784V248.695l-38.988-39.489v85.186h-7.577v19.7H1021V288.87L998.12,302.812v20.034h-2.841l1.855-56.8h-3.158v-5.337H975.733v5.337h-12l.609,18.635h-10.55v50.577h-6.756V243.224l-20.664-27.6-20.664,27.6V288.87h-3.366l-13.743-6.093v6.093h-6.281v25.222H870.385v-81.9H850.168v21.6l-8.643,7.608v13.34H821.253v22.53h-5.5v9.2h-20.9V291.628l-7.965-8.851v-8.043h-3.811v-2.485h-24.82v2.485h-3.811V296.1h-4.636V256.972h-4.705V253.9H714.464v3.069h-4.706v64.742h-3.948V274.733H702v-2.485h-24.82v2.485h-3.811v22.53h-2.705V275.006H651.5l-.076-59.662V203.755H634.27V191.1H617.114v23.433L597.489,244.46V431.952H720.005v.042h40.058v-.042h354.582V306.411Z" transform="translate(-84.644 -27.072)" fill="#b2e0ea"/>
        <rect id="Rectángulo_347495" data-name="Rectángulo 347495" width="1030" height="40.418" transform="translate(0 393.876)" fill="#333231"/>
        <rect id="Rectángulo_347496" data-name="Rectángulo 347496" width="1030" height="13.577" transform="translate(0 393.876)" fill="#4c4c4c"/>
      </g>
    </g>
    <g id="Group_7_4_" data-name="Group 7 (4)" transform="translate(285 5538.333)">
      <g id="Grupo_1013393" data-name="Grupo 1013393" transform="translate(0 358.758)" opacity="0.3">
        <path id="Trazado_599799" data-name="Trazado 599799" d="M751.71,641.415c0,.147-168.29.273-375.835.273S0,641.562,0,641.415s168.254-.273,375.875-.273S751.71,641.268,751.71,641.415Z" transform="translate(0 -641.142)"/>
      </g>
      <path id="Trazado_599800" data-name="Trazado 599800" d="M829.032,323.894v-110.9h7.745V197.5H945.21v15.49h7.149v110.9Z" transform="translate(-365.641 -86.719)" fill="#263c71"/>
      <path id="Trazado_599801" data-name="Trazado 599801" d="M948.912,225.115c0,.147-26.835.273-59.926.273s-59.937-.126-59.937-.273,26.825-.273,59.937-.273S948.912,224.968,948.912,225.115Z" transform="translate(-365.649 -98.777)" fill="#1c2d55"/>
      <path id="Trazado_599802" data-name="Trazado 599802" d="M950.322,238.4H848.6v11.251H950.322Z" transform="translate(-374.27 -104.755)" fill="#fff"/>
      <path id="Trazado_599803" data-name="Trazado 599803" d="M864.1,249.649a29.6,29.6,0,0,1-.273-5.625,29.6,29.6,0,0,1,.273-5.625,29.591,29.591,0,0,1,.273,5.625A29.591,29.591,0,0,1,864.1,249.649Z" transform="translate(-380.986 -104.755)" fill="#e0e0e0"/>
      <path id="Trazado_599804" data-name="Trazado 599804" d="M880.282,249.649a29.6,29.6,0,0,1-.273-5.625,29.6,29.6,0,0,1,.273-5.625,29.594,29.594,0,0,1,.273,5.625A29.594,29.594,0,0,1,880.282,249.649Z" transform="translate(-388.124 -104.755)" fill="#e0e0e0"/>
      <path id="Trazado_599805" data-name="Trazado 599805" d="M896.485,249.649a29.6,29.6,0,0,1-.273-5.625,29.6,29.6,0,0,1,.273-5.625,29.594,29.594,0,0,1,.273,5.625A29.594,29.594,0,0,1,896.485,249.649Z" transform="translate(-395.27 -104.755)" fill="#e0e0e0"/>
      <path id="Trazado_599806" data-name="Trazado 599806" d="M912.69,249.649a29.591,29.591,0,0,1-.273-5.625,29.591,29.591,0,0,1,.273-5.625,29.6,29.6,0,0,1,.273,5.625A29.6,29.6,0,0,1,912.69,249.649Z" transform="translate(-402.417 -104.755)" fill="#e0e0e0"/>
      <path id="Trazado_599807" data-name="Trazado 599807" d="M928.893,249.649a29.6,29.6,0,0,1-.273-5.625,29.6,29.6,0,0,1,.273-5.625,29.6,29.6,0,0,1,.273,5.625A29.6,29.6,0,0,1,928.893,249.649Z" transform="translate(-409.564 -104.755)" fill="#e0e0e0"/>
      <path id="Trazado_599808" data-name="Trazado 599808" d="M945.078,249.649a29.609,29.609,0,0,1-.273-5.625,29.61,29.61,0,0,1,.273-5.625,29.591,29.591,0,0,1,.273,5.625A29.591,29.591,0,0,1,945.078,249.649Z" transform="translate(-416.702 -104.755)" fill="#e0e0e0"/>
      <path id="Trazado_599809" data-name="Trazado 599809" d="M961.281,249.649a29.585,29.585,0,0,1-.273-5.625,29.585,29.585,0,0,1,.273-5.625,29.6,29.6,0,0,1,.273,5.625A29.6,29.6,0,0,1,961.281,249.649Z" transform="translate(-423.848 -104.755)" fill="#e0e0e0"/>
      <path id="Trazado_599810" data-name="Trazado 599810" d="M977.485,249.649a29.6,29.6,0,0,1-.273-5.625,29.6,29.6,0,0,1,.273-5.625,29.6,29.6,0,0,1,.273,5.625A29.6,29.6,0,0,1,977.485,249.649Z" transform="translate(-430.995 -104.755)" fill="#e0e0e0"/>
      <path id="Trazado_599811" data-name="Trazado 599811" d="M993.688,249.649a29.582,29.582,0,0,1-.273-5.625,29.582,29.582,0,0,1,.273-5.625,29.6,29.6,0,0,1,.273,5.625A29.6,29.6,0,0,1,993.688,249.649Z" transform="translate(-438.141 -104.755)" fill="#e0e0e0"/>
      <path id="Trazado_599812" data-name="Trazado 599812" d="M1009.874,249.649a29.7,29.7,0,0,1-.274-5.625,29.7,29.7,0,0,1,.274-5.625,29.7,29.7,0,0,1,.274,5.625A29.7,29.7,0,0,1,1009.874,249.649Z" transform="translate(-445.28 -104.755)" fill="#e0e0e0"/>
      <path id="Trazado_599813" data-name="Trazado 599813" d="M950.322,273.265H848.6v11.251H950.322Z" transform="translate(-374.27 -120.133)" fill="#fff"/>
      <path id="Trazado_599814" data-name="Trazado 599814" d="M864.1,284.516a58.155,58.155,0,0,1,0-11.251,58.13,58.13,0,0,1,0,11.251Z" transform="translate(-380.986 -120.133)" fill="#e0e0e0"/>
      <path id="Trazado_599815" data-name="Trazado 599815" d="M880.282,284.516a58.13,58.13,0,0,1,0-11.251,58.143,58.143,0,0,1,0,11.251Z" transform="translate(-388.124 -120.133)" fill="#e0e0e0"/>
      <path id="Trazado_599816" data-name="Trazado 599816" d="M896.485,284.516a58.155,58.155,0,0,1,0-11.251,58.143,58.143,0,0,1,0,11.251Z" transform="translate(-395.27 -120.133)" fill="#e0e0e0"/>
      <path id="Trazado_599817" data-name="Trazado 599817" d="M912.69,284.516a58.13,58.13,0,0,1,0-11.251,58.155,58.155,0,0,1,0,11.251Z" transform="translate(-402.417 -120.133)" fill="#e0e0e0"/>
      <path id="Trazado_599818" data-name="Trazado 599818" d="M928.893,284.516a58.13,58.13,0,0,1,0-11.251,58.155,58.155,0,0,1,0,11.251Z" transform="translate(-409.564 -120.133)" fill="#e0e0e0"/>
      <path id="Trazado_599819" data-name="Trazado 599819" d="M945.078,284.516a58.155,58.155,0,0,1,0-11.251,58.13,58.13,0,0,1,0,11.251Z" transform="translate(-416.702 -120.133)" fill="#e0e0e0"/>
      <path id="Trazado_599820" data-name="Trazado 599820" d="M961.281,284.516a58.13,58.13,0,0,1,0-11.251,58.155,58.155,0,0,1,0,11.251Z" transform="translate(-423.848 -120.133)" fill="#e0e0e0"/>
      <path id="Trazado_599821" data-name="Trazado 599821" d="M977.485,284.516a58.155,58.155,0,0,1,0-11.251,58.143,58.143,0,0,1,0,11.251Z" transform="translate(-430.995 -120.133)" fill="#e0e0e0"/>
      <path id="Trazado_599822" data-name="Trazado 599822" d="M993.688,284.516a58.117,58.117,0,0,1,0-11.251,58.155,58.155,0,0,1,0,11.251Z" transform="translate(-438.141 -120.133)" fill="#e0e0e0"/>
      <path id="Trazado_599823" data-name="Trazado 599823" d="M1009.874,284.516a57.91,57.91,0,0,1,0-11.251,57.9,57.9,0,0,1,0,11.251Z" transform="translate(-445.28 -120.133)" fill="#e0e0e0"/>
      <path id="Trazado_599824" data-name="Trazado 599824" d="M950.322,308.113H848.6v11.251H950.322Z" transform="translate(-374.27 -135.503)" fill="#fff"/>
      <path id="Trazado_599825" data-name="Trazado 599825" d="M864.1,319.364a58.155,58.155,0,0,1,0-11.251,58.129,58.129,0,0,1,0,11.251Z" transform="translate(-380.986 -135.503)" fill="#e0e0e0"/>
      <path id="Trazado_599826" data-name="Trazado 599826" d="M880.282,319.364a58.129,58.129,0,0,1,0-11.251,58.142,58.142,0,0,1,0,11.251Z" transform="translate(-388.124 -135.503)" fill="#e0e0e0"/>
      <path id="Trazado_599827" data-name="Trazado 599827" d="M896.485,319.364a58.155,58.155,0,0,1,0-11.251,58.142,58.142,0,0,1,0,11.251Z" transform="translate(-395.27 -135.503)" fill="#e0e0e0"/>
      <path id="Trazado_599828" data-name="Trazado 599828" d="M912.69,319.364a58.129,58.129,0,0,1,0-11.251,58.155,58.155,0,0,1,0,11.251Z" transform="translate(-402.417 -135.503)" fill="#e0e0e0"/>
      <path id="Trazado_599829" data-name="Trazado 599829" d="M928.893,319.364a58.129,58.129,0,0,1,0-11.251,58.155,58.155,0,0,1,0,11.251Z" transform="translate(-409.564 -135.503)" fill="#e0e0e0"/>
      <path id="Trazado_599830" data-name="Trazado 599830" d="M945.078,319.364a58.155,58.155,0,0,1,0-11.251,58.129,58.129,0,0,1,0,11.251Z" transform="translate(-416.702 -135.503)" fill="#e0e0e0"/>
      <path id="Trazado_599831" data-name="Trazado 599831" d="M961.281,319.364a58.129,58.129,0,0,1,0-11.251,58.155,58.155,0,0,1,0,11.251Z" transform="translate(-423.848 -135.503)" fill="#e0e0e0"/>
      <path id="Trazado_599832" data-name="Trazado 599832" d="M977.485,319.364a58.155,58.155,0,0,1,0-11.251,58.142,58.142,0,0,1,0,11.251Z" transform="translate(-430.995 -135.503)" fill="#e0e0e0"/>
      <path id="Trazado_599833" data-name="Trazado 599833" d="M993.688,319.364a58.116,58.116,0,0,1,0-11.251,58.155,58.155,0,0,1,0,11.251Z" transform="translate(-438.141 -135.503)" fill="#e0e0e0"/>
      <path id="Trazado_599834" data-name="Trazado 599834" d="M1009.874,319.364a57.91,57.91,0,0,1,0-11.251,57.9,57.9,0,0,1,0,11.251Z" transform="translate(-445.28 -135.503)" fill="#e0e0e0"/>
      <path id="Trazado_599835" data-name="Trazado 599835" d="M950.322,342.98H848.6v11.251H950.322Z" transform="translate(-374.27 -150.881)" fill="#fff"/>
      <path id="Trazado_599836" data-name="Trazado 599836" d="M864.1,354.231a58.155,58.155,0,0,1,0-11.251,58.13,58.13,0,0,1,0,11.251Z" transform="translate(-380.986 -150.881)" fill="#e0e0e0"/>
      <path id="Trazado_599837" data-name="Trazado 599837" d="M880.282,354.231a58.13,58.13,0,0,1,0-11.251,58.143,58.143,0,0,1,0,11.251Z" transform="translate(-388.124 -150.881)" fill="#e0e0e0"/>
      <path id="Trazado_599838" data-name="Trazado 599838" d="M896.485,354.231a58.155,58.155,0,0,1,0-11.251,58.143,58.143,0,0,1,0,11.251Z" transform="translate(-395.27 -150.881)" fill="#e0e0e0"/>
      <path id="Trazado_599839" data-name="Trazado 599839" d="M912.69,354.231a58.13,58.13,0,0,1,0-11.251,58.155,58.155,0,0,1,0,11.251Z" transform="translate(-402.417 -150.881)" fill="#e0e0e0"/>
      <path id="Trazado_599840" data-name="Trazado 599840" d="M928.893,354.231a58.13,58.13,0,0,1,0-11.251,58.155,58.155,0,0,1,0,11.251Z" transform="translate(-409.564 -150.881)" fill="#e0e0e0"/>
      <path id="Trazado_599841" data-name="Trazado 599841" d="M945.078,354.231a58.155,58.155,0,0,1,0-11.251,58.13,58.13,0,0,1,0,11.251Z" transform="translate(-416.702 -150.881)" fill="#e0e0e0"/>
      <path id="Trazado_599842" data-name="Trazado 599842" d="M961.281,354.231a58.13,58.13,0,0,1,0-11.251,58.155,58.155,0,0,1,0,11.251Z" transform="translate(-423.848 -150.881)" fill="#e0e0e0"/>
      <path id="Trazado_599843" data-name="Trazado 599843" d="M977.485,354.231a58.155,58.155,0,0,1,0-11.251,58.143,58.143,0,0,1,0,11.251Z" transform="translate(-430.995 -150.881)" fill="#e0e0e0"/>
      <path id="Trazado_599844" data-name="Trazado 599844" d="M993.688,354.231a58.117,58.117,0,0,1,0-11.251,58.155,58.155,0,0,1,0,11.251Z" transform="translate(-438.141 -150.881)" fill="#e0e0e0"/>
      <path id="Trazado_599845" data-name="Trazado 599845" d="M1009.874,354.231a57.91,57.91,0,0,1,0-11.251,57.9,57.9,0,0,1,0,11.251Z" transform="translate(-445.28 -150.881)" fill="#e0e0e0"/>
      <path id="Trazado_599846" data-name="Trazado 599846" d="M950.322,377.828H848.6v11.251H950.322Z" transform="translate(-374.27 -166.25)" fill="#fff"/>
      <path id="Trazado_599847" data-name="Trazado 599847" d="M864.1,389.079a58.155,58.155,0,0,1,0-11.251,58.129,58.129,0,0,1,0,11.251Z" transform="translate(-380.986 -166.25)" fill="#e0e0e0"/>
      <path id="Trazado_599848" data-name="Trazado 599848" d="M880.282,389.079a58.129,58.129,0,0,1,0-11.251,58.142,58.142,0,0,1,0,11.251Z" transform="translate(-388.124 -166.25)" fill="#e0e0e0"/>
      <path id="Trazado_599849" data-name="Trazado 599849" d="M896.485,389.079a58.155,58.155,0,0,1,0-11.251,58.142,58.142,0,0,1,0,11.251Z" transform="translate(-395.27 -166.25)" fill="#e0e0e0"/>
      <path id="Trazado_599850" data-name="Trazado 599850" d="M912.69,389.079a58.129,58.129,0,0,1,0-11.251,58.155,58.155,0,0,1,0,11.251Z" transform="translate(-402.417 -166.25)" fill="#e0e0e0"/>
      <path id="Trazado_599851" data-name="Trazado 599851" d="M928.893,389.079a58.129,58.129,0,0,1,0-11.251,58.155,58.155,0,0,1,0,11.251Z" transform="translate(-409.564 -166.25)" fill="#e0e0e0"/>
      <path id="Trazado_599852" data-name="Trazado 599852" d="M945.078,389.079a58.155,58.155,0,0,1,0-11.251,58.129,58.129,0,0,1,0,11.251Z" transform="translate(-416.702 -166.25)" fill="#e0e0e0"/>
      <path id="Trazado_599853" data-name="Trazado 599853" d="M961.281,389.079a58.129,58.129,0,0,1,0-11.251,58.155,58.155,0,0,1,0,11.251Z" transform="translate(-423.848 -166.25)" fill="#e0e0e0"/>
      <path id="Trazado_599854" data-name="Trazado 599854" d="M977.485,389.079a58.155,58.155,0,0,1,0-11.251,58.142,58.142,0,0,1,0,11.251Z" transform="translate(-430.995 -166.25)" fill="#e0e0e0"/>
      <path id="Trazado_599855" data-name="Trazado 599855" d="M993.688,389.079a58.116,58.116,0,0,1,0-11.251,58.155,58.155,0,0,1,0,11.251Z" transform="translate(-438.141 -166.25)" fill="#e0e0e0"/>
      <path id="Trazado_599856" data-name="Trazado 599856" d="M1009.874,389.079a57.91,57.91,0,0,1,0-11.251,57.9,57.9,0,0,1,0,11.251Z" transform="translate(-445.28 -166.25)" fill="#e0e0e0"/>
      <path id="Trazado_599857" data-name="Trazado 599857" d="M914.4,416.112H618.535V542.156H914.4Z" transform="translate(-272.802 -183.135)" fill="#263c71"/>
      <path id="Trazado_599858" data-name="Trazado 599858" d="M955,457.212H759.749v27.234H955Z" transform="translate(-335.084 -201.262)" fill="#fff"/>
      <path id="Trazado_599859" data-name="Trazado 599859" d="M921.841,545.891H810.481V599.4h111.36Z" transform="translate(-357.459 -240.374)" fill="#1c2d55"/>
      <g id="Grupo_1013394" data-name="Grupo 1013394" transform="translate(412.759 299.692)" opacity="0.3">
        <path id="Trazado_599860" data-name="Trazado 599860" d="M764.732,546.133s-.021-.273-.042-.745c-.011-.525-.032-1.217-.042-2.068-.021-1.837-.063-4.377-.105-7.515l.189.189c-6.633.021-15.847.053-26.038.084l.273-.273v10.338l-.262-.263c7.472.053,13.926.094,18.6.126,2.277.031,4.114.052,5.446.073.6.011,1.092.021,1.47.031a3.922,3.922,0,0,1,.535.032,2.47,2.47,0,0,1-.472.031c-.368,0-.84.021-1.417.031-1.323.021-3.138.042-5.384.074-4.713.031-11.23.073-18.765.126h-.262v-10.6c-.063.053.514-.524.273-.273,10.191.031,19.405.063,26.038.084h.189v.189c-.042,3.18-.084,5.772-.105,7.63-.021.84-.031,1.511-.042,2.026a3.878,3.878,0,0,1-.042.682Z" transform="translate(-738.448 -535.469)"/>
      </g>
      <g id="Grupo_1013395" data-name="Grupo 1013395" transform="translate(605.153 238.192)" opacity="0.3">
        <path id="Trazado_599861" data-name="Trazado 599861" d="M1108.933,436.116s-.017-.273-.039-.745c-.011-.525-.034-1.217-.045-2.068-.017-1.837-.062-4.377-.1-7.515l.184.189c-6.629.021-15.846.052-26.036.084-.24.241.324-.335.274-.273v10.327l-.263-.263c7.473.053,13.924.094,18.6.126,2.275.031,4.114.053,5.444.073.6.011,1.1.021,1.47.031a4,4,0,0,1,.537.032,2.379,2.379,0,0,1-.47.031c-.369,0-.844.021-1.42.031-1.319.021-3.136.043-5.383.074-4.712.031-11.229.073-18.764.126h-.263v-10.6c-.062.053.514-.524.274-.273l26.036.084h.19v.189c-.045,3.18-.084,5.772-.106,7.63-.022.84-.034,1.511-.05,2.025a3.738,3.738,0,0,1-.045.682Z" transform="translate(-1082.652 -425.442)"/>
      </g>
      <g id="Grupo_1013396" data-name="Grupo 1013396" transform="translate(425.347 289.177)" opacity="0.3">
        <path id="Trazado_599862" data-name="Trazado 599862" d="M787.007,516.658H760.969V527h26.038Z" transform="translate(-760.969 -516.658)"/>
      </g>
      <path id="Trazado_599863" data-name="Trazado 599863" d="M955,480.787c0,.147-43.716.273-97.625.273s-97.624-.126-97.624-.273,43.7-.273,97.624-.273S955,480.64,955,480.787Z" transform="translate(-335.084 -211.54)" fill="#263c71"/>
      <path id="Trazado_599864" data-name="Trazado 599864" d="M779.342,484.816c-.147,0-.273-6.863-.273-15.323s.126-15.323.273-15.323.273,6.864.273,15.323S779.489,484.816,779.342,484.816Z" transform="translate(-343.605 -199.921)" fill="#263c71"/>
      <path id="Trazado_599865" data-name="Trazado 599865" d="M800.428,484.816c-.147,0-.273-6.863-.273-15.323s.126-15.323.273-15.323.273,6.864.273,15.323S800.575,484.816,800.428,484.816Z" transform="translate(-352.905 -199.921)" fill="#263c71"/>
      <path id="Trazado_599866" data-name="Trazado 599866" d="M822.452,484.816c-.147,0-.273-6.863-.273-15.323s.126-15.323.273-15.323.273,6.864.273,15.323S822.6,484.816,822.452,484.816Z" transform="translate(-362.618 -199.921)" fill="#263c71"/>
      <path id="Trazado_599867" data-name="Trazado 599867" d="M844.495,484.816c-.147,0-.273-6.863-.273-15.323s.126-15.323.273-15.323.273,6.864.273,15.323S844.642,484.816,844.495,484.816Z" transform="translate(-372.34 -199.921)" fill="#263c71"/>
      <path id="Trazado_599868" data-name="Trazado 599868" d="M866.519,484.816c-.147,0-.273-6.863-.273-15.323s.126-15.323.273-15.323.273,6.864.273,15.323S866.666,484.816,866.519,484.816Z" transform="translate(-382.054 -199.921)" fill="#263c71"/>
      <path id="Trazado_599869" data-name="Trazado 599869" d="M888.544,484.816c-.147,0-.273-6.863-.273-15.323s.126-15.323.273-15.323.273,6.864.273,15.323S888.691,484.816,888.544,484.816Z" transform="translate(-391.768 -199.921)" fill="#263c71"/>
      <path id="Trazado_599870" data-name="Trazado 599870" d="M910.586,484.816c-.147,0-.273-6.863-.273-15.323s.126-15.323.273-15.323.273,6.864.273,15.323S910.733,484.816,910.586,484.816Z" transform="translate(-401.49 -199.921)" fill="#263c71"/>
      <path id="Trazado_599871" data-name="Trazado 599871" d="M932.61,484.816c-.147,0-.273-6.863-.273-15.323s.126-15.323.273-15.323.273,6.864.273,15.323S932.757,484.816,932.61,484.816Z" transform="translate(-411.203 -199.921)" fill="#263c71"/>
      <path id="Trazado_599872" data-name="Trazado 599872" d="M954.635,484.816c-.147,0-.273-6.863-.273-15.323s.126-15.323.273-15.323.273,6.864.273,15.323S954.782,484.816,954.635,484.816Z" transform="translate(-420.917 -199.921)" fill="#263c71"/>
      <path id="Trazado_599873" data-name="Trazado 599873" d="M976.659,484.816c-.147,0-.273-6.863-.273-15.323s.126-15.323.273-15.323.273,6.864.273,15.323S976.806,484.816,976.659,484.816Z" transform="translate(-430.631 -199.921)" fill="#263c71"/>
      <path id="Trazado_599874" data-name="Trazado 599874" d="M998.7,484.816c-.147,0-.273-6.863-.273-15.323s.126-15.323.273-15.323.273,6.864.273,15.323S998.849,484.816,998.7,484.816Z" transform="translate(-440.353 -199.921)" fill="#263c71"/>
      <path id="Trazado_599875" data-name="Trazado 599875" d="M1020.724,484.816c-.145,0-.274-6.863-.274-15.323s.129-15.323.274-15.323.274,6.864.274,15.323S1020.869,484.816,1020.724,484.816Z" transform="translate(-450.065 -199.921)" fill="#263c71"/>
      <path id="Trazado_599876" data-name="Trazado 599876" d="M1042.754,484.816c-.151,0-.274-6.863-.274-15.323s.123-15.323.274-15.323.268,6.864.268,15.323S1042.9,484.816,1042.754,484.816Z" transform="translate(-459.781 -199.921)" fill="#263c71"/>
      <path id="Trazado_599877" data-name="Trazado 599877" d="M1064.794,484.816c-.145,0-.274-6.863-.274-15.323s.129-15.323.274-15.323.274,6.864.274,15.323S1064.939,484.816,1064.794,484.816Z" transform="translate(-469.502 -199.921)" fill="#263c71"/>
      <path id="Trazado_599878" data-name="Trazado 599878" d="M1086.814,484.816c-.145,0-.274-6.863-.274-15.323s.129-15.323.274-15.323.274,6.864.274,15.323S1086.959,484.816,1086.814,484.816Z" transform="translate(-479.214 -199.921)" fill="#263c71"/>
      <path id="Trazado_599879" data-name="Trazado 599879" d="M1108.844,484.816c-.151,0-.274-6.863-.274-15.323s.123-15.323.274-15.323.274,6.864.274,15.323S1108.989,484.816,1108.844,484.816Z" transform="translate(-488.93 -199.921)" fill="#263c71"/>
      <path id="Trazado_599880" data-name="Trazado 599880" d="M962.164,594.464h-17.1v13.181h17.1Z" transform="translate(-416.818 -261.797)" fill="#60cb28"/>
      <g id="Grupo_1013397" data-name="Grupo 1013397" transform="translate(528.25 332.667)" opacity="0.3">
        <path id="Trazado_599881" data-name="Trazado 599881" d="M962.164,594.464h-17.1v13.181h17.1Z" transform="translate(-945.068 -594.464)"/>
      </g>
      <path id="Trazado_599882" data-name="Trazado 599882" d="M967.969,607.527s-.031-2.938-.031-6.559.011-6.559.031-6.559.032,2.938.032,6.559S967.991,607.527,967.969,607.527Z" transform="translate(-426.905 -261.772)" fill="#1c2d55"/>
      <path id="Trazado_599883" data-name="Trazado 599883" d="M972.028,612.677h-1.312v1.48h1.312Z" transform="translate(-428.13 -269.829)" fill="#f5f5f5"/>
      <path id="Trazado_599884" data-name="Trazado 599884" d="M956.342,594.521H954.4v2.813h1.942Z" transform="translate(-420.934 -261.822)" fill="#1c2d55"/>
      <path id="Trazado_599885" data-name="Trazado 599885" d="M956.342,612.958H954.4v2.813h1.942Z" transform="translate(-420.934 -269.954)" fill="#1c2d55"/>
      <path id="Trazado_599886" data-name="Trazado 599886" d="M987.622,594.446H970.528v13.181h17.094Z" transform="translate(-428.047 -261.789)" fill="#60cb28"/>
      <path id="Trazado_599887" data-name="Trazado 599887" d="M993.411,607.509s-.032-2.938-.032-6.559.011-6.559.032-6.559.031,2.938.031,6.559S993.432,607.509,993.411,607.509Z" transform="translate(-438.125 -261.764)" fill="#1c2d55"/>
      <path id="Trazado_599888" data-name="Trazado 599888" d="M997.489,612.659h-1.312v1.48h1.312Z" transform="translate(-439.359 -269.822)" fill="#f5f5f5"/>
      <g id="Grupo_1013398" data-name="Grupo 1013398" transform="translate(547.697 332.689)" opacity="0.5">
        <path id="Trazado_599889" data-name="Trazado 599889" d="M981.8,594.5H979.86v2.813H981.8Z" transform="translate(-979.86 -594.503)" fill="#fff"/>
      </g>
      <g id="Grupo_1013399" data-name="Grupo 1013399" transform="translate(547.697 342.984)" opacity="0.5">
        <path id="Trazado_599890" data-name="Trazado 599890" d="M981.8,612.922H979.86v2.813H981.8Z" transform="translate(-979.86 -612.922)" fill="#fff"/>
      </g>
      <path id="Trazado_599891" data-name="Trazado 599891" d="M989.332,570.845H972.237v13.181h17.094Z" transform="translate(-428.801 -251.38)" fill="#60cb28"/>
      <path id="Trazado_599892" data-name="Trazado 599892" d="M995.138,583.926s-.032-2.938-.032-6.559.011-6.559.032-6.559.031,2.938.031,6.559S995.159,583.926,995.138,583.926Z" transform="translate(-438.887 -251.363)" fill="#1c2d55"/>
      <path id="Trazado_599893" data-name="Trazado 599893" d="M999.2,589.076h-1.311v1.48H999.2Z" transform="translate(-440.113 -259.42)" fill="#f5f5f5"/>
      <path id="Trazado_599894" data-name="Trazado 599894" d="M983.511,570.919h-1.942v2.813h1.942Z" transform="translate(-432.917 -251.412)" fill="#1c2d55"/>
      <path id="Trazado_599895" data-name="Trazado 599895" d="M983.511,589.339h-1.942v2.813h1.942Z" transform="translate(-432.917 -259.536)" fill="#1c2d55"/>
      <path id="Trazado_599896" data-name="Trazado 599896" d="M988.639,618.028h-17.1V631.21h17.1Z" transform="translate(-428.494 -272.19)" fill="#60cb28"/>
      <g id="Grupo_1013400" data-name="Grupo 1013400" transform="translate(543.048 345.838)" opacity="0.3">
        <path id="Trazado_599897" data-name="Trazado 599897" d="M988.639,618.028h-17.1V631.21h17.1Z" transform="translate(-971.542 -618.028)"/>
      </g>
      <path id="Trazado_599898" data-name="Trazado 599898" d="M994.443,631.11s-.032-2.939-.032-6.559.011-6.559.032-6.559.031,2.938.031,6.559S994.464,631.11,994.443,631.11Z" transform="translate(-438.581 -272.173)" fill="#1c2d55"/>
      <path id="Trazado_599899" data-name="Trazado 599899" d="M998.5,636.259H997.19v1.48H998.5Z" transform="translate(-439.806 -280.23)" fill="#f5f5f5"/>
      <path id="Trazado_599900" data-name="Trazado 599900" d="M982.816,618.1h-1.941v2.812h1.941Z" transform="translate(-432.611 -272.223)" fill="#1c2d55"/>
      <path id="Trazado_599901" data-name="Trazado 599901" d="M982.816,636.522h-1.941v2.813h1.941Z" transform="translate(-432.611 -280.346)" fill="#1c2d55"/>
      <path id="Trazado_599902" data-name="Trazado 599902" d="M956.569,618.028h-17.1V631.21h17.1Z" transform="translate(-414.35 -272.19)" fill="#60cb28"/>
      <path id="Trazado_599903" data-name="Trazado 599903" d="M962.355,631.11s-.032-2.939-.032-6.559.011-6.559.032-6.559.031,2.938.031,6.559S962.376,631.11,962.355,631.11Z" transform="translate(-424.428 -272.173)" fill="#1c2d55"/>
      <path id="Trazado_599904" data-name="Trazado 599904" d="M966.434,636.259h-1.312v1.48h1.312Z" transform="translate(-425.663 -280.23)" fill="#f5f5f5"/>
      <g id="Grupo_1013401" data-name="Grupo 1013401" transform="translate(530.339 345.881)" opacity="0.5">
        <path id="Trazado_599905" data-name="Trazado 599905" d="M950.747,618.1H948.8v2.812h1.942Z" transform="translate(-948.805 -618.104)" fill="#fff"/>
      </g>
      <g id="Grupo_1013402" data-name="Grupo 1013402" transform="translate(530.339 356.176)" opacity="0.5">
        <path id="Trazado_599906" data-name="Trazado 599906" d="M950.747,636.522H948.8v2.813h1.942Z" transform="translate(-948.805 -636.522)" fill="#fff"/>
      </g>
      <path id="Trazado_599907" data-name="Trazado 599907" d="M910.2,544h-4v54.469h4Z" transform="translate(-399.676 -239.538)" fill="#263c71"/>
      <path id="Trazado_599908" data-name="Trazado 599908" d="M962.745,415.9c0,.147-49.652.273-110.891.273s-110.9-.126-110.9-.273,49.641-.273,110.9-.273S962.745,415.751,962.745,415.9Z" transform="translate(-326.795 -182.921)" fill="#1c2d55"/>
      <path id="Trazado_599909" data-name="Trazado 599909" d="M526.25,1.164,517.014,171.5h56.7L564.556,1.164Z" transform="translate(-228.027 -0.124)" fill="#e0e0e0"/>
      <path id="Trazado_599910" data-name="Trazado 599910" d="M571.958,11.26h-39.4l.546-10.1h38.453Z" transform="translate(-234.883 -0.124)" fill="#60cb28"/>
      <path id="Trazado_599911" data-name="Trazado 599911" d="M572.294,62.814H529.632l.724-13.528H571.57Z" transform="translate(-233.592 -21.348)" fill="#60cb28"/>
      <path id="Trazado_599912" data-name="Trazado 599912" d="M572.6,112.515H526.928l.734-13.528H572Z" transform="translate(-232.399 -43.269)" fill="#60cb28"/>
      <path id="Trazado_599913" data-name="Trazado 599913" d="M572.9,162.233H524.224l.735-13.528h47.216Z" transform="translate(-231.207 -65.197)" fill="#60cb28"/>
      <path id="Trazado_599914" data-name="Trazado 599914" d="M573.217,212.049l-51.677-.116.672-13.528h50.281Z" transform="translate(-230.023 -87.117)" fill="#60cb28"/>
      <path id="Trazado_599915" data-name="Trazado 599915" d="M573.525,261.883l-54.689-.231.734-13.528h53.22Z" transform="translate(-228.83 -109.045)" fill="#60cb28"/>
      <path id="Trazado_599916" data-name="Trazado 599916" d="M526.026,1.039s.21,0,.64-.01,1.071,0,1.91-.021c1.7,0,4.208-.021,7.461-.042C542.6.945,552.19.913,564.332.882h.147v.147c2.046,37.32,5.426,99.407,9.288,170.321v.283h-57.26v-.283c2.708-48.8,5.059-91.4,6.738-121.825.85-15.176,1.543-27.308,2-35.662.241-4.156.43-7.367.556-9.55.063-1.07.115-1.9.147-2.456s.063-.819.063-.819,0,.294-.031.861-.063,1.406-.116,2.5c-.115,2.2-.273,5.426-.482,9.613-.441,8.364-1.07,20.528-1.858,35.725-1.616,30.383-3.883,72.929-6.475,121.657l-.263-.283h56.7l-.273.283c-3.768-70.925-7.064-133.023-9.047-170.343l.157.147c-12.111-.031-21.672-.063-28.21-.084-3.264-.021-5.783-.031-7.493-.042-.84,0-1.491-.01-1.931-.021s-.661-.01-.661-.01Z" transform="translate(-227.803 0)" fill="#1c2d55"/>
      <path id="Trazado_599917" data-name="Trazado 599917" d="M569.173,34.654H523.226a4.334,4.334,0,0,1,0-8.669h45.947a4.334,4.334,0,1,1,0,8.669Z" transform="translate(-228.855 -11.072)" fill="#e0e0e0"/>
      <path id="Trazado_599918" data-name="Trazado 599918" d="M568.951,34.455a4.7,4.7,0,0,0,1.176-.22,4.3,4.3,0,0,0,2.55-2.12,4.2,4.2,0,0,0-3.726-6.15c-1.217,0-2.5.011-3.841.021-10.81.021-25.681.052-42.116.084a4.082,4.082,0,0,0-2.634.976A3.969,3.969,0,0,0,519,29.459a4.1,4.1,0,0,0,2.529,4.46,7.188,7.188,0,0,0,2.749.283h8.291c7.116.021,13.528.042,18.933.063,5.363.031,9.708.063,12.761.084,1.48.021,2.634.042,3.474.052l.9.032a.779.779,0,0,1,.3.031,1.16,1.16,0,0,1-.3.031l-.9.032c-.829.01-1.994.031-3.474.052-3.054.021-7.409.052-12.761.084-5.405.021-11.817.032-18.933.063h-9.739a4.4,4.4,0,0,1-1.5-.3,4.608,4.608,0,0,1-2.865-5.048,4.543,4.543,0,0,1,1.553-2.739,4.633,4.633,0,0,1,2.991-1.1c16.424.031,31.306.063,42.116.084,1.343,0,2.634.011,3.841.021a4.472,4.472,0,0,1,3.914,6.6,4.359,4.359,0,0,1-2.708,2.12,3.3,3.3,0,0,1-1.207.115Z" transform="translate(-228.633 -10.873)" fill="#1c2d55"/>
      <path id="Trazado_599919" data-name="Trazado 599919" d="M31.007,356.848H15.632a6.7,6.7,0,0,1-6.7-6.7V256.622a6.7,6.7,0,0,1,6.7-6.7H35.5a6.7,6.7,0,0,1,6.7,6.7v13.832H40.1V256.622a4.6,4.6,0,0,0-4.6-4.6H15.632a4.6,4.6,0,0,0-4.6,4.6v93.531a4.6,4.6,0,0,0,4.6,4.6H31.007Z" transform="translate(-3.941 -109.84)" fill="#e0e0e0"/>
      <path id="Trazado_599920" data-name="Trazado 599920" d="M33.669,400.566H12v2.1H33.669Z" transform="translate(-5.291 -176.279)" fill="#e0e0e0"/>
      <path id="Trazado_599921" data-name="Trazado 599921" d="M33.669,368.383H12v2.1H33.669Z" transform="translate(-5.291 -162.085)" fill="#e0e0e0"/>
      <path id="Trazado_599922" data-name="Trazado 599922" d="M33.669,336.2H12v2.1H33.669Z" transform="translate(-5.291 -147.891)" fill="#e0e0e0"/>
      <path id="Trazado_599923" data-name="Trazado 599923" d="M33.669,304.021H12v2.1H33.669Z" transform="translate(-5.291 -133.698)" fill="#e0e0e0"/>
      <path id="Trazado_599924" data-name="Trazado 599924" d="M48.892,451.481V255.017l91.935-44.52v45.485L238.576,210.5v46.45h195.5V451.481Z" transform="translate(-21.563 -92.45)" fill="#60cb28"/>
      <path id="Trazado_599925" data-name="Trazado 599925" d="M410.893,392.191H91.251V444.9H410.893Z" transform="translate(-40.246 -172.585)" fill="#fff"/>
      <path id="Trazado_599926" data-name="Trazado 599926" d="M422.035,439.122c0,.147-74.608.273-166.617.273s-166.627-.126-166.627-.273,74.587-.273,166.627-.273S422.035,438.975,422.035,439.122Z" transform="translate(-39.161 -193.163)" fill="#60cb28"/>
      <path id="Trazado_599927" data-name="Trazado 599927" d="M125.309,441.892a6.215,6.215,0,0,1,.063.693l.053,2h-.22c-.094-4.649-.158-15.144-.158-27.328.031-8.26.063-15.732.084-21.231.031-2.655.063-4.838.084-6.434l.053-1.752a2.815,2.815,0,0,1,.053-.609,2.127,2.127,0,0,1,.053.609l.053,1.752c.021,1.6.053,3.778.084,6.434.021,5.5.053,12.972.084,21.231,0,12.185-.063,22.669-.157,27.328h-.221l.053-2a3.023,3.023,0,0,1,.063-.693Z" transform="translate(-55.151 -170.399)" fill="#60cb28"/>
      <path id="Trazado_599928" data-name="Trazado 599928" d="M166.654,441.066a6.044,6.044,0,0,1,.063.693c.011.514.031,1.176.053,2h-.22c-.094-4.649-.158-15.144-.158-27.328.031-8.26.063-15.732.084-21.231.032-2.655.063-4.838.084-6.434.021-.713.042-1.291.053-1.752a2.819,2.819,0,0,1,.053-.609,2.128,2.128,0,0,1,.053.609c.011.462.031,1.039.053,1.752.021,1.6.053,3.779.084,6.434.021,5.5.053,12.972.084,21.231,0,12.185-.063,22.669-.157,27.328h-.221c.021-.829.042-1.49.053-2a3.023,3.023,0,0,1,.063-.693Z" transform="translate(-73.386 -170.035)" fill="#60cb28"/>
      <path id="Trazado_599929" data-name="Trazado 599929" d="M208.018,442.862a5.222,5.222,0,0,1,.063.651c.011.493.032,1.123.053,1.889h-.22c-.094-4.4-.158-14.315-.158-25.828.032-7.8.063-14.861.084-20.066.031-2.508.063-4.565.084-6.076.021-.672.042-1.217.053-1.658a2.466,2.466,0,0,1,.053-.577,1.936,1.936,0,0,1,.052.577c.011.441.032.987.053,1.658.021,1.511.053,3.568.084,6.076.021,5.206.052,12.268.084,20.066,0,11.513-.063,21.43-.158,25.828h-.22c.021-.777.042-1.4.053-1.889a2.633,2.633,0,0,1,.063-.651Z" transform="translate(-91.629 -172.146)" fill="#60cb28"/>
      <path id="Trazado_599930" data-name="Trazado 599930" d="M249.363,439.413a6.221,6.221,0,0,1,.063.693c.01.514.031,1.175.053,2h-.221c-.094-4.649-.157-15.144-.157-27.329.031-8.259.063-15.732.084-21.231.031-2.666.063-4.838.084-6.434.021-.714.042-1.291.053-1.753a2.733,2.733,0,0,1,.053-.609,2.158,2.158,0,0,1,.053.609c.01.462.031,1.039.053,1.753.021,1.6.052,3.778.084,6.434.021,5.5.053,12.972.084,21.231,0,12.185-.063,22.669-.158,27.329h-.22c.021-.829.042-1.49.053-2a2.986,2.986,0,0,1,.063-.693Z" transform="translate(-109.865 -169.306)" fill="#60cb28"/>
      <path id="Trazado_599931" data-name="Trazado 599931" d="M290.725,441.989a5.247,5.247,0,0,1,.063.641c.011.482.031,1.1.053,1.857h-.22c-.094-4.324-.158-14.063-.158-25.387.031-7.672.063-14.609.084-19.72.031-2.466.063-4.481.084-5.972.021-.651.042-1.2.053-1.627a2.5,2.5,0,0,1,.053-.567,1.882,1.882,0,0,1,.053.567c.011.43.031.966.053,1.627.021,1.491.053,3.516.084,5.972.021,5.122.053,12.059.084,19.72,0,11.313-.063,21.063-.157,25.387h-.221c.021-.756.042-1.375.053-1.857a2.569,2.569,0,0,1,.063-.641Z" transform="translate(-128.107 -172.155)" fill="#60cb28"/>
      <path id="Trazado_599932" data-name="Trazado 599932" d="M332.071,440.084a6.26,6.26,0,0,1,.063.714c.011.535.031,1.217.053,2.078h-.22c-.094-4.828-.158-15.721-.158-28.368.031-8.574.063-16.34.084-22.04.032-2.77.063-5.027.084-6.674.021-.745.042-1.343.052-1.816a2.938,2.938,0,0,1,.053-.63,2.3,2.3,0,0,1,.053.63c.011.472.031,1.07.053,1.816.021,1.648.053,3.914.084,6.674.021,5.71.053,13.465.084,22.04,0,12.646-.063,23.54-.157,28.368h-.22c.021-.86.042-1.543.052-2.078a3.169,3.169,0,0,1,.063-.714Z" transform="translate(-146.342 -168.685)" fill="#60cb28"/>
      <path id="Trazado_599933" data-name="Trazado 599933" d="M373.434,441.288a5.193,5.193,0,0,1,.063.63c.011.483.031,1.092.053,1.837h-.22c-.094-4.261-.158-13.874-.158-25.041,0-7.6.031-14.472.084-19.457.031-2.425.063-4.419.084-5.9.021-.641.042-1.175.053-1.606a2.3,2.3,0,0,1,.053-.556,1.766,1.766,0,0,1,.053.556c.011.43.031.955.053,1.606.021,1.469.053,3.463.084,5.9.053,4.975.084,11.859.084,19.457,0,11.167-.063,20.77-.157,25.041h-.221c.021-.745.042-1.354.053-1.837a2.421,2.421,0,0,1,.063-.63Z" transform="translate(-164.586 -172.146)" fill="#60cb28"/>
      <path id="Trazado_599934" data-name="Trazado 599934" d="M414.778,443.753a5.282,5.282,0,0,1,.063.651c.01.493.031,1.112.053,1.889h-.221c-.094-4.387-.157-14.284-.157-25.775.031-7.787.063-14.83.084-20.035.031-2.508.063-4.554.084-6.066.021-.661.042-1.207.052-1.648a2.472,2.472,0,0,1,.053-.577,1.945,1.945,0,0,1,.053.577c.01.441.031.987.053,1.648.021,1.511.052,3.568.084,6.066.021,5.195.052,12.248.084,20.035,0,11.492-.063,21.388-.158,25.775h-.22c.021-.776.042-1.4.052-1.889a2.574,2.574,0,0,1,.063-.651Z" transform="translate(-182.82 -172.585)" fill="#60cb28"/>
      <path id="Trazado_599935" data-name="Trazado 599935" d="M456.142,443.3a5.219,5.219,0,0,1,.063.651c.011.493.032,1.112.053,1.879h-.22c-.094-4.355-.158-14.158-.158-25.545.032-7.714.063-14.7.084-19.856.031-2.477.063-4.513.084-6.014.021-.661.042-1.2.053-1.637a2.311,2.311,0,0,1,.053-.567,1.9,1.9,0,0,1,.052.567c.011.43.032.977.053,1.637.021,1.5.053,3.537.084,6.014.021,5.153.052,12.132.084,19.856,0,11.387-.063,21.2-.158,25.545h-.22c.021-.766.042-1.386.053-1.879a2.631,2.631,0,0,1,.063-.651Z" transform="translate(-201.063 -172.593)" fill="#60cb28"/>
      <path id="Trazado_599936" data-name="Trazado 599936" d="M497.487,442.838a5.163,5.163,0,0,1,.063.64c.011.483.031,1.1.053,1.857h-.22c-.094-4.313-.158-14.031-.158-25.313.031-7.651.063-14.567.084-19.667.032-2.456.063-4.471.084-5.961.021-.651.042-1.186.052-1.617a2.493,2.493,0,0,1,.053-.567,1.881,1.881,0,0,1,.052.567c.011.43.031.966.053,1.617.021,1.49.053,3.505.084,5.961.021,5.111.053,12.027.084,19.667,0,11.293-.063,21.011-.157,25.313h-.22c.021-.756.042-1.374.052-1.857a2.559,2.559,0,0,1,.063-.64Z" transform="translate(-219.298 -172.593)" fill="#60cb28"/>
      <path id="Trazado_599937" data-name="Trazado 599937" d="M538.85,442.359a5.145,5.145,0,0,1,.063.63l.052,1.837h-.22c-.094-4.272-.158-13.906-.158-25.094,0-7.608.032-14.5.084-19.488.031-2.435.063-4.429.084-5.909.021-.651.042-1.175.052-1.606a2.257,2.257,0,0,1,.053-.556,1.785,1.785,0,0,1,.052.556c.011.43.032.955.052,1.606.021,1.48.053,3.474.084,5.909.052,4.985.084,11.88.084,19.488,0,11.188-.063,20.812-.158,25.094h-.22c.021-.745.042-1.354.052-1.837a2.444,2.444,0,0,1,.063-.63Z" transform="translate(-237.541 -172.577)" fill="#60cb28"/>
      <path id="Trazado_599938" data-name="Trazado 599938" d="M580.194,441.9a4.861,4.861,0,0,1,.063.63c.01.483.031,1.081.053,1.826h-.221c-.094-4.23-.157-13.78-.157-24.862,0-7.546.031-14.368.084-19.311.031-2.414.063-4.387.084-5.856.021-.64.042-1.165.052-1.6a2.265,2.265,0,0,1,.053-.556,1.786,1.786,0,0,1,.053.556c.01.43.031.955.053,1.6.021,1.459.052,3.442.084,5.856.052,4.943.084,11.775.084,19.311,0,11.082-.063,20.622-.158,24.862h-.22c.021-.745.042-1.343.052-1.826a2.5,2.5,0,0,1,.063-.63Z" transform="translate(-255.776 -172.577)" fill="#60cb28"/>
      <path id="Trazado_599939" data-name="Trazado 599939" d="M621.558,441.53a4.788,4.788,0,0,1,.063.619c.011.472.031,1.07.053,1.8h-.22c-.094-4.2-.158-13.675-.158-24.673,0-7.483.031-14.262.084-19.174.031-2.392.063-4.355.084-5.814.021-.63.042-1.155.052-1.575a2.276,2.276,0,0,1,.053-.546,1.725,1.725,0,0,1,.052.546c.011.42.031.945.053,1.575.021,1.448.053,3.421.084,5.814.052,4.9.084,11.681.084,19.174,0,11-.063,20.476-.157,24.673h-.221c.021-.734.042-1.333.052-1.8a2.372,2.372,0,0,1,.063-.619Z" transform="translate(-274.02 -172.577)" fill="#60cb28"/>
      <g id="Grupo_1013403" data-name="Grupo 1013403" transform="translate(121.898 198.763)" opacity="0.3">
        <path id="Trazado_599940" data-name="Trazado 599940" d="M235.315,515.17H218.082V363.518a8.616,8.616,0,0,1,17.233,0Z" transform="translate(-218.082 -354.902)"/>
      </g>
      <g id="Grupo_1013404" data-name="Grupo 1013404" transform="translate(166.795 198.753)" opacity="0.3">
        <path id="Trazado_599941" data-name="Trazado 599941" d="M307.021,354.884a8.622,8.622,0,0,1,8.616,8.616V515.151H298.4V363.511a8.622,8.622,0,0,1,8.616-8.616Z" transform="translate(-298.405 -354.884)"/>
      </g>
      <path id="Trazado_599942" data-name="Trazado 599942" d="M218.492,507.75H201.259V346.7a8.616,8.616,0,0,1,17.233,0V507.75Z" transform="translate(-88.764 -148.719)" fill="#263c71"/>
      <path id="Trazado_599943" data-name="Trazado 599943" d="M296.092,507.75H278.859V346.7a8.616,8.616,0,0,1,17.233,0V507.75Z" transform="translate(-122.99 -148.719)" fill="#263c71"/>
      <g id="Grupo_1013405" data-name="Grupo 1013405" transform="translate(28.378 118.047)" opacity="0.3">
        <path id="Trazado_599944" data-name="Trazado 599944" d="M50.769,255.017l90.886-37.635V210.5Z" transform="translate(-50.769 -210.497)"/>
      </g>
      <g id="Grupo_1013406" data-name="Grupo 1013406" transform="translate(122.517 118.96)" opacity="0.3">
        <path id="Trazado_599945" data-name="Trazado 599945" d="M219.19,256.292l94.5-37.278V212.13Z" transform="translate(-219.19 -212.13)"/>
      </g>
      <path id="Trazado_599946" data-name="Trazado 599946" d="M144.507,204.356l-96.42,47.007.92,1.886,96.42-47.006Z" transform="translate(-21.209 -89.741)" fill="#1c2d55"/>
      <path id="Trazado_599947" data-name="Trazado 599947" d="M310.338,208.8l-97.744,45.5.885,1.9,97.745-45.5Z" transform="translate(-93.764 -91.703)" fill="#1c2d55"/>
      <g id="Grupo_1013407" data-name="Grupo 1013407" transform="translate(27.071 186.661)" opacity="0.3">
        <path id="Trazado_599948" data-name="Trazado 599948" d="M74.727,343.926s-.021-.273-.042-.745l-.042-2.068c-.021-1.836-.063-4.376-.1-7.514l.189.189c-6.633.021-15.847.053-26.038.084-.241.241.325-.336.273-.273v10.327l-.262-.262c7.472.052,13.927.094,18.6.126,2.277.032,4.114.053,5.447.074.6.01,1.091.021,1.469.031a4.144,4.144,0,0,1,.535.031,2.38,2.38,0,0,1-.472.032c-.367,0-.84.021-1.417.031-1.322.021-3.138.042-5.384.073-4.712.032-11.23.074-18.775.126h-.262v-10.6c-.063.053.514-.525.273-.273,10.191.031,19.405.063,26.038.084h.189v.189l-.1,7.63-.042,2.026a3.943,3.943,0,0,1-.042.682Z" transform="translate(-48.432 -333.251)"/>
      </g>
      <g id="Grupo_1013408" data-name="Grupo 1013408" transform="translate(39.083 176.713)" opacity="0.3">
        <path id="Trazado_599949" data-name="Trazado 599949" d="M95.959,315.454H69.921v10.337H95.959Z" transform="translate(-69.921 -315.454)"/>
      </g>
      <g id="Grupo_1013409" data-name="Grupo 1013409" transform="translate(219.621 327.587)" opacity="0.3">
        <path id="Trazado_599950" data-name="Trazado 599950" d="M419.209,596.049s-.021-.273-.042-.745c-.011-.525-.031-1.217-.042-2.068-.021-1.837-.063-4.377-.105-7.515l.189.189c-6.633.021-15.847.053-26.038.084-.241.241.325-.336.273-.273v5.3c0,1.732,0,3.411-.011,5.027l-.262-.263c7.472.053,13.926.094,18.6.126,2.277.031,4.114.053,5.446.073.6.011,1.092.021,1.47.032a3.91,3.91,0,0,1,.535.031,2.421,2.421,0,0,1-.472.031c-.367,0-.84.021-1.417.032-1.322.021-3.138.042-5.384.073-4.712.031-11.229.073-18.765.126h-.263v-10.6c-.063.052.514-.525.273-.273,10.191.032,19.405.063,26.038.084h.189v.189c-.042,3.18-.084,5.772-.1,7.63-.021.84-.032,1.511-.042,2.025a3.891,3.891,0,0,1-.043.682Z" transform="translate(-392.914 -585.375)"/>
      </g>
      <g id="Grupo_1013410" data-name="Grupo 1013410" transform="translate(231.633 317.639)" opacity="0.3">
        <path id="Trazado_599951" data-name="Trazado 599951" d="M440.442,567.577H414.4v10.337h26.038Z" transform="translate(-414.404 -567.577)"/>
      </g>
      <g id="Grupo_1013411" data-name="Grupo 1013411" transform="translate(62.24 295.672)" opacity="0.3">
        <path id="Trazado_599952" data-name="Trazado 599952" d="M137.666,538.942s-.021-.273-.042-.745c-.01-.525-.031-1.217-.052-2.068-.021-1.837-.063-4.377-.105-7.515l.189.189c-6.633.021-15.847.053-26.038.084-.241.241.325-.336.273-.273v10.338l-.273-.263c7.472.052,13.926.094,18.6.126,2.277.031,4.114.052,5.446.073.6.011,1.092.021,1.469.031a3.921,3.921,0,0,1,.535.032,2.494,2.494,0,0,1-.472.031c-.368,0-.84.021-1.417.031-1.322.021-3.138.042-5.384.074-4.713.031-11.229.073-18.775.126h-.263v-10.6c-.063.053.514-.524.273-.273,10.191.032,19.405.063,26.038.084h.188v.189c-.042,3.18-.084,5.772-.1,7.63-.021.84-.032,1.511-.053,2.026a3.964,3.964,0,0,1-.042.682Z" transform="translate(-111.35 -528.278)"/>
      </g>
      <g id="Grupo_1013412" data-name="Grupo 1013412" transform="translate(172.069 169.45)" opacity="0.3">
        <path id="Trazado_599953" data-name="Trazado 599953" d="M334.125,313.123s-.021-.273-.042-.746c-.011-.524-.032-1.217-.042-2.067-.021-1.837-.063-4.377-.105-7.515l.189.189c-6.633.021-15.847.053-26.038.084-.241.241.325-.336.273-.273v10.337l-.262-.262c7.472.053,13.926.094,18.6.126,2.277.032,4.114.053,5.447.074.6.01,1.092.021,1.469.031a4.121,4.121,0,0,1,.535.031,2.37,2.37,0,0,1-.472.032c-.368,0-.84.021-1.417.031-1.322.021-3.138.042-5.384.073-4.713.032-11.23.074-18.765.126h-.262V302.8c-.063.053.514-.525.273-.273,10.191.031,19.405.063,26.038.084h.189v.189c-.042,3.18-.084,5.772-.105,7.63-.021.839-.031,1.511-.042,2.026a3.867,3.867,0,0,1-.042.682Z" transform="translate(-307.841 -302.46)"/>
      </g>
      <g id="Grupo_1013413" data-name="Grupo 1013413" transform="translate(328.915 185.066)" opacity="0.3">
        <path id="Trazado_599954" data-name="Trazado 599954" d="M614.732,341.072s-.021-.273-.042-.745c-.011-.525-.031-1.217-.042-2.068-.021-1.837-.063-4.377-.105-7.515l.189.189c-6.633.021-15.847.053-26.038.084-.241.241.325-.335.273-.273v10.327l-.262-.263c7.472.053,13.927.094,18.6.126,2.277.031,4.114.053,5.447.073.6.011,1.091.021,1.469.031a3.95,3.95,0,0,1,.535.032,2.419,2.419,0,0,1-.472.031c-.367,0-.84.021-1.417.031-1.323.021-3.138.042-5.384.074-4.712.031-11.229.073-18.765.126h-.263v-10.6c-.063.052.514-.525.273-.273,10.19.032,19.4.063,26.038.084h.189v.189c-.042,3.18-.084,5.772-.105,7.63-.021.84-.031,1.511-.042,2.025a4.027,4.027,0,0,1-.042.682Z" transform="translate(-588.447 -330.398)"/>
      </g>
      <g id="Grupo_1013414" data-name="Grupo 1013414" transform="translate(369.992 282.469)" opacity="0.3">
        <path id="Trazado_599955" data-name="Trazado 599955" d="M688.231,515.332s-.021-.273-.042-.745c-.011-.525-.032-1.217-.042-2.068-.021-1.837-.063-4.376-.105-7.514l.189.189-26.038.084c-.241.241.325-.336.273-.273v10.327l-.262-.262c7.472.053,13.926.094,18.6.126,2.277.031,4.114.053,5.447.073.6.011,1.092.021,1.469.032a4,4,0,0,1,.535.031,2.35,2.35,0,0,1-.472.031c-.368,0-.84.021-1.417.032-1.323.021-3.138.042-5.384.073-4.713.031-11.23.074-18.775.126h-.263v-10.6c-.063.053.514-.525.273-.273,10.191.031,19.405.063,26.038.084h.189v.189c-.042,3.18-.084,5.772-.1,7.63-.021.84-.032,1.511-.042,2.026a3.89,3.89,0,0,1-.042.682Z" transform="translate(-661.936 -504.658)"/>
      </g>
      <g id="Grupo_1013415" data-name="Grupo 1013415" transform="translate(231.223 197.598)" opacity="0.3">
        <path id="Trazado_599956" data-name="Trazado 599956" d="M439.709,352.818H413.671v10.337h26.038Z" transform="translate(-413.671 -352.818)"/>
      </g>
      <g id="Grupo_1013416" data-name="Grupo 1013416" transform="translate(355.199 175.328)" opacity="0.3">
        <path id="Trazado_599957" data-name="Trazado 599957" d="M661.509,312.976H635.471v10.337h26.038Z" transform="translate(-635.471 -312.976)"/>
      </g>
      <path id="Trazado_599958" data-name="Trazado 599958" d="M555.027,539.038H497.693v57.334h57.334Z" transform="translate(-219.505 -237.351)" fill="#1c2d55"/>
      <path id="Trazado_599959" data-name="Trazado 599959" d="M1265.3,618.161H1243.94v6.7H1265.3Z" transform="translate(-548.634 -272.248)" fill="#263c71"/>
      <path id="Trazado_599960" data-name="Trazado 599960" d="M1217.24,612.734v8.858h7.294l2.918-4.24H1280.7v-4.617Z" transform="translate(-536.858 -269.855)" fill="#1c2d55"/>
      <path id="Trazado_599961" data-name="Trazado 599961" d="M1191.833,562.177a.549.549,0,0,0-.57-.514c-2.884.116-16.568.745-19.385,2.1-2.147,1.039-4.511,4.9-6.177,7.515-1.2,1.868-3.834,6.014-4.36,8.133a38.283,38.283,0,0,0-.693,7.368l.76,9.781h12.4l1.235-3.232a5.449,5.449,0,0,1,5.092-3.495h12.319V573.6l-.637-11.418Z" transform="translate(-511.898 -247.33)" fill="#60cb28"/>
      <path id="Trazado_599962" data-name="Trazado 599962" d="M1171.046,567.363a37.1,37.1,0,0,0-4.718,6.423,48.1,48.1,0,0,0-4.2,7.63.369.369,0,0,1-.045.116,1.873,1.873,0,0,0,1.135-.672c.274-.545.62-2.4,4.93-9.424,1.313-2.141,2.594-3.39,2.89-4.082Z" transform="translate(-512.53 -249.84)" fill="#263c71"/>
      <path id="Trazado_599963" data-name="Trazado 599963" d="M1188.759,566.074c-3.169.178-10.045.64-12.236,1.4-2.867.976-6.076,8.553-6.227,8.889l-2.157,5.542a.236.236,0,0,0,.229.315h5.6a1.778,1.778,0,0,0,.615-.115l14.717-5.478a1.707,1.707,0,0,0,1.1-1.6v-7.409A1.541,1.541,0,0,0,1188.759,566.074Z" transform="translate(-515.196 -249.274)" fill="#1c2d55"/>
      <path id="Trazado_599964" data-name="Trazado 599964" d="M1169.23,582.1s2.079-4.649,2.772-6.171c1.051-2.3,3.516-7.01,5.176-7.514,1.52-.462,5.919-1.018,12.1-1.364h.061a1,1,0,0,1,1,1v7.578a.929.929,0,0,1-.6.86l-10.872,1.344a3.031,3.031,0,0,0-2.163,1.343l-1.878,2.876a.986.986,0,0,1-.347.063h-5.249Z" transform="translate(-515.684 -249.707)" fill="#263c71"/>
      <path id="Trazado_599965" data-name="Trazado 599965" d="M1182.836,578.791l-3.706,4.114,2.046-13.664.514-.178-1.006,10.127a.3.3,0,0,0,.408.3Z" transform="translate(-520.05 -250.593)" fill="#1c2d55"/>
      <path id="Trazado_599966" data-name="Trazado 599966" d="M1160.211,607.905c-.011-.179.045-.325.14-.325l1.979-.179c.173-.01.319.294.341.661l.084,1.522c.006.241-.067.451-.168.472l-2.029.346c-.095.011-.179-.115-.19-.293l-.168-2.183Z" transform="translate(-511.701 -267.502)" fill="#ebebeb"/>
      <path id="Trazado_599967" data-name="Trazado 599967" d="M1174.5,620.995H1160.22v5.72H1174.5Z" transform="translate(-511.71 -273.498)" fill="#1c2d55"/>
      <path id="Trazado_599968" data-name="Trazado 599968" d="M1188.309,621.7a7.81,7.81,0,1,0,7.926-7.693A7.809,7.809,0,0,0,1188.309,621.7Z" transform="translate(-524.098 -270.417)" fill="#1c2d55"/>
      <path id="Trazado_599969" data-name="Trazado 599969" d="M1188.309,627.736v.021a7.81,7.81,0,0,0,15.617.231v-.021l-15.617-.22Z" transform="translate(-524.098 -276.471)" fill="#1c2d55"/>
      <path id="Trazado_599970" data-name="Trazado 599970" d="M1192.479,623.565a5.484,5.484,0,1,0,5.562-5.405A5.476,5.476,0,0,0,1192.479,623.565Z" transform="translate(-525.937 -272.247)" fill="#fafafa"/>
      <path id="Trazado_599971" data-name="Trazado 599971" d="M1198.042,618.16a5.475,5.475,0,0,0-5.562,5.405l10.967.157A5.479,5.479,0,0,0,1198.042,618.16Z" transform="translate(-525.938 -272.247)" fill="#e0e0e0"/>
      <path id="Trazado_599972" data-name="Trazado 599972" d="M1196.31,625.286a3.343,3.343,0,1,0,3.387-3.3A3.339,3.339,0,0,0,1196.31,625.286Z" transform="translate(-527.627 -273.937)" fill="#1c2d55"/>
      <path id="Trazado_599973" data-name="Trazado 599973" d="M1173.169,574.938h.318a1.458,1.458,0,0,1,1.459,1.459v4.838a1.458,1.458,0,0,1-1.459,1.458h-.318a1.458,1.458,0,0,1-1.459-1.458V576.4A1.458,1.458,0,0,1,1173.169,574.938Z" transform="translate(-516.777 -253.185)" fill="#1c2d55"/>
      <path id="Trazado_599974" data-name="Trazado 599974" d="M1169.178,589.8h-.168v-8.218a1.477,1.477,0,0,1,1.481-1.48h.386v.168h-.386a1.312,1.312,0,0,0-1.314,1.312Z" transform="translate(-515.587 -255.462)" fill="#1c2d55"/>
      <path id="Trazado_599975" data-name="Trazado 599975" d="M1170.941,590.6l-.453-7.682a.97.97,0,0,1,.967-1.029v.168a.813.813,0,0,0-.811.85l.453,7.682h-.157Z" transform="translate(-516.238 -256.249)" fill="#1c2d55"/>
      <path id="Trazado_599976" data-name="Trazado 599976" d="M1170.491,596.117H1168.3v2.54h2.191Z" transform="translate(-515.273 -262.526)" fill="#1c2d55"/>
      <path id="Trazado_599977" data-name="Trazado 599977" d="M1170.054,587.48h-.894v.168h.894Z" transform="translate(-515.653 -258.716)" fill="#1c2d55"/>
      <path id="Trazado_599978" data-name="Trazado 599978" d="M1175.752,565.337a1.249,1.249,0,0,0,.184-.021l.581-.063c.5-.063,1.247-.147,2.214-.252,1.928-.22,4.74-.535,8.256-.945.442-.052.894-.1,1.358-.146a2.6,2.6,0,0,1,.7.042,2.749,2.749,0,0,1,.682.262A2.579,2.579,0,0,1,1191,566.02a3.005,3.005,0,0,1,.028.388v22.984h-8.586a8.477,8.477,0,0,0-1.459.073,6.236,6.236,0,0,0-1.414.4,5.762,5.762,0,0,0-3.085,3.2,5.535,5.535,0,0,0-.179.536c-.039.178-.106.357-.129.546l-.039.273-.022.136v.136l-.022.283v.158s-.061.052-.05.042H1165.16V582.36a6.88,6.88,0,0,1,.05-.766,7.55,7.55,0,0,1,.928-2.8c.447-.84.878-1.658,1.3-2.445.844-1.564,1.61-3.012,2.314-4.324s1.319-2.487,1.878-3.516l.4-.745c.062-.115.123-.241.19-.346a3.23,3.23,0,0,1,.218-.315,4.5,4.5,0,0,1,.989-.913,4.8,4.8,0,0,1,1.688-.735,3.985,3.985,0,0,1,.632-.105.951.951,0,0,0-.162.021c-.1.021-.257.042-.47.094a4.819,4.819,0,0,0-1.677.746,4.46,4.46,0,0,0-.978.913c-.073.094-.145.2-.218.3s-.129.231-.19.346l-.391.745-1.867,3.516c-.693,1.312-1.47,2.76-2.3,4.335l-1.3,2.445a7.6,7.6,0,0,0-.911,2.781,5.771,5.771,0,0,0-.056.766v12.772l-.039-.042h10.838s-.084.073-.039.042v-.158l.022-.283v-.136l.028-.136.044-.283a4.958,4.958,0,0,1,.123-.556c.045-.189.117-.357.179-.546a5.833,5.833,0,0,1,3.141-3.243,5.688,5.688,0,0,1,1.437-.4,9.847,9.847,0,0,1,1.47-.074h8.541l-.039.042V566.807a5.936,5.936,0,0,0-.034-.777,2.241,2.241,0,0,0-.229-.713,2.472,2.472,0,0,0-1.66-1.291,2.212,2.212,0,0,0-.693-.042c-.464.042-.911.094-1.353.147-3.516.388-6.327.7-8.261.913-.967.105-1.71.189-2.214.241-.252.032-.442.042-.576.063s-.2.021-.2.021Z" transform="translate(-513.889 -248.318)" fill="#1c2d55"/>
      <path id="Trazado_599979" data-name="Trazado 599979" d="M1203.311,597.2a.588.588,0,0,0,.129-.021.735.735,0,0,0,.335-.136.807.807,0,0,0,.335-.441.868.868,0,0,0,.045-.346.839.839,0,0,0-.833-.829h-3.533a.823.823,0,0,0-.559.22.855.855,0,0,0-.263.525.878.878,0,0,0,.514.934,1.306,1.306,0,0,0,.537.063h1.459c.565,0,1.028,0,1.353.011h.369c.084.011.123.011.123.021s-.039,0-.123,0h-.369c-.324.011-.788.01-1.353.021h-1.733a.936.936,0,0,1-.285-.063.893.893,0,0,1-.447-.4.992.992,0,0,1-.117-.609.925.925,0,0,1,.911-.818h3.549a.915.915,0,0,1,.788.493.992.992,0,0,1,.095.409.977.977,0,0,1-.056.367.856.856,0,0,1-.363.452.9.9,0,0,1-.347.126h-.129Z" transform="translate(-528.764 -262.178)" fill="#1c2d55"/>
      <path id="Trazado_599980" data-name="Trazado 599980" d="M1204.059,594.977s-.632.042-1.4.042a12.3,12.3,0,0,1-1.392-.042,12.126,12.126,0,0,1,1.392-.042A12.269,12.269,0,0,1,1204.059,594.977Z" transform="translate(-529.815 -262.004)" fill="#fff"/>
      <path id="Trazado_599981" data-name="Trazado 599981" d="M1185.892,622.252l-1.3-.094c.335-4.671.844-7.462,1.526-8.543a5.17,5.17,0,0,1,4.069-2.687,19.25,19.25,0,0,1,4.03-.126h.324c2.722.116,8.407.021,8.474.021l.017,1.3c-.05,0-5.78.094-8.541-.01h-.324a17.245,17.245,0,0,0-3.756.094,3.917,3.917,0,0,0-3.2,2.109c-.313.494-.906,2.183-1.325,7.934Z" transform="translate(-522.458 -268.982)" fill="#1c2d55"/>
      <path id="Trazado_599982" data-name="Trazado 599982" d="M1283,536.185h-64.2v42.745H1283Z" transform="translate(-537.546 -236.093)" fill="#263c71"/>
      <path id="Trazado_599983" data-name="Trazado 599983" d="M1282.732,578.819c0-.273-.011-15.952-.033-40.93l.033.032h-62.743l.045-.043v40.931l-.045-.042c36.913.021,62.4.042,62.743.042-.347,0-25.829.021-62.743.042h-.039V537.836h62.821v.032c-.022,24.977-.033,40.657-.033,40.93Z" transform="translate(-538.053 -236.821)" fill="#1c2d55"/>
      <path id="Trazado_599984" data-name="Trazado 599984" d="M1197.42,572.393s-.022.021-.061.053l-.179.126c-.162.115-.391.273-.676.462-.565.388-1.364.913-2.241,1.479s-1.694,1.071-2.281,1.428c-.291.178-.536.325-.7.42l-.184.105-.073.031a.31.31,0,0,1,.061-.053l.19-.126c.173-.116.408-.263.682-.441.587-.378,1.381-.882,2.264-1.448s1.671-1.07,2.258-1.459l.682-.44.19-.116s.061-.042.073-.031Z" transform="translate(-525.294 -252.057)" fill="#fafafa"/>
      <path id="Trazado_599985" data-name="Trazado 599985" d="M1192.44,573.708s-.022.021-.061.053l-.179.126c-.156.115-.385.273-.671.462-.57.389-1.364.913-2.247,1.48s-1.688,1.071-2.275,1.428c-.3.178-.537.325-.7.42l-.19.105-.073.031s.022-.021.061-.053l.19-.126c.168-.116.408-.263.682-.441.587-.378,1.386-.881,2.269-1.448.866-.567,1.666-1.07,2.253-1.459.285-.178.514-.325.682-.44l.19-.116s.062-.042.073-.031Z" transform="translate(-523.098 -252.637)" fill="#fafafa"/>
      <path id="Trazado_599986" data-name="Trazado 599986" d="M1172.694,579.3a1.421,1.421,0,0,1-.05-.146c-.034-.094-.062-.231-.106-.4a5.721,5.721,0,0,1-.168-1.354,2.853,2.853,0,0,1,.313-1.322,1.722,1.722,0,0,1,.235-.346.8.8,0,0,1,.1-.105,3.624,3.624,0,0,0-.28.483,3.225,3.225,0,0,0-.285,1.3,7.544,7.544,0,0,0,.145,1.343,4.119,4.119,0,0,1,.1.556Z" transform="translate(-517.068 -253.491)" fill="#fafafa"/>
      <path id="Trazado_599987" data-name="Trazado 599987" d="M1161.09,599.241v-.671c.011-.42.039-1,.1-1.637s.112-1.217.168-1.627c.017-.21.05-.378.062-.493s.028-.178.039-.178v.178l-.039.493c-.045.441-.084,1-.14,1.627-.039.63-.084,1.2-.112,1.627-.011.2-.033.357-.033.493a.585.585,0,0,1-.022.179Z" transform="translate(-512.094 -261.872)" fill="#fafafa"/>
      <path id="Trazado_599988" data-name="Trazado 599988" d="M1189.545,608.524a7.73,7.73,0,0,0-.794.221,6.184,6.184,0,0,0-.833.336,7.307,7.307,0,0,0-.933.566,7.234,7.234,0,0,0-.827.724,4.951,4.951,0,0,0-.565.693c-.3.42-.43.7-.453.7,0,0,.028-.073.1-.21a2.27,2.27,0,0,1,.123-.231,3.336,3.336,0,0,1,.19-.294,5.006,5.006,0,0,1,.564-.714,6.526,6.526,0,0,1,.833-.745,5.939,5.939,0,0,1,.956-.567,5.855,5.855,0,0,1,.85-.325,2.872,2.872,0,0,1,.335-.084c.095-.021.19-.042.263-.052a.705.705,0,0,1,.218-.021Z" transform="translate(-522.701 -267.996)" fill="#fafafa"/>
      <path id="Trazado_599989" data-name="Trazado 599989" d="M1221.435,569.52v-.283c0-.189-.011-.452-.011-.788,0-.693-.017-1.679-.039-2.907-.045-2.456-.106-5.846-.168-9.592s-.129-7.136-.145-9.592c-.011-1.228-.011-2.225-.011-2.907v-1l.011-.073v.283c0,.189.005.451.005.787,0,.693.022,1.679.045,2.907.039,2.456.106,5.846.167,9.592s.123,7.137.146,9.592c.011,1.228.011,2.225.011,2.907v1.07Z" transform="translate(-538.543 -238.825)" fill="#fafafa"/>
      <path id="Trazado_599990" data-name="Trazado 599990" d="M1291.539,621.7a7.809,7.809,0,1,0,7.926-7.693A7.809,7.809,0,0,0,1291.539,621.7Z" transform="translate(-569.627 -270.417)" fill="#1c2d55"/>
      <path id="Trazado_599991" data-name="Trazado 599991" d="M1291.539,627.736v.021a7.809,7.809,0,0,0,15.617.231v-.021l-15.617-.22Z" transform="translate(-569.627 -276.471)" fill="#1c2d55"/>
      <path id="Trazado_599992" data-name="Trazado 599992" d="M1295.69,623.565a5.484,5.484,0,1,0,5.562-5.405A5.479,5.479,0,0,0,1295.69,623.565Z" transform="translate(-571.458 -272.247)" fill="#fafafa"/>
      <path id="Trazado_599993" data-name="Trazado 599993" d="M1301.252,618.16a5.482,5.482,0,0,0-5.562,5.405l10.967.157A5.475,5.475,0,0,0,1301.252,618.16Z" transform="translate(-571.458 -272.247)" fill="#e0e0e0"/>
      <path id="Trazado_599994" data-name="Trazado 599994" d="M1299.54,625.286a3.343,3.343,0,1,0,3.387-3.3A3.34,3.34,0,0,0,1299.54,625.286Z" transform="translate(-573.156 -273.937)" fill="#1c2d55"/>
      <path id="Trazado_599995" data-name="Trazado 599995" d="M1287.123,623.073S1285.938,612,1297.419,612c10.587,0,10.357,9.53,10.251,11h-1.66s.855-9.393-8.591-9.393-8.619,9.582-8.619,9.582-.693-.043-1.666-.116Z" transform="translate(-567.664 -269.531)" fill="#263c71"/>
      <path id="Trazado_599996" data-name="Trazado 599996" d="M1293.692,614.029l-.095.032c-.062.021-.146.042-.263.084a8.555,8.555,0,0,0-.933.367,7.429,7.429,0,0,0-4.1,4.891,8.794,8.794,0,0,0-.2.987c-.017.115-.017.21-.028.273s-.011.094-.022.094,0-.032,0-.094a1.359,1.359,0,0,1,.022-.273,7.028,7.028,0,0,1,.168-1,7.3,7.3,0,0,1,4.142-4.933,7.728,7.728,0,0,1,.945-.346c.118-.032.212-.053.263-.063a.543.543,0,0,0,.1-.021Z" transform="translate(-568.085 -270.426)" fill="#fafafa"/>
      <path id="Trazado_599997" data-name="Trazado 599997" d="M1180.548,618.161H1159.19v6.7h21.358Z" transform="translate(-511.256 -272.248)" fill="#263c71"/>
      <path id="Trazado_599998" data-name="Trazado 599998" d="M1132.49,612.734v8.858h7.294l2.918-4.24h53.263v-4.617Z" transform="translate(-499.48 -269.855)" fill="#1c2d55"/>
      <path id="Trazado_599999" data-name="Trazado 599999" d="M1107.076,562.177a.544.544,0,0,0-.565-.514c-2.884.116-16.573.745-19.385,2.1-2.152,1.039-4.511,4.9-6.182,7.515-1.2,1.868-3.829,6.014-4.354,8.133a37.4,37.4,0,0,0-.693,7.368l.755,9.781h12.4l1.241-3.232a5.449,5.449,0,0,1,5.092-3.495h12.319V573.6l-.643-11.418Z" transform="translate(-474.519 -247.33)" fill="#60cb28"/>
      <path id="Trazado_600000" data-name="Trazado 600000" d="M1086.29,567.363a37.375,37.375,0,0,0-4.712,6.423,48.13,48.13,0,0,0-4.209,7.63.568.568,0,0,1-.039.116,1.875,1.875,0,0,0,1.129-.672c.274-.545.62-2.4,4.936-9.424,1.313-2.141,2.593-3.39,2.884-4.082Z" transform="translate(-475.152 -249.84)" fill="#263c71"/>
      <path id="Trazado_600001" data-name="Trazado 600001" d="M1104.006,566.074c-3.175.178-10.044.64-12.241,1.4-2.862.976-6.076,8.553-6.221,8.889l-2.163,5.542a.238.238,0,0,0,.229.315h5.6a1.808,1.808,0,0,0,.62-.115l14.712-5.478a1.7,1.7,0,0,0,1.1-1.6v-7.409A1.54,1.54,0,0,0,1104.006,566.074Z" transform="translate(-477.815 -249.274)" fill="#1c2d55"/>
      <path id="Trazado_600002" data-name="Trazado 600002" d="M1084.471,582.1s2.079-4.649,2.772-6.171c1.045-2.3,3.516-7.01,5.17-7.514,1.526-.462,5.919-1.018,12.1-1.364h.062a1,1,0,0,1,1,1v7.578a.929.929,0,0,1-.6.86l-10.872,1.344a3.02,3.02,0,0,0-2.163,1.343l-1.889,2.876a1.032,1.032,0,0,1-.346.063h-5.249Z" transform="translate(-478.296 -249.707)" fill="#263c71"/>
      <path id="Trazado_600003" data-name="Trazado 600003" d="M1098.076,578.791l-3.706,4.114,2.051-13.664.514-.178-1.011,10.127a.3.3,0,0,0,.414.3Z" transform="translate(-482.667 -250.593)" fill="#1c2d55"/>
      <path id="Trazado_600004" data-name="Trazado 600004" d="M1075.469,607.905c-.011-.179.039-.325.134-.325l1.984-.179c.168-.01.313.294.335.661l.1,1.522c.011.241-.061.451-.168.472l-2.023.346c-.1.011-.179-.115-.19-.293l-.168-2.183Z" transform="translate(-474.33 -267.502)" fill="#ebebeb"/>
      <path id="Trazado_600005" data-name="Trazado 600005" d="M1089.74,620.995h-14.27v5.72h14.27Z" transform="translate(-474.331 -273.498)" fill="#1c2d55"/>
      <path id="Trazado_600006" data-name="Trazado 600006" d="M1103.559,621.7a7.807,7.807,0,1,0,7.92-7.693A7.8,7.8,0,0,0,1103.559,621.7Z" transform="translate(-486.719 -270.417)" fill="#1c2d55"/>
      <path id="Trazado_600007" data-name="Trazado 600007" d="M1103.559,627.736v.021a7.807,7.807,0,1,0,15.612.231v-.021l-15.612-.22Z" transform="translate(-486.719 -276.471)" fill="#1c2d55"/>
      <path id="Trazado_600008" data-name="Trazado 600008" d="M1107.72,623.565a5.484,5.484,0,1,0,5.567-5.405A5.483,5.483,0,0,0,1107.72,623.565Z" transform="translate(-488.555 -272.247)" fill="#fafafa"/>
      <path id="Trazado_600009" data-name="Trazado 600009" d="M1113.287,618.16a5.483,5.483,0,0,0-5.567,5.405l10.972.157A5.483,5.483,0,0,0,1113.287,618.16Z" transform="translate(-488.555 -272.247)" fill="#e0e0e0"/>
      <path id="Trazado_600010" data-name="Trazado 600010" d="M1111.55,625.286a3.343,3.343,0,1,0,3.393-3.3A3.347,3.347,0,0,0,1111.55,625.286Z" transform="translate(-490.244 -273.937)" fill="#1c2d55"/>
      <path id="Trazado_600011" data-name="Trazado 600011" d="M1088.419,574.938h.313a1.454,1.454,0,0,1,1.459,1.459v4.838a1.454,1.454,0,0,1-1.459,1.458h-.313a1.454,1.454,0,0,1-1.459-1.458V576.4A1.454,1.454,0,0,1,1088.419,574.938Z" transform="translate(-479.399 -253.185)" fill="#1c2d55"/>
      <path id="Trazado_600012" data-name="Trazado 600012" d="M1084.418,589.8h-.168v-8.218a1.481,1.481,0,0,1,1.481-1.48h.391v.168h-.391a1.316,1.316,0,0,0-1.313,1.312Z" transform="translate(-478.204 -255.462)" fill="#1c2d55"/>
      <path id="Trazado_600013" data-name="Trazado 600013" d="M1086.185,590.6l-.447-7.682a.923.923,0,0,1,.263-.724.937.937,0,0,1,.7-.3v.168a.846.846,0,0,0-.587.252.788.788,0,0,0-.218.6l.453,7.682h-.162Z" transform="translate(-478.858 -256.249)" fill="#1c2d55"/>
      <path id="Trazado_600014" data-name="Trazado 600014" d="M1085.737,596.117h-2.2v2.54h2.2Z" transform="translate(-477.89 -262.526)" fill="#1c2d55"/>
      <path id="Trazado_600015" data-name="Trazado 600015" d="M1085.314,587.48h-.894v.168h.894Z" transform="translate(-478.279 -258.716)" fill="#1c2d55"/>
      <path id="Trazado_600016" data-name="Trazado 600016" d="M1091,565.337a1.354,1.354,0,0,0,.19-.021l.576-.063c.5-.063,1.252-.147,2.214-.252,1.934-.22,4.746-.535,8.261-.945.442-.052.894-.1,1.353-.146a2.641,2.641,0,0,1,.7.042,2.84,2.84,0,0,1,.682.262,2.522,2.522,0,0,1,1.028,1.07,2.376,2.376,0,0,1,.24.735,2.263,2.263,0,0,1,.034.388v22.984h-8.586a8.454,8.454,0,0,0-1.459.073,6.277,6.277,0,0,0-1.42.4,5.779,5.779,0,0,0-3.085,3.2,6.882,6.882,0,0,0-.3,1.081l-.045.273-.017.136v.136l-.022.283v.158s-.062.052-.05.042H1080.41V582.36a5.755,5.755,0,0,1,.05-.766,7.541,7.541,0,0,1,.922-2.8c.453-.84.883-1.658,1.3-2.445.838-1.564,1.6-3.012,2.308-4.324s1.325-2.487,1.878-3.516l.4-.745c.067-.115.129-.241.19-.346s.151-.21.224-.315a4.355,4.355,0,0,1,.984-.913,4.8,4.8,0,0,1,1.688-.735,4.091,4.091,0,0,1,.632-.105.929.929,0,0,0-.156.021c-.106.021-.263.042-.475.094a4.819,4.819,0,0,0-1.677.746,4.722,4.722,0,0,0-.978.913c-.073.094-.145.2-.218.3s-.129.231-.19.346c-.123.242-.252.483-.386.745-.548,1.029-1.168,2.2-1.867,3.516s-1.47,2.76-2.3,4.335c-.419.787-.849,1.6-1.3,2.445a7.709,7.709,0,0,0-.917,2.781,6.88,6.88,0,0,0-.05.766v12.772l-.045-.042h10.844s-.084.073-.045.042v-.158l.022-.283v-.136l.033-.136.039-.283a4.988,4.988,0,0,1,.129-.556,4.158,4.158,0,0,1,.179-.546,5.824,5.824,0,0,1,3.136-3.243,5.752,5.752,0,0,1,1.437-.4,9.923,9.923,0,0,1,1.47-.074h8.546l-.045.042V566.807a5.914,5.914,0,0,0-.034-.777,1.992,1.992,0,0,0-.229-.713,2.434,2.434,0,0,0-.995-1.039,2.529,2.529,0,0,0-.665-.252,2.2,2.2,0,0,0-.693-.042c-.458.042-.911.094-1.353.147-3.516.388-6.327.7-8.256.913-.967.105-1.71.189-2.219.241-.252.032-.436.042-.576.063-.123.011-.2.021-.2.021Z" transform="translate(-476.51 -248.318)" fill="#1c2d55"/>
      <path id="Trazado_600017" data-name="Trazado 600017" d="M1118.56,597.2a.643.643,0,0,0,.129-.021.759.759,0,0,0,.335-.136.862.862,0,0,0,.335-.441.987.987,0,0,0,.039-.346.79.79,0,0,0-.1-.378.849.849,0,0,0-.732-.451h-3.538a.819.819,0,0,0-.553.22.8.8,0,0,0-.263.525.9.9,0,0,0,.1.567.884.884,0,0,0,.414.367,1.29,1.29,0,0,0,.531.063h1.459c.57,0,1.028,0,1.358.011h.363c.084.011.129.011.129.021s-.045,0-.129,0h-.363c-.33.011-.788.01-1.358.021h-1.727a.9.9,0,0,1-.738-.462.99.99,0,0,1-.112-.609.911.911,0,0,1,.291-.577.96.96,0,0,1,.62-.241h3.549a.894.894,0,0,1,.878.9,1.1,1.1,0,0,1-.05.367.838.838,0,0,1-.369.452.867.867,0,0,1-.346.126h-.123Z" transform="translate(-491.385 -262.178)" fill="#1c2d55"/>
      <path id="Trazado_600018" data-name="Trazado 600018" d="M1119.3,594.977s-.626.042-1.392.042a12.442,12.442,0,0,1-1.4-.042,12.271,12.271,0,0,1,1.4-.042A12.126,12.126,0,0,1,1119.3,594.977Z" transform="translate(-492.432 -262.004)" fill="#fff"/>
      <path id="Trazado_600019" data-name="Trazado 600019" d="M1101.142,622.252l-1.3-.094c.335-4.671.838-7.462,1.521-8.543a5.2,5.2,0,0,1,4.075-2.687,19.238,19.238,0,0,1,4.03-.126h.324c2.716.116,8.407.021,8.468.021l.022,1.3c-.056,0-5.785.094-8.546-.01h-.324a17.261,17.261,0,0,0-3.756.094,3.917,3.917,0,0,0-3.2,2.109c-.313.494-.9,2.183-1.319,7.934Z" transform="translate(-485.079 -268.982)" fill="#1c2d55"/>
      <path id="Trazado_600020" data-name="Trazado 600020" d="M1198.246,536.185h-64.2v42.745h64.2Z" transform="translate(-500.168 -236.093)" fill="#60cb28"/>
      <path id="Trazado_600021" data-name="Trazado 600021" d="M1197.972,578.819c0-.273-.011-15.952-.033-40.93l.033.032h-62.737l.039-.043v40.931l-.039-.042c36.908.021,62.391.042,62.737.042-.346,0-25.829.021-62.737.042h-.045V537.836h62.826v.032c-.022,24.977-.033,40.657-.033,40.93Z" transform="translate(-500.67 -236.821)" fill="#1c2d55"/>
      <path id="Trazado_600022" data-name="Trazado 600022" d="M1112.66,572.393a.33.33,0,0,1-.061.053l-.179.126c-.156.115-.386.273-.671.462-.564.388-1.364.913-2.247,1.479s-1.688,1.071-2.275,1.428c-.3.178-.537.325-.7.42l-.19.105-.073.031s.022-.021.061-.053l.19-.126c.168-.116.408-.263.682-.441.587-.378,1.386-.882,2.269-1.448s1.666-1.07,2.253-1.459c.285-.178.514-.325.682-.44l.19-.116s.062-.042.073-.031Z" transform="translate(-487.911 -252.057)" fill="#fafafa"/>
      <path id="Trazado_600023" data-name="Trazado 600023" d="M1107.686,573.707s-.023.021-.062.053l-.179.126c-.162.115-.391.273-.677.462-.564.388-1.364.913-2.241,1.48s-1.694,1.071-2.281,1.428c-.291.178-.537.325-.7.42l-.184.105-.078.031a.715.715,0,0,1,.067-.053l.19-.126.682-.441c.587-.378,1.381-.881,2.264-1.448s1.671-1.07,2.258-1.459c.285-.178.514-.325.682-.44.073-.042.134-.084.19-.116.039-.021.062-.042.073-.031Z" transform="translate(-485.715 -252.636)" fill="#fafafa"/>
      <path id="Trazado_600024" data-name="Trazado 600024" d="M1087.944,579.3s-.022-.052-.056-.146-.061-.231-.1-.4a5.438,5.438,0,0,1-.168-1.354,2.856,2.856,0,0,1,.313-1.322,2.036,2.036,0,0,1,.229-.346.627.627,0,0,1,.106-.105,3.966,3.966,0,0,0-.285.483,3.224,3.224,0,0,0-.279,1.3,7.52,7.52,0,0,0,.145,1.343c.061.336.106.556.095.556Z" transform="translate(-479.689 -253.491)" fill="#fafafa"/>
      <path id="Trazado_600025" data-name="Trazado 600025" d="M1076.33,599.241v-.671c.011-.42.045-1,.1-1.637s.117-1.217.168-1.627c.022-.21.05-.378.062-.493s.033-.178.045-.178v.178c-.011.136-.022.3-.045.493-.039.441-.084,1-.134,1.627s-.084,1.2-.117,1.627c-.011.2-.028.357-.028.493a.585.585,0,0,1-.022.179Z" transform="translate(-474.711 -261.872)" fill="#fafafa"/>
      <path id="Trazado_600026" data-name="Trazado 600026" d="M1104.79,608.524a8.021,8.021,0,0,0-.8.221,5.848,5.848,0,0,0-.827.336,6.62,6.62,0,0,0-.933.566,7.32,7.32,0,0,0-.833.724,4.969,4.969,0,0,0-.565.693c-.3.42-.43.7-.453.7l.1-.21a4.662,4.662,0,0,1,.319-.525,5.021,5.021,0,0,1,.564-.714,5.634,5.634,0,0,1,1.783-1.312,5.861,5.861,0,0,1,.85-.325,3.2,3.2,0,0,1,.335-.084c.095-.021.19-.042.263-.052a.742.742,0,0,1,.224-.021Z" transform="translate(-485.318 -267.996)" fill="#fafafa"/>
      <path id="Trazado_600027" data-name="Trazado 600027" d="M1136.68,569.52v-.283c0-.189-.011-.452-.011-.788,0-.693-.022-1.679-.045-2.907-.039-2.456-.1-5.846-.168-9.592s-.123-7.136-.145-9.592c-.011-1.228-.011-2.225-.011-2.907v-.787c0,.189.011.451.011.787,0,.693.022,1.679.045,2.907.039,2.456.1,5.846.168,9.592s.123,7.137.145,9.592c.011,1.228.011,2.225.011,2.907v1l-.011.073Z" transform="translate(-501.16 -238.825)" fill="#fafafa"/>
      <path id="Trazado_600028" data-name="Trazado 600028" d="M1206.789,621.7a7.81,7.81,0,1,0,7.92-7.693A7.8,7.8,0,0,0,1206.789,621.7Z" transform="translate(-532.249 -270.417)" fill="#1c2d55"/>
      <path id="Trazado_600029" data-name="Trazado 600029" d="M1206.789,627.736v.021a7.81,7.81,0,0,0,15.617.231v-.021l-15.617-.22Z" transform="translate(-532.249 -276.471)" fill="#1c2d55"/>
      <path id="Trazado_600030" data-name="Trazado 600030" d="M1210.96,623.565a5.484,5.484,0,1,0,5.562-5.405A5.474,5.474,0,0,0,1210.96,623.565Z" transform="translate(-534.088 -272.247)" fill="#fafafa"/>
      <path id="Trazado_600031" data-name="Trazado 600031" d="M1216.521,618.16a5.475,5.475,0,0,0-5.562,5.405l10.967.157A5.483,5.483,0,0,0,1216.521,618.16Z" transform="translate(-534.088 -272.247)" fill="#e0e0e0"/>
      <path id="Trazado_600032" data-name="Trazado 600032" d="M1214.79,625.286a3.343,3.343,0,1,0,3.387-3.3A3.339,3.339,0,0,0,1214.79,625.286Z" transform="translate(-535.777 -273.937)" fill="#1c2d55"/>
      <path id="Trazado_600033" data-name="Trazado 600033" d="M1202.363,623.073S1201.178,612,1212.659,612c10.592,0,10.357,9.53,10.257,11h-1.66s.85-9.393-8.6-9.393-8.614,9.582-8.614,9.582-.693-.043-1.671-.116Z" transform="translate(-530.281 -269.531)" fill="#263c71"/>
      <path id="Trazado_600034" data-name="Trazado 600034" d="M1208.941,614.029l-.1.032c-.067.021-.151.042-.263.084a7.747,7.747,0,0,0-.934.367,7.587,7.587,0,0,0-2.6,1.984,7.7,7.7,0,0,0-1.5,2.907,8.58,8.58,0,0,0-.2.987c-.022.115-.022.21-.034.273s-.011.094-.022.094v-.094a1.359,1.359,0,0,1,.022-.273,7.952,7.952,0,0,1,.168-1,7.373,7.373,0,0,1,1.5-2.949,7.294,7.294,0,0,1,2.644-1.984,7.39,7.39,0,0,1,.945-.346c.112-.032.207-.053.263-.063a.8.8,0,0,0,.1-.021Z" transform="translate(-530.706 -270.426)" fill="#fafafa"/>
    </g>
    <path id="Trazado_604861" data-name="Trazado 604861" d="M17,0H167a17,17,0,0,1,17,17V54a17,17,0,0,1-17,17H17A17,17,0,0,1,0,54V17A17,17,0,0,1,17,0Z" transform="translate(1103.758 5558.32)" fill="#cbffaf"/>
    <path id="Trazado_604862" data-name="Trazado 604862" d="M17,0H167a17,17,0,0,1,17,17V54a17,17,0,0,1-17,17H17A17,17,0,0,1,0,54V17A17,17,0,0,1,17,0Z" transform="translate(1103.758 5750.32)" fill="#cbffaf"/>
    <path id="Trazado_604863" data-name="Trazado 604863" d="M17,0H167a17,17,0,0,1,17,17V54a17,17,0,0,1-17,17H17A17,17,0,0,1,0,54V17A17,17,0,0,1,17,0Z" transform="translate(1103.758 5654.32)" fill="#cbffaf"/>
    <path id="Trazado_604864" data-name="Trazado 604864" d="M38.173,12.834a4.621,4.621,0,0,1-1.512,3.195,5.154,5.154,0,0,1-3.507,1.147,4.99,4.99,0,0,1-2.694-.725,4.759,4.759,0,0,1-1.8-2.061,7.438,7.438,0,0,1-.659-3.1v-1.2a7.491,7.491,0,0,1,.642-3.19,4.835,4.835,0,0,1,1.841-2.127,5.136,5.136,0,0,1,2.773-.747,4.946,4.946,0,0,1,3.41,1.147,4.793,4.793,0,0,1,1.5,3.248H35.958a3.161,3.161,0,0,0-.8-1.991A2.658,2.658,0,0,0,33.26,5.82a2.6,2.6,0,0,0-2.228,1.06,5.3,5.3,0,0,0-.8,3.11v1.135a5.62,5.62,0,0,0,.743,3.167,2.464,2.464,0,0,0,2.175,1.091,2.875,2.875,0,0,0,1.969-.589,3.071,3.071,0,0,0,.835-1.96Zm1.38-.677a5.607,5.607,0,0,1,.554-2.518,4.044,4.044,0,0,1,1.556-1.723,4.383,4.383,0,0,1,2.3-.6A4.154,4.154,0,0,1,47.09,8.554a4.874,4.874,0,0,1,1.3,3.287l.009.5a5.658,5.658,0,0,1-.541,2.514,4,4,0,0,1-1.547,1.714,4.415,4.415,0,0,1-2.325.606,4.125,4.125,0,0,1-3.221-1.34,5.133,5.133,0,0,1-1.208-3.573Zm2.136.185a3.832,3.832,0,0,0,.606,2.3,1.971,1.971,0,0,0,1.688.831,1.95,1.95,0,0,0,1.683-.844,4.232,4.232,0,0,0,.6-2.47,3.782,3.782,0,0,0-.62-2.285A2.089,2.089,0,0,0,42.3,9.859,4.152,4.152,0,0,0,41.689,12.342ZM52.209,7.49l.062.993a3.422,3.422,0,0,1,2.742-1.169,2.629,2.629,0,0,1,2.61,1.459,3.373,3.373,0,0,1,2.918-1.459,2.965,2.965,0,0,1,2.342.87,3.831,3.831,0,0,1,.787,2.566V17H61.535V10.813a1.891,1.891,0,0,0-.4-1.327,1.731,1.731,0,0,0-1.31-.422,1.778,1.778,0,0,0-1.191.391,2.063,2.063,0,0,0-.646,1.024L58,17H55.866V10.742a1.523,1.523,0,0,0-1.714-1.679,1.88,1.88,0,0,0-1.819,1.046V17H50.2V7.49Zm17.842,9.686A4.419,4.419,0,0,1,66.76,15.9,4.639,4.639,0,0,1,65.5,12.491v-.264a5.706,5.706,0,0,1,.549-2.544A4.181,4.181,0,0,1,67.59,7.938a4.078,4.078,0,0,1,2.215-.624,3.733,3.733,0,0,1,3,1.239,5.24,5.24,0,0,1,1.059,3.507v.861H67.652a2.856,2.856,0,0,0,.787,1.863,2.362,2.362,0,0,0,1.736.686,2.892,2.892,0,0,0,2.391-1.187l1.151,1.1a3.845,3.845,0,0,1-1.525,1.323A4.774,4.774,0,0,1,70.051,17.176ZM69.8,9.028a1.8,1.8,0,0,0-1.419.615,3.189,3.189,0,0,0-.69,1.714h4.069V11.2a2.6,2.6,0,0,0-.571-1.622A1.785,1.785,0,0,0,69.8,9.028ZM80.5,9.441a5.285,5.285,0,0,0-.87-.07A1.959,1.959,0,0,0,77.654,10.5V17H75.518V7.49h2.039l.053,1.063a2.406,2.406,0,0,1,2.145-1.239,2,2,0,0,1,.756.123Zm5.089,6.029A1.931,1.931,0,0,0,86.917,15a1.591,1.591,0,0,0,.563-1.151h2.013a3.137,3.137,0,0,1-.554,1.657,3.632,3.632,0,0,1-1.406,1.217,4.191,4.191,0,0,1-1.916.448,4.055,4.055,0,0,1-3.164-1.292,5.124,5.124,0,0,1-1.169-3.568V12.1a5.039,5.039,0,0,1,1.16-3.476,4.018,4.018,0,0,1,3.164-1.305,3.907,3.907,0,0,1,2.764.989,3.542,3.542,0,0,1,1.121,2.6H87.48a1.956,1.956,0,0,0-.558-1.345,1.8,1.8,0,0,0-1.332-.527,1.879,1.879,0,0,0-1.6.751,3.834,3.834,0,0,0-.571,2.281V12.4a3.9,3.9,0,0,0,.558,2.307A1.878,1.878,0,0,0,85.59,15.471ZM93.377,17H91.242V7.49h2.136ZM91.11,5.021a1.133,1.133,0,0,1,.312-.817,1.179,1.179,0,0,1,.892-.325,1.193,1.193,0,0,1,.9.325,1.125,1.125,0,0,1,.316.817,1.1,1.1,0,0,1-.316.8,1.2,1.2,0,0,1-.9.321,1.188,1.188,0,0,1-.892-.321A1.107,1.107,0,0,1,91.11,5.021ZM101.384,17a3.3,3.3,0,0,1-.246-.888,3.593,3.593,0,0,1-4.834.246,2.615,2.615,0,0,1-.905-2.021A2.7,2.7,0,0,1,96.528,12a5.473,5.473,0,0,1,3.23-.813h1.31v-.624a1.666,1.666,0,0,0-.413-1.182A1.638,1.638,0,0,0,99.4,8.94a1.881,1.881,0,0,0-1.2.365,1.129,1.129,0,0,0-.466.927H95.6a2.37,2.37,0,0,1,.519-1.463A3.455,3.455,0,0,1,97.53,7.7a4.955,4.955,0,0,1,1.991-.387,3.99,3.99,0,0,1,2.663.839,2.993,2.993,0,0,1,1.02,2.36V14.8a4.861,4.861,0,0,0,.36,2.048V17Zm-2.347-1.538a2.429,2.429,0,0,0,1.191-.308,2.055,2.055,0,0,0,.839-.826V12.535H99.917a3.148,3.148,0,0,0-1.784.413,1.338,1.338,0,0,0-.6,1.169,1.248,1.248,0,0,0,.409.98A1.583,1.583,0,0,0,99.038,15.462ZM107.712,17h-2.136V3.5h2.136Zm6.513.176a4.419,4.419,0,0,1-3.292-1.279,4.639,4.639,0,0,1-1.261-3.406v-.264a5.706,5.706,0,0,1,.549-2.544,4.181,4.181,0,0,1,1.542-1.745,4.078,4.078,0,0,1,2.215-.624,3.733,3.733,0,0,1,3,1.239,5.24,5.24,0,0,1,1.059,3.507v.861h-6.214a2.856,2.856,0,0,0,.787,1.863,2.362,2.362,0,0,0,1.736.686,2.892,2.892,0,0,0,2.391-1.187l1.151,1.1a3.845,3.845,0,0,1-1.525,1.323A4.774,4.774,0,0,1,114.225,17.176Zm-.255-8.147a1.8,1.8,0,0,0-1.419.615,3.189,3.189,0,0,0-.69,1.714h4.069V11.2a2.6,2.6,0,0,0-.571-1.622A1.785,1.785,0,0,0,113.97,9.028Zm11.057,5.388a.968.968,0,0,0-.47-.87,5,5,0,0,0-1.56-.527,8.02,8.02,0,0,1-1.819-.58,2.428,2.428,0,0,1-1.6-2.241,2.531,2.531,0,0,1,1.037-2.057,4.1,4.1,0,0,1,2.637-.826,4.266,4.266,0,0,1,2.755.844,2.677,2.677,0,0,1,1.05,2.188h-2.136a1.316,1.316,0,0,0-.457-1.024,1.752,1.752,0,0,0-1.213-.409,1.893,1.893,0,0,0-1.147.325,1.025,1.025,0,0,0-.444.87.866.866,0,0,0,.413.765,5.68,5.68,0,0,0,1.67.549,7.9,7.9,0,0,1,1.973.659A2.794,2.794,0,0,1,126.78,13a2.342,2.342,0,0,1,.347,1.3,2.478,2.478,0,0,1-1.063,2.079,4.535,4.535,0,0,1-2.786.8,4.917,4.917,0,0,1-2.083-.422,3.428,3.428,0,0,1-1.424-1.16,2.746,2.746,0,0,1-.51-1.591h2.074a1.5,1.5,0,0,0,.571,1.165,2.22,2.22,0,0,0,1.4.409,2.16,2.16,0,0,0,1.283-.321A.993.993,0,0,0,125.027,14.416Z" transform="translate(1118.758 5581.32)" fill="#12263f"/>
    <path id="Trazado_604865" data-name="Trazado 604865" d="M48.457,13.7a1.545,1.545,0,0,0-.593-1.3,7.138,7.138,0,0,0-2.14-.923,10.335,10.335,0,0,1-2.461-1.037,3.284,3.284,0,0,1-1.749-2.865,3.118,3.118,0,0,1,1.261-2.549,5.1,5.1,0,0,1,3.274-1,5.53,5.53,0,0,1,2.382.492,3.909,3.909,0,0,1,1.644,1.4,3.6,3.6,0,0,1,.6,2.017H48.457a2.005,2.005,0,0,0-.628-1.569,2.594,2.594,0,0,0-1.8-.567,2.709,2.709,0,0,0-1.692.466,1.551,1.551,0,0,0-.6,1.3,1.4,1.4,0,0,0,.65,1.173,7.493,7.493,0,0,0,2.145.914,9.865,9.865,0,0,1,2.4,1.011,3.816,3.816,0,0,1,1.327,1.3,3.388,3.388,0,0,1,.422,1.718,3.045,3.045,0,0,1-1.226,2.544,5.318,5.318,0,0,1-3.327.945,6.251,6.251,0,0,1-2.553-.514,4.289,4.289,0,0,1-1.811-1.419,3.537,3.537,0,0,1-.646-2.109h2.224a2.07,2.07,0,0,0,.721,1.688,3.156,3.156,0,0,0,2.065.6,2.742,2.742,0,0,0,1.745-.47A1.517,1.517,0,0,0,48.457,13.7Zm8.156,3.472A4.419,4.419,0,0,1,53.321,15.9a4.639,4.639,0,0,1-1.261-3.406v-.264a5.706,5.706,0,0,1,.549-2.544,4.181,4.181,0,0,1,1.542-1.745,4.078,4.078,0,0,1,2.215-.624,3.733,3.733,0,0,1,3,1.239,5.24,5.24,0,0,1,1.059,3.507v.861H54.213A2.856,2.856,0,0,0,55,14.785a2.362,2.362,0,0,0,1.736.686,2.892,2.892,0,0,0,2.391-1.187l1.151,1.1a3.845,3.845,0,0,1-1.525,1.323A4.774,4.774,0,0,1,56.613,17.176Zm-.255-8.147a1.8,1.8,0,0,0-1.419.615,3.189,3.189,0,0,0-.69,1.714h4.069V11.2a2.6,2.6,0,0,0-.571-1.622A1.785,1.785,0,0,0,56.358,9.028Zm10.705.413a5.285,5.285,0,0,0-.87-.07A1.959,1.959,0,0,0,64.215,10.5V17H62.08V7.49h2.039l.053,1.063a2.406,2.406,0,0,1,2.145-1.239,2,2,0,0,1,.756.123Zm4.86,4.852,2.013-6.8h2.206L72.846,17H70.992L67.669,7.49h2.215ZM79.746,17H77.61V7.49h2.136ZM77.478,5.021A1.133,1.133,0,0,1,77.79,4.2a1.179,1.179,0,0,1,.892-.325,1.193,1.193,0,0,1,.9.325,1.125,1.125,0,0,1,.316.817,1.1,1.1,0,0,1-.316.8,1.2,1.2,0,0,1-.9.321,1.188,1.188,0,0,1-.892-.321A1.107,1.107,0,0,1,77.478,5.021Zm8.5,10.45A1.931,1.931,0,0,0,87.3,15a1.591,1.591,0,0,0,.563-1.151h2.013a3.137,3.137,0,0,1-.554,1.657,3.632,3.632,0,0,1-1.406,1.217A4.191,4.191,0,0,1,86,17.176a4.055,4.055,0,0,1-3.164-1.292,5.124,5.124,0,0,1-1.169-3.568V12.1a5.039,5.039,0,0,1,1.16-3.476,4.018,4.018,0,0,1,3.164-1.305,3.907,3.907,0,0,1,2.764.989,3.542,3.542,0,0,1,1.121,2.6H87.867a1.956,1.956,0,0,0-.558-1.345,1.8,1.8,0,0,0-1.332-.527,1.879,1.879,0,0,0-1.6.751,3.834,3.834,0,0,0-.571,2.281V12.4a3.9,3.9,0,0,0,.558,2.307A1.878,1.878,0,0,0,85.977,15.471ZM93.764,17H91.628V7.49h2.136ZM91.5,5.021a1.133,1.133,0,0,1,.312-.817,1.179,1.179,0,0,1,.892-.325,1.193,1.193,0,0,1,.9.325,1.125,1.125,0,0,1,.316.817,1.1,1.1,0,0,1-.316.8,1.2,1.2,0,0,1-.9.321,1.188,1.188,0,0,1-.892-.321A1.107,1.107,0,0,1,91.5,5.021Zm4.192,7.137a5.607,5.607,0,0,1,.554-2.518A4.044,4.044,0,0,1,97.8,7.917a4.383,4.383,0,0,1,2.3-.6,4.154,4.154,0,0,1,3.125,1.239,4.874,4.874,0,0,1,1.3,3.287l.009.5a5.658,5.658,0,0,1-.541,2.514,4,4,0,0,1-1.547,1.714,4.415,4.415,0,0,1-2.325.606,4.125,4.125,0,0,1-3.221-1.34,5.133,5.133,0,0,1-1.208-3.573Zm2.136.185a3.832,3.832,0,0,0,.606,2.3,1.971,1.971,0,0,0,1.688.831,1.95,1.95,0,0,0,1.683-.844,4.232,4.232,0,0,0,.6-2.47,3.782,3.782,0,0,0-.62-2.285,2.089,2.089,0,0,0-3.344-.013A4.152,4.152,0,0,0,97.825,12.342Zm13.843,2.074a.968.968,0,0,0-.47-.87,5,5,0,0,0-1.56-.527,8.02,8.02,0,0,1-1.819-.58,2.428,2.428,0,0,1-1.6-2.241,2.531,2.531,0,0,1,1.037-2.057,4.1,4.1,0,0,1,2.637-.826,4.266,4.266,0,0,1,2.755.844,2.677,2.677,0,0,1,1.05,2.188h-2.136a1.316,1.316,0,0,0-.457-1.024,1.752,1.752,0,0,0-1.213-.409,1.893,1.893,0,0,0-1.147.325,1.025,1.025,0,0,0-.444.87.866.866,0,0,0,.413.765,5.68,5.68,0,0,0,1.67.549,7.9,7.9,0,0,1,1.973.659,2.794,2.794,0,0,1,1.063.918,2.342,2.342,0,0,1,.347,1.3A2.478,2.478,0,0,1,112.7,16.38a4.535,4.535,0,0,1-2.786.8,4.917,4.917,0,0,1-2.083-.422,3.428,3.428,0,0,1-1.424-1.16A2.746,2.746,0,0,1,105.9,14h2.074a1.5,1.5,0,0,0,.571,1.165,2.22,2.22,0,0,0,1.4.409,2.16,2.16,0,0,0,1.283-.321A.993.993,0,0,0,111.667,14.416Z" transform="translate(1118.758 5773.32)" fill="#12263f"/>
    <path id="Trazado_604866" data-name="Trazado 604866" d="M33.779,17H31.564V4.2h2.215Zm4.509-9.51.062,1.1a3.419,3.419,0,0,1,2.769-1.274q2.971,0,3.023,3.4V17H42.005V10.839a1.958,1.958,0,0,0-.391-1.34,1.645,1.645,0,0,0-1.279-.435,2.058,2.058,0,0,0-1.925,1.169V17H36.275V7.49Zm7.629,4.685a5.654,5.654,0,0,1,1.02-3.529,3.267,3.267,0,0,1,2.733-1.332,3.1,3.1,0,0,1,2.443,1.055V3.5h2.136V17H52.315l-.105-.984a3.148,3.148,0,0,1-2.558,1.16,3.248,3.248,0,0,1-2.7-1.345A5.861,5.861,0,0,1,45.917,12.175Zm2.136.185a3.958,3.958,0,0,0,.558,2.263,1.811,1.811,0,0,0,1.586.813,2.017,2.017,0,0,0,1.916-1.169V10.206a1.986,1.986,0,0,0-1.9-1.143,1.824,1.824,0,0,0-1.6.822A4.408,4.408,0,0,0,48.052,12.359Zm14.186,3.709a3.312,3.312,0,0,1-2.672,1.107,2.952,2.952,0,0,1-2.342-.905,3.851,3.851,0,0,1-.8-2.619V7.49h2.136v6.135q0,1.811,1.5,1.811a2.111,2.111,0,0,0,2.1-1.116V7.49H64.3V17H62.291Zm9.571-1.652a.968.968,0,0,0-.47-.87,5,5,0,0,0-1.56-.527,8.02,8.02,0,0,1-1.819-.58,2.428,2.428,0,0,1-1.6-2.241A2.531,2.531,0,0,1,67.4,8.141a4.1,4.1,0,0,1,2.637-.826,4.266,4.266,0,0,1,2.755.844,2.677,2.677,0,0,1,1.05,2.188H71.7a1.316,1.316,0,0,0-.457-1.024,1.752,1.752,0,0,0-1.213-.409,1.893,1.893,0,0,0-1.147.325,1.025,1.025,0,0,0-.444.87.866.866,0,0,0,.413.765,5.68,5.68,0,0,0,1.67.549,7.9,7.9,0,0,1,1.973.659A2.794,2.794,0,0,1,73.563,13a2.342,2.342,0,0,1,.347,1.3,2.478,2.478,0,0,1-1.063,2.079,4.535,4.535,0,0,1-2.786.8,4.917,4.917,0,0,1-2.083-.422,3.428,3.428,0,0,1-1.424-1.16A2.746,2.746,0,0,1,66.043,14h2.074a1.5,1.5,0,0,0,.571,1.165,2.22,2.22,0,0,0,1.4.409,2.16,2.16,0,0,0,1.283-.321A.993.993,0,0,0,71.809,14.416Zm6.636-9.237V7.49h1.679V9.072H78.445v5.309a1.169,1.169,0,0,0,.215.787,1,1,0,0,0,.769.242,3.29,3.29,0,0,0,.747-.088v1.652a5.26,5.26,0,0,1-1.406.2q-2.461,0-2.461-2.716V9.072H74.745V7.49h1.564V5.179Zm8.288,4.263a5.285,5.285,0,0,0-.87-.07A1.959,1.959,0,0,0,83.885,10.5V17H81.75V7.49h2.039l.053,1.063a2.406,2.406,0,0,1,2.145-1.239,2,2,0,0,1,.756.123ZM90.354,17H88.218V7.49h2.136ZM88.086,5.021A1.133,1.133,0,0,1,88.4,4.2a1.179,1.179,0,0,1,.892-.325,1.193,1.193,0,0,1,.9.325,1.125,1.125,0,0,1,.316.817,1.1,1.1,0,0,1-.316.8,1.2,1.2,0,0,1-.9.321,1.188,1.188,0,0,1-.892-.321A1.107,1.107,0,0,1,88.086,5.021ZM98.361,17a3.3,3.3,0,0,1-.246-.888,3.593,3.593,0,0,1-4.834.246,2.615,2.615,0,0,1-.905-2.021A2.7,2.7,0,0,1,93.5,12a5.473,5.473,0,0,1,3.23-.813h1.31v-.624a1.666,1.666,0,0,0-.413-1.182,1.638,1.638,0,0,0-1.257-.444,1.881,1.881,0,0,0-1.2.365,1.129,1.129,0,0,0-.466.927H92.578A2.37,2.37,0,0,1,93.1,8.769,3.455,3.455,0,0,1,94.507,7.7,4.955,4.955,0,0,1,96.5,7.314a3.99,3.99,0,0,1,2.663.839,2.993,2.993,0,0,1,1.02,2.36V14.8a4.861,4.861,0,0,0,.36,2.048V17Zm-2.347-1.538a2.429,2.429,0,0,0,1.191-.308,2.055,2.055,0,0,0,.839-.826V12.535H96.893a3.148,3.148,0,0,0-1.784.413,1.338,1.338,0,0,0-.6,1.169,1.248,1.248,0,0,0,.409.98A1.583,1.583,0,0,0,96.014,15.462ZM104.689,17h-2.136V3.5h2.136Zm6.513.176A4.419,4.419,0,0,1,107.91,15.9a4.639,4.639,0,0,1-1.261-3.406v-.264a5.706,5.706,0,0,1,.549-2.544,4.181,4.181,0,0,1,1.542-1.745,4.078,4.078,0,0,1,2.215-.624,3.733,3.733,0,0,1,3,1.239,5.24,5.24,0,0,1,1.059,3.507v.861H108.8a2.856,2.856,0,0,0,.787,1.863,2.362,2.362,0,0,0,1.736.686,2.892,2.892,0,0,0,2.391-1.187l1.151,1.1a3.845,3.845,0,0,1-1.525,1.323A4.774,4.774,0,0,1,111.2,17.176Zm-.255-8.147a1.8,1.8,0,0,0-1.419.615,3.189,3.189,0,0,0-.69,1.714h4.069V11.2a2.6,2.6,0,0,0-.571-1.622A1.785,1.785,0,0,0,110.947,9.028ZM122,14.416a.968.968,0,0,0-.47-.87,5,5,0,0,0-1.56-.527,8.02,8.02,0,0,1-1.819-.58,2.428,2.428,0,0,1-1.6-2.241,2.531,2.531,0,0,1,1.037-2.057,4.1,4.1,0,0,1,2.637-.826,4.266,4.266,0,0,1,2.755.844,2.677,2.677,0,0,1,1.05,2.188H121.9a1.316,1.316,0,0,0-.457-1.024,1.752,1.752,0,0,0-1.213-.409,1.893,1.893,0,0,0-1.147.325,1.025,1.025,0,0,0-.444.87.866.866,0,0,0,.413.765,5.68,5.68,0,0,0,1.67.549,7.9,7.9,0,0,1,1.973.659,2.794,2.794,0,0,1,1.063.918,2.342,2.342,0,0,1,.347,1.3,2.478,2.478,0,0,1-1.063,2.079,4.535,4.535,0,0,1-2.786.8,4.917,4.917,0,0,1-2.083-.422,3.428,3.428,0,0,1-1.424-1.16,2.746,2.746,0,0,1-.51-1.591h2.074a1.5,1.5,0,0,0,.571,1.165,2.22,2.22,0,0,0,1.4.409,2.16,2.16,0,0,0,1.283-.321A.993.993,0,0,0,122,14.416Z" transform="translate(1118.758 5677.32)" fill="#12263f"/>
  </g>
</svg>
