<svg xmlns="http://www.w3.org/2000/svg" width="135.596" height="135.626" viewBox="0 0 135.596 135.626">
  <g id="Grupo_1014754" data-name="Grupo 1014754" transform="translate(-617.867 -3352.487)">
    <path id="Trazado_601569" data-name="Trazado 601569" d="M132.493,2974.84a67.813,67.813,0,1,1-67.813,67.813A67.794,67.794,0,0,1,132.493,2974.84Z" transform="translate(553.187 377.646)" fill="#60cb28"/>
    <g id="Grupo_1014753" data-name="Grupo 1014753">
      <path id="Trazado_601695" data-name="Trazado 601695" d="M283.1,3132.57l2.406,4.874,5.38.783-3.893,3.8.919,5.357-4.812-2.529-4.812,2.529.919-5.357-3.893-3.8,5.38-.783Z" transform="translate(426.704 282.932)" fill="#1c2d55"/>
      <path id="Trazado_601696" data-name="Trazado 601696" d="M160.733,3103.47l2.406,4.874,5.38.783-3.893,3.8.919,5.357-4.812-2.529-4.813,2.529.92-5.357-3.893-3.8,5.38-.783Z" transform="translate(500.184 300.406)" fill="#1c2d55"/>
      <path id="Trazado_601697" data-name="Trazado 601697" d="M213.013,3044.441c-5.642,0-4.836-5.441-4.836-5.441h4.836l.25,2.629Z" transform="translate(467.043 339.119)" fill="#1c466d"/>
      <path id="Trazado_601698" data-name="Trazado 601698" d="M247.772,3044.441c5.642,0,4.836-5.441,4.836-5.441h-4.836l-.25,2.629Z" transform="translate(443.393 339.119)" fill="#1c466d"/>
      <path id="Trazado_601699" data-name="Trazado 601699" d="M232.5,3077.616a1.161,1.161,0,0,1-1.161-1.163v-5.381a1.16,1.16,0,1,1,2.321,0v5.381A1.161,1.161,0,0,1,232.5,3077.616Z" transform="translate(453.111 320.559)" fill="#1c466d"/>
      <path id="Trazado_601700" data-name="Trazado 601700" d="M220.315,3039v7.946a5.564,5.564,0,1,0,11.128,0V3039Z" transform="translate(459.73 339.119)" fill="#1c2d55"/>
      <path id="Trazado_601701" data-name="Trazado 601701" d="M220,3091.915a5.622,5.622,0,1,1,11.245,0Z" transform="translate(459.918 310.723)" fill="#1c2d55"/>
      <path id="Trazado_601702" data-name="Trazado 601702" d="M228.2,3097.46H211.541a1.161,1.161,0,0,0,0,2.321H228.2a1.161,1.161,0,0,0,0-2.321Z" transform="translate(465.695 304.016)" fill="#1c466d"/>
      <path id="Trazado_601703" data-name="Trazado 601703" d="M227.994,3163.378H204.387v-43.727a1.821,1.821,0,0,1,1.821-1.822h19.964a1.821,1.821,0,0,1,1.821,1.822Z" transform="translate(469.294 291.783)" fill="#c3ddff"/>
      <path id="Trazado_601704" data-name="Trazado 601704" d="M249.617,3117.83h-6.188a1.821,1.821,0,0,1,1.821,1.822v43.727h6.188v-43.727A1.821,1.821,0,0,0,249.617,3117.83Z" transform="translate(445.85 291.783)" fill="#a4ccff"/>
      <path id="Trazado_601705" data-name="Trazado 601705" d="M287.487,3204.506H263.879v-16.364a1.822,1.822,0,0,1,1.822-1.822h19.964a1.821,1.821,0,0,1,1.822,1.822v16.364Z" transform="translate(433.57 250.655)" fill="#c7edb4"/>
      <path id="Trazado_601706" data-name="Trazado 601706" d="M309.109,3186.32h-6.188a1.821,1.821,0,0,1,1.822,1.822v16.364h6.188v-16.364A1.822,1.822,0,0,0,309.109,3186.32Z" transform="translate(410.126 250.655)" fill="#c7edb4"/>
      <path id="Trazado_601707" data-name="Trazado 601707" d="M168.9,3186.287H145.294V3157.8a1.822,1.822,0,0,1,1.822-1.822H167.08a1.821,1.821,0,0,1,1.822,1.822v28.485Z" transform="translate(504.779 268.875)" fill="#7e19b8"/>
      <path id="Trazado_601708" data-name="Trazado 601708" d="M190.525,3155.98h-6.188a1.821,1.821,0,0,1,1.822,1.822v28.485h6.188V3157.8A1.822,1.822,0,0,0,190.525,3155.98Z" transform="translate(481.334 268.875)" fill="#641493"/>
      <path id="Trazado_601709" data-name="Trazado 601709" d="M213.049,3228.94H136.16a1.159,1.159,0,1,0,0,2.317h76.889a1.159,1.159,0,1,0,0-2.317Z" transform="translate(510.96 225.063)" fill="#1c2d55"/>
    </g>
  </g>
</svg>
