<svg xmlns="http://www.w3.org/2000/svg" width="117.956" height="117.982" viewBox="0 0 117.956 117.982">
  <g id="Grupo_1014613" data-name="Grupo 1014613" transform="translate(-180 -2673.713)">
    <path id="Trazado_601563" data-name="Trazado 601563" d="M123.671,46.841a58.991,58.991,0,1,1-58.991,58.991A58.974,58.974,0,0,1,123.671,46.841Z" transform="translate(115.319 2626.872)" fill="#60cb28"/>
    <path id="Trazado_601570" data-name="Trazado 601570" d="M164.207,248.664c0,5.762,2.736,8.533,2.736,8.533h-5.938a1.482,1.482,0,0,1-1.211-.62,15.1,15.1,0,0,1,0-15.828,1.483,1.483,0,0,1,1.211-.62h5.938S164.207,242.9,164.207,248.664Z" transform="translate(54.722 2500.76)" fill="#641493"/>
    <path id="Trazado_601571" data-name="Trazado 601571" d="M166.944,240.129s-2.659,2.692-2.735,8.289l-5.571,6.034a14.979,14.979,0,0,1-1.082-5.789,13.542,13.542,0,0,1,2.239-7.915,1.482,1.482,0,0,1,1.21-.619h5.938Z" transform="translate(54.722 2500.76)" fill="#641493"/>
    <path id="Trazado_601572" data-name="Trazado 601572" d="M219.631,248.662a12.957,12.957,0,0,0,3.111,8.534H175.137s-2.737-2.771-2.737-8.534,2.737-8.534,2.737-8.534h47.606A12.959,12.959,0,0,0,219.631,248.662Z" transform="translate(45.037 2500.761)" fill="#e0d3ce"/>
    <path id="Trazado_601573" data-name="Trazado 601573" d="M181.547,240.129l-9.1,9.854c-.031-.421-.049-.862-.049-1.32,0-5.764,2.737-8.535,2.737-8.535Z" transform="translate(45.037 2500.76)" fill="#cdbfbb"/>
    <path id="Trazado_601574" data-name="Trazado 601574" d="M297.713,248.665a12.956,12.956,0,0,0,3.111,8.533h-5.641a13.259,13.259,0,0,1,0-17.067h5.641A12.952,12.952,0,0,0,297.713,248.665Z" transform="translate(-33.045 2500.758)" fill="#cdbfbb"/>
    <path id="Trazado_601575" data-name="Trazado 601575" d="M228.321,230.894a2.476,2.476,0,0,1-2.477,2.477H178.516a2.477,2.477,0,0,1,0-4.955h47.329A2.477,2.477,0,0,1,228.321,230.894Z" transform="translate(42.662 2508.402)" fill="#641493"/>
    <path id="Trazado_601576" data-name="Trazado 601576" d="M187.678,228.416l-4.573,4.955h-4.59a2.477,2.477,0,0,1,0-4.955Z" transform="translate(42.662 2508.402)" fill="#641493"/>
    <path id="Trazado_601578" data-name="Trazado 601578" d="M225.843,291.648H178.514a2.477,2.477,0,1,1,0-4.954h47.329a2.477,2.477,0,1,1,0,4.954Z" transform="translate(42.664 2470.378)" fill="#641493"/>
    <path id="Trazado_601580" data-name="Trazado 601580" d="M196.266,255.213a1.119,1.119,0,0,1-1.12,1.119H172.572a15.448,15.448,0,0,1,.348-2.239h22.226A1.12,1.12,0,0,1,196.266,255.213Z" transform="translate(44.924 2491.648)" fill="#cdbfbb"/>
    <path id="Trazado_601581" data-name="Trazado 601581" d="M277.849,254.094a13.205,13.205,0,0,0-.432,2.239H261.969a1.12,1.12,0,0,1,0-2.239Z" transform="translate(-12.673 2491.648)" fill="#cdbfbb"/>
    <path id="Trazado_601582" data-name="Trazado 601582" d="M223.888,270.967H197.8a1.119,1.119,0,1,1,0-2.239h26.083a1.119,1.119,0,1,1,0,2.239Z" transform="translate(29.192 2482.1)" fill="#cdbfbb"/>
    <path id="Trazado_601583" data-name="Trazado 601583" d="M145.609,211.17l-4-4L114.387,232.3a4.311,4.311,0,1,0,6.092,6.092Z" transform="translate(83.793 2522.264)" fill="#873f30"/>
    <path id="Trazado_601584" data-name="Trazado 601584" d="M120.756,240.828a4.313,4.313,0,0,1-6.095,0,4.268,4.268,0,0,1-1.051-1.718,4.3,4.3,0,0,0,4.374-1.047c.041-.041.083-.085.123-.128l25.132-27.224,2.769,2.769L120.876,240.7C120.836,240.745,120.8,240.788,120.756,240.828Z" transform="translate(83.395 2519.954)" fill="#6c3328"/>
    <path id="Trazado_601585" data-name="Trazado 601585" d="M200.872,179.907l-9.209,10.985,3.762,3.762,10.985-9.209Z" transform="translate(32.468 2540.052)" fill="#873f30"/>
    <path id="Trazado_601586" data-name="Trazado 601586" d="M203.654,179.907l-2.976,3.549.893.893a1.683,1.683,0,0,1,0,2.38l-5.644,5.644,2.28,2.28,10.984-9.209Z" transform="translate(29.686 2540.052)" fill="#6c3328"/>
    <path id="Trazado_601587" data-name="Trazado 601587" d="M187.338,213.309l-3.652-3.652a2.7,2.7,0,0,1,3.823-3.823l3.652,3.652a2.7,2.7,0,0,1-3.823,3.823Z" transform="translate(38.19 2523.653)" fill="#ba5d4f"/>
    <path id="Trazado_601588" data-name="Trazado 601588" d="M194.3,216.453a2.7,2.7,0,0,1-3.823,0l-2.768-2.768a2.7,2.7,0,1,0,3.823-3.823l2.768,2.768A2.7,2.7,0,0,1,194.3,216.453Z" transform="translate(35.046 2520.508)" fill="#a34f41"/>
    <path id="Trazado_601589" data-name="Trazado 601589" d="M207.99,107.668l8.108,8.108-12.729,12.73-8.108-8.108Z" transform="translate(30.121 2587.185)" fill="#ba5d4f"/>
    <path id="Trazado_601590" data-name="Trazado 601590" d="M254.473,179.64l-8.108-8.108,12.729-12.73,8.108,8.108Z" transform="translate(-3.222 2553.823)" fill="#a34f41"/>
    <path id="Trazado_601591" data-name="Trazado 601591" d="M186.666,116.884l-.282-.282a2.735,2.735,0,0,1,0-3.867L200.317,98.8a2.735,2.735,0,0,1,3.867,0l.282.282a2.735,2.735,0,0,1,0,3.868l-13.933,13.933A2.735,2.735,0,0,1,186.666,116.884Z" transform="translate(36.435 2593.493)" fill="#873f30"/>
    <path id="Trazado_601592" data-name="Trazado 601592" d="M260.162,190.38l.282.282a2.735,2.735,0,0,0,3.868,0l13.933-13.933a2.735,2.735,0,0,0,0-3.868l-.282-.282a2.735,2.735,0,0,0-3.868,0l-13.933,13.933A2.735,2.735,0,0,0,260.162,190.38Z" transform="translate(-11.702 2545.356)" fill="#6c3328"/>
    <path id="Trazado_601593" data-name="Trazado 601593" d="M229.251,122.428l9.105,9.105-19.225,19.225-9.105-9.105Z" transform="translate(20.487 2577.555)" fill="#fcc16d"/>
    <path id="Trazado_601594" data-name="Trazado 601594" d="M222.949,154.623,242.174,135.4l4.609,4.608-19.225,19.225Z" transform="translate(12.056 2569.093)" fill="#fca62f"/>
    <path id="Trazado_601595" data-name="Trazado 601595" d="M226.567,119.326l-2.231-.912a2.052,2.052,0,0,0-2.227.448l-15.664,15.665a2.05,2.05,0,0,0-.448,2.227l.912,2.231a1.368,1.368,0,0,0,2.233.449l17.875-17.875A1.368,1.368,0,0,0,226.567,119.326Z" transform="translate(23.216 2580.273)" fill="#873f30"/>
    <path id="Trazado_601596" data-name="Trazado 601596" d="M254.173,146.933l.912,2.231a2.052,2.052,0,0,1-.448,2.227l-15.665,15.664a2.051,2.051,0,0,1-2.227.448l-2.231-.912a1.368,1.368,0,0,1-.449-2.233l17.875-17.875A1.368,1.368,0,0,1,254.173,146.933Z" transform="translate(5.064 2562.121)" fill="#6c3328"/>
  </g>
</svg>
