<svg xmlns="http://www.w3.org/2000/svg" width="135.596" height="135.626" viewBox="0 0 135.596 135.626">
  <g id="Grupo_1014744" data-name="Grupo 1014744" transform="translate(-254.354 -2886.637)">
    <path id="Trazado_601565" data-name="Trazado 601565" d="M132.493,1022.84a67.813,67.813,0,1,1-67.813,67.813A67.794,67.794,0,0,1,132.493,1022.84Z" transform="translate(189.673 1863.797)" fill="#60cb28"/>
    <g id="Grupo_1014743" data-name="Grupo 1014743">
      <path id="Trazado_601620" data-name="Trazado 601620" d="M162.983,1160.965A46.983,46.983,0,1,0,116,1113.983,46.982,46.982,0,0,0,162.983,1160.965Z" transform="translate(158.856 1837.279)" fill="#e0e4ee"/>
      <path id="Trazado_601621" data-name="Trazado 601621" d="M123.808,1122.332A46.938,46.938,0,0,1,131.681,1109h8.3a4.195,4.195,0,1,1,0,8.39h-3.356a2.517,2.517,0,0,0-2.517,2.517,2.517,2.517,0,0,1-2.517,2.517h-7.551Z" transform="translate(154.168 1812.059)" fill="#c7edb4"/>
      <path id="Trazado_601622" data-name="Trazado 601622" d="M313.1,1136.475H288.2v-11.746a3.355,3.355,0,0,1,3.356-3.356,3.355,3.355,0,0,0,3.356-3.356v-1.678a3.355,3.355,0,0,1,3.356-3.356h5.453l-.111-.144A46.751,46.751,0,0,1,313.1,1136.475Z" transform="translate(55.453 1809.753)" fill="#c7edb4"/>
      <path id="Trazado_601623" data-name="Trazado 601623" d="M181.628,1069.481v7.587a8.34,8.34,0,0,0,3.356,6.672v5.206a3.321,3.321,0,0,0,3.425,3.224,3.356,3.356,0,0,1-.069,6.712h-12.36a4.535,4.535,0,0,0-3.781,2v9.744h24.53v-5.777a2.537,2.537,0,0,1,2.451-2.613,2.516,2.516,0,0,0,2.582-2.517,2.517,2.517,0,0,1,2.517-2.517h4.195a3.355,3.355,0,0,0,3.356-3.356l0-24.366a47.2,47.2,0,0,0-30.2,0Z" transform="translate(125.109 1837.279)" fill="#c7edb4"/>
      <path id="Trazado_601624" data-name="Trazado 601624" d="M285.647,1213.135v20.135a3.356,3.356,0,1,1-6.712,0v-6.712a3.356,3.356,0,0,0-6.712,0v6.712a3.356,3.356,0,1,1-6.712,0v-20.135a3.356,3.356,0,1,1-6.712,0V1201.39a8.39,8.39,0,0,1,8.39-8.39h16.78a8.39,8.39,0,0,1,8.39,8.39v11.746a3.356,3.356,0,1,1-6.712,0Z" transform="translate(73.107 1761.618)" fill="#758190"/>
      <path id="Trazado_601625" data-name="Trazado 601625" d="M288.19,1167.78a8.39,8.39,0,1,0-8.39-8.39A8.389,8.389,0,0,0,288.19,1167.78Z" transform="translate(60.497 1786.839)" fill="#758190"/>
      <path id="Trazado_601626" data-name="Trazado 601626" d="M254.59,1176.18a8.39,8.39,0,1,0-8.39-8.39A8.389,8.389,0,0,0,254.59,1176.18Z" transform="translate(80.673 1781.795)" fill="#8892a0"/>
      <path id="Trazado_601627" data-name="Trazado 601627" d="M252.047,1221.535v20.135a3.356,3.356,0,0,1-6.712,0v-6.712a3.356,3.356,0,0,0-6.712,0v6.712a3.356,3.356,0,0,1-6.712,0v-20.135a3.356,3.356,0,1,1-6.712,0V1209.79a8.39,8.39,0,0,1,8.39-8.39h16.78a8.39,8.39,0,0,1,8.39,8.39v11.746a3.356,3.356,0,1,1-6.712,0Z" transform="translate(93.283 1756.574)" fill="#8892a0"/>
      <path id="Trazado_601628" data-name="Trazado 601628" d="M131.112,1213.135v20.135a3.356,3.356,0,1,0,6.712,0v-6.712a3.356,3.356,0,0,1,6.712,0v6.712a3.356,3.356,0,1,0,6.712,0v-20.135a3.356,3.356,0,1,0,6.712,0V1201.39a8.39,8.39,0,0,0-8.39-8.39H132.79a8.39,8.39,0,0,0-8.39,8.39v11.746a3.356,3.356,0,1,0,6.712,0Z" transform="translate(153.813 1761.618)" fill="#758190"/>
      <path id="Trazado_601629" data-name="Trazado 601629" d="M153.79,1167.78a8.39,8.39,0,1,0-8.39-8.39A8.389,8.389,0,0,0,153.79,1167.78Z" transform="translate(141.202 1786.839)" fill="#758190"/>
      <path id="Trazado_601630" data-name="Trazado 601630" d="M187.39,1176.18a8.39,8.39,0,1,0-8.39-8.39A8.389,8.389,0,0,0,187.39,1176.18Z" transform="translate(121.026 1781.795)" fill="#8892a0"/>
      <path id="Trazado_601631" data-name="Trazado 601631" d="M164.712,1221.535v20.135a3.356,3.356,0,0,0,6.712,0v-6.712a3.356,3.356,0,0,1,6.712,0v6.712a3.356,3.356,0,0,0,6.712,0v-20.135a3.356,3.356,0,1,0,6.712,0V1209.79a8.39,8.39,0,0,0-8.39-8.39H166.39a8.39,8.39,0,0,0-8.39,8.39v11.746a3.356,3.356,0,1,0,6.712,0Z" transform="translate(133.636 1756.574)" fill="#8892a0"/>
      <path id="Trazado_601632" data-name="Trazado 601632" d="M218.447,1229.935v20.135a3.356,3.356,0,1,1-6.712,0v-6.712a3.356,3.356,0,1,0-6.712,0v6.712a3.356,3.356,0,1,1-6.712,0v-20.135a3.356,3.356,0,1,1-6.712,0V1218.19a8.39,8.39,0,0,1,8.39-8.39h16.78a8.39,8.39,0,0,1,8.39,8.39v11.746a3.356,3.356,0,1,1-6.712,0Z" transform="translate(113.459 1751.529)" fill="#a8b0bc"/>
      <path id="Trazado_601633" data-name="Trazado 601633" d="M220.99,1184.58a8.39,8.39,0,1,0-8.39-8.39A8.389,8.389,0,0,0,220.99,1184.58Z" transform="translate(100.85 1776.75)" fill="#a8b0bc"/>
    </g>
  </g>
</svg>
