<svg xmlns="http://www.w3.org/2000/svg" width="1238" height="346.788" viewBox="0 0 1238 346.788">
  <g id="Grupo_1015303" data-name="Grupo 1015303" transform="translate(-181 -8905.212)">
    <g id="Grupo_874795" data-name="Grupo 874795" transform="translate(1998.44 17660.859) rotate(180)">
      <g id="Grupo_874789" data-name="Grupo 874789" transform="translate(670.441 8754.647) rotate(-90)">
        <path id="Trazado_596828" data-name="Trazado 596828" d="M0,789.284V0" transform="translate(0)" fill="none" stroke="#60cb28" stroke-width="2"/>
      </g>
    </g>
    <g id="Grupo_1015293" data-name="Grupo 1015293">
      <path id="Trazado_598029" data-name="Trazado 598029" d="M0,0H210V74.671H0Z" transform="translate(181 8990)" fill="#dde2ed"/>
      <path id="Trazado_598034" data-name="Trazado 598034" d="M0,0H210V74.671H0Z" transform="translate(1209 8990)" fill="#dde2ed"/>
      <path id="Trazado_598036" data-name="Trazado 598036" d="M0,0H210V74.671H0Z" transform="translate(687 8990)" fill="#dde2ed"/>
      <path id="Trazado_598037" data-name="Trazado 598037" d="M0,0H210V74.671H0Z" transform="translate(434 8990)" fill="#dde2ed"/>
      <path id="Trazado_604871" data-name="Trazado 604871" d="M11.68,10.762H6.9V14H12.51v2h-8.1V3.914h8.085V5.931H6.9v2.88H11.68Zm7,2.756a.773.773,0,0,0-.436-.693,4.95,4.95,0,0,0-1.4-.452q-3.2-.672-3.2-2.723a2.468,2.468,0,0,1,.992-2,4,4,0,0,1,2.594-.8,4.307,4.307,0,0,1,2.735.805A2.538,2.538,0,0,1,20.985,9.75h-2.4a1.161,1.161,0,0,0-.332-.851,1.405,1.405,0,0,0-1.038-.336,1.436,1.436,0,0,0-.938.274.865.865,0,0,0-.332.7.739.739,0,0,0,.378.643A3.885,3.885,0,0,0,17.6,10.6a10.407,10.407,0,0,1,1.511.4,2.482,2.482,0,0,1,1.9,2.416,2.343,2.343,0,0,1-1.054,1.988,4.548,4.548,0,0,1-2.723.76,4.75,4.75,0,0,1-2-.4,3.363,3.363,0,0,1-1.374-1.1,2.565,2.565,0,0,1-.5-1.515h2.274a1.252,1.252,0,0,0,.473.979,1.877,1.877,0,0,0,1.179.34,1.737,1.737,0,0,0,1.042-.261A.814.814,0,0,0,18.677,13.518Zm6.749-8.708V7.019h1.536v1.76H25.426v4.482a1.07,1.07,0,0,0,.191.714.959.959,0,0,0,.73.216,3.826,3.826,0,0,0,.706-.058V15.95a4.938,4.938,0,0,1-1.453.216,2.29,2.29,0,0,1-2.573-2.548V8.778H21.715V7.019h1.312V4.811Zm7.919,4.458a6.517,6.517,0,0,0-.863-.066,1.757,1.757,0,0,0-1.785.921V16H28.3V7.019h2.266l.066,1.071a2.223,2.223,0,0,1,2-1.237,2.514,2.514,0,0,1,.747.108ZM39.454,16a2.664,2.664,0,0,1-.241-.805,2.9,2.9,0,0,1-2.266.971A3.189,3.189,0,0,1,34.76,15.4a2.456,2.456,0,0,1-.867-1.926,2.538,2.538,0,0,1,1.058-2.191,5.222,5.222,0,0,1,3.059-.772h1.1V10a1.48,1.48,0,0,0-.32-1,1.257,1.257,0,0,0-1.009-.374,1.429,1.429,0,0,0-.95.291.987.987,0,0,0-.344.8h-2.4a2.41,2.41,0,0,1,.481-1.444A3.182,3.182,0,0,1,35.935,7.23a4.961,4.961,0,0,1,1.976-.378,3.92,3.92,0,0,1,2.635.834,2.918,2.918,0,0,1,.975,2.345v3.893a4.294,4.294,0,0,0,.357,1.934V16ZM37.47,14.332a2.066,2.066,0,0,0,.979-.237,1.554,1.554,0,0,0,.664-.635V11.916h-.9q-1.8,0-1.917,1.245l-.008.141a.96.96,0,0,0,.315.739A1.225,1.225,0,0,0,37.47,14.332Zm8.766-9.521V7.019h1.536v1.76H46.236v4.482a1.07,1.07,0,0,0,.191.714.959.959,0,0,0,.73.216,3.826,3.826,0,0,0,.706-.058V15.95a4.939,4.939,0,0,1-1.453.216,2.29,2.29,0,0,1-2.573-2.548V8.778H42.525V7.019h1.312V4.811Zm7.006,11.355a4.409,4.409,0,0,1-3.217-1.212,4.308,4.308,0,0,1-1.241-3.229v-.232a5.426,5.426,0,0,1,.523-2.42,3.838,3.838,0,0,1,1.482-1.644,4.159,4.159,0,0,1,2.187-.577,3.727,3.727,0,0,1,2.9,1.162,4.722,4.722,0,0,1,1.058,3.3v.979H51.216a2.229,2.229,0,0,0,.7,1.411,2.12,2.12,0,0,0,1.482.531,2.589,2.589,0,0,0,2.167-1l1.179,1.32a3.6,3.6,0,0,1-1.461,1.191A4.793,4.793,0,0,1,53.242,16.166Zm-.274-7.379a1.5,1.5,0,0,0-1.158.484,2.5,2.5,0,0,0-.569,1.384h3.337v-.192a1.786,1.786,0,0,0-.432-1.238A1.547,1.547,0,0,0,52.968,8.787Zm4.98,2.656a5.264,5.264,0,0,1,.984-3.329,3.187,3.187,0,0,1,2.652-1.262,2.8,2.8,0,0,1,2.3,1.013l.1-.847h2.175V15.7a3.839,3.839,0,0,1-.535,2.05,3.439,3.439,0,0,1-1.507,1.328,5.3,5.3,0,0,1-2.274.457,4.925,4.925,0,0,1-1.926-.394A3.418,3.418,0,0,1,58.5,18.125l1.063-1.461a2.81,2.81,0,0,0,2.175,1,2.057,2.057,0,0,0,1.486-.51,1.915,1.915,0,0,0,.531-1.448v-.481a2.775,2.775,0,0,1-2.183.938A3.179,3.179,0,0,1,58.948,14.9a5.262,5.262,0,0,1-1-3.358Zm2.4.179a3.278,3.278,0,0,0,.49,1.916,1.558,1.558,0,0,0,1.345.694,1.666,1.666,0,0,0,1.569-.823V9.626A1.662,1.662,0,0,0,62.2,8.8a1.568,1.568,0,0,0-1.357.707A3.694,3.694,0,0,0,60.347,11.621ZM70.532,16H68.125V7.019h2.407ZM67.984,4.694a1.181,1.181,0,0,1,.361-.888,1.556,1.556,0,0,1,1.963,0,1.175,1.175,0,0,1,.365.888,1.178,1.178,0,0,1-.369.9,1.539,1.539,0,0,1-1.951,0A1.178,1.178,0,0,1,67.984,4.694ZM77.712,16a2.664,2.664,0,0,1-.241-.805,2.9,2.9,0,0,1-2.266.971,3.189,3.189,0,0,1-2.187-.764,2.456,2.456,0,0,1-.867-1.926,2.538,2.538,0,0,1,1.058-2.191,5.222,5.222,0,0,1,3.059-.772h1.1V10a1.48,1.48,0,0,0-.32-1,1.257,1.257,0,0,0-1.009-.374,1.429,1.429,0,0,0-.95.291.987.987,0,0,0-.344.8h-2.4a2.41,2.41,0,0,1,.481-1.444A3.182,3.182,0,0,1,74.193,7.23a4.961,4.961,0,0,1,1.976-.378,3.92,3.92,0,0,1,2.635.834,2.918,2.918,0,0,1,.975,2.345v3.893a4.294,4.294,0,0,0,.357,1.934V16Zm-1.984-1.668a2.066,2.066,0,0,0,.979-.237,1.554,1.554,0,0,0,.664-.635V11.916h-.9q-1.8,0-1.917,1.245l-.008.141a.96.96,0,0,0,.315.739A1.225,1.225,0,0,0,75.729,14.332Zm10.758-.813a.773.773,0,0,0-.436-.693,4.95,4.95,0,0,0-1.4-.452q-3.2-.672-3.2-2.723a2.468,2.468,0,0,1,.992-2,4,4,0,0,1,2.594-.8,4.307,4.307,0,0,1,2.735.805A2.538,2.538,0,0,1,88.794,9.75H86.4a1.161,1.161,0,0,0-.332-.851,1.405,1.405,0,0,0-1.038-.336,1.436,1.436,0,0,0-.938.274.865.865,0,0,0-.332.7.739.739,0,0,0,.378.643,3.885,3.885,0,0,0,1.274.423,10.407,10.407,0,0,1,1.511.4,2.482,2.482,0,0,1,1.9,2.416,2.343,2.343,0,0,1-1.054,1.988,4.548,4.548,0,0,1-2.723.76,4.75,4.75,0,0,1-2-.4,3.363,3.363,0,0,1-1.374-1.1,2.565,2.565,0,0,1-.5-1.515H83.44a1.252,1.252,0,0,0,.473.979,1.877,1.877,0,0,0,1.179.34,1.737,1.737,0,0,0,1.042-.261A.814.814,0,0,0,86.486,13.518Zm4.5,5.512-1.253-.656.3-.54a4.313,4.313,0,0,0,.573-2.017V13.958h2.025l-.008,1.66a4.313,4.313,0,0,1-.465,1.859A4.767,4.767,0,0,1,90.985,19.03ZM101.619,4.811V7.019h1.536v1.76h-1.536v4.482a1.07,1.07,0,0,0,.191.714.959.959,0,0,0,.73.216,3.826,3.826,0,0,0,.706-.058V15.95a4.938,4.938,0,0,1-1.453.216,2.29,2.29,0,0,1-2.573-2.548V8.778H97.908V7.019H99.22V4.811ZM109.7,16a2.664,2.664,0,0,1-.241-.805,2.9,2.9,0,0,1-2.266.971A3.189,3.189,0,0,1,105,15.4a2.456,2.456,0,0,1-.867-1.926,2.538,2.538,0,0,1,1.058-2.191,5.222,5.222,0,0,1,3.059-.772h1.1V10a1.48,1.48,0,0,0-.32-1,1.257,1.257,0,0,0-1.009-.374,1.429,1.429,0,0,0-.95.291.987.987,0,0,0-.344.8h-2.4a2.41,2.41,0,0,1,.481-1.444,3.182,3.182,0,0,1,1.361-1.042,4.961,4.961,0,0,1,1.976-.378,3.92,3.92,0,0,1,2.635.834,2.918,2.918,0,0,1,.975,2.345v3.893a4.294,4.294,0,0,0,.357,1.934V16Zm-1.984-1.668a2.066,2.066,0,0,0,.979-.237,1.554,1.554,0,0,0,.664-.635V11.916h-.9q-1.8,0-1.917,1.245l-.008.141a.96.96,0,0,0,.315.739A1.225,1.225,0,0,0,107.711,14.332Zm.913-11.082h2.615l-2.3,2.573h-1.951Zm8.716,10.982a1.573,1.573,0,0,0,1.079-.365,1.28,1.28,0,0,0,.432-.971h2.25a3.077,3.077,0,0,1-.5,1.673,3.286,3.286,0,0,1-1.341,1.179,4.2,4.2,0,0,1-1.88.419,3.9,3.9,0,0,1-3.038-1.224,4.845,4.845,0,0,1-1.112-3.383V11.4a4.79,4.79,0,0,1,1.1-3.312,3.854,3.854,0,0,1,3.03-1.237,3.778,3.778,0,0,1,2.7.959,3.4,3.4,0,0,1,1.033,2.552h-2.25a1.648,1.648,0,0,0-.432-1.139,1.6,1.6,0,0,0-2.362.173,3.541,3.541,0,0,0-.427,1.983v.249a3.586,3.586,0,0,0,.423,2A1.463,1.463,0,0,0,117.34,14.232Zm8-9.421V7.019h1.536v1.76h-1.536v4.482a1.07,1.07,0,0,0,.191.714.959.959,0,0,0,.73.216,3.826,3.826,0,0,0,.706-.058V15.95a4.938,4.938,0,0,1-1.453.216,2.29,2.29,0,0,1-2.573-2.548V8.778h-1.312V7.019h1.312V4.811ZM130.746,16h-2.407V7.019h2.407ZM128.2,4.694a1.181,1.181,0,0,1,.361-.888,1.556,1.556,0,0,1,1.963,0,1.175,1.175,0,0,1,.365.888,1.178,1.178,0,0,1-.369.9,1.539,1.539,0,0,1-1.951,0A1.178,1.178,0,0,1,128.2,4.694Zm8.259,9.538a1.573,1.573,0,0,0,1.079-.365,1.28,1.28,0,0,0,.432-.971h2.25a3.077,3.077,0,0,1-.5,1.673,3.286,3.286,0,0,1-1.341,1.179,4.2,4.2,0,0,1-1.88.419,3.9,3.9,0,0,1-3.038-1.224,4.845,4.845,0,0,1-1.112-3.383V11.4a4.79,4.79,0,0,1,1.1-3.312,3.854,3.854,0,0,1,3.03-1.237,3.778,3.778,0,0,1,2.7.959,3.4,3.4,0,0,1,1.033,2.552h-2.25a1.648,1.648,0,0,0-.432-1.139,1.6,1.6,0,0,0-2.362.173,3.541,3.541,0,0,0-.427,1.983v.249a3.586,3.586,0,0,0,.423,2A1.463,1.463,0,0,0,136.457,14.232ZM146.792,16a2.664,2.664,0,0,1-.241-.805,2.9,2.9,0,0,1-2.266.971A3.189,3.189,0,0,1,142.1,15.4a2.456,2.456,0,0,1-.867-1.926,2.538,2.538,0,0,1,1.058-2.191,5.222,5.222,0,0,1,3.059-.772h1.1V10a1.48,1.48,0,0,0-.32-1,1.257,1.257,0,0,0-1.009-.374,1.429,1.429,0,0,0-.95.291.987.987,0,0,0-.344.8h-2.4a2.41,2.41,0,0,1,.481-1.444,3.182,3.182,0,0,1,1.361-1.042,4.961,4.961,0,0,1,1.976-.378,3.92,3.92,0,0,1,2.635.834,2.918,2.918,0,0,1,.975,2.345v3.893a4.294,4.294,0,0,0,.357,1.934V16Zm-1.984-1.668a2.066,2.066,0,0,0,.979-.237,1.554,1.554,0,0,0,.664-.635V11.916h-.9q-1.8,0-1.917,1.245l-.008.141a.96.96,0,0,0,.315.739A1.225,1.225,0,0,0,144.808,14.332Zm10.758-.813a.773.773,0,0,0-.436-.693,4.95,4.95,0,0,0-1.4-.452q-3.2-.672-3.2-2.723a2.468,2.468,0,0,1,.992-2,4,4,0,0,1,2.594-.8,4.307,4.307,0,0,1,2.735.805,2.538,2.538,0,0,1,1.025,2.092h-2.4a1.161,1.161,0,0,0-.332-.851,1.405,1.405,0,0,0-1.038-.336,1.436,1.436,0,0,0-.938.274.865.865,0,0,0-.332.7.739.739,0,0,0,.378.643,3.885,3.885,0,0,0,1.274.423A10.407,10.407,0,0,1,156,11a2.482,2.482,0,0,1,1.9,2.416,2.343,2.343,0,0,1-1.054,1.988,4.548,4.548,0,0,1-2.723.76,4.75,4.75,0,0,1-2-.4,3.363,3.363,0,0,1-1.374-1.1,2.565,2.565,0,0,1-.5-1.515h2.274a1.252,1.252,0,0,0,.473.979,1.877,1.877,0,0,0,1.179.34,1.737,1.737,0,0,0,1.042-.261A.814.814,0,0,0,155.565,13.518Zm4.5,5.512-1.253-.656.3-.54a4.313,4.313,0,0,0,.573-2.017V13.958h2.025l-.008,1.66a4.313,4.313,0,0,1-.465,1.859A4.767,4.767,0,0,1,160.064,19.03ZM36.79,35.592a5.387,5.387,0,0,1-.942,3.324A3.021,3.021,0,0,1,33.3,40.166a2.8,2.8,0,0,1-2.2-.946v4.233H28.7V31.019h2.225l.083.88a2.819,2.819,0,0,1,2.274-1.046,3.041,3.041,0,0,1,2.582,1.229,5.532,5.532,0,0,1,.921,3.387Zm-2.4-.174a3.535,3.535,0,0,0-.444-1.934,1.446,1.446,0,0,0-1.291-.681,1.571,1.571,0,0,0-1.552.863v3.677a1.6,1.6,0,0,0,1.569.888Q34.391,38.232,34.391,35.418ZM40.807,40H38.4V27.25h2.407Zm7.18,0a2.664,2.664,0,0,1-.241-.805,2.9,2.9,0,0,1-2.266.971,3.189,3.189,0,0,1-2.187-.764,2.456,2.456,0,0,1-.867-1.926,2.538,2.538,0,0,1,1.058-2.191,5.222,5.222,0,0,1,3.059-.772h1.1V34a1.48,1.48,0,0,0-.32-1,1.257,1.257,0,0,0-1.009-.374,1.429,1.429,0,0,0-.95.291.987.987,0,0,0-.344.8h-2.4a2.41,2.41,0,0,1,.481-1.444,3.182,3.182,0,0,1,1.361-1.042,4.961,4.961,0,0,1,1.976-.378,3.92,3.92,0,0,1,2.635.834,2.918,2.918,0,0,1,.975,2.345v3.893a4.294,4.294,0,0,0,.357,1.934V40ZM46,38.332a2.066,2.066,0,0,0,.979-.237,1.554,1.554,0,0,0,.664-.635V35.916h-.9q-1.8,0-1.917,1.245l-.008.141a.96.96,0,0,0,.315.739A1.225,1.225,0,0,0,46,38.332Zm8.1-7.313.075,1.038a3.136,3.136,0,0,1,2.582-1.2,2.606,2.606,0,0,1,2.125.838A3.912,3.912,0,0,1,59.6,34.2V40H57.2V34.256a1.556,1.556,0,0,0-.332-1.108,1.486,1.486,0,0,0-1.1-.344,1.65,1.65,0,0,0-1.519.863V40h-2.4V31.019Zm11.173,4.424A5.413,5.413,0,0,1,66.22,32.1,3.057,3.057,0,0,1,68.8,30.853a2.751,2.751,0,0,1,2.167.979V27.25h2.407V40H71.2l-.116-.955a2.823,2.823,0,0,1-2.308,1.121,3.049,3.049,0,0,1-2.544-1.249A5.587,5.587,0,0,1,65.278,35.443Zm2.4.179a3.546,3.546,0,0,0,.44,1.937,1.433,1.433,0,0,0,1.278.673,1.605,1.605,0,0,0,1.569-.939v-3.55a1.582,1.582,0,0,0-1.552-.939Q67.677,32.8,67.677,35.621Zm11.688,4.545a4.409,4.409,0,0,1-3.217-1.212,4.308,4.308,0,0,1-1.241-3.229v-.232a5.426,5.426,0,0,1,.523-2.42,3.838,3.838,0,0,1,1.482-1.644,4.159,4.159,0,0,1,2.187-.577A3.727,3.727,0,0,1,82,32.015a4.722,4.722,0,0,1,1.058,3.3v.979H77.339a2.229,2.229,0,0,0,.7,1.411,2.12,2.12,0,0,0,1.482.531,2.589,2.589,0,0,0,2.167-1l1.179,1.32a3.6,3.6,0,0,1-1.461,1.191A4.793,4.793,0,0,1,79.364,40.166Zm-.274-7.379a1.5,1.5,0,0,0-1.158.484,2.5,2.5,0,0,0-.569,1.384H80.7v-.192a1.786,1.786,0,0,0-.432-1.238A1.547,1.547,0,0,0,79.09,32.787ZM93.857,40a2.664,2.664,0,0,1-.241-.805,2.9,2.9,0,0,1-2.266.971,3.189,3.189,0,0,1-2.187-.764,2.456,2.456,0,0,1-.867-1.926,2.538,2.538,0,0,1,1.058-2.191,5.222,5.222,0,0,1,3.059-.772h1.1V34a1.48,1.48,0,0,0-.32-1,1.257,1.257,0,0,0-1.009-.374,1.429,1.429,0,0,0-.95.291.987.987,0,0,0-.344.8H88.5a2.41,2.41,0,0,1,.481-1.444,3.182,3.182,0,0,1,1.361-1.042,4.961,4.961,0,0,1,1.976-.378,3.92,3.92,0,0,1,2.635.834,2.918,2.918,0,0,1,.975,2.345v3.893a4.294,4.294,0,0,0,.357,1.934V40Zm-1.984-1.668a2.066,2.066,0,0,0,.979-.237,1.554,1.554,0,0,0,.664-.635V35.916h-.9q-1.8,0-1.917,1.245l-.008.141a.96.96,0,0,0,.315.739A1.225,1.225,0,0,0,91.874,38.332Zm9.629-.1a1.573,1.573,0,0,0,1.079-.365,1.28,1.28,0,0,0,.432-.971h2.25a3.077,3.077,0,0,1-.5,1.673,3.286,3.286,0,0,1-1.341,1.179,4.2,4.2,0,0,1-1.88.419,3.9,3.9,0,0,1-3.038-1.224,4.845,4.845,0,0,1-1.112-3.383V35.4a4.79,4.79,0,0,1,1.1-3.312,3.854,3.854,0,0,1,3.03-1.237,3.778,3.778,0,0,1,2.7.959,3.4,3.4,0,0,1,1.033,2.552h-2.25a1.648,1.648,0,0,0-.432-1.139,1.6,1.6,0,0,0-2.362.173,3.541,3.541,0,0,0-.427,1.983v.249a3.586,3.586,0,0,0,.423,2A1.463,1.463,0,0,0,101.5,38.232Zm8.865,0a1.573,1.573,0,0,0,1.079-.365,1.28,1.28,0,0,0,.432-.971h2.25a3.077,3.077,0,0,1-.5,1.673,3.286,3.286,0,0,1-1.341,1.179,4.2,4.2,0,0,1-1.88.419,3.9,3.9,0,0,1-3.038-1.224,4.845,4.845,0,0,1-1.112-3.383V35.4a4.79,4.79,0,0,1,1.1-3.312,3.854,3.854,0,0,1,3.03-1.237,3.778,3.778,0,0,1,2.7.959,3.4,3.4,0,0,1,1.033,2.552h-2.25a1.648,1.648,0,0,0-.432-1.139,1.6,1.6,0,0,0-2.362.173,3.541,3.541,0,0,0-.427,1.983v.249a3.586,3.586,0,0,0,.423,2A1.463,1.463,0,0,0,110.368,38.232ZM118.029,40h-2.407V31.019h2.407Zm-2.548-11.306a1.181,1.181,0,0,1,.361-.888,1.556,1.556,0,0,1,1.963,0,1.268,1.268,0,0,1,0,1.785,1.539,1.539,0,0,1-1.951,0A1.178,1.178,0,0,1,115.481,28.694Zm4.15,6.732a5.326,5.326,0,0,1,.515-2.382,3.768,3.768,0,0,1,1.482-1.619,4.323,4.323,0,0,1,2.245-.573,4.09,4.09,0,0,1,2.968,1.112,4.464,4.464,0,0,1,1.282,3.021l.017.614a4.694,4.694,0,0,1-1.154,3.316,4.472,4.472,0,0,1-6.2,0,4.777,4.777,0,0,1-1.158-3.387Zm2.4.17a3.357,3.357,0,0,0,.481,1.958,1.73,1.73,0,0,0,2.739.008,3.674,3.674,0,0,0,.49-2.141,3.324,3.324,0,0,0-.49-1.945,1.592,1.592,0,0,0-1.378-.69,1.566,1.566,0,0,0-1.361.686A3.735,3.735,0,0,0,122.03,35.6Zm2.316-8.347h2.615l-2.3,2.573h-1.951Zm7.479,3.769.075,1.038a3.136,3.136,0,0,1,2.582-1.2,2.606,2.606,0,0,1,2.125.838,3.912,3.912,0,0,1,.714,2.507V40h-2.4V34.256a1.556,1.556,0,0,0-.332-1.108,1.486,1.486,0,0,0-1.1-.344,1.65,1.65,0,0,0-1.519.863V40h-2.4V31.019Z" transform="translate(203.118 9007)" fill="#12263f"/>
      <path id="Trazado_604869" data-name="Trazado 604869" d="M56.139,11.974a4.277,4.277,0,0,1-1.44,3.071,5.058,5.058,0,0,1-3.424,1.121A4.548,4.548,0,0,1,47.618,14.6a6.416,6.416,0,0,1-1.332-4.3V9.567A7.245,7.245,0,0,1,46.9,6.5a4.6,4.6,0,0,1,1.756-2.038,5.486,5.486,0,0,1,6.022.411,4.6,4.6,0,0,1,1.478,3.146h-2.49a2.524,2.524,0,0,0-.652-1.7,2.413,2.413,0,0,0-1.706-.527,2.116,2.116,0,0,0-1.864.892,5,5,0,0,0-.635,2.768v.913a5.352,5.352,0,0,0,.594,2.864,2.077,2.077,0,0,0,1.872.9A2.458,2.458,0,0,0,53,13.605a2.381,2.381,0,0,0,.652-1.631Zm1.1-.548a5.327,5.327,0,0,1,.515-2.382,3.767,3.767,0,0,1,1.482-1.619,4.323,4.323,0,0,1,2.245-.573,4.09,4.09,0,0,1,2.968,1.112,4.464,4.464,0,0,1,1.282,3.021l.017.614A4.694,4.694,0,0,1,64.6,14.917a4.472,4.472,0,0,1-6.2,0,4.777,4.777,0,0,1-1.158-3.387Zm2.4.17a3.357,3.357,0,0,0,.481,1.958,1.73,1.73,0,0,0,2.739.008,3.674,3.674,0,0,0,.49-2.141,3.324,3.324,0,0,0-.49-1.945,1.592,1.592,0,0,0-1.378-.69,1.566,1.566,0,0,0-1.361.686A3.735,3.735,0,0,0,59.642,11.6Zm9.795-4.578.075,1.038a3.136,3.136,0,0,1,2.582-1.2,2.606,2.606,0,0,1,2.125.838,3.912,3.912,0,0,1,.714,2.507V16h-2.4V10.256A1.556,1.556,0,0,0,72.2,9.148,1.486,1.486,0,0,0,71.1,8.8a1.65,1.65,0,0,0-1.519.863V16h-2.4V7.019ZM79.622,4.811V7.019h1.536v1.76H79.622v4.482a1.07,1.07,0,0,0,.191.714.959.959,0,0,0,.73.216,3.826,3.826,0,0,0,.706-.058V15.95a4.938,4.938,0,0,1-1.453.216,2.29,2.29,0,0,1-2.573-2.548V8.778H75.911V7.019h1.312V4.811ZM85.025,16H82.618V7.019h2.407ZM82.477,4.694a1.181,1.181,0,0,1,.361-.888,1.556,1.556,0,0,1,1.963,0,1.175,1.175,0,0,1,.365.888,1.178,1.178,0,0,1-.369.9,1.539,1.539,0,0,1-1.951,0A1.178,1.178,0,0,1,82.477,4.694Zm6.732,2.324.075,1.038a3.136,3.136,0,0,1,2.582-1.2,2.606,2.606,0,0,1,2.125.838A3.912,3.912,0,0,1,94.7,10.2V16h-2.4V10.256a1.556,1.556,0,0,0-.332-1.108,1.486,1.486,0,0,0-1.1-.344,1.65,1.65,0,0,0-1.519.863V16h-2.4V7.019ZM101.9,15.087a3.008,3.008,0,0,1-2.457,1.079,2.837,2.837,0,0,1-2.2-.83,3.543,3.543,0,0,1-.776-2.432V7.019h2.4v5.809q0,1.4,1.278,1.4a1.732,1.732,0,0,0,1.677-.848V7.019h2.407V16h-2.258Zm9.338.913a2.664,2.664,0,0,1-.241-.805,2.9,2.9,0,0,1-2.266.971,3.189,3.189,0,0,1-2.187-.764,2.456,2.456,0,0,1-.867-1.926,2.538,2.538,0,0,1,1.058-2.191,5.222,5.222,0,0,1,3.059-.772h1.1V10a1.48,1.48,0,0,0-.32-1,1.257,1.257,0,0,0-1.009-.374,1.429,1.429,0,0,0-.95.291.987.987,0,0,0-.344.8h-2.4a2.41,2.41,0,0,1,.481-1.444A3.182,3.182,0,0,1,107.72,7.23a4.961,4.961,0,0,1,1.976-.378,3.92,3.92,0,0,1,2.635.834,2.918,2.918,0,0,1,.975,2.345v3.893a4.294,4.294,0,0,0,.357,1.934V16Zm-1.984-1.668a2.066,2.066,0,0,0,.979-.237,1.554,1.554,0,0,0,.664-.635V11.916H110q-1.8,0-1.917,1.245l-.008.141a.96.96,0,0,0,.315.739A1.225,1.225,0,0,0,109.255,14.332ZM120.2,9.268a6.517,6.517,0,0,0-.863-.066,1.757,1.757,0,0,0-1.785.921V16h-2.4V7.019h2.266l.066,1.071a2.223,2.223,0,0,1,2-1.237,2.514,2.514,0,0,1,.747.108ZM41.957,31.019l.075,1a3.156,3.156,0,0,1,2.582-1.17A2.4,2.4,0,0,1,47,32.222a3.084,3.084,0,0,1,2.7-1.37,2.679,2.679,0,0,1,2.175.851,3.911,3.911,0,0,1,.714,2.561V40H50.175V34.272a1.71,1.71,0,0,0-.3-1.116,1.324,1.324,0,0,0-1.054-.353,1.5,1.5,0,0,0-1.494,1.029L47.336,40h-2.4V34.281a1.689,1.689,0,0,0-.307-1.129,1.337,1.337,0,0,0-1.046-.349,1.555,1.555,0,0,0-1.478.847V40h-2.4V31.019Zm16.6,9.147a4.409,4.409,0,0,1-3.217-1.212A4.308,4.308,0,0,1,54.1,35.725v-.232a5.426,5.426,0,0,1,.523-2.42,3.838,3.838,0,0,1,1.482-1.644,4.159,4.159,0,0,1,2.187-.577,3.727,3.727,0,0,1,2.9,1.162,4.722,4.722,0,0,1,1.058,3.3v.979H56.533a2.229,2.229,0,0,0,.7,1.411,2.12,2.12,0,0,0,1.482.531,2.589,2.589,0,0,0,2.167-1l1.179,1.32A3.6,3.6,0,0,1,60.6,39.739,4.793,4.793,0,0,1,58.558,40.166Zm-.274-7.379a1.5,1.5,0,0,0-1.158.484,2.5,2.5,0,0,0-.569,1.384h3.337v-.192a1.786,1.786,0,0,0-.432-1.238A1.547,1.547,0,0,0,58.284,32.787Zm4.956,2.656a5.413,5.413,0,0,1,.942-3.345,3.057,3.057,0,0,1,2.577-1.245,2.751,2.751,0,0,1,2.167.979V27.25h2.407V40H69.167l-.116-.955a2.823,2.823,0,0,1-2.308,1.121A3.049,3.049,0,0,1,64.2,38.917,5.587,5.587,0,0,1,63.24,35.443Zm2.4.179a3.546,3.546,0,0,0,.44,1.937,1.433,1.433,0,0,0,1.278.673,1.605,1.605,0,0,0,1.569-.939v-3.55a1.582,1.582,0,0,0-1.552-.939Q65.639,32.8,65.639,35.621ZM75.724,40H73.317V31.019h2.407ZM73.176,28.694a1.181,1.181,0,0,1,.361-.888,1.556,1.556,0,0,1,1.963,0,1.268,1.268,0,0,1,0,1.785,1.539,1.539,0,0,1-1.951,0A1.178,1.178,0,0,1,73.176,28.694Zm8.259,9.538a1.573,1.573,0,0,0,1.079-.365,1.28,1.28,0,0,0,.432-.971H85.2a3.077,3.077,0,0,1-.5,1.673,3.286,3.286,0,0,1-1.341,1.179,4.2,4.2,0,0,1-1.88.419,3.9,3.9,0,0,1-3.038-1.224,4.845,4.845,0,0,1-1.112-3.383V35.4a4.79,4.79,0,0,1,1.1-3.312,3.854,3.854,0,0,1,3.03-1.237,3.778,3.778,0,0,1,2.7.959A3.4,3.4,0,0,1,85.2,34.364h-2.25a1.648,1.648,0,0,0-.432-1.139,1.6,1.6,0,0,0-2.362.173,3.541,3.541,0,0,0-.427,1.983v.249a3.586,3.586,0,0,0,.423,2A1.463,1.463,0,0,0,81.435,38.232ZM89.1,40H86.69V31.019H89.1ZM86.549,28.694a1.181,1.181,0,0,1,.361-.888,1.556,1.556,0,0,1,1.963,0,1.268,1.268,0,0,1,0,1.785,1.539,1.539,0,0,1-1.951,0A1.178,1.178,0,0,1,86.549,28.694Zm4.15,6.732a5.326,5.326,0,0,1,.515-2.382A3.768,3.768,0,0,1,92.7,31.425a4.323,4.323,0,0,1,2.245-.573,4.09,4.09,0,0,1,2.968,1.112,4.464,4.464,0,0,1,1.282,3.021l.017.614a4.694,4.694,0,0,1-1.154,3.316,4.472,4.472,0,0,1-6.2,0A4.777,4.777,0,0,1,90.7,35.534Zm2.4.17a3.357,3.357,0,0,0,.481,1.958,1.73,1.73,0,0,0,2.739.008,3.674,3.674,0,0,0,.49-2.141,3.324,3.324,0,0,0-.49-1.945,1.592,1.592,0,0,0-1.378-.69,1.566,1.566,0,0,0-1.361.686A3.735,3.735,0,0,0,93.1,35.6Zm9.795-4.578.075,1.038a3.136,3.136,0,0,1,2.582-1.2,2.606,2.606,0,0,1,2.125.838,3.912,3.912,0,0,1,.714,2.507V40h-2.4V34.256a1.556,1.556,0,0,0-.332-1.108,1.486,1.486,0,0,0-1.1-.344,1.65,1.65,0,0,0-1.519.863V40h-2.4V31.019Zm11.447,9.147a4.409,4.409,0,0,1-3.217-1.212,4.308,4.308,0,0,1-1.241-3.229v-.232a5.426,5.426,0,0,1,.523-2.42,3.838,3.838,0,0,1,1.482-1.644,4.159,4.159,0,0,1,2.187-.577,3.727,3.727,0,0,1,2.9,1.162,4.722,4.722,0,0,1,1.058,3.3v.979h-5.719a2.229,2.229,0,0,0,.7,1.411,2.12,2.12,0,0,0,1.482.531,2.589,2.589,0,0,0,2.167-1l1.179,1.32a3.6,3.6,0,0,1-1.461,1.191A4.793,4.793,0,0,1,114.34,40.166Zm-.274-7.379a1.5,1.5,0,0,0-1.158.484,2.5,2.5,0,0,0-.569,1.384h3.337v-.192a1.786,1.786,0,0,0-.432-1.238A1.547,1.547,0,0,0,114.066,32.787Zm10.193,4.731a.773.773,0,0,0-.436-.693,4.95,4.95,0,0,0-1.4-.452q-3.2-.672-3.2-2.723a2.468,2.468,0,0,1,.992-2,4,4,0,0,1,2.594-.8,4.307,4.307,0,0,1,2.735.805,2.538,2.538,0,0,1,1.025,2.092h-2.4a1.161,1.161,0,0,0-.332-.851,1.405,1.405,0,0,0-1.038-.336,1.436,1.436,0,0,0-.938.274.865.865,0,0,0-.332.7.739.739,0,0,0,.378.643,3.885,3.885,0,0,0,1.274.423,10.407,10.407,0,0,1,1.511.4,2.482,2.482,0,0,1,1.9,2.416,2.343,2.343,0,0,1-1.054,1.988,4.548,4.548,0,0,1-2.723.76,4.75,4.75,0,0,1-2-.4,3.363,3.363,0,0,1-1.374-1.1,2.565,2.565,0,0,1-.5-1.515h2.274a1.252,1.252,0,0,0,.473.979,1.877,1.877,0,0,0,1.179.34,1.737,1.737,0,0,0,1.042-.261A.814.814,0,0,0,124.259,37.518Z" transform="translate(1231 9007)" fill="#12263f"/>
      <path id="Trazado_604873" data-name="Trazado 604873" d="M50.067,10.762H45.285V14H50.9v2H42.8V3.914H50.88V5.931H45.285v2.88h4.781Zm5.279,2.308,1.668-6.051h2.507L56.491,16H54.2l-3.03-8.981h2.507ZM65.656,16a2.664,2.664,0,0,1-.241-.805,2.9,2.9,0,0,1-2.266.971,3.189,3.189,0,0,1-2.187-.764,2.456,2.456,0,0,1-.867-1.926,2.538,2.538,0,0,1,1.058-2.191,5.222,5.222,0,0,1,3.059-.772h1.1V10A1.48,1.48,0,0,0,65,9a1.257,1.257,0,0,0-1.009-.374,1.429,1.429,0,0,0-.95.291.987.987,0,0,0-.344.8h-2.4a2.41,2.41,0,0,1,.481-1.444A3.182,3.182,0,0,1,62.136,7.23a4.961,4.961,0,0,1,1.976-.378,3.92,3.92,0,0,1,2.635.834,2.918,2.918,0,0,1,.975,2.345v3.893a4.294,4.294,0,0,0,.357,1.934V16Zm-1.984-1.668a2.066,2.066,0,0,0,.979-.237,1.554,1.554,0,0,0,.664-.635V11.916h-.9q-1.8,0-1.917,1.245l-.008.141a.96.96,0,0,0,.315.739A1.225,1.225,0,0,0,63.672,14.332ZM72.1,16H69.69V3.25H72.1Zm7.354-.913a3.008,3.008,0,0,1-2.457,1.079,2.837,2.837,0,0,1-2.2-.83,3.543,3.543,0,0,1-.776-2.432V7.019h2.4v5.809q0,1.4,1.278,1.4a1.732,1.732,0,0,0,1.677-.848V7.019h2.407V16H79.518ZM88.79,16a2.664,2.664,0,0,1-.241-.805,2.9,2.9,0,0,1-2.266.971A3.189,3.189,0,0,1,84.1,15.4a2.456,2.456,0,0,1-.867-1.926,2.538,2.538,0,0,1,1.058-2.191,5.222,5.222,0,0,1,3.059-.772h1.1V10a1.48,1.48,0,0,0-.32-1,1.257,1.257,0,0,0-1.009-.374,1.429,1.429,0,0,0-.95.291.987.987,0,0,0-.344.8h-2.4a2.41,2.41,0,0,1,.481-1.444A3.182,3.182,0,0,1,85.27,7.23a4.961,4.961,0,0,1,1.976-.378,3.92,3.92,0,0,1,2.635.834,2.918,2.918,0,0,1,.975,2.345v3.893a4.294,4.294,0,0,0,.357,1.934V16Zm-1.984-1.668a2.066,2.066,0,0,0,.979-.237,1.554,1.554,0,0,0,.664-.635V11.916h-.9q-1.8,0-1.917,1.245l-.008.141a.96.96,0,0,0,.315.739A1.225,1.225,0,0,0,86.806,14.332Zm9.629-.1a1.573,1.573,0,0,0,1.079-.365,1.28,1.28,0,0,0,.432-.971h2.25a3.077,3.077,0,0,1-.5,1.673,3.286,3.286,0,0,1-1.341,1.179,4.2,4.2,0,0,1-1.88.419,3.9,3.9,0,0,1-3.038-1.224,4.845,4.845,0,0,1-1.112-3.383V11.4a4.79,4.79,0,0,1,1.1-3.312,3.854,3.854,0,0,1,3.03-1.237,3.778,3.778,0,0,1,2.7.959,3.4,3.4,0,0,1,1.033,2.552h-2.25a1.648,1.648,0,0,0-.432-1.139,1.6,1.6,0,0,0-2.362.173,3.541,3.541,0,0,0-.427,1.983v.249a3.586,3.586,0,0,0,.423,2A1.463,1.463,0,0,0,96.435,14.232ZM104.1,16h-2.407V7.019H104.1ZM101.548,4.694a1.181,1.181,0,0,1,.361-.888,1.556,1.556,0,0,1,1.963,0,1.175,1.175,0,0,1,.365.888,1.178,1.178,0,0,1-.369.9,1.539,1.539,0,0,1-1.951,0A1.178,1.178,0,0,1,101.548,4.694Zm4.15,6.732a5.326,5.326,0,0,1,.515-2.382,3.768,3.768,0,0,1,1.482-1.619,4.323,4.323,0,0,1,2.245-.573,4.09,4.09,0,0,1,2.968,1.112,4.464,4.464,0,0,1,1.282,3.021l.017.614a4.694,4.694,0,0,1-1.154,3.316,4.472,4.472,0,0,1-6.2,0,4.777,4.777,0,0,1-1.158-3.387Zm2.4.17a3.357,3.357,0,0,0,.481,1.958,1.73,1.73,0,0,0,2.739.008,3.674,3.674,0,0,0,.49-2.141,3.324,3.324,0,0,0-.49-1.945,1.592,1.592,0,0,0-1.378-.69,1.566,1.566,0,0,0-1.361.686A3.736,3.736,0,0,0,108.1,11.6Zm2.316-8.347h2.615l-2.3,2.573h-1.951Zm7.479,3.769.075,1.038a3.136,3.136,0,0,1,2.582-1.2,2.606,2.606,0,0,1,2.125.838,3.912,3.912,0,0,1,.714,2.507V16h-2.4V10.256a1.556,1.556,0,0,0-.332-1.108,1.486,1.486,0,0,0-1.1-.344,1.65,1.65,0,0,0-1.519.863V16h-2.4V7.019Z" transform="translate(709 9017)" fill="#12263f"/>
      <path id="Trazado_604870" data-name="Trazado 604870" d="M6.74,3.914l3.1,8.766,3.088-8.766H16.2V16H13.7V12.7l.249-5.7L10.691,16H8.981L5.727,7,5.976,12.7V16H3.486V3.914ZM22.354,16.166a4.409,4.409,0,0,1-3.217-1.212A4.308,4.308,0,0,1,17.9,11.725v-.232a5.426,5.426,0,0,1,.523-2.42A3.838,3.838,0,0,1,19.9,7.429a4.159,4.159,0,0,1,2.187-.577,3.727,3.727,0,0,1,2.9,1.162,4.722,4.722,0,0,1,1.058,3.3v.979H20.328a2.229,2.229,0,0,0,.7,1.411,2.12,2.12,0,0,0,1.482.531,2.589,2.589,0,0,0,2.167-1l1.179,1.32A3.6,3.6,0,0,1,24.4,15.739,4.793,4.793,0,0,1,22.354,16.166ZM22.08,8.787a1.5,1.5,0,0,0-1.158.484,2.5,2.5,0,0,0-.569,1.384H23.69v-.192a1.786,1.786,0,0,0-.432-1.238A1.547,1.547,0,0,0,22.08,8.787Zm4.956,2.656A5.413,5.413,0,0,1,27.977,8.1a3.057,3.057,0,0,1,2.577-1.245,2.751,2.751,0,0,1,2.167.979V3.25h2.407V16H32.962l-.116-.955a2.823,2.823,0,0,1-2.308,1.121,3.049,3.049,0,0,1-2.544-1.249A5.587,5.587,0,0,1,27.035,11.443Zm2.4.179a3.546,3.546,0,0,0,.44,1.937,1.433,1.433,0,0,0,1.278.673,1.605,1.605,0,0,0,1.569-.939V9.743A1.582,1.582,0,0,0,31.169,8.8Q29.434,8.8,29.434,11.621ZM39.52,16H37.112V7.019H39.52ZM36.971,4.694a1.181,1.181,0,0,1,.361-.888,1.556,1.556,0,0,1,1.963,0,1.175,1.175,0,0,1,.365.888,1.178,1.178,0,0,1-.369.9,1.539,1.539,0,0,1-1.951,0A1.178,1.178,0,0,1,36.971,4.694Zm9.571,4.574a6.517,6.517,0,0,0-.863-.066,1.757,1.757,0,0,0-1.785.921V16H41.5V7.019h2.266l.066,1.071a2.223,2.223,0,0,1,2-1.237,2.514,2.514,0,0,1,.747.108Zm9.521,6.9a4.409,4.409,0,0,1-3.217-1.212,4.308,4.308,0,0,1-1.241-3.229v-.232a5.426,5.426,0,0,1,.523-2.42A3.838,3.838,0,0,1,53.61,7.429,4.159,4.159,0,0,1,55.8,6.853a3.727,3.727,0,0,1,2.9,1.162,4.722,4.722,0,0,1,1.058,3.3v.979H54.038a2.229,2.229,0,0,0,.7,1.411,2.12,2.12,0,0,0,1.482.531,2.589,2.589,0,0,0,2.167-1l1.179,1.32A3.6,3.6,0,0,1,58.1,15.739,4.793,4.793,0,0,1,56.063,16.166Zm-.274-7.379a1.5,1.5,0,0,0-1.158.484,2.5,2.5,0,0,0-.569,1.384H57.4v-.192a1.786,1.786,0,0,0-.432-1.238A1.547,1.547,0,0,0,55.789,8.787ZM63.65,16H61.243V3.25H63.65Zm5.835-4.557A5.413,5.413,0,0,1,70.427,8.1,3.057,3.057,0,0,1,73,6.853a2.751,2.751,0,0,1,2.167.979V3.25h2.407V16H75.412l-.116-.955a2.823,2.823,0,0,1-2.308,1.121,3.049,3.049,0,0,1-2.544-1.249A5.587,5.587,0,0,1,69.485,11.443Zm2.4.179a3.546,3.546,0,0,0,.44,1.937,1.433,1.433,0,0,0,1.278.673,1.605,1.605,0,0,0,1.569-.939V9.743A1.582,1.582,0,0,0,73.619,8.8Q71.884,8.8,71.884,11.621Zm11.688,4.545a4.409,4.409,0,0,1-3.217-1.212,4.308,4.308,0,0,1-1.241-3.229v-.232a5.426,5.426,0,0,1,.523-2.42,3.838,3.838,0,0,1,1.482-1.644,4.159,4.159,0,0,1,2.187-.577,3.727,3.727,0,0,1,2.9,1.162,4.722,4.722,0,0,1,1.058,3.3v.979H81.546a2.229,2.229,0,0,0,.7,1.411,2.12,2.12,0,0,0,1.482.531,2.589,2.589,0,0,0,2.167-1l1.179,1.32a3.6,3.6,0,0,1-1.461,1.191A4.793,4.793,0,0,1,83.572,16.166ZM83.3,8.787a1.5,1.5,0,0,0-1.158.484,2.5,2.5,0,0,0-.569,1.384h3.337v-.192a1.786,1.786,0,0,0-.432-1.238A1.547,1.547,0,0,0,83.3,8.787Zm10.193,4.731a.773.773,0,0,0-.436-.693,4.95,4.95,0,0,0-1.4-.452q-3.2-.672-3.2-2.723a2.468,2.468,0,0,1,.992-2,4,4,0,0,1,2.594-.8,4.307,4.307,0,0,1,2.735.805A2.538,2.538,0,0,1,95.8,9.75H93.4a1.161,1.161,0,0,0-.332-.851,1.405,1.405,0,0,0-1.038-.336,1.436,1.436,0,0,0-.938.274.865.865,0,0,0-.332.7.739.739,0,0,0,.378.643,3.885,3.885,0,0,0,1.274.423,10.407,10.407,0,0,1,1.511.4,2.482,2.482,0,0,1,1.9,2.416,2.343,2.343,0,0,1-1.054,1.988,4.548,4.548,0,0,1-2.723.76,4.75,4.75,0,0,1-2-.4,3.363,3.363,0,0,1-1.374-1.1,2.565,2.565,0,0,1-.5-1.515h2.274a1.252,1.252,0,0,0,.473.979,1.877,1.877,0,0,0,1.179.34,1.737,1.737,0,0,0,1.042-.261A.814.814,0,0,0,93.491,13.518Zm8.01,2.648a4.409,4.409,0,0,1-3.217-1.212,4.308,4.308,0,0,1-1.241-3.229v-.232a5.426,5.426,0,0,1,.523-2.42,3.838,3.838,0,0,1,1.482-1.644,4.159,4.159,0,0,1,2.187-.577,3.727,3.727,0,0,1,2.9,1.162,4.722,4.722,0,0,1,1.058,3.3v.979H99.476a2.229,2.229,0,0,0,.7,1.411,2.12,2.12,0,0,0,1.482.531,2.589,2.589,0,0,0,2.167-1L105,14.547a3.6,3.6,0,0,1-1.461,1.191A4.793,4.793,0,0,1,101.5,16.166Zm-.274-7.379a1.5,1.5,0,0,0-1.158.484,2.5,2.5,0,0,0-.569,1.384h3.337v-.192a1.786,1.786,0,0,0-.432-1.238A1.547,1.547,0,0,0,101.228,8.787Zm7.579-1.768.075,1a3.156,3.156,0,0,1,2.582-1.17,2.4,2.4,0,0,1,2.382,1.37,3.084,3.084,0,0,1,2.7-1.37,2.679,2.679,0,0,1,2.175.851,3.911,3.911,0,0,1,.714,2.561V16h-2.407V10.272a1.71,1.71,0,0,0-.3-1.116,1.324,1.324,0,0,0-1.054-.353,1.5,1.5,0,0,0-1.494,1.029L114.185,16h-2.4V10.281a1.689,1.689,0,0,0-.307-1.129,1.337,1.337,0,0,0-1.046-.349,1.555,1.555,0,0,0-1.478.847V16h-2.4V7.019Zm20.553,4.574a5.387,5.387,0,0,1-.942,3.324,3.021,3.021,0,0,1-2.544,1.249,2.8,2.8,0,0,1-2.2-.946v4.233h-2.4V7.019H123.5l.083.88a2.819,2.819,0,0,1,2.274-1.046,3.041,3.041,0,0,1,2.582,1.229,5.532,5.532,0,0,1,.921,3.387Zm-2.4-.174a3.535,3.535,0,0,0-.444-1.934,1.446,1.446,0,0,0-1.291-.681,1.571,1.571,0,0,0-1.552.863v3.677a1.6,1.6,0,0,0,1.569.888Q126.96,14.232,126.96,11.418Zm8.019,4.748a4.409,4.409,0,0,1-3.217-1.212,4.308,4.308,0,0,1-1.241-3.229v-.232a5.426,5.426,0,0,1,.523-2.42,3.838,3.838,0,0,1,1.482-1.644,4.159,4.159,0,0,1,2.187-.577,3.727,3.727,0,0,1,2.9,1.162,4.722,4.722,0,0,1,1.058,3.3v.979h-5.719a2.228,2.228,0,0,0,.7,1.411,2.12,2.12,0,0,0,1.482.531,2.589,2.589,0,0,0,2.167-1l1.179,1.32a3.6,3.6,0,0,1-1.461,1.191A4.793,4.793,0,0,1,134.979,16.166ZM134.7,8.787a1.5,1.5,0,0,0-1.158.484,2.5,2.5,0,0,0-.569,1.384h3.337v-.192a1.786,1.786,0,0,0-.432-1.238A1.547,1.547,0,0,0,134.7,8.787Zm7.537-1.768.075,1.038a3.136,3.136,0,0,1,2.582-1.2,2.606,2.606,0,0,1,2.125.838,3.912,3.912,0,0,1,.714,2.507V16h-2.4V10.256a1.556,1.556,0,0,0-.332-1.108,1.486,1.486,0,0,0-1.1-.344,1.65,1.65,0,0,0-1.519.863V16h-2.4V7.019Zm4.765-3.661a2.323,2.323,0,0,1-.548,1.573,1.7,1.7,0,0,1-1.336.635,2.027,2.027,0,0,1-.56-.071,3.76,3.76,0,0,1-.677-.3,3.65,3.65,0,0,0-.623-.286,1.521,1.521,0,0,0-.415-.054.666.666,0,0,0-.494.208.807.807,0,0,0-.2.589l-1.395-.083A2.359,2.359,0,0,1,141.3,4a1.677,1.677,0,0,1,1.332-.647,1.715,1.715,0,0,1,.469.062,5.164,5.164,0,0,1,.718.3,4.667,4.667,0,0,0,.689.291,1.572,1.572,0,0,0,.4.05.7.7,0,0,0,.5-.2.774.774,0,0,0,.212-.585Zm2.175,8.068a5.327,5.327,0,0,1,.515-2.382,3.767,3.767,0,0,1,1.482-1.619,4.323,4.323,0,0,1,2.245-.573,4.09,4.09,0,0,1,2.968,1.112,4.464,4.464,0,0,1,1.282,3.021l.017.614a4.694,4.694,0,0,1-1.154,3.316,4.472,4.472,0,0,1-6.2,0,4.777,4.777,0,0,1-1.158-3.387Zm2.4.17a3.357,3.357,0,0,0,.481,1.958,1.73,1.73,0,0,0,2.739.008,3.674,3.674,0,0,0,.49-2.141,3.324,3.324,0,0,0-.49-1.945,1.592,1.592,0,0,0-1.378-.69,1.566,1.566,0,0,0-1.361.686A3.735,3.735,0,0,0,151.58,11.6ZM168.6,16a2.664,2.664,0,0,1-.241-.805,2.9,2.9,0,0,1-2.266.971,3.189,3.189,0,0,1-2.187-.764,2.456,2.456,0,0,1-.867-1.926,2.538,2.538,0,0,1,1.058-2.191,5.222,5.222,0,0,1,3.059-.772h1.1V10a1.48,1.48,0,0,0-.32-1,1.257,1.257,0,0,0-1.009-.374,1.429,1.429,0,0,0-.95.291.987.987,0,0,0-.344.8h-2.4a2.41,2.41,0,0,1,.481-1.444,3.182,3.182,0,0,1,1.361-1.042,4.961,4.961,0,0,1,1.976-.378,3.92,3.92,0,0,1,2.635.834,2.918,2.918,0,0,1,.975,2.345v3.893a4.294,4.294,0,0,0,.357,1.934V16Zm-1.984-1.668a2.066,2.066,0,0,0,.979-.237,1.554,1.554,0,0,0,.664-.635V11.916h-.9q-1.8,0-1.917,1.245l-.008.141a.96.96,0,0,0,.315.739A1.225,1.225,0,0,0,166.621,14.332ZM16.883,35.592a5.387,5.387,0,0,1-.942,3.324A3.021,3.021,0,0,1,13.4,40.166a2.8,2.8,0,0,1-2.2-.946v4.233H8.8V31.019h2.225l.083.88a2.819,2.819,0,0,1,2.274-1.046,3.041,3.041,0,0,1,2.582,1.229,5.532,5.532,0,0,1,.921,3.387Zm-2.4-.174a3.535,3.535,0,0,0-.444-1.934A1.446,1.446,0,0,0,12.75,32.8a1.571,1.571,0,0,0-1.552.863v3.677a1.6,1.6,0,0,0,1.569.888Q14.484,38.232,14.484,35.418ZM23.574,40a2.664,2.664,0,0,1-.241-.805,2.9,2.9,0,0,1-2.266.971A3.189,3.189,0,0,1,18.88,39.4a2.456,2.456,0,0,1-.867-1.926,2.538,2.538,0,0,1,1.058-2.191,5.222,5.222,0,0,1,3.059-.772h1.1V34a1.48,1.48,0,0,0-.32-1,1.257,1.257,0,0,0-1.009-.374,1.429,1.429,0,0,0-.95.291.987.987,0,0,0-.344.8h-2.4a2.41,2.41,0,0,1,.481-1.444,3.182,3.182,0,0,1,1.361-1.042,4.961,4.961,0,0,1,1.976-.378,3.92,3.92,0,0,1,2.635.834,2.918,2.918,0,0,1,.975,2.345v3.893A4.294,4.294,0,0,0,26,39.859V40ZM21.59,38.332a2.066,2.066,0,0,0,.979-.237,1.554,1.554,0,0,0,.664-.635V35.916h-.9q-1.8,0-1.917,1.245l-.008.141a.96.96,0,0,0,.315.739A1.225,1.225,0,0,0,21.59,38.332Zm10.94-5.063a6.517,6.517,0,0,0-.863-.066,1.757,1.757,0,0,0-1.785.921V40h-2.4V31.019H29.75l.066,1.071a2.223,2.223,0,0,1,2-1.237,2.514,2.514,0,0,1,.747.108Zm4.441-4.458v2.208h1.536v1.76H36.971v4.482a1.07,1.07,0,0,0,.191.714.959.959,0,0,0,.73.216,3.826,3.826,0,0,0,.706-.058V39.95a4.939,4.939,0,0,1-1.453.216,2.29,2.29,0,0,1-2.573-2.548V32.778H33.261v-1.76h1.312V28.811ZM42.375,40H39.968V31.019h2.407ZM39.827,28.694a1.181,1.181,0,0,1,.361-.888,1.556,1.556,0,0,1,1.963,0,1.268,1.268,0,0,1,0,1.785,1.539,1.539,0,0,1-1.951,0A1.178,1.178,0,0,1,39.827,28.694ZM49.4,33.268a6.517,6.517,0,0,0-.863-.066,1.757,1.757,0,0,0-1.785.921V40h-2.4V31.019h2.266l.066,1.071a2.223,2.223,0,0,1,2-1.237,2.514,2.514,0,0,1,.747.108Zm5.014,2.175a5.413,5.413,0,0,1,.942-3.345,3.057,3.057,0,0,1,2.577-1.245,2.751,2.751,0,0,1,2.167.979V27.25H62.5V40H60.338l-.116-.955a2.823,2.823,0,0,1-2.308,1.121,3.049,3.049,0,0,1-2.544-1.249A5.587,5.587,0,0,1,54.411,35.443Zm2.4.179a3.546,3.546,0,0,0,.44,1.937,1.433,1.433,0,0,0,1.278.673,1.605,1.605,0,0,0,1.569-.939v-3.55a1.582,1.582,0,0,0-1.552-.939Q56.81,32.8,56.81,35.621ZM68.5,40.166a4.409,4.409,0,0,1-3.217-1.212,4.308,4.308,0,0,1-1.241-3.229v-.232a5.426,5.426,0,0,1,.523-2.42,3.838,3.838,0,0,1,1.482-1.644,4.159,4.159,0,0,1,2.187-.577,3.727,3.727,0,0,1,2.9,1.162,4.722,4.722,0,0,1,1.058,3.3v.979H66.472a2.229,2.229,0,0,0,.7,1.411,2.12,2.12,0,0,0,1.482.531,2.589,2.589,0,0,0,2.167-1L72,38.547a3.6,3.6,0,0,1-1.461,1.191A4.793,4.793,0,0,1,68.5,40.166Zm-.274-7.379a1.5,1.5,0,0,0-1.158.484,2.5,2.5,0,0,0-.569,1.384h3.337v-.192a1.786,1.786,0,0,0-.432-1.238A1.547,1.547,0,0,0,68.224,32.787ZM80.318,40H77.911V31.019h2.407ZM77.77,28.694a1.181,1.181,0,0,1,.361-.888,1.556,1.556,0,0,1,1.963,0,1.268,1.268,0,0,1,0,1.785,1.539,1.539,0,0,1-1.951,0A1.178,1.178,0,0,1,77.77,28.694ZM84.5,31.019l.075,1.038a3.136,3.136,0,0,1,2.582-1.2,2.606,2.606,0,0,1,2.125.838A3.912,3.912,0,0,1,90,34.2V40H87.6V34.256a1.556,1.556,0,0,0-.332-1.108,1.486,1.486,0,0,0-1.1-.344,1.65,1.65,0,0,0-1.519.863V40h-2.4V31.019Zm6.939,4.424a5.413,5.413,0,0,1,.942-3.345,3.057,3.057,0,0,1,2.577-1.245,2.751,2.751,0,0,1,2.167.979V27.25h2.407V40H97.368l-.116-.955a2.823,2.823,0,0,1-2.308,1.121A3.049,3.049,0,0,1,92.4,38.917,5.587,5.587,0,0,1,91.441,35.443Zm2.4.179a3.546,3.546,0,0,0,.44,1.937,1.433,1.433,0,0,0,1.278.673,1.605,1.605,0,0,0,1.569-.939v-3.55a1.582,1.582,0,0,0-1.552-.939Q93.84,32.8,93.84,35.621ZM103.925,40h-2.407V31.019h2.407Zm-2.548-11.306a1.181,1.181,0,0,1,.361-.888,1.556,1.556,0,0,1,1.963,0,1.268,1.268,0,0,1,0,1.785,1.539,1.539,0,0,1-1.951,0A1.178,1.178,0,0,1,101.377,28.694Zm8.259,9.538a1.573,1.573,0,0,0,1.079-.365,1.28,1.28,0,0,0,.432-.971h2.25a3.077,3.077,0,0,1-.5,1.673,3.286,3.286,0,0,1-1.341,1.179,4.2,4.2,0,0,1-1.88.419,3.9,3.9,0,0,1-3.038-1.224,4.845,4.845,0,0,1-1.112-3.383V35.4a4.79,4.79,0,0,1,1.1-3.312,3.854,3.854,0,0,1,3.03-1.237,3.778,3.778,0,0,1,2.7.959,3.4,3.4,0,0,1,1.033,2.552h-2.25a1.648,1.648,0,0,0-.432-1.139,1.6,1.6,0,0,0-2.362.173,3.541,3.541,0,0,0-.427,1.983v.249a3.586,3.586,0,0,0,.423,2A1.463,1.463,0,0,0,109.636,38.232ZM119.971,40a2.664,2.664,0,0,1-.241-.805,2.9,2.9,0,0,1-2.266.971,3.189,3.189,0,0,1-2.187-.764,2.456,2.456,0,0,1-.867-1.926,2.538,2.538,0,0,1,1.058-2.191,5.222,5.222,0,0,1,3.059-.772h1.1V34a1.48,1.48,0,0,0-.32-1,1.257,1.257,0,0,0-1.009-.374,1.429,1.429,0,0,0-.95.291.987.987,0,0,0-.344.8h-2.4a2.41,2.41,0,0,1,.481-1.444,3.182,3.182,0,0,1,1.361-1.042,4.961,4.961,0,0,1,1.976-.378,3.92,3.92,0,0,1,2.635.834,2.918,2.918,0,0,1,.975,2.345v3.893a4.294,4.294,0,0,0,.357,1.934V40Zm-1.984-1.668a2.066,2.066,0,0,0,.979-.237,1.554,1.554,0,0,0,.664-.635V35.916h-.9q-1.8,0-1.917,1.245l-.008.141a.96.96,0,0,0,.315.739A1.225,1.225,0,0,0,117.987,38.332Zm5.52-2.889a5.413,5.413,0,0,1,.942-3.345,3.057,3.057,0,0,1,2.577-1.245,2.751,2.751,0,0,1,2.167.979V27.25H131.6V40h-2.167l-.116-.955a2.823,2.823,0,0,1-2.308,1.121,3.049,3.049,0,0,1-2.544-1.249A5.587,5.587,0,0,1,123.507,35.443Zm2.4.179a3.546,3.546,0,0,0,.44,1.937,1.433,1.433,0,0,0,1.278.673,1.605,1.605,0,0,0,1.569-.939v-3.55a1.582,1.582,0,0,0-1.552-.939Q125.906,32.8,125.906,35.621Zm7.18-.2a5.327,5.327,0,0,1,.515-2.382,3.767,3.767,0,0,1,1.482-1.619,4.323,4.323,0,0,1,2.245-.573,4.09,4.09,0,0,1,2.968,1.112,4.464,4.464,0,0,1,1.282,3.021l.017.614a4.694,4.694,0,0,1-1.154,3.316,4.472,4.472,0,0,1-6.2,0,4.777,4.777,0,0,1-1.158-3.387Zm2.4.17a3.357,3.357,0,0,0,.481,1.958,1.73,1.73,0,0,0,2.739.008,3.674,3.674,0,0,0,.49-2.141,3.324,3.324,0,0,0-.49-1.945,1.592,1.592,0,0,0-1.378-.69,1.566,1.566,0,0,0-1.361.686A3.735,3.735,0,0,0,135.485,35.6Zm12.634-2.328a6.517,6.517,0,0,0-.863-.066,1.757,1.757,0,0,0-1.785.921V40h-2.4V31.019h2.266l.066,1.071a2.223,2.223,0,0,1,2-1.237,2.514,2.514,0,0,1,.747.108Zm5.13,6.9a4.409,4.409,0,0,1-3.217-1.212,4.308,4.308,0,0,1-1.241-3.229v-.232a5.426,5.426,0,0,1,.523-2.42,3.838,3.838,0,0,1,1.482-1.644,4.159,4.159,0,0,1,2.187-.577,3.727,3.727,0,0,1,2.9,1.162,4.722,4.722,0,0,1,1.058,3.3v.979h-5.719a2.228,2.228,0,0,0,.7,1.411,2.12,2.12,0,0,0,1.482.531,2.589,2.589,0,0,0,2.167-1l1.179,1.32a3.6,3.6,0,0,1-1.461,1.191A4.793,4.793,0,0,1,153.249,40.166Zm-.274-7.379a1.5,1.5,0,0,0-1.158.484,2.5,2.5,0,0,0-.569,1.384h3.337v-.192a1.786,1.786,0,0,0-.432-1.238A1.547,1.547,0,0,0,152.975,32.787Zm10.193,4.731a.773.773,0,0,0-.436-.693,4.95,4.95,0,0,0-1.4-.452q-3.2-.672-3.2-2.723a2.468,2.468,0,0,1,.992-2,4,4,0,0,1,2.594-.8,4.307,4.307,0,0,1,2.735.805,2.538,2.538,0,0,1,1.025,2.092h-2.4a1.161,1.161,0,0,0-.332-.851,1.405,1.405,0,0,0-1.038-.336,1.436,1.436,0,0,0-.938.274.865.865,0,0,0-.332.7.739.739,0,0,0,.378.643,3.885,3.885,0,0,0,1.274.423,10.407,10.407,0,0,1,1.511.4,2.482,2.482,0,0,1,1.9,2.416,2.343,2.343,0,0,1-1.054,1.988,4.548,4.548,0,0,1-2.723.76,4.75,4.75,0,0,1-2-.4,3.363,3.363,0,0,1-1.374-1.1,2.565,2.565,0,0,1-.5-1.515h2.274a1.252,1.252,0,0,0,.473.979,1.877,1.877,0,0,0,1.179.34,1.737,1.737,0,0,0,1.042-.261A.814.814,0,0,0,163.168,37.518Z" transform="translate(456 9007)" fill="#12263f"/>
      <g id="Grupo_874779" data-name="Grupo 874779" transform="translate(494.118 10800.532) rotate(180)">
        <circle id="Elipse_4713" data-name="Elipse 4713" cx="2.5" cy="2.5" r="2.5" transform="translate(285 1799.532)" fill="#7e10b8"/>
        <circle id="Elipse_4717" data-name="Elipse 4717" cx="2.5" cy="2.5" r="2.5" transform="translate(285 1811.532)" fill="#7e10b8"/>
        <circle id="Elipse_4719" data-name="Elipse 4719" cx="2.5" cy="2.5" r="2.5" transform="translate(285 1823.532)" fill="#7e10b8"/>
        <circle id="Elipse_4715" data-name="Elipse 4715" cx="2.5" cy="2.5" r="2.5" transform="translate(297 1799.532)" fill="#7e10b8"/>
        <circle id="Elipse_4720" data-name="Elipse 4720" cx="2.5" cy="2.5" r="2.5" transform="translate(308 1799.532)" fill="#7e10b8"/>
        <circle id="Elipse_4716" data-name="Elipse 4716" cx="2.5" cy="2.5" r="2.5" transform="translate(297 1811.532)" fill="#7e10b8"/>
        <circle id="Elipse_4721" data-name="Elipse 4721" cx="2.5" cy="2.5" r="2.5" transform="translate(308 1811.532)" fill="#7e10b8"/>
        <circle id="Elipse_4718" data-name="Elipse 4718" cx="2.5" cy="2.5" r="2.5" transform="translate(297 1823.532)" fill="#7e10b8"/>
        <circle id="Elipse_4722" data-name="Elipse 4722" cx="2.5" cy="2.5" r="2.5" transform="translate(308 1823.532)" fill="#7e10b8"/>
      </g>
      <g id="Grupo_874785" data-name="Grupo 874785" transform="translate(1522 10800.532) rotate(180)">
        <circle id="Elipse_4713-2" data-name="Elipse 4713" cx="2.5" cy="2.5" r="2.5" transform="translate(285 1799.532)" fill="#7e10b8"/>
        <circle id="Elipse_4717-2" data-name="Elipse 4717" cx="2.5" cy="2.5" r="2.5" transform="translate(285 1811.532)" fill="#7e10b8"/>
        <circle id="Elipse_4719-2" data-name="Elipse 4719" cx="2.5" cy="2.5" r="2.5" transform="translate(285 1823.532)" fill="#7e10b8"/>
        <circle id="Elipse_4715-2" data-name="Elipse 4715" cx="2.5" cy="2.5" r="2.5" transform="translate(297 1799.532)" fill="#7e10b8"/>
        <circle id="Elipse_4720-2" data-name="Elipse 4720" cx="2.5" cy="2.5" r="2.5" transform="translate(308 1799.532)" fill="#7e10b8"/>
        <circle id="Elipse_4716-2" data-name="Elipse 4716" cx="2.5" cy="2.5" r="2.5" transform="translate(297 1811.532)" fill="#7e10b8"/>
        <circle id="Elipse_4721-2" data-name="Elipse 4721" cx="2.5" cy="2.5" r="2.5" transform="translate(308 1811.532)" fill="#7e10b8"/>
        <circle id="Elipse_4718-2" data-name="Elipse 4718" cx="2.5" cy="2.5" r="2.5" transform="translate(297 1823.532)" fill="#7e10b8"/>
        <circle id="Elipse_4722-2" data-name="Elipse 4722" cx="2.5" cy="2.5" r="2.5" transform="translate(308 1823.532)" fill="#7e10b8"/>
      </g>
      <g id="Grupo_874787" data-name="Grupo 874787" transform="translate(1000 10800.532) rotate(180)">
        <circle id="Elipse_4713-3" data-name="Elipse 4713" cx="2.5" cy="2.5" r="2.5" transform="translate(285 1799.532)" fill="#7e10b8"/>
        <circle id="Elipse_4717-3" data-name="Elipse 4717" cx="2.5" cy="2.5" r="2.5" transform="translate(285 1811.532)" fill="#7e10b8"/>
        <circle id="Elipse_4719-3" data-name="Elipse 4719" cx="2.5" cy="2.5" r="2.5" transform="translate(285 1823.532)" fill="#7e10b8"/>
        <circle id="Elipse_4715-3" data-name="Elipse 4715" cx="2.5" cy="2.5" r="2.5" transform="translate(297 1799.532)" fill="#7e10b8"/>
        <circle id="Elipse_4720-3" data-name="Elipse 4720" cx="2.5" cy="2.5" r="2.5" transform="translate(308 1799.532)" fill="#7e10b8"/>
        <circle id="Elipse_4716-3" data-name="Elipse 4716" cx="2.5" cy="2.5" r="2.5" transform="translate(297 1811.532)" fill="#7e10b8"/>
        <circle id="Elipse_4721-3" data-name="Elipse 4721" cx="2.5" cy="2.5" r="2.5" transform="translate(308 1811.532)" fill="#7e10b8"/>
        <circle id="Elipse_4718-3" data-name="Elipse 4718" cx="2.5" cy="2.5" r="2.5" transform="translate(297 1823.532)" fill="#7e10b8"/>
        <circle id="Elipse_4722-3" data-name="Elipse 4722" cx="2.5" cy="2.5" r="2.5" transform="translate(308 1823.532)" fill="#7e10b8"/>
      </g>
      <g id="Grupo_874788" data-name="Grupo 874788" transform="translate(747 10800.532) rotate(180)">
        <circle id="Elipse_4713-4" data-name="Elipse 4713" cx="2.5" cy="2.5" r="2.5" transform="translate(285 1799.532)" fill="#7e10b8"/>
        <circle id="Elipse_4717-4" data-name="Elipse 4717" cx="2.5" cy="2.5" r="2.5" transform="translate(285 1811.532)" fill="#7e10b8"/>
        <circle id="Elipse_4719-4" data-name="Elipse 4719" cx="2.5" cy="2.5" r="2.5" transform="translate(285 1823.532)" fill="#7e10b8"/>
        <circle id="Elipse_4715-4" data-name="Elipse 4715" cx="2.5" cy="2.5" r="2.5" transform="translate(297 1799.532)" fill="#7e10b8"/>
        <circle id="Elipse_4720-4" data-name="Elipse 4720" cx="2.5" cy="2.5" r="2.5" transform="translate(308 1799.532)" fill="#7e10b8"/>
        <circle id="Elipse_4716-4" data-name="Elipse 4716" cx="2.5" cy="2.5" r="2.5" transform="translate(297 1811.532)" fill="#7e10b8"/>
        <circle id="Elipse_4721-4" data-name="Elipse 4721" cx="2.5" cy="2.5" r="2.5" transform="translate(308 1811.532)" fill="#7e10b8"/>
        <circle id="Elipse_4718-4" data-name="Elipse 4718" cx="2.5" cy="2.5" r="2.5" transform="translate(297 1823.532)" fill="#7e10b8"/>
        <circle id="Elipse_4722-4" data-name="Elipse 4722" cx="2.5" cy="2.5" r="2.5" transform="translate(308 1823.532)" fill="#7e10b8"/>
      </g>
      <g id="Grupo_874790" data-name="Grupo 874790" transform="translate(-18.441 276)">
        <g id="Grupo_874789-2" data-name="Grupo 874789" transform="translate(-6473.46 9937.647) rotate(-90)">
          <path id="Trazado_596828-2" data-name="Trazado 596828" d="M-7577-4618.648V-4641.1" transform="translate(8760 11785)" fill="none" stroke="#60cb28" stroke-width="2"/>
        </g>
        <path id="Polígono_14" data-name="Polígono 14" d="M6,0l6,9H0Z" transform="translate(697.559 8748.647) rotate(90)" fill="#60cb28"/>
      </g>
      <g id="Grupo_874793" data-name="Grupo 874793" transform="translate(-271.441 276)">
        <g id="Grupo_874789-3" data-name="Grupo 874789" transform="translate(-6473.46 9937.647) rotate(-90)">
          <path id="Trazado_596828-3" data-name="Trazado 596828" d="M-7577-4618.648V-4641.1" transform="translate(8760 11785)" fill="none" stroke="#60cb28" stroke-width="2"/>
        </g>
        <path id="Polígono_14-2" data-name="Polígono 14" d="M6,0l6,9H0Z" transform="translate(697.559 8748.647) rotate(90)" fill="#60cb28"/>
      </g>
      <path id="Trazado_598035" data-name="Trazado 598035" d="M103.361-10.566,210,57.582,103.361,129.317,0,64.756Z" transform="translate(947 8962.684)" fill="#e1f5d6"/>
      <path id="Trazado_598038" data-name="Trazado 598038" d="M0,0H210V74.671H0Z" transform="translate(947 9164)" fill="#dde2ed"/>
      <path id="Trazado_604868" data-name="Trazado 604868" d="M45.682,11.974a4.277,4.277,0,0,1-1.44,3.071,5.058,5.058,0,0,1-3.424,1.121A4.548,4.548,0,0,1,37.161,14.6a6.416,6.416,0,0,1-1.332-4.3V9.567A7.245,7.245,0,0,1,36.443,6.5,4.6,4.6,0,0,1,38.2,4.458a5.486,5.486,0,0,1,6.022.411A4.6,4.6,0,0,1,45.7,8.015h-2.49a2.524,2.524,0,0,0-.652-1.7,2.413,2.413,0,0,0-1.706-.527,2.116,2.116,0,0,0-1.864.892,5,5,0,0,0-.635,2.768v.913a5.352,5.352,0,0,0,.594,2.864,2.077,2.077,0,0,0,1.872.9,2.458,2.458,0,0,0,1.722-.527,2.381,2.381,0,0,0,.652-1.631Zm6.856,3.113a3.008,3.008,0,0,1-2.457,1.079,2.837,2.837,0,0,1-2.2-.83A3.543,3.543,0,0,1,47.1,12.9V7.019h2.4v5.809q0,1.4,1.278,1.4a1.732,1.732,0,0,0,1.677-.848V7.019h2.407V16H52.6Zm6.383-8.068.075,1a3.156,3.156,0,0,1,2.582-1.17,2.4,2.4,0,0,1,2.382,1.37,3.084,3.084,0,0,1,2.7-1.37,2.679,2.679,0,0,1,2.175.851,3.911,3.911,0,0,1,.714,2.561V16H67.139V10.272a1.71,1.71,0,0,0-.3-1.116A1.324,1.324,0,0,0,65.786,8.8a1.5,1.5,0,0,0-1.494,1.029L64.3,16H61.9V10.281a1.689,1.689,0,0,0-.307-1.129A1.337,1.337,0,0,0,60.548,8.8a1.555,1.555,0,0,0-1.478.847V16h-2.4V7.019Zm20.553,4.574a5.387,5.387,0,0,1-.942,3.324,3.021,3.021,0,0,1-2.544,1.249,2.8,2.8,0,0,1-2.2-.946v4.233h-2.4V7.019h2.225l.083.88a2.819,2.819,0,0,1,2.274-1.046,3.041,3.041,0,0,1,2.582,1.229,5.532,5.532,0,0,1,.921,3.387Zm-2.4-.174a3.535,3.535,0,0,0-.444-1.934A1.446,1.446,0,0,0,75.34,8.8a1.571,1.571,0,0,0-1.552.863v3.677a1.6,1.6,0,0,0,1.569.888Q77.075,14.232,77.075,11.418ZM83.492,16H81.084V3.25h2.407Zm6.109.166a4.409,4.409,0,0,1-3.217-1.212,4.308,4.308,0,0,1-1.241-3.229v-.232a5.426,5.426,0,0,1,.523-2.42,3.838,3.838,0,0,1,1.482-1.644,4.159,4.159,0,0,1,2.187-.577,3.727,3.727,0,0,1,2.9,1.162,4.722,4.722,0,0,1,1.058,3.3v.979H87.576a2.229,2.229,0,0,0,.7,1.411,2.12,2.12,0,0,0,1.482.531,2.589,2.589,0,0,0,2.167-1l1.179,1.32a3.6,3.6,0,0,1-1.461,1.191A4.793,4.793,0,0,1,89.6,16.166Zm-.274-7.379a1.5,1.5,0,0,0-1.158.484,2.5,2.5,0,0,0-.569,1.384h3.337v-.192a1.786,1.786,0,0,0-.432-1.238A1.547,1.547,0,0,0,89.327,8.787ZM95.279,19.03l-1.253-.656.3-.54a4.313,4.313,0,0,0,.573-2.017V13.958h2.025l-.008,1.66a4.313,4.313,0,0,1-.465,1.859A4.767,4.767,0,0,1,95.279,19.03ZM28.267,37.518a.773.773,0,0,0-.436-.693,4.95,4.95,0,0,0-1.4-.452q-3.2-.672-3.2-2.723a2.468,2.468,0,0,1,.992-2,4,4,0,0,1,2.594-.8,4.307,4.307,0,0,1,2.735.805,2.538,2.538,0,0,1,1.025,2.092h-2.4a1.161,1.161,0,0,0-.332-.851,1.405,1.405,0,0,0-1.038-.336,1.436,1.436,0,0,0-.938.274.865.865,0,0,0-.332.7.739.739,0,0,0,.378.643,3.885,3.885,0,0,0,1.274.423A10.407,10.407,0,0,1,28.7,35a2.482,2.482,0,0,1,1.9,2.416,2.343,2.343,0,0,1-1.054,1.988,4.548,4.548,0,0,1-2.723.76,4.75,4.75,0,0,1-2-.4,3.363,3.363,0,0,1-1.374-1.1,2.565,2.565,0,0,1-.5-1.515H25.22a1.252,1.252,0,0,0,.473.979,1.877,1.877,0,0,0,1.179.34,1.737,1.737,0,0,0,1.042-.261A.814.814,0,0,0,28.267,37.518ZM37.348,40a2.664,2.664,0,0,1-.241-.805,2.9,2.9,0,0,1-2.266.971,3.189,3.189,0,0,1-2.187-.764,2.456,2.456,0,0,1-.867-1.926,2.538,2.538,0,0,1,1.058-2.191,5.222,5.222,0,0,1,3.059-.772h1.1V34a1.48,1.48,0,0,0-.32-1,1.257,1.257,0,0,0-1.009-.374,1.429,1.429,0,0,0-.95.291.987.987,0,0,0-.344.8h-2.4a2.41,2.41,0,0,1,.481-1.444,3.182,3.182,0,0,1,1.361-1.042,4.961,4.961,0,0,1,1.976-.378,3.92,3.92,0,0,1,2.635.834,2.918,2.918,0,0,1,.975,2.345v3.893a4.294,4.294,0,0,0,.357,1.934V40Zm-1.984-1.668a2.066,2.066,0,0,0,.979-.237,1.554,1.554,0,0,0,.664-.635V35.916h-.9q-1.8,0-1.917,1.245l-.008.141a.96.96,0,0,0,.315.739A1.225,1.225,0,0,0,35.364,38.332Zm8.766-9.521v2.208h1.536v1.76H44.129v4.482a1.07,1.07,0,0,0,.191.714.959.959,0,0,0,.73.216,3.826,3.826,0,0,0,.706-.058V39.95a4.939,4.939,0,0,1-1.453.216,2.29,2.29,0,0,1-2.573-2.548V32.778H40.419v-1.76H41.73V28.811ZM49.533,40H47.126V31.019h2.407ZM46.985,28.694a1.181,1.181,0,0,1,.361-.888,1.556,1.556,0,0,1,1.963,0,1.268,1.268,0,0,1,0,1.785,1.539,1.539,0,0,1-1.951,0A1.178,1.178,0,0,1,46.985,28.694Zm9.388,8.824a.773.773,0,0,0-.436-.693,4.95,4.95,0,0,0-1.4-.452q-3.2-.672-3.2-2.723a2.468,2.468,0,0,1,.992-2,4,4,0,0,1,2.594-.8,4.307,4.307,0,0,1,2.735.805,2.538,2.538,0,0,1,1.025,2.092h-2.4a1.161,1.161,0,0,0-.332-.851,1.405,1.405,0,0,0-1.038-.336,1.436,1.436,0,0,0-.938.274.865.865,0,0,0-.332.7.739.739,0,0,0,.378.643,3.885,3.885,0,0,0,1.274.423A10.407,10.407,0,0,1,56.8,35a2.482,2.482,0,0,1,1.9,2.416,2.343,2.343,0,0,1-1.054,1.988,4.548,4.548,0,0,1-2.723.76,4.75,4.75,0,0,1-2-.4,3.363,3.363,0,0,1-1.374-1.1,2.565,2.565,0,0,1-.5-1.515h2.274a1.252,1.252,0,0,0,.473.979,1.877,1.877,0,0,0,1.179.34A1.737,1.737,0,0,0,56.02,38.2.814.814,0,0,0,56.373,37.518ZM60.905,40V32.778H59.569v-1.76h1.336v-.764a3.1,3.1,0,0,1,.867-2.345,3.359,3.359,0,0,1,2.428-.834,5.608,5.608,0,0,1,1.22.166L65.4,29.1a3.058,3.058,0,0,0-.73-.075q-1.353,0-1.353,1.27v.722H65.1v1.76H63.313V40Zm10.642,0a2.664,2.664,0,0,1-.241-.805,2.9,2.9,0,0,1-2.266.971,3.189,3.189,0,0,1-2.187-.764,2.456,2.456,0,0,1-.867-1.926,2.538,2.538,0,0,1,1.058-2.191,5.222,5.222,0,0,1,3.059-.772h1.1V34a1.48,1.48,0,0,0-.32-1,1.257,1.257,0,0,0-1.009-.374,1.429,1.429,0,0,0-.95.291.987.987,0,0,0-.344.8h-2.4a2.41,2.41,0,0,1,.481-1.444,3.182,3.182,0,0,1,1.361-1.042A4.961,4.961,0,0,1,70,30.853a3.92,3.92,0,0,1,2.635.834,2.918,2.918,0,0,1,.975,2.345v3.893a4.294,4.294,0,0,0,.357,1.934V40Zm-1.984-1.668a2.066,2.066,0,0,0,.979-.237,1.554,1.554,0,0,0,.664-.635V35.916h-.9q-1.8,0-1.917,1.245l-.008.141a.96.96,0,0,0,.315.739A1.225,1.225,0,0,0,69.563,38.332Zm9.629-.1a1.573,1.573,0,0,0,1.079-.365A1.28,1.28,0,0,0,80.7,36.9h2.25a3.077,3.077,0,0,1-.5,1.673,3.286,3.286,0,0,1-1.341,1.179,4.2,4.2,0,0,1-1.88.419A3.9,3.9,0,0,1,76.2,38.942a4.845,4.845,0,0,1-1.112-3.383V35.4a4.79,4.79,0,0,1,1.1-3.312,3.854,3.854,0,0,1,3.03-1.237,3.778,3.778,0,0,1,2.7.959,3.4,3.4,0,0,1,1.033,2.552H80.7a1.648,1.648,0,0,0-.432-1.139,1.6,1.6,0,0,0-2.362.173,3.541,3.541,0,0,0-.427,1.983v.249a3.586,3.586,0,0,0,.423,2A1.463,1.463,0,0,0,79.192,38.232Zm9.264,1.934a4.409,4.409,0,0,1-3.217-1.212A4.308,4.308,0,0,1,84,35.725v-.232a5.426,5.426,0,0,1,.523-2.42A3.838,3.838,0,0,1,86,31.429a4.159,4.159,0,0,1,2.187-.577,3.727,3.727,0,0,1,2.9,1.162,4.722,4.722,0,0,1,1.058,3.3v.979H86.43a2.229,2.229,0,0,0,.7,1.411,2.12,2.12,0,0,0,1.482.531,2.589,2.589,0,0,0,2.167-1l1.179,1.32A3.6,3.6,0,0,1,90.5,39.739,4.793,4.793,0,0,1,88.456,40.166Zm-.274-7.379a1.5,1.5,0,0,0-1.158.484,2.5,2.5,0,0,0-.569,1.384h3.337v-.192a1.786,1.786,0,0,0-.432-1.238A1.547,1.547,0,0,0,88.182,32.787Zm13.7,7.379a4.409,4.409,0,0,1-3.217-1.212,4.308,4.308,0,0,1-1.241-3.229v-.232a5.426,5.426,0,0,1,.523-2.42,3.838,3.838,0,0,1,1.482-1.644,4.159,4.159,0,0,1,2.187-.577,3.727,3.727,0,0,1,2.9,1.162,4.722,4.722,0,0,1,1.058,3.3v.979H99.853a2.229,2.229,0,0,0,.7,1.411,2.12,2.12,0,0,0,1.482.531,2.589,2.589,0,0,0,2.167-1l1.179,1.32a3.6,3.6,0,0,1-1.461,1.191A4.793,4.793,0,0,1,101.878,40.166Zm-.274-7.379a1.5,1.5,0,0,0-1.158.484,2.5,2.5,0,0,0-.569,1.384h3.337v-.192a1.786,1.786,0,0,0-.432-1.238A1.547,1.547,0,0,0,101.6,32.787ZM109.465,40h-2.407V27.25h2.407ZM37.954,64.166a4.409,4.409,0,0,1-3.217-1.212A4.308,4.308,0,0,1,33.5,59.725v-.232a5.426,5.426,0,0,1,.523-2.42A3.838,3.838,0,0,1,35.5,55.429a4.159,4.159,0,0,1,2.187-.577,3.727,3.727,0,0,1,2.9,1.162,4.722,4.722,0,0,1,1.058,3.3v.979H35.928a2.229,2.229,0,0,0,.7,1.411,2.12,2.12,0,0,0,1.482.531,2.589,2.589,0,0,0,2.167-1l1.179,1.32A3.6,3.6,0,0,1,40,63.739,4.793,4.793,0,0,1,37.954,64.166Zm-.274-7.379a1.5,1.5,0,0,0-1.158.484,2.5,2.5,0,0,0-.569,1.384H39.29v-.192a1.786,1.786,0,0,0-.432-1.238A1.547,1.547,0,0,0,37.68,56.787Zm10.193,4.731a.773.773,0,0,0-.436-.693,4.95,4.95,0,0,0-1.4-.452q-3.2-.672-3.2-2.723a2.468,2.468,0,0,1,.992-2,4,4,0,0,1,2.594-.8,4.307,4.307,0,0,1,2.735.805,2.538,2.538,0,0,1,1.025,2.092h-2.4a1.161,1.161,0,0,0-.332-.851,1.405,1.405,0,0,0-1.038-.336,1.436,1.436,0,0,0-.938.274.865.865,0,0,0-.332.7.739.739,0,0,0,.378.643,3.885,3.885,0,0,0,1.274.423A10.407,10.407,0,0,1,48.3,59a2.482,2.482,0,0,1,1.9,2.416,2.343,2.343,0,0,1-1.054,1.988,4.548,4.548,0,0,1-2.723.76,4.75,4.75,0,0,1-2-.4,3.363,3.363,0,0,1-1.374-1.1,2.565,2.565,0,0,1-.5-1.515h2.274a1.252,1.252,0,0,0,.473.979,1.877,1.877,0,0,0,1.179.34A1.737,1.737,0,0,0,47.52,62.2.814.814,0,0,0,47.873,61.518Zm6.749-8.708v2.208h1.536v1.76H54.622v4.482a1.07,1.07,0,0,0,.191.714.959.959,0,0,0,.73.216,3.826,3.826,0,0,0,.706-.058V63.95a4.938,4.938,0,0,1-1.453.216,2.29,2.29,0,0,1-2.573-2.548V56.778H50.911v-1.76h1.312V52.811ZM62.7,64a2.664,2.664,0,0,1-.241-.805,2.9,2.9,0,0,1-2.266.971A3.189,3.189,0,0,1,58,63.4a2.456,2.456,0,0,1-.867-1.926A2.538,2.538,0,0,1,58.2,59.285a5.222,5.222,0,0,1,3.059-.772h1.1V58a1.48,1.48,0,0,0-.32-1,1.257,1.257,0,0,0-1.009-.374,1.429,1.429,0,0,0-.95.291.987.987,0,0,0-.344.8h-2.4a2.41,2.41,0,0,1,.481-1.444,3.182,3.182,0,0,1,1.361-1.042,4.961,4.961,0,0,1,1.976-.378,3.92,3.92,0,0,1,2.635.834,2.918,2.918,0,0,1,.975,2.345v3.893a4.294,4.294,0,0,0,.357,1.934V64Zm-1.984-1.668a2.066,2.066,0,0,0,.979-.237,1.554,1.554,0,0,0,.664-.635V59.916h-.9q-1.8,0-1.917,1.245l-.008.141a.96.96,0,0,0,.315.739A1.225,1.225,0,0,0,60.714,62.332Zm.913-11.082h2.615l-2.3,2.573H59.992Zm7.188,3.769.075,1.038a3.136,3.136,0,0,1,2.582-1.2,2.606,2.606,0,0,1,2.125.838,3.912,3.912,0,0,1,.714,2.507V64h-2.4V58.256a1.556,1.556,0,0,0-.332-1.108,1.486,1.486,0,0,0-1.1-.344,1.65,1.65,0,0,0-1.519.863V64h-2.4V55.019Zm6.939,4.424A5.413,5.413,0,0,1,76.7,56.1a3.057,3.057,0,0,1,2.577-1.245,2.751,2.751,0,0,1,2.167.979V51.25h2.407V64H81.682l-.116-.955a2.823,2.823,0,0,1-2.308,1.121,3.049,3.049,0,0,1-2.544-1.249A5.587,5.587,0,0,1,75.755,59.443Zm2.4.179a3.546,3.546,0,0,0,.44,1.937,1.433,1.433,0,0,0,1.278.673,1.605,1.605,0,0,0,1.569-.939v-3.55a1.582,1.582,0,0,0-1.552-.939Q78.154,56.8,78.154,59.621ZM90.913,64a2.664,2.664,0,0,1-.241-.805,2.9,2.9,0,0,1-2.266.971,3.189,3.189,0,0,1-2.187-.764,2.456,2.456,0,0,1-.867-1.926,2.538,2.538,0,0,1,1.058-2.191,5.222,5.222,0,0,1,3.059-.772h1.1V58a1.48,1.48,0,0,0-.32-1,1.257,1.257,0,0,0-1.009-.374,1.429,1.429,0,0,0-.95.291.987.987,0,0,0-.344.8h-2.4a2.41,2.41,0,0,1,.481-1.444,3.182,3.182,0,0,1,1.361-1.042,4.961,4.961,0,0,1,1.976-.378A3.92,3.92,0,0,1,92,55.687a2.918,2.918,0,0,1,.975,2.345v3.893a4.294,4.294,0,0,0,.357,1.934V64Zm-1.984-1.668a2.066,2.066,0,0,0,.979-.237,1.554,1.554,0,0,0,.664-.635V59.916h-.9q-1.8,0-1.917,1.245l-.008.141a.96.96,0,0,0,.315.739A1.225,1.225,0,0,0,88.929,62.332Zm10.94-5.063a6.517,6.517,0,0,0-.863-.066,1.757,1.757,0,0,0-1.785.921V64h-2.4V55.019h2.266l.066,1.071a2.223,2.223,0,0,1,2-1.237,2.514,2.514,0,0,1,.747.108Z" transform="translate(987 8988)" fill="#12263f"/>
      <path id="Trazado_604872" data-name="Trazado 604872" d="M5.057,3.914l3.1,8.766,3.088-8.766H14.52V16h-2.5V12.7l.249-5.7L9.008,16H7.3L4.044,7,4.293,12.7V16H1.8V3.914ZM20.67,16.166a4.409,4.409,0,0,1-3.217-1.212,4.308,4.308,0,0,1-1.241-3.229v-.232a5.426,5.426,0,0,1,.523-2.42,3.838,3.838,0,0,1,1.482-1.644A4.159,4.159,0,0,1,20.4,6.853a3.727,3.727,0,0,1,2.9,1.162,4.722,4.722,0,0,1,1.058,3.3v.979H18.645a2.229,2.229,0,0,0,.7,1.411,2.12,2.12,0,0,0,1.482.531,2.589,2.589,0,0,0,2.167-1l1.179,1.32a3.6,3.6,0,0,1-1.461,1.191A4.793,4.793,0,0,1,20.67,16.166ZM20.4,8.787a1.5,1.5,0,0,0-1.158.484,2.5,2.5,0,0,0-.569,1.384h3.337v-.192a1.786,1.786,0,0,0-.432-1.238A1.547,1.547,0,0,0,20.4,8.787Zm4.956,2.656A5.413,5.413,0,0,1,26.294,8.1a3.057,3.057,0,0,1,2.577-1.245,2.751,2.751,0,0,1,2.167.979V3.25h2.407V16H31.279l-.116-.955a2.823,2.823,0,0,1-2.308,1.121,3.049,3.049,0,0,1-2.544-1.249A5.587,5.587,0,0,1,25.352,11.443Zm2.4.179a3.546,3.546,0,0,0,.44,1.937,1.433,1.433,0,0,0,1.278.673,1.605,1.605,0,0,0,1.569-.939V9.743A1.582,1.582,0,0,0,29.486,8.8Q27.751,8.8,27.751,11.621ZM37.836,16H35.429V7.019h2.407ZM35.288,4.694a1.181,1.181,0,0,1,.361-.888,1.556,1.556,0,0,1,1.963,0,1.175,1.175,0,0,1,.365.888,1.178,1.178,0,0,1-.369.9,1.539,1.539,0,0,1-1.951,0A1.178,1.178,0,0,1,35.288,4.694Zm4.15,6.749A5.413,5.413,0,0,1,40.381,8.1a3.057,3.057,0,0,1,2.577-1.245,2.751,2.751,0,0,1,2.167.979V3.25h2.407V16H45.365l-.116-.955a2.823,2.823,0,0,1-2.308,1.121A3.049,3.049,0,0,1,40.4,14.917,5.587,5.587,0,0,1,39.438,11.443Zm2.4.179a3.546,3.546,0,0,0,.44,1.937,1.433,1.433,0,0,0,1.278.673,1.605,1.605,0,0,0,1.569-.939V9.743A1.582,1.582,0,0,0,43.572,8.8Q41.837,8.8,41.837,11.621ZM54.6,16a2.664,2.664,0,0,1-.241-.805,2.9,2.9,0,0,1-2.266.971A3.189,3.189,0,0,1,49.9,15.4a2.456,2.456,0,0,1-.867-1.926,2.538,2.538,0,0,1,1.058-2.191,5.222,5.222,0,0,1,3.059-.772h1.1V10a1.48,1.48,0,0,0-.32-1,1.257,1.257,0,0,0-1.009-.374,1.429,1.429,0,0,0-.95.291.987.987,0,0,0-.344.8h-2.4a2.41,2.41,0,0,1,.481-1.444A3.182,3.182,0,0,1,51.076,7.23a4.961,4.961,0,0,1,1.976-.378,3.92,3.92,0,0,1,2.635.834,2.918,2.918,0,0,1,.975,2.345v3.893a4.294,4.294,0,0,0,.357,1.934V16Zm-1.984-1.668a2.066,2.066,0,0,0,.979-.237,1.554,1.554,0,0,0,.664-.635V11.916h-.9q-1.8,0-1.917,1.245l-.008.141a.96.96,0,0,0,.315.739A1.225,1.225,0,0,0,52.612,14.332Zm10.758-.813a.773.773,0,0,0-.436-.693,4.95,4.95,0,0,0-1.4-.452q-3.2-.672-3.2-2.723a2.468,2.468,0,0,1,.992-2,4,4,0,0,1,2.594-.8,4.307,4.307,0,0,1,2.735.805A2.538,2.538,0,0,1,65.677,9.75h-2.4a1.161,1.161,0,0,0-.332-.851,1.405,1.405,0,0,0-1.038-.336,1.436,1.436,0,0,0-.938.274.865.865,0,0,0-.332.7.739.739,0,0,0,.378.643,3.885,3.885,0,0,0,1.274.423A10.407,10.407,0,0,1,63.8,11a2.482,2.482,0,0,1,1.9,2.416,2.343,2.343,0,0,1-1.054,1.988,4.548,4.548,0,0,1-2.723.76,4.75,4.75,0,0,1-2-.4,3.363,3.363,0,0,1-1.374-1.1,2.565,2.565,0,0,1-.5-1.515h2.274a1.252,1.252,0,0,0,.473.979,1.877,1.877,0,0,0,1.179.34,1.737,1.737,0,0,0,1.042-.261A.814.814,0,0,0,63.37,13.518Zm7.736-2.075A5.413,5.413,0,0,1,72.048,8.1a3.057,3.057,0,0,1,2.577-1.245,2.751,2.751,0,0,1,2.167.979V3.25H79.2V16H77.033l-.116-.955a2.823,2.823,0,0,1-2.308,1.121,3.049,3.049,0,0,1-2.544-1.249A5.587,5.587,0,0,1,71.106,11.443Zm2.4.179a3.546,3.546,0,0,0,.44,1.937,1.433,1.433,0,0,0,1.278.673,1.605,1.605,0,0,0,1.569-.939V9.743A1.582,1.582,0,0,0,75.24,8.8Q73.5,8.8,73.5,11.621Zm11.688,4.545a4.409,4.409,0,0,1-3.217-1.212,4.308,4.308,0,0,1-1.241-3.229v-.232a5.426,5.426,0,0,1,.523-2.42A3.838,3.838,0,0,1,82.74,7.429a4.159,4.159,0,0,1,2.187-.577,3.727,3.727,0,0,1,2.9,1.162,4.722,4.722,0,0,1,1.058,3.3v.979H83.167a2.229,2.229,0,0,0,.7,1.411,2.12,2.12,0,0,0,1.482.531,2.589,2.589,0,0,0,2.167-1l1.179,1.32a3.6,3.6,0,0,1-1.461,1.191A4.793,4.793,0,0,1,85.192,16.166Zm-.274-7.379a1.5,1.5,0,0,0-1.158.484,2.5,2.5,0,0,0-.569,1.384h3.337v-.192A1.786,1.786,0,0,0,86.1,9.224,1.547,1.547,0,0,0,84.918,8.787ZM99.686,16a2.664,2.664,0,0,1-.241-.805,2.9,2.9,0,0,1-2.266.971,3.189,3.189,0,0,1-2.187-.764,2.456,2.456,0,0,1-.867-1.926,2.538,2.538,0,0,1,1.058-2.191,5.222,5.222,0,0,1,3.059-.772h1.1V10a1.48,1.48,0,0,0-.32-1,1.257,1.257,0,0,0-1.009-.374,1.429,1.429,0,0,0-.95.291.987.987,0,0,0-.344.8h-2.4A2.41,2.41,0,0,1,94.8,8.272,3.182,3.182,0,0,1,96.166,7.23a4.961,4.961,0,0,1,1.976-.378,3.92,3.92,0,0,1,2.635.834,2.918,2.918,0,0,1,.975,2.345v3.893a4.294,4.294,0,0,0,.357,1.934V16ZM97.7,14.332a2.066,2.066,0,0,0,.979-.237,1.554,1.554,0,0,0,.664-.635V11.916h-.9q-1.8,0-1.917,1.245l-.008.141a.96.96,0,0,0,.315.739A1.225,1.225,0,0,0,97.7,14.332Zm8.434-7.313V16.49a3.213,3.213,0,0,1-.789,2.312,3,3,0,0,1-2.274.826,4.878,4.878,0,0,1-1.187-.141v-1.9a4.5,4.5,0,0,0,.755.075q1.087,0,1.087-1.154V7.019Zm-2.6-2.324a1.181,1.181,0,0,1,.361-.888,1.562,1.562,0,0,1,1.967,0,1.181,1.181,0,0,1,.361.888,1.178,1.178,0,0,1-.369.9,1.539,1.539,0,0,1-1.951,0A1.178,1.178,0,0,1,103.537,4.694Zm9.853,10.393a3.008,3.008,0,0,1-2.457,1.079,2.837,2.837,0,0,1-2.2-.83,3.543,3.543,0,0,1-.776-2.432V7.019h2.4v5.809q0,1.4,1.278,1.4a1.732,1.732,0,0,0,1.677-.848V7.019h2.407V16h-2.258Zm9-1.569a.773.773,0,0,0-.436-.693,4.95,4.95,0,0,0-1.4-.452q-3.2-.672-3.2-2.723a2.468,2.468,0,0,1,.992-2,4,4,0,0,1,2.594-.8,4.307,4.307,0,0,1,2.735.805A2.538,2.538,0,0,1,124.7,9.75h-2.4a1.161,1.161,0,0,0-.332-.851,1.405,1.405,0,0,0-1.038-.336,1.436,1.436,0,0,0-.938.274.865.865,0,0,0-.332.7.739.739,0,0,0,.378.643,3.885,3.885,0,0,0,1.274.423,10.407,10.407,0,0,1,1.511.4,2.482,2.482,0,0,1,1.9,2.416,2.343,2.343,0,0,1-1.054,1.988,4.548,4.548,0,0,1-2.723.76,4.75,4.75,0,0,1-2-.4,3.363,3.363,0,0,1-1.374-1.1,2.565,2.565,0,0,1-.5-1.515h2.274a1.252,1.252,0,0,0,.473.979,1.877,1.877,0,0,0,1.179.34,1.737,1.737,0,0,0,1.042-.261A.814.814,0,0,0,122.388,13.518Zm6.749-8.708V7.019h1.536v1.76h-1.536v4.482a1.07,1.07,0,0,0,.191.714.959.959,0,0,0,.73.216,3.826,3.826,0,0,0,.706-.058V15.95a4.939,4.939,0,0,1-1.453.216,2.29,2.29,0,0,1-2.573-2.548V8.778h-1.312V7.019h1.312V4.811Zm7.006,11.355a4.409,4.409,0,0,1-3.217-1.212,4.308,4.308,0,0,1-1.241-3.229v-.232a5.426,5.426,0,0,1,.523-2.42,3.838,3.838,0,0,1,1.482-1.644,4.159,4.159,0,0,1,2.187-.577,3.727,3.727,0,0,1,2.9,1.162,4.722,4.722,0,0,1,1.058,3.3v.979h-5.719a2.228,2.228,0,0,0,.7,1.411,2.12,2.12,0,0,0,1.482.531,2.589,2.589,0,0,0,2.167-1l1.179,1.32a3.6,3.6,0,0,1-1.461,1.191A4.793,4.793,0,0,1,136.143,16.166Zm-.274-7.379a1.5,1.5,0,0,0-1.158.484,2.5,2.5,0,0,0-.569,1.384h3.337v-.192a1.786,1.786,0,0,0-.432-1.238A1.547,1.547,0,0,0,135.869,8.787ZM41.51,36.6l1.66-5.586h2.573L42.132,41.395l-.2.473a2.738,2.738,0,0,1-2.656,1.76,3.774,3.774,0,0,1-1.062-.158V41.652l.365.008a1.973,1.973,0,0,0,1.017-.208,1.363,1.363,0,0,0,.527-.689l.282-.739L37.26,31.019h2.582Zm13.148,1.627a1.573,1.573,0,0,0,1.079-.365,1.28,1.28,0,0,0,.432-.971h2.25a3.077,3.077,0,0,1-.5,1.673,3.286,3.286,0,0,1-1.341,1.179,4.2,4.2,0,0,1-1.88.419,3.9,3.9,0,0,1-3.038-1.224,4.845,4.845,0,0,1-1.112-3.383V35.4a4.79,4.79,0,0,1,1.1-3.312,3.854,3.854,0,0,1,3.03-1.237,3.778,3.778,0,0,1,2.7.959,3.4,3.4,0,0,1,1.033,2.552h-2.25a1.648,1.648,0,0,0-.432-1.139,1.6,1.6,0,0,0-2.362.173,3.541,3.541,0,0,0-.427,1.983v.249a3.586,3.586,0,0,0,.423,2A1.463,1.463,0,0,0,54.658,38.232Zm4.756-2.806a5.327,5.327,0,0,1,.515-2.382,3.767,3.767,0,0,1,1.482-1.619,4.323,4.323,0,0,1,2.245-.573,4.09,4.09,0,0,1,2.968,1.112,4.464,4.464,0,0,1,1.282,3.021l.017.614a4.694,4.694,0,0,1-1.154,3.316,4.472,4.472,0,0,1-6.2,0,4.777,4.777,0,0,1-1.158-3.387Zm2.4.17a3.357,3.357,0,0,0,.481,1.958,1.73,1.73,0,0,0,2.739.008,3.674,3.674,0,0,0,.49-2.141,3.324,3.324,0,0,0-.49-1.945,1.592,1.592,0,0,0-1.378-.69,1.566,1.566,0,0,0-1.361.686A3.735,3.735,0,0,0,61.813,35.6Zm9.795-4.578.075,1.038a3.136,3.136,0,0,1,2.582-1.2,2.606,2.606,0,0,1,2.125.838A3.912,3.912,0,0,1,77.1,34.2V40H74.7V34.256a1.556,1.556,0,0,0-.332-1.108,1.486,1.486,0,0,0-1.1-.344,1.65,1.65,0,0,0-1.519.863V40h-2.4V31.019Zm10.185-2.208v2.208h1.536v1.76H81.793v4.482a1.07,1.07,0,0,0,.191.714.959.959,0,0,0,.73.216,3.825,3.825,0,0,0,.706-.058V39.95a4.939,4.939,0,0,1-1.453.216,2.29,2.29,0,0,1-2.573-2.548V32.778H78.083v-1.76h1.312V28.811Zm7.919,4.458a6.517,6.517,0,0,0-.863-.066,1.757,1.757,0,0,0-1.785.921V40h-2.4V31.019h2.266L87,32.089a2.223,2.223,0,0,1,2-1.237,2.514,2.514,0,0,1,.747.108Zm.481,2.158a5.326,5.326,0,0,1,.515-2.382,3.768,3.768,0,0,1,1.482-1.619,4.323,4.323,0,0,1,2.245-.573A4.09,4.09,0,0,1,97.4,31.965a4.464,4.464,0,0,1,1.282,3.021l.017.614a4.694,4.694,0,0,1-1.154,3.316,4.472,4.472,0,0,1-6.2,0,4.777,4.777,0,0,1-1.158-3.387Zm2.4.17a3.357,3.357,0,0,0,.481,1.958,1.73,1.73,0,0,0,2.739.008,3.674,3.674,0,0,0,.49-2.141,3.324,3.324,0,0,0-.49-1.945,1.592,1.592,0,0,0-1.378-.69,1.566,1.566,0,0,0-1.361.686A3.735,3.735,0,0,0,92.593,35.6ZM102.711,40H100.3V27.25h2.407Z" transform="translate(983 9179)" fill="#12263f"/>
      <g id="Grupo_874794" data-name="Grupo 874794" transform="translate(1438 11051.532) rotate(180)">
        <circle id="Elipse_4713-5" data-name="Elipse 4713" cx="2.5" cy="2.5" r="2.5" transform="translate(285 1799.532)" fill="#7e10b8"/>
        <circle id="Elipse_4717-5" data-name="Elipse 4717" cx="2.5" cy="2.5" r="2.5" transform="translate(285 1811.532)" fill="#7e10b8"/>
        <circle id="Elipse_4719-5" data-name="Elipse 4719" cx="2.5" cy="2.5" r="2.5" transform="translate(285 1823.532)" fill="#7e10b8"/>
        <circle id="Elipse_4715-5" data-name="Elipse 4715" cx="2.5" cy="2.5" r="2.5" transform="translate(297 1799.532)" fill="#7e10b8"/>
        <circle id="Elipse_4720-5" data-name="Elipse 4720" cx="2.5" cy="2.5" r="2.5" transform="translate(308 1799.532)" fill="#7e10b8"/>
        <circle id="Elipse_4716-5" data-name="Elipse 4716" cx="2.5" cy="2.5" r="2.5" transform="translate(297 1811.532)" fill="#7e10b8"/>
        <circle id="Elipse_4721-5" data-name="Elipse 4721" cx="2.5" cy="2.5" r="2.5" transform="translate(308 1811.532)" fill="#7e10b8"/>
        <circle id="Elipse_4718-5" data-name="Elipse 4718" cx="2.5" cy="2.5" r="2.5" transform="translate(297 1823.532)" fill="#7e10b8"/>
        <circle id="Elipse_4722-5" data-name="Elipse 4722" cx="2.5" cy="2.5" r="2.5" transform="translate(308 1823.532)" fill="#7e10b8"/>
      </g>
      <g id="Grupo_874791" data-name="Grupo 874791" transform="translate(243.559 276)">
        <g id="Grupo_874789-4" data-name="Grupo 874789" transform="translate(-6473.46 9937.647) rotate(-90)">
          <path id="Trazado_596828-4" data-name="Trazado 596828" d="M-7577-4618.648V-4641.1" transform="translate(8760 11785)" fill="none" stroke="#60cb28" stroke-width="2"/>
        </g>
        <path id="Polígono_14-3" data-name="Polígono 14" d="M6,0l6,9H0Z" transform="translate(697.559 8748.647) rotate(90)" fill="#60cb28"/>
      </g>
      <g id="Grupo_874792" data-name="Grupo 874792" transform="translate(495.559 276)">
        <g id="Grupo_874789-5" data-name="Grupo 874789" transform="translate(-6473.46 9937.647) rotate(-90)">
          <path id="Trazado_596828-5" data-name="Trazado 596828" d="M-7577-4618.648V-4641.1" transform="translate(8760 11785)" fill="none" stroke="#60cb28" stroke-width="2"/>
        </g>
        <path id="Polígono_14-4" data-name="Polígono 14" d="M6,0l6,9H0Z" transform="translate(697.559 8748.647) rotate(90)" fill="#60cb28"/>
      </g>
      <g id="Grupo_874796" data-name="Grupo 874796" transform="translate(7.001 275)">
        <g id="Grupo_874795-2" data-name="Grupo 874795" transform="translate(-7433.648 9378.21) rotate(-90)">
          <g id="Grupo_874789-6" data-name="Grupo 874789" transform="translate(670.441 8754.647) rotate(-90)">
            <path id="Trazado_596828-6" data-name="Trazado 596828" d="M0,65.542V0" transform="translate(0)" fill="none" stroke="#60cb28" stroke-width="2"/>
          </g>
          <path id="Polígono_14-5" data-name="Polígono 14" d="M6,0l6,9H0Z" transform="translate(742.769 8748.647) rotate(90)" fill="#60cb28"/>
        </g>
      </g>
      <g id="Grupo_874801" data-name="Grupo 874801" transform="translate(1998.44 17960.215) rotate(180)">
        <g id="Grupo_874789-7" data-name="Grupo 874789" transform="translate(1053.674 8754.647) rotate(-90)">
          <path id="Trazado_596828-7" data-name="Trazado 596828" d="M0,659.469V0" fill="none" stroke="#60cb28" stroke-width="2"/>
        </g>
      </g>
      <g id="Grupo_874799" data-name="Grupo 874799" transform="translate(1859.999 17618.211) rotate(180)">
        <g id="Grupo_874795-3" data-name="Grupo 874795" transform="translate(-7433.648 9378.21) rotate(-90)">
          <g id="Grupo_874789-8" data-name="Grupo 874789" transform="translate(665.217 8754.647) rotate(-90)">
            <path id="Trazado_596828-8" data-name="Trazado 596828" d="M0,70.765V0" transform="translate(0)" fill="none" stroke="#60cb28" stroke-width="2"/>
          </g>
          <path id="Polígono_14-6" data-name="Polígono 14" d="M6,0l6,9H0Z" transform="translate(742.769 8748.647) rotate(90)" fill="#60cb28"/>
        </g>
      </g>
      <g id="Grupo_874797" data-name="Grupo 874797" transform="translate(-781.999 449.23)">
        <g id="Grupo_874795-4" data-name="Grupo 874795" transform="translate(-7433.648 9378.21) rotate(-90)">
          <g id="Grupo_874789-9" data-name="Grupo 874789" transform="translate(622.785 8754.647) rotate(-90)">
            <path id="Trazado_596828-9" data-name="Trazado 596828" d="M0,113.2V0" transform="translate(0)" fill="none" stroke="#60cb28" stroke-width="2"/>
          </g>
          <path id="Polígono_14-7" data-name="Polígono 14" d="M6,0l6,9H0Z" transform="translate(742.769 8748.647) rotate(90)" fill="#60cb28"/>
        </g>
      </g>
      <g id="Grupo_874800" data-name="Grupo 874800" transform="translate(2372.999 17792.441) rotate(180)">
        <g id="Grupo_874795-5" data-name="Grupo 874795" transform="translate(-7433.648 9378.21) rotate(-90)">
          <g id="Grupo_874789-10" data-name="Grupo 874789" transform="translate(689.219 8754.647) rotate(-90)">
            <path id="Trazado_596828-10" data-name="Trazado 596828" d="M0,46.764V0" transform="translate(0)" fill="none" stroke="#60cb28" stroke-width="2"/>
          </g>
          <path id="Polígono_14-8" data-name="Polígono 14" d="M6,0l6,9H0Z" transform="translate(742.769 8748.647) rotate(90)" fill="#60cb28"/>
        </g>
      </g>
      <g id="Grupo_874798" data-name="Grupo 874798" transform="translate(-1034.999 449.23)">
        <g id="Grupo_874795-6" data-name="Grupo 874795" transform="translate(-7433.648 9378.21) rotate(-90)">
          <g id="Grupo_874789-11" data-name="Grupo 874789" transform="translate(621.359 8754.647) rotate(-90)">
            <path id="Trazado_596828-11" data-name="Trazado 596828" d="M0,114.623V0" transform="translate(0)" fill="none" stroke="#60cb28" stroke-width="2"/>
          </g>
          <path id="Polígono_14-9" data-name="Polígono 14" d="M6,0l6,9H0Z" transform="translate(742.769 8748.647) rotate(90)" fill="#60cb28"/>
        </g>
      </g>
      <circle id="Elipse_5491" data-name="Elipse 5491" cx="23" cy="23" r="23" transform="translate(1157 8932)" fill="#e3f7f0"/>
      <circle id="Elipse_5492" data-name="Elipse 5492" cx="24" cy="24" r="24" transform="translate(985 9093)" fill="#e3f7f0"/>
      <path id="Trazado_604875" data-name="Trazado 604875" d="M20.367,12.829a1.278,1.278,0,0,0-.5-1.083,6.533,6.533,0,0,0-1.793-.8,12.71,12.71,0,0,1-2.05-.826,3.35,3.35,0,0,1-2.059-3,2.919,2.919,0,0,1,.552-1.747A3.6,3.6,0,0,1,16.1,4.18a5.967,5.967,0,0,1,2.32-.432,5.432,5.432,0,0,1,2.308.469,3.674,3.674,0,0,1,1.573,1.324,3.464,3.464,0,0,1,.56,1.942h-2.49a1.63,1.63,0,0,0-.523-1.291,2.15,2.15,0,0,0-1.469-.461,2.3,2.3,0,0,0-1.419.386,1.217,1.217,0,0,0-.506,1.017,1.166,1.166,0,0,0,.594.988A6.705,6.705,0,0,0,18.8,8.87a7.55,7.55,0,0,1,3.1,1.585,3.157,3.157,0,0,1,.971,2.357,2.909,2.909,0,0,1-1.187,2.461,5.2,5.2,0,0,1-3.2.892,6.171,6.171,0,0,1-2.54-.51,4.019,4.019,0,0,1-1.747-1.4,3.582,3.582,0,0,1-.6-2.059h2.5q0,2,2.391,2a2.326,2.326,0,0,0,1.386-.361A1.175,1.175,0,0,0,20.367,12.829ZM26.925,16H24.518V7.019h2.407ZM24.376,4.694a1.181,1.181,0,0,1,.361-.888,1.556,1.556,0,0,1,1.963,0,1.175,1.175,0,0,1,.365.888,1.178,1.178,0,0,1-.369.9,1.539,1.539,0,0,1-1.951,0A1.178,1.178,0,0,1,24.376,4.694Z" transform="translate(1159 8945)" fill="#12263f"/>
      <path id="Trazado_604874" data-name="Trazado 604874" d="M20.6,16h-2.49L13.262,8.048V16h-2.49V3.914h2.49l4.856,7.969V3.914H20.6Zm1.644-4.574a5.327,5.327,0,0,1,.515-2.382A3.768,3.768,0,0,1,24.24,7.425a4.323,4.323,0,0,1,2.245-.573,4.09,4.09,0,0,1,2.968,1.112,4.464,4.464,0,0,1,1.282,3.021l.017.614A4.694,4.694,0,0,1,29.6,14.917a4.011,4.011,0,0,1-3.1,1.249,4.031,4.031,0,0,1-3.1-1.245,4.777,4.777,0,0,1-1.158-3.387Zm2.4.17a3.357,3.357,0,0,0,.481,1.958,1.73,1.73,0,0,0,2.739.008,3.674,3.674,0,0,0,.49-2.141,3.324,3.324,0,0,0-.49-1.945,1.592,1.592,0,0,0-1.378-.69,1.566,1.566,0,0,0-1.361.686A3.735,3.735,0,0,0,24.642,11.6Z" transform="translate(989 9107)" fill="#12263f"/>
    </g>
  </g>
</svg>
