<svg xmlns="http://www.w3.org/2000/svg" width="451.826" height="319.416" viewBox="0 0 451.826 319.416">
  <g id="Grupo_1015201" data-name="Grupo 1015201" transform="translate(-810.674 -3910)">
    <rect id="BG" width="451.826" height="319.416" transform="translate(810.674 3910)" fill="#e8e8e8" opacity="0.949"/>
    <g id="Group_27_1_" data-name="Group 27 (1)" transform="translate(970 3973.703)">
      <path id="Trazado_601710" data-name="Trazado 601710" d="M186.477,180.063a75.382,75.382,0,0,1-11.567,9.582c-37.736,26.639-82.387,18.874-91.877,16.977-14.013-2.8-41.1-8.212-60.684-30.871C-7.279,141.471-2.666,87.463,20.316,51.811c4.2-6.522,26.409-42.716,71.541-48.52,27.313-3.512,59.152,3.572,82.21,22.577,48.4,39.895,44.953,120.488,12.411,154.195Z" transform="translate(-1.286 -1.959)" fill="#efeff4"/>
      <g id="Grupo_1013532" data-name="Grupo 1013532" transform="translate(88.074 123.795)" opacity="0.71">
        <path id="Trazado_601711" data-name="Trazado 601711" d="M459.245,729.657s5.628-17.12,28.307-29.258c21.043-11.262,72.051-36.6,87.506-54.543a.969.969,0,0,1,1.668.9,118.851,118.851,0,0,1-40.055,58.329c-34.545,27.248-77.426,24.571-77.426,24.571Z" transform="translate(-459.245 -645.51)" fill="#d7d9e0"/>
        <path id="Trazado_601712" data-name="Trazado 601712" d="M586.77,737.641a41.4,41.4,0,0,1-3.745,6.452c-.176.257-.346.518-.526.773l-.555.752-1.11,1.5-1.172,1.457c-.394.483-.771.981-1.195,1.438a88.266,88.266,0,0,1-10.707,10.433c-.933.831-1.949,1.557-2.936,2.321-1,.748-1.964,1.542-3.008,2.227l-3.082,2.124c-.506.366-1.048.676-1.578,1.006l-1.595.98-1.6.98-.8.487-.82.451-3.281,1.8c-.549.295-1.09.61-1.645.89l-1.665.842-3.329,1.682c-4.459,2.2-8.935,4.376-13.462,6.436-2.256,1.047-4.527,2.058-6.793,3.08l-6.828,2.992c-4.553,1.991-9.105,3.974-13.585,6.1-1.128.516-2.226,1.087-3.335,1.638-.558.27-1.1.575-1.641.869s-1.092.583-1.627.9c-1.055.642-2.136,1.249-3.144,1.964-1.048.662-2,1.448-2.982,2.2l-.007,0a.147.147,0,0,1-.206-.025.149.149,0,0,1,.019-.2,44.055,44.055,0,0,1,6.055-4.392c.532-.326,1.077-.625,1.616-.94s1.076-.631,1.63-.917c1.1-.581,2.193-1.183,3.311-1.73,4.451-2.234,8.993-4.259,13.513-6.321l6.78-3.089c2.256-1.036,4.518-2.059,6.763-3.119q6.75-3.144,13.415-6.46l3.321-1.681,1.66-.84c.555-.279,1.091-.584,1.636-.876l3.263-1.766.816-.441.795-.479,1.586-.962a109.536,109.536,0,0,0,12.186-8.441,87.492,87.492,0,0,0,10.847-10.108c.432-.445.813-.932,1.225-1.4l1.214-1.406,1.154-1.455.577-.728c.187-.247.366-.5.549-.749.361-.5.737-1,1.086-1.508l1.032-1.546a36.333,36.333,0,0,0,1.867-3.216.018.018,0,0,1,.024-.009.018.018,0,0,1,.009.024Z" transform="translate(-483.122 -719.951)" fill="#fff" opacity="0.45"/>
      </g>
      <g id="Grupo_1013533" data-name="Grupo 1013533" transform="translate(58.935 0.424)" opacity="0.65">
        <path id="Trazado_601713" data-name="Trazado 601713" d="M435.857,4.116c.652,23.065-1.037,157.443-127.42,178.508,0,0-21.662-88.752,124.437-180.113A1.953,1.953,0,0,1,435.857,4.116Z" transform="translate(-307.304 -2.212)" fill="#d7d9e0"/>
        <path id="Trazado_601714" data-name="Trazado 601714" d="M545.173,109.589c-2.689,6.866-5.519,13.671-8.407,20.452s-5.861,13.526-8.909,20.236-6.174,13.386-9.38,20.023-6.519,13.224-9.914,19.768c-6.811,13.075-14.007,25.963-21.9,38.435q-5.886,9.371-12.458,18.3a185.908,185.908,0,0,1-14.1,17.1.587.587,0,0,1-.854-.806h0l0,0a185,185,0,0,0,14.076-16.935q6.577-8.849,12.484-18.188c7.915-12.409,15.15-25.249,22-38.283q5.121-9.786,9.979-19.71T527.251,150q4.606-10.041,8.98-20.189c2.912-6.765,5.767-13.558,8.478-20.4v0a.249.249,0,0,1,.463.183Z" transform="translate(-429.986 -88.72)" fill="#fff" opacity="0.86"/>
      </g>
      <path id="Trazado_601715" data-name="Trazado 601715" d="M453.108,426.668a1.372,1.372,0,0,0-2.335-1.276c-9.308,10.169-34.552,36.07-57.716,44.881-37.717,14.345-75.695,49.391-71.447,79.624C321.61,549.9,413.853,577,453.108,426.668Z" transform="translate(-259.668 -343.448)" fill="#b9bcc5"/>
      <path id="Trazado_601716" data-name="Trazado 601716" d="M495.722,514.773c-.218.352-.439.647-.659.964l-.671.926L493.03,518.5q-1.372,1.828-2.771,3.635-2.8,3.612-5.685,7.159c-3.845,4.729-7.813,9.357-11.852,13.923s-8.189,9.033-12.432,13.411l-1.588,1.644-1.61,1.624c-1.078,1.078-2.136,2.175-3.232,3.234l-3.265,3.2-3.315,3.152a297.135,297.135,0,0,1-28.051,23.467c-.307.225-.612.456-.922.677l-.937.656L415.5,595.6l-1.874,1.311c-.63.43-1.271.843-1.907,1.265l-1.91,1.259c-.64.414-1.265.853-1.921,1.243l-3.9,2.4a161.7,161.7,0,0,1-16.21,8.468.147.147,0,0,1-.124-.267h0a173.265,173.265,0,0,0,16.017-8.72l3.859-2.431c.649-.4,1.268-.839,1.9-1.258l1.891-1.274c.629-.426,1.265-.844,1.888-1.278l1.856-1.326,1.856-1.326.927-.663c.307-.223.608-.456.912-.684l3.646-2.739c1.21-.92,2.394-1.874,3.592-2.81.6-.472,1.2-.935,1.789-1.414l1.762-1.449,1.762-1.448c.589-.48,1.174-.965,1.748-1.465,4.656-3.915,9.153-8.013,13.609-12.154,8.882-8.318,17.334-17.087,25.5-26.113q6.114-6.779,11.963-13.793,2.929-3.5,5.785-7.064,1.42-1.787,2.823-3.588l1.386-1.812.683-.914c.22-.305.456-.62.647-.91l.017-.028a.146.146,0,0,1,.246.157Z" transform="translate(-313.243 -415.869)" fill="#d7d9e0"/>
      <path id="Trazado_601717" data-name="Trazado 601717" d="M234.028,759.975h-70.6V691.657a10.23,10.23,0,0,1,10.23-10.23H223.8a10.23,10.23,0,0,1,10.23,10.23Z" transform="translate(-132.087 -550.744)" fill="#5c5e61"/>
      <path id="Trazado_601718" data-name="Trazado 601718" d="M68.2,862.685H0V818.739a10.23,10.23,0,0,1,10.229-10.23H57.97A10.23,10.23,0,0,1,68.2,818.739Z" transform="translate(0 -653.454)" fill="#a8abb2"/>
      <path id="Trazado_601719" data-name="Trazado 601719" d="M118.915.662,3.967,0c-1.386-.015-2.511,1.82-2.5,4.078l.255,54.478c.01,2.271,1.165,4.083,2.558,4.015L118.572,59.64c1.33-.065,2.392-1.826,2.409-3.994l.4-50.883c.017-2.246-1.09-4.085-2.466-4.1Z" transform="translate(-1.185 0)" fill="#979aa0"/>
      <path id="Trazado_601720" data-name="Trazado 601720" d="M13.082,73.808c-.213,0-.377-.241-.38-.549l-.254-54.477a.707.707,0,0,1,.095-.374.33.33,0,0,1,.284-.183l114.949.662a.329.329,0,0,1,.281.185.707.707,0,0,1,.094.373l-.4,50.883c0,.3-.159.536-.365.545h0Zm-.255-55.229c-.007,0-.022,0-.045.038a.307.307,0,0,0-.039.163L13,73.257c0,.121.054.2.081.2l114.3-2.933c.03,0,.078-.081.079-.2l.4-50.883a.322.322,0,0,0-.038-.163c-.023-.039-.038-.039-.044-.039Z" transform="translate(-10.061 -14.73)" fill="#fff"/>
      <g id="Grupo_1013534" data-name="Grupo 1013534" transform="translate(6.988 9.104)" opacity="0.6">
        <path id="Trazado_601721" data-name="Trazado 601721" d="M43.14,236.211h-6.7v9.118h6.7Z" transform="translate(-36.438 -200.015)" fill="#fff"/>
        <path id="Trazado_601722" data-name="Trazado 601722" d="M101.523,217h-6.7v12.8h6.7Z" transform="translate(-83.625 -184.485)" fill="#fff"/>
        <path id="Trazado_601723" data-name="Trazado 601723" d="M159.9,202.98h-6.7v15.491h6.7Z" transform="translate(-130.807 -173.157)" fill="#fff"/>
        <path id="Trazado_601724" data-name="Trazado 601724" d="M218.284,188.666h-6.7V206.9h6.7Z" transform="translate(-177.994 -161.588)" fill="#fff"/>
        <path id="Trazado_601725" data-name="Trazado 601725" d="M276.667,172.527h-6.7v21.331h6.7Z" transform="translate(-225.18 -148.544)" fill="#fff"/>
        <path id="Trazado_601726" data-name="Trazado 601726" d="M335.044,144.621h-6.7V171.3h6.7Z" transform="translate(-272.362 -125.99)" fill="#fff"/>
        <path id="Trazado_601727" data-name="Trazado 601727" d="M393.428,122.2h-6.7v30.983h6.7Z" transform="translate(-319.549 -107.873)" fill="#fff"/>
        <path id="Trazado_601728" data-name="Trazado 601728" d="M451.811,100.718h-6.7v35.1h6.7Z" transform="translate(-366.735 -90.507)" fill="#fff"/>
        <path id="Trazado_601729" data-name="Trazado 601729" d="M510.189,82.714h-6.7V121.27h6.7Z" transform="translate(-413.917 -75.956)" fill="#fff"/>
        <path id="Trazado_601730" data-name="Trazado 601730" d="M568.572,47.474h-6.7V92.789h6.7Z" transform="translate(-461.104 -47.474)" fill="#fff"/>
      </g>
      <path id="Trazado_601731" data-name="Trazado 601731" d="M152.935,39.968a1.84,1.84,0,0,0-.87,2.258,1.452,1.452,0,0,0,2,.908l4.578-2.157c-12.019,13.094-28.423,18.7-49.033,16.544-.662-.07-1.186-.123-1.574-.147a2.031,2.031,0,0,0-2.052.838,1.832,1.832,0,0,0,.4,2.427,1.49,1.49,0,0,0,.582.257,1.474,1.474,0,0,0,.692-.03c.3.012.936.078,1.554.141a70.267,70.267,0,0,0,22.457-.894,54.223,54.223,0,0,0,29.047-16.675l-.513,3.788a1.644,1.644,0,0,0,1.18,1.888c.032.007.065.012.1.017a1.628,1.628,0,0,0,1.738-1.494l1.81-13.344-12.084,5.677Z" transform="translate(-85.42 -27.716)" fill="#fff"/>
      <path id="Trazado_601732" data-name="Trazado 601732" d="M478.672,241.834a16.674,16.674,0,0,1,12.834-9.092l.384-24.283c-15.871.017-29.892,9.925-36.282,24.613Z" transform="translate(-368.233 -168.481)" fill="#5c5e61"/>
      <path id="Trazado_601733" data-name="Trazado 601733" d="M587.5,438.809c-1.3,7.972-7.831,14.238-15.839,14.51a15.552,15.552,0,0,1-6.742-1.277L552.41,473.568a37.424,37.424,0,0,0,19.255,3.9c19.955-1.28,35.624-17.973,37.363-38.065l-21.526-.6Z" transform="translate(-446.469 -354.654)" fill="#48494b"/>
      <path id="Trazado_601734" data-name="Trazado 601734" d="M455.15,407.883l12.632-21.591a17.315,17.315,0,0,1-6.2-13.435,18.188,18.188,0,0,1,.413-3.861l-23.154-8.655a43.568,43.568,0,0,0-1.916,12.823,41.285,41.285,0,0,0,18.232,34.721Z" transform="translate(-353.127 -291.234)" fill="#979aa0"/>
      <path id="Trazado_601735" data-name="Trazado 601735" d="M665.582,166.275a16.692,16.692,0,0,1,13.559,15.273l35.183,1.179v-.049c0-28.71-20.554-53.344-48.11-56.6l-.631,40.2Z" transform="translate(-537.937 -101.9)" fill="#fee132"/>
      <path id="Trazado_601736" data-name="Trazado 601736" d="M105.208,772.82a.882.882,0,0,0-.022-.216c-1.075-4.263-6.412-6.918-6.412-6.918l-1.366.107a1.108,1.108,0,0,0-.975.8,13.706,13.706,0,0,0-.622,6.428l.006.006A50.3,50.3,0,0,0,105.208,772.82Z" transform="translate(-77.316 -618.843)" fill="#333435"/>
      <path id="Trazado_601737" data-name="Trazado 601737" d="M96.461,803.1a.918.918,0,0,0,.671.678,29.048,29.048,0,0,0,8.082-.114.769.769,0,0,0,.638-.767A50.087,50.087,0,0,1,96.461,803.1Z" transform="translate(-77.962 -648.915)" fill="#333435"/>
      <path id="Trazado_601738" data-name="Trazado 601738" d="M102.192,746.048l-1.1,5.095a.835.835,0,0,0,.712.686,7.07,7.07,0,0,0,1.64-.026,1.047,1.047,0,0,0,.829-1.23l1.421-4.523h-3.5Z" transform="translate(-81.705 -602.971)" fill="#fff"/>
      <path id="Trazado_601739" data-name="Trazado 601739" d="M284.662,682.909a11.268,11.268,0,0,1-3.727-.533c0,.208,0,.42.007.638a.412.412,0,0,0,.393.42l11.469-.074a.523.523,0,0,0,.421-.763C291.721,682.721,287.89,683,284.662,682.909Z" transform="translate(-227.057 -551.51)" fill="#333435"/>
      <path id="Trazado_601740" data-name="Trazado 601740" d="M293.237,659.915l.006-.013a14.569,14.569,0,0,0-8.742-5.529l-1.9-.061a.822.822,0,0,0-.787.513,13.176,13.176,0,0,0-.862,4.867,11.273,11.273,0,0,0,3.727.533c3.23.09,7.061-.188,8.564-.312Z" transform="translate(-227.067 -528.828)" fill="#333435"/>
      <path id="Trazado_601741" data-name="Trazado 601741" d="M289.6,636.137c-.023.183-.448,2.941-.613,4.011a.533.533,0,0,0,.3.584,5.621,5.621,0,0,0,1.625.429.724.724,0,0,0,.724-.551l1.174-4.187-3.212-.285Z" transform="translate(-233.562 -514.139)" fill="#fff"/>
      <path id="Trazado_601742" data-name="Trazado 601742" d="M115.162,487.815a27.291,27.291,0,0,0-3.652,10.041c-.84,5.46-8,36.109-9.134,40.976a.679.679,0,0,0,.518.817,11.613,11.613,0,0,0,2.751.33,1.28,1.28,0,0,0,1.121-.773l17.068-39.526s11.351-2.187,15.519,2.738c2.5,2.956.855,8.159-1.37,15.519,0,0,2.738,1.37,4.564.456,0,0,8.51-13.3,5.02-21.451-1.614-3.774-8.586-7.493-15.518-8.216l-16.887-.913Z" transform="translate(-82.728 -394.261)" fill="#5c5e61"/>
      <path id="Trazado_601743" data-name="Trazado 601743" d="M169.123,333.94l4.108-36.514s17.8,0,29.211,6.39l-14.771,30.807a4.745,4.745,0,0,1-4.293,2.7A33.775,33.775,0,0,1,169.123,333.94Z" transform="translate(-136.689 -240.386)" fill="#fee132"/>
      <path id="Trazado_601744" data-name="Trazado 601744" d="M335.07,279.577s-1.141,11.639-14.834,9.813c0,0-5.256,5.8-5.367,10.886,0,0,24.992,6.458,22.71-19.558l-2.511-1.141Z" transform="translate(-254.484 -225.96)" fill="#fee132"/>
      <path id="Trazado_601745" data-name="Trazado 601745" d="M158.926,454.678s1.826-3.194,4.564-2.738a6.3,6.3,0,0,1,4.108,3.194l-4.564,2.282C161.208,458.329,158.013,457.417,158.926,454.678Z" transform="translate(-128.317 -365.231)" fill="#fff"/>
      <path id="Trazado_601746" data-name="Trazado 601746" d="M104.456,308.837s-23.277,10.5-5.477,21l.385,2.276S85.21,334.163,84.6,317.736c-.456-12.323,20.31-20.31,20.31-20.31Z" transform="translate(-68.371 -240.386)" fill="#fee132"/>
      <path id="Trazado_601747" data-name="Trazado 601747" d="M252.059,263.189l-3.353,7.172s3.734,2.736,7.532,1.667l.98-10.183-5.158,1.343Z" transform="translate(-201.009 -211.629)" fill="#fff"/>
      <path id="Trazado_601748" data-name="Trazado 601748" d="M281.055,225.284c.069.129,1.481,9.713,1.481,9.713l-5.489.689L274.36,226.8s5.541-3.682,6.7-1.517Z" transform="translate(-221.743 -181.528)" fill="#fff"/>
      <path id="Trazado_601749" data-name="Trazado 601749" d="M263.816,212.508a.8.8,0,0,0-.166.68l1.034,4.719a.778.778,0,0,0,.075.2c.192.356.9,1.437,1.986.654a7,7,0,0,1,2.538-1.385.8.8,0,0,1,.9.677,29.624,29.624,0,0,1,.325,4.366.791.791,0,0,1-.745.773,22.08,22.08,0,0,1-4.967-.2.8.8,0,0,1-.611-.543c-.389-1.231-1.492-4.677-1.953-5.6-.429-.86-1.7-1.018-2.288-1.045a.8.8,0,0,1-.575-.281,1.752,1.752,0,0,1,.225-2.736.8.8,0,0,0,.112-1.1,1.758,1.758,0,0,1,.158-2.579,2.48,2.48,0,0,1,2.964-.389.825.825,0,0,0,.974-.18.526.526,0,0,1,.492-.175.771.771,0,0,0,.88-.66A2.036,2.036,0,0,1,267,205.852c2.415-.434,3.584,1.992,3.519,3.686s-2.71,2.016-4.2,1.715a2.874,2.874,0,0,0-2.5,1.255Z" transform="translate(-209.178 -166.333)" fill="#333435"/>
      <path id="Trazado_601750" data-name="Trazado 601750" d="M265.843,258.531s-.014-2.956-1.206-3.249-2.494.554-1.494,2.337c1.244,2.217,2.7.911,2.7.911Z" transform="translate(-212.39 -206.278)" fill="#fff"/>
      <path id="Trazado_601751" data-name="Trazado 601751" d="M322.626,216.492l37.884-5.934-.456,11.868-37.427-3.2Z" transform="translate(-260.753 -170.177)" fill="#48494b"/>
      <path id="Trazado_601752" data-name="Trazado 601752" d="M513.015,205.338c-.2,2.349,0,9.745.106,12.182a.823.823,0,0,0,.824.787h.641a1.026,1.026,0,0,0,1.012-.86,54.748,54.748,0,0,0,.825-12.122.768.768,0,0,0-.771-.711h-1.848a.793.793,0,0,0-.792.724Z" transform="translate(-414.56 -165.373)" fill="#333435"/>
      <path id="Trazado_601753" data-name="Trazado 601753" d="M319.608,237.928h-1.119a.379.379,0,0,0-.369.3,11.79,11.79,0,0,0,.033,3.483.376.376,0,0,0,.372.326h.71a.375.375,0,0,0,.373-.334l.373-3.358a.375.375,0,0,0-.373-.416Z" transform="translate(-257.012 -192.298)" fill="#333435"/>
      <path id="Trazado_601754" data-name="Trazado 601754" d="M420.2,254.569s.207-2.643.56-2.919,3.092-3.015,3.548-3.015.912.912,0,1.37a2.788,2.788,0,0,0-1.14,1.851l2.476.211s-1.794,3.415-2.706,3.871S420.2,254.569,420.2,254.569Z" transform="translate(-339.616 -200.952)" fill="#fff"/>
    </g>
  </g>
</svg>
