<svg xmlns="http://www.w3.org/2000/svg" width="820" height="460.061" viewBox="0 0 820 460.061">
  <g id="Grupo_876047" data-name="Grupo 876047" transform="translate(-390 -8194.143)">
    <g id="Grupo_875823" data-name="Grupo 875823" transform="translate(390 8194.143)">
      <g id="Grupo_875469" data-name="Grupo 875469" transform="translate(0 0)">
        <g id="Grupo_875440" data-name="Grupo 875440" transform="translate(820 422.327) rotate(180)">
          <path id="Trazado_596408" data-name="Trazado 596408" d="M0,0H820V422.327H0Z" fill="#f6f6f6"/>
          <path id="Trazado_599230" data-name="Trazado 599230" d="M0,0Z" transform="translate(820 0.306) rotate(180)" fill="#f6f6f6"/>
        </g>
        <rect id="Rectángulo_292089" data-name="Rectángulo 292089" width="553" height="354" transform="translate(715 380.061) rotate(180)" fill="#f6f6f6"/>
      </g>
    </g>
    <g id="Grupo_875822" data-name="Grupo 875822" transform="translate(390 8220.203)">
      <path id="Trazado_605251" data-name="Trazado 605251" d="M9.106,16H.822V14.356l3.91-4.167A9.645,9.645,0,0,0,5.923,8.654a2.467,2.467,0,0,0,.386-1.245A1.846,1.846,0,0,0,5.9,6.143,1.468,1.468,0,0,0,4.74,5.682a1.584,1.584,0,0,0-1.282.56,2.219,2.219,0,0,0-.469,1.473H.581A3.962,3.962,0,0,1,1.108,5.7,3.715,3.715,0,0,1,2.6,4.267a4.529,4.529,0,0,1,2.183-.519,4.288,4.288,0,0,1,2.9.9A3.172,3.172,0,0,1,8.716,7.176,4.064,4.064,0,0,1,8.251,9a10.148,10.148,0,0,1-1.594,2.167l-2.748,2.9h5.2Zm9.6-5a6.123,6.123,0,0,1-1.038,3.835,3.622,3.622,0,0,1-3.038,1.328,3.647,3.647,0,0,1-3.021-1.3,5.943,5.943,0,0,1-1.071-3.735V8.9a6.042,6.042,0,0,1,1.05-3.843,3.649,3.649,0,0,1,3.026-1.312,3.652,3.652,0,0,1,3.021,1.3A5.925,5.925,0,0,1,18.71,8.778Zm-2.4-2.446A4.426,4.426,0,0,0,15.9,6.368a1.389,1.389,0,0,0-1.282-.685,1.364,1.364,0,0,0-1.249.652,4.142,4.142,0,0,0-.427,2.04v2.941a4.646,4.646,0,0,0,.4,2.2,1.37,1.37,0,0,0,1.291.719,1.347,1.347,0,0,0,1.27-.69,4.535,4.535,0,0,0,.407-2.11ZM20.3,6.238a2.389,2.389,0,0,1,.722-1.805A2.619,2.619,0,0,1,22.91,3.74a2.66,2.66,0,0,1,1.909.685,2.435,2.435,0,0,1,.722,1.855v.6a2.359,2.359,0,0,1-.722,1.8,2.647,2.647,0,0,1-1.893.681,2.664,2.664,0,0,1-1.905-.685A2.417,2.417,0,0,1,20.3,6.828Zm1.594.639a1.118,1.118,0,0,0,.286.8.986.986,0,0,0,.751.3.94.94,0,0,0,.739-.307,1.189,1.189,0,0,0,.274-.822V6.238a1.164,1.164,0,0,0-.274-.805,1.067,1.067,0,0,0-1.494,0,1.188,1.188,0,0,0-.282.843Zm4.184,6.159a2.359,2.359,0,0,1,.73-1.805,2.656,2.656,0,0,1,1.893-.685,2.683,2.683,0,0,1,1.905.677,2.422,2.422,0,0,1,.726,1.864v.6a2.377,2.377,0,0,1-.714,1.8,2.631,2.631,0,0,1-1.9.685,2.662,2.662,0,0,1-1.917-.689,2.407,2.407,0,0,1-.722-1.826Zm1.594.647a1.11,1.11,0,0,0,.3.78.974.974,0,0,0,.747.324q1.013,0,1.013-1.121v-.631a1.128,1.128,0,0,0-.282-.8,1.073,1.073,0,0,0-1.494,0,1.164,1.164,0,0,0-.282.826ZM23.4,15.1l-1.17-.631,5.9-9.446,1.17.631Z" transform="translate(105 1)" fill="#304c8e"/>
      <path id="Trazado_605252" data-name="Trazado 605252" d="M6.649,16H4.25V6.753l-2.864.888V5.69L6.392,3.9h.257Zm4.283-5.943.7-6.143H18.4v2H13.6l-.3,2.6a3.8,3.8,0,0,1,1.818-.457,3.484,3.484,0,0,1,2.706,1.071,4.277,4.277,0,0,1,.979,3,4.382,4.382,0,0,1-.494,2.1,3.486,3.486,0,0,1-1.415,1.436,4.418,4.418,0,0,1-2.175.51,4.692,4.692,0,0,1-2.034-.444A3.607,3.607,0,0,1,11.2,14.473a3.4,3.4,0,0,1-.577-1.834H13a1.773,1.773,0,0,0,.527,1.175,1.671,1.671,0,0,0,1.183.419,1.475,1.475,0,0,0,1.253-.585,2.711,2.711,0,0,0,.44-1.656,2.242,2.242,0,0,0-.506-1.577,1.858,1.858,0,0,0-1.436-.548,2.077,2.077,0,0,0-1.386.448l-.232.216ZM20.3,6.238a2.389,2.389,0,0,1,.722-1.805A2.619,2.619,0,0,1,22.91,3.74a2.66,2.66,0,0,1,1.909.685,2.435,2.435,0,0,1,.722,1.855v.6a2.359,2.359,0,0,1-.722,1.8,2.647,2.647,0,0,1-1.893.681,2.664,2.664,0,0,1-1.905-.685A2.417,2.417,0,0,1,20.3,6.828Zm1.594.639a1.118,1.118,0,0,0,.286.8.986.986,0,0,0,.751.3.94.94,0,0,0,.739-.307,1.189,1.189,0,0,0,.274-.822V6.238a1.164,1.164,0,0,0-.274-.805,1.067,1.067,0,0,0-1.494,0,1.188,1.188,0,0,0-.282.843Zm4.184,6.159a2.359,2.359,0,0,1,.73-1.805,2.656,2.656,0,0,1,1.893-.685,2.683,2.683,0,0,1,1.905.677,2.422,2.422,0,0,1,.726,1.864v.6a2.377,2.377,0,0,1-.714,1.8,2.631,2.631,0,0,1-1.9.685,2.662,2.662,0,0,1-1.917-.689,2.407,2.407,0,0,1-.722-1.826Zm1.594.647a1.11,1.11,0,0,0,.3.78.974.974,0,0,0,.747.324q1.013,0,1.013-1.121v-.631a1.128,1.128,0,0,0-.282-.8,1.073,1.073,0,0,0-1.494,0,1.164,1.164,0,0,0-.282.826ZM23.4,15.1l-1.17-.631,5.9-9.446,1.17.631Z" transform="translate(105 80)" fill="#304c8e"/>
      <path id="Trazado_605253" data-name="Trazado 605253" d="M6.649,16H4.25V6.753l-2.864.888V5.69L6.392,3.9h.257ZM18.71,11a6.123,6.123,0,0,1-1.038,3.835,3.622,3.622,0,0,1-3.038,1.328,3.647,3.647,0,0,1-3.021-1.3,5.943,5.943,0,0,1-1.071-3.735V8.9a6.042,6.042,0,0,1,1.05-3.843,3.649,3.649,0,0,1,3.026-1.312,3.652,3.652,0,0,1,3.021,1.3A5.925,5.925,0,0,1,18.71,8.778Zm-2.4-2.446A4.426,4.426,0,0,0,15.9,6.368a1.389,1.389,0,0,0-1.282-.685,1.364,1.364,0,0,0-1.249.652,4.142,4.142,0,0,0-.427,2.04v2.941a4.646,4.646,0,0,0,.4,2.2,1.37,1.37,0,0,0,1.291.719,1.347,1.347,0,0,0,1.27-.69,4.535,4.535,0,0,0,.407-2.11ZM20.3,6.238a2.389,2.389,0,0,1,.722-1.805A2.619,2.619,0,0,1,22.91,3.74a2.66,2.66,0,0,1,1.909.685,2.435,2.435,0,0,1,.722,1.855v.6a2.359,2.359,0,0,1-.722,1.8,2.647,2.647,0,0,1-1.893.681,2.664,2.664,0,0,1-1.905-.685A2.417,2.417,0,0,1,20.3,6.828Zm1.594.639a1.118,1.118,0,0,0,.286.8.986.986,0,0,0,.751.3.94.94,0,0,0,.739-.307,1.189,1.189,0,0,0,.274-.822V6.238a1.164,1.164,0,0,0-.274-.805,1.067,1.067,0,0,0-1.494,0,1.188,1.188,0,0,0-.282.843Zm4.184,6.159a2.359,2.359,0,0,1,.73-1.805,2.656,2.656,0,0,1,1.893-.685,2.683,2.683,0,0,1,1.905.677,2.422,2.422,0,0,1,.726,1.864v.6a2.377,2.377,0,0,1-.714,1.8,2.631,2.631,0,0,1-1.9.685,2.662,2.662,0,0,1-1.917-.689,2.407,2.407,0,0,1-.722-1.826Zm1.594.647a1.11,1.11,0,0,0,.3.78.974.974,0,0,0,.747.324q1.013,0,1.013-1.121v-.631a1.128,1.128,0,0,0-.282-.8,1.073,1.073,0,0,0-1.494,0,1.164,1.164,0,0,0-.282.826ZM23.4,15.1l-1.17-.631,5.9-9.446,1.17.631Z" transform="translate(105 167)" fill="#304c8e"/>
      <path id="Trazado_605254" data-name="Trazado 605254" d="M1.179,10.057l.7-6.143H8.649v2H3.843l-.3,2.6a3.8,3.8,0,0,1,1.818-.457A3.484,3.484,0,0,1,8.068,9.127a4.277,4.277,0,0,1,.979,3,4.382,4.382,0,0,1-.494,2.1,3.486,3.486,0,0,1-1.415,1.436,4.418,4.418,0,0,1-2.175.51,4.692,4.692,0,0,1-2.034-.444,3.607,3.607,0,0,1-1.482-1.249,3.4,3.4,0,0,1-.577-1.834H3.246a1.773,1.773,0,0,0,.527,1.175,1.671,1.671,0,0,0,1.183.419,1.475,1.475,0,0,0,1.253-.585,2.711,2.711,0,0,0,.44-1.656,2.242,2.242,0,0,0-.506-1.577,1.858,1.858,0,0,0-1.436-.548,2.077,2.077,0,0,0-1.386.448l-.232.216Zm9.363-3.818a2.389,2.389,0,0,1,.722-1.805,2.619,2.619,0,0,1,1.893-.693,2.66,2.66,0,0,1,1.909.685,2.435,2.435,0,0,1,.722,1.855v.6a2.359,2.359,0,0,1-.722,1.8,2.647,2.647,0,0,1-1.893.681,2.664,2.664,0,0,1-1.905-.685,2.417,2.417,0,0,1-.726-1.847Zm1.594.639a1.118,1.118,0,0,0,.286.8.986.986,0,0,0,.751.3.94.94,0,0,0,.739-.307,1.189,1.189,0,0,0,.274-.822V6.238a1.164,1.164,0,0,0-.274-.805,1.067,1.067,0,0,0-1.494,0,1.188,1.188,0,0,0-.282.843Zm4.184,6.159a2.359,2.359,0,0,1,.73-1.805,2.656,2.656,0,0,1,1.893-.685,2.683,2.683,0,0,1,1.905.677,2.422,2.422,0,0,1,.726,1.864v.6a2.377,2.377,0,0,1-.714,1.8,2.631,2.631,0,0,1-1.9.685,2.662,2.662,0,0,1-1.917-.689,2.407,2.407,0,0,1-.722-1.826Zm1.594.647a1.11,1.11,0,0,0,.3.78.974.974,0,0,0,.747.324q1.013,0,1.013-1.121v-.631a1.128,1.128,0,0,0-.282-.8,1.073,1.073,0,0,0-1.494,0,1.164,1.164,0,0,0-.282.826ZM13.646,15.1l-1.17-.631,5.9-9.446,1.17.631Z" transform="translate(105 268)" fill="#304c8e"/>
      <path id="Trazado_605255" data-name="Trazado 605255" d="M8.957,11a6.123,6.123,0,0,1-1.038,3.835,3.622,3.622,0,0,1-3.038,1.328,3.647,3.647,0,0,1-3.021-1.3A5.943,5.943,0,0,1,.789,11.127V8.9A6.042,6.042,0,0,1,1.839,5.06,3.649,3.649,0,0,1,4.864,3.748a3.652,3.652,0,0,1,3.021,1.3A5.925,5.925,0,0,1,8.957,8.778Zm-2.4-2.446a4.426,4.426,0,0,0-.411-2.189,1.389,1.389,0,0,0-1.282-.685,1.364,1.364,0,0,0-1.249.652,4.142,4.142,0,0,0-.427,2.04v2.941a4.646,4.646,0,0,0,.4,2.2,1.37,1.37,0,0,0,1.291.719,1.347,1.347,0,0,0,1.27-.69,4.535,4.535,0,0,0,.407-2.11Zm3.984-2.319a2.389,2.389,0,0,1,.722-1.805,2.619,2.619,0,0,1,1.893-.693,2.66,2.66,0,0,1,1.909.685,2.435,2.435,0,0,1,.722,1.855v.6a2.359,2.359,0,0,1-.722,1.8,2.647,2.647,0,0,1-1.893.681,2.664,2.664,0,0,1-1.905-.685,2.417,2.417,0,0,1-.726-1.847Zm1.594.639a1.118,1.118,0,0,0,.286.8.986.986,0,0,0,.751.3.94.94,0,0,0,.739-.307,1.189,1.189,0,0,0,.274-.822V6.238a1.164,1.164,0,0,0-.274-.805,1.067,1.067,0,0,0-1.494,0,1.188,1.188,0,0,0-.282.843Zm4.184,6.159a2.359,2.359,0,0,1,.73-1.805,2.656,2.656,0,0,1,1.893-.685,2.683,2.683,0,0,1,1.905.677,2.422,2.422,0,0,1,.726,1.864v.6a2.377,2.377,0,0,1-.714,1.8,2.631,2.631,0,0,1-1.9.685,2.662,2.662,0,0,1-1.917-.689,2.407,2.407,0,0,1-.722-1.826Zm1.594.647a1.11,1.11,0,0,0,.3.78.974.974,0,0,0,.747.324q1.013,0,1.013-1.121v-.631a1.128,1.128,0,0,0-.282-.8,1.073,1.073,0,0,0-1.494,0,1.164,1.164,0,0,0-.282.826ZM13.646,15.1l-1.17-.631,5.9-9.446,1.17.631Z" transform="translate(105 333)" fill="#304c8e"/>
      <path id="Trazado_605256" data-name="Trazado 605256" d="M1.179,10.057l.7-6.143H8.649v2H3.843l-.3,2.6a3.8,3.8,0,0,1,1.818-.457A3.484,3.484,0,0,1,8.068,9.127a4.277,4.277,0,0,1,.979,3,4.382,4.382,0,0,1-.494,2.1,3.486,3.486,0,0,1-1.415,1.436,4.418,4.418,0,0,1-2.175.51,4.692,4.692,0,0,1-2.034-.444,3.607,3.607,0,0,1-1.482-1.249,3.4,3.4,0,0,1-.577-1.834H3.246a1.773,1.773,0,0,0,.527,1.175,1.671,1.671,0,0,0,1.183.419,1.475,1.475,0,0,0,1.253-.585,2.711,2.711,0,0,0,.44-1.656,2.242,2.242,0,0,0-.506-1.577,1.858,1.858,0,0,0-1.436-.548,2.077,2.077,0,0,0-1.386.448l-.232.216ZM14.095,9.7l1.511-2.681H18.17l-2.557,4.4L18.278,16H15.705l-1.6-2.822L12.509,16H9.928l2.665-4.582-2.548-4.4h2.573Z" transform="translate(288 361)" fill="#636363"/>
      <path id="Trazado_605257" data-name="Trazado 605257" d="M6.649,16H4.25V6.753l-2.864.888V5.69L6.392,3.9h.257Zm7.446-6.3,1.511-2.681H18.17l-2.557,4.4L18.278,16H15.705l-1.6-2.822L12.509,16H9.928l2.665-4.582-2.548-4.4h2.573Z" transform="translate(426 361)" fill="#636363"/>
      <path id="Trazado_605258" data-name="Trazado 605258" d="M8.957,11a6.123,6.123,0,0,1-1.038,3.835,3.622,3.622,0,0,1-3.038,1.328,3.647,3.647,0,0,1-3.021-1.3A5.943,5.943,0,0,1,.789,11.127V8.9A6.042,6.042,0,0,1,1.839,5.06,3.649,3.649,0,0,1,4.864,3.748a3.652,3.652,0,0,1,3.021,1.3A5.925,5.925,0,0,1,8.957,8.778Zm-2.4-2.446a4.426,4.426,0,0,0-.411-2.189,1.389,1.389,0,0,0-1.282-.685,1.364,1.364,0,0,0-1.249.652,4.142,4.142,0,0,0-.427,2.04v2.941a4.646,4.646,0,0,0,.4,2.2,1.37,1.37,0,0,0,1.291.719,1.347,1.347,0,0,0,1.27-.69,4.535,4.535,0,0,0,.407-2.11ZM10.8,14.821a1.208,1.208,0,0,1,.386-.93,1.5,1.5,0,0,1,1.942,0,1.208,1.208,0,0,1,.386.93,1.191,1.191,0,0,1-.382.917,1.525,1.525,0,0,1-1.951,0A1.191,1.191,0,0,1,10.8,14.821Zm5.072-4.765.7-6.143h6.773v2H18.536l-.3,2.6a3.8,3.8,0,0,1,1.818-.457,3.484,3.484,0,0,1,2.706,1.071,4.277,4.277,0,0,1,.979,3,4.382,4.382,0,0,1-.494,2.1,3.486,3.486,0,0,1-1.415,1.436,4.418,4.418,0,0,1-2.175.51,4.692,4.692,0,0,1-2.034-.444,3.607,3.607,0,0,1-1.482-1.249,3.4,3.4,0,0,1-.577-1.834h2.374a1.773,1.773,0,0,0,.527,1.175,1.671,1.671,0,0,0,1.183.419,1.475,1.475,0,0,0,1.253-.585,2.711,2.711,0,0,0,.44-1.656,2.242,2.242,0,0,0-.506-1.577A1.858,1.858,0,0,0,19.4,9.866a2.077,2.077,0,0,0-1.386.448l-.232.216ZM28.787,9.7,30.3,7.019h2.565l-2.557,4.4L32.971,16H30.4l-1.6-2.822L27.2,16H24.62l2.665-4.582-2.548-4.4H27.31Z" transform="translate(554 361)" fill="#636363"/>
      <path id="Trazado_605259" data-name="Trazado 605259" d="M8.957,11a6.123,6.123,0,0,1-1.038,3.835,3.622,3.622,0,0,1-3.038,1.328,3.647,3.647,0,0,1-3.021-1.3A5.943,5.943,0,0,1,.789,11.127V8.9A6.042,6.042,0,0,1,1.839,5.06,3.649,3.649,0,0,1,4.864,3.748a3.652,3.652,0,0,1,3.021,1.3A5.925,5.925,0,0,1,8.957,8.778Zm-2.4-2.446a4.426,4.426,0,0,0-.411-2.189,1.389,1.389,0,0,0-1.282-.685,1.364,1.364,0,0,0-1.249.652,4.142,4.142,0,0,0-.427,2.04v2.941a4.646,4.646,0,0,0,.4,2.2,1.37,1.37,0,0,0,1.291.719,1.347,1.347,0,0,0,1.27-.69,4.535,4.535,0,0,0,.407-2.11Z" transform="translate(700 361)" fill="#636363"/>
      <path id="Trazado_213249" data-name="Trazado 213249" d="M-6184-3242h-550.828" transform="translate(6899 3418)" fill="none" stroke="#4162b0" stroke-width="2"/>
      <path id="Trazado_213250" data-name="Trazado 213250" d="M352,0H0" transform="translate(439.586 0) rotate(90)" fill="none" stroke="#4162b0" stroke-width="2"/>
      <path id="Trazado_213251" data-name="Trazado 213251" d="M-6637.932-3340.707h352.663V-3065.6" transform="translate(6800.932 3418)" fill="none" stroke="#304c8e" stroke-width="3" stroke-dasharray="4"/>
      <path id="Trazado_213252" data-name="Trazado 213252" d="M-6637.934-3340.707h138v192.854" transform="translate(6800.933 3500)" fill="none" stroke="#304c8e" stroke-width="3" stroke-dasharray="4"/>
      <path id="Trazado_213253" data-name="Trazado 213253" d="M-6637.934-3340.707h71.409v87.87" transform="translate(6800.933 3604)" fill="none" stroke="#304c8e" stroke-width="3" stroke-dasharray="4"/>
      <path id="Trazado_605260" data-name="Trazado 605260" d="M0,0H93V21H0Z" transform="translate(346.586 0)" fill="#60cb28"/>
      <path id="Trazado_605261" data-name="Trazado 605261" d="M0,0H124V21H0Z" transform="translate(591 -0.203)" fill="#60cb28"/>
      <path id="Trazado_605262" data-name="Trazado 605262" d="M0,0H93V21H0Z" transform="translate(346.586 176)" fill="#60cb28"/>
      <path id="Trazado_605263" data-name="Trazado 605263" d="M0,0H124V21H0Z" transform="translate(591 176)" fill="#60cb28"/>
      <path id="Trazado_605264" data-name="Trazado 605264" d="M10.25,15H8.282V3.625H10.25Zm4.008-8.453.055.977a3.039,3.039,0,0,1,2.461-1.133q2.641,0,2.688,3.023V15h-1.9V9.523a1.741,1.741,0,0,0-.348-1.191,1.462,1.462,0,0,0-1.137-.387,1.829,1.829,0,0,0-1.711,1.039V15h-1.9V6.547Zm9.516-2.055V6.547h1.492V7.953H23.774v4.719a1.039,1.039,0,0,0,.191.7.888.888,0,0,0,.684.215,2.925,2.925,0,0,0,.664-.078v1.469a4.676,4.676,0,0,1-1.25.18q-2.188,0-2.187-2.414V7.953H20.485V6.547h1.391V4.492Zm6.664,10.664a3.928,3.928,0,0,1-2.926-1.137,4.124,4.124,0,0,1-1.121-3.027v-.234A5.072,5.072,0,0,1,26.879,8.5,3.716,3.716,0,0,1,28.25,6.945a3.625,3.625,0,0,1,1.969-.555,3.318,3.318,0,0,1,2.668,1.1,4.658,4.658,0,0,1,.941,3.117v.766H28.305a2.539,2.539,0,0,0,.7,1.656,2.1,2.1,0,0,0,1.543.609,2.571,2.571,0,0,0,2.125-1.055l1.023.977a3.418,3.418,0,0,1-1.355,1.176A4.244,4.244,0,0,1,30.438,15.156Zm-.227-7.242a1.6,1.6,0,0,0-1.262.547,2.835,2.835,0,0,0-.613,1.523h3.617V9.844A2.307,2.307,0,0,0,31.446,8.4,1.586,1.586,0,0,0,30.211,7.914Zm9.516.367a4.7,4.7,0,0,0-.773-.062,1.741,1.741,0,0,0-1.758,1V15H35.3V6.547H37.11l.047.945a2.139,2.139,0,0,1,1.906-1.1,1.777,1.777,0,0,1,.672.109Zm5.625,0a4.7,4.7,0,0,0-.773-.062,1.741,1.741,0,0,0-1.758,1V15h-1.9V6.547h1.813l.047.945a2.139,2.139,0,0,1,1.906-1.1,1.777,1.777,0,0,1,.672.109Zm.563,2.414a4.984,4.984,0,0,1,.492-2.238,3.6,3.6,0,0,1,1.383-1.531,3.9,3.9,0,0,1,2.047-.535,3.692,3.692,0,0,1,2.777,1.1,4.333,4.333,0,0,1,1.152,2.922l.008.445a5.029,5.029,0,0,1-.48,2.234,3.551,3.551,0,0,1-1.375,1.523,3.925,3.925,0,0,1-2.066.539,3.667,3.667,0,0,1-2.863-1.191,4.563,4.563,0,0,1-1.074-3.176Zm1.9.164a3.406,3.406,0,0,0,.539,2.043,1.752,1.752,0,0,0,1.5.738,1.733,1.733,0,0,0,1.5-.75,3.762,3.762,0,0,0,.535-2.2,3.362,3.362,0,0,0-.551-2.031,1.856,1.856,0,0,0-2.973-.012A3.691,3.691,0,0,0,47.813,10.859Zm7.234-.148a4.944,4.944,0,0,1,.926-3.145A2.971,2.971,0,0,1,58.43,6.391,2.784,2.784,0,0,1,60.7,7.4l.086-.852H62.5v8.2a3.406,3.406,0,0,1-1.035,2.625,3.943,3.943,0,0,1-2.793.961,4.5,4.5,0,0,1-1.816-.387,3.228,3.228,0,0,1-1.348-1.012l.9-1.141a2.713,2.713,0,0,0,2.156,1.039,2.1,2.1,0,0,0,1.492-.512,1.961,1.961,0,0,0,.547-1.5v-.57a2.8,2.8,0,0,1-2.187.914,2.964,2.964,0,0,1-2.426-1.18A5.1,5.1,0,0,1,55.047,10.711Zm1.891.164a3.4,3.4,0,0,0,.52,2,1.671,1.671,0,0,0,1.441.73,1.827,1.827,0,0,0,1.7-.984V8.906a1.8,1.8,0,0,0-1.687-.961,1.677,1.677,0,0,0-1.457.742A3.811,3.811,0,0,0,56.938,10.875ZM69.5,15a2.93,2.93,0,0,1-.219-.789,3.193,3.193,0,0,1-4.3.219,2.325,2.325,0,0,1-.8-1.8,2.4,2.4,0,0,1,1-2.074,4.865,4.865,0,0,1,2.871-.723h1.164V9.281a1.481,1.481,0,0,0-.367-1.051,1.456,1.456,0,0,0-1.117-.395,1.672,1.672,0,0,0-1.062.324,1,1,0,0,0-.414.824h-1.9a2.107,2.107,0,0,1,.461-1.3,3.071,3.071,0,0,1,1.254-.949,4.4,4.4,0,0,1,1.77-.344,3.547,3.547,0,0,1,2.367.746,2.661,2.661,0,0,1,.906,2.1v3.813a4.321,4.321,0,0,0,.32,1.82V15Zm-2.086-1.367a2.159,2.159,0,0,0,1.059-.273,1.827,1.827,0,0,0,.746-.734V11.031H68.2a2.8,2.8,0,0,0-1.586.367,1.189,1.189,0,0,0-.531,1.039,1.109,1.109,0,0,0,.363.871A1.407,1.407,0,0,0,67.414,13.633Zm7.453-7.086.055.977a3.039,3.039,0,0,1,2.461-1.133q2.641,0,2.688,3.023V15h-1.9V9.523a1.741,1.741,0,0,0-.348-1.191,1.462,1.462,0,0,0-1.137-.387,1.829,1.829,0,0,0-1.711,1.039V15h-1.9V6.547Zm9.516-2.055V6.547h1.492V7.953H84.383v4.719a1.039,1.039,0,0,0,.191.7.888.888,0,0,0,.684.215,2.925,2.925,0,0,0,.664-.078v1.469a4.676,4.676,0,0,1-1.25.18q-2.188,0-2.187-2.414V7.953H81.094V6.547h1.391V4.492Zm6.664,10.664a3.928,3.928,0,0,1-2.926-1.137A4.124,4.124,0,0,1,87,10.992v-.234A5.072,5.072,0,0,1,87.489,8.5,3.716,3.716,0,0,1,88.86,6.945a3.625,3.625,0,0,1,1.969-.555,3.318,3.318,0,0,1,2.668,1.1,4.658,4.658,0,0,1,.941,3.117v.766H88.914a2.539,2.539,0,0,0,.7,1.656,2.1,2.1,0,0,0,1.543.609,2.571,2.571,0,0,0,2.125-1.055l1.023.977a3.418,3.418,0,0,1-1.355,1.176A4.244,4.244,0,0,1,91.047,15.156Zm-.227-7.242a1.6,1.6,0,0,0-1.262.547,2.835,2.835,0,0,0-.613,1.523h3.617V9.844A2.307,2.307,0,0,0,92.055,8.4,1.586,1.586,0,0,0,90.821,7.914Z" transform="translate(602 0.797)" fill="#12263f"/>
      <path id="Trazado_605265" data-name="Trazado 605265" d="M35.6,10.781V15H33.621V3.625h4.352A4.4,4.4,0,0,1,41,4.618a3.34,3.34,0,0,1,1.121,2.628,3.229,3.229,0,0,1-1.1,2.6,4.613,4.613,0,0,1-3.074.931Zm0-1.594h2.375a2.339,2.339,0,0,0,1.609-.5,1.823,1.823,0,0,0,.555-1.434,1.967,1.967,0,0,0-.562-1.473,2.168,2.168,0,0,0-1.547-.566H35.6Zm11.688,5.969a3.928,3.928,0,0,1-2.926-1.137,4.124,4.124,0,0,1-1.121-3.027v-.234A5.072,5.072,0,0,1,43.727,8.5,3.716,3.716,0,0,1,45.1,6.945a3.625,3.625,0,0,1,1.969-.555,3.318,3.318,0,0,1,2.668,1.1,4.658,4.658,0,0,1,.941,3.117v.766H45.152a2.539,2.539,0,0,0,.7,1.656,2.1,2.1,0,0,0,1.543.609,2.571,2.571,0,0,0,2.125-1.055l1.023.977a3.418,3.418,0,0,1-1.355,1.176A4.244,4.244,0,0,1,47.285,15.156Zm-.227-7.242a1.6,1.6,0,0,0-1.262.547,2.835,2.835,0,0,0-.613,1.523H48.8V9.844A2.307,2.307,0,0,0,48.293,8.4,1.586,1.586,0,0,0,47.059,7.914Zm9.516.367a4.7,4.7,0,0,0-.773-.062,1.741,1.741,0,0,0-1.758,1V15h-1.9V6.547h1.813L54,7.492a2.139,2.139,0,0,1,1.906-1.1,1.777,1.777,0,0,1,.672.109Zm5.625,0a4.7,4.7,0,0,0-.773-.062,1.741,1.741,0,0,0-1.758,1V15h-1.9V6.547h1.813l.047.945a2.139,2.139,0,0,1,1.906-1.1,1.777,1.777,0,0,1,.672.109Zm.563,2.414a4.984,4.984,0,0,1,.492-2.238,3.6,3.6,0,0,1,1.383-1.531,3.9,3.9,0,0,1,2.047-.535,3.692,3.692,0,0,1,2.777,1.1,4.333,4.333,0,0,1,1.152,2.922l.008.445a5.029,5.029,0,0,1-.48,2.234,3.551,3.551,0,0,1-1.375,1.523,3.925,3.925,0,0,1-2.066.539,3.667,3.667,0,0,1-2.863-1.191,4.563,4.563,0,0,1-1.074-3.176Zm1.9.164A3.406,3.406,0,0,0,65.2,12.9a1.752,1.752,0,0,0,1.5.738,1.733,1.733,0,0,0,1.5-.75,3.762,3.762,0,0,0,.535-2.2,3.362,3.362,0,0,0-.551-2.031,1.856,1.856,0,0,0-2.973-.012A3.691,3.691,0,0,0,64.66,10.859Z" transform="translate(600 177)" fill="#12263f"/>
      <path id="Trazado_213254" data-name="Trazado 213254" d="M-6184-3066.838h-551.409" transform="translate(6898.41 3419)" fill="none" stroke="#707070" stroke-width="2"/>
      <path id="Trazado_213255" data-name="Trazado 213255" d="M352.309,0H0" transform="translate(163 352.4) rotate(-90)" fill="none" stroke="#707070" stroke-width="2"/>
      <path id="Trazado_213256" data-name="Trazado 213256" d="M0,0H820V39H0Z" transform="translate(0 395)" fill="#7e10b8"/>
      <path id="Trazado_605266" data-name="Trazado 605266" d="M150.872,12.491V17h-2.637V4.2h4.992a5.776,5.776,0,0,1,2.536.527,3.886,3.886,0,0,1,1.683,1.5,4.178,4.178,0,0,1,.589,2.21,3.674,3.674,0,0,1-1.288,2.966,5.363,5.363,0,0,1-3.564,1.085Zm0-2.136h2.355a2.316,2.316,0,0,0,1.6-.492,1.79,1.79,0,0,0,.549-1.406,2.111,2.111,0,0,0-.554-1.521,2.068,2.068,0,0,0-1.529-.6h-2.417ZM165.093,17a2.821,2.821,0,0,1-.255-.853,3.073,3.073,0,0,1-2.4,1.028,3.376,3.376,0,0,1-2.316-.809,2.6,2.6,0,0,1-.918-2.039,2.687,2.687,0,0,1,1.121-2.32,5.529,5.529,0,0,1,3.239-.817h1.169v-.545a1.567,1.567,0,0,0-.338-1.055,1.331,1.331,0,0,0-1.068-.4,1.513,1.513,0,0,0-1.006.308,1.045,1.045,0,0,0-.365.844h-2.54a2.551,2.551,0,0,1,.51-1.529,3.37,3.37,0,0,1,1.441-1.1,5.253,5.253,0,0,1,2.092-.4,4.15,4.15,0,0,1,2.791.883,3.09,3.09,0,0,1,1.033,2.483V14.8a4.546,4.546,0,0,0,.378,2.048V17Zm-2.1-1.767a2.188,2.188,0,0,0,1.037-.25,1.645,1.645,0,0,0,.7-.672V12.676h-.949q-1.907,0-2.03,1.318l-.009.149a1.017,1.017,0,0,0,.334.782A1.3,1.3,0,0,0,162.992,15.233Zm11.584-5.361a6.9,6.9,0,0,0-.914-.07,1.86,1.86,0,0,0-1.89.976V17h-2.54V7.49h2.4l.07,1.134a2.354,2.354,0,0,1,2.118-1.31,2.662,2.662,0,0,1,.791.114Zm4.7-4.72V7.49H180.9V9.354h-1.626V14.1a1.133,1.133,0,0,0,.2.756,1.015,1.015,0,0,0,.773.229,4.051,4.051,0,0,0,.747-.062v1.925a5.229,5.229,0,0,1-1.538.229,2.425,2.425,0,0,1-2.725-2.7V9.354H175.35V7.49h1.389V5.152ZM185,17h-2.549V7.49H185ZM182.3,5.029a1.251,1.251,0,0,1,.382-.94,1.648,1.648,0,0,1,2.079,0,1.244,1.244,0,0,1,.387.94,1.247,1.247,0,0,1-.391.949,1.629,1.629,0,0,1-2.065,0A1.247,1.247,0,0,1,182.3,5.029Zm8.745,10.1a1.666,1.666,0,0,0,1.143-.387,1.355,1.355,0,0,0,.457-1.028h2.382a3.258,3.258,0,0,1-.527,1.771,3.48,3.48,0,0,1-1.419,1.248,4.442,4.442,0,0,1-1.991.444,4.129,4.129,0,0,1-3.217-1.3A5.13,5.13,0,0,1,186.7,12.3v-.167a5.071,5.071,0,0,1,1.169-3.507,4.08,4.08,0,0,1,3.208-1.31,4,4,0,0,1,2.861,1.015,3.594,3.594,0,0,1,1.094,2.7h-2.382a1.745,1.745,0,0,0-.457-1.206,1.7,1.7,0,0,0-2.5.183,3.749,3.749,0,0,0-.453,2.1v.264a3.8,3.8,0,0,0,.448,2.113A1.549,1.549,0,0,0,191.047,15.128ZM199.159,17H196.61V7.49h2.549Zm-2.7-11.971a1.251,1.251,0,0,1,.382-.94,1.648,1.648,0,0,1,2.079,0,1.244,1.244,0,0,1,.387.94,1.247,1.247,0,0,1-.391.949,1.629,1.629,0,0,1-2.065,0A1.247,1.247,0,0,1,196.461,5.029Zm13.351,7.3a5.7,5.7,0,0,1-1,3.52,3.2,3.2,0,0,1-2.694,1.323,2.963,2.963,0,0,1-2.329-1v4.482h-2.54V7.49h2.355l.088.932A2.985,2.985,0,0,1,206.1,7.314a3.22,3.22,0,0,1,2.733,1.3,5.858,5.858,0,0,1,.976,3.586Zm-2.54-.185a3.743,3.743,0,0,0-.47-2.048,1.532,1.532,0,0,0-1.367-.721,1.663,1.663,0,0,0-1.644.914v3.894a1.692,1.692,0,0,0,1.661.94Q207.271,15.128,207.271,12.148ZM216.9,17a2.821,2.821,0,0,1-.255-.853,3.073,3.073,0,0,1-2.4,1.028,3.376,3.376,0,0,1-2.316-.809,2.6,2.6,0,0,1-.918-2.039,2.687,2.687,0,0,1,1.121-2.32,5.529,5.529,0,0,1,3.239-.817h1.169v-.545a1.567,1.567,0,0,0-.338-1.055,1.331,1.331,0,0,0-1.068-.4,1.513,1.513,0,0,0-1.006.308,1.045,1.045,0,0,0-.365.844h-2.54a2.551,2.551,0,0,1,.51-1.529,3.37,3.37,0,0,1,1.441-1.1,5.253,5.253,0,0,1,2.092-.4,4.15,4.15,0,0,1,2.791.883,3.09,3.09,0,0,1,1.033,2.483V14.8a4.546,4.546,0,0,0,.378,2.048V17Zm-2.1-1.767a2.188,2.188,0,0,0,1.037-.25,1.645,1.645,0,0,0,.7-.672V12.676h-.949q-1.907,0-2.03,1.318l-.009.149a1.017,1.017,0,0,0,.334.782A1.3,1.3,0,0,0,214.795,15.233Zm10.2-.105a1.666,1.666,0,0,0,1.143-.387,1.355,1.355,0,0,0,.457-1.028h2.382a3.258,3.258,0,0,1-.527,1.771,3.48,3.48,0,0,1-1.419,1.248,4.442,4.442,0,0,1-1.991.444,4.129,4.129,0,0,1-3.217-1.3A5.13,5.13,0,0,1,220.64,12.3v-.167a5.071,5.071,0,0,1,1.169-3.507,4.08,4.08,0,0,1,3.208-1.31,4,4,0,0,1,2.861,1.015,3.594,3.594,0,0,1,1.094,2.7H226.59a1.745,1.745,0,0,0-.457-1.206,1.7,1.7,0,0,0-2.5.183,3.749,3.749,0,0,0-.453,2.1v.264a3.8,3.8,0,0,0,.448,2.113A1.549,1.549,0,0,0,224.99,15.128ZM233.1,17h-2.549V7.49H233.1ZM230.4,5.029a1.251,1.251,0,0,1,.382-.94,1.648,1.648,0,0,1,2.079,0,1.244,1.244,0,0,1,.387.94,1.247,1.247,0,0,1-.391.949,1.629,1.629,0,0,1-2.065,0A1.247,1.247,0,0,1,230.4,5.029Zm4.395,7.128a5.64,5.64,0,0,1,.545-2.522,3.989,3.989,0,0,1,1.569-1.714,4.577,4.577,0,0,1,2.377-.606,4.33,4.33,0,0,1,3.142,1.178,4.727,4.727,0,0,1,1.358,3.2l.018.65a4.97,4.97,0,0,1-1.222,3.511,4.735,4.735,0,0,1-6.561,0,5.058,5.058,0,0,1-1.226-3.586Zm2.54.18a3.555,3.555,0,0,0,.51,2.073,1.831,1.831,0,0,0,2.9.009,3.89,3.89,0,0,0,.519-2.267,3.519,3.519,0,0,0-.519-2.06,1.686,1.686,0,0,0-1.459-.731,1.658,1.658,0,0,0-1.441.726A3.955,3.955,0,0,0,237.339,12.338ZM239.791,3.5h2.769l-2.435,2.725H238.06Zm7.919,3.99.079,1.1a3.32,3.32,0,0,1,2.733-1.274,2.759,2.759,0,0,1,2.25.888,4.142,4.142,0,0,1,.756,2.654V17h-2.54V10.918a1.648,1.648,0,0,0-.352-1.173,1.574,1.574,0,0,0-1.169-.365,1.747,1.747,0,0,0-1.608.914V17h-2.54V7.49Zm11.83,4.685a5.731,5.731,0,0,1,1-3.542,3.237,3.237,0,0,1,2.729-1.318,2.913,2.913,0,0,1,2.294,1.037V3.5h2.549V17h-2.294l-.123-1.011a2.989,2.989,0,0,1-2.443,1.187,3.228,3.228,0,0,1-2.694-1.323A5.916,5.916,0,0,1,259.54,12.175Zm2.54.189a3.754,3.754,0,0,0,.466,2.051,1.517,1.517,0,0,0,1.354.713,1.7,1.7,0,0,0,1.661-.995V10.375a1.675,1.675,0,0,0-1.644-.995Q262.08,9.38,262.08,12.364Zm12.375,4.812a4.668,4.668,0,0,1-3.406-1.283,4.561,4.561,0,0,1-1.314-3.419v-.246a5.745,5.745,0,0,1,.554-2.562,4.064,4.064,0,0,1,1.569-1.74,4.4,4.4,0,0,1,2.316-.611,3.947,3.947,0,0,1,3.072,1.23,5,5,0,0,1,1.121,3.489v1.037h-6.056a2.36,2.36,0,0,0,.743,1.494,2.245,2.245,0,0,0,1.569.563,2.742,2.742,0,0,0,2.294-1.063l1.248,1.4a3.813,3.813,0,0,1-1.547,1.261A5.075,5.075,0,0,1,274.455,17.176Zm-.29-7.813a1.587,1.587,0,0,0-1.226.512,2.651,2.651,0,0,0-.6,1.466h3.533v-.2a1.891,1.891,0,0,0-.457-1.311A1.638,1.638,0,0,0,274.165,9.362ZM286.672,7.49l.079,1.063a3.342,3.342,0,0,1,2.733-1.239,2.536,2.536,0,0,1,2.522,1.45,3.265,3.265,0,0,1,2.856-1.45,2.836,2.836,0,0,1,2.3.9,4.141,4.141,0,0,1,.756,2.711V17h-2.549V10.936a1.811,1.811,0,0,0-.316-1.182,1.4,1.4,0,0,0-1.116-.374,1.585,1.585,0,0,0-1.582,1.09l.009,6.53h-2.54V10.944a1.789,1.789,0,0,0-.325-1.2,1.416,1.416,0,0,0-1.107-.369,1.646,1.646,0,0,0-1.564.9V17h-2.54V7.49Zm17.578,9.686a4.668,4.668,0,0,1-3.406-1.283,4.561,4.561,0,0,1-1.314-3.419v-.246a5.745,5.745,0,0,1,.554-2.562,4.064,4.064,0,0,1,1.569-1.74,4.4,4.4,0,0,1,2.316-.611,3.947,3.947,0,0,1,3.072,1.23,5,5,0,0,1,1.121,3.489v1.037h-6.056a2.36,2.36,0,0,0,.743,1.494,2.245,2.245,0,0,0,1.569.563,2.742,2.742,0,0,0,2.294-1.063l1.248,1.4a3.813,3.813,0,0,1-1.547,1.261A5.075,5.075,0,0,1,304.25,17.176Zm-.29-7.813a1.587,1.587,0,0,0-1.226.512,2.651,2.651,0,0,0-.6,1.466h3.533v-.2a1.891,1.891,0,0,0-.457-1.311A1.638,1.638,0,0,0,303.96,9.362Zm10.986.51a6.9,6.9,0,0,0-.914-.07,1.86,1.86,0,0,0-1.89.976V17H309.6V7.49H312l.07,1.134a2.354,2.354,0,0,1,2.118-1.31,2.662,2.662,0,0,1,.791.114Zm5.01,5.256a1.666,1.666,0,0,0,1.143-.387,1.355,1.355,0,0,0,.457-1.028h2.382a3.258,3.258,0,0,1-.527,1.771,3.48,3.48,0,0,1-1.419,1.248,4.442,4.442,0,0,1-1.991.444,4.129,4.129,0,0,1-3.217-1.3,5.13,5.13,0,0,1-1.178-3.582v-.167a5.071,5.071,0,0,1,1.169-3.507,4.08,4.08,0,0,1,3.208-1.31,4,4,0,0,1,2.861,1.015,3.594,3.594,0,0,1,1.094,2.7h-2.382a1.745,1.745,0,0,0-.457-1.206,1.7,1.7,0,0,0-2.5.183,3.749,3.749,0,0,0-.453,2.1v.264a3.8,3.8,0,0,0,.448,2.113A1.549,1.549,0,0,0,319.956,15.128ZM330.9,17a2.821,2.821,0,0,1-.255-.853,3.073,3.073,0,0,1-2.4,1.028,3.376,3.376,0,0,1-2.316-.809,2.6,2.6,0,0,1-.918-2.039,2.687,2.687,0,0,1,1.121-2.32,5.529,5.529,0,0,1,3.239-.817h1.169v-.545a1.567,1.567,0,0,0-.338-1.055,1.331,1.331,0,0,0-1.068-.4,1.513,1.513,0,0,0-1.006.308,1.045,1.045,0,0,0-.365.844h-2.54a2.551,2.551,0,0,1,.51-1.529,3.37,3.37,0,0,1,1.441-1.1,5.253,5.253,0,0,1,2.092-.4,4.15,4.15,0,0,1,2.791.883,3.09,3.09,0,0,1,1.033,2.483V14.8a4.546,4.546,0,0,0,.378,2.048V17Zm-2.1-1.767a2.188,2.188,0,0,0,1.037-.25,1.645,1.645,0,0,0,.7-.672V12.676h-.949q-1.907,0-2.03,1.318l-.009.149a1.017,1.017,0,0,0,.334.782A1.3,1.3,0,0,0,328.8,15.233Zm5.845-3.059a5.731,5.731,0,0,1,1-3.542,3.237,3.237,0,0,1,2.729-1.318,2.913,2.913,0,0,1,2.294,1.037V3.5h2.549V17h-2.294l-.123-1.011a2.989,2.989,0,0,1-2.443,1.187,3.228,3.228,0,0,1-2.694-1.323A5.916,5.916,0,0,1,334.643,12.175Zm2.54.189a3.754,3.754,0,0,0,.466,2.051,1.517,1.517,0,0,0,1.354.713,1.7,1.7,0,0,0,1.661-.995V10.375a1.675,1.675,0,0,0-1.644-.995Q337.183,9.38,337.183,12.364Zm7.6-.207a5.64,5.64,0,0,1,.545-2.522A3.989,3.989,0,0,1,346.9,7.921a4.577,4.577,0,0,1,2.377-.606,4.33,4.33,0,0,1,3.142,1.178,4.727,4.727,0,0,1,1.358,3.2l.018.65a4.97,4.97,0,0,1-1.222,3.511,4.735,4.735,0,0,1-6.561,0,5.058,5.058,0,0,1-1.226-3.586Zm2.54.18a3.555,3.555,0,0,0,.51,2.073,1.831,1.831,0,0,0,2.9.009,3.89,3.89,0,0,0,.519-2.267,3.519,3.519,0,0,0-.519-2.06,1.686,1.686,0,0,0-1.459-.731,1.658,1.658,0,0,0-1.441.726A3.955,3.955,0,0,0,347.325,12.338ZM360.535,17V9.354H359.12V7.49h1.415V6.682a3.283,3.283,0,0,1,.918-2.483,3.557,3.557,0,0,1,2.571-.883,5.938,5.938,0,0,1,1.292.176L365.29,5.46a3.238,3.238,0,0,0-.773-.079q-1.433,0-1.433,1.345V7.49h1.89V9.354h-1.89V17Zm11.1-7.128a6.9,6.9,0,0,0-.914-.07,1.86,1.86,0,0,0-1.89.976V17h-2.54V7.49h2.4l.07,1.134a2.354,2.354,0,0,1,2.118-1.31,2.662,2.662,0,0,1,.791.114Zm5.432,7.3a4.668,4.668,0,0,1-3.406-1.283,4.561,4.561,0,0,1-1.314-3.419v-.246a5.745,5.745,0,0,1,.554-2.562,4.064,4.064,0,0,1,1.569-1.74,4.4,4.4,0,0,1,2.316-.611,3.947,3.947,0,0,1,3.072,1.23,5,5,0,0,1,1.121,3.489v1.037h-6.056a2.36,2.36,0,0,0,.743,1.494,2.245,2.245,0,0,0,1.569.563,2.742,2.742,0,0,0,2.294-1.063l1.248,1.4a3.813,3.813,0,0,1-1.547,1.261A5.075,5.075,0,0,1,377.067,17.176Zm-.29-7.813a1.587,1.587,0,0,0-1.226.512,2.651,2.651,0,0,0-.6,1.466h3.533v-.2a1.891,1.891,0,0,0-.457-1.311A1.638,1.638,0,0,0,376.777,9.362Zm7.98-1.872.079,1.1a3.32,3.32,0,0,1,2.733-1.274,2.759,2.759,0,0,1,2.25.888,4.142,4.142,0,0,1,.756,2.654V17h-2.54V10.918a1.648,1.648,0,0,0-.352-1.173,1.574,1.574,0,0,0-1.169-.365,1.747,1.747,0,0,0-1.608.914V17h-2.54V7.49Zm10.784-2.338V7.49h1.626V9.354h-1.626V14.1a1.133,1.133,0,0,0,.2.756,1.015,1.015,0,0,0,.773.229,4.051,4.051,0,0,0,.747-.062v1.925a5.229,5.229,0,0,1-1.538.229,2.425,2.425,0,0,1-2.725-2.7V9.354h-1.389V7.49H393V5.152Zm7.418,12.023a4.668,4.668,0,0,1-3.406-1.283,4.561,4.561,0,0,1-1.314-3.419v-.246a5.745,5.745,0,0,1,.554-2.562,4.064,4.064,0,0,1,1.569-1.74,4.4,4.4,0,0,1,2.316-.611,3.947,3.947,0,0,1,3.072,1.23,5,5,0,0,1,1.121,3.489v1.037h-6.056a2.36,2.36,0,0,0,.743,1.494,2.245,2.245,0,0,0,1.569.563,2.742,2.742,0,0,0,2.294-1.063l1.248,1.4a3.813,3.813,0,0,1-1.547,1.261A5.075,5.075,0,0,1,402.96,17.176Zm-.29-7.813a1.587,1.587,0,0,0-1.226.512,2.651,2.651,0,0,0-.6,1.466h3.533v-.2a1.891,1.891,0,0,0-.457-1.311A1.638,1.638,0,0,0,402.67,9.362ZM418.306,17a2.821,2.821,0,0,1-.255-.853,3.073,3.073,0,0,1-2.4,1.028,3.376,3.376,0,0,1-2.316-.809,2.6,2.6,0,0,1-.918-2.039,2.687,2.687,0,0,1,1.121-2.32,5.529,5.529,0,0,1,3.239-.817h1.169v-.545a1.567,1.567,0,0,0-.338-1.055,1.331,1.331,0,0,0-1.068-.4,1.513,1.513,0,0,0-1.006.308,1.045,1.045,0,0,0-.365.844h-2.54a2.551,2.551,0,0,1,.51-1.529,3.37,3.37,0,0,1,1.441-1.1,5.253,5.253,0,0,1,2.092-.4,4.15,4.15,0,0,1,2.791.883,3.09,3.09,0,0,1,1.033,2.483V14.8a4.546,4.546,0,0,0,.378,2.048V17Zm-2.1-1.767a2.188,2.188,0,0,0,1.037-.25,1.645,1.645,0,0,0,.7-.672V12.676H417q-1.907,0-2.03,1.318l-.009.149a1.017,1.017,0,0,0,.334.782A1.3,1.3,0,0,0,416.205,15.233ZM429.608,17H427.06V3.5h2.549Zm1.7-4.843a5.64,5.64,0,0,1,.545-2.522,3.989,3.989,0,0,1,1.569-1.714,4.577,4.577,0,0,1,2.377-.606,4.33,4.33,0,0,1,3.142,1.178,4.727,4.727,0,0,1,1.358,3.2l.018.65a4.97,4.97,0,0,1-1.222,3.511,4.735,4.735,0,0,1-6.561,0,5.058,5.058,0,0,1-1.226-3.586Zm2.54.18a3.555,3.555,0,0,0,.51,2.073,1.831,1.831,0,0,0,2.9.009,3.89,3.89,0,0,0,.519-2.267,3.519,3.519,0,0,0-.519-2.06,1.686,1.686,0,0,0-1.459-.731,1.658,1.658,0,0,0-1.441.726A3.955,3.955,0,0,0,433.845,12.338Zm13.184,2.035a.818.818,0,0,0-.461-.734,5.241,5.241,0,0,0-1.481-.479q-3.393-.712-3.393-2.883a2.613,2.613,0,0,1,1.05-2.114,4.237,4.237,0,0,1,2.747-.848,4.56,4.56,0,0,1,2.9.853,2.687,2.687,0,0,1,1.085,2.215h-2.54a1.229,1.229,0,0,0-.352-.9,1.488,1.488,0,0,0-1.1-.356,1.52,1.52,0,0,0-.993.29.916.916,0,0,0-.352.738.783.783,0,0,0,.4.681,4.114,4.114,0,0,0,1.349.448,11.019,11.019,0,0,1,1.6.426,2.628,2.628,0,0,1,2.013,2.558,2.481,2.481,0,0,1-1.116,2.1,4.815,4.815,0,0,1-2.883.8,5.029,5.029,0,0,1-2.123-.426,3.561,3.561,0,0,1-1.455-1.169,2.716,2.716,0,0,1-.527-1.6H443.8a1.326,1.326,0,0,0,.5,1.037,1.987,1.987,0,0,0,1.248.36,1.839,1.839,0,0,0,1.1-.277A.861.861,0,0,0,447.028,14.372Zm12.542.756a1.666,1.666,0,0,0,1.143-.387,1.355,1.355,0,0,0,.457-1.028h2.382a3.258,3.258,0,0,1-.527,1.771,3.48,3.48,0,0,1-1.419,1.248,4.442,4.442,0,0,1-1.991.444,4.129,4.129,0,0,1-3.217-1.3A5.13,5.13,0,0,1,455.22,12.3v-.167a5.071,5.071,0,0,1,1.169-3.507,4.08,4.08,0,0,1,3.208-1.31,4,4,0,0,1,2.861,1.015,3.594,3.594,0,0,1,1.094,2.7H461.17a1.745,1.745,0,0,0-.457-1.206,1.7,1.7,0,0,0-2.5.183,3.749,3.749,0,0,0-.453,2.1v.264a3.8,3.8,0,0,0,.448,2.113A1.549,1.549,0,0,0,459.57,15.128Zm5.036-2.971a5.64,5.64,0,0,1,.545-2.522,3.989,3.989,0,0,1,1.569-1.714,4.577,4.577,0,0,1,2.377-.606,4.33,4.33,0,0,1,3.142,1.178,4.727,4.727,0,0,1,1.358,3.2l.018.65a4.97,4.97,0,0,1-1.222,3.511,4.735,4.735,0,0,1-6.561,0,5.058,5.058,0,0,1-1.226-3.586Zm2.54.18a3.555,3.555,0,0,0,.51,2.073,1.831,1.831,0,0,0,2.9.009,3.89,3.89,0,0,0,.519-2.267,3.519,3.519,0,0,0-.519-2.06,1.686,1.686,0,0,0-1.459-.731,1.658,1.658,0,0,0-1.441.726A3.955,3.955,0,0,0,467.146,12.338ZM477.518,7.49l.079,1.1a3.32,3.32,0,0,1,2.733-1.274,2.759,2.759,0,0,1,2.25.888,4.142,4.142,0,0,1,.756,2.654V17H480.8V10.918a1.648,1.648,0,0,0-.352-1.173,1.574,1.574,0,0,0-1.169-.365,1.747,1.747,0,0,0-1.608.914V17h-2.54V7.49Zm12.894,6.882a.818.818,0,0,0-.461-.734,5.241,5.241,0,0,0-1.481-.479q-3.393-.712-3.393-2.883a2.613,2.613,0,0,1,1.05-2.114,4.237,4.237,0,0,1,2.747-.848,4.56,4.56,0,0,1,2.9.853,2.687,2.687,0,0,1,1.085,2.215h-2.54a1.229,1.229,0,0,0-.352-.9,1.488,1.488,0,0,0-1.1-.356,1.52,1.52,0,0,0-.993.29.916.916,0,0,0-.352.738.783.783,0,0,0,.4.681,4.114,4.114,0,0,0,1.349.448,11.019,11.019,0,0,1,1.6.426,2.628,2.628,0,0,1,2.013,2.558,2.481,2.481,0,0,1-1.116,2.1,4.815,4.815,0,0,1-2.883.8,5.029,5.029,0,0,1-2.123-.426,3.561,3.561,0,0,1-1.455-1.169,2.716,2.716,0,0,1-.527-1.6h2.408a1.326,1.326,0,0,0,.5,1.037,1.987,1.987,0,0,0,1.248.36,1.839,1.839,0,0,0,1.1-.277A.861.861,0,0,0,490.411,14.372ZM497.2,17h-2.549V7.49H497.2ZM494.5,5.029a1.251,1.251,0,0,1,.382-.94,1.648,1.648,0,0,1,2.079,0,1.244,1.244,0,0,1,.387.94,1.247,1.247,0,0,1-.391.949,1.629,1.629,0,0,1-2.065,0A1.247,1.247,0,0,1,494.5,5.029Zm4.395,7.146a5.731,5.731,0,0,1,1-3.542,3.237,3.237,0,0,1,2.729-1.318,2.913,2.913,0,0,1,2.294,1.037V3.5h2.549V17h-2.294l-.123-1.011a2.989,2.989,0,0,1-2.443,1.187,3.228,3.228,0,0,1-2.694-1.323A5.916,5.916,0,0,1,498.893,12.175Zm2.54.189a3.754,3.754,0,0,0,.466,2.051,1.517,1.517,0,0,0,1.354.713,1.7,1.7,0,0,0,1.661-.995V10.375a1.675,1.675,0,0,0-1.644-.995Q501.433,9.38,501.433,12.364Zm12.375,4.812a4.668,4.668,0,0,1-3.406-1.283,4.561,4.561,0,0,1-1.314-3.419v-.246a5.745,5.745,0,0,1,.554-2.562,4.064,4.064,0,0,1,1.569-1.74,4.4,4.4,0,0,1,2.316-.611,3.947,3.947,0,0,1,3.072,1.23,5,5,0,0,1,1.121,3.489v1.037h-6.056a2.36,2.36,0,0,0,.743,1.494,2.245,2.245,0,0,0,1.569.563,2.742,2.742,0,0,0,2.294-1.063l1.248,1.4a3.813,3.813,0,0,1-1.547,1.261A5.075,5.075,0,0,1,513.808,17.176Zm-.29-7.813a1.587,1.587,0,0,0-1.226.512,2.651,2.651,0,0,0-.6,1.466h3.533v-.2a1.891,1.891,0,0,0-.457-1.311A1.638,1.638,0,0,0,513.518,9.362Zm10.986.51a6.9,6.9,0,0,0-.914-.07,1.86,1.86,0,0,0-1.89.976V17h-2.54V7.49h2.4l.07,1.134a2.354,2.354,0,0,1,2.118-1.31,2.662,2.662,0,0,1,.791.114ZM530.973,17a2.821,2.821,0,0,1-.255-.853,3.073,3.073,0,0,1-2.4,1.028A3.376,3.376,0,0,1,526,16.367a2.6,2.6,0,0,1-.918-2.039,2.687,2.687,0,0,1,1.121-2.32,5.529,5.529,0,0,1,3.239-.817h1.169v-.545a1.567,1.567,0,0,0-.338-1.055,1.331,1.331,0,0,0-1.068-.4A1.513,1.513,0,0,0,528.2,9.5a1.045,1.045,0,0,0-.365.844h-2.54a2.551,2.551,0,0,1,.51-1.529,3.37,3.37,0,0,1,1.441-1.1,5.253,5.253,0,0,1,2.092-.4,4.15,4.15,0,0,1,2.791.883,3.09,3.09,0,0,1,1.033,2.483V14.8a4.546,4.546,0,0,0,.378,2.048V17Zm-2.1-1.767a2.188,2.188,0,0,0,1.037-.25,1.645,1.645,0,0,0,.7-.672V12.676h-.949q-1.907,0-2.03,1.318l-.009.149a1.017,1.017,0,0,0,.334.782A1.3,1.3,0,0,0,528.872,15.233Zm5.845-3.059a5.731,5.731,0,0,1,1-3.542,3.237,3.237,0,0,1,2.729-1.318,2.913,2.913,0,0,1,2.294,1.037V3.5h2.549V17h-2.294l-.123-1.011a2.989,2.989,0,0,1-2.443,1.187,3.228,3.228,0,0,1-2.694-1.323A5.916,5.916,0,0,1,534.717,12.175Zm2.54.189a3.754,3.754,0,0,0,.466,2.051,1.517,1.517,0,0,0,1.354.713,1.7,1.7,0,0,0,1.661-.995V10.375a1.675,1.675,0,0,0-1.644-.995Q537.257,9.38,537.257,12.364Zm7.6-.207a5.64,5.64,0,0,1,.545-2.522,3.989,3.989,0,0,1,1.569-1.714,4.577,4.577,0,0,1,2.377-.606,4.33,4.33,0,0,1,3.142,1.178,4.727,4.727,0,0,1,1.358,3.2l.018.65a4.97,4.97,0,0,1-1.222,3.511,4.735,4.735,0,0,1-6.561,0,5.058,5.058,0,0,1-1.226-3.586Zm2.54.18a3.555,3.555,0,0,0,.51,2.073,1.831,1.831,0,0,0,2.9.009,3.89,3.89,0,0,0,.519-2.267,3.519,3.519,0,0,0-.519-2.06,1.686,1.686,0,0,0-1.459-.731,1.658,1.658,0,0,0-1.441.726A3.955,3.955,0,0,0,547.4,12.338Zm13.184,2.035a.818.818,0,0,0-.461-.734,5.241,5.241,0,0,0-1.481-.479q-3.393-.712-3.393-2.883a2.613,2.613,0,0,1,1.05-2.114,4.237,4.237,0,0,1,2.747-.848,4.56,4.56,0,0,1,2.9.853,2.687,2.687,0,0,1,1.085,2.215h-2.54a1.229,1.229,0,0,0-.352-.9,1.488,1.488,0,0,0-1.1-.356,1.52,1.52,0,0,0-.993.29.916.916,0,0,0-.352.738.783.783,0,0,0,.4.681,4.114,4.114,0,0,0,1.349.448,11.019,11.019,0,0,1,1.6.426,2.628,2.628,0,0,1,2.013,2.558,2.481,2.481,0,0,1-1.116,2.1,4.815,4.815,0,0,1-2.883.8,5.029,5.029,0,0,1-2.123-.426,3.561,3.561,0,0,1-1.455-1.169,2.716,2.716,0,0,1-.527-1.6h2.408a1.326,1.326,0,0,0,.5,1.037,1.987,1.987,0,0,0,1.248.36,1.839,1.839,0,0,0,1.1-.277A.861.861,0,0,0,560.583,14.372Zm12.542.756a1.666,1.666,0,0,0,1.143-.387,1.355,1.355,0,0,0,.457-1.028h2.382a3.258,3.258,0,0,1-.527,1.771,3.48,3.48,0,0,1-1.419,1.248,4.442,4.442,0,0,1-1.991.444,4.129,4.129,0,0,1-3.217-1.3,5.13,5.13,0,0,1-1.178-3.582v-.167a5.071,5.071,0,0,1,1.169-3.507,4.08,4.08,0,0,1,3.208-1.31,4,4,0,0,1,2.861,1.015,3.594,3.594,0,0,1,1.094,2.7h-2.382a1.745,1.745,0,0,0-.457-1.206,1.7,1.7,0,0,0-2.5.183,3.749,3.749,0,0,0-.453,2.1v.264a3.8,3.8,0,0,0,.448,2.113A1.549,1.549,0,0,0,573.125,15.128Zm5.036-2.971a5.64,5.64,0,0,1,.545-2.522,3.989,3.989,0,0,1,1.569-1.714,4.577,4.577,0,0,1,2.377-.606,4.33,4.33,0,0,1,3.142,1.178,4.727,4.727,0,0,1,1.358,3.2l.018.65a4.97,4.97,0,0,1-1.222,3.511,4.735,4.735,0,0,1-6.561,0,5.058,5.058,0,0,1-1.226-3.586Zm2.54.18a3.555,3.555,0,0,0,.51,2.073,1.831,1.831,0,0,0,2.9.009,3.89,3.89,0,0,0,.519-2.267,3.519,3.519,0,0,0-.519-2.06,1.686,1.686,0,0,0-1.459-.731,1.658,1.658,0,0,0-1.441.726A3.955,3.955,0,0,0,580.7,12.338ZM591.116,7.49l.079,1.063a3.342,3.342,0,0,1,2.733-1.239,2.536,2.536,0,0,1,2.522,1.45,3.265,3.265,0,0,1,2.856-1.45,2.836,2.836,0,0,1,2.3.9,4.141,4.141,0,0,1,.756,2.711V17h-2.549V10.936a1.811,1.811,0,0,0-.316-1.182,1.4,1.4,0,0,0-1.116-.374,1.585,1.585,0,0,0-1.582,1.09l.009,6.53h-2.54V10.944a1.789,1.789,0,0,0-.325-1.2,1.416,1.416,0,0,0-1.107-.369,1.646,1.646,0,0,0-1.564.9V17h-2.54V7.49Zm21.762,4.843a5.7,5.7,0,0,1-1,3.52,3.2,3.2,0,0,1-2.694,1.323,2.963,2.963,0,0,1-2.329-1v4.482h-2.54V7.49h2.355l.088.932a2.985,2.985,0,0,1,2.408-1.107,3.22,3.22,0,0,1,2.733,1.3,5.858,5.858,0,0,1,.976,3.586Zm-2.54-.185a3.743,3.743,0,0,0-.47-2.048A1.532,1.532,0,0,0,608.5,9.38a1.663,1.663,0,0,0-1.644.914v3.894a1.692,1.692,0,0,0,1.661.94Q610.338,15.128,610.338,12.148Zm8.49,5.027a4.668,4.668,0,0,1-3.406-1.283,4.561,4.561,0,0,1-1.314-3.419v-.246a5.745,5.745,0,0,1,.554-2.562,4.064,4.064,0,0,1,1.569-1.74,4.4,4.4,0,0,1,2.316-.611,3.947,3.947,0,0,1,3.072,1.23,5,5,0,0,1,1.121,3.489v1.037h-6.056a2.36,2.36,0,0,0,.743,1.494,2.245,2.245,0,0,0,1.569.563,2.742,2.742,0,0,0,2.294-1.063l1.248,1.4a3.813,3.813,0,0,1-1.547,1.261A5.075,5.075,0,0,1,618.828,17.176Zm-.29-7.813a1.587,1.587,0,0,0-1.226.512,2.651,2.651,0,0,0-.6,1.466h3.533v-.2a1.891,1.891,0,0,0-.457-1.311A1.638,1.638,0,0,0,618.538,9.362Zm8.684-4.21V7.49h1.626V9.354h-1.626V14.1a1.133,1.133,0,0,0,.2.756,1.015,1.015,0,0,0,.773.229,4.051,4.051,0,0,0,.747-.062v1.925a5.229,5.229,0,0,1-1.538.229,2.425,2.425,0,0,1-2.725-2.7V9.354h-1.389V7.49h1.389V5.152Zm7.418,12.023a4.668,4.668,0,0,1-3.406-1.283,4.561,4.561,0,0,1-1.314-3.419v-.246a5.745,5.745,0,0,1,.554-2.562,4.064,4.064,0,0,1,1.569-1.74,4.4,4.4,0,0,1,2.316-.611,3.947,3.947,0,0,1,3.072,1.23,5,5,0,0,1,1.121,3.489v1.037H632.5a2.36,2.36,0,0,0,.743,1.494,2.245,2.245,0,0,0,1.569.563,2.742,2.742,0,0,0,2.294-1.063l1.248,1.4a3.813,3.813,0,0,1-1.547,1.261A5.075,5.075,0,0,1,634.64,17.176Zm-.29-7.813a1.587,1.587,0,0,0-1.226.512,2.651,2.651,0,0,0-.6,1.466h3.533v-.2a1.891,1.891,0,0,0-.457-1.311A1.638,1.638,0,0,0,634.35,9.362Zm7.98-1.872.079,1.1a3.32,3.32,0,0,1,2.733-1.274,2.759,2.759,0,0,1,2.25.888,4.142,4.142,0,0,1,.756,2.654V17h-2.54V10.918a1.648,1.648,0,0,0-.352-1.173,1.574,1.574,0,0,0-1.169-.365,1.747,1.747,0,0,0-1.608.914V17h-2.54V7.49Zm11.7,7.638a1.666,1.666,0,0,0,1.143-.387,1.355,1.355,0,0,0,.457-1.028h2.382a3.258,3.258,0,0,1-.527,1.771,3.48,3.48,0,0,1-1.419,1.248,4.442,4.442,0,0,1-1.991.444,4.129,4.129,0,0,1-3.217-1.3,5.13,5.13,0,0,1-1.178-3.582v-.167a5.071,5.071,0,0,1,1.169-3.507,4.08,4.08,0,0,1,3.208-1.31,4,4,0,0,1,2.861,1.015,3.594,3.594,0,0,1,1.094,2.7h-2.382a1.745,1.745,0,0,0-.457-1.206,1.7,1.7,0,0,0-2.5.183,3.749,3.749,0,0,0-.453,2.1v.264a3.8,3.8,0,0,0,.448,2.113A1.549,1.549,0,0,0,654.028,15.128ZM662.141,17h-2.549V7.49h2.549Zm-2.7-11.971a1.251,1.251,0,0,1,.382-.94,1.648,1.648,0,0,1,2.079,0,1.244,1.244,0,0,1,.387.94,1.247,1.247,0,0,1-.391.949,1.629,1.629,0,0,1-2.065,0A1.247,1.247,0,0,1,659.442,5.029ZM669.743,17a2.821,2.821,0,0,1-.255-.853,3.073,3.073,0,0,1-2.4,1.028,3.376,3.376,0,0,1-2.316-.809,2.6,2.6,0,0,1-.918-2.039,2.687,2.687,0,0,1,1.121-2.32,5.529,5.529,0,0,1,3.239-.817h1.169v-.545a1.567,1.567,0,0,0-.338-1.055,1.331,1.331,0,0,0-1.068-.4,1.513,1.513,0,0,0-1.006.308,1.045,1.045,0,0,0-.365.844h-2.54a2.551,2.551,0,0,1,.51-1.529,3.37,3.37,0,0,1,1.441-1.1,5.253,5.253,0,0,1,2.092-.4A4.15,4.15,0,0,1,670.9,8.2a3.09,3.09,0,0,1,1.033,2.483V14.8a4.546,4.546,0,0,0,.378,2.048V17Zm-2.1-1.767a2.188,2.188,0,0,0,1.037-.25,1.645,1.645,0,0,0,.7-.672V12.676h-.949q-1.907,0-2.03,1.318l-.009.149a1.017,1.017,0,0,0,.334.782A1.3,1.3,0,0,0,667.643,15.233Z" transform="translate(0 405)" fill="#fff"/>
      <path id="Trazado_605267" data-name="Trazado 605267" d="M16.547,9.922H11.875v3.5h5.461V15H9.9V3.625h7.383V5.219H11.875V8.359h4.672ZM23.5,12.7a.861.861,0,0,0-.418-.773,4.445,4.445,0,0,0-1.387-.469,7.129,7.129,0,0,1-1.617-.516,2.158,2.158,0,0,1-1.422-1.992,2.25,2.25,0,0,1,.922-1.828,3.644,3.644,0,0,1,2.344-.734,3.792,3.792,0,0,1,2.449.75A2.38,2.38,0,0,1,25.3,9.086h-1.9A1.17,1.17,0,0,0,23,8.176a1.557,1.557,0,0,0-1.078-.363A1.682,1.682,0,0,0,20.9,8.1a.911.911,0,0,0-.395.773.769.769,0,0,0,.367.68,5.049,5.049,0,0,0,1.484.488,7.027,7.027,0,0,1,1.754.586,2.484,2.484,0,0,1,.945.816,2.082,2.082,0,0,1,.309,1.156,2.2,2.2,0,0,1-.945,1.848,4.031,4.031,0,0,1-2.477.707,4.371,4.371,0,0,1-1.852-.375,3.047,3.047,0,0,1-1.266-1.031,2.441,2.441,0,0,1-.453-1.414h1.844a1.338,1.338,0,0,0,.508,1.035,1.973,1.973,0,0,0,1.242.363,1.92,1.92,0,0,0,1.141-.285A.883.883,0,0,0,23.5,12.7Zm5.9-8.211V6.547h1.492V7.953H29.4v4.719a1.039,1.039,0,0,0,.191.7.888.888,0,0,0,.684.215,2.925,2.925,0,0,0,.664-.078v1.469a4.676,4.676,0,0,1-1.25.18q-2.188,0-2.187-2.414V7.953H26.109V6.547H27.5V4.492Zm7.367,3.789a4.7,4.7,0,0,0-.773-.062,1.741,1.741,0,0,0-1.758,1V15h-1.9V6.547h1.813l.047.945a2.139,2.139,0,0,1,1.906-1.1,1.777,1.777,0,0,1,.672.109Zm4.773,6.875a3.928,3.928,0,0,1-2.926-1.137,4.124,4.124,0,0,1-1.121-3.027v-.234A5.072,5.072,0,0,1,37.98,8.5a3.716,3.716,0,0,1,1.371-1.551,3.625,3.625,0,0,1,1.969-.555,3.318,3.318,0,0,1,2.668,1.1,4.658,4.658,0,0,1,.941,3.117v.766H39.406a2.539,2.539,0,0,0,.7,1.656,2.1,2.1,0,0,0,1.543.609,2.571,2.571,0,0,0,2.125-1.055l1.023.977a3.418,3.418,0,0,1-1.355,1.176A4.244,4.244,0,0,1,41.539,15.156Zm-.227-7.242a1.6,1.6,0,0,0-1.262.547,2.835,2.835,0,0,0-.613,1.523h3.617V9.844A2.307,2.307,0,0,0,42.547,8.4,1.586,1.586,0,0,0,41.313,7.914ZM48.422,15h-1.9V3h1.9Zm4.086,0h-1.9V3h1.9Zm7.117,0a2.93,2.93,0,0,1-.219-.789,3.193,3.193,0,0,1-4.3.219,2.325,2.325,0,0,1-.8-1.8,2.4,2.4,0,0,1,1-2.074,4.865,4.865,0,0,1,2.871-.723h1.164V9.281a1.481,1.481,0,0,0-.367-1.051,1.456,1.456,0,0,0-1.117-.395A1.672,1.672,0,0,0,56.8,8.16a1,1,0,0,0-.414.824h-1.9a2.107,2.107,0,0,1,.461-1.3A3.071,3.071,0,0,1,56.2,6.734a4.4,4.4,0,0,1,1.77-.344,3.547,3.547,0,0,1,2.367.746,2.661,2.661,0,0,1,.906,2.1v3.813a4.321,4.321,0,0,0,.32,1.82V15Zm-2.086-1.367a2.159,2.159,0,0,0,1.059-.273,1.827,1.827,0,0,0,.746-.734V11.031H58.32a2.8,2.8,0,0,0-1.586.367,1.189,1.189,0,0,0-.531,1.039,1.109,1.109,0,0,0,.363.871A1.407,1.407,0,0,0,57.539,13.633Z" transform="translate(357.586 1)" fill="#12263f"/>
      <path id="Trazado_605268" data-name="Trazado 605268" d="M17.824,12.523l2.891-8.9h2.172L18.793,15H16.879L12.8,3.625h2.164ZM28.676,15a2.93,2.93,0,0,1-.219-.789,3.193,3.193,0,0,1-4.3.219,2.325,2.325,0,0,1-.8-1.8,2.4,2.4,0,0,1,1-2.074,4.865,4.865,0,0,1,2.871-.723h1.164V9.281a1.481,1.481,0,0,0-.367-1.051,1.456,1.456,0,0,0-1.117-.395,1.672,1.672,0,0,0-1.062.324,1,1,0,0,0-.414.824h-1.9A2.107,2.107,0,0,1,24,7.684a3.071,3.071,0,0,1,1.254-.949,4.4,4.4,0,0,1,1.77-.344,3.547,3.547,0,0,1,2.367.746,2.661,2.661,0,0,1,.906,2.1v3.813a4.321,4.321,0,0,0,.32,1.82V15ZM26.59,13.633a2.159,2.159,0,0,0,1.059-.273,1.827,1.827,0,0,0,.746-.734V11.031H27.371a2.8,2.8,0,0,0-1.586.367,1.189,1.189,0,0,0-.531,1.039,1.109,1.109,0,0,0,.363.871A1.407,1.407,0,0,0,26.59,13.633Zm9.164.008a1.716,1.716,0,0,0,1.18-.414,1.415,1.415,0,0,0,.5-1.023h1.789a2.789,2.789,0,0,1-.492,1.473,3.228,3.228,0,0,1-1.25,1.082,3.725,3.725,0,0,1-1.7.4,3.6,3.6,0,0,1-2.812-1.148,4.555,4.555,0,0,1-1.039-3.172v-.2a4.479,4.479,0,0,1,1.031-3.09,3.571,3.571,0,0,1,2.813-1.16,3.473,3.473,0,0,1,2.457.879,3.148,3.148,0,0,1,1,2.309H37.434a1.738,1.738,0,0,0-.5-1.2,1.6,1.6,0,0,0-1.184-.469,1.671,1.671,0,0,0-1.422.668,3.408,3.408,0,0,0-.508,2.027v.3a3.465,3.465,0,0,0,.5,2.051A1.669,1.669,0,0,0,35.754,13.641ZM45.707,15a2.93,2.93,0,0,1-.219-.789,3.193,3.193,0,0,1-4.3.219,2.325,2.325,0,0,1-.8-1.8,2.4,2.4,0,0,1,1-2.074,4.865,4.865,0,0,1,2.871-.723h1.164V9.281a1.481,1.481,0,0,0-.367-1.051,1.456,1.456,0,0,0-1.117-.395,1.672,1.672,0,0,0-1.062.324,1,1,0,0,0-.414.824h-1.9a2.107,2.107,0,0,1,.461-1.3,3.071,3.071,0,0,1,1.254-.949,4.4,4.4,0,0,1,1.77-.344,3.547,3.547,0,0,1,2.367.746,2.661,2.661,0,0,1,.906,2.1v3.813a4.321,4.321,0,0,0,.32,1.82V15Zm-2.086-1.367a2.159,2.159,0,0,0,1.059-.273,1.827,1.827,0,0,0,.746-.734V11.031H44.4a2.8,2.8,0,0,0-1.586.367,1.189,1.189,0,0,0-.531,1.039,1.109,1.109,0,0,0,.363.871A1.407,1.407,0,0,0,43.621,13.633Z" transform="translate(362.586 176.5)" fill="#12263f"/>
      <g id="vaca" transform="translate(172 282.398)">
        <g id="Grupo_1013541" data-name="Grupo 1013541" transform="translate(2 19.134)">
          <path id="Trazado_601774" data-name="Trazado 601774" d="M3.713,45.131H2V30.807a9.165,9.165,0,0,1,6.619-8.775A.863.863,0,0,1,8.854,22h1.713v1.713H8.977a7.444,7.444,0,0,0-5.264,7.094Z" transform="translate(-2 -22)" fill="#a8b0bc"/>
        </g>
        <g id="Grupo_1013543" data-name="Grupo 1013543" transform="translate(19.991 42.266)">
          <g id="Grupo_1013542" data-name="Grupo 1013542">
            <path id="Trazado_601775" data-name="Trazado 601775" d="M23,49h1.713v3.427H23Z" transform="translate(-23 -49)" fill="#a8b0bc"/>
          </g>
        </g>
        <g id="Grupo_1013545" data-name="Grupo 1013545" transform="translate(23.418 42.266)">
          <g id="Grupo_1013544" data-name="Grupo 1013544">
            <path id="Trazado_601776" data-name="Trazado 601776" d="M27,49h1.713v3.427H27Z" transform="translate(-27 -49)" fill="#a8b0bc"/>
          </g>
        </g>
        <path id="Trazado_601777" data-name="Trazado 601777" d="M39.14,7.14l-.288-.432A8.488,8.488,0,0,1,37.427,2L35.5,3.445a3.749,3.749,0,0,0-.4,5.65l.615.615" transform="translate(-4.585)" fill="#a8b0bc"/>
        <path id="Trazado_601778" data-name="Trazado 601778" d="M52,7.14l.288-.432A8.488,8.488,0,0,0,53.713,2l1.928,1.445a3.749,3.749,0,0,1,.4,5.65l-.615.615" transform="translate(-7.164)" fill="#a8b0bc"/>
        <path id="Trazado_601779" data-name="Trazado 601779" d="M56.506,12h1.02a3.687,3.687,0,0,1,3.686,3.686V18H60.169a3.687,3.687,0,0,1-2.607-1.079l-.633-.634-.111-.16" transform="translate(-7.81 -1.433)" fill="#c66b60"/>
        <path id="Trazado_601780" data-name="Trazado 601780" d="M3.028,52.055A2.572,2.572,0,0,1,2,50V47l2.006,1a2.57,2.57,0,0,1,1.42,2.3v3.552Z" transform="translate(0 -6.448)" fill="#52565a"/>
        <path id="Trazado_601781" data-name="Trazado 601781" d="M30.281,45c0,2.365-2.3,4.284-5.14,4.284S20,47.365,20,45" transform="translate(-2.579 -6.161)" fill="#c66b60"/>
        <path id="Trazado_601782" data-name="Trazado 601782" d="M47.578,53.961V53.84l.281-1.124A48,48,0,0,0,49.291,41.08v-.154A11.109,11.109,0,0,1,46.045,44.3l-.181.121-.055.043q-.136,4.245-.6,8.47l-.152,1.362a3.239,3.239,0,0,1,2.525-.33Z" transform="translate(-6.169 -5.577)" fill="#a8b0bc"/>
        <path id="Trazado_601783" data-name="Trazado 601783" d="M16.314,54.418l-.031-.131.372-2.6a48.185,48.185,0,0,0,.485-6.82v-.326c-.308-.091-.62-.166-.925-.267l-.677-.225a40.267,40.267,0,0,0-2.68,10.234l0,.009H12a3.357,3.357,0,0,1,1.718.473,3.237,3.237,0,0,1,2.6-.342Z" transform="translate(-1.433 -6.024)" fill="#a8b0bc"/>
        <path id="Trazado_601784" data-name="Trazado 601784" d="M45.42,30.848v.037a11.137,11.137,0,0,1-4.96,9.267l-.181.12-.055.043q-.136,4.245-.6,8.47l-.2,1.768H36l-.25-1.126a61.366,61.366,0,0,1-1.371-9.984l0-.027h-.091l-.788.263a28.284,28.284,0,0,1-8.94,1.45h-.248a28.289,28.289,0,0,1-8.941-1.45l-.677-.225a40.267,40.267,0,0,0-2.68,10.234l-.014.115-2.409.489L6.867,39.415,6.091,27.772A7.719,7.719,0,0,1,6.3,25.39l.092-.366a7.709,7.709,0,0,1,6.782-5.809L26.572,18v-2.32A3.677,3.677,0,0,1,30.249,12h2.32" transform="translate(-0.584 -1.433)" fill="#e3e4e5"/>
        <path id="Trazado_601785" data-name="Trazado 601785" d="M35.857,25.848l-.84-11.759c-.011-.157-.017-.314-.017-.471A6.617,6.617,0,0,1,41.617,7H47.23a6.617,6.617,0,0,1,6.618,6.617c0,.158-.006.314-.017.471l-.84,11.759" transform="translate(-4.728 -0.716)" fill="#ebf7fe"/>
        <path id="Trazado_601786" data-name="Trazado 601786" d="M34.284,14.334A6.571,6.571,0,0,1,34.715,12H33.686A3.687,3.687,0,0,0,30,15.686V18h1.043a3.687,3.687,0,0,0,2.607-1.079l.633-.634.09-.451L34.3,14.806c-.01-.157-.016-.314-.016-.472Z" transform="translate(-4.012 -1.433)" fill="#c66b60"/>
        <path id="Trazado_601787" data-name="Trazado 601787" d="M42,24a7.982,7.982,0,0,1,2.57.418A7.982,7.982,0,0,1,47.137,24c3.312,0,6,1.918,6,4.284s-2.685,4.284-6,4.284a7.982,7.982,0,0,1-2.57-.418,7.982,7.982,0,0,1-2.57.418c-3.312,0-6-1.918-6-4.284S38.685,24,42,24Z" transform="translate(-4.871 -3.152)" fill="#c66b60"/>
        <path id="Trazado_601788" data-name="Trazado 601788" d="M48.807,7h-.486a6.848,6.848,0,0,0,6.763,11.615l.323-4.526c.011-.157.017-.314.017-.471A6.617,6.617,0,0,0,48.807,7Z" transform="translate(-6.304 -0.716)" fill="#52565a"/>
        <path id="Trazado_601789" data-name="Trazado 601789" d="M25.427,30a3.427,3.427,0,0,1,3.427,3.427c0,.043-.011.082-.013.125a3.389,3.389,0,0,1,.87-.125,3.427,3.427,0,1,1-3.427,3.427c0-.043.011-.082.013-.125a3.389,3.389,0,0,1-.87.125,3.427,3.427,0,0,1,0-6.854Z" transform="translate(-2.866 -4.012)" fill="#52565a"/>
        <g id="Grupo_1013546" data-name="Grupo 1013546" transform="translate(43.123 23.418)">
          <path id="Trazado_601790" data-name="Trazado 601790" d="M51.285,29.57a1.285,1.285,0,1,1,1.285-1.285A1.287,1.287,0,0,1,51.285,29.57Z" transform="translate(-50 -27)" fill="#e47c6e"/>
        </g>
        <g id="Grupo_1013547" data-name="Grupo 1013547" transform="translate(33.699 23.418)">
          <path id="Trazado_601791" data-name="Trazado 601791" d="M40.285,29.57a1.285,1.285,0,1,1,1.285-1.285A1.287,1.287,0,0,1,40.285,29.57Z" transform="translate(-39 -27)" fill="#e47c6e"/>
        </g>
        <g id="Grupo_1013548" data-name="Grupo 1013548" transform="translate(43.979 13.137)">
          <path id="Trazado_601792" data-name="Trazado 601792" d="M52.285,17.57a1.285,1.285,0,1,1,1.285-1.285A1.287,1.287,0,0,1,52.285,17.57Z" transform="translate(-51 -15)" fill="#243242"/>
        </g>
        <g id="Grupo_1013549" data-name="Grupo 1013549" transform="translate(32.842 13.137)">
          <path id="Trazado_601793" data-name="Trazado 601793" d="M39.285,17.57a1.285,1.285,0,1,1,1.285-1.285A1.287,1.287,0,0,1,39.285,17.57Z" transform="translate(-38 -15)" fill="#243242"/>
        </g>
        <path id="Trazado_601794" data-name="Trazado 601794" d="M15.427,56a3.427,3.427,0,0,1,3.427,3.427V61.14H12V59.427A3.427,3.427,0,0,1,15.427,56Z" transform="translate(-1.433 -7.737)" fill="#243242"/>
        <path id="Trazado_601795" data-name="Trazado 601795" d="M11.427,56a3.427,3.427,0,0,1,3.427,3.427V61.14H8V59.427A3.427,3.427,0,0,1,11.427,56Z" transform="translate(-0.86 -7.737)" fill="#52565a"/>
        <g id="Grupo_1013550" data-name="Grupo 1013550" transform="translate(9.71 50.833)">
          <path id="Trazado_601796" data-name="Trazado 601796" d="M11,59h1.713v2.57H11Z" transform="translate(-11 -59)" fill="#243242"/>
        </g>
        <path id="Trazado_601797" data-name="Trazado 601797" d="M46.427,56a3.427,3.427,0,0,1,3.427,3.427V61.14H43V59.427A3.427,3.427,0,0,1,46.427,56Z" transform="translate(-5.874 -7.737)" fill="#243242"/>
        <path id="Trazado_601798" data-name="Trazado 601798" d="M42.427,56a3.427,3.427,0,0,1,3.427,3.427V61.14H39V59.427A3.427,3.427,0,0,1,42.427,56Z" transform="translate(-5.301 -7.737)" fill="#52565a"/>
        <g id="Grupo_1013551" data-name="Grupo 1013551" transform="translate(36.269 50.833)">
          <path id="Trazado_601799" data-name="Trazado 601799" d="M42,59h1.713v2.57H42Z" transform="translate(-42 -59)" fill="#243242"/>
        </g>
        <g id="Grupo_1013552" data-name="Grupo 1013552" transform="translate(5.603 17.06)">
          <path id="Trazado_601800" data-name="Trazado 601800" d="M15,22.51a4.284,4.284,0,1,0,7.394-2.931l-6.7.609A4.257,4.257,0,0,0,15,22.51Z" transform="translate(-7.465 -19.579)" fill="#52565a"/>
          <path id="Trazado_601801" data-name="Trazado 601801" d="M6.886,32a4.257,4.257,0,0,0-.681.069l.565,8.487c.039,0,.076.012.116.012a4.284,4.284,0,0,0,0-8.567Z" transform="translate(-6.205 -21.359)" fill="#52565a"/>
        </g>
      </g>
      <g id="perro" transform="translate(458.972 283.008)">
        <path id="Trazado_601810" data-name="Trazado 601810" d="M336.13,258.241a1.02,1.02,0,0,0-1.972-.047,15.049,15.049,0,0,1-1.276,3.059,11.684,11.684,0,0,1-5.516,5.1l2.728,6.285a13.285,13.285,0,0,0,6.035-14.394Zm0,0" transform="translate(-296.395 -233.1)" fill="#ffaf5c"/>
        <path id="Trazado_601811" data-name="Trazado 601811" d="M297.468,321.715a5.508,5.508,0,0,0-6.932-.762l-4.1,17.256h4.145a29.264,29.264,0,0,0,4.517-3.15,12.522,12.522,0,0,0,4.087-6.271,7.6,7.6,0,0,0-1.716-7.073Zm0,0" transform="translate(-259.335 -289.77)" fill="#d67f3e"/>
        <path id="Trazado_601812" data-name="Trazado 601812" d="M290.535,320.954l-4.1,17.256h4.145q.24-.141.478-.285l4.244-12.764a9.365,9.365,0,0,0,.325-4.665,5.244,5.244,0,0,0-5.091.457Zm0,0" transform="translate(-259.334 -289.771)" fill="#b25d24"/>
        <path id="Trazado_601813" data-name="Trazado 601813" d="M1.952,321.715a5.508,5.508,0,0,1,6.932-.762l4.1,17.256H8.84a29.264,29.264,0,0,1-4.517-3.15,12.525,12.525,0,0,1-4.087-6.271,7.6,7.6,0,0,1,1.716-7.073Zm0,0" transform="translate(0 -289.77)" fill="#d67f3e"/>
        <path id="Trazado_601814" data-name="Trazado 601814" d="M138.379,214.926h13.9v28.106h-13.9Zm0,0" transform="translate(-125.287 -194.592)" fill="#d67f3e"/>
        <path id="Trazado_601815" data-name="Trazado 601815" d="M166.426,372.467h8.593V362.183a4.3,4.3,0,1,0-8.593,0v10.284Zm0,0" transform="translate(-150.68 -324.028)" fill="#efeec5"/>
        <path id="Trazado_601816" data-name="Trazado 601816" d="M262.077,236.113l-4.824,2.355v23.746h4.205l4.964-14.93a9.392,9.392,0,0,0-4.346-11.171Zm0,0" transform="translate(-232.915 -213.774)" fill="#ffaf5c"/>
        <path id="Trazado_601817" data-name="Trazado 601817" d="M69.249,236.113l4.823,2.355v23.746h-4.2L64.9,247.284a9.393,9.393,0,0,1,4.346-11.171Zm0,0" transform="translate(-58.326 -213.774)" fill="#ffaf5c"/>
        <path id="Trazado_601818" data-name="Trazado 601818" d="M72.563,460.293a4.893,4.893,0,0,0-4.842,4.188.623.623,0,0,0,.621.7h8.441a.623.623,0,0,0,.621-.7A4.893,4.893,0,0,0,72.563,460.293Zm0,0" transform="translate(-61.308 -416.746)" fill="#f2f2f2"/>
        <path id="Trazado_601819" data-name="Trazado 601819" d="M116.029,464.481a4.9,4.9,0,0,0-5.654-4.12c1.489.349,2.658,2.018,2.874,4.12.038.373-.174.7-.443.7h2.6A.623.623,0,0,0,116.029,464.481Zm0,0" transform="translate(-99.932 -416.746)" fill="#c9c9c9"/>
        <path id="Trazado_601820" data-name="Trazado 601820" d="M258.332,460.293a4.893,4.893,0,0,0-4.841,4.188.623.623,0,0,0,.621.7h8.441a.623.623,0,0,0,.621-.7A4.893,4.893,0,0,0,258.332,460.293Zm0,0" transform="translate(-229.502 -416.746)" fill="#f2f2f2"/>
        <path id="Trazado_601821" data-name="Trazado 601821" d="M301.8,464.481a4.9,4.9,0,0,0-5.653-4.12c1.488.349,2.658,2.018,2.874,4.12.038.373-.174.7-.443.7h2.6A.623.623,0,0,0,301.8,464.481Zm0,0" transform="translate(-268.126 -416.746)" fill="#c9c9c9"/>
        <g id="Grupo_1013562" data-name="Grupo 1013562" transform="translate(8.382 45.866)">
          <path id="Trazado_601822" data-name="Trazado 601822" d="M275.82,486.8a.656.656,0,0,1,0-.086,9.139,9.139,0,0,1,.126-1.053.731.731,0,0,0-1.438-.261,10.637,10.637,0,0,0-.147,1.223,1.918,1.918,0,0,0,.1.75H276.1A.73.73,0,0,0,275.82,486.8Zm0,0" transform="translate(-256.781 -484.804)" fill="#403f4f"/>
          <path id="Trazado_601823" data-name="Trazado 601823" d="M316.715,487.377h1.638a1.913,1.913,0,0,0,.1-.751,10.731,10.731,0,0,0-.147-1.221.731.731,0,0,0-1.438.261,9.217,9.217,0,0,1,.126,1.054.583.583,0,0,1,0,.085A.73.73,0,0,0,316.715,487.377Zm0,0" transform="translate(-295.133 -484.804)" fill="#403f4f"/>
          <path id="Trazado_601824" data-name="Trazado 601824" d="M90.054,486.805a.667.667,0,0,1,0-.086,9.219,9.219,0,0,1,.126-1.053.731.731,0,0,0-1.438-.261,10.574,10.574,0,0,0-.147,1.221,1.909,1.909,0,0,0,.1.752h1.638A.73.73,0,0,0,90.054,486.805Zm0,0" transform="translate(-88.59 -484.804)" fill="#403f4f"/>
          <path id="Trazado_601825" data-name="Trazado 601825" d="M130.941,487.377h1.638a1.917,1.917,0,0,0,.1-.751,10.649,10.649,0,0,0-.147-1.221.731.731,0,0,0-1.438.261,9.227,9.227,0,0,1,.126,1.053.608.608,0,0,1,0,.087A.729.729,0,0,0,130.941,487.377Zm0,0" transform="translate(-126.934 -484.804)" fill="#403f4f"/>
        </g>
        <path id="Trazado_601826" data-name="Trazado 601826" d="M272.512,2.207,275.583.435A3.243,3.243,0,0,1,277.2,0h1.8a7.179,7.179,0,0,1,7.162,6.685l.244,3.522a3.365,3.365,0,0,1-4.816,3.264l-6.661-3.207Zm0,0" transform="translate(-246.73)" fill="#d67f3e"/>
        <path id="Trazado_601827" data-name="Trazado 601827" d="M282.21,19.413l-3.869-7.231A7.073,7.073,0,0,0,274.859,9l-2.348,1.355,2.422,8.057,6.661,3.207a3.366,3.366,0,0,0,1.471.333,8.093,8.093,0,0,0-.857-2.544Zm0,0" transform="translate(-246.729 -8.153)" fill="#b25d24"/>
        <path id="Trazado_601828" data-name="Trazado 601828" d="M18.068,2.207,15,.435A3.243,3.243,0,0,0,13.377,0h-1.8A7.18,7.18,0,0,0,4.412,6.685l-.244,3.522a3.365,3.365,0,0,0,4.816,3.264l6.661-3.207Zm0,0" transform="translate(-3.766)" fill="#d67f3e"/>
        <path id="Trazado_601829" data-name="Trazado 601829" d="M81.454,25.258l-4.407-1.973a7.946,7.946,0,0,1-4.7-7.253V14.787a8.1,8.1,0,0,1,.958-3.821l3.869-7.231A7.072,7.072,0,0,1,83.41,0h4.268a7.073,7.073,0,0,1,6.236,3.736l3.869,7.231a8.1,8.1,0,0,1,.958,3.821v1.245a7.946,7.946,0,0,1-4.7,7.253l-4.407,1.973a10.011,10.011,0,0,1-8.18,0Zm0,0" transform="translate(-65.502 0)" fill="#ffaf5c"/>
        <path id="Trazado_601830" data-name="Trazado 601830" d="M120.051,15.709l-3.869-7.231a7.07,7.07,0,0,0-3.636-3.24,7.058,7.058,0,0,1,1.112,1.539l3.869,7.231a8.1,8.1,0,0,1,.958,3.82v1.245a7.947,7.947,0,0,1-4.7,7.253L109.379,28.3a10.01,10.01,0,0,1-8.18,0l-4.257-1.905a7.933,7.933,0,0,0,2.373,1.635L103.722,30a10.01,10.01,0,0,0,8.18,0l4.407-1.973a7.946,7.946,0,0,0,4.7-7.253V19.53a8.1,8.1,0,0,0-.958-3.821Zm0,0" transform="translate(-87.77 -4.743)" fill="#d67f3e"/>
        <path id="Trazado_601831" data-name="Trazado 601831" d="M146.57,123.966a.731.731,0,0,1-.731-.731v-.585a.731.731,0,1,1,1.462,0v.585A.731.731,0,0,1,146.57,123.966Zm0,0" transform="translate(-132.041 -110.384)" fill="#403f4f"/>
        <path id="Trazado_601832" data-name="Trazado 601832" d="M263.121,123.966a.731.731,0,0,1-.731-.731v-.585a.731.731,0,1,1,1.462,0v.585A.731.731,0,0,1,263.121,123.966Zm0,0" transform="translate(-237.566 -110.384)" fill="#403f4f"/>
        <path id="Trazado_601833" data-name="Trazado 601833" d="M178.078,223.608a3.94,3.94,0,1,1-3.94-3.94A3.94,3.94,0,0,1,178.078,223.608Zm0,0" transform="translate(-154.096 -198.886)" fill="#e573b7"/>
        <path id="Trazado_601834" data-name="Trazado 601834" d="M126.55,181.016h-9.17a4.807,4.807,0,1,0,4.585,6.254,4.807,4.807,0,1,0,4.585-6.254Zm0,0" transform="translate(-101.924 -163.891)" fill="#efeec5"/>
        <path id="Trazado_601835" data-name="Trazado 601835" d="M232.786,181.016H229.91a4.807,4.807,0,0,1,1.438,9.395,4.807,4.807,0,1,0,1.438-9.395Zm0,0" transform="translate(-208.159 -163.891)" fill="#c9c793"/>
        <path id="Trazado_601836" data-name="Trazado 601836" d="M173.75,148.938c-1.981,0-3.98.637-3.98,2.061a3.991,3.991,0,1,0,7.96,0C177.73,149.576,175.731,148.938,173.75,148.938Zm0,0" transform="translate(-153.708 -134.847)" fill="#5b586d"/>
      </g>
      <path id="estrella" d="M45.192,16.9a2.4,2.4,0,0,0-2.073-1.656L30.041,14.057,24.87,1.953a2.408,2.408,0,0,0-4.429,0l-5.171,12.1L2.19,15.244A2.411,2.411,0,0,0,.823,19.458l9.885,8.669L7.793,40.968a2.4,2.4,0,0,0,3.581,2.6l11.281-6.742,11.277,6.742a2.408,2.408,0,0,0,3.583-2.6L34.6,28.127l9.885-8.668a2.409,2.409,0,0,0,.706-2.56Zm0,0" transform="translate(182.618 96.351)" fill="#ffc107"/>
      <g id="signo-de-interrogacion" transform="translate(389.977 96.842)">
        <g id="Grupo_1013555" data-name="Grupo 1013555" transform="translate(66.054 0.001)">
          <g id="Grupo_1013554" data-name="Grupo 1013554">
            <g id="Grupo_1013553" data-name="Grupo 1013553">
              <path id="Trazado_601802" data-name="Trazado 601802" d="M192.4,61.094l8.866-6.945,1.384-12.091L192.4,36.416l-4.161,5.718a7.037,7.037,0,0,1-.806,12.928,9.989,9.989,0,0,0-6.626,9.415v1.817a4.285,4.285,0,0,0,4.284,4.285h6.267Z" transform="translate(-169.484 -32.824)" fill="#fe9738"/>
              <path id="Trazado_601803" data-name="Trazado 601803" d="M76.605,19.892H70.339a4.285,4.285,0,0,1-4.285-4.285A15.594,15.594,0,0,1,82.7.038h6.267l-4.459,4.5" transform="translate(-66.054 -0.005)" fill="#fe9738"/>
            </g>
            <path id="Trazado_601804" data-name="Trazado 601804" d="M191.352,424.763h-6.266a4.285,4.285,0,0,0-4.285,4.285v.036a4.285,4.285,0,0,0,4.285,4.285h5.5" transform="translate(-169.482 -382.865)" fill="#fe9738"/>
          </g>
        </g>
        <g id="Grupo_1013561" data-name="Grupo 1013561" transform="translate(72.32 0)">
          <g id="Grupo_1013560" data-name="Grupo 1013560" transform="translate(0 0)">
            <g id="Grupo_1013557" data-name="Grupo 1013557" transform="translate(0 0)">
              <g id="Grupo_1013556" data-name="Grupo 1013556">
                <path id="Trazado_601805" data-name="Trazado 601805" d="M145.187,37.759a4.285,4.285,0,0,1-4.285-4.285V31.656a9.986,9.986,0,0,1,6.627-9.414,7.035,7.035,0,1,0-9.308-7.621,7.167,7.167,0,0,0-.068.986,4.285,4.285,0,1,1-8.569,0,15.6,15.6,0,1,1,20.8,14.714,1.4,1.4,0,0,0-.914,1.334v1.817A4.285,4.285,0,0,1,145.187,37.759Z" transform="translate(-129.584 -0.005)" fill="#ffd15b"/>
              </g>
              <path id="Trazado_601806" data-name="Trazado 601806" d="M248.615,433.369a4.285,4.285,0,0,1-4.285-4.285v-.035a4.285,4.285,0,1,1,8.569,0v.035A4.285,4.285,0,0,1,248.615,433.369Z" transform="translate(-233.012 -382.866)" fill="#ffd15b"/>
            </g>
            <g id="Grupo_1013559" data-name="Grupo 1013559">
              <g id="Grupo_1013558" data-name="Grupo 1013558">
                <path id="Trazado_601807" data-name="Trazado 601807" d="M133.521,13.433a15.618,15.618,0,0,0-.15,2.17,4.282,4.282,0,0,0,2.391,3.844,4.285,4.285,0,0,1-6.179-3.844A15.606,15.606,0,0,1,146.229.034q.437.029.867.083a15.675,15.675,0,0,0-13.575,13.316Z" transform="translate(-129.583 0)" fill="#ffc344"/>
                <path id="Trazado_601808" data-name="Trazado 601808" d="M254.753,100.552a9.989,9.989,0,0,0-6.628,9.415v1.817a4.283,4.283,0,0,0,2.393,3.844,4.285,4.285,0,0,1-6.179-3.844v-1.817a9.987,9.987,0,0,1,6.628-9.415,7.036,7.036,0,0,0-.437-13.406,7.032,7.032,0,0,1,4.223,13.406Z" transform="translate(-233.02 -78.314)" fill="#ffc344"/>
              </g>
              <path id="Trazado_601809" data-name="Trazado 601809" d="M250.517,432.919a4.285,4.285,0,0,1-6.179-3.844v-.036a4.285,4.285,0,0,1,6.179-3.844,4.288,4.288,0,0,0-2.393,3.844v.036A4.283,4.283,0,0,0,250.517,432.919Z" transform="translate(-233.019 -382.857)" fill="#ffc344"/>
            </g>
          </g>
        </g>
      </g>
    </g>
  </g>
</svg>
