<svg xmlns="http://www.w3.org/2000/svg" xmlns:xlink="http://www.w3.org/1999/xlink" width="1028.616" height="798.465" viewBox="0 0 1028.616 798.465">
  <defs>
    <clipPath id="clip-path">
      <rect id="Rectángulo_43663" data-name="Rectángulo 43663" width="174.387" height="398.3" fill="none"/>
    </clipPath>
  </defs>
  <g id="Grupo_1015202" data-name="Grupo 1015202" transform="translate(-286.384 -565)">
    <g id="Grupo_1014705" data-name="Grupo 1014705">
      <path id="Trazado_604748" data-name="Trazado 604748" d="M0,0H55V425H0Z" transform="translate(630 574)" fill="#a222e6"/>
    </g>
    <g id="Grupo_1015172" data-name="Grupo 1015172">
      <g id="Grupo_1014704" data-name="Grupo 1014704">
        <path id="Trazado_604955" data-name="Trazado 604955" d="M14,0H176a14,14,0,0,1,14,14V54a14,14,0,0,1-14,14H14A14,14,0,0,1,0,54V14A14,14,0,0,1,14,0Z" transform="translate(705 565)" fill="#e1f5d6"/>
        <path id="Trazado_604956" data-name="Trazado 604956" d="M14,0H176a14,14,0,0,1,14,14V54a14,14,0,0,1-14,14H14A14,14,0,0,1,0,54V14A14,14,0,0,1,14,0Z" transform="translate(705 687)" fill="#e1f5d6"/>
        <path id="Trazado_604957" data-name="Trazado 604957" d="M15,0H175a15,15,0,0,1,15,15V53a15,15,0,0,1-15,15H15A15,15,0,0,1,0,53V15A15,15,0,0,1,15,0Z" transform="translate(705 809)" fill="#e1f5d6"/>
        <path id="Trazado_604958" data-name="Trazado 604958" d="M17,0H173a17,17,0,0,1,17,17V51a17,17,0,0,1-17,17H17A17,17,0,0,1,0,51V17A17,17,0,0,1,17,0Z" transform="translate(705 931)" fill="#e1f5d6"/>
        <path id="Trazado_604959" data-name="Trazado 604959" d="M0,0H192.661V192.661H0Z" transform="translate(663.768 1189.232) rotate(-45)" fill="#dde2ed"/>
        <path id="Trazado_604960" data-name="Trazado 604960" d="M0,0V30" transform="translate(800.5 643.5)" fill="none" stroke="#60cb28" stroke-width="2"/>
        <path id="Trazado_604961" data-name="Trazado 604961" d="M0,0V30" transform="translate(800.5 762)" fill="none" stroke="#60cb28" stroke-width="2"/>
        <path id="Trazado_604962" data-name="Trazado 604962" d="M0,0V30" transform="translate(800.5 884)" fill="none" stroke="#60cb28" stroke-width="2"/>
        <path id="Trazado_604963" data-name="Trazado 604963" d="M0,0V30" transform="translate(800.5 1009.5)" fill="none" stroke="#60cb28" stroke-width="2"/>
        <path id="Trazado_604964" data-name="Trazado 604964" d="M0,0V30" transform="translate(800.5 1332.465)" fill="none" stroke="#60cb28" stroke-width="2"/>
        <path id="Trazado_604965" data-name="Trazado 604965" d="M0,0V290.732" transform="translate(538.5 899.5)" fill="none" stroke="#60cb28" stroke-width="2"/>
        <path id="Trazado_604966" data-name="Trazado 604966" d="M140,0H0" transform="translate(926.5 721.5)" fill="none" stroke="#60cb28" stroke-width="2"/>
        <path id="Trazado_604967" data-name="Trazado 604967" d="M261,0H0" transform="translate(539 900)" fill="none" stroke="#60cb28" stroke-width="2"/>
        <path id="Trazado_604968" data-name="Trazado 604968" d="M140,0H0" transform="translate(926.5 611.018)" fill="none" stroke="#60cb28" stroke-width="2"/>
        <path id="Trazado_604969" data-name="Trazado 604969" d="M266,0H0" transform="translate(800.5 1362.465)" fill="none" stroke="#60cb28" stroke-width="2"/>
        <path id="Trazado_604970" data-name="Trazado 604970" d="M108,0H0" transform="translate(538.5 1189.232)" fill="none" stroke="#60cb28" stroke-width="2"/>
        <path id="Trazado_604971" data-name="Trazado 604971" d="M0,0V640.965" transform="translate(1066.5 721.5)" fill="none" stroke="#60cb28" stroke-width="2"/>
        <path id="Trazado_604972" data-name="Trazado 604972" d="M0,0V114.982" transform="translate(1066.5 610.518)" fill="none" stroke="#60cb28" stroke-width="2"/>
        <path id="Trazado_604973" data-name="Trazado 604973" d="M4.5,0,9,8H0Z" transform="translate(805 680) rotate(180)" fill="#60cb28"/>
        <path id="Trazado_604974" data-name="Trazado 604974" d="M4.5,0,9,8H0Z" transform="translate(805 798.5) rotate(180)" fill="#60cb28"/>
        <path id="Trazado_604975" data-name="Trazado 604975" d="M4.5,0,9,8H0Z" transform="translate(918.5 725.5) rotate(-90)" fill="#60cb28"/>
        <path id="Trazado_604976" data-name="Trazado 604976" d="M4.5,0,9,8H0Z" transform="translate(918.5 615.018) rotate(-90)" fill="#60cb28"/>
        <path id="Trazado_604747" data-name="Trazado 604747" d="M4.5,0,9,8H0Z" transform="translate(805 920.5) rotate(180)" fill="#60cb28"/>
        <path id="Trazado_604977" data-name="Trazado 604977" d="M4.5,0,9,8H0Z" transform="translate(805 1046) rotate(180)" fill="#60cb28"/>
        <path id="Trazado_604978" data-name="Trazado 604978" d="M4.052,12.658V17H.967V4.2H6.073a5.948,5.948,0,0,1,2.6.541,4.074,4.074,0,0,1,1.749,1.538,4.2,4.2,0,0,1,.62,2.263A3.7,3.7,0,0,1,9.7,11.538a5.561,5.561,0,0,1-3.678,1.121Zm0-2.382H6.073A1.906,1.906,0,0,0,7.44,9.828a1.665,1.665,0,0,0,.47-1.266A2.059,2.059,0,0,0,7.427,7.13a1.712,1.712,0,0,0-1.318-.545H4.052ZM15.671,17H12.7V3.5h2.971Zm7.181,0a3.344,3.344,0,0,1-.281-.853,2.754,2.754,0,0,1-2.285,1.028A3.374,3.374,0,0,1,18,16.363a2.588,2.588,0,0,1-.94-2.043A2.66,2.66,0,0,1,18.2,11.981a5.821,5.821,0,0,1,3.322-.791h.914v-.5q0-1.316-1.134-1.316a.927.927,0,0,0-1.055,1.042H17.288a2.655,2.655,0,0,1,1.173-2.239,4.931,4.931,0,0,1,2.993-.86,4.323,4.323,0,0,1,2.874.888,3.086,3.086,0,0,1,1.081,2.435v4.21a4.311,4.311,0,0,0,.4,2V17ZM21,15.066a1.652,1.652,0,0,0,.918-.237,1.487,1.487,0,0,0,.523-.536V12.772h-.861q-1.547,0-1.547,1.389a.848.848,0,0,0,.272.655A.986.986,0,0,0,21,15.066ZM29.769,7.49l.1,1.116a3.225,3.225,0,0,1,2.716-1.292A2.713,2.713,0,0,1,34.8,8.2a4.226,4.226,0,0,1,.76,2.672V17H32.59V11a1.6,1.6,0,0,0-.29-1.059A1.342,1.342,0,0,0,31.245,9.6a1.413,1.413,0,0,0-1.292.686V17H26.991V7.49ZM41.8,17.176a4.889,4.889,0,0,1-3.542-1.305,4.507,4.507,0,0,1-1.354-3.4v-.246a5.84,5.84,0,0,1,.541-2.575,3.955,3.955,0,0,1,1.578-1.727,4.763,4.763,0,0,1,2.461-.611,4.117,4.117,0,0,1,3.164,1.244,4.887,4.887,0,0,1,1.16,3.467v1.151H39.92a2.135,2.135,0,0,0,.694,1.257A2.066,2.066,0,0,0,42,14.891a2.662,2.662,0,0,0,2.2-.984l1.354,1.6a3.784,3.784,0,0,1-1.569,1.217A5.3,5.3,0,0,1,41.8,17.176ZM41.467,9.6q-1.3,0-1.547,1.723h2.988v-.229a1.467,1.467,0,0,0-.36-1.1A1.434,1.434,0,0,0,41.467,9.6ZM52.356,17a3.344,3.344,0,0,1-.281-.853,2.754,2.754,0,0,1-2.285,1.028,3.374,3.374,0,0,1-2.285-.813,2.588,2.588,0,0,1-.94-2.043,2.66,2.66,0,0,1,1.143-2.338,5.821,5.821,0,0,1,3.322-.791h.914v-.5q0-1.316-1.134-1.316a.927.927,0,0,0-1.055,1.042H46.793a2.655,2.655,0,0,1,1.173-2.239,4.931,4.931,0,0,1,2.993-.86,4.323,4.323,0,0,1,2.874.888,3.086,3.086,0,0,1,1.081,2.435v4.21a4.311,4.311,0,0,0,.4,2V17ZM50.5,15.066a1.652,1.652,0,0,0,.918-.237,1.487,1.487,0,0,0,.523-.536V12.772h-.861q-1.547,0-1.547,1.389a.848.848,0,0,0,.272.655A.986.986,0,0,0,50.5,15.066Zm10.072-.176a1.317,1.317,0,0,0,.967-.338,1.241,1.241,0,0,0,.334-.945h2.777a3.288,3.288,0,0,1-1.121,2.566,4.168,4.168,0,0,1-2.887,1,4.22,4.22,0,0,1-3.27-1.3,5.125,5.125,0,0,1-1.2-3.6v-.123A5.792,5.792,0,0,1,56.711,9.6a3.872,3.872,0,0,1,1.534-1.7,4.573,4.573,0,0,1,2.373-.593,4.116,4.116,0,0,1,2.944,1.028,3.647,3.647,0,0,1,1.09,2.786H61.875A1.626,1.626,0,0,0,61.515,10a1.244,1.244,0,0,0-.967-.4Q59.4,9.6,59.2,11.067a10.357,10.357,0,0,0-.062,1.283,4.068,4.068,0,0,0,.343,1.986A1.187,1.187,0,0,0,60.574,14.891ZM69.029,17H66.059V7.49h2.971ZM65.883,5.038A1.322,1.322,0,0,1,66.34,4a1.943,1.943,0,0,1,2.373,0,1.322,1.322,0,0,1,.457,1.037,1.322,1.322,0,0,1-.457,1.037,1.943,1.943,0,0,1-2.373,0A1.322,1.322,0,0,1,65.883,5.038Zm4.6,7.119a5.613,5.613,0,0,1,.554-2.536,3.96,3.96,0,0,1,1.591-1.709,4.791,4.791,0,0,1,2.435-.6,4.373,4.373,0,0,1,3.366,1.323,5.076,5.076,0,0,1,1.23,3.6v.105a4.925,4.925,0,0,1-1.235,3.529,4.384,4.384,0,0,1-3.344,1.305,4.434,4.434,0,0,1-3.261-1.217,4.761,4.761,0,0,1-1.327-3.3Zm2.962.185a3.538,3.538,0,0,0,.413,1.934,1.376,1.376,0,0,0,1.222.615q1.582,0,1.617-2.435v-.3q0-2.558-1.635-2.558-1.485,0-1.608,2.206ZM75.463,3.5h3.129L76.148,6.26l-2.417,0Zm8.218,3.99.1,1.116a3.225,3.225,0,0,1,2.716-1.292,2.713,2.713,0,0,1,2.219.888,4.226,4.226,0,0,1,.76,2.672V17H86.5V11a1.6,1.6,0,0,0-.29-1.059A1.342,1.342,0,0,0,85.157,9.6a1.413,1.413,0,0,0-1.292.686V17H80.9V7.49Z" transform="translate(749 587)" fill="#12263f"/>
        <path id="Trazado_604979" data-name="Trazado 604979" d="M11.8,10.865a7.546,7.546,0,0,1-.694,3.313A5.132,5.132,0,0,1,9.136,16.4a5.494,5.494,0,0,1-2.914.778,5.572,5.572,0,0,1-2.9-.751,5.123,5.123,0,0,1-1.973-2.149,7.329,7.329,0,0,1-.743-3.208v-.721A7.58,7.58,0,0,1,1.3,7.029,5.119,5.119,0,0,1,3.274,4.81a5.533,5.533,0,0,1,2.931-.782,5.479,5.479,0,0,1,2.9.773A5.211,5.211,0,0,1,11.087,7a7.362,7.362,0,0,1,.716,3.274Zm-3.138-.536a5.381,5.381,0,0,0-.637-2.9,2.044,2.044,0,0,0-1.824-.989q-2.32,0-2.452,3.48l-.009.94a5.535,5.535,0,0,0,.624,2.892,2.041,2.041,0,0,0,1.854,1.011,2.016,2.016,0,0,0,1.8-.993,5.383,5.383,0,0,0,.642-2.856Zm10.345-.158-.976-.07a1.752,1.752,0,0,0-1.793.879V17H13.28V7.49h2.777l.1,1.222a2.294,2.294,0,0,1,2.083-1.4,2.888,2.888,0,0,1,.826.105Zm.554,2a6.421,6.421,0,0,1,.475-2.549A3.821,3.821,0,0,1,21.4,7.917a3.591,3.591,0,0,1,2.065-.6,2.855,2.855,0,0,1,2.32,1l.105-.826h2.689V16.64A4.009,4.009,0,0,1,28,18.824a3.75,3.75,0,0,1-1.692,1.424,6.219,6.219,0,0,1-2.566.5,5.365,5.365,0,0,1-2.026-.4,3.657,3.657,0,0,1-1.5-1.028l1.239-1.74a2.716,2.716,0,0,0,2.18.976A1.764,1.764,0,0,0,25.6,16.534v-.3a2.781,2.781,0,0,1-2.153.94,3.437,3.437,0,0,1-2.812-1.332,5.517,5.517,0,0,1-1.072-3.564Zm2.971.185a3.383,3.383,0,0,0,.439,1.85,1.387,1.387,0,0,0,1.23.681,1.573,1.573,0,0,0,1.4-.642v-4a1.534,1.534,0,0,0-1.38-.65,1.4,1.4,0,0,0-1.239.708A3.858,3.858,0,0,0,22.535,12.359ZM35.622,17a3.344,3.344,0,0,1-.281-.853,2.754,2.754,0,0,1-2.285,1.028,3.374,3.374,0,0,1-2.285-.813,2.588,2.588,0,0,1-.94-2.043,2.66,2.66,0,0,1,1.143-2.338,5.821,5.821,0,0,1,3.322-.791h.914v-.5q0-1.316-1.134-1.316a.927.927,0,0,0-1.055,1.042H30.059a2.655,2.655,0,0,1,1.173-2.239,4.931,4.931,0,0,1,2.993-.86A4.323,4.323,0,0,1,37.1,8.2a3.086,3.086,0,0,1,1.081,2.435v4.21a4.311,4.311,0,0,0,.4,2V17Zm-1.854-1.934a1.652,1.652,0,0,0,.918-.237,1.487,1.487,0,0,0,.523-.536V12.772h-.861q-1.547,0-1.547,1.389a.848.848,0,0,0,.272.655A.986.986,0,0,0,33.768,15.066ZM42.539,7.49l.1,1.116a3.225,3.225,0,0,1,2.716-1.292,2.713,2.713,0,0,1,2.219.888,4.226,4.226,0,0,1,.76,2.672V17H45.36V11a1.6,1.6,0,0,0-.29-1.059A1.342,1.342,0,0,0,44.016,9.6a1.413,1.413,0,0,0-1.292.686V17H39.762V7.49ZM53.095,17H50.124V7.49h2.971ZM49.948,5.038A1.322,1.322,0,0,1,50.405,4a1.943,1.943,0,0,1,2.373,0,1.322,1.322,0,0,1,.457,1.037,1.322,1.322,0,0,1-.457,1.037,1.943,1.943,0,0,1-2.373,0A1.322,1.322,0,0,1,49.948,5.038Zm8.464,9.677h4.333V17H54.668V15.348l4.219-5.572H54.853V7.49h7.8v1.6ZM69.539,17a3.344,3.344,0,0,1-.281-.853,2.754,2.754,0,0,1-2.285,1.028,3.374,3.374,0,0,1-2.285-.813,2.588,2.588,0,0,1-.94-2.043,2.66,2.66,0,0,1,1.143-2.338,5.821,5.821,0,0,1,3.322-.791h.914v-.5q0-1.316-1.134-1.316a.927.927,0,0,0-1.055,1.042H63.976a2.655,2.655,0,0,1,1.173-2.239,4.931,4.931,0,0,1,2.993-.86,4.323,4.323,0,0,1,2.874.888A3.086,3.086,0,0,1,72.1,10.637v4.21a4.311,4.311,0,0,0,.4,2V17Zm-1.854-1.934a1.652,1.652,0,0,0,.918-.237,1.487,1.487,0,0,0,.523-.536V12.772h-.861q-1.547,0-1.547,1.389a.848.848,0,0,0,.272.655A.986.986,0,0,0,67.685,15.066Zm10.072-.176a1.317,1.317,0,0,0,.967-.338,1.241,1.241,0,0,0,.334-.945h2.777a3.288,3.288,0,0,1-1.121,2.566,4.168,4.168,0,0,1-2.887,1,4.22,4.22,0,0,1-3.27-1.3,5.125,5.125,0,0,1-1.2-3.6v-.123A5.792,5.792,0,0,1,73.894,9.6a3.872,3.872,0,0,1,1.534-1.7A4.573,4.573,0,0,1,77.8,7.314a4.116,4.116,0,0,1,2.944,1.028,3.647,3.647,0,0,1,1.09,2.786H79.058A1.626,1.626,0,0,0,78.7,10a1.244,1.244,0,0,0-.967-.4q-1.151,0-1.345,1.468a10.357,10.357,0,0,0-.062,1.283,4.068,4.068,0,0,0,.343,1.986A1.187,1.187,0,0,0,77.757,14.891ZM86.212,17H83.241V7.49h2.971ZM83.065,5.038A1.322,1.322,0,0,1,83.522,4,1.943,1.943,0,0,1,85.9,4a1.322,1.322,0,0,1,.457,1.037A1.322,1.322,0,0,1,85.9,6.075a1.943,1.943,0,0,1-2.373,0A1.322,1.322,0,0,1,83.065,5.038Zm4.6,7.119a5.613,5.613,0,0,1,.554-2.536,3.96,3.96,0,0,1,1.591-1.709,4.791,4.791,0,0,1,2.435-.6,4.373,4.373,0,0,1,3.366,1.323,5.076,5.076,0,0,1,1.23,3.6v.105A4.925,4.925,0,0,1,95.6,15.871a4.384,4.384,0,0,1-3.344,1.305A4.434,4.434,0,0,1,89,15.958a4.761,4.761,0,0,1-1.327-3.3Zm2.962.185a3.538,3.538,0,0,0,.413,1.934,1.376,1.376,0,0,0,1.222.615q1.582,0,1.617-2.435v-.3q0-2.558-1.635-2.558-1.485,0-1.608,2.206ZM92.646,3.5h3.129L93.331,6.26l-2.417,0Zm8.218,3.99.1,1.116a3.225,3.225,0,0,1,2.716-1.292A2.713,2.713,0,0,1,105.9,8.2a4.226,4.226,0,0,1,.76,2.672V17h-2.971V11a1.6,1.6,0,0,0-.29-1.059A1.342,1.342,0,0,0,102.34,9.6a1.413,1.413,0,0,0-1.292.686V17H98.086V7.49Z" transform="translate(744 709)" fill="#12263f"/>
        <path id="Trazado_604980" data-name="Trazado 604980" d="M.967,17V4.2H5.089a6.064,6.064,0,0,1,3.05.769,5.406,5.406,0,0,1,2.114,2.171,6.554,6.554,0,0,1,.769,3.142v.589a6.592,6.592,0,0,1-.743,3.151A5.429,5.429,0,0,1,8.187,16.2a5.93,5.93,0,0,1-3.01.8ZM4.052,6.585v8.042H5.124a2.4,2.4,0,0,0,2.039-.945,4.63,4.63,0,0,0,.712-2.808V10.32a4.592,4.592,0,0,0-.712-2.795,2.442,2.442,0,0,0-2.074-.94ZM15.592,17H12.621V7.49h2.971ZM12.445,5.038A1.322,1.322,0,0,1,12.9,4a1.724,1.724,0,0,1,1.187-.4,1.724,1.724,0,0,1,1.187.4,1.322,1.322,0,0,1,.457,1.037,1.322,1.322,0,0,1-.457,1.037,1.724,1.724,0,0,1-1.187.4,1.724,1.724,0,0,1-1.187-.4A1.322,1.322,0,0,1,12.445,5.038Zm10.723,5.133-.976-.07a1.752,1.752,0,0,0-1.793.879V17H17.438V7.49h2.777l.1,1.222a2.294,2.294,0,0,1,2.083-1.4,2.888,2.888,0,0,1,.826.105Zm5.5,7a4.889,4.889,0,0,1-3.542-1.305,4.507,4.507,0,0,1-1.354-3.4v-.246a5.84,5.84,0,0,1,.541-2.575,3.955,3.955,0,0,1,1.578-1.727,4.763,4.763,0,0,1,2.461-.611,4.117,4.117,0,0,1,3.164,1.244,4.887,4.887,0,0,1,1.16,3.467v1.151H26.789a2.135,2.135,0,0,0,.694,1.257,2.066,2.066,0,0,0,1.389.457,2.662,2.662,0,0,0,2.2-.984l1.354,1.6a3.784,3.784,0,0,1-1.569,1.217A5.3,5.3,0,0,1,28.67,17.176ZM28.336,9.6q-1.3,0-1.547,1.723h2.988v-.229a1.467,1.467,0,0,0-.36-1.1A1.434,1.434,0,0,0,28.336,9.6Zm9.554,5.291a1.317,1.317,0,0,0,.967-.338,1.241,1.241,0,0,0,.334-.945h2.777a3.288,3.288,0,0,1-1.121,2.566,4.168,4.168,0,0,1-2.887,1,4.22,4.22,0,0,1-3.27-1.3,5.125,5.125,0,0,1-1.2-3.6v-.123A5.792,5.792,0,0,1,34.027,9.6a3.872,3.872,0,0,1,1.534-1.7,4.573,4.573,0,0,1,2.373-.593,4.116,4.116,0,0,1,2.944,1.028,3.647,3.647,0,0,1,1.09,2.786H39.19A1.626,1.626,0,0,0,38.83,10a1.244,1.244,0,0,0-.967-.4q-1.151,0-1.345,1.468a10.357,10.357,0,0,0-.062,1.283,4.068,4.068,0,0,0,.343,1.986A1.187,1.187,0,0,0,37.89,14.891Zm9.352,0a1.317,1.317,0,0,0,.967-.338,1.241,1.241,0,0,0,.334-.945h2.777A3.288,3.288,0,0,1,50.2,16.174a4.168,4.168,0,0,1-2.887,1,4.22,4.22,0,0,1-3.27-1.3,5.125,5.125,0,0,1-1.2-3.6v-.123A5.792,5.792,0,0,1,43.378,9.6a3.872,3.872,0,0,1,1.534-1.7,4.573,4.573,0,0,1,2.373-.593,4.116,4.116,0,0,1,2.944,1.028,3.647,3.647,0,0,1,1.09,2.786H48.542A1.626,1.626,0,0,0,48.182,10a1.244,1.244,0,0,0-.967-.4q-1.151,0-1.345,1.468a10.357,10.357,0,0,0-.062,1.283,4.068,4.068,0,0,0,.343,1.986A1.187,1.187,0,0,0,47.241,14.891ZM55.7,17H52.726V7.49H55.7ZM52.55,5.038A1.322,1.322,0,0,1,53.007,4,1.943,1.943,0,0,1,55.38,4a1.322,1.322,0,0,1,.457,1.037,1.322,1.322,0,0,1-.457,1.037,1.943,1.943,0,0,1-2.373,0A1.322,1.322,0,0,1,52.55,5.038Zm4.6,7.119A5.613,5.613,0,0,1,57.7,9.622a3.96,3.96,0,0,1,1.591-1.709,4.791,4.791,0,0,1,2.435-.6,4.373,4.373,0,0,1,3.366,1.323,5.076,5.076,0,0,1,1.23,3.6v.105a4.925,4.925,0,0,1-1.235,3.529,4.384,4.384,0,0,1-3.344,1.305,4.434,4.434,0,0,1-3.261-1.217,4.761,4.761,0,0,1-1.327-3.3Zm2.962.185a3.538,3.538,0,0,0,.413,1.934,1.376,1.376,0,0,0,1.222.615q1.582,0,1.617-2.435v-.3q0-2.558-1.635-2.558-1.485,0-1.608,2.206ZM62.13,3.5h3.129L62.815,6.26l-2.417,0Zm8.218,3.99.1,1.116A3.225,3.225,0,0,1,73.16,7.314a2.713,2.713,0,0,1,2.219.888,4.226,4.226,0,0,1,.76,2.672V17H73.169V11a1.6,1.6,0,0,0-.29-1.059A1.342,1.342,0,0,0,71.824,9.6a1.413,1.413,0,0,0-1.292.686V17H67.57V7.49Z" transform="translate(760 830)" fill="#12263f"/>
        <path id="Trazado_604981" data-name="Trazado 604981" d="M11.32,12.667a4.673,4.673,0,0,1-.721,2.36,4.35,4.35,0,0,1-1.85,1.586,6.3,6.3,0,0,1-2.72.563,5.025,5.025,0,0,1-3.973-1.644,6.786,6.786,0,0,1-1.45-4.641v-.633a7.746,7.746,0,0,1,.655-3.292,4.961,4.961,0,0,1,1.885-2.18,5.26,5.26,0,0,1,2.848-.769A5.516,5.516,0,0,1,9.738,5.245a4.844,4.844,0,0,1,1.608,3.379H8.271a2.292,2.292,0,0,0-.589-1.679,2.422,2.422,0,0,0-1.687-.51A1.843,1.843,0,0,0,4.307,7.3a5.536,5.536,0,0,0-.562,2.751v.905a6.125,6.125,0,0,0,.514,2.927,1.882,1.882,0,0,0,1.771.879,2.369,2.369,0,0,0,1.626-.5,2.126,2.126,0,0,0,.6-1.591Zm.949-.51a5.613,5.613,0,0,1,.554-2.536,3.96,3.96,0,0,1,1.591-1.709,4.791,4.791,0,0,1,2.435-.6,4.373,4.373,0,0,1,3.366,1.323,5.076,5.076,0,0,1,1.23,3.6v.105a4.925,4.925,0,0,1-1.235,3.529,4.384,4.384,0,0,1-3.344,1.305,4.434,4.434,0,0,1-3.261-1.217,4.761,4.761,0,0,1-1.327-3.3Zm2.962.185a3.538,3.538,0,0,0,.413,1.934,1.376,1.376,0,0,0,1.222.615q1.582,0,1.617-2.435v-.3q0-2.558-1.635-2.558-1.485,0-1.608,2.206ZM25.471,7.49l.1,1.116a3.225,3.225,0,0,1,2.716-1.292A2.713,2.713,0,0,1,30.5,8.2a4.226,4.226,0,0,1,.76,2.672V17H28.292V11A1.6,1.6,0,0,0,28,9.938,1.342,1.342,0,0,0,26.947,9.6a1.413,1.413,0,0,0-1.292.686V17H22.693V7.49ZM36.352,5.126V7.49h1.564V9.547H36.352V13.9a1.111,1.111,0,0,0,.193.747,1.037,1.037,0,0,0,.765.211,4.345,4.345,0,0,0,.738-.053v2.118a5.466,5.466,0,0,1-1.67.255,3.1,3.1,0,0,1-2.259-.721,2.954,2.954,0,0,1-.729-2.188V9.547H32.177V7.49H33.39V5.126Zm8.481,5.045-.976-.07a1.752,1.752,0,0,0-1.793.879V17H39.1V7.49H41.88l.1,1.222a2.294,2.294,0,0,1,2.083-1.4,2.888,2.888,0,0,1,.826.105Zm.378,1.986a5.613,5.613,0,0,1,.554-2.536,3.96,3.96,0,0,1,1.591-1.709,4.791,4.791,0,0,1,2.435-.6,4.373,4.373,0,0,1,3.366,1.323,5.076,5.076,0,0,1,1.23,3.6v.105a4.925,4.925,0,0,1-1.235,3.529,4.384,4.384,0,0,1-3.344,1.305,4.434,4.434,0,0,1-3.261-1.217,4.761,4.761,0,0,1-1.327-3.3Zm2.962.185a3.538,3.538,0,0,0,.413,1.934,1.376,1.376,0,0,0,1.222.615q1.582,0,1.617-2.435v-.3q0-2.558-1.635-2.558-1.485,0-1.608,2.206ZM58.816,17H55.846V3.5h2.971Z" transform="translate(773 953)" fill="#12263f"/>
        <path id="Trazado_604982" data-name="Trazado 604982" d="M29.84,15.225h5.81V17H27.616V4.2H29.84Zm6.908-3.067A5.607,5.607,0,0,1,37.3,9.639a4.044,4.044,0,0,1,1.556-1.723,4.383,4.383,0,0,1,2.3-.6,4.154,4.154,0,0,1,3.125,1.239,4.874,4.874,0,0,1,1.3,3.287l.009.5a5.658,5.658,0,0,1-.541,2.514A4,4,0,0,1,43.5,16.569a4.415,4.415,0,0,1-2.325.606,4.125,4.125,0,0,1-3.221-1.34,5.133,5.133,0,0,1-1.208-3.573Zm2.136.185a3.832,3.832,0,0,0,.606,2.3,1.971,1.971,0,0,0,1.688.831,1.95,1.95,0,0,0,1.683-.844,4.232,4.232,0,0,0,.6-2.47,3.782,3.782,0,0,0-.62-2.285A2.089,2.089,0,0,0,39.5,9.859,4.152,4.152,0,0,0,38.884,12.342Zm8.139-.167a5.562,5.562,0,0,1,1.042-3.538,3.343,3.343,0,0,1,2.764-1.323,3.132,3.132,0,0,1,2.558,1.134l.1-.958h1.925v9.22a3.832,3.832,0,0,1-1.165,2.953A4.436,4.436,0,0,1,51.1,20.744a5.064,5.064,0,0,1-2.043-.435,3.631,3.631,0,0,1-1.516-1.138l1.011-1.283a3.053,3.053,0,0,0,2.426,1.169,2.359,2.359,0,0,0,1.679-.576,2.206,2.206,0,0,0,.615-1.692v-.642a3.144,3.144,0,0,1-2.461,1.028,3.335,3.335,0,0,1-2.729-1.327A5.742,5.742,0,0,1,47.022,12.175Zm2.127.185a3.829,3.829,0,0,0,.584,2.254,1.879,1.879,0,0,0,1.622.822,2.055,2.055,0,0,0,1.916-1.107V10.145a2.026,2.026,0,0,0-1.9-1.081,1.887,1.887,0,0,0-1.639.835A4.287,4.287,0,0,0,49.149,12.359Zm13.43-2.918a5.285,5.285,0,0,0-.87-.07A1.959,1.959,0,0,0,59.731,10.5V17H57.6V7.49h2.039l.053,1.063a2.406,2.406,0,0,1,2.145-1.239,2,2,0,0,1,.756.123Zm.633,2.716a5.607,5.607,0,0,1,.554-2.518,4.044,4.044,0,0,1,1.556-1.723,4.383,4.383,0,0,1,2.3-.6,4.154,4.154,0,0,1,3.125,1.239,4.874,4.874,0,0,1,1.3,3.287l.009.5a5.658,5.658,0,0,1-.541,2.514,4,4,0,0,1-1.547,1.714,4.415,4.415,0,0,1-2.325.606,4.125,4.125,0,0,1-3.221-1.34,5.133,5.133,0,0,1-1.208-3.573Zm2.136.185a3.832,3.832,0,0,0,.606,2.3,1.971,1.971,0,0,0,1.688.831,1.95,1.95,0,0,0,1.683-.844,4.232,4.232,0,0,0,.6-2.47,3.782,3.782,0,0,0-.62-2.285,2.089,2.089,0,0,0-3.344-.013A4.152,4.152,0,0,0,65.348,12.342Zm12.595-.167a5.654,5.654,0,0,1,1.02-3.529A3.267,3.267,0,0,1,81.7,7.314a3.1,3.1,0,0,1,2.443,1.055V3.5h2.136V17H84.341l-.105-.984a3.148,3.148,0,0,1-2.558,1.16,3.248,3.248,0,0,1-2.7-1.345A5.861,5.861,0,0,1,77.942,12.175Zm2.136.185a3.958,3.958,0,0,0,.558,2.263,1.811,1.811,0,0,0,1.586.813,2.017,2.017,0,0,0,1.916-1.169V10.206a1.986,1.986,0,0,0-1.9-1.143,1.824,1.824,0,0,0-1.6.822A4.408,4.408,0,0,0,80.078,12.359ZM92.69,17.176A4.419,4.419,0,0,1,89.4,15.9a4.639,4.639,0,0,1-1.261-3.406v-.264a5.706,5.706,0,0,1,.549-2.544,4.181,4.181,0,0,1,1.542-1.745,4.078,4.078,0,0,1,2.215-.624,3.733,3.733,0,0,1,3,1.239A5.24,5.24,0,0,1,96.5,12.061v.861H90.291a2.856,2.856,0,0,0,.787,1.863,2.362,2.362,0,0,0,1.736.686A2.892,2.892,0,0,0,95.2,14.284l1.151,1.1a3.845,3.845,0,0,1-1.525,1.323A4.774,4.774,0,0,1,92.69,17.176Zm-.255-8.147a1.8,1.8,0,0,0-1.419.615,3.189,3.189,0,0,0-.69,1.714H94.4V11.2a2.6,2.6,0,0,0-.571-1.622A1.785,1.785,0,0,0,92.436,9.028ZM104.916,17H102.78V3.5h2.136Zm1.925-4.843a5.607,5.607,0,0,1,.554-2.518,4.044,4.044,0,0,1,1.556-1.723,4.383,4.383,0,0,1,2.3-.6,4.154,4.154,0,0,1,3.125,1.239,4.874,4.874,0,0,1,1.3,3.287l.009.5a5.658,5.658,0,0,1-.541,2.514,4,4,0,0,1-1.547,1.714,4.415,4.415,0,0,1-2.325.606,4.125,4.125,0,0,1-3.221-1.34,5.133,5.133,0,0,1-1.208-3.573Zm2.136.185a3.832,3.832,0,0,0,.606,2.3,1.971,1.971,0,0,0,1.688.831,1.95,1.95,0,0,0,1.683-.844,4.232,4.232,0,0,0,.6-2.47,3.782,3.782,0,0,0-.62-2.285,2.089,2.089,0,0,0-3.344-.013A4.152,4.152,0,0,0,108.977,12.342Zm13.843,2.074a.968.968,0,0,0-.47-.87,5,5,0,0,0-1.56-.527,8.02,8.02,0,0,1-1.819-.58,2.428,2.428,0,0,1-1.6-2.241,2.531,2.531,0,0,1,1.037-2.057,4.1,4.1,0,0,1,2.637-.826,4.266,4.266,0,0,1,2.755.844,2.677,2.677,0,0,1,1.05,2.188h-2.136a1.316,1.316,0,0,0-.457-1.024,1.752,1.752,0,0,0-1.213-.409,1.893,1.893,0,0,0-1.147.325,1.025,1.025,0,0,0-.444.87.866.866,0,0,0,.413.765,5.68,5.68,0,0,0,1.67.549,7.9,7.9,0,0,1,1.973.659,2.794,2.794,0,0,1,1.063.918,2.342,2.342,0,0,1,.347,1.3,2.478,2.478,0,0,1-1.063,2.079,4.535,4.535,0,0,1-2.786.8,4.917,4.917,0,0,1-2.083-.422,3.428,3.428,0,0,1-1.424-1.16,2.746,2.746,0,0,1-.51-1.591h2.074a1.5,1.5,0,0,0,.571,1.165,2.22,2.22,0,0,0,1.4.409,2.16,2.16,0,0,0,1.283-.321A.993.993,0,0,0,122.819,14.416ZM32.885,34.441a5.285,5.285,0,0,0-.87-.07A1.959,1.959,0,0,0,30.038,35.5V42H27.9V32.49h2.039l.053,1.063a2.406,2.406,0,0,1,2.145-1.239,2,2,0,0,1,.756.123Zm5.37,7.734A4.419,4.419,0,0,1,34.964,40.9,4.639,4.639,0,0,1,33.7,37.491v-.264a5.706,5.706,0,0,1,.549-2.544,4.181,4.181,0,0,1,1.542-1.745,4.078,4.078,0,0,1,2.215-.624,3.733,3.733,0,0,1,3,1.239,5.24,5.24,0,0,1,1.059,3.507v.861H35.856a2.856,2.856,0,0,0,.787,1.863,2.362,2.362,0,0,0,1.736.686,2.892,2.892,0,0,0,2.391-1.187l1.151,1.1A3.845,3.845,0,0,1,40.4,41.706,4.774,4.774,0,0,1,38.255,42.176ZM38,34.028a1.8,1.8,0,0,0-1.419.615,3.189,3.189,0,0,0-.69,1.714H39.96V36.2a2.6,2.6,0,0,0-.571-1.622A1.785,1.785,0,0,0,38,34.028Zm11.057,5.388a.968.968,0,0,0-.47-.87,5,5,0,0,0-1.56-.527,8.02,8.02,0,0,1-1.819-.58,2.428,2.428,0,0,1-1.6-2.241,2.531,2.531,0,0,1,1.037-2.057,4.1,4.1,0,0,1,2.637-.826,4.266,4.266,0,0,1,2.755.844,2.677,2.677,0,0,1,1.05,2.188H48.952a1.316,1.316,0,0,0-.457-1.024,1.752,1.752,0,0,0-1.213-.409,1.893,1.893,0,0,0-1.147.325,1.025,1.025,0,0,0-.444.87.866.866,0,0,0,.413.765,5.68,5.68,0,0,0,1.67.549,7.9,7.9,0,0,1,1.973.659A2.794,2.794,0,0,1,50.811,38a2.342,2.342,0,0,1,.347,1.3,2.478,2.478,0,0,1-1.063,2.079,4.535,4.535,0,0,1-2.786.8,4.917,4.917,0,0,1-2.083-.422,3.428,3.428,0,0,1-1.424-1.16A2.746,2.746,0,0,1,43.292,39h2.074a1.5,1.5,0,0,0,.571,1.165,2.22,2.22,0,0,0,1.4.409,2.16,2.16,0,0,0,1.283-.321A.993.993,0,0,0,49.057,39.416Zm9.721,1.652a3.312,3.312,0,0,1-2.672,1.107,2.952,2.952,0,0,1-2.342-.905,3.851,3.851,0,0,1-.8-2.619V32.49H55.1v6.135q0,1.811,1.5,1.811a2.111,2.111,0,0,0,2.1-1.116V32.49h2.136V42H58.831ZM65.291,42H63.155V28.5h2.136Zm5-11.821V32.49H71.97v1.582H70.292v5.309a1.169,1.169,0,0,0,.215.787,1,1,0,0,0,.769.242,3.29,3.29,0,0,0,.747-.088v1.652a5.26,5.26,0,0,1-1.406.2q-2.461,0-2.461-2.716V34.072H66.591V32.49h1.564V30.179ZM79.283,42a3.3,3.3,0,0,1-.246-.888,3.593,3.593,0,0,1-4.834.246,2.615,2.615,0,0,1-.905-2.021A2.7,2.7,0,0,1,74.427,37a5.473,5.473,0,0,1,3.23-.813h1.31v-.624a1.666,1.666,0,0,0-.413-1.182A1.638,1.638,0,0,0,77.3,33.94a1.881,1.881,0,0,0-1.2.365,1.129,1.129,0,0,0-.466.927H73.5a2.37,2.37,0,0,1,.519-1.463A3.455,3.455,0,0,1,75.429,32.7a4.955,4.955,0,0,1,1.991-.387,3.99,3.99,0,0,1,2.663.839,2.993,2.993,0,0,1,1.02,2.36V39.8a4.861,4.861,0,0,0,.36,2.048V42Zm-2.347-1.538a2.429,2.429,0,0,0,1.191-.308,2.055,2.055,0,0,0,.839-.826V37.535H77.815a3.148,3.148,0,0,0-1.784.413,1.338,1.338,0,0,0-.6,1.169,1.248,1.248,0,0,0,.409.98A1.583,1.583,0,0,0,76.936,40.462Zm6-3.287a5.654,5.654,0,0,1,1.02-3.529,3.267,3.267,0,0,1,2.733-1.332,3.1,3.1,0,0,1,2.443,1.055V28.5h2.136V42H89.337l-.105-.984a3.148,3.148,0,0,1-2.558,1.16,3.248,3.248,0,0,1-2.7-1.345A5.861,5.861,0,0,1,82.939,37.175Zm2.136.185a3.958,3.958,0,0,0,.558,2.263,1.811,1.811,0,0,0,1.586.813,2.017,2.017,0,0,0,1.916-1.169V35.206a1.986,1.986,0,0,0-1.9-1.143,1.824,1.824,0,0,0-1.6.822A4.408,4.408,0,0,0,85.075,37.359Zm8.024-.2a5.607,5.607,0,0,1,.554-2.518,4.044,4.044,0,0,1,1.556-1.723,4.383,4.383,0,0,1,2.3-.6,4.154,4.154,0,0,1,3.125,1.239,4.874,4.874,0,0,1,1.3,3.287l.009.5a5.658,5.658,0,0,1-.541,2.514,4,4,0,0,1-1.547,1.714,4.415,4.415,0,0,1-2.325.606,4.125,4.125,0,0,1-3.221-1.34A5.133,5.133,0,0,1,93.1,37.263Zm2.136.185a3.832,3.832,0,0,0,.606,2.3,1.971,1.971,0,0,0,1.688.831,1.95,1.95,0,0,0,1.683-.844,4.232,4.232,0,0,0,.6-2.47,3.782,3.782,0,0,0-.62-2.285,2.089,2.089,0,0,0-3.344-.013A4.152,4.152,0,0,0,95.235,37.342Zm13.843,2.074a.968.968,0,0,0-.47-.87,5,5,0,0,0-1.56-.527,8.02,8.02,0,0,1-1.819-.58,2.428,2.428,0,0,1-1.6-2.241,2.531,2.531,0,0,1,1.037-2.057,4.1,4.1,0,0,1,2.637-.826,4.266,4.266,0,0,1,2.755.844,2.677,2.677,0,0,1,1.05,2.188h-2.136a1.316,1.316,0,0,0-.457-1.024,1.752,1.752,0,0,0-1.213-.409,1.893,1.893,0,0,0-1.147.325,1.025,1.025,0,0,0-.444.87.866.866,0,0,0,.413.765,5.68,5.68,0,0,0,1.67.549,7.9,7.9,0,0,1,1.973.659,2.794,2.794,0,0,1,1.063.918,2.342,2.342,0,0,1,.347,1.3,2.478,2.478,0,0,1-1.063,2.079,4.535,4.535,0,0,1-2.786.8,4.917,4.917,0,0,1-2.083-.422,3.428,3.428,0,0,1-1.424-1.16,2.746,2.746,0,0,1-.51-1.591h2.074a1.5,1.5,0,0,0,.571,1.165,2.22,2.22,0,0,0,1.4.409,2.16,2.16,0,0,0,1.283-.321A.993.993,0,0,0,109.078,39.416Zm11.769-.475,1.934-6.451h2.276l-3.779,10.951q-.87,2.4-2.953,2.4a3.807,3.807,0,0,1-1.028-.159v-1.66l.4.026a2.079,2.079,0,0,0,1.217-.294,1.95,1.95,0,0,0,.646-.988l.308-.817-3.34-9.459h2.3ZM39.974,62.157a5.607,5.607,0,0,1,.554-2.518,4.044,4.044,0,0,1,1.556-1.723,4.383,4.383,0,0,1,2.3-.6,4.154,4.154,0,0,1,3.125,1.239,4.874,4.874,0,0,1,1.3,3.287l.009.5a5.658,5.658,0,0,1-.541,2.514,4,4,0,0,1-1.547,1.714,4.415,4.415,0,0,1-2.325.606,4.125,4.125,0,0,1-3.221-1.34,5.133,5.133,0,0,1-1.208-3.573Zm2.136.185a3.832,3.832,0,0,0,.606,2.3,1.971,1.971,0,0,0,1.688.831,1.95,1.95,0,0,0,1.683-.844,4.232,4.232,0,0,0,.6-2.47,3.782,3.782,0,0,0-.62-2.285,2.089,2.089,0,0,0-3.344-.013A4.152,4.152,0,0,0,42.109,62.342Zm16.857,0a5.712,5.712,0,0,1-.989,3.524,3.221,3.221,0,0,1-2.72,1.31,3.1,3.1,0,0,1-2.6-1.2L52.551,67H50.617V53.5h2.136v4.9a3.091,3.091,0,0,1,2.487-1.09,3.258,3.258,0,0,1,2.733,1.292,5.807,5.807,0,0,1,.993,3.612Zm-2.136-.185a4.037,4.037,0,0,0-.545-2.32,1.815,1.815,0,0,0-1.582-.773,1.983,1.983,0,0,0-1.951,1.213V64.2a2,2,0,0,0,1.969,1.239,1.8,1.8,0,0,0,1.547-.747,3.912,3.912,0,0,0,.563-2.259Zm6.152-4.667V67.844a3.129,3.129,0,0,1-.725,2.228,2.779,2.779,0,0,1-2.123.769A4.268,4.268,0,0,1,59,70.691V69a3.291,3.291,0,0,0,.756.079q1.063,0,1.09-1.16V57.49Zm-2.32-2.47a1.133,1.133,0,0,1,.312-.817,1.179,1.179,0,0,1,.892-.325,1.193,1.193,0,0,1,.9.325,1.125,1.125,0,0,1,.316.817,1.1,1.1,0,0,1-.316.8,1.2,1.2,0,0,1-.9.321,1.188,1.188,0,0,1-.892-.321A1.107,1.107,0,0,1,60.663,55.021Zm8.789,12.155A4.419,4.419,0,0,1,66.161,65.9,4.639,4.639,0,0,1,64.9,62.491v-.264a5.706,5.706,0,0,1,.549-2.544,4.181,4.181,0,0,1,1.542-1.745,4.078,4.078,0,0,1,2.215-.624,3.733,3.733,0,0,1,3,1.239,5.24,5.24,0,0,1,1.059,3.507v.861H67.053a2.856,2.856,0,0,0,.787,1.863,2.362,2.362,0,0,0,1.736.686,2.892,2.892,0,0,0,2.391-1.187l1.151,1.1a3.845,3.845,0,0,1-1.525,1.323A4.774,4.774,0,0,1,69.452,67.176ZM69.2,59.028a1.8,1.8,0,0,0-1.419.615,3.189,3.189,0,0,0-.69,1.714h4.069V61.2a2.6,2.6,0,0,0-.571-1.622A1.785,1.785,0,0,0,69.2,59.028Zm8.4-3.85V57.49h1.679v1.582H77.6v5.309a1.169,1.169,0,0,0,.215.787,1,1,0,0,0,.769.242,3.29,3.29,0,0,0,.747-.088v1.652a5.26,5.26,0,0,1-1.406.2q-2.461,0-2.461-2.716V59.072H73.9V57.49h1.564V55.179ZM83.181,67H81.045V57.49h2.136ZM80.913,55.021a1.133,1.133,0,0,1,.312-.817,1.179,1.179,0,0,1,.892-.325,1.193,1.193,0,0,1,.9.325,1.125,1.125,0,0,1,.316.817,1.1,1.1,0,0,1-.316.8,1.2,1.2,0,0,1-.9.321,1.188,1.188,0,0,1-.892-.321A1.107,1.107,0,0,1,80.913,55.021Zm7.945,9.272,2.013-6.8h2.206L89.781,67H87.927L84.6,57.49h2.215Zm5.019-2.136a5.607,5.607,0,0,1,.554-2.518,4.044,4.044,0,0,1,1.556-1.723,4.383,4.383,0,0,1,2.3-.6,4.154,4.154,0,0,1,3.125,1.239,4.874,4.874,0,0,1,1.3,3.287l.009.5a5.658,5.658,0,0,1-.541,2.514,4,4,0,0,1-1.547,1.714,4.415,4.415,0,0,1-2.325.606,4.125,4.125,0,0,1-3.221-1.34,5.133,5.133,0,0,1-1.208-3.573Zm2.136.185a3.832,3.832,0,0,0,.606,2.3,1.971,1.971,0,0,0,1.688.831,1.95,1.95,0,0,0,1.683-.844,4.232,4.232,0,0,0,.6-2.47,3.782,3.782,0,0,0-.62-2.285,2.089,2.089,0,0,0-3.344-.013A4.152,4.152,0,0,0,96.013,62.342Zm13.843,2.074a.968.968,0,0,0-.47-.87,5,5,0,0,0-1.56-.527,8.02,8.02,0,0,1-1.819-.58,2.428,2.428,0,0,1-1.6-2.241,2.531,2.531,0,0,1,1.037-2.057,4.1,4.1,0,0,1,2.637-.826,4.266,4.266,0,0,1,2.755.844,2.677,2.677,0,0,1,1.05,2.188H109.75a1.316,1.316,0,0,0-.457-1.024,1.752,1.752,0,0,0-1.213-.409,1.893,1.893,0,0,0-1.147.325,1.025,1.025,0,0,0-.444.87.866.866,0,0,0,.413.765,5.68,5.68,0,0,0,1.67.549,7.9,7.9,0,0,1,1.973.659,2.794,2.794,0,0,1,1.063.918,2.342,2.342,0,0,1,.347,1.3,2.478,2.478,0,0,1-1.063,2.079,4.535,4.535,0,0,1-2.786.8,4.917,4.917,0,0,1-2.083-.422,3.428,3.428,0,0,1-1.424-1.16A2.746,2.746,0,0,1,104.09,64h2.074a1.5,1.5,0,0,0,.571,1.165,2.22,2.22,0,0,0,1.4.409,2.16,2.16,0,0,0,1.283-.321A.993.993,0,0,0,109.855,64.416ZM43.634,87.342a5.662,5.662,0,0,1-1,3.52,3.481,3.481,0,0,1-5.194.286v4.509H35.3V82.49h1.969l.088.967a3.137,3.137,0,0,1,2.558-1.143,3.242,3.242,0,0,1,2.729,1.3,5.813,5.813,0,0,1,.989,3.6Zm-2.127-.185A3.966,3.966,0,0,0,40.94,84.9a1.843,1.843,0,0,0-1.622-.835,1.965,1.965,0,0,0-1.881,1.081v4.219a1.983,1.983,0,0,0,1.9,1.107,1.841,1.841,0,0,0,1.6-.822A4.366,4.366,0,0,0,41.507,87.157ZM47.712,92H45.577V78.5h2.136Zm8.007,0a3.3,3.3,0,0,1-.246-.888,3.593,3.593,0,0,1-4.834.246,2.615,2.615,0,0,1-.905-2.021A2.7,2.7,0,0,1,50.863,87a5.473,5.473,0,0,1,3.23-.813H55.4v-.624a1.666,1.666,0,0,0-.413-1.182,1.638,1.638,0,0,0-1.257-.444,1.881,1.881,0,0,0-1.2.365,1.129,1.129,0,0,0-.466.927H49.936a2.37,2.37,0,0,1,.519-1.463A3.455,3.455,0,0,1,51.865,82.7a4.955,4.955,0,0,1,1.991-.387,3.99,3.99,0,0,1,2.663.839,2.993,2.993,0,0,1,1.02,2.36V89.8a4.861,4.861,0,0,0,.36,2.048V92Zm-2.347-1.538a2.429,2.429,0,0,0,1.191-.308,2.055,2.055,0,0,0,.839-.826V87.535H54.251a3.148,3.148,0,0,0-1.784.413,1.338,1.338,0,0,0-.6,1.169,1.248,1.248,0,0,0,.409.98A1.583,1.583,0,0,0,53.373,90.462Zm8.385-7.972.062,1.1a3.419,3.419,0,0,1,2.769-1.274q2.971,0,3.023,3.4V92H65.475V85.839a1.958,1.958,0,0,0-.391-1.34,1.645,1.645,0,0,0-1.279-.435,2.058,2.058,0,0,0-1.925,1.169V92H59.745V82.49Zm12.217,9.686A4.419,4.419,0,0,1,70.683,90.9a4.639,4.639,0,0,1-1.261-3.406v-.264a5.706,5.706,0,0,1,.549-2.544,4.181,4.181,0,0,1,1.542-1.745,4.078,4.078,0,0,1,2.215-.624,3.733,3.733,0,0,1,3,1.239,5.24,5.24,0,0,1,1.059,3.507v.861H71.575a2.856,2.856,0,0,0,.787,1.863,2.362,2.362,0,0,0,1.736.686,2.892,2.892,0,0,0,2.391-1.187l1.151,1.1a3.845,3.845,0,0,1-1.525,1.323A4.774,4.774,0,0,1,73.974,92.176Zm-.255-8.147a1.8,1.8,0,0,0-1.419.615,3.189,3.189,0,0,0-.69,1.714h4.069V86.2a2.6,2.6,0,0,0-.571-1.622A1.785,1.785,0,0,0,73.719,84.028ZM85.127,92a3.3,3.3,0,0,1-.246-.888,3.593,3.593,0,0,1-4.834.246,2.615,2.615,0,0,1-.905-2.021A2.7,2.7,0,0,1,80.271,87a5.473,5.473,0,0,1,3.23-.813h1.31v-.624a1.666,1.666,0,0,0-.413-1.182,1.638,1.638,0,0,0-1.257-.444,1.881,1.881,0,0,0-1.2.365,1.129,1.129,0,0,0-.466.927H79.344a2.37,2.37,0,0,1,.519-1.463A3.455,3.455,0,0,1,81.273,82.7a4.955,4.955,0,0,1,1.991-.387,3.99,3.99,0,0,1,2.663.839,2.993,2.993,0,0,1,1.02,2.36V89.8a4.861,4.861,0,0,0,.36,2.048V92Zm-2.347-1.538a2.429,2.429,0,0,0,1.191-.308,2.055,2.055,0,0,0,.839-.826V87.535H83.66a3.148,3.148,0,0,0-1.784.413,1.338,1.338,0,0,0-.6,1.169,1.248,1.248,0,0,0,.409.98A1.583,1.583,0,0,0,82.781,90.462Zm6-3.287a5.654,5.654,0,0,1,1.02-3.529,3.267,3.267,0,0,1,2.733-1.332,3.1,3.1,0,0,1,2.443,1.055V78.5h2.136V92H95.182l-.105-.984a3.148,3.148,0,0,1-2.558,1.16,3.248,3.248,0,0,1-2.7-1.345A5.861,5.861,0,0,1,88.784,87.175Zm2.136.185a3.958,3.958,0,0,0,.558,2.263,1.811,1.811,0,0,0,1.586.813,2.017,2.017,0,0,0,1.916-1.169V85.206a1.986,1.986,0,0,0-1.9-1.143,1.824,1.824,0,0,0-1.6.822A4.408,4.408,0,0,0,90.919,87.359Zm8.024-.2a5.607,5.607,0,0,1,.554-2.518,4.044,4.044,0,0,1,1.556-1.723,4.383,4.383,0,0,1,2.3-.6,4.154,4.154,0,0,1,3.125,1.239,4.874,4.874,0,0,1,1.3,3.287l.009.5a5.658,5.658,0,0,1-.541,2.514,4,4,0,0,1-1.547,1.714,4.415,4.415,0,0,1-2.325.606,4.125,4.125,0,0,1-3.221-1.34,5.133,5.133,0,0,1-1.208-3.573Zm2.136.185a3.832,3.832,0,0,0,.606,2.3,1.971,1.971,0,0,0,1.688.831,1.95,1.95,0,0,0,1.683-.844,4.232,4.232,0,0,0,.6-2.47,3.782,3.782,0,0,0-.62-2.285,2.089,2.089,0,0,0-3.344-.013A4.152,4.152,0,0,0,101.08,87.342Zm13.843,2.074a.968.968,0,0,0-.47-.87,5,5,0,0,0-1.56-.527,8.02,8.02,0,0,1-1.819-.58,2.428,2.428,0,0,1-1.6-2.241,2.531,2.531,0,0,1,1.037-2.057,4.1,4.1,0,0,1,2.637-.826,4.266,4.266,0,0,1,2.755.844,2.677,2.677,0,0,1,1.05,2.188h-2.136a1.316,1.316,0,0,0-.457-1.024,1.752,1.752,0,0,0-1.213-.409,1.893,1.893,0,0,0-1.147.325,1.025,1.025,0,0,0-.444.87.866.866,0,0,0,.413.765,5.68,5.68,0,0,0,1.67.549,7.9,7.9,0,0,1,1.973.659,2.794,2.794,0,0,1,1.063.918,2.342,2.342,0,0,1,.347,1.3,2.478,2.478,0,0,1-1.063,2.079,4.535,4.535,0,0,1-2.786.8,4.917,4.917,0,0,1-2.083-.422,3.428,3.428,0,0,1-1.424-1.16,2.746,2.746,0,0,1-.51-1.591h2.074a1.5,1.5,0,0,0,.571,1.165,2.22,2.22,0,0,0,1.4.409,2.16,2.16,0,0,0,1.283-.321A.993.993,0,0,0,114.922,89.416Z" transform="translate(724 1140)" fill="#12263f"/>
        <g id="Grupo_874679" data-name="Grupo 874679" transform="translate(1004 2415.532) rotate(180)">
          <circle id="Elipse_4713" data-name="Elipse 4713" cx="2.5" cy="2.5" r="2.5" transform="translate(285 1799.532)" fill="#60cb28"/>
          <circle id="Elipse_4717" data-name="Elipse 4717" cx="2.5" cy="2.5" r="2.5" transform="translate(285 1811.532)" fill="#60cb28"/>
          <circle id="Elipse_4719" data-name="Elipse 4719" cx="2.5" cy="2.5" r="2.5" transform="translate(285 1823.532)" fill="#60cb28"/>
          <circle id="Elipse_4715" data-name="Elipse 4715" cx="2.5" cy="2.5" r="2.5" transform="translate(297 1799.532)" fill="#60cb28"/>
          <circle id="Elipse_4720" data-name="Elipse 4720" cx="2.5" cy="2.5" r="2.5" transform="translate(308 1799.532)" fill="#60cb28"/>
          <circle id="Elipse_4716" data-name="Elipse 4716" cx="2.5" cy="2.5" r="2.5" transform="translate(297 1811.532)" fill="#60cb28"/>
          <circle id="Elipse_4721" data-name="Elipse 4721" cx="2.5" cy="2.5" r="2.5" transform="translate(308 1811.532)" fill="#60cb28"/>
          <circle id="Elipse_4718" data-name="Elipse 4718" cx="2.5" cy="2.5" r="2.5" transform="translate(297 1823.532)" fill="#60cb28"/>
          <circle id="Elipse_4722" data-name="Elipse 4722" cx="2.5" cy="2.5" r="2.5" transform="translate(308 1823.532)" fill="#60cb28"/>
        </g>
        <g id="Grupo_1014634" data-name="Grupo 1014634" transform="translate(1004 2535.532) rotate(180)">
          <circle id="Elipse_4713-2" data-name="Elipse 4713" cx="2.5" cy="2.5" r="2.5" transform="translate(285 1799.532)" fill="#60cb28"/>
          <circle id="Elipse_4717-2" data-name="Elipse 4717" cx="2.5" cy="2.5" r="2.5" transform="translate(285 1811.532)" fill="#60cb28"/>
          <circle id="Elipse_4719-2" data-name="Elipse 4719" cx="2.5" cy="2.5" r="2.5" transform="translate(285 1823.532)" fill="#60cb28"/>
          <circle id="Elipse_4715-2" data-name="Elipse 4715" cx="2.5" cy="2.5" r="2.5" transform="translate(297 1799.532)" fill="#60cb28"/>
          <circle id="Elipse_4720-2" data-name="Elipse 4720" cx="2.5" cy="2.5" r="2.5" transform="translate(308 1799.532)" fill="#60cb28"/>
          <circle id="Elipse_4716-2" data-name="Elipse 4716" cx="2.5" cy="2.5" r="2.5" transform="translate(297 1811.532)" fill="#60cb28"/>
          <circle id="Elipse_4721-2" data-name="Elipse 4721" cx="2.5" cy="2.5" r="2.5" transform="translate(308 1811.532)" fill="#60cb28"/>
          <circle id="Elipse_4718-2" data-name="Elipse 4718" cx="2.5" cy="2.5" r="2.5" transform="translate(297 1823.532)" fill="#60cb28"/>
          <circle id="Elipse_4722-2" data-name="Elipse 4722" cx="2.5" cy="2.5" r="2.5" transform="translate(308 1823.532)" fill="#60cb28"/>
        </g>
        <g id="Grupo_1014635" data-name="Grupo 1014635" transform="translate(1004 2654.532) rotate(180)">
          <circle id="Elipse_4713-3" data-name="Elipse 4713" cx="2.5" cy="2.5" r="2.5" transform="translate(285 1799.532)" fill="#60cb28"/>
          <circle id="Elipse_4717-3" data-name="Elipse 4717" cx="2.5" cy="2.5" r="2.5" transform="translate(285 1811.532)" fill="#60cb28"/>
          <circle id="Elipse_4719-3" data-name="Elipse 4719" cx="2.5" cy="2.5" r="2.5" transform="translate(285 1823.532)" fill="#60cb28"/>
          <circle id="Elipse_4715-3" data-name="Elipse 4715" cx="2.5" cy="2.5" r="2.5" transform="translate(297 1799.532)" fill="#60cb28"/>
          <circle id="Elipse_4720-3" data-name="Elipse 4720" cx="2.5" cy="2.5" r="2.5" transform="translate(308 1799.532)" fill="#60cb28"/>
          <circle id="Elipse_4716-3" data-name="Elipse 4716" cx="2.5" cy="2.5" r="2.5" transform="translate(297 1811.532)" fill="#60cb28"/>
          <circle id="Elipse_4721-3" data-name="Elipse 4721" cx="2.5" cy="2.5" r="2.5" transform="translate(308 1811.532)" fill="#60cb28"/>
          <circle id="Elipse_4718-3" data-name="Elipse 4718" cx="2.5" cy="2.5" r="2.5" transform="translate(297 1823.532)" fill="#60cb28"/>
          <circle id="Elipse_4722-3" data-name="Elipse 4722" cx="2.5" cy="2.5" r="2.5" transform="translate(308 1823.532)" fill="#60cb28"/>
        </g>
        <g id="Grupo_1014636" data-name="Grupo 1014636" transform="translate(1004 2782.532) rotate(180)">
          <circle id="Elipse_4713-4" data-name="Elipse 4713" cx="2.5" cy="2.5" r="2.5" transform="translate(285 1799.532)" fill="#60cb28"/>
          <circle id="Elipse_4717-4" data-name="Elipse 4717" cx="2.5" cy="2.5" r="2.5" transform="translate(285 1811.532)" fill="#60cb28"/>
          <circle id="Elipse_4719-4" data-name="Elipse 4719" cx="2.5" cy="2.5" r="2.5" transform="translate(285 1823.532)" fill="#60cb28"/>
          <circle id="Elipse_4715-4" data-name="Elipse 4715" cx="2.5" cy="2.5" r="2.5" transform="translate(297 1799.532)" fill="#60cb28"/>
          <circle id="Elipse_4720-4" data-name="Elipse 4720" cx="2.5" cy="2.5" r="2.5" transform="translate(308 1799.532)" fill="#60cb28"/>
          <circle id="Elipse_4716-4" data-name="Elipse 4716" cx="2.5" cy="2.5" r="2.5" transform="translate(297 1811.532)" fill="#60cb28"/>
          <circle id="Elipse_4721-4" data-name="Elipse 4721" cx="2.5" cy="2.5" r="2.5" transform="translate(308 1811.532)" fill="#60cb28"/>
          <circle id="Elipse_4718-4" data-name="Elipse 4718" cx="2.5" cy="2.5" r="2.5" transform="translate(297 1823.532)" fill="#60cb28"/>
          <circle id="Elipse_4722-4" data-name="Elipse 4722" cx="2.5" cy="2.5" r="2.5" transform="translate(308 1823.532)" fill="#60cb28"/>
        </g>
      </g>
      <g id="Grupo_874740" data-name="Grupo 874740" transform="translate(1897.248 453.526)">
        <g id="Grupo_874738" data-name="Grupo 874738" transform="translate(-1573.321 205.728)">
          <g id="Grupo_874737" data-name="Grupo 874737" transform="translate(0 0)">
            <path id="Trazado_597889" data-name="Trazado 597889" d="M-1326.388,237.533c1.4,3.479-.267,8.058,1.21,11.154,1.5,3.136,5.495,3.3,6.977,6.2,5.034,9.853-.667,11.907-.035,19.39.712,8.36,9.382,12.652,2.019,21.395-6.062,7.2-18.335,6.05-21.092-3.476.2-.274.206-.27.015.013-14.268,9.393-25.381-15.744-8.263-20.756-6.269-4.439-9.031-13.927-1.912-19.417a10.745,10.745,0,0,1,.364-18.231c1.081-.693-3.39-9.625,5.565-10.4C-1335.088,222.848-1328.353,232.663-1326.388,237.533Z" transform="translate(1389.762 -218.355)" fill="#2e1106"/>
            <g id="Grupo_874720" data-name="Grupo 874720" transform="translate(50.002 28.656)">
              <g id="Grupo_874719" data-name="Grupo 874719" transform="translate(97.186)">
                <path id="Trazado_597890" data-name="Trazado 597890" d="M-943.638,318.218l-3.487,1.606s7.071-1.491,8.088-4.528c0,0,.358-.579-.806-.912,0,0-5.644,2.556-8.432,3.062,0,0,6.148-1.391,9.865-3.716,0,0,1.036-1.764-1.068-1.86,1.008-1.1-.463-1.393-.463-1.393a24.4,24.4,0,0,0-4.451.406,99.254,99.254,0,0,1-10.221.894s2.451-4.159.151-5.4l-4.132,5.707-3.449,5.752,1.019,3.752,7.067,1.054s6.127-.469,9.071-1.8C-944.886,320.839-936.728,316.44-943.638,318.218Z" transform="translate(962.042 -306.377)" fill="#e28262"/>
              </g>
              <path id="Trazado_597891" data-name="Trazado 597891" d="M-1301.19,408.7s4.453-8.79,13.888-7.275c0,0,46.119-15.55,55.391-7.335.191,2.363,3.12,14.687-53.184,33.236C-1285.1,427.325-1310.928,429.059-1301.19,408.7Z" transform="translate(1303.384 -367.403)" fill="#97a129"/>
              <path id="Trazado_597892" data-name="Trazado 597892" d="M-1110.911,358.531c5.185-8.1,13.493-11.488,40.171-17.115,0,0,4.578,4.581,4.122,7.624,0,0-32.056,21.724-36.76,21.331C-1103.378,370.372-1116.134,366.691-1110.911,358.531Z" transform="translate(1166.609 -331.44)" fill="#97a129"/>
            </g>
            <g id="Grupo_874723" data-name="Grupo 874723" transform="translate(27.059 266.675)">
              <g id="Grupo_874722" data-name="Grupo 874722" transform="translate(0 94.06)">
                <g id="Grupo_874721" data-name="Grupo 874721" transform="translate(1.324)">
                  <path id="Trazado_597893" data-name="Trazado 597893" d="M-1368.047,1500.081a29.431,29.431,0,0,0,12.533,2.392l-5.459-5.6s-4.719-10.5-5.211-13.895c-.316-2.173,1.165-8.544,1.165-8.544l-8.166-1.711-1.244,4.5-4.79,6.041s-1.15,3.151,4.515,5.392A120.962,120.962,0,0,0-1368.047,1500.081Z" transform="translate(1379.314 -1472.727)" fill="#e28262"/>
                </g>
                <path id="Trazado_597894" data-name="Trazado 597894" d="M-1364.3,1508.173c-2.44.423-6.323-.348-7.755-2.878-5.776-10.184-5.7-16.775-5.7-16.775-5.238,3.33-5.182,7.318-5.182,7.318l-.117,1.608-.912,12.4.841.177,4.938-9.107,3.126,10.544c12.879,5.393,17.052,2.64,17.052,2.64Z" transform="translate(1383.965 -1484.024)" fill="#161615"/>
              </g>
              <path id="Trazado_597895" data-name="Trazado 597895" d="M-1319.433,1148.306s-32.976,91.33-34.942,95.08c0,0-9.732-1.542-9.032-3.8,1.681-5.456,4.848-46.015,6.676-54.789,2.941-14.089,5.554-22.813,17.839-39.479C-1338.893,1145.319-1320.223,1136.987-1319.433,1148.306Z" transform="translate(1369.286 -1142.364)" fill="#0f1114"/>
            </g>
            <path id="Trazado_597896" data-name="Trazado 597896" d="M-1345.119,778.77s5.065,17.832,7.327,29.119c4,19.966,5.616,71.4,5.616,71.4s-16.756,9.073-19.087,4.829c-11.258-20.488-12.579-14.87-28.21-84.256Z" transform="translate(1407.811 -615.616)" fill="#f39672"/>
            <path id="Trazado_597897" data-name="Trazado 597897" d="M-1377.765,795.407s6.346,52.569,26.641,82.358c0,0,6.129,16.209,20.992,3.807,0,0,1.85-85.6-12.587-112.081C-1342.719,769.491-1383.969,767.453-1377.765,795.407Z" transform="translate(1407.044 -608.955)" fill="#0f1114"/>
            <path id="Trazado_597898" data-name="Trazado 597898" d="M-1412.112,646.884c1.594-.289,8.17,3.105,8.17,3.105s8.214,26.4,8.566,30.412-27.25,24.789-58.085,12.958c0,0,14.276-37.172,15.149-46.327S-1412.112,646.884-1412.112,646.884Z" transform="translate(1460.734 -518.448)" fill="#e38865"/>
            <path id="Trazado_597899" data-name="Trazado 597899" d="M-1408.96,660.309s7.873,23.806,8.566,30.412c2.458,23.385-29.185,33.193-60.023,21.361,0,0-2-32.152,17.086-54.731C-1443.331,657.352-1438.258,661.977-1408.96,660.309Z" transform="translate(1465.752 -528.768)" fill="#121418"/>
            <path id="Trazado_597900" data-name="Trazado 597900" d="M-1437.964,879.765l-22.3-12.242s3.618,70.557,6.444,90.375c0,0,12.476,3.473,16.34.908,11.569-27.134,18.269-86.047,18.269-86.047Z" transform="translate(1465.601 -679.1)" fill="#121418"/>
            <path id="Trazado_597901" data-name="Trazado 597901" d="M-1451.473,787.974s-10.7,3.089-8.488,22.919c2.163,19.366,37.78,21.206,41.106,1.348C-1415.275,790.874-1432.611,779.551-1451.473,787.974Z" transform="translate(1465.599 -620.199)" fill="#121418"/>
            <path id="Trazado_597902" data-name="Trazado 597902" d="M-1376.8,351.346h21.464c-.975-3.127-3-11.216.132-16.721l-21.687-14.239S-1373.034,344.281-1376.8,351.346Z" transform="translate(1405.964 -287.742)" fill="#f39672"/>
            <path id="Trazado_597903" data-name="Trazado 597903" d="M-1356.875,341.961a13.977,13.977,0,0,1,1.672-7.335l-21.687-14.239a153.411,153.411,0,0,1,1.733,18.619C-1367.329,341.5-1364.107,342.46-1356.875,341.961Z" transform="translate(1405.964 -287.742)" fill="#db765e"/>
            <path id="Trazado_597904" data-name="Trazado 597904" d="M-1438.253,429.885c-9.663,4.723-6.46,13.538-6.46,13.538l13.058,47.521s12.2,4.986,33.607,2.489c2.974-4.256,9.083-22.082,11.132-35.694,1.685-11.211,6.921-22.257,1.219-28.508-2.187-2.4-18.846-4.788-18.931-5.179h-20.049Z" transform="translate(1454.84 -361.891)" fill="#f39672"/>
            <g id="Grupo_874733" data-name="Grupo 874733" transform="translate(17.815)">
              <path id="Trazado_597905" data-name="Trazado 597905" d="M-1365.448,258.066l1.3-3.165,3.259-9.344a9.554,9.554,0,0,0,.3-5.034,15.268,15.268,0,0,1-.04-7.893c2.205-8.543-1.4-13.241-1.4-13.241-4.635-8.194-16.526-8.76-16.526-8.76-14.739.017-16.659,14.189-16.659,14.189-2.846,9.351,4.307,17.6,4.32,17.61.906,1.042.927,2.66,1.325,3.915a11.842,11.842,0,0,0,1.974,3.706,26.482,26.482,0,0,0,7.227,6.434,29.124,29.124,0,0,0,11.2,3.247C-1367.666,259.791-1366.194,259.883-1365.448,258.066Z" transform="translate(1401.731 -209.234)" fill="#f39672"/>
              <path id="Trazado_597906" data-name="Trazado 597906" d="M-1404.224,244.494c.265-6.716.412-6.3.412-6.3.258-1.953,3.888,2.47,3.94-.088.229-11.713,4.761-17.066,6.471-17.88a20.6,20.6,0,0,1,13.17-1.811c5.865,1.351,5.236,9.213,5.236,9.213,6.5-28.57-26.112-20.992-26.112-20.992-15.864,3.315-15,18.152-15,18.152-2.724,15.743,12.411,25.66,12.411,25.66Z" transform="translate(1416.434 -205.728)" fill="#2e1106"/>
              <g id="Grupo_874732" data-name="Grupo 874732" transform="translate(7.299 27.65)">
                <g id="Grupo_874728" data-name="Grupo 874728">
                  <g id="Grupo_874727" data-name="Grupo 874727">
                    <g id="Grupo_874726" data-name="Grupo 874726">
                      <g id="Grupo_874725" data-name="Grupo 874725">
                        <g id="Grupo_874724" data-name="Grupo 874724">
                          <path id="Trazado_597907" data-name="Trazado 597907" d="M-1384.744,311.727a3.159,3.159,0,0,1-2.072.517,4.635,4.635,0,0,1-3.979-4.968c.079-2.59,1.982-4.572,4.256-4.424a4,4,0,0,1,2.754,1.43c1.036,1.2.962,3.311.631,4.75A4.367,4.367,0,0,1-1384.744,311.727Z" transform="translate(1390.798 -302.844)" fill="#f3906b"/>
                        </g>
                      </g>
                    </g>
                  </g>
                </g>
                <g id="Grupo_874731" data-name="Grupo 874731" transform="translate(2.186 1.472)">
                  <g id="Grupo_874729" data-name="Grupo 874729">
                    <path id="Trazado_597908" data-name="Trazado 597908" d="M-1380.251,309.006c-.063-1.367-2.883-.208-2.506.581a4.2,4.2,0,0,0,1.048,1.129,1.989,1.989,0,0,1,.769,1.529c.008.078.012.316-.071.367-.368.228-1.47-1.159-1.71-1.452a2.275,2.275,0,0,1-.219-2.19,1.358,1.358,0,0,1,1.558-.942c.618.067,1.247.141,1.17.907,0,.016-.036.14-.039.071Z" transform="translate(1383.12 -308.013)" fill="#e47a5d"/>
                  </g>
                  <g id="Grupo_874730" data-name="Grupo 874730" transform="translate(0.205 2.243)">
                    <path id="Trazado_597909" data-name="Trazado 597909" d="M-1380.69,316.008c.3-.272.566-.019.845.2a1.312,1.312,0,0,1,.454.827,3.2,3.2,0,0,1-.459,2.253,1.718,1.718,0,0,1-1.515.709c-.829-.065-1.039-.809-1.034-1.512,0-.187.01-.632.2-.738.208-.117.332.2.456.337a1.182,1.182,0,0,0,.691.3,1.5,1.5,0,0,0,1.258-.487.649.649,0,0,0,.138-.207c-.023.46-.052.557-.088.3a1.215,1.215,0,0,0-.141-.334c-.175-.325-.487-.559-.687-.873-.1-.144-.262-.647-.112-.786Z" transform="translate(1382.399 -315.889)" fill="#e47a5d"/>
                  </g>
                </g>
              </g>
              <path id="Trazado_597910" data-name="Trazado 597910" d="M-1376.244,332.042a1.4,1.4,0,0,1-1.466,1.322,1.393,1.393,0,0,1-1.322-1.463,1.4,1.4,0,0,1,1.464-1.325A1.4,1.4,0,0,1-1376.244,332.042Z" transform="translate(1389.682 -295.03)" fill="#fff"/>
            </g>
            <path id="Trazado_597911" data-name="Trazado 597911" d="M-1281.969,428.145l9.263,1.662s6.75,1.479,6.974,7.256c0,0,.377,10.947-5.581,30.741C-1271.312,467.8-1281.167,437.432-1281.969,428.145Z" transform="translate(1338.068 -364.819)" fill="#97a129"/>
            <path id="Trazado_597912" data-name="Trazado 597912" d="M-1420.347,425.5l-4.174-.643-5.075,18.564-13.734-13.885a15.285,15.285,0,0,0-1.723-1.742l-3.7-3.739-4.554,1.091c-19.573,1.908-24.655,11.046-24.655,11.046l9.039,9.859,6,16.717,6.966,27.814s17.617,7.845,34.492,2.855c4.978-1.473,9.083-22.082,11.131-35.694C-1412.248,441.153-1420.347,425.5-1420.347,425.5Z" transform="translate(1478.258 -361.891)" fill="#97a129"/>
            <path id="Trazado_597913" data-name="Trazado 597913" d="M-1269.607,464.406s8.47,11.731,9.945,17.775c.972,3.971-5.953,12.917-11.545,14.495C-1274.261,497.538-1274.334,465.2-1269.607,464.406Z" transform="translate(1331.905 -390.756)" fill="#97a129"/>
            <g id="Grupo_874734" data-name="Grupo 874734" transform="translate(24.951 57.39)">
              <path id="Trazado_597914" data-name="Trazado 597914" d="M-1328.877,443l-.241,10.869-4-3.914Z" transform="translate(1349.705 -432.832)" fill="#858f1b"/>
              <path id="Trazado_597915" data-name="Trazado 597915" d="M-1370.54,417.218s-12.139-4.971-15.151-9.921l-5.677,5.861,14.73,14.285,6.1-9.982" transform="translate(1391.368 -407.297)" fill="#bbc54b"/>
            </g>
            <path id="Trazado_597916" data-name="Trazado 597916" d="M-1297.708,422.983s-1.177-4.551-6.946-8.4l.754,15.69S-1300.7,422.25-1297.708,422.983Z" transform="translate(1354.294 -355.121)" fill="#bbc54b"/>
            <path id="Trazado_597917" data-name="Trazado 597917" d="M-1291.343,451.247l-.525-7.294c-1.762-.431-3.337,2.035-4.621,4.056Z" transform="translate(1348.454 -376.091)" fill="#858f1b"/>
            <g id="Grupo_874736" data-name="Grupo 874736" transform="translate(9.033 366.758)">
              <g id="Grupo_874735" data-name="Grupo 874735" transform="translate(0.183)">
                <path id="Trazado_597918" data-name="Trazado 597918" d="M-1432.242,1519.6a29.443,29.443,0,0,0,12.755-.229l-6.49-4.355s-6.776-9.313-7.952-12.531c-.754-2.062-.612-8.6-.612-8.6h-8.341l-.3,4.656-3.447,6.894s-.48,3.322,5.523,4.352A121.172,121.172,0,0,0-1432.242,1519.6Z" transform="translate(1446.634 -1493.883)" fill="#f39672"/>
              </g>
              <path id="Trazado_597919" data-name="Trazado 597919" d="M-1426.438,1526.71c-2.3.912-6.258.954-8.181-1.227-7.741-8.784-9.02-15.249-9.02-15.249-4.444,4.334-3.569,8.227-3.569,8.227l.216,1.6,1.654,12.323h.856l2.965-9.927,5.224,9.679c13.71,2.635,17.231-.916,17.231-.916Z" transform="translate(1447.278 -1505.579)" fill="#161615"/>
            </g>
            <path id="Trazado_597920" data-name="Trazado 597920" d="M-1459.716,1159.086l18.225,5.394s-6.267,87.422-7.077,91.578c0,0-9.761,1.317-9.74-1.047.044-5.708-6.658-41.381-7.3-50.319C-1466.716,1189.328-1470.891,1179.023-1459.716,1159.086Z" transform="translate(1470.627 -887.65)" fill="#121418"/>
            <path id="Trazado_597921" data-name="Trazado 597921" d="M-1415.085,603.516s-1.92,35.593,12.413,54.287c0,0-39.349,17.211-76.332.508,3.444-10.843,2.664-10.829,14.23-35.8,0,0,5.8-12.651,4.205-18.991Z" transform="translate(1479.004 -490.26)" fill="#97a129"/>
          </g>
        </g>
        <g id="Grupo_874739" data-name="Grupo 874739" transform="translate(-1610.864 273.038)">
          <path id="Trazado_597922" data-name="Trazado 597922" d="M-1481.187,452.679c.431,6.939-3.194,13.753-10.136,14.18s-24.985-2.742-20.658-8.184c8.5-10.7,13.648-16.072,20.588-16.5S-1481.614,445.739-1481.187,452.679Z" transform="translate(1540.608 -442.141)" fill="#97a129"/>
          <path id="Trazado_597923" data-name="Trazado 597923" d="M-1556.734,480.322l-4.416-11.907-12.924-1.737s-31.306,27.59-35.5,36.375c-4.468,9.36,3.818,6.607,7.256,5.887C-1602.317,508.939-1560.889,487.28-1556.734,480.322Z" transform="translate(1610.864 -459.692)" fill="#97a129"/>
          <path id="Trazado_597924" data-name="Trazado 597924" d="M-1608.835,593.11s15.6,21.942,30.123,34.442c0,0,6.26-.623,4.277-4.038-3.372-5.8-17.254-32.951-20.664-38.771C-1597.018,581.472-1608.835,593.11-1608.835,593.11Z" transform="translate(1609.413 -543.727)" fill="#97a129"/>
          <path id="Trazado_597925" data-name="Trazado 597925" d="M-1498.757,713.024l3.418-.074,8.068-3.648c-.038,4.527.425,9.136.425,9.136a87.859,87.859,0,0,1,6.564,7.763c1.606,1.48-.182,2.3-.182,2.3-3.01-.894-8.692-5.319-8.692-5.319a100.131,100.131,0,0,0,8.258,7.129c1.1,1.453-.733,1.891-.733,1.891-4.328-.109-9.332-6.533-9.332-6.533,1.814,2.484,6.972,6.785,6.972,6.785.224,1.3-.506,1.22-.506,1.22-3.444.44-8.242-5.757-8.242-5.757l1.855,2.275c2.82,2.885.223,3.187.223,3.187l-1.71-1.281a23.525,23.525,0,0,1-7.106-9.074l-3.557-5.965Z" transform="translate(1533.735 -633.238)" fill="#f39672"/>
        </g>
      </g>
      <g id="Grupo_156013" data-name="Grupo 156013" transform="translate(1140.613 655.242)">
        <g id="Grupo_156013-2" data-name="Grupo 156013" clip-path="url(#clip-path)">
          <path id="Trazado_597818" data-name="Trazado 597818" d="M103.88,515.747s-4.286,6.411-10.3,7.8-11.934,3.588-11.978,7.381,17.38,6.056,24.259,2.232c10.267-5.707,11.31-3.987,12.449-6.841s-1.368-10.481-1.294-11.388c.092-1.121-13.139.82-13.139.82" transform="translate(-21.901 -138.097)" fill="#353a3d"/>
          <path id="Trazado_597819" data-name="Trazado 597819" d="M112.712,511.17a27.358,27.358,0,0,0-.665,3.163c.116.065,13.545,1.666,13.139-.82-.329-2.016-.8-4.205-.8-4.205Z" transform="translate(-30.067 -136.683)" fill="#81807e"/>
          <path id="Trazado_597820" data-name="Trazado 597820" d="M167.133,515.012s-3.055,6.132-8.278,8.221c-5.582,2.234-10.06,4.8-9.958,8.5s13.648,7.442,23.5.348c6.225-4.481,8.2-4.5,9.2-7.326s-1.734-10.156-1.7-11.042c.048-1.1-12.765,1.3-12.765,1.3" transform="translate(-39.959 -137.787)" fill="#353a3d"/>
          <path id="Trazado_597821" data-name="Trazado 597821" d="M173.614,510.368a30.129,30.129,0,0,0,.153,3.185c.116.059,13.1,1.128,12.765-1.3a19.945,19.945,0,0,0-1.258-4.265Z" transform="translate(-46.593 -136.328)" fill="#81807e"/>
          <path id="Trazado_597822" data-name="Trazado 597822" d="M101.878,249.95s-12.057,53.19-14.813,69.392c-2.345,13.789-4.213,28.149-3.09,38.1,1.392,12.325,18.837,76.2,18.109,79.813s18.257.579,18.257.579-13.27-71.25-10.619-84.511c1.963-9.821,19.164-75.066,21.8-71.719s5.9,61.575,7.856,71.242,7.946,86.042,7.946,86.042,13.4,1.977,16.978-1.053c0,0,1.631-65.215.386-83.336-.475-6.907,8.093-82.809-2.891-113.365-5.8-16.148-59.919,8.813-59.919,8.813" transform="translate(-22.447 -63.254)" fill="#2d3133"/>
          <path id="Trazado_597823" data-name="Trazado 597823" d="M180.389,96.833,154.712,86.225l-21.97,1.853h-.008l-4.54,2.075-26.589,13.775L108.54,154.6c2.35,9.076-1.813,26.708-2.283,36.1-.378,7.443,2.071,10.794,2.142,10.89v0l57.216-8.046.011,0s2.535-17.984,2.73-27.7Z" transform="translate(-27.268 -23.14)" fill="#decbc4"/>
          <path id="Trazado_597824" data-name="Trazado 597824" d="M110.267,240.946s-1.318,1.577-1.7,8.252c0,0,54.19-6.321,59.919-8.813,0,0,.223-7.357-.992-7.485-1.335-.14-57.228,8.046-57.228,8.046" transform="translate(-29.136 -62.503)" fill="#495055"/>
          <path id="Trazado_597825" data-name="Trazado 597825" d="M165.935,76.592c-.168,8.5-16.635,13.157-16.635,13.157s-6.888-8.635-5.243-9.462c.648-.325.909-1.613.99-3.059a29.766,29.766,0,0,0-.094-3.857c-.048-.6-.1-.988-.1-.988s2.352-2.482,5.345-5.44c5.23-5.172,12.422-11.8,12.433-9.161a2.369,2.369,0,0,1-.061.5c-1.264,5.931,3.36,18.311,3.36,18.311" transform="translate(-38.592 -15.346)" fill="#eea886"/>
          <path id="Trazado_597826" data-name="Trazado 597826" d="M172.187,234.569s1.182,7.458,1.285,9.4l2.507-.5s-.691-7.892-1.1-9.215Z" transform="translate(-46.21 -62.867)" fill="#353a3d"/>
          <path id="Trazado_597827" data-name="Trazado 597827" d="M116.713,242.578s-.95,6.78-.972,9.341l2.652-.345s.544-8.466.846-9.35Z" transform="translate(-31.061 -65.005)" fill="#353a3d"/>
          <path id="Trazado_597828" data-name="Trazado 597828" d="M159.415,66.68h0c-.033.05-.731,1.1-1.922,2.594-2.529,3.18-7.28,8.4-12.623,10.5a29.754,29.754,0,0,0-.094-3.857,8.561,8.561,0,0,1-1.635-.2,50.768,50.768,0,0,1,3.581-5.242l3.3-.988Z" transform="translate(-38.414 -17.895)" fill="#a77860"/>
          <path id="Trazado_597829" data-name="Trazado 597829" d="M158.5,47.674c-1.424,3.1-2.778,5.345-3.161,6.235h0a11.014,11.014,0,0,1-1.922,2.594c-2.715,2.924-7.758,6.779-12.717,6.644a8.621,8.621,0,0,1-1.635-.2,7.776,7.776,0,0,1-5.667-3.915c-10.274-20.113-2.835-36.56-2.835-36.56s28.089-7.944,32.484.512c3.084,5.931-1.2,17.4-4.544,24.685" transform="translate(-34.341 -5.124)" fill="#eea886"/>
          <path id="Trazado_597830" data-name="Trazado 597830" d="M130.26,17.353s-2.609-.144-3.254-5.091c-.638-4.887.65-6.241.65-6.241s11.6-4.854,15.761-5.486,14.4-1.237,16.8,1.507c0,0,5.832-1.354,7.42,8.327,2.521,15.358-8.588,30.271-8.588,30.271s.094-10.034-2.119-11.363-4.122,1.833-4.122,1.833l-4.527.81s6.875-14.844-1.372-15.394-11.934,1.687-16.655.826" transform="translate(-34.037 0)" fill="#2e1106"/>
          <path id="Trazado_597831" data-name="Trazado 597831" d="M162.461,35.5c.43-4.42,8.425-6.108,7.89-1.475s-4.472,9.085-6.291,8.928-1.926-4.084-1.6-7.453" transform="translate(-43.561 -8.391)" fill="#eea886"/>
          <path id="Trazado_597832" data-name="Trazado 597832" d="M215.411,163.77c0-.092,0-.191-.005-.293-.154-6.463-3.334-32.345-8.693-49.511-2.6-8.335-3.2-14.158-4.208-14.878-1.744-1.251-17.264-5.841-23.848-8.425-2.969-1.168-2.864-1.12-4.05-1.572a106.841,106.841,0,0,0-7.305,9.325c-6.8,9.672-15.656,25.33-14.3,39.79.435,4.641.974,11.305,1.876,18.784.077.639.158,1.283.24,1.935.219,1.721.46,3.477.721,5.258q.235,1.6.5,3.224c1.8,11.211,7.446,18.854,12.456,28,.045.078.086.154.13.232.022.044.048.088.072.132.105.195.213.391.318.587.172.319.344.643.514.967.1.185.2.372.291.56.958,1.84,1.9,3.723,2.808,5.613.589,1.22,1.167,2.444,1.732,3.664.058.128.117.253.174.38,0,0,.924,2.144,2.106,4.9.435,1.011.905,2.1,1.378,3.2.323.754.649,1.513.963,2.248.277.644.544,1.27.8,1.863.568,1.326,1.065,2.488,1.411,3.3.255.606.43,1.017.487,1.157,1.723,4.314,2.967,7.644,3.543,9.2.229.626.351.964.351.964L203.2,224.8c3.291-1.648,1.572-10.52.334-13.984a79.279,79.279,0,0,0-4.106-9.163c-.669-1.305-1.367-2.628-2.082-3.96,5.425-9.478,10.92-19.253,14.4-25.9,2.252-4.3,3.663-7.285,3.663-8.032m-27.562-27.127c0-.02.01-.039.015-.061s.013-.054.021-.079c.01-.044.023-.086.035-.127,0-.021.011-.042.017-.062a.038.038,0,0,1,0-.018.052.052,0,0,0,0-.019s8.433,13.18,7.8,24.63c-.1,1.781-1.87,6.285-4.45,12.059,0,.005,0,.007-.005.011-.936,2.1-1.983,4.374-3.095,6.746-.042-.1-.081-.2-.124-.3a29.912,29.912,0,0,1-2.662-10.854s.713-25.123,2.441-31.929" transform="translate(-41.024 -23.909)" fill="#3c4145"/>
          <path id="Trazado_597833" data-name="Trazado 597833" d="M19.789,145.386l39.251,8.548L77.752,105c.413-.328,5.778-3.215,9.33-4.9,3.7-1.762,8.376-3.934,12.528-5.85,1.983-.917,3.851-1.773,5.427-2.5l.129.1s-2.317,7.715-5.314,26.972a.008.008,0,0,1,0,.007q-.151.97-.3,1.978c-.01.078-.024.157-.036.233-.067.446-.137.9-.2,1.354-.008.054-.018.108-.025.161q-.07.46-.136.929-.17,1.14-.339,2.325c-1.337,9.374-3.213,25.325-5.016,41.43v.006c-1.424,12.693-4.671,25.718-5.7,35.439,0,.007,0,.012,0,.019a67.571,67.571,0,0,1-1.35,7.307c-.072.323-.15.653-.228.984-2.9,12.269-8.54,29.635-8.54,29.635l-1.643-1.517-4.863-4.488a3.942,3.942,0,0,1-1.092-4.068c2.7-8.7,11.863-39.493,13.543-61.144a.08.08,0,0,0,0-.019c.526-6.8-1.463-13.209-2.616-19.284-.021.053-.04.105-.058.159-.965,2.684-2.036,5.6-3.114,8.443v0c-2.893,7.629-5.853,14.7-7.085,15.15-2.743,1.009-54.429-13.122-54.785-15.151Z" transform="translate(-4.363 -24.623)" fill="#3c4145"/>
          <path id="Trazado_597834" data-name="Trazado 597834" d="M170.037,110.2l-8.011,4.518,3.423,3.491-9.113,49.205c-1.859-11.533-2.7-22.487-3.333-29.2-2.1-22.355,20.217-47.574,21.605-49.117,1.072.406,2.229.855,3.426,1.329Z" transform="translate(-41.024 -23.909)" fill="#51565c"/>
          <path id="Trazado_597835" data-name="Trazado 597835" d="M133.045,91.593s-2.993,9.776-6.481,34.176c-1.338,9.373-3.215,25.327-5.018,41.429l-1.864-46.082,3.815-4.134-3.392-4.24,7.26-18.536c1.983-.917,3.851-1.774,5.427-2.5Z" transform="translate(-32.119 -24.581)" fill="#51565c"/>
          <path id="Trazado_597836" data-name="Trazado 597836" d="M174.595,87.745l-6.642-4.034s-.186,3.643-16.635,13.158l4.671,13.156Z" transform="translate(-40.609 -22.466)" fill="#f5e2d9"/>
          <path id="Trazado_597837" data-name="Trazado 597837" d="M143.354,86.22s.258,3.931,4.375,11.322l-9.116,11.885-.666-19.276Z" transform="translate(-37.021 -23.139)" fill="#f5e2d9"/>
          <path id="Trazado_597838" data-name="Trazado 597838" d="M149.316,101.7s1.765,7.067,1.13,9.046c0,0-3.886,1.414-6.678-.354a31.073,31.073,0,0,1,5.548-8.692" transform="translate(-38.583 -27.292)" fill="#5ad1a5"/>
          <path id="Trazado_597839" data-name="Trazado 597839" d="M138.7,233.467c-.989-4.987-.047-19.929-.006-20.562l.846.054c-.01.154-.975,15.465-.007,20.343Z" transform="translate(-37.102 -57.137)" fill="#ad9f99"/>
          <path id="Trazado_597840" data-name="Trazado 597840" d="M144.43,237.866s-7.973.952-10.61,1.61l.346,8.937,10.44-1.114Z" transform="translate(-35.913 -63.836)" fill="#69737a"/>
          <path id="Trazado_597841" data-name="Trazado 597841" d="M143.148,112.344s-8.893,22.458-7.443,47.595c1.5,26.064,3.972,35.513,3.972,35.513l5.483,6.877,2.418-8.452s-7.359-33.228-2.608-65.561c.861-5.859,2.139-16.961,2.139-16.961Z" transform="translate(-36.376 -29.884)" fill="#5ad1a5"/>
          <path id="Trazado_597842" data-name="Trazado 597842" d="M179.342,257.658s-1.909,3.816-3.818,4.452-4.69,3.736-4.69,3.736l13.436,7.077s3.578-7,3.739-11.449-8.667-3.816-8.667-3.816" transform="translate(-45.847 -69.139)" fill="#eea886"/>
          <path id="Trazado_597843" data-name="Trazado 597843" d="M180.392,258.158l-.891,1.789s8.534,6.241,10.834,6.639l.79-2.385Z" transform="translate(-48.173 -69.282)" fill="#decbc4"/>
          <path id="Trazado_597844" data-name="Trazado 597844" d="M179.5,242.482s6.4,5.288,11.784,7.727l18.125-32.6-9.391-18.156S179.926,239.3,179.5,242.482" transform="translate(-48.173 -53.527)" fill="#3c4145"/>
          <path id="Trazado_597845" data-name="Trazado 597845" d="M104.148,150.452c-.3,6.031-.253,11.387-.253,11.387v0c0,.029-.008.192-.021.461-.012-.1-.026-.2-.037-.3-.965,2.684-2.036,5.6-3.114,8.444a91.061,91.061,0,0,1-.241-9.2c.432-16.911,5.751-25.778,5.751-25.778-1.219,2.948-1.8,9.271-2.084,14.987" transform="translate(-26.959 -36.355)" fill="#2d3133"/>
          <path id="Trazado_597846" data-name="Trazado 597846" d="M211.186,241.5l-14.511,17.525,12.43-21.486c.715,1.333,1.413,2.655,2.081,3.961" transform="translate(-52.782 -63.747)" fill="#2d3133"/>
          <path id="Trazado_597847" data-name="Trazado 597847" d="M53.029,187.231h-33.5a4.972,4.972,0,0,1-4.834-3.8L.142,123.347A4.975,4.975,0,0,1,4.977,117.2h33.5a4.975,4.975,0,0,1,4.836,3.8l14.551,60.081a4.974,4.974,0,0,1-4.834,6.145" transform="translate(0 -31.453)" fill="#d9c9c2"/>
          <path id="Trazado_597848" data-name="Trazado 597848" d="M14.343,182.252c1.637-1.517,4.8-2.4,7.509-4.207s.445-3.674.445-3.674c2.783-.956,2.485-2.226,2.127-3.091-.481-1.169-3.52-.837-3.52-.837a29.925,29.925,0,0,0,3.845-1.1c1.122-.5.741-2.449-.983-3.067s-8.75,1.114-8.75,1.114,1.145-.561,4.61-2.3,4.225-3.321,2.182-4.08c-1.419-.528-4.211.579-9.568,4.178-4.033,2.71-3.706,3.063-3.706,3.063s3.849,15.813,5.807,14" transform="translate(-2.289 -43.177)" fill="#eea886"/>
        </g>
      </g>
    </g>
  </g>
</svg>
