<svg xmlns="http://www.w3.org/2000/svg" width="451.826" height="319.416" viewBox="0 0 451.826 319.416">
  <g id="Grupo_1015205" data-name="Grupo 1015205" transform="translate(-810.674 -16980.584)">
    <rect id="BG" width="451.826" height="319.416" transform="translate(810.674 16980.584)" fill="#e8e8e8" opacity="0.949"/>
    <g id="Group_32_1_" data-name="Group 32 (1)" transform="translate(949.344 17053.695)">
      <path id="Trazado_604263" data-name="Trazado 604263" d="M.923,201.853s-5.3-55.123,31.385-48.59S74.36,49.189,140.127,46.107s60.483,91.264,93.548,93.53,37.981,62.216,37.981,62.216Z" transform="translate(0 -34.025)" fill="#c4c6d5"/>
      <path id="Trazado_604264" data-name="Trazado 604264" d="M55.7,230.563l-9.511,21.707a43.1,43.1,0,0,1-24.757-34l23.548-2.617A19.452,19.452,0,0,0,55.7,230.563Z" transform="translate(-15.693 -162.131)" fill="#7e19b8"/>
      <path id="Trazado_604265" data-name="Trazado 604265" d="M184.869,102.517a43.124,43.124,0,0,1-56.044,22.524l9.511-21.707A19.439,19.439,0,0,0,154.48,68.041L164,46.316a43.128,43.128,0,0,1,20.873,56.193Z" transform="translate(-96.801 -34.239)" fill="#e0e4ee"/>
      <path id="Trazado_604266" data-name="Trazado 604266" d="M80.413,32.552l-9.5,21.694A19.442,19.442,0,0,0,43.857,72.131c0,.3.009.6.023.889L20.3,75.646A43.136,43.136,0,0,1,80.413,32.552Z" transform="translate(-14.729 -21.157)" fill="#b6c0d7"/>
      <path id="Trazado_604267" data-name="Trazado 604267" d="M817.884,52.714A24.717,24.717,0,1,0,842.6,77.431,24.745,24.745,0,0,0,817.884,52.714Zm.523,36.741a12.038,12.038,0,1,1,11.506-12.548A12.039,12.039,0,0,1,818.407,89.455Z" transform="translate(-598.553 -39.071)" fill="#7e19b8"/>
      <path id="Trazado_604268" data-name="Trazado 604268" d="M815.932,32.616c-.357-.65-.972-.7-2.631-.835-2.049-.162-4.107-.248-6.15-.451a1.476,1.476,0,0,1-1.033-.722c-.977-2.17-1.828-4.4-2.821-6.565a1.263,1.263,0,0,1,.117-1.575c1.579-1.945,3.11-3.93,4.652-5.9.252-.32.492-.65.915-1.214-2.714-2.549-5.4-5.067-8.152-7.652-2.3,1.985-4.426,3.759-6.47,5.613a1.651,1.651,0,0,1-2.193.347c-1.976-.952-4.083-1.624-6.109-2.473a1.359,1.359,0,0,1-.7-.884c-.37-2.513-.749-5.031-.965-7.562-.1-1.214-.618-1.606-1.737-1.566a6.858,6.858,0,0,1-1.3-.194q-2.917.068-5.834.131a3.5,3.5,0,0,1-.627.2c-2.243.289-1.882.1-2.053,2.206-.212,2.563-.379,5.13-.537,7.359-2.933,1.318-5.676,2.549-8.51,3.826-2.418-1.9-4.945-3.876-7.49-5.866a35.618,35.618,0,0,0-7.625,8.126c1.958,2.261,3.862,4.471,5.78,6.669a.989.989,0,0,1,.217,1.254c-.988,2.251-1.917,4.53-2.743,6.84a1.16,1.16,0,0,1-1.16.911c-2.563.3-5.117.663-7.679.979-.636.077-.961.284-1.056,1a31.872,31.872,0,0,0,.379,9.6c.108.632.487.713,1.029.749,2.5.153,5,.366,7.5.5a1.259,1.259,0,0,1,1.331.984c.975,2.567,2.1,5.081,3.248,7.819-1.723,2.2-3.677,4.692-5.631,7.187a33.353,33.353,0,0,0,8.135,7.8c2.459-2.148,4.846-4.237,7.012-6.132,2.527.9,4.855,1.787,7.228,2.527a1.6,1.6,0,0,1,1.34,1.593c.239,2.454.578,4.9.9,7.35.063.483.009,1.119.808,1.1q4.866-.142,9.737-.289c.69-.023.925-.388.961-1.074.14-2.54.393-5.071.492-7.612.036-.979.505-1.281,1.318-1.606a57.77,57.77,0,0,0,5.893-2.671,1.406,1.406,0,0,1,1.913.167c2.184,1.809,4.435,3.537,6.615,5.256,2-1.133,6.483-5.929,7.756-8.266-1.9-2.166-3.808-4.372-5.775-6.524a1.209,1.209,0,0,1-.2-1.548c.844-2.067,1.548-4.192,2.373-6.267a1.485,1.485,0,0,1,.947-.808c2.256-.325,4.525-.569,6.8-.812,1.268-.135,1.782-.19,2.021-.672Zm-20.9,22.357a23.017,23.017,0,1,1,7.084-16.126A22.858,22.858,0,0,1,795.031,54.973Z" transform="translate(-559.773)" fill="#7e19b8"/>
      <path id="Trazado_604269" data-name="Trazado 604269" d="M898.961,322.4a14.479,14.479,0,1,0,14.478,14.479A14.5,14.5,0,0,0,898.961,322.4Zm.307,21.522a7.052,7.052,0,1,1,6.741-7.35A7.051,7.051,0,0,1,899.268,343.918Z" transform="translate(-667.519 -242.752)" fill="#b6c0d7"/>
      <path id="Trazado_604270" data-name="Trazado 604270" d="M897.785,310.646c-.208-.384-.57-.415-1.539-.492-1.2-.095-2.406-.144-3.605-.262a.867.867,0,0,1-.6-.424c-.573-1.272-1.07-2.576-1.652-3.844a.74.74,0,0,1,.069-.92c.925-1.137,1.818-2.3,2.724-3.456.149-.19.289-.379.538-.709-1.593-1.493-3.164-2.969-4.779-4.48-1.349,1.164-2.594,2.2-3.79,3.289a.965.965,0,0,1-1.286.2c-1.155-.555-2.391-.952-3.578-1.448a.793.793,0,0,1-.411-.519c-.217-1.471-.438-2.946-.568-4.431-.063-.713-.361-.943-1.02-.916a4.1,4.1,0,0,1-.763-.113c-1.141.027-2.279.05-3.42.077a1.922,1.922,0,0,1-.366.117c-1.313.167-1.1.059-1.2,1.295-.122,1.5-.221,3-.316,4.309l-4.986,2.238c-1.417-1.11-2.9-2.27-4.386-3.438a20.913,20.913,0,0,0-4.467,4.76c1.146,1.327,2.261,2.617,3.384,3.9a.576.576,0,0,1,.126.735c-.577,1.317-1.123,2.653-1.606,4.007a.679.679,0,0,1-.677.532c-1.5.176-3,.388-4.5.573-.374.045-.564.167-.618.586a18.681,18.681,0,0,0,.221,5.627c.063.37.284.42.6.438,1.466.09,2.928.212,4.395.293a.737.737,0,0,1,.781.578c.569,1.507,1.227,2.978,1.9,4.58-1.011,1.286-2.152,2.748-3.3,4.21a19.549,19.549,0,0,0,4.765,4.566l4.106-3.592c1.48.523,2.843,1.047,4.237,1.48a.932.932,0,0,1,.785.934c.14,1.44.338,2.874.528,4.3.036.284,0,.654.474.641q2.849-.088,5.7-.167c.406-.013.541-.23.564-.627.081-1.489.23-2.974.289-4.458.023-.573.3-.749.771-.943a33,33,0,0,0,3.452-1.566.822.822,0,0,1,1.119.1c1.277,1.06,2.6,2.071,3.876,3.077a18.631,18.631,0,0,0,4.543-4.841c-1.114-1.268-2.232-2.563-3.382-3.822a.7.7,0,0,1-.113-.907c.494-1.209.906-2.454,1.388-3.673a.88.88,0,0,1,.556-.474c1.322-.19,2.653-.334,3.979-.478.744-.081,1.043-.108,1.187-.393l-.135-6.064ZM885.543,323.74a13.483,13.483,0,1,1,4.151-9.448A13.4,13.4,0,0,1,885.543,323.74Z" transform="translate(-644.77 -219.888)" fill="#b6c0d7"/>
      <path id="Trazado_604271" data-name="Trazado 604271" d="M369.719,171.81H226.273a11.334,11.334,0,0,0-11.334,11.334v88.133a11.334,11.334,0,0,0,11.334,11.334H369.719a11.335,11.335,0,0,0,11.334-11.334V183.144A11.334,11.334,0,0,0,369.719,171.81Z" transform="translate(-161.839 -129.02)" fill="#fff"/>
      <path id="Trazado_604272" data-name="Trazado 604272" d="M319.92,293.34H307.968v67.879H319.92Z" transform="translate(-232.101 -220.807)" fill="#e3e4ed"/>
      <path id="Trazado_604273" data-name="Trazado 604273" d="M319.92,501.354H307.968v16.97H319.92Z" transform="translate(-232.101 -377.912)" fill="#a9e6f1"/>
      <path id="Trazado_604274" data-name="Trazado 604274" d="M393.909,293.34H381.952v67.879h11.957Z" transform="translate(-287.978 -220.807)" fill="#e3e4ed"/>
      <path id="Trazado_604275" data-name="Trazado 604275" d="M393.909,466.989H381.952v25.38h11.957Z" transform="translate(-287.978 -351.957)" fill="#e0e4ee"/>
      <path id="Trazado_604276" data-name="Trazado 604276" d="M467.874,293.34H455.917v67.879h11.957Z" transform="translate(-343.841 -220.807)" fill="#e3e4ed"/>
      <path id="Trazado_604277" data-name="Trazado 604277" d="M467.869,397.651H455.917V440h11.952Z" transform="translate(-343.841 -299.589)" fill="#b6c0d7"/>
      <path id="Trazado_604278" data-name="Trazado 604278" d="M541.835,293.34H529.883v67.879h11.952Z" transform="translate(-399.704 -220.807)" fill="#e3e4ed"/>
      <path id="Trazado_604279" data-name="Trazado 604279" d="M541.835,432.017H529.883v33.939h11.952Z" transform="translate(-399.704 -325.544)" fill="#e0e4ee"/>
      <path id="Trazado_604280" data-name="Trazado 604280" d="M615.823,293.34H603.866v67.879h11.957Z" transform="translate(-455.581 -220.807)" fill="#e3e4ed"/>
      <path id="Trazado_604281" data-name="Trazado 604281" d="M615.823,362.678H603.866v50.909h11.957Z" transform="translate(-455.581 -273.175)" fill="#b6c0d7"/>
      <path id="Trazado_604282" data-name="Trazado 604282" d="M689.784,293.34H677.832v67.879h11.952Z" transform="translate(-511.445 -220.807)" fill="#7e19b8"/>
      <path id="Trazado_604283" data-name="Trazado 604283" d="M763.749,293.34H751.8v67.879h11.953Z" transform="translate(-567.307 -220.807)" fill="#e3e4ed"/>
      <path id="Trazado_604284" data-name="Trazado 604284" d="M763.749,342.6H751.8V398.42h11.953Z" transform="translate(-567.307 -258.012)" fill="#b6c0d7"/>
      <path id="Trazado_604285" data-name="Trazado 604285" d="M381.053,183.144v5.035H214.939v-5.035a11.336,11.336,0,0,1,11.334-11.334H369.719A11.336,11.336,0,0,1,381.053,183.144Z" transform="translate(-161.839 -129.02)" fill="#b6c0d7"/>
      <path id="Trazado_604286" data-name="Trazado 604286" d="M828.767,195.648l4.747,4.747" transform="translate(-625.44 -147.024)" fill="none" stroke="#fff" stroke-miterlimit="10" stroke-width="3.687"/>
      <path id="Trazado_604287" data-name="Trazado 604287" d="M833.514,195.648l-4.747,4.747" transform="translate(-625.44 -147.024)" fill="none" stroke="#fff" stroke-miterlimit="10" stroke-width="3.687"/>
      <path id="Trazado_604288" data-name="Trazado 604288" d="M792.475,195.648h-4.746v4.747h4.746Z" transform="translate(-594.446 -147.024)" fill="none" stroke="#fff" stroke-miterlimit="10" stroke-width="3.687"/>
      <path id="Trazado_604289" data-name="Trazado 604289" d="M748.715,215.042H742.6" transform="translate(-560.359 -161.671)" fill="none" stroke="#fff" stroke-miterlimit="10" stroke-width="3.687"/>
      <path id="Trazado_604290" data-name="Trazado 604290" d="M167.786,619.484c-.045,2.274-1.457,5.333-1.882,6.8-.334,1.141-.713,2.269-1.065,3.406-.713,2.292.185,9.358-3.041,9.841-4.665.695-1.651-5.257-1.326-7.075.221-1.245.4-2.5.541-3.754.14-1.209.239-2.418.3-3.637a19.428,19.428,0,0,1,.406-3.722c.523-2.112,1.656-5.563,4.62-4.458a2.411,2.411,0,0,1,1.439,2.6Z" transform="translate(-119.754 -465.003)" fill="#82542c"/>
      <path id="Trazado_604291" data-name="Trazado 604291" d="M158.6,698.793a1.784,1.784,0,0,0,0-.514.6.6,0,0,1,.122-.329c.09-.14.2-.262.293-.4.077-.117.135-.244.2-.365.036-.063.086-.158.171-.167a.268.268,0,0,1,.163.072c.257.194.46.456.713.659a10.915,10.915,0,0,0,2.039,1.236,5.8,5.8,0,0,0,2,.6c.42.04.839.045,1.255.068a2.289,2.289,0,0,1,.717.113c.284.117.343.388.365.668.014.194.014.388.032.578a1.49,1.49,0,0,1,.014.375.64.64,0,0,1-.208.361,3.585,3.585,0,0,1-1.9.817,10.414,10.414,0,0,1-2.12.077l-3.186-.135c-.727-.032-1.457-.05-2.184-.018a16.3,16.3,0,0,1-2.437.072,1.732,1.732,0,0,1-1.2-.5,1.471,1.471,0,0,1-.248-1.024,8.546,8.546,0,0,1,.19-1.164c.081-.4.162-.8.275-1.191a1.9,1.9,0,0,1,.284-.69.283.283,0,0,1,.153-.117.15.15,0,0,1,.131.059,6.686,6.686,0,0,0,.442.505,4.688,4.688,0,0,0,1.872.916,2.136,2.136,0,0,0,1.71-.185.829.829,0,0,0,.343-.384Z" transform="translate(-115.205 -525.687)" fill="#3d535c"/>
      <path id="Trazado_604292" data-name="Trazado 604292" d="M163.534,395.42a5.936,5.936,0,0,0-.226-.9c-.388-1.087-2.337-1.512-3.325-1.164a3.3,3.3,0,0,0-1.9,2.175,9.715,9.715,0,0,0-.311,2.96,2.114,2.114,0,0,0-2.346-.8,16.143,16.143,0,0,0,.541,3.271c.388,1.168-.65,2.242-.149,3.235.352.69,1.119.83,1.791,1.033.794.239,1.331.78,2.058,1.033a15.206,15.206,0,0,0,.668-1.755l.3-.92c.068-.217-.05-.51.275-.478.46.045,1.6.393,1.886-.185.744-1.083.889-3.109.911-4.377a17.975,17.975,0,0,0-.176-3.127Z" transform="translate(-116.873 -296.257)" fill="#966c49"/>
      <path id="Trazado_604293" data-name="Trazado 604293" d="M150.728,620.776c.415,2.238-.356,5.518-.478,7.034-.095,1.187-.244,2.364-.361,3.551-.239,2.387,2.058,9.132-1.006,10.251-4.431,1.615-2.671-4.819-2.716-6.669-.032-1.263-.108-2.527-.221-3.786a49.708,49.708,0,0,1,.163-8.113c.158-2.075-.3-5,2.689-4.534C149.957,618.692,150.512,619.585,150.728,620.776Z" transform="translate(-109.649 -466.359)" fill="#966c49"/>
      <path id="Trazado_604294" data-name="Trazado 604294" d="M146.59,699.615a1.789,1.789,0,0,0-.009-.514.634.634,0,0,1,.117-.329c.09-.14.2-.266.289-.406.077-.117.131-.248.2-.37.036-.063.086-.158.167-.172a.245.245,0,0,1,.167.072c.262.194.465.451.722.65a10.9,10.9,0,0,0,2.053,1.209,5.884,5.884,0,0,0,2,.582c.42.036.839.036,1.259.054a2.159,2.159,0,0,1,.717.1c.284.113.348.384.37.663.018.194.018.388.041.578a1.3,1.3,0,0,1,.013.374.659.659,0,0,1-.2.366,3.626,3.626,0,0,1-1.9.839,10.118,10.118,0,0,1-2.12.1c-1.065-.032-2.125-.068-3.19-.1-.726-.022-1.457-.031-2.184.009a16.281,16.281,0,0,1-2.436.1,1.711,1.711,0,0,1-1.2-.483,1.515,1.515,0,0,1-.262-1.024,8.438,8.438,0,0,1,.176-1.164c.077-.4.153-.8.262-1.2a2.018,2.018,0,0,1,.275-.695.284.284,0,0,1,.153-.117.14.14,0,0,1,.131.059c.163.158.266.352.447.5a4.779,4.779,0,0,0,1.881.9,2.126,2.126,0,0,0,1.706-.208.829.829,0,0,0,.338-.388Z" transform="translate(-106.151 -526.297)" fill="#4a6570"/>
      <path id="Trazado_604295" data-name="Trazado 604295" d="M149.133,538.914c2.572,1.182,3.24,4.192,4.1,6.619a50.448,50.448,0,0,1,2.188,8.889c.343,2.184,1.083,3.808.844,6.082a29.29,29.29,0,0,1-1.575,6.339c-.32.934-4.079,12.53-3.235,12.548l-5.274-.117q.643-7.851,1.29-15.706c.2-2.441.736-4.828-.117-7.165a26.41,26.41,0,0,0-3.145-6.051c-1.345-1.931-3.027-3.817-3.352-6.235-.325-2.437,1.823-4.016,3.894-4.995A5.276,5.276,0,0,1,149.133,538.914Z" transform="translate(-105.861 -405.987)" fill="#641493"/>
      <path id="Trazado_604296" data-name="Trazado 604296" d="M148.4,539.719c1.9,2.1,1.327,5.126,1.16,7.7a50.326,50.326,0,0,1-1.489,9.033c-1.967,7.815-2.455,16.437-2.743,24.46a23.646,23.646,0,0,0-6.461-.776,87.975,87.975,0,0,1,.474-19.027c.749-5.595.97-11.068-1.024-16.509-.451-1.236-.988-2.658-.325-3.795a3.974,3.974,0,0,1,1.954-1.439,12.119,12.119,0,0,1,4.35-1.187,5.278,5.278,0,0,1,4.115,1.539Z" transform="translate(-103.486 -405.719)" fill="#7e19b8"/>
      <path id="Trazado_604297" data-name="Trazado 604297" d="M164.193,556.938c1.954-1.006,2.2-4.413,1.245-6.267-1.024-1.985-3.064-1.457-4.941-1.936.266,1.692.18,8.4,2.315,8.487A2.7,2.7,0,0,0,164.193,556.938Z" transform="translate(-120.722 -413.697)" fill="#641493"/>
      <path id="Trazado_604298" data-name="Trazado 604298" d="M168.14,449.341q-.934-.481-1.814-1.047c-.537-.348-1.227-.726-1.764-.379a1.638,1.638,0,0,0-.555,1.051,3.985,3.985,0,0,0-.063,2.382c.442,1.092,1.71,1.552,2.842,1.891,1.855.555,3.75,1.575,5.636.821a30.707,30.707,0,0,0,3.867-1.6c3.05-1.462,7.639-5.23,9.971-2.622-.153-1.2,0-2.5-1.218-3.145a2.731,2.731,0,0,0-2.942.393,10.241,10.241,0,0,1-4.106,1.814c-1.2.32-2.391.632-3.6.9a17.1,17.1,0,0,1-2.883.754,3.508,3.508,0,0,1-1.295-.3,20.8,20.8,0,0,1-2.076-.925Z" transform="translate(-123.203 -336.429)" fill="#966c49"/>
      <path id="Trazado_604299" data-name="Trazado 604299" d="M171.254,455.349l2.13-4.679-4.246-3.168s-2.6,2.333-2.509,2.59,4.625,5.252,4.625,5.252Z" transform="translate(-125.351 -337.239)" fill="#304c8e"/>
      <path id="Trazado_604300" data-name="Trazado 604300" d="M141.208,435.648c-.217.194-.469.356-.672.564a5.591,5.591,0,0,1-.528.555,4.69,4.69,0,0,0-.785.677,3.8,3.8,0,0,0-.5.871,6.063,6.063,0,0,1-.586,1.042,7.069,7.069,0,0,0-.889,2.1,7.925,7.925,0,0,0-.365,2.292,20.262,20.262,0,0,0,.167,2.337c.1.871.217,1.737.257,2.617a21.328,21.328,0,0,1-.041,2.4,9.094,9.094,0,0,0,.023,2.549c.167.79.388,1.557.478,2.364a2.994,2.994,0,0,1,.018.8,5.869,5.869,0,0,1-.348,1.015,11.639,11.639,0,0,0-.569,2.247c-.135.853-.208,1.71-.271,2.572a5.932,5.932,0,0,1-.135,1.092,2.643,2.643,0,0,0-.189.713c.009.248.379.257.555.28.857.113,1.706.235,2.559.37.4.063.79.131,1.186.189.19.027.379.041.564.059a1.292,1.292,0,0,0,.266.018c.293-.036.4-.424.474-.654.131-.384.235-.781.4-1.151.032-.072.09-.234.176-.266.059-.023.095.018.126.068a5.264,5.264,0,0,1,.266.686c.14.293.429.185.717.194l2.991.28c.248.036.5.072.744.113a7.592,7.592,0,0,0,1.34.212.257.257,0,0,0,.243-.095c.077-.135,0-.374-.032-.505a6.173,6.173,0,0,1-.167-1.548,10.59,10.59,0,0,1,.226-1.5c.095-.487.172-.975.226-1.466a30.7,30.7,0,0,0,.122-3.221c0-1.033-.036-2.062-.086-3.091-.054-1.124-.081-2.243-.122-3.366-.041-1.087-.113-2.17-.239-3.249a28.839,28.839,0,0,0-.519-3.113,14.9,14.9,0,0,0-.456-1.534,13.969,13.969,0,0,1-.379-1.48,2.8,2.8,0,0,0-.379-.993c-.135-.2-.3-.375-.456-.564s-.284-.379-.424-.573l-5-2.9Z" transform="translate(-102.425 -328.286)" fill="#4591bf"/>
      <path id="Trazado_604301" data-name="Trazado 604301" d="M150.453,493.771a40.1,40.1,0,0,1-2.96-7.914c-.311-1.2-.379-2.5-.663-3.677-.14-.569-1.105-2.13-.988-2.6-1.453,5.8-1.322,11.221,2.292,16.162.519.708,1.367,1.444,2.17,1.087a1.432,1.432,0,0,0,.722-1.444,4.459,4.459,0,0,0-.577-1.611Z" transform="translate(-108.999 -361.467)" fill="#304c8e"/>
      <path id="Trazado_604302" data-name="Trazado 604302" d="M159.693,471.506q-.318-4.365-.636-8.735a6.966,6.966,0,0,1,.226-3.041c1.8-4.656,3.483,2.008,3.452,3.754a12.926,12.926,0,0,1-.839,4.368C161.6,468.628,159.653,470.92,159.693,471.506Z" transform="translate(-119.589 -345.249)" fill="#304c8e"/>
      <path id="Trazado_604303" data-name="Trazado 604303" d="M155.275,431.5c.068-.6.217-1.254.591-1.286a2.238,2.238,0,0,1,1.326.365,8.4,8.4,0,0,1,.907.749c.28.244.555.5.812.767.442.46.812.979,1.245,1.448.569.609.627.627.37,1.448q-2.66-1.286-5.32-2.567c.018-.194.027-.551.072-.92Z" transform="translate(-116.726 -324.177)" fill="#4591bf"/>
      <path id="Trazado_604304" data-name="Trazado 604304" d="M149.061,475.6a6.492,6.492,0,0,0-.1-3.416,2.348,2.348,0,0,0-3.573-1.2,4.2,4.2,0,0,0-1.593,4.232,34.855,34.855,0,0,0,1.218,6.168,35.223,35.223,0,0,0,1.877,4.539c1.715,3.578,4.873,7.558,3.077,11.7,1.412-.181,2.937,0,3.691-1.431a3.2,3.2,0,0,0-.46-3.452,12.027,12.027,0,0,1-2.13-4.819c-.528-1.958-1.02-3.916-1.426-5.9-.194-.957-.69-1.918-.889-2.91a11.064,11.064,0,0,1,.307-3.52Z" transform="translate(-108.067 -354.66)" fill="#966c49"/>
      <path id="Trazado_604305" data-name="Trazado 604305" d="M149.1,450.887c-.068.172-.135.338-.2.51a5.415,5.415,0,0,1-.293.735c-.081.135-.2.239-.275.374a3.5,3.5,0,0,0-.325,1.62c-.009.352.014.708.014,1.06a.633.633,0,0,1-.054.365.133.133,0,0,1-.122.05,2.255,2.255,0,0,1-.668-.248,8.437,8.437,0,0,0-1.936-.474,14.374,14.374,0,0,0-2.062-.185,2.739,2.739,0,0,0-.767.081c-.1.032-.257.135-.366.113-.2-.041-.058-.569-.045-.677a12.1,12.1,0,0,0,.122-2.1c-.014-.365-.059-.726-.054-1.092a5.051,5.051,0,0,1,.117-.975,4.194,4.194,0,0,1,4.426-3.181,2.943,2.943,0,0,1,2.49,4.025Z" transform="translate(-106.703 -336.744)" fill="#4591bf"/>
      <path id="Trazado_604306" data-name="Trazado 604306" d="M159.023,389.49a3.555,3.555,0,0,0-1.5-.505,5.762,5.762,0,0,0-3.181.65,4.117,4.117,0,0,0-2.058,2.4,8.662,8.662,0,0,0-.185,3.285,12.791,12.791,0,0,0,1.39,3.208c.266-.063.388-.37.469-.632a1.28,1.28,0,0,0,.081-.708,2.4,2.4,0,0,0-.3-.546c-.226-.393-.379-1.584.329-1.629.645-.041.74,1.155.848,1.6.072.284.329.573.618.505a.539.539,0,0,0,.356-.537,2.358,2.358,0,0,0-.163-.672c-.208-.636-.559-1.76.023-2.251.3-.253.681-.433.839-.785.289-.645-.059-1.453.469-2.039.731-.817,1.521-.262,2.319.009.4.136.97-.009,1.006-.429.05-.632-.961-.686-1.358-.916Z" transform="translate(-114.316 -293.03)" fill="#4d3426"/>
      <path id="Trazado_604307" data-name="Trazado 604307" d="M888.315,413.935a19.289,19.289,0,0,1,2.342-.559,3.443,3.443,0,0,1,2.346.672,2.24,2.24,0,0,1,.821,2.215c.559.131.69.293.889.844a5.035,5.035,0,0,1-.424,3.411l-1.029,2.748c-.144.388-.189.51-.6.6a2.715,2.715,0,0,1-1.3.023,1.223,1.223,0,0,1-.956-.781c-.163-.541-.4-1.069-1.087-.993-.582.063-1.015.641-1.6.681a1.258,1.258,0,0,1-1.11-.7,3.647,3.647,0,0,1-.343-1.336l-.266-2.089c-.1-.8.1-1.972-.632-2.527a6.14,6.14,0,0,1-.763-.542.673.673,0,0,1-.135-.848c.42.3,1,.072,1.471-.126l.235-.1a10.388,10.388,0,0,1,2.152-.591Z" transform="translate(-667.428 -311.46)" fill="#7e19b8"/>
      <path id="Trazado_604308" data-name="Trazado 604308" d="M881.379,441.7a.787.787,0,0,0,.352.384.8.8,0,0,0,.961-.2c.054-.293.578-2.5-.28-2.288a5.052,5.052,0,0,0-1.074,1.588.788.788,0,0,0,.041.519Z" transform="translate(-665.125 -331.261)" fill="#f5906e"/>
      <path id="Trazado_604309" data-name="Trazado 604309" d="M892.573,434.348q-1.157.291-2.315.578c-.609.153-1.182.365-1.782.523-.334.09-.325.009-.586-.217a3.428,3.428,0,0,0-1.512-.686c-.5-.113-1.331.014-1.769-.257-.623-.379-.636-1.083-.7-1.742-.212-2.251-.347-4.769.79-6.809.117-.212.275-.668.573-.641a.876.876,0,0,1,.438.239c.4.338.979.875.695,1.453-.234.478-.5.771-.212,1.354a2.5,2.5,0,0,1,.474,1.466c-.045.37-.343.916.032,1.2.217.163.645.4.884.163a1.293,1.293,0,0,0,.248-.614,4.266,4.266,0,0,1,.316-1.024,1.151,1.151,0,0,1,.943-.523c.3.014.429.366.492.614.095.365-.058.681-.018,1.033a1.973,1.973,0,0,0,.483,1.065,3.161,3.161,0,0,0,1.647.7,1.322,1.322,0,0,1,.542.23c.266.225.149.442.144.726a6.669,6.669,0,0,0,.194,1.146Z" transform="translate(-666.979 -320.318)" fill="#ffb980"/>
      <path id="Trazado_604310" data-name="Trazado 604310" d="M887.191,462.08l4.49-.2-.343,1.2Z" transform="translate(-669.565 -348.1)" fill="#f5906e"/>
      <path id="Trazado_604311" data-name="Trazado 604311" d="M907.245,459.959a1.77,1.77,0,0,1-.618.045c-.42.027-.839.072-1.259.113a15.421,15.421,0,0,0-2.324.352c-.659.167-1.236.528-1.882.713a.959.959,0,0,1-.921-.122c-.221-.23.081-.533.244-.69a9.722,9.722,0,0,1,1.742-1.25,9.044,9.044,0,0,1,2.03-1,3.15,3.15,0,0,1,1.367-.176c.433.068.7.478.957.79a6.683,6.683,0,0,1,.6.79.634.634,0,0,1,.14.352c-.009.05-.036.063-.077.086Z" transform="translate(-679.364 -345.108)" fill="#fff"/>
      <path id="Trazado_604312" data-name="Trazado 604312" d="M907.554,745.465c.505,1.85-2.053,2.847-3.452,3.217-.894.239-2.739-.081-3.253.848a.963.963,0,0,0-.05.8c.235.6.853.591,1.385.7,2.306.478,5.672.871,7.743-.546a1.748,1.748,0,0,1,.041.9h2.775a20.6,20.6,0,0,0,.036-2.892c-.09-.785-.28-1.566-.329-2.355-1.633-.226-3.267-.456-4.9-.677Z" transform="translate(-679.794 -562.279)" fill="#3d535c"/>
      <path id="Trazado_604313" data-name="Trazado 604313" d="M915.224,591.452c-.077-1.074.442-2.5.068-3.465-.542-1.376-2.554-1.7-3.813-1.787a7.923,7.923,0,0,0-4.164.6c-2.333,1.182-3.352,4.1-3.086,6.7.307,3.019,2.283,5.306,2.946,8.144.311,1.34.835,2.631,1.1,3.98a4.608,4.608,0,0,0,.329,1.3,5.15,5.15,0,0,0,.789.871c.564.645.352,1.593.582,2.369a13.315,13.315,0,0,1,.469,1.773c.1.659.144,1.327.18,1.994.072,1.408.09,2.815.189,4.223a9.348,9.348,0,0,1-.189,3.957,8.419,8.419,0,0,0-.307.916c-.131.559-.063,1.137-.194,1.683a17.271,17.271,0,0,1-.979,2.427,30.134,30.134,0,0,0,5.342.916,1.5,1.5,0,0,0,1.115-.212c.663-.564.077-2.012.2-2.779.077-.483.271-.934.307-1.422a18.469,18.469,0,0,0-.032-2.12c-.081-2.328.564-4.521.6-6.854.068-4.124-.555-8.234-.609-12.376-.045-3.208-.465-6.353-.74-9.529-.036-.438-.072-.871-.1-1.308Z" transform="translate(-682.401 -441.962)" fill="#304c8e"/>
      <path id="Trazado_604314" data-name="Trazado 604314" d="M855.394,742.958c.578,2.112-2.342,3.249-3.939,3.673-1.02.271-3.122-.095-3.713.97a1.085,1.085,0,0,0-.054.916c.271.686.975.672,1.584.8,2.631.546,6.475,1,8.839-.623a2.088,2.088,0,0,1,.049,1.029h3.168a23.688,23.688,0,0,0,.041-3.3c-.1-.893-.32-1.787-.375-2.685q-2.8-.385-5.595-.776Z" transform="translate(-639.672 -560.386)" fill="#4a6570"/>
      <path id="Trazado_604315" data-name="Trazado 604315" d="M885.866,592.976a30.41,30.41,0,0,0,2.36-6.84,57.335,57.335,0,0,0-8.464-.97,5.957,5.957,0,0,0-3.172.487c-1.588.884-1.182,2.734-1.385,4.255-1.34,10.143-2.892,20.3-2.8,30.564.009,1.042.027,2.08.077,3.122a8.38,8.38,0,0,1-.442,2.558c2.518.69,5.189.316,7.616,1.1a34.693,34.693,0,0,1,.352-3.528c.023-1.363-.217-2.694-.072-4.07.6-5.694.826-11.469,2.116-17.064.776-3.366,2.391-6.47,3.813-9.615Z" transform="translate(-658.12 -441.198)" fill="#4591bf"/>
      <path id="Trazado_604316" data-name="Trazado 604316" d="M884.036,577.8l-.311,3.348,11.181-1.981,4.864-.591-1.854-9.466Z" transform="translate(-666.948 -429.082)" fill="#304c8e"/>
      <path id="Trazado_604317" data-name="Trazado 604317" d="M883.814,474.113a35.3,35.3,0,0,0,.329,7.332,54.162,54.162,0,0,1-.235,14.2,2.541,2.541,0,0,0,.758,2.581,2.982,2.982,0,0,0,1.958.216l7.589-.92a11.019,11.019,0,0,0,5.225-1.548c2.933-2.107,1.11-4.9.772-7.693-.257-2.1-.361-4.21-.677-6.3-.537-3.528.1-7.125-.559-10.671a24.085,24.085,0,0,0-.848-4.372c-.853-2.121-2.477-4.417-4.868-4.282a9.113,9.113,0,0,0-5.952,2.843,14.1,14.1,0,0,0-3.492,8.6Z" transform="translate(-666.955 -348.681)" fill="#4591bf"/>
      <path id="Trazado_604318" data-name="Trazado 604318" d="M885.214,566.582c-.4.361-.9.5-1.191.943a10.02,10.02,0,0,0-.645,2.076c-.1.311-.149.749.149.875s.573-.189.722-.474.383-.618.69-.55a1.511,1.511,0,0,0-.6.817c-.28,1.593,1.764-.469,2-.623a7.469,7.469,0,0,0,2.026-1.236c.92-1.069.925-3.027-.866-3.027a4.747,4.747,0,0,0-1.322.226l-.97.975Z" transform="translate(-666.627 -426.269)" fill="#ffb980"/>
      <path id="Trazado_604319" data-name="Trazado 604319" d="M885.532,503.518l6.542-9.078-2.96,11.4-3.077,2.748Z" transform="translate(-668.312 -372.69)" fill="#304c8e"/>
      <path id="Trazado_604320" data-name="Trazado 604320" d="M886.77,559.266c-.762,1.254.8,2.761,2.022,2.5a3.328,3.328,0,0,0,2.337-2.157c.194-.988-.961-2.035-1.6-2.685a25.6,25.6,0,0,0-2.459,2.039,1.34,1.34,0,0,0-.519.677c-.063.284.154.636.442.591" transform="translate(-669.072 -419.879)" fill="#fff"/>
      <path id="Trazado_604321" data-name="Trazado 604321" d="M871.1,472.813c-1.909,3.388-5.067,6.47-5.73,10.436-.379,2.256.383,3.917,1.588,5.767,1.182,1.818,1.976,3.885,3.194,5.73,1.665-.2,3.61-.6,4.291-2.134a4.249,4.249,0,0,0-.4-3.47c-.866-1.823-2.635-3.853-2.211-5.947.347-1.728,1.76-3.258,2.8-4.611,1.94-2.527,5.008-6.159,1.457-8.767-1.611-1.182-3.109.2-4.133,1.642-.338.478-.627.961-.853,1.358Z" transform="translate(-653.014 -353.756)" fill="#4591bf"/>
      <path id="Trazado_604322" data-name="Trazado 604322" d="M265.656,744.521c.14.185.284.388.442.591a2.894,2.894,0,0,0,1.5,1.033,2.061,2.061,0,0,1,1.259.78,19.061,19.061,0,0,1-6.371.537c-.862-.072-1.71-.284-1.512-1.336l.253-1.358c.063-.343.131-.686.194-1.029.081-.424,2.017-.374,2.342-.356a2.288,2.288,0,0,1,1.886,1.141Z" transform="translate(-196.588 -560.699)" fill="#ffb980"/>
      <path id="Trazado_604323" data-name="Trazado 604323" d="M263.6,752.827c1.417,0,2.811-.009,4.223-.117.4-.424.117-1.173-.379-1.476a4.088,4.088,0,0,0-1.688-.379,6.916,6.916,0,0,1-2.833-1.006,5.309,5.309,0,0,0-1.507-.812c-1.615-.393-1.53,1.39-1.48,2.468a1.546,1.546,0,0,0,.257,1,1.783,1.783,0,0,0,1.191.32c.735.031,1.48.009,2.215.009Z" transform="translate(-195.807 -564.935)" fill="#3d535c"/>
      <path id="Trazado_604324" data-name="Trazado 604324" d="M259.007,622.046a6.768,6.768,0,0,1-.095,1.241.465.465,0,0,0,.117.388c.189.149.559.058.763.041.69-.068,1.381.023,2.066-.032a4.531,4.531,0,0,0,1.837-.523c.826-.465-.379-6.957-.384-8.248a60.915,60.915,0,0,1,.289-7.968c.393-2.969,1.778-5.59,2.572-8.428.9-3.244,1.2-6.786,1.773-10.1a8.712,8.712,0,0,0,.14-3.325c-.587-2.649-4.882-3.195-6.786-1.548-.988.853-1.137,2.306-1.218,3.61-.3,4.868-.275,9.8-.907,14.623a71.143,71.143,0,0,0-.158,20.272Z" transform="translate(-194.632 -439.28)" fill="#b6c0d7"/>
      <path id="Trazado_604325" data-name="Trazado 604325" d="M288.5,744.216a11.033,11.033,0,0,0,1.913,1.976c.374.248.46.492.785.808a19.069,19.069,0,0,1-6.371.537,2.11,2.11,0,0,1-1.647-.695,2.243,2.243,0,0,1-.072-1.746,1.975,1.975,0,0,1,.767-1.372,1.777,1.777,0,0,1,.735-.167c1.3-.09,3.019-.311,3.894.659Z" transform="translate(-213.218 -560.772)" fill="#ffb980"/>
      <path id="Trazado_604326" data-name="Trazado 604326" d="M278.944,578.569c-.077-.487-.163-.975-.253-1.457-.483-2.572-1.521-5.5-4.02-6.276a5.444,5.444,0,0,0-4.21.681c-1.4.794-2.662,2.211-2.5,3.817.149,1.516,1.381,2.382,2.193,3.533,1.186,1.688,1.543,3.718,2.188,5.636.591,1.76,1.7,3.42,2.008,5.27s-.311,3.461-.69,5.284c-.419,2.03-3.24,18.734-1.34,19.14,1.548.329,3.019-.956,4.616-.826a36.466,36.466,0,0,1,.131-9.561c.7-3.452,1.931-6.809,2.716-10.251a21.582,21.582,0,0,0,.1-7.188c-.257-2.6-.51-5.216-.93-7.8Z" transform="translate(-201.872 -430.252)" fill="#e0e4ee"/>
      <path id="Trazado_604327" data-name="Trazado 604327" d="M271.652,572.4a13.956,13.956,0,0,1,5.351,2.64q-.954-4.1-1.908-8.2c-.036-.153-6.791-.961-7.3-.708-1.669.83-1.859,4.9-2.2,6.682,2,.208,4.038-.754,6.05-.411Z" transform="translate(-200.103 -426.802)" fill="#b6c0d7"/>
      <path id="Trazado_604328" data-name="Trazado 604328" d="M307.737,438.708l.772,1.453a.547.547,0,0,1-.483.8H307.3l.438-2.256Z" transform="translate(-231.599 -330.598)" fill="#f5906e"/>
      <path id="Trazado_604329" data-name="Trazado 604329" d="M288.1,423.411c.054-1.119.257-2.955-.708-3.79a3.053,3.053,0,0,0-3.3.063,5.015,5.015,0,0,0-1.99,2.761,14.829,14.829,0,0,0-.546,3.425q-.23,2.856-.465,5.712c.032-.383,2.879,1.421,3.082,1.652.4-.307,1.074-.2,1.579-.23a5.413,5.413,0,0,1-.194-3.321.862.862,0,0,1,.23-.5,1.325,1.325,0,0,1,.709-.162c2.071-.262,1.547-4.323,1.611-5.618Z" transform="translate(-211.799 -315.833)" fill="#ffb980"/>
      <path id="Trazado_604330" data-name="Trazado 604330" d="M275.678,472.051c.049.158.095.32.144.483a41.851,41.851,0,0,1,.984,4.819,8.829,8.829,0,0,0,.393,2.22c.216.447.722.645.916,1.11a.983.983,0,0,1-.158,1.141l-2.364,4.088c.167.442.316.894.451,1.349a5.87,5.87,0,0,1,.307,2.6c-.059.343-.217.663-.262,1.006a12.769,12.769,0,0,0-.013,1.313,3.492,3.492,0,0,1-.194.984,1.857,1.857,0,0,0-.095.668c.013.447.113.889.162,1.331.063.541.108,1.092.185,1.633a4.2,4.2,0,0,1,.113,1.006.292.292,0,0,1-.095.217.427.427,0,0,1-.325.032,4.744,4.744,0,0,1-1.06-.442,3.177,3.177,0,0,1-.835-.492,3.9,3.9,0,0,1-.6-.808,1.714,1.714,0,0,0-1.178-.93c-.41-.072-.835-.054-1.25-.095a3.114,3.114,0,0,0-.939-.045.342.342,0,0,0-.212.131.9.9,0,0,1-.5.3c-.456.122-.934.167-1.4.262a13,13,0,0,0-1.3.357,14.689,14.689,0,0,1-1.5.442,1.607,1.607,0,0,1-.623.032c-.357-.072-.42-.41-.438-.731-.027-.451-.023-.9-.054-1.354-.036-.541-.086-1.087-.095-1.629a21.873,21.873,0,0,1,.325-2.87c.117-1.029.14-2.071.212-3.1a13.852,13.852,0,0,1,.163-1.43c.081-.487.208-.965.3-1.453a15.9,15.9,0,0,0-.108-5.311c-.266-1.908.523-4.264.821-6.159s.736-3.993,2.337-5.026c1.778-1.146,3.767-.117,5.378.812a5.559,5.559,0,0,1,2.409,3.551Z" transform="translate(-198.777 -352.106)" fill="#7e19b8"/>
      <path id="Trazado_604331" data-name="Trazado 604331" d="M284.111,494.5c.131,3.537.28,7.152,1.6,10.436a5.96,5.96,0,0,0,1.868,2.694,2.711,2.711,0,0,0,3.1.167c.257-.19-2.459-7-2.761-7.688-.911-2.071-2.477-3.741-3.808-5.6Z" transform="translate(-214.082 -372.732)" fill="#641493"/>
      <path id="Trazado_604332" data-name="Trazado 604332" d="M281.625,753.4a2.079,2.079,0,0,0,.771.14c2.193.059,4.417.05,6.61.027.672-.009,1.349-.009,2.021-.072a1.622,1.622,0,0,0,.853-.248.724.724,0,0,0,.027-1.092c-.433-.429-2.279-1.4-2.883-1.047a1.61,1.61,0,0,0-.212.18,1.456,1.456,0,0,1-.623.271,8.267,8.267,0,0,1-3.393.09,3.854,3.854,0,0,1-1.737-.469c-.212-.14-1.543-.893-1.426-1.232a7.757,7.757,0,0,0-.528,2.558.876.876,0,0,0,.519.9Z" transform="translate(-211.813 -565.664)" fill="#4a6570"/>
      <path id="Trazado_604333" data-name="Trazado 604333" d="M262.763,434.492a6.286,6.286,0,0,1-2.473-4.995c-.05-3.7,3.041-6.394,2.5-10.1a10.831,10.831,0,0,1-.167-3.926,7.552,7.552,0,0,1,1.471-3.172,4.016,4.016,0,0,1,2.639-1.394,10.949,10.949,0,0,1,4.164.5c1.164.275,2.351.37,2.64,1.832a2.235,2.235,0,0,1-.966,2.256c-.126-.4-.257-.8-.384-1.2a3.391,3.391,0,0,1-1.313,1.146c-.451.208-.9.185-1.223.627a4,4,0,0,0-.32,3.7,11.979,11.979,0,0,1,.771,3.858,6.98,6.98,0,0,1-1.76,3.813,41.879,41.879,0,0,0-2.716,3.289,14.479,14.479,0,0,0-1.476,4.408,4.336,4.336,0,0,1-1.381-.641Z" transform="translate(-196.091 -309.557)" fill="#4591bf"/>
      <path id="Trazado_604334" data-name="Trazado 604334" d="M303.845,497.428l-5.022,2.6,1.1,1.886,3.921-3.068Z" transform="translate(-225.194 -374.947)" fill="#ffb980"/>
      <path id="Trazado_604335" data-name="Trazado 604335" d="M318.277,487.632s1.11-3.091,1.552-3.312,2.441-.776,2.441-.776l-4,4.092Z" transform="translate(-239.884 -364.46)" fill="#ffb980"/>
      <path id="Trazado_604336" data-name="Trazado 604336" d="M309.793,481.812l8.207-9,8.528,3.79-8.356,9.155Z" transform="translate(-233.479 -356.357)" fill="#214a81"/>
      <path id="Trazado_604337" data-name="Trazado 604337" d="M318.292,485.626l6.285-6.931,6.407,2.847-6.4,7.048Z" transform="translate(-239.898 -360.799)" fill="#fff"/>
      <path id="Trazado_604338" data-name="Trazado 604338" d="M340.808,480.255l-6.163-6.917s.347-.523.474-.523,6.037,6.912,6.037,6.912l.1.663-.451-.14Z" transform="translate(-252.249 -356.357)" fill="#fc8dde"/>
      <path id="Trazado_604339" data-name="Trazado 604339" d="M305.127,492.7c1.1-.677,2.116-1.534,3.226-2.184a18.653,18.653,0,0,0,3.483-2.125,3.6,3.6,0,0,0,1.083-1.48c.361-1.128-.176-2.459.555-3.5.636-.9,1.949-1.07,2.946-1.4a1.4,1.4,0,0,1,.054,1.534,8.406,8.406,0,0,1,.7,1.859c-.059.456-.907,1.678-1.2.659.212.745-1.547,3.036-1.967,3.564a49.474,49.474,0,0,1-3.524,4.061c-2.369,2.387-4.986,3.614-7.134.041q.887-.488,1.773-1.033Z" transform="translate(-228.619 -363.305)" fill="#ffb980"/>
      <path id="Trazado_604340" data-name="Trazado 604340" d="M287.641,482.755c-.411-1.168-.758-3.086-2.2-3.312a3.014,3.014,0,0,0-1.918.433,4.755,4.755,0,0,0-2.229,2.915,4.07,4.07,0,0,0,.465,3.393c.271.307.681.393.925.763a6.547,6.547,0,0,1,.393,1.34,2.464,2.464,0,0,0,.564.763,2.9,2.9,0,0,1,.365.478,1.308,1.308,0,0,0,.23.307c.248.221.618.275.83.537a3.082,3.082,0,0,1,.226.392c.108.194.253.366.361.56.217.37.442,1.042.993.9.97-.257,1.466-1.2,2.26-1.723a2.288,2.288,0,0,0,.812-.636.908.908,0,0,0-.014-.7,1.971,1.971,0,0,0-.582-.812,3.455,3.455,0,0,1-.65-.97,6.68,6.68,0,0,1-.365-1.394,5.361,5.361,0,0,1-.126-.8c-.018-.284,0-.568,0-.853a5.261,5.261,0,0,0-.339-1.579Z" transform="translate(-211.832 -361.343)" fill="#7e19b8"/>
      <path id="Trazado_604341" data-name="Trazado 604341" d="M320.873,491.408a4.524,4.524,0,0,1,1.033-1.371c.492-.3,1.927-.979,1.936-.257s-1.484.65-1.484.65l-1.484.975Z" transform="translate(-241.847 -368.927)" fill="#ffb980"/>
      <path id="Trazado_604342" data-name="Trazado 604342" d="M754.008,467.025c-.284.609-.546,1.223-.776,1.85a1.894,1.894,0,0,0,.469,2.252,2.258,2.258,0,0,0,2.315-.37c1.787-1.133,3.664-2.843,4.228-4.932.46-1.706.713-3.524,1.083-5.256.266-1.259,1.462-3.682-.5-3.646-1.615.027-2.576,2.017-3.145,3.19C756.557,462.418,755.109,464.674,754.008,467.025Z" transform="translate(-568.269 -344.354)" fill="#ffb980"/>
      <path id="Trazado_604343" data-name="Trazado 604343" d="M761.51,464.251a1.954,1.954,0,0,0-.248,1.71c.487.966,2.152.677,2.73,1.593q1.1-2.226,2.193-4.449a6.071,6.071,0,0,0,.645-1.737,2.084,2.084,0,0,0-.442-1.742c-1.633-1.737-4.259,3.406-4.877,4.62Z" transform="translate(-574.368 -346.128)" fill="#b6c0d7"/>
      <path id="Trazado_604344" data-name="Trazado 604344" d="M720.99,486.853c-.289-.131-.573-.266-.857-.411-1.336-.686-2.554-1.566-3.867-2.288-.839-.438-1.665-.907-2.5-1.358a9.325,9.325,0,0,0-2.067-1.169,1.744,1.744,0,0,0,.4,1.466c-1.241.167-2.477.406-3.741.541a1.489,1.489,0,0,0,.406,1.516,2.425,2.425,0,0,0,1.5.627c1.435.131,2.946-.523,4.35-.032a8.474,8.474,0,0,1,2.423,2.039c1.047.97,2.089,1.922,3.195,2.815a1.7,1.7,0,0,0,1.3-1.5c.176-.808.208-1.913-.546-2.256Z" transform="translate(-534.448 -363.013)" fill="#ffb980"/>
      <path id="Trazado_604345" data-name="Trazado 604345" d="M781.661,683.712c.456.907,2.08,4.1.979,4.914a1.992,1.992,0,0,1-.523.248l-1.209.433a25.874,25.874,0,0,1-7.188,1.426,1,1,0,0,1-.717-.126c-.885-.713.9-.893,1.187-1.033a8.749,8.749,0,0,0,2.148-1.994,13.559,13.559,0,0,0,2.035-2.7c.348-.65.122-.632.7-1.033a23.14,23.14,0,0,1,2.314-.659c.086.167.176.338.266.514Z" transform="translate(-583.139 -515.244)" fill="#3d535c"/>
      <path id="Trazado_604346" data-name="Trazado 604346" d="M766.764,538.369c0-.235.009-.474.013-.713l7.693-6.736c.181.28.348.564.5.857a9.035,9.035,0,0,1,1.02,3.912,13.284,13.284,0,0,1-.483,3.668c-.352,1.381-.749,2.743-1.038,4.138-.311,1.512-.573,3.055-1.02,4.539a10.553,10.553,0,0,0-.812,3.528,5.188,5.188,0,0,0,.262,1.575,5.652,5.652,0,0,0,.844,1.336,16.559,16.559,0,0,1,2.017,3.222,11.314,11.314,0,0,1,.893,3.813,29.145,29.145,0,0,0,.483,4.246c.113.474.348.9.469,1.363a3.128,3.128,0,0,1,.036,1.178l-3.343.78a4.676,4.676,0,0,1-.325-1.1c-.072-.465-.041-.943-.1-1.412a9.012,9.012,0,0,0-1.038-2.978c-.573-1.11-1.146-2.224-1.651-3.37a26.077,26.077,0,0,0-1.444-3.122,19.231,19.231,0,0,0-2.1-2.468,3.023,3.023,0,0,1-.808-1.692,10.782,10.782,0,0,1,.027-1.665c.022-.469.018-.943,0-1.412-.045-1.353-.09-2.707-.113-4.061-.045-2.585.352-5.464-.063-7.982-.393-2.4-.835-4.449,1.065-6.448a6,6,0,0,1,6.962-1.119,1.047,1.047,0,0,1-.4,1.218" transform="translate(-578.291 -399.238)" fill="#304c8e"/>
      <path id="Trazado_604347" data-name="Trazado 604347" d="M761.526,690.411c.243.984,1.132,4.453-.117,5.013a2,2,0,0,1-.564.126c-.424.054-.853.108-1.277.158a59.306,59.306,0,0,1-6.813.384c-1.069.014-2.531-.546-.745-1.2a15.368,15.368,0,0,0,3.479-1.863,13.458,13.458,0,0,0,2.581-2.188c.483-.559.257-.587.916-.853a22.6,22.6,0,0,1,2.4-.135c.05.181.1.37.144.564Z" transform="translate(-566.835 -520.274)" fill="#4a6570"/>
      <path id="Trazado_604348" data-name="Trazado 604348" d="M770.938,532.5c1.512-1.011,4.508-1.512,6.055-.235,1.6,1.322.555,3.357.153,5.365-1.083,5.41-3.668,9.575-5.523,14.565-.984,2.649.645,4.652,1.2,7.138.763,3.42-.253,6.809-.131,10.211a3.081,3.081,0,0,1-.226,1.155l-3.434.027a4.66,4.66,0,0,1-.077-1.146c.032-.469.167-.93.212-1.4a8.968,8.968,0,0,0-.361-3.131c-.555-2.112-1.024-4.611-1.746-6.813-.794-2.418-1.606-3.718-1.331-6.312.433-4.1,1.913-7.955,2.563-12,.438-2.725.013-5.672,2.635-7.422Z" transform="translate(-577.79 -400.679)" fill="#4591bf"/>
      <path id="Trazado_604349" data-name="Trazado 604349" d="M768.687,542.866a7.755,7.755,0,0,0,4.016,2.464,6.255,6.255,0,0,0,4.62-.681,2.819,2.819,0,0,0,1.209-1.272,1.426,1.426,0,0,0-.329-1.629,2.239,2.239,0,0,0-1.308-.352q-4.67-.264-9.335-.532a3.636,3.636,0,0,0,2.951,3.217" transform="translate(-579.212 -407.751)" fill="#304c8e"/>
      <path id="Trazado_604350" data-name="Trazado 604350" d="M774.877,466.529q0,.467.027.934c.1,1.972,1.751,3.524-.244,5.266a5.817,5.817,0,0,1-3.619,1.187c-3.749.162-9.556-.975-7.919-5.645a19.848,19.848,0,0,0,.907-7.508c-.1-1.227-.352-2.437-.4-3.664-.081-2.342,1.1-3.352,2.166-5.2a5.938,5.938,0,0,1,3.79-3.267,5.358,5.358,0,0,1,4.106.844c.5.3,1.575.8,1.841,1.326.3.6-.117,1.665-.176,2.3-.284,3.136-.293,6.29-.361,9.439-.027,1.318-.131,2.667-.126,3.993Z" transform="translate(-575.647 -337.997)" fill="#e0e4ee"/>
      <path id="Trazado_604351" data-name="Trazado 604351" d="M796.744,475.645a5.93,5.93,0,0,0,.875,1.746q1.848,2.849,3.691,5.694a50.221,50.221,0,0,0-.51-8.979,4.838,4.838,0,0,0-.659-2.084C798.156,469.156,796.329,473.975,796.744,475.645Z" transform="translate(-601.209 -355.085)" fill="#b6c0d7"/>
      <path id="Trazado_604352" data-name="Trazado 604352" d="M787.385,432.514c.221-.442-.4-2.473-.438-3.027-.077-1.07-.009-2.139,0-3.2-.469.131-4.088,1.688-4.111,1.534.2,1.164.533,2.369.681,3.528.1.794-.226,2.085.564,2.635C785.2,434.766,786.921,433.5,787.385,432.514Z" transform="translate(-590.755 -321.213)" fill="#ffb980"/>
      <path id="Trazado_604353" data-name="Trazado 604353" d="M784.128,519.852c-.262.424-.438.9-.677,1.367a16.44,16.44,0,0,1-1.913,2.743,25.3,25.3,0,0,0-4.074,5.861c-.081.194.939-.167.993-.2a4.128,4.128,0,0,0,.88-1.155,20.743,20.743,0,0,1-1.25,4.011c-.131.356,2.274-.591,2.558-.948a10.427,10.427,0,0,0,1.5-3.564,5.388,5.388,0,0,1,.42-1.263,15.865,15.865,0,0,1,2.481-2.883c.889-.939,3.889-3.343,2.012-4.769a1.942,1.942,0,0,0-2.125-.027,2.4,2.4,0,0,0-.8.821Z" transform="translate(-586.689 -391.027)" fill="#ffb980"/>
      <path id="Trazado_604354" data-name="Trazado 604354" d="M806.093,475.8a10.858,10.858,0,0,1-.221,3.781,1.859,1.859,0,0,0,.442,1.827,1.512,1.512,0,0,0,1.616.095,2.852,2.852,0,0,0,1.146-1.241c.961-1.791,2.193-14.474-2.518-12.9-1.642.55-1.137,2.247-.965,3.533.217,1.62.352,3.249.5,4.877v.023Z" transform="translate(-607.779 -352.137)" fill="#ffb980"/>
      <path id="Trazado_604355" data-name="Trazado 604355" d="M802.569,459.186a1.824,1.824,0,0,0,1.2,1.584,4.1,4.1,0,0,0,1.624.153l2.865-.108a9.108,9.108,0,0,0-.348-3.285,10.594,10.594,0,0,0-.97-3.371,6.078,6.078,0,0,0-1.863-2.269,4.918,4.918,0,0,0-1.146-.564,1.312,1.312,0,0,0-.717-.1c-.6.144-.74,2.928-.8,3.438a15.663,15.663,0,0,0,.149,4.521Z" transform="translate(-605.464 -340.035)" fill="#e0e4ee"/>
      <path id="Trazado_604356" data-name="Trazado 604356" d="M779.581,404.656c0,1.927-.578,4.246-2.22,4.395a7.158,7.158,0,0,1-4.814-1.66,7.434,7.434,0,0,1-2.464-3.763c-.411-1.516.55-2.748,1.8-3.609a2.693,2.693,0,0,1,.717-.32,6.257,6.257,0,0,0,1.033-.465c2.428-1.268,4.9,1.173,5.672,3.357a6.652,6.652,0,0,1,.275,2.062Z" transform="translate(-581.046 -300.52)" fill="#966c49"/>
      <path id="Trazado_604357" data-name="Trazado 604357" d="M774.509,410.638a11.628,11.628,0,0,0-.235,3.285,7.022,7.022,0,0,0,.758,2.942,3.578,3.578,0,0,0,1.624,1.755,2.354,2.354,0,0,0,1.922-.248,3.626,3.626,0,0,0,1.692-1.543,4.514,4.514,0,0,0,.171-1.755.446.446,0,0,0,.505.424.734.734,0,0,0,.542-.478,2.179,2.179,0,0,0,.1-.745,1.771,1.771,0,0,0-.072-.654.572.572,0,0,0-.487-.388.354.354,0,0,0-.347.438,4.882,4.882,0,0,0-2.143-3.736,3.66,3.66,0,0,0-2.256-.645,2.233,2.233,0,0,0-1.656,1,1.807,1.807,0,0,0-.113.343Z" transform="translate(-584.267 -308.361)" fill="#ffb980"/>
      <path id="Trazado_604358" data-name="Trazado 604358" d="M801.532,401.3a2.7,2.7,0,0,1,1.327,1.227,2.555,2.555,0,0,1,.18,2.342,1.985,1.985,0,0,1-2.712.772C798.685,404.622,798.906,400.3,801.532,401.3Z" transform="translate(-603.172 -302.233)" fill="#966c49"/>
      <path id="Trazado_604359" data-name="Trazado 604359" d="M779.752,410.214a.8.8,0,0,0,.429-.235c.2-.257.05-.632-.14-.9a4.051,4.051,0,0,0-2.942-1.661c-1.191-.09-4.1.749-2.387,2.076A6.12,6.12,0,0,0,779.752,410.214Z" transform="translate(-584.217 -306.962)" fill="#966c49"/>
    </g>
  </g>
</svg>
