<svg xmlns="http://www.w3.org/2000/svg" width="135.596" height="135.626" viewBox="0 0 135.596 135.626">
  <g id="Grupo_1014746" data-name="Grupo 1014746" transform="translate(-254.354 -3099.561)">
    <path id="Trazado_601567" data-name="Trazado 601567" d="M132.493,1998.84a67.813,67.813,0,1,1-67.813,67.813A67.794,67.794,0,0,1,132.493,1998.84Z" transform="translate(189.673 1100.721)" fill="#60cb28"/>
    <g id="Grupo_1014745" data-name="Grupo 1014745">
      <path id="Trazado_601667" data-name="Trazado 601667" d="M217.308,2185.065l10.521-10.411c3.93-3.927,11.487,1.031,7.4,5.833l-12.74,14.99a8.9,8.9,0,0,1-1.7,1.546,12.729,12.729,0,0,1-6.91,1.75H194.973a35.917,35.917,0,0,0-4.092.236l-5.438.611-11.278-10.943s6.4-12.085,18.948-8.61a27.134,27.134,0,0,0,7.212.959h12.425c5.849,0,5.9,9.292-.049,9.292H201.885" transform="translate(123.929 996)" fill="#ffcdac"/>
      <path id="Trazado_601668" data-name="Trazado 601668" d="M156.318,2231.809l10.729-11.007a.008.008,0,0,0,0-.012l-18.206-17.67h-.011L138,2214.366Z" transform="translate(145.646 978.053)" fill="#304c8e"/>
      <path id="Trazado_601669" data-name="Trazado 601669" d="M161.114,2120.924a6.7,6.7,0,0,0-6.062,6.668v7.139a2.231,2.231,0,0,0,2.232,2.229h15.3a2.231,2.231,0,0,0,2.231-2.229v-7.139a6.7,6.7,0,0,0-6.069-6.672" transform="translate(135.406 1027.413)" fill="#1c2d55"/>
      <path id="Trazado_601670" data-name="Trazado 601670" d="M176.021,2093.487a7.488,7.488,0,1,1-7.488-7.487A7.49,7.49,0,0,1,176.021,2093.487Z" transform="translate(131.807 1048.383)" fill="#ffcdac"/>
      <path id="Trazado_601671" data-name="Trazado 601671" d="M210.588,2120.924a6.7,6.7,0,0,0-6.063,6.668v7.139a2.231,2.231,0,0,0,2.232,2.229h15.3a2.231,2.231,0,0,0,2.232-2.229v-7.139a6.7,6.7,0,0,0-6.07-6.672" transform="translate(105.698 1027.413)" fill="#7e19b8"/>
      <path id="Trazado_601672" data-name="Trazado 601672" d="M225.495,2093.487a7.488,7.488,0,1,1-7.488-7.487A7.49,7.49,0,0,1,225.495,2093.487Z" transform="translate(102.099 1048.383)" fill="#ffcdac"/>
      <path id="Trazado_601673" data-name="Trazado 601673" d="M260.061,2120.924a6.7,6.7,0,0,0-6.063,6.668v7.139a2.231,2.231,0,0,0,2.232,2.229h15.3a2.231,2.231,0,0,0,2.232-2.229v-7.139a6.7,6.7,0,0,0-6.071-6.672" transform="translate(75.99 1027.413)" fill="#ffd98e"/>
      <path id="Trazado_601674" data-name="Trazado 601674" d="M274.969,2093.487a7.488,7.488,0,1,1-7.488-7.487A7.491,7.491,0,0,1,274.969,2093.487Z" transform="translate(72.391 1048.383)" fill="#ffcdac"/>
    </g>
  </g>
</svg>
